<svg xmlns="http://www.w3.org/2000/svg" xmlns:xlink="http://www.w3.org/1999/xlink" width="169.671" height="200.98" viewBox="0 0 169.671 200.98"><defs><clipPath id="a"><rect width="169.671" height="200.981" fill="none"/></clipPath><clipPath id="c"><rect width="23.18" height="26.222" fill="none"/></clipPath><clipPath id="f"><rect width="1.482" height="1.535" fill="none"/></clipPath><clipPath id="g"><rect width="7.705" height="9.045" fill="none"/></clipPath></defs><g transform="translate(-1040.329 -6470.557)"><g transform="translate(1040.329 6470.557)"><g clip-path="url(#a)"><g clip-path="url(#a)"><path d="M200.589,190.214H84.047a5.811,5.811,0,0,1-5.711-5.907V6.165A5.811,5.811,0,0,1,84.047.258H200.589A5.812,5.812,0,0,1,206.3,6.166v178.14a5.812,5.812,0,0,1-5.711,5.908" transform="translate(-41.549 -0.137)" fill="#e0e0e0"/><path d="M200.451,190.077s.137-.011.406-.028a3.392,3.392,0,0,0,.5-.063,4.9,4.9,0,0,0,.683-.159,5.7,5.7,0,0,0,1.756-.9,5.818,5.818,0,0,0,1.723-2.1,5.99,5.99,0,0,0,.513-1.561,9.681,9.681,0,0,0,.1-1.828q0-1.929-.006-4.217c0-3.048-.007-6.565-.011-10.523-.009-15.838-.023-38.751-.038-67.064,0-14.157-.009-29.664-.015-46.312q0-12.485-.006-25.8,0-6.65,0-13.492,0-3.42,0-6.885c-.008-1.152.017-2.321-.018-3.47A5.6,5.6,0,0,0,205.693,4a5.55,5.55,0,0,0-.81-1.508,5.651,5.651,0,0,0-2.749-2,6.053,6.053,0,0,0-1.706-.267h-8.921l-14.539,0-29.986,0-63.058,0A5.548,5.548,0,0,0,80.3,1.612a5.838,5.838,0,0,0-1.889,3.383,10.909,10.909,0,0,0-.094,1.986V13q0,8,0,15.895,0,15.782,0,31.075c0,20.374,0,40.026-.007,58.746s-.008,36.51-.011,53.159q0,6.243,0,12.269a6.134,6.134,0,0,0,.7,2.836,5.77,5.77,0,0,0,1.956,2.126,5.658,5.658,0,0,0,1.3.622,5.545,5.545,0,0,0,1.416.245c.967.026,1.944.008,2.908.014l22.222.008,67.061.039,18.233.023,4.741.012c1.068,0,1.615.012,1.615.012s-.547.008-1.615.012l-4.741.012-18.233.023-67.061.038-22.222.008c-.967-.006-1.933.013-2.916-.012a5.744,5.744,0,0,1-1.466-.253,5.85,5.85,0,0,1-1.349-.642,5.966,5.966,0,0,1-2.023-2.2,6.332,6.332,0,0,1-.723-2.927q0-6.024,0-12.269c0-16.649-.007-34.438-.011-53.159s0-38.373-.007-58.746q0-15.28,0-31.075,0-7.891,0-15.895V6.98a11.172,11.172,0,0,1,.1-2.027A6.084,6.084,0,0,1,80.143,1.43,5.789,5.789,0,0,1,83.925,0l63.058,0,29.986,0,14.539,0h8.921A6.264,6.264,0,0,1,202.2.287a5.873,5.873,0,0,1,2.858,2.075,5.771,5.771,0,0,1,.84,1.566,5.8,5.8,0,0,1,.354,1.736c.035,1.174.009,2.325.017,3.483q0,3.465,0,6.885,0,6.84,0,13.492,0,13.3-.006,25.8c-.005,16.648-.01,32.155-.015,46.312-.016,28.313-.029,51.227-.039,67.064,0,3.958-.008,7.475-.011,10.523q0,2.286-.006,4.217a9.652,9.652,0,0,1-.107,1.838,6.015,6.015,0,0,1-.523,1.572,5.85,5.85,0,0,1-1.745,2.107,5.706,5.706,0,0,1-1.771.895,4.868,4.868,0,0,1-.687.153,3.378,3.378,0,0,1-.5.057c-.271.012-.407.015-.407.015" transform="translate(-41.411)" fill="#263238"/><path d="M207.074,380.335a5.428,5.428,0,1,1-5.427-5.329,5.379,5.379,0,0,1,5.427,5.329" transform="translate(-104.073 -198.9)" fill="#fff"/><path d="M210.925,17.374H184.791a1.886,1.886,0,0,1,0-3.77h26.134a1.886,1.886,0,0,1,0,3.77" transform="translate(-97.044 -7.215)" fill="#263238"/><rect width="119.894" height="158.636" transform="translate(40.712 13.673)" fill="#fff"/><path d="M206.45,187.615c0-.962-.045-64.615-.109-158.636l.109.109L86.569,29.1h-.013l.121-.121c-.008,59.046-.015,113.794-.022,158.636l-.1-.1,119.894.1-119.894.1h-.1v-.1c-.006-44.842-.014-99.59-.022-158.636v-.121h.134l119.881.012h.109v.109c-.064,94.021-.108,157.675-.109,158.636" transform="translate(-45.844 -15.306)" fill="#263238"/><path d="M79.558,74.03H77.812A10.718,10.718,0,0,1,67.1,63.313v-15.5h23.18v15.5A10.718,10.718,0,0,1,79.558,74.03" transform="translate(-35.587 -25.357)" fill="#f14141"/><path d="M128.527,74.03h-1.746a10.718,10.718,0,0,1-10.718-10.717v-15.5h23.18v15.5A10.717,10.717,0,0,1,128.527,74.03" transform="translate(-61.559 -25.357)" fill="#f14141"/><path d="M177.5,74.03h-1.745a10.718,10.718,0,0,1-10.718-10.717v-15.5h23.18v15.5A10.717,10.717,0,0,1,177.5,74.03" transform="translate(-87.532 -25.357)" fill="#f14141"/><path d="M226.466,74.03h-1.745A10.718,10.718,0,0,1,214,63.313v-15.5a0,0,0,0,1,0,0H237.18a0,0,0,0,1,0,0v15.5A10.717,10.717,0,0,1,226.466,74.03" transform="translate(-113.505 -25.357)" fill="#f14141"/><path d="M275.435,74.03H273.69a10.718,10.718,0,0,1-10.718-10.717v-15.5h23.181v15.5A10.718,10.718,0,0,1,275.435,74.03" transform="translate(-139.478 -25.357)" fill="#f14141"/><path d="M324.4,74.03h-1.745a10.718,10.718,0,0,1-10.718-10.717v-15.5h23.18v15.5A10.718,10.718,0,0,1,324.4,74.03" transform="translate(-165.451 -25.357)" fill="#f14141"/><g transform="translate(54.505 22.451)" opacity="0.3"><g clip-path="url(#c)"><path d="M128.527,74.03h-1.746a10.718,10.718,0,0,1-10.718-10.717v-15.5h23.18v15.5A10.717,10.717,0,0,1,128.527,74.03" transform="translate(-116.064 -47.808)" fill="#fff"/></g></g><g transform="translate(100.498 22.451)" opacity="0.3"><g clip-path="url(#c)"><path d="M226.466,74.03h-1.745A10.718,10.718,0,0,1,214,63.313v-15.5a0,0,0,0,1,0,0H237.18a0,0,0,0,1,0,0v15.5A10.717,10.717,0,0,1,226.466,74.03" transform="translate(-214.003 -47.808)" fill="#fff"/></g></g><g transform="translate(146.49 22.451)" opacity="0.3"><g clip-path="url(#c)"><path d="M324.4,74.03h-1.745a10.718,10.718,0,0,1-10.718-10.717v-15.5h23.18v15.5A10.718,10.718,0,0,1,324.4,74.03" transform="translate(-311.941 -47.808)" fill="#fff"/></g></g><path d="M116.32,47.192c.067,0,.121,4.066.121,9.082s-.054,9.082-.121,9.082-.121-4.065-.121-9.082.054-9.082.121-9.082" transform="translate(-61.631 -25.03)" fill="#263238"/><path d="M165.289,47.192c.067,0,.121,4.066.121,9.082s-.054,9.082-.121,9.082-.121-4.065-.121-9.082.054-9.082.121-9.082" transform="translate(-87.604 -25.03)" fill="#263238"/><path d="M214.258,47.192c.067,0,.121,4.066.121,9.082s-.054,9.082-.121,9.082-.121-4.065-.121-9.082.054-9.082.121-9.082" transform="translate(-113.576 -25.03)" fill="#263238"/><path d="M263.228,47.192c.067,0,.121,4.066.121,9.082s-.055,9.082-.121,9.082-.121-4.065-.121-9.082.054-9.082.121-9.082" transform="translate(-139.549 -25.03)" fill="#263238"/><path d="M312.2,47.192c.067,0,.121,4.066.121,9.082s-.054,9.082-.121,9.082-.121-4.065-.121-9.082.054-9.082.121-9.082" transform="translate(-165.522 -25.03)" fill="#263238"/><path d="M205.258,37.94l-8.979-8.823H76.339L67.1,37.94Z" transform="translate(-35.587 -15.443)" fill="#f14141"/><path d="M201.971,47.556c0,.067-30.195.149-67.434.183S67.1,47.747,67.1,47.681s30.188-.149,67.44-.184,67.435-.008,67.435.059" transform="translate(-35.587 -25.184)" fill="#263238"/><path d="M128.253,219.784H113.24a1.59,1.59,0,0,1-1.591-1.591v-.541a1.591,1.591,0,0,1,1.591-1.591h15.013a1.591,1.591,0,0,1,1.591,1.591v.541a1.591,1.591,0,0,1-1.591,1.591" transform="translate(-59.218 -114.597)" fill="#e0e0e0"/><path d="M185.9,218.969h-5.627a1.59,1.59,0,0,1-1.59-1.591v-.259a1.59,1.59,0,0,1,1.59-1.591H185.9a1.591,1.591,0,0,1,1.591,1.591v.259a1.591,1.591,0,0,1-1.591,1.591" transform="translate(-94.772 -114.315)" fill="#ff725e"/><path d="M128.253,350.028H113.24a1.59,1.59,0,0,1-1.591-1.591V347.9a1.591,1.591,0,0,1,1.591-1.591h15.013a1.591,1.591,0,0,1,1.591,1.591v.541a1.591,1.591,0,0,1-1.591,1.591" transform="translate(-59.218 -183.677)" fill="#e0e0e0"/><path d="M181.891,350.028h-6.349a1.59,1.59,0,0,1-1.59-1.591V347.9a1.591,1.591,0,0,1,1.59-1.591h6.349a1.591,1.591,0,0,1,1.591,1.591v.541a1.591,1.591,0,0,1-1.591,1.591" transform="translate(-92.262 -183.677)" fill="#ff725e"/><path d="M255.755,220.928H240.741a1.59,1.59,0,0,1-1.59-1.591V218.8a1.591,1.591,0,0,1,1.59-1.591h15.013a1.591,1.591,0,0,1,1.591,1.591v.541a1.591,1.591,0,0,1-1.591,1.591" transform="translate(-126.843 -115.204)" fill="#e0e0e0"/><path d="M309.52,220.928h-6.348a1.59,1.59,0,0,1-1.591-1.591V218.8a1.591,1.591,0,0,1,1.591-1.591h6.348a1.591,1.591,0,0,1,1.591,1.591v.541a1.591,1.591,0,0,1-1.591,1.591" transform="translate(-159.956 -115.204)" fill="#ff725e"/><path d="M256.194,351.172H241.181a1.59,1.59,0,0,1-1.591-1.591v-.541a1.591,1.591,0,0,1,1.591-1.591h15.013a1.591,1.591,0,0,1,1.591,1.591v.541a1.591,1.591,0,0,1-1.591,1.591" transform="translate(-127.076 -184.284)" fill="#e0e0e0"/><path d="M309.959,351.172h-6.348a1.59,1.59,0,0,1-1.591-1.591v-.541a1.591,1.591,0,0,1,1.591-1.591h6.348a1.591,1.591,0,0,1,1.591,1.591v.541a1.59,1.59,0,0,1-1.591,1.591" transform="translate(-160.189 -184.284)" fill="#ff725e"/><path d="M142.154,156.27H110.31a5.469,5.469,0,0,1-5.469-5.47V118.957a5.469,5.469,0,0,1,5.469-5.47h31.844a5.47,5.47,0,0,1,5.47,5.47V150.8a5.47,5.47,0,0,1-5.47,5.47" transform="translate(-55.607 -60.192)" fill="#fafafa"/><path d="M142.017,156.133s.141-.015.416-.033a6.043,6.043,0,0,0,1.2-.234,5.675,5.675,0,0,0,1.738-.93,5.472,5.472,0,0,0,1.626-2.119,5.74,5.74,0,0,0,.405-1.546c.05-.558.029-1.157.031-1.778q0-1.868-.01-4.051c-.006-2.907-.011-6.217-.018-9.874s-.009-7.666-.015-11.968q0-1.613,0-3.281a9.206,9.206,0,0,0-.324-3.312,5.386,5.386,0,0,0-2.069-2.646,5.569,5.569,0,0,0-3.339-.9l-31.473.009a5.35,5.35,0,0,0-5.337,5.033c-.032,2.7-.01,5.394-.018,8.023,0,5.265,0,10.343-.007,15.181q0,3.628-.005,7.069,0,.859,0,1.706a5.676,5.676,0,0,0,.2,1.633,5.4,5.4,0,0,0,1.718,2.665,5.835,5.835,0,0,0,1.332.821,5.7,5.7,0,0,0,1.486.394c.5.052,1.02.039,1.53.041l1.513,0,5.743.008,17.33.038,4.712.023,1.225.012c.276,0,.417.012.417.012s-.141.009-.417.013l-1.225.012-4.712.023-17.33.038-5.743.008-1.513,0c-.508,0-1.023.014-1.552-.039a5.911,5.911,0,0,1-1.542-.405,6.053,6.053,0,0,1-1.383-.849,5.6,5.6,0,0,1-1.789-2.763,5.909,5.909,0,0,1-.214-1.689q0-.847,0-1.706,0-3.438-.005-7.069c0-4.838,0-9.916-.007-15.181.007-2.635-.018-5.3.015-8.037a5.59,5.59,0,0,1,5.577-5.261l31.473.01a5.786,5.786,0,0,1,3.461.94,5.6,5.6,0,0,1,2.148,2.756,5.318,5.318,0,0,1,.323,1.7c.018.571,0,1.127.008,1.684q0,1.667,0,3.281c-.005,4.3-.01,8.309-.015,11.968s-.013,6.967-.018,9.874q-.006,2.179-.01,4.051c-.006.622.012,1.217-.042,1.79a5.813,5.813,0,0,1-.423,1.572,5.525,5.525,0,0,1-1.668,2.138,5.279,5.279,0,0,1-2.976,1.132c-.277.01-.418.008-.418.008" transform="translate(-55.47 -60.056)" fill="#ff725e"/><path d="M148.182,142.32s-4.416-8.953-5.094-9.632a6.517,6.517,0,0,0-1.615-.987,8.47,8.47,0,0,0-1.018-.442l-.072-.028h0c-1.905-.7-4.893-1.429-4.893-1.429s-.762,2.594-4.38,2.78c-3.618-.186-4.38-2.78-4.38-2.78s-2.988.726-4.893,1.429h0l-.072.028a8.439,8.439,0,0,0-1.018.442,6.513,6.513,0,0,0-1.615.987c-.679.679-5.094,9.632-5.094,9.632l6.459,3.23,1.963-4.468-.447,16.18h18.293l-.547-16.18,1.963,4.468Z" transform="translate(-60.485 -68.846)" fill="#f14141"/><path d="M129.375,149.758a9.577,9.577,0,0,1-.049-1.477c0-.919.01-2.2.037-3.64l.008.047-.255-.64c-.594-1.49-1.119-2.843-1.487-3.827-.185-.492-.33-.891-.425-1.17a1.688,1.688,0,0,1-.125-.441,1.658,1.658,0,0,1,.213.406c.122.268.292.657.5,1.142.41.968.959,2.311,1.553,3.8l.255.64.009.023v.024c-.034,1.443-.076,2.721-.116,3.639a9.605,9.605,0,0,1-.112,1.474" transform="translate(-67.399 -73.517)" fill="#263238"/><path d="M168.474,149.758a9.6,9.6,0,0,1-.112-1.474c-.04-.918-.082-2.2-.116-3.639v-.024l.009-.023.255-.64c.594-1.49,1.143-2.833,1.553-3.8.2-.484.374-.874.5-1.142a1.658,1.658,0,0,1,.213-.406,1.688,1.688,0,0,1-.125.441c-.1.278-.24.678-.425,1.17-.369.984-.893,2.338-1.487,3.827l-.256.64.009-.047c.027,1.442.039,2.721.037,3.64a9.575,9.575,0,0,1-.049,1.477" transform="translate(-89.236 -73.517)" fill="#263238"/><path d="M157.67,152.581c0-.02.181-.016.495-.1a2.117,2.117,0,0,0,1.523-1.618,6.561,6.561,0,0,0,.034-1.141c-.005-.832-.011-1.752-.017-2.738l.115.115-2.935.006-2.15,0,.118-.118c-.006,1.086-.011,2.1-.016,3.028,0,.229-.009.455.009.657a2.181,2.181,0,0,0,.148.579,2.09,2.09,0,0,0,.647.841,2.258,2.258,0,0,0,1.453.452,3.018,3.018,0,0,1,.576.041,3.022,3.022,0,0,1-.576.041,2.267,2.267,0,0,1-1.545-.412,2.222,2.222,0,0,1-.722-.89,2.338,2.338,0,0,1-.174-.628c-.025-.229-.019-.45-.022-.679,0-.924-.01-1.942-.015-3.028v-.118h.119l2.15,0,2.935.006h.116v.115c-.006.987-.012,1.907-.017,2.738a6.426,6.426,0,0,1-.062,1.177,2.255,2.255,0,0,1-.452.919,2.137,2.137,0,0,1-1.221.737,1.662,1.662,0,0,1-.381.038c-.087,0-.131-.007-.131-.013" transform="translate(-82.007 -77.895)" fill="#263238"/><path d="M142.154,285.33H110.31a5.469,5.469,0,0,1-5.469-5.47V248.017a5.469,5.469,0,0,1,5.469-5.47h31.844a5.47,5.47,0,0,1,5.47,5.47V279.86a5.47,5.47,0,0,1-5.47,5.47" transform="translate(-55.607 -128.645)" fill="#fafafa"/><path d="M142.017,285.193s.141-.016.416-.033a6.037,6.037,0,0,0,1.2-.234,5.675,5.675,0,0,0,1.738-.93,5.473,5.473,0,0,0,1.626-2.119,5.739,5.739,0,0,0,.405-1.546c.05-.558.029-1.157.031-1.778q0-1.868-.01-4.051c-.006-2.907-.011-6.217-.018-9.874s-.009-7.666-.015-11.968q0-1.613,0-3.281a9.2,9.2,0,0,0-.324-3.312,5.386,5.386,0,0,0-2.069-2.647,5.568,5.568,0,0,0-3.339-.9l-31.473.009a5.35,5.35,0,0,0-5.337,5.033c-.032,2.7-.01,5.394-.018,8.023,0,5.265,0,10.343-.007,15.181q0,3.628-.005,7.07,0,.859,0,1.706a5.676,5.676,0,0,0,.2,1.633,5.4,5.4,0,0,0,1.718,2.665,5.835,5.835,0,0,0,1.332.821,5.693,5.693,0,0,0,1.486.394c.5.051,1.02.039,1.53.041l1.513,0,5.743.008,17.33.038,4.712.023,1.225.012c.276,0,.417.012.417.012s-.141.008-.417.012l-1.225.012-4.712.023-17.33.039-5.743.008-1.513,0c-.508,0-1.023.014-1.552-.039a5.911,5.911,0,0,1-1.542-.405,6.054,6.054,0,0,1-1.383-.849,5.6,5.6,0,0,1-1.789-2.763,5.91,5.91,0,0,1-.214-1.689q0-.847,0-1.706,0-3.438-.005-7.07c0-4.838,0-9.916-.007-15.181.007-2.635-.018-5.3.015-8.037a5.59,5.59,0,0,1,5.577-5.261l31.473.01a5.786,5.786,0,0,1,3.461.94,5.6,5.6,0,0,1,2.148,2.756,5.313,5.313,0,0,1,.323,1.7c.018.571,0,1.127.008,1.684q0,1.667,0,3.281c-.005,4.3-.01,8.309-.015,11.968s-.013,6.967-.018,9.874q-.006,2.179-.01,4.051c-.006.622.012,1.217-.042,1.79a5.813,5.813,0,0,1-.423,1.572,5.524,5.524,0,0,1-1.668,2.138,5.278,5.278,0,0,1-2.976,1.132c-.277.01-.418.009-.418.009" transform="translate(-55.47 -128.508)" fill="#e0e0e0"/><path d="M135.491,256.9s2.988.726,4.893,1.43h0l.072.028a8.361,8.361,0,0,1,1.018.442,6.5,6.5,0,0,1,1.615.987c.679.679,5.094,9.632,5.094,9.632l-6.459,3.229-1.963-4.468.547,16.18H122.014l.447-16.18-1.963,4.468-6.459-3.229s4.415-8.954,5.094-9.632a6.507,6.507,0,0,1,1.615-.987,8.358,8.358,0,0,1,1.018-.442l.072-.028h0c1.906-.7,4.893-1.43,4.893-1.43l.513-1.74,3.707,2.471,4.145-2.471Z" transform="translate(-60.485 -135.332)" fill="#e0e0e0"/><path d="M129.375,278.817a9.576,9.576,0,0,1-.049-1.477c0-.919.01-2.2.037-3.64l.008.047-.255-.639c-.594-1.49-1.119-2.843-1.487-3.827-.185-.492-.33-.891-.425-1.17a1.688,1.688,0,0,1-.125-.441,1.659,1.659,0,0,1,.213.406c.122.268.292.657.5,1.142.41.968.959,2.311,1.553,3.8l.255.64.009.023v.024c-.034,1.443-.076,2.721-.116,3.639a9.6,9.6,0,0,1-.112,1.474" transform="translate(-67.399 -141.969)" fill="#263238"/><path d="M168.651,278.95a10.085,10.085,0,0,1-.163-1.512c-.073-.942-.158-2.253-.241-3.729v-.026l.01-.025.229-.575c.6-1.507,1.157-2.867,1.571-3.847.207-.49.378-.884.5-1.155a1.732,1.732,0,0,1,.215-.411,1.716,1.716,0,0,1-.127.446c-.1.282-.244.686-.431,1.184-.373,1-.9,2.365-1.506,3.872l-.23.575.008-.051c.077,1.476.134,2.789.163,3.733a10.084,10.084,0,0,1,0,1.521" transform="translate(-89.236 -141.969)" fill="#263238"/><path d="M157.67,281.641c0-.02.181-.016.495-.1a2.116,2.116,0,0,0,1.523-1.618,6.561,6.561,0,0,0,.034-1.141c-.005-.832-.011-1.752-.017-2.738l.115.115-2.935.006-2.15,0,.118-.118c-.006,1.086-.011,2.1-.016,3.028,0,.23-.009.456.009.657a2.181,2.181,0,0,0,.148.578,2.09,2.09,0,0,0,.647.841,2.257,2.257,0,0,0,1.453.452,3.032,3.032,0,0,1,.576.041,3.02,3.02,0,0,1-.576.041,2.267,2.267,0,0,1-1.545-.412,2.222,2.222,0,0,1-.722-.89,2.337,2.337,0,0,1-.174-.628c-.025-.229-.019-.45-.022-.679,0-.924-.01-1.942-.015-3.028v-.118h.119l2.15,0,2.935.006h.116v.115c-.006.986-.012,1.906-.017,2.738a6.426,6.426,0,0,1-.062,1.177,2.256,2.256,0,0,1-.452.919,2.139,2.139,0,0,1-1.221.737,1.663,1.663,0,0,1-.381.038c-.087,0-.131-.007-.131-.013" transform="translate(-82.007 -146.347)" fill="#263238"/><path d="M122.144,285.209a26.552,26.552,0,0,1-3.231-1.531,26.436,26.436,0,0,1-3.12-1.747,26.586,26.586,0,0,1,3.231,1.532,26.55,26.55,0,0,1,3.12,1.746" transform="translate(-61.415 -149.532)" fill="#263238"/><path d="M270.718,157.687H238.874a5.469,5.469,0,0,1-5.469-5.47V120.374a5.469,5.469,0,0,1,5.469-5.47h31.844a5.47,5.47,0,0,1,5.47,5.47v31.844a5.47,5.47,0,0,1-5.47,5.47" transform="translate(-123.796 -60.944)" fill="#fafafa"/><path d="M270.581,157.55s.141-.016.416-.033a6.037,6.037,0,0,0,1.2-.234,5.674,5.674,0,0,0,1.738-.93,5.471,5.471,0,0,0,1.626-2.119,5.736,5.736,0,0,0,.405-1.546c.05-.558.029-1.157.031-1.778q0-1.868-.01-4.051c-.006-2.907-.011-6.217-.018-9.874s-.01-7.666-.015-11.968q0-1.613,0-3.281a9.2,9.2,0,0,0-.324-3.312,5.386,5.386,0,0,0-2.069-2.647,5.568,5.568,0,0,0-3.339-.9l-31.473.009a5.35,5.35,0,0,0-5.337,5.033c-.032,2.7-.01,5.394-.018,8.023,0,5.265,0,10.343-.007,15.181q0,3.628-.005,7.07,0,.859,0,1.706a5.692,5.692,0,0,0,.2,1.633,5.4,5.4,0,0,0,1.719,2.665,5.835,5.835,0,0,0,1.332.821,5.694,5.694,0,0,0,1.486.394c.5.052,1.02.039,1.53.041l1.513,0,5.743.008,17.33.039,4.712.023,1.225.012c.276,0,.417.012.417.012s-.141.008-.417.012l-1.225.012-4.712.023-17.33.039-5.743.008-1.513,0c-.508,0-1.023.014-1.552-.039a5.91,5.91,0,0,1-1.542-.405,6.054,6.054,0,0,1-1.383-.849,5.6,5.6,0,0,1-1.789-2.763,5.908,5.908,0,0,1-.214-1.689q0-.847,0-1.706,0-3.438-.005-7.07c0-4.838,0-9.916-.007-15.181.007-2.635-.018-5.3.015-8.037a5.59,5.59,0,0,1,5.577-5.261l31.473.009a5.793,5.793,0,0,1,3.461.94,5.6,5.6,0,0,1,2.148,2.756,5.324,5.324,0,0,1,.323,1.7c.018.571,0,1.127.008,1.684q0,1.667,0,3.281c-.005,4.3-.01,8.309-.015,11.968s-.013,6.967-.018,9.874q-.006,2.179-.01,4.051c-.006.622.013,1.217-.042,1.79a5.811,5.811,0,0,1-.423,1.572,5.525,5.525,0,0,1-1.668,2.138A5.279,5.279,0,0,1,271,157.541c-.277.01-.418.009-.418.009" transform="translate(-123.659 -60.807)" fill="#e0e0e0"/><path d="M263.88,127.722s2.988.726,4.893,1.429h0l.072.029a8.36,8.36,0,0,1,1.018.442,6.49,6.49,0,0,1,1.615.987c.679.679,5.094,9.632,5.094,9.632l-6.459,3.23L268.149,139l.547,16.181H250.4L250.85,139l-1.963,4.469-6.459-3.23s4.415-8.953,5.094-9.632a6.493,6.493,0,0,1,1.615-.987,8.36,8.36,0,0,1,1.018-.442l.072-.029h0c1.906-.7,4.893-1.429,4.893-1.429l-.069-3.1h8.741Z" transform="translate(-128.581 -66.1)" fill="#455a64"/><path d="M253.439,172.412l-11.9-7.4a4.361,4.361,0,0,1-1.367-5.429l.827-1.712,6.46,3.229,8.916,6.679Z" transform="translate(-127.156 -83.735)" fill="#455a64"/><path d="M249.2,161.871a.67.67,0,0,1,.164.074l.461.248,1.731.971,0,0,0,0c1.982,1.449,5.219,3.848,8.948,6.637l.089.067-.06.094-.952,1.5-1.99,3.127-.063.1-.1-.062-7.209-4.531-2.094-1.343-.556-.369a.98.98,0,0,1-.185-.139.962.962,0,0,1,.207.1l.577.335,2.131,1.284,7.254,4.459-.161.037,1.984-3.13.953-1.5.029.16c-3.724-2.8-6.937-5.226-8.885-6.721l.006,0-1.7-1.026-.443-.278a.661.661,0,0,1-.146-.106" transform="translate(-131.213 -85.854)" fill="#263238"/><path d="M285.147,172.116l11.9-7.4a4.361,4.361,0,0,0,1.367-5.429l-.827-1.712-6.46,3.23-8.916,6.679Z" transform="translate(-149.68 -83.578)" fill="#455a64"/><path d="M293.265,161.575a.688.688,0,0,1-.146.106l-.443.278-1.7,1.026.006,0c-1.947,1.495-5.16,3.926-8.885,6.722l.029-.161.953,1.5,1.984,3.13-.161-.037,7.254-4.459,2.131-1.284.577-.335a.994.994,0,0,1,.207-.1.954.954,0,0,1-.185.139l-.556.369-2.094,1.343-7.209,4.531-.1.062-.063-.1-1.99-3.127-.952-1.5-.059-.094.089-.067c3.729-2.789,6.966-5.188,8.948-6.637l0,0h0l1.731-.972.461-.248a.675.675,0,0,1,.165-.075" transform="translate(-149.498 -85.698)" fill="#263238"/><path d="M272.5,128.112a11.784,11.784,0,0,1,0-3.371,11.781,11.781,0,0,1,0,3.371" transform="translate(-144.469 -66.161)" fill="#263238"/><path d="M276.541,128.112a11.784,11.784,0,0,1,0-3.371,11.784,11.784,0,0,1,0,3.371" transform="translate(-146.611 -66.161)" fill="#263238"/><path d="M280.233,128.035a11.784,11.784,0,0,1,0-3.371,11.784,11.784,0,0,1,0,3.371" transform="translate(-148.569 -66.121)" fill="#263238"/><path d="M284.313,128.035a11.784,11.784,0,0,1,0-3.371,11.781,11.781,0,0,1,0,3.371" transform="translate(-150.733 -66.121)" fill="#263238"/><path d="M277.828,156.915H260.593l-.2-4.389h17.142Z" transform="translate(-138.108 -80.899)" fill="#e0e0e0"/><path d="M257.67,151.011a9.528,9.528,0,0,1-.05-1.48c0-.919.01-2.2.038-3.638l.008.046-.219-.554c-.578-1.468-1.088-2.8-1.446-3.772-.179-.485-.32-.879-.412-1.153a1.628,1.628,0,0,1-.121-.435,1.6,1.6,0,0,1,.208.4c.119.263.285.648.484,1.125.4.954.935,2.278,1.512,3.747.075.19.148.377.217.554l.009.023v.024c-.033,1.439-.075,2.718-.116,3.637a9.594,9.594,0,0,1-.112,1.476" transform="translate(-135.496 -74.268)" fill="#263238"/><path d="M297.036,151.174a9.589,9.589,0,0,1-.161-1.471c-.072-.917-.156-2.2-.239-3.638v-.026l.01-.025.253-.637c.594-1.491,1.144-2.835,1.554-3.8.2-.484.374-.875.5-1.143a1.684,1.684,0,0,1,.213-.406,1.692,1.692,0,0,1-.125.441c-.1.278-.24.678-.425,1.17-.369.985-.894,2.339-1.488,3.829l-.255.637.008-.051c.075,1.443.131,2.722.159,3.642a9.59,9.59,0,0,1,0,1.48" transform="translate(-157.332 -74.268)" fill="#263238"/><path d="M267.2,183.941a14.251,14.251,0,0,1-3.056-2.1,14.252,14.252,0,0,1,3.056,2.1" transform="translate(-140.101 -96.447)" fill="#263238"/><path d="M269.816,180.462a187.049,187.049,0,0,0-2.809-2.194,6.467,6.467,0,0,1,2.809,2.194" transform="translate(-141.618 -94.548)" fill="#263238"/><path d="M286.415,178.3a9.563,9.563,0,0,1-2.646,1.485,9.562,9.562,0,0,1,2.646-1.485" transform="translate(-150.508 -94.564)" fill="#263238"/><path d="M289.377,181.754a9.354,9.354,0,0,1-2.547,1.585,9.356,9.356,0,0,1,2.547-1.585" transform="translate(-152.131 -96.397)" fill="#263238"/><path d="M149.663,259.043a7.806,7.806,0,0,1-.893.837c-.579.51-1.4,1.22-2.376,2.044l-.108.091-.066-.126-1.062-2.055.22-.011-.01.026-.8,2.029-.06.153-.122-.108c-.986-.874-1.826-1.63-2.415-2.172a8.211,8.211,0,0,1-.91-.89,8.31,8.31,0,0,1,1,.784c.615.512,1.475,1.244,2.472,2.106l-.182.045.785-2.033.01-.027.1-.252.122.24,1.049,2.061-.174-.035c.983-.811,1.829-1.5,2.433-1.976a7.859,7.859,0,0,1,.982-.731" transform="translate(-74.819 -137.297)" fill="#263238"/><path d="M150.257,287.452a1.384,1.384,0,0,1-.024-.3c-.006-.221-.014-.5-.023-.855-.009-.773-.023-1.839-.038-3.144-.009-2.681-.022-6.335-.036-10.371.009-3.239.017-6.233.023-8.659h.2c0,.557-.008,1.075-.011,1.563h-.173c.016-1.352.03-2.456.039-3.255.009-.363.017-.657.023-.885a1.457,1.457,0,0,1,.025-.309,1.458,1.458,0,0,1,.025.309c.006.228.014.521.023.885.009.8.023,1.9.039,3.255h-.173c0-.487-.007-1.006-.011-1.563h.2c.007,2.426.015,5.419.023,8.659-.014,4.037-.026,7.69-.035,10.371-.016,1.3-.029,2.371-.039,3.144-.009.351-.017.634-.023.855a1.386,1.386,0,0,1-.024.3" transform="translate(-79.631 -138.559)" fill="#263238"/><path d="M177.711,281.065a4.094,4.094,0,0,1-.837.623c-.538.353-1.3.811-2.171,1.267s-1.681.823-2.277,1.064a4.067,4.067,0,0,1-.988.333c-.027-.066,1.425-.7,3.153-1.612s3.081-1.734,3.12-1.675" transform="translate(-90.929 -149.072)" fill="#263238"/><path d="M270.606,284.723H238.762a5.469,5.469,0,0,1-5.469-5.47V247.41a5.469,5.469,0,0,1,5.469-5.47h31.844a5.47,5.47,0,0,1,5.47,5.47v31.844a5.47,5.47,0,0,1-5.47,5.47" transform="translate(-123.736 -128.323)" fill="#fafafa"/><path d="M270.469,284.586s.141-.016.416-.033a6.043,6.043,0,0,0,1.2-.234,5.676,5.676,0,0,0,1.738-.93,5.468,5.468,0,0,0,1.626-2.119,5.739,5.739,0,0,0,.405-1.546c.05-.558.029-1.157.031-1.778q0-1.868-.01-4.051c-.005-2.907-.011-6.217-.018-9.874s-.01-7.666-.015-11.968q0-1.614,0-3.281a9.214,9.214,0,0,0-.324-3.312,5.389,5.389,0,0,0-2.07-2.647,5.567,5.567,0,0,0-3.339-.9l-31.473.009a5.35,5.35,0,0,0-5.337,5.033c-.032,2.7-.01,5.394-.018,8.023,0,5.265,0,10.343-.007,15.181q0,3.628-.005,7.07,0,.859,0,1.706a5.675,5.675,0,0,0,.2,1.633,5.4,5.4,0,0,0,1.718,2.665,5.845,5.845,0,0,0,1.332.821,5.693,5.693,0,0,0,1.486.394c.5.052,1.02.039,1.53.041l1.513,0,5.743.008,17.33.038,4.712.023,1.225.012c.276,0,.417.012.417.012s-.141.008-.417.012l-1.225.012-4.712.023-17.33.039-5.743.008-1.513,0c-.508,0-1.023.014-1.552-.039a5.912,5.912,0,0,1-1.542-.405,6.068,6.068,0,0,1-1.383-.849,5.6,5.6,0,0,1-1.789-2.763,5.91,5.91,0,0,1-.214-1.689q0-.847,0-1.706,0-3.438-.005-7.07c0-4.838,0-9.916-.007-15.181.007-2.635-.018-5.3.015-8.037a5.59,5.59,0,0,1,5.577-5.261l31.473.01a5.79,5.79,0,0,1,3.461.94,5.6,5.6,0,0,1,2.148,2.756,5.314,5.314,0,0,1,.323,1.7c.018.571,0,1.127.008,1.684q0,1.667,0,3.281c-.005,4.3-.01,8.308-.015,11.968s-.013,6.967-.018,9.874q-.006,2.179-.01,4.051c-.006.622.013,1.217-.042,1.79a5.813,5.813,0,0,1-.423,1.572,5.525,5.525,0,0,1-1.668,2.138,5.278,5.278,0,0,1-2.976,1.132c-.277.01-.418.009-.418.009" transform="translate(-123.599 -128.186)" fill="#e0e0e0"/><path d="M276.906,279.911s-6.684-18.093-7.363-18.771a6.508,6.508,0,0,0-1.615-.987,8.217,8.217,0,0,0-1.018-.442l-.072-.028h0c-1.906-.7-4.893-1.429-4.893-1.429s-.762,2.593-4.38,2.78c-3.618-.186-4.38-2.78-4.38-2.78s-2.988.725-4.893,1.429h0l-.072.028a8.217,8.217,0,0,0-1.018.442,6.5,6.5,0,0,0-1.615.987c-.679.678-6.863,18.983-6.863,18.983l5.318,1.822,4.874-12.411-.448,16.18h18.294l-.547-16.18,5.677,12.923Z" transform="translate(-126.617 -136.976)" fill="#f14141"/><path d="M277.7,272.121c0,.067-4.5.121-10.047.121s-10.048-.054-10.048-.121,4.5-.121,10.048-.121,10.047.054,10.047.121" transform="translate(-136.631 -144.266)" fill="#fff"/><path d="M277.9,285.339a3.7,3.7,0,0,1-.678.047l-1.847.038c-1.56.022-3.716.036-6.1.036s-4.536-.014-6.1-.036l-1.848-.038a3.7,3.7,0,0,1-.677-.047,3.593,3.593,0,0,1,.677-.047l1.848-.039c1.56-.022,3.716-.036,6.1-.036s4.536.014,6.1.036l1.847.039a3.6,3.6,0,0,1,.678.047" transform="translate(-138.248 -151.277)" fill="#fff"/><path d="M277.9,297.873a3.656,3.656,0,0,1-.678.047l-1.847.038c-1.56.022-3.716.036-6.1.036s-4.536-.014-6.1-.036l-1.848-.038a3.653,3.653,0,0,1-.677-.047,3.647,3.647,0,0,1,.677-.047l1.848-.039c1.56-.022,3.716-.036,6.1-.036s4.536.014,6.1.036l1.847.039a3.649,3.649,0,0,1,.678.047" transform="translate(-138.248 -157.925)" fill="#fff"/><path d="M277.9,310.408a3.6,3.6,0,0,1-.678.047l-1.847.039c-1.56.022-3.716.036-6.1.036s-4.536-.014-6.1-.036l-1.848-.039a3.593,3.593,0,0,1-.677-.047,3.7,3.7,0,0,1,.677-.047l1.848-.038c1.56-.022,3.716-.035,6.1-.035s4.536.013,6.1.035l1.847.038a3.7,3.7,0,0,1,.678.047" transform="translate(-138.248 -164.573)" fill="#fff"/><path d="M257.827,278.21a9.578,9.578,0,0,1-.049-1.477c0-.919.01-2.2.037-3.64l.008.047-.255-.64c-.594-1.49-1.119-2.843-1.487-3.827-.185-.492-.33-.892-.425-1.17a1.686,1.686,0,0,1-.125-.441,1.67,1.67,0,0,1,.213.406c.122.268.292.657.5,1.142.409.968.959,2.311,1.553,3.8l.255.64.009.023v.024c-.034,1.443-.076,2.721-.116,3.639a9.6,9.6,0,0,1-.112,1.474" transform="translate(-135.529 -141.647)" fill="#263238"/><path d="M296.927,278.21a9.6,9.6,0,0,1-.112-1.474c-.04-.918-.082-2.2-.116-3.639v-.024l.009-.023.255-.64c.594-1.49,1.144-2.833,1.553-3.8.2-.484.374-.874.5-1.142a1.67,1.67,0,0,1,.213-.406,1.691,1.691,0,0,1-.125.441c-.1.278-.24.678-.425,1.17-.369.984-.893,2.337-1.487,3.827l-.255.64.008-.047c.026,1.443.039,2.721.037,3.64a9.585,9.585,0,0,1-.049,1.477" transform="translate(-157.366 -141.647)" fill="#263238"/><path d="M304.314,279.766a39.532,39.532,0,0,1-5.6,2.615,39.536,39.536,0,0,1,5.6-2.615" transform="translate(-158.434 -148.383)" fill="#fff"/><path d="M308.831,291.04a35.995,35.995,0,0,1-5.378,2.428,36.007,36.007,0,0,1,5.378-2.428" transform="translate(-160.949 -154.362)" fill="#fff"/><path d="M253.163,281.464a37.463,37.463,0,0,1-5.223-2.99,37.516,37.516,0,0,1,5.223,2.99" transform="translate(-131.505 -147.698)" fill="#fff"/><path d="M248.681,294.011a35.616,35.616,0,0,1-5.328-2.445,35.56,35.56,0,0,1,5.328,2.445" transform="translate(-129.072 -154.641)" fill="#fff"/><path d="M275.38,270.493a7.919,7.919,0,0,1,1.514-.1l-.1.1c-.015-.617-.024-1.393-.024-2.234,0-1.035.013-1.972.035-2.651a5.005,5.005,0,0,1,.085-1.1,4.97,4.97,0,0,1,.085,1.1c.022.678.036,1.615.036,2.651,0,.841-.009,1.617-.024,2.234l0,.1-.095,0a8.013,8.013,0,0,1-1.514-.1" transform="translate(-146.059 -140.294)" fill="#263238"/><path d="M276.2,268.943a.41.41,0,1,1-.41-.41.41.41,0,0,1,.41.41" transform="translate(-146.059 -142.427)" fill="#e0e0e0"/><path d="M276.2,274.347a.41.41,0,1,1-.41-.41.41.41,0,0,1,.41.41" transform="translate(-146.059 -145.294)" fill="#e0e0e0"/><path d="M28.806,119.873l-.015,17.159c0,2.918,3.5,8.149,8.113,7.942l.375.006c3.989-.481,1.72-5.224,1.72-7.948,0-1.291,0-2.369.011-2.5,0,0,4.368-.407,4.688-4.73.154-2.089.121-6.418.046-10.334a8.075,8.075,0,0,0-7.581-7.9l-.417-.025c-4.518-.014-7.053,3.816-6.941,8.331" transform="translate(-15.27 -59.161)" fill="#ffc09d"/><path d="M44.306,158.223a10.47,10.47,0,0,1-5.531-2.011s1.18,3.245,5.521,3.12Z" transform="translate(-20.566 -82.853)" fill="#ff9b6c"/><path d="M41.951,131.524c-.085.088-.588-.307-1.312-.318s-1.26.35-1.337.258c-.038-.041.05-.2.284-.37a1.81,1.81,0,0,1,1.072-.317,1.746,1.746,0,0,1,1.043.366c.22.179.293.343.251.382" transform="translate(-20.841 -69.362)" fill="#263238"/><path d="M43.844,136.022a.585.585,0,0,1-.6.555.56.56,0,0,1-.57-.564.586.586,0,0,1,.6-.556.56.56,0,0,1,.571.564" transform="translate(-22.634 -71.846)" fill="#263238"/><path d="M48.937,136.765a4.4,4.4,0,0,1,1.092-.129c.171-.007.333-.031.369-.145a.868.868,0,0,0-.082-.51l-.423-1.323a22.221,22.221,0,0,1-.919-3.451,22.309,22.309,0,0,1,1.2,3.369q.21.7.4,1.33a.985.985,0,0,1,.047.672.427.427,0,0,1-.294.231,1.149,1.149,0,0,1-.291.023,4.33,4.33,0,0,1-1.095-.066" transform="translate(-25.956 -69.591)" fill="#263238"/><path d="M41.19,126.766c-.068.162-.649.047-1.342.091-.694.029-1.261.2-1.344.05-.037-.074.07-.223.3-.369a2.273,2.273,0,0,1,2.046-.107c.246.121.365.258.336.335" transform="translate(-20.418 -66.955)" fill="#263238"/><path d="M55.9,128.013c-.074.131-.641-.007-1.325-.02s-1.252.081-1.325-.055c-.032-.065.079-.183.317-.29a2.391,2.391,0,0,1,1.01-.179,2.47,2.47,0,0,1,1.009.236c.237.12.348.245.315.308" transform="translate(-28.239 -67.608)" fill="#263238"/><path d="M25.759,135.924c-.072-.037-2.919-1.062-3.006,1.9a2.228,2.228,0,0,0,2.913,2.355c.008-.085.092-4.257.092-4.257" transform="translate(-12.067 -71.987)" fill="#ffc09d"/><path d="M25.643,140.1c-.013-.01-.053.035-.141.072a.517.517,0,0,1-.386,0,1.278,1.278,0,0,1-.557-1.163,1.712,1.712,0,0,1,.166-.735.6.6,0,0,1,.4-.385.263.263,0,0,1,.3.151c.037.084.017.142.032.148s.065-.048.045-.171a.327.327,0,0,0-.111-.189.39.39,0,0,0-.283-.084.726.726,0,0,0-.553.444,1.754,1.754,0,0,0-.2.82,1.341,1.341,0,0,0,.716,1.3.551.551,0,0,0,.474-.065c.094-.07.111-.136.1-.142" transform="translate(-12.916 -73.056)" fill="#ff9b6c"/><path d="M20.421,115.407a14.516,14.516,0,0,0,1.059-3.469,3.918,3.918,0,0,1,2.1-2.805l.026.011a3.118,3.118,0,0,1,3.138.257,4.053,4.053,0,0,1,3.025-3.188,10.029,10.029,0,0,1,5.359.359,11,11,0,0,1,3.532,2.676,14.528,14.528,0,0,1,1.533,1.814l1.353,4.02-1.1,2.129c-.065.145-.133.29-.215.433v-.009l-.958,4.471c-.078-1.215-.039-5.447-.116-6.662a6.778,6.778,0,0,1-4.859-2.176,7.959,7.959,0,0,0-2.1-2.073c-1.151-.553-2.512-.125-3.714.308l.051-.047a5.415,5.415,0,0,0-1.659,1.227,16.867,16.867,0,0,1-.647,7.143c-.109.347-.41,1.06-.747,1.2-.663.265-.85-.41-1.254-.766a1.76,1.76,0,0,0-1.213-.284,26.51,26.51,0,0,1-.849-3.064,2.7,2.7,0,0,1-1.242.1q.185-.46.372-.92a1.416,1.416,0,0,1-.53.247.482.482,0,0,1-.507-.214c-.116-.226.035-.49.162-.71" transform="translate(-10.724 -56.219)" fill="#263238"/><path d="M29.945,114.268a3.707,3.707,0,0,0-.429.4,3.1,3.1,0,0,0-.647,1.442,5.48,5.48,0,0,0-.1,1.1c0,.4.04.824.076,1.272A11.391,11.391,0,0,1,28.9,119.9a5.032,5.032,0,0,1-.089.749,1.559,1.559,0,0,1-.3.728.653.653,0,0,1-.608.212.968.968,0,0,1-.552-.3,2.235,2.235,0,0,1-.429-1.093l.091.01a3.614,3.614,0,0,1-.515.911,1.286,1.286,0,0,1-.835.467.83.83,0,0,1-.446-.073.72.72,0,0,1-.306-.294.74.74,0,0,1-.1-.382.535.535,0,0,1,.135-.338l.046.04a2.783,2.783,0,0,1-.92.707,2.435,2.435,0,0,1-.286.115.465.465,0,0,1-.1.027.533.533,0,0,1,.1-.043c.064-.027.159-.067.277-.129a2.871,2.871,0,0,0,.888-.717l.046.04a.554.554,0,0,0-.021.642.646.646,0,0,0,.277.261.75.75,0,0,0,.4.061,1.2,1.2,0,0,0,.775-.444,3.587,3.587,0,0,0,.5-.891l.06-.139.031.149a2.165,2.165,0,0,0,.409,1.045.873.873,0,0,0,.494.271.552.552,0,0,0,.517-.179,1.475,1.475,0,0,0,.273-.682,4.856,4.856,0,0,0,.088-.733,11.464,11.464,0,0,0-.043-1.4c-.033-.448-.067-.876-.066-1.279A5.445,5.445,0,0,1,28.8,116.1a3.062,3.062,0,0,1,.687-1.454,1.757,1.757,0,0,1,.458-.375" transform="translate(-12.563 -60.607)" fill="#455a64"/><path d="M50.589,115.545s-.011.011-.034.03l-.107.08a1.421,1.421,0,0,1-.182.119,2.284,2.284,0,0,1-.261.141,3.826,3.826,0,0,1-1.845.354,4.893,4.893,0,0,1-2.619-.933,8.48,8.48,0,0,1-2.27-2.556c-.32-.519-.583-1.053-.871-1.545a5.713,5.713,0,0,0-.981-1.3,2.954,2.954,0,0,0-1.254-.742,2.116,2.116,0,0,0-.657-.068,2.324,2.324,0,0,0-.6.122,2.5,2.5,0,0,0-1.375,1.191,2.981,2.981,0,0,0-.215.65.14.14,0,0,1,0-.046l.019-.132a2.168,2.168,0,0,1,.158-.49,2.464,2.464,0,0,1,.476-.661,2.527,2.527,0,0,1,.91-.579,2.391,2.391,0,0,1,.618-.133,2.184,2.184,0,0,1,.684.065,3.021,3.021,0,0,1,1.3.755,5.775,5.775,0,0,1,1,1.321c.292.5.554,1.027.872,1.542a8.483,8.483,0,0,0,2.237,2.533,4.869,4.869,0,0,0,2.568.937,3.9,3.9,0,0,0,1.825-.318,6.055,6.055,0,0,0,.6-.335" transform="translate(-19.793 -57.835)" fill="#455a64"/><path d="M56.005,131.941c-.085.088-.588-.307-1.312-.318s-1.26.35-1.337.258c-.038-.041.05-.2.284-.37a1.808,1.808,0,0,1,1.072-.318,1.747,1.747,0,0,1,1.043.366c.22.179.293.343.251.382" transform="translate(-28.295 -69.583)" fill="#263238"/><path d="M56.294,136.022a.585.585,0,0,1-.6.555.56.56,0,0,1-.57-.564.586.586,0,0,1,.6-.556.561.561,0,0,1,.571.564" transform="translate(-29.237 -71.846)" fill="#263238"/><path d="M61.29,115.732a1.852,1.852,0,0,0,1.538.865,4.507,4.507,0,0,0,.645-.188c.211.128.161.852.015,1.052a3.88,3.88,0,0,1-.455.47,2.4,2.4,0,0,0,2.115-.081,3.716,3.716,0,0,1-2.209,2.975,1.3,1.3,0,0,1-1.193.022,1.5,1.5,0,0,1-.524-.931,16.3,16.3,0,0,1-.527-3.973Z" transform="translate(-32.193 -61.383)" fill="#263238"/><path d="M46.485,145.563c.012.035-.13.131-.4.171a1.618,1.618,0,0,1-1.711-1.008c-.1-.255-.081-.426-.044-.433.079-.027.251.608.878.974a3.454,3.454,0,0,0,1.277.295" transform="translate(-23.497 -76.532)" fill="#263238"/><path d="M55.863,408.173v9.3L75,417.381c-.139-1.885-10.639-5.648-10.639-5.648l.209-3.561Z" transform="translate(-29.629 -216.491)" fill="#455a64"/><g transform="translate(28.786 194.365)" opacity="0.6"><g clip-path="url(#f)"><path d="M61.84,413.922a.81.81,0,0,0-.524.929.746.746,0,0,0,.883.548.855.855,0,0,0,.55-.987.768.768,0,0,0-.979-.464" transform="translate(-61.297 -413.886)" fill="#fff"/></g></g><path d="M55.863,426.3v-1.485l18.267.212s.953.562.866,1.183Z" transform="translate(-29.629 -225.316)" fill="#263238"/><path d="M72.006,416.041c0,.1-.466.147-.919.464s-.69.726-.776.689c-.086-.017.044-.6.6-.97s1.115-.272,1.1-.183" transform="translate(-37.28 -220.619)" fill="#263238"/><path d="M77.882,417.926c.023.093-.378.263-.687.676s-.395.846-.487.843c-.087.016-.16-.548.235-1.053s.936-.557.94-.465" transform="translate(-40.649 -221.644)" fill="#263238"/><path d="M81.554,421.124c-.084.022-.221-.458.01-.99s.663-.749.7-.669-.224.366-.408.806-.214.842-.306.853" transform="translate(-43.193 -222.472)" fill="#263238"/><path d="M71.319,410.13c-.038.088-.466-.038-.991.007s-.932.223-.981.141.339-.432.958-.476,1.059.252,1.014.328" transform="translate(-36.778 -217.352)" fill="#263238"/><path d="M71.253,413.678a1.347,1.347,0,0,0,.041-.568,3.1,3.1,0,0,0-.507-1.466,2.9,2.9,0,0,0-.748-.772.659.659,0,0,0-.646-.111.713.713,0,0,0-.377.612,2.465,2.465,0,0,0,1.681,2.175,2.428,2.428,0,0,0,2.584-.752,1.7,1.7,0,0,0,.343-.574.608.608,0,0,0,0-.372.446.446,0,0,0-.26-.269.828.828,0,0,0-.6.058,3.608,3.608,0,0,0-.445.249,3.944,3.944,0,0,0-1.094,1.061,1.457,1.457,0,0,0-.264.5,5.477,5.477,0,0,1,1.457-1.388c.256-.144.592-.351.862-.259.119.048.166.185.109.348a1.488,1.488,0,0,1-.3.474,2.2,2.2,0,0,1-2.313.657,2.241,2.241,0,0,1-1.515-1.89.463.463,0,0,1,.225-.4.442.442,0,0,1,.426.083,2.794,2.794,0,0,1,.712.69,3.247,3.247,0,0,1,.558,1.362c.053.352.041.554.064.555" transform="translate(-36.605 -217.839)" fill="#263238"/><path d="M28.3,408.738v3l-.216,5.4-7.173.171-.255-5.568.21-3.393Z" transform="translate(-10.954 -216.584)" fill="#455a64"/><path d="M28.908,417.862c-.044,0,.06-1.649.231-3.687s.345-3.693.388-3.7-.06,1.648-.231,3.687-.345,3.693-.388,3.695" transform="translate(-15.327 -217.715)" fill="#263238"/><path d="M28.347,425.152l-7.247.083v.988l7.252-.009Z" transform="translate(-11.191 -225.497)" fill="#263238"/><path d="M21.137,416.176c-.011-.008.05-.112.184-.285a4.96,4.96,0,0,1,.639-.67,4.873,4.873,0,0,1,1.159-.762,3.878,3.878,0,0,1,4.47.811,3.2,3.2,0,0,1,.525.764.9.9,0,0,1,.114.318,7.364,7.364,0,0,0-.751-.979,3.859,3.859,0,0,0-2.689-1.081,4.44,4.44,0,0,0-2.728,1.044c-.6.48-.892.865-.922.841" transform="translate(-11.21 -219.623)" fill="#263238"/><path d="M39.211,258.332l-.837-1.31-26.8,1.259a46.308,46.308,0,0,0-.788,8.784,44.16,44.16,0,0,0,1.153,7.156l1.272,25.89c.252,2.331.438,30.532.438,30.532H24.27l2.166-39.3c.229-4.374.063-11,.283-15.841l3.65,14.825L32.7,300.458s-.454,4.144-.947,9.9c-.7,8.144-.758,19.952-.758,19.952l10.905.175s1.514-13.919,2.7-22.048l1.018-9.7a50.944,50.944,0,0,0-.831-6.244Z" transform="translate(-5.719 -136.322)" fill="#263238"/><path d="M40.865,287.253a2.607,2.607,0,0,1-.491-.165,5.024,5.024,0,0,1-.558-.239c-.212-.105-.463-.21-.718-.366a9.421,9.421,0,0,1-.832-.512c-.3-.188-.592-.422-.9-.665a12.542,12.542,0,0,1-3.228-3.966c-.17-.357-.343-.691-.464-1.022a8.91,8.91,0,0,1-.326-.921,7.849,7.849,0,0,1-.207-.779,4.819,4.819,0,0,1-.114-.6,2.563,2.563,0,0,1-.055-.515c.042-.007.135.726.51,1.847a9.579,9.579,0,0,0,.345.9c.125.324.3.65.474,1a14.252,14.252,0,0,0,1.4,2.109,14.1,14.1,0,0,0,1.78,1.8c.3.243.59.479.88.671.279.207.556.373.809.526,1.018.6,1.712.853,1.7.892" transform="translate(-17.484 -147.187)" fill="#455a64"/><path d="M119.333,172.494a23.738,23.738,0,0,1,1.142-2.315c.295-.39,1.608-1.89,1.608-1.89s2.637-1.222,3.067-1.1a3.234,3.234,0,0,1,.729.305l3.686-2.579s.864-.453,1.2.061-.126.9-.324,1.144-2.867,2.528-2.867,2.528l-.1.18s.994.307,1,.85a2.64,2.64,0,0,1-.356,1.143.947.947,0,0,1,.3,1.026l-.194.662a1.166,1.166,0,0,1,.5,1.058c-.095.663-1.675,1.8-1.675,1.8a28.18,28.18,0,0,1-3.463,1.338c-.595.057-1.949.4-1.949.4Z" transform="translate(-63.293 -87.372)" fill="#ffc09d"/><path d="M129.339,169.418a3.545,3.545,0,0,1-.662.53,8.959,8.959,0,0,1-1.777,1.033,11.775,11.775,0,0,0-1.9.681,3.228,3.228,0,0,0-.639.521c-.023,0,.109-.34.565-.641a8.584,8.584,0,0,1,1.906-.748,12.355,12.355,0,0,0,1.77-.964,3.652,3.652,0,0,1,.74-.412" transform="translate(-65.958 -89.857)" fill="#ff9b6c"/><path d="M135.449,173.205c.024.011,0,.107-.1.2a1.672,1.672,0,0,1-.433.276c-.36.162-.66.244-.684.2s.251-.223.6-.38c.174-.081.327-.153.434-.209s.162-.1.188-.087" transform="translate(-71.192 -91.865)" fill="#ff9b6c"/><path d="M137.23,177.476c.04.038-.081.232-.294.408s-.426.259-.455.213.126-.2.327-.367.38-.292.421-.254" transform="translate(-72.387 -94.128)" fill="#ff9b6c"/><path d="M137.537,181.015c.05.017-.024.3-.292.516s-.557.235-.564.182.214-.15.438-.336.365-.386.417-.362" transform="translate(-72.494 -96.007)" fill="#ff9b6c"/><path d="M114.028,180.414l-4.936,3.192,1.957,6.352,6.279-5.225-.381-2.834Z" transform="translate(-57.861 -95.69)" fill="#ffc09d"/><path d="M3.047,183.365S-.149,201.519,0,203.216s.683,4.117,2.933,4.861a6.423,6.423,0,0,0,3.7,0l.845-10.761-3.16-11.537Z" transform="translate(0 -97.255)" fill="#ffc09d"/><path d="M31.353,164.568l2.513,1.3,1.519,14.2.5,4.814.782,13.36c.236,1.158,1.348,13.489,1.348,13.489L8,212.455c.466-.136.88-5.387,1.156-6.516l.888-7.825-.888-11.2s-3.117-13.669-2.706-14.748,2.406-3.586,6.3-6.325c1.557-1.094,3.808-2.461,3.808-2.461l10.278.05Z" transform="translate(-3.399 -86.657)" fill="#455a64"/><path d="M71.9,181.109s-6.729-5.947-9.258-8.473c-2.827-2.823-4.813-4.213-5.683-4.28a27.666,27.666,0,0,0-2.913,1.408s-.692.793-1.868,4.829,5.7,6.664,5.7,6.664l3.276,3.276c.623.567,5.243,4.692,8.622,6.019a5.3,5.3,0,0,0,5.408-.95l10.327-9.971a30.877,30.877,0,0,1-1.746-5.613" transform="translate(-27.605 -89.295)" fill="#ffc09d"/><path d="M3.047,182.092,0,197.52l7.486,1.457L5.632,182.31Z" transform="translate(0 -96.58)" fill="#455a64"/><path d="M9,183.142c.067-.006.623,5.528,1.242,12.359s1.067,12.376,1,12.382-.623-5.527-1.242-12.36-1.068-12.375-1-12.381" transform="translate(-4.77 -97.137)" fill="#263238"/><path d="M50.006,176.5l10.788,9.052,6.779-9.287s-8.188-7.169-10.134-8.209c-2.409-1.287-4.212-2.241-6.1.056a7.958,7.958,0,0,0-1.33,8.388" transform="translate(-26.181 -88.428)" fill="#455a64"/><path d="M60.544,185.876a1.029,1.029,0,0,1-.214-.142l-.586-.444-2.128-1.67-6.982-5.594-.008-.007,0-.006-.132-.152a6.842,6.842,0,0,1-1.592-4.707,6.411,6.411,0,0,1,1.436-3.811,5.976,5.976,0,0,1,2.169-1.7,4.133,4.133,0,0,1,.707-.258,1.073,1.073,0,0,1,.257-.053c.008.025-.346.108-.923.4a6.169,6.169,0,0,0-2.076,1.724,6.314,6.314,0,0,0-1.347,3.713,6.676,6.676,0,0,0,1.552,4.54l.126.147-.013-.012,6.937,5.65,2.08,1.729.557.479a1.037,1.037,0,0,1,.184.18" transform="translate(-25.931 -88.749)" fill="#263238"/><g transform="translate(24.778 89.182)" opacity="0.3"><g clip-path="url(#g)"><path d="M52.764,189.907a34.091,34.091,0,0,0,7.7,9.045l-.318-3.078Z" transform="translate(-52.764 -189.907)"/></g></g><path d="M33.127,232.757a2.854,2.854,0,0,1-.5.328c-.328.2-.809.474-1.407.809-1.2.669-2.867,1.562-4.737,2.5s-3.588,1.738-4.841,2.294c-.626.279-1.136.5-1.491.642a2.774,2.774,0,0,1-.561.2,2.844,2.844,0,0,1,.523-.288l1.458-.711c1.233-.6,2.936-1.42,4.8-2.355s3.548-1.8,4.764-2.434L32.583,233a2.843,2.843,0,0,1,.544-.246" transform="translate(-10.39 -123.451)" fill="#263238"/></g></g></g></g></svg>