<svg xmlns="http://www.w3.org/2000/svg" xmlns:xlink="http://www.w3.org/1999/xlink" width="168" height="156" viewBox="0 0 168 156"><defs><filter id="a" x="0" y="0" width="168" height="156" filterUnits="userSpaceOnUse"><feOffset dy="3" input="SourceAlpha"/><feGaussianBlur stdDeviation="3" result="b"/><feFlood flood-opacity="0.161"/><feComposite operator="in" in2="b"/><feComposite in="SourceGraphic"/></filter></defs><g transform="translate(5691 9725)"><g transform="translate(-6014.305 -14056.382)"><g transform="matrix(1, 0, 0, 1, 323.3, 4331.38)" filter="url(#a)"><rect width="150" height="138" rx="17" transform="translate(9 6)" fill="#fff"/></g><g transform="translate(367.567 4366.899)"><path d="M8.022,8.011H84.845V60.992H8.022Z" transform="translate(-6.694 -6.675)" fill="#d9dde1"/><path d="M288.022,248.011h25.166V285.1H288.022Z" transform="translate(-240.335 -206.94)" fill="#393856"/><path d="M312.022,280.011h17.219v5.3H312.022Z" transform="translate(-260.362 -233.642)" fill="#75c9c1"/><circle cx="11.921" cy="11.921" r="11.921" transform="translate(1.328 51.667)" fill="#faa41b"/><circle cx="11.921" cy="11.921" r="11.921" transform="translate(14.574 54.317)" fill="#ffd33f"/><path d="M327.916,272.011h-14.57a1.325,1.325,0,0,0-1.325,1.325v5.3a1.325,1.325,0,0,0,1.325,1.325h14.57a1.325,1.325,0,0,0,1.325-1.325v-5.3A1.325,1.325,0,0,0,327.916,272.011Zm-1.325,5.3H314.671V274.66h11.921Z" transform="translate(-260.362 -226.966)"/><path d="M312.022,368.011H316v2.649h-3.974Z" transform="translate(-260.362 -307.072)"/><path d="M352.022,368.011H356v2.649h-3.974Z" transform="translate(-293.739 -307.072)"/><path d="M392.022,368.011H396v2.649h-3.974Z" transform="translate(-327.116 -307.072)"/><path d="M312.022,400.011H316v2.649h-3.974Z" transform="translate(-260.362 -333.774)"/><path d="M352.022,400.011H356v2.649h-3.974Z" transform="translate(-293.739 -333.774)"/><path d="M392.022,400.011H396v2.649h-3.974Z" transform="translate(-327.116 -333.774)"/><path d="M312.022,432.011H316v2.649h-3.974Z" transform="translate(-260.362 -360.476)"/><path d="M352.022,432.011H356v2.649h-3.974Z" transform="translate(-293.739 -360.476)"/><path d="M392.022,432.011H396v2.649h-3.974Z" transform="translate(-327.116 -360.476)"/><path d="M312.022,336.011H316v2.649h-3.974Z" transform="translate(-260.362 -280.37)"/><path d="M352.022,336.011H356v2.649h-3.974Z" transform="translate(-293.739 -280.37)"/><path d="M392.022,336.011H396v2.649h-3.974Z" transform="translate(-327.116 -280.37)"/><path d="M78.151.011H1.328A1.325,1.325,0,0,0,0,1.336V54.317a1.325,1.325,0,0,0,1.325,1.325h1.35A13.216,13.216,0,0,0,17.645,76.068,13.225,13.225,0,0,0,35.331,56.4q-.445-.4-.924-.758H46.362V78.158a1.325,1.325,0,0,0,1.325,1.325H72.853a1.325,1.325,0,0,0,1.325-1.325V55.641h3.974a1.325,1.325,0,0,0,1.325-1.325V1.336A1.324,1.324,0,0,0,78.151.011ZM2.653,63.588a10.608,10.608,0,0,1,10.6-10.6,10.5,10.5,0,0,1,6.225,2.033,13.332,13.332,0,0,0-3.429,3.1,3.957,3.957,0,0,0-1.472-.914V55.641H11.925v1.568a3.964,3.964,0,0,0,1.325,7.7c.023,0,.044.009.066.009-.042.433-.066.872-.066,1.315s.024.882.066,1.314c-.023,0-.044.011-.066.011a1.325,1.325,0,0,1-1.325-1.325H9.276a3.974,3.974,0,0,0,2.649,3.73v1.568h2.438A13.236,13.236,0,0,0,15.7,73.888a10.563,10.563,0,0,1-13.049-10.3Zm10.6-3.974a1.307,1.307,0,0,1,1.262,1.017,13.077,13.077,0,0,0-.662,1.677,3.851,3.851,0,0,0-.6-.045,1.325,1.325,0,0,1,0-2.649Zm23.841,6.623a10.6,10.6,0,1,1-10.6-10.6A10.6,10.6,0,0,1,37.091,66.237Zm34.438,10.6H49.011V42.4H71.528Zm5.3-23.841H74.177V41.071a1.325,1.325,0,0,0-1.325-1.325H47.687a1.325,1.325,0,0,0-1.325,1.325V52.992H21.175a13.162,13.162,0,0,0-15.839,0H2.653V2.66H76.826Z" transform="translate(0 0)"/><path d="M265.347,53.2h29.14V50.554H266.671V45.8l3.974-3.974,7.011,7.011a1.325,1.325,0,0,0,1.873,0l4.362-4.362,1.713,1.713a1.325,1.325,0,0,0,1.873,0L294.1,39.57,292.225,37.7l-5.686,5.686-1.713-1.713a1.325,1.325,0,0,0-1.873,0l-4.362,4.362-7.011-7.011a1.325,1.325,0,0,0-1.873,0l-3.037,3.037V32.011h-2.649V51.879A1.325,1.325,0,0,0,265.347,53.2Z" transform="translate(-220.309 -26.702)"/><path d="M32.022,32.011h14.57V34.66H32.022Z" transform="translate(-26.72 -26.702)"/><path d="M152.022,32.011h7.947V34.66h-7.947Z" transform="translate(-126.852 -26.702)"/><path d="M216.022,32.011h5.3V34.66h-5.3Z" transform="translate(-180.256 -26.702)"/><path d="M32.022,80.011H49.241V82.66H32.022Z" transform="translate(-26.72 -66.755)"/><path d="M152.022,80.011h7.947V82.66h-7.947Z" transform="translate(-126.852 -66.755)"/><path d="M216.022,80.011h5.3V82.66h-5.3Z" transform="translate(-180.256 -66.755)"/><path d="M32.022,128.011h14.57v2.649H32.022Z" transform="translate(-26.72 -106.808)"/><path d="M152.022,128.011h7.947v2.649h-7.947Z" transform="translate(-126.852 -106.808)"/><path d="M216.022,128.011h5.3v2.649h-5.3Z" transform="translate(-180.256 -106.808)"/><path d="M280.022,176.011h2.649v7.947h-2.649Z" transform="translate(-233.66 -146.86)"/><path d="M376.022,176.011h2.649v7.947h-2.649Z" transform="translate(-313.765 -146.86)"/><path d="M328.022,176.011h2.649v7.947h-2.649Z" transform="translate(-273.713 -146.86)"/><path d="M32.022,176.011H49.241v2.649H32.022Z" transform="translate(-26.72 -146.86)"/><path d="M152.022,176.011h7.947v2.649h-7.947Z" transform="translate(-126.852 -146.86)"/><path d="M216.022,176.011h5.3v2.649h-5.3Z" transform="translate(-180.256 -146.86)"/><path d="M32.022,272.011h14.57v2.649H32.022Z" transform="translate(-26.72 -226.966)"/><path d="M152.022,272.011h7.947v2.649h-7.947Z" transform="translate(-126.852 -226.966)"/><path d="M216.022,272.011h5.3v2.649h-5.3Z" transform="translate(-180.256 -226.966)"/><path d="M32.022,224.011H43.943v2.649H32.022Z" transform="translate(-26.72 -186.913)"/><path d="M152.022,224.011h7.947v2.649h-7.947Z" transform="translate(-126.852 -186.913)"/><path d="M216.022,224.011h5.3v2.649h-5.3Z" transform="translate(-180.256 -186.913)"/><path d="M424.022,176.011h2.649v7.947h-2.649Z" transform="translate(-353.818 -146.86)"/><path d="M140,363.932a1.325,1.325,0,0,1-1.325-1.325h-2.649a3.974,3.974,0,0,0,2.649,3.73v1.568h2.649v-1.568a3.964,3.964,0,0,0-1.325-7.7,1.325,1.325,0,1,1,1.325-1.325h2.649a3.974,3.974,0,0,0-2.649-3.73v-1.568h-2.649v1.568a3.964,3.964,0,0,0,1.325,7.7,1.325,1.325,0,0,1,0,2.649Z" transform="translate(-113.501 -293.721)"/></g></g></g></svg>