<svg xmlns="http://www.w3.org/2000/svg" xmlns:xlink="http://www.w3.org/1999/xlink" width="379.063" height="267.58" viewBox="0 0 379.063 267.58"><defs><clipPath id="a"><rect width="359.063" height="267.58" fill="none"/></clipPath><clipPath id="c"><rect width="10.997" height="10.73" fill="none"/></clipPath><clipPath id="e"><rect width="50.601" height="22.876" fill="none"/></clipPath><clipPath id="f"><rect width="65.464" height="22.37" fill="none"/></clipPath><clipPath id="g"><rect width="12.15" height="18.166" fill="none"/></clipPath><clipPath id="i"><rect width="268.988" height="13.651" fill="none"/></clipPath><clipPath id="j"><rect width="17.614" height="9.248" fill="none"/></clipPath><clipPath id="k"><rect width="17.613" height="9.248" fill="none"/></clipPath><clipPath id="l"><rect width="11.466" height="5.882" fill="none"/></clipPath><clipPath id="n"><rect width="12.054" height="8.052" fill="none"/></clipPath><clipPath id="o"><rect width="8.203" height="8.052" fill="none"/></clipPath><clipPath id="r"><rect width="8.203" height="5.564" fill="none"/></clipPath><clipPath id="s"><rect width="13.505" height="8.052" fill="none"/></clipPath><clipPath id="u"><rect width="8.694" height="2.589" fill="none"/></clipPath><clipPath id="ai"><rect width="11.038" height="10.693" fill="none"/></clipPath><clipPath id="aj"><rect width="9.202" height="9.017" fill="none"/></clipPath><clipPath id="ak"><rect width="17.55" height="26.83" fill="none"/></clipPath><clipPath id="al"><rect width="18.829" height="25.241" fill="none"/></clipPath><clipPath id="am"><rect width="15.58" height="25.072" fill="none"/></clipPath><clipPath id="an"><rect width="12.91" height="17.418" fill="none"/></clipPath><clipPath id="ao"><rect width="34.254" height="63.799" fill="none"/></clipPath><clipPath id="ap"><rect width="34.237" height="3.696" fill="none"/></clipPath><clipPath id="aq"><rect width="9.943" height="58.849" fill="none"/></clipPath><clipPath id="ar"><rect width="9.091" height="11.509" fill="none"/></clipPath><clipPath id="as"><rect width="9.091" height="10.614" fill="none"/></clipPath><clipPath id="at"><rect width="9.091" height="10.613" fill="none"/></clipPath><clipPath id="au"><rect width="81.932" height="216.084" fill="none"/></clipPath><clipPath id="av"><rect width="29.446" height="60.146" fill="none"/></clipPath><clipPath id="aw"><rect width="30.056" height="27.131" fill="none"/></clipPath><clipPath id="ax"><rect width="22.869" height="27.131" fill="none"/></clipPath><clipPath id="ay"><rect width="19.28" height="23.54" fill="none"/></clipPath><clipPath id="az"><rect width="29.586" height="53.611" fill="none"/></clipPath><clipPath id="ba"><rect width="21.119" height="53.611" fill="none"/></clipPath><clipPath id="bb"><rect width="16.517" height="7.764" fill="none"/></clipPath><clipPath id="bc"><rect width="14.002" height="6.735" fill="none"/></clipPath><clipPath id="bd"><rect width="62.061" height="7.664" fill="none"/></clipPath><clipPath id="be"><rect width="6.646" height="8.23" fill="none"/></clipPath><clipPath id="bf"><rect width="4.847" height="22.096" fill="none"/></clipPath><clipPath id="bg"><rect width="4.144" height="3.982" fill="none"/></clipPath><clipPath id="bh"><rect width="4.294" height="3.497" fill="none"/></clipPath><clipPath id="bi"><rect width="3.475" height="3.368" fill="none"/></clipPath><clipPath id="bj"><rect width="63.106" height="81.31" fill="none"/></clipPath><clipPath id="bk"><rect width="58.707" height="52.826" fill="none"/></clipPath><clipPath id="bl"><rect width="9.946" height="40.883" fill="none"/></clipPath><clipPath id="bo"><rect width="24.327" height="13.234" fill="none"/></clipPath><clipPath id="bp"><rect width="58.707" height="53.275" fill="none"/></clipPath><clipPath id="bq"><rect width="2.699" height="2.699" fill="none"/></clipPath><clipPath id="bs"><rect width="4.824" height="4.824" fill="none"/></clipPath><clipPath id="bu"><rect width="1.776" height="1.775" fill="none"/></clipPath><clipPath id="bv"><rect width="1.775" height="1.776" fill="none"/></clipPath><clipPath id="bw"><rect width="3.186" height="3.186" fill="none"/></clipPath><clipPath id="bz"><rect width="2.137" height="2.137" fill="none"/></clipPath><clipPath id="cb"><rect width="7.095" height="7.096" fill="none"/></clipPath><clipPath id="cc"><rect width="1.122" height="1.122" fill="none"/></clipPath><clipPath id="cg"><rect width="2.058" height="2.058" fill="none"/></clipPath><clipPath id="ci"><rect width="0.569" height="0.568" fill="none"/></clipPath><clipPath id="cj"><rect width="14.366" height="76.552" fill="none"/></clipPath><clipPath id="ck"><rect width="13.741" height="10.671" fill="none"/></clipPath></defs><g transform="translate(-220.937 -11478.514)"><g transform="translate(0 -37.582)"><line x2="106" transform="translate(482.5 11669.31)" fill="none" stroke="#f14141" stroke-linecap="round" stroke-width="2" stroke-dasharray="3"/><circle cx="5.5" cy="5.5" r="5.5" transform="translate(589 11663.81)" fill="#f14141"/></g><g transform="translate(220.937 11478.514)"><g clip-path="url(#a)"><rect width="359.063" height="0.18" transform="translate(0 235.147)" fill="#ebebeb"/><rect width="23.786" height="0.18" transform="translate(299.3 246.706)" fill="#ebebeb"/><rect width="6.243" height="0.18" transform="translate(231.615 248.655)" fill="#ebebeb"/><rect width="13.782" height="0.18" transform="translate(284.799 240.038)" fill="#ebebeb"/><rect width="31.018" height="0.18" transform="translate(37.672 241.244)" fill="#ebebeb"/><rect width="4.548" height="0.18" transform="translate(75.084 241.244)" fill="#ebebeb"/><rect width="67.271" height="0.179" transform="translate(94.413 244.277)" fill="#ebebeb"/><g clip-path="url(#a)"><path d="M180.975,203.12H42.306a4.1,4.1,0,0,1-4.1-4.1V4.1a4.1,4.1,0,0,1,4.1-4.1H180.975a4.1,4.1,0,0,1,4.1,4.1V199.021a4.1,4.1,0,0,1-4.1,4.1M42.306.18a3.924,3.924,0,0,0-3.92,3.92V199.021a3.924,3.924,0,0,0,3.92,3.92H180.975a3.924,3.924,0,0,0,3.919-3.92V4.1A3.924,3.924,0,0,0,180.975.18Z" transform="translate(-10.77)" fill="#ebebeb"/><path d="M397.273,203.12H258.6a4.1,4.1,0,0,1-4.1-4.1V4.1A4.1,4.1,0,0,1,258.6,0H397.273a4.1,4.1,0,0,1,4.1,4.1V199.021a4.1,4.1,0,0,1-4.1,4.1M258.6.18a3.923,3.923,0,0,0-3.919,3.92V199.021a3.923,3.923,0,0,0,3.919,3.92H397.273a3.924,3.924,0,0,0,3.92-3.92V4.1a3.924,3.924,0,0,0-3.92-3.92Z" transform="translate(-71.738)" fill="#ebebeb"/><path d="M84.525,186.973a6.236,6.236,0,0,1-.194-1.283c-.158-2.661-2.7-2.239-4.86-2.6-1.688-.282,2.783-4.548-.622-5.924a2.993,2.993,0,0,1-1.643-1.145,1.934,1.934,0,0,1,.742-2.361,4.576,4.576,0,0,1,2.585-.648c.555-.675.1-1.691-.434-2.381s-1.2-1.474-.992-2.324c.307-1.284,2.1-1.33,3.4-1.08a9.342,9.342,0,0,0,.7-2.627c.232-.882.934-1.807,1.838-1.7.852.1,1.373,1.066,2.209,1.264.971.228,1.811-.63,2.573-1.274s2.093-1.046,2.618-.2c.314.508.126,1.216.452,1.716.566.867,1.907.329,2.74-.286s2.159-1.171,2.745-.318a3.552,3.552,0,0,1,.322.89c.394,1.137,1.623,1.7,2.58,2.432s1.716,2.179.906,3.069c-.4.439-1.1.617-1.3,1.176-.248.7.466,1.325,1.031,1.806.941.8,1.112,3.194-.132,3.849-.522.275-1.288.359-1.416.935-.115.516.408.916.755,1.313a2.472,2.472,0,0,1-.757,3.68c-.3.143-.666.26-.776.572a1.17,1.17,0,0,0,.072.7,3.677,3.677,0,0,1,.119,1.333.609.609,0,0,1-.162.418.638.638,0,0,1-.394.111c-1.8.08-2.662-.556-3.759,1.007a1.277,1.277,0,0,1-.374.4,1.149,1.149,0,0,1-.5.124c-1.234.1-2.042-.669-3.17-.812-1.566-.2-1.9.608-3.277,1.256-2.169,1.02-3.222.391-3.629-1.087" transform="translate(-21.715 -45.724)" fill="#ebebeb"/><path d="M113.33,183.861a6.235,6.235,0,0,1-.194-1.283c-.158-2.661-2.7-2.239-4.86-2.6-1.688-.282,2.783-4.548-.622-5.924a2.99,2.99,0,0,1-1.643-1.145,1.934,1.934,0,0,1,.742-2.361,4.569,4.569,0,0,1,2.585-.648c.555-.676.1-1.692-.434-2.381s-1.2-1.474-.992-2.324c.307-1.283,2.1-1.33,3.4-1.08a9.34,9.34,0,0,0,.7-2.627c.232-.882.934-1.807,1.838-1.7.853.1,1.374,1.066,2.21,1.264.971.228,1.811-.63,2.573-1.274s2.093-1.046,2.618-.2c.314.508.126,1.216.452,1.716.566.867,1.907.329,2.74-.286s2.159-1.171,2.745-.318a3.553,3.553,0,0,1,.322.89c.394,1.137,1.623,1.7,2.58,2.432s1.716,2.179.906,3.069c-.4.439-1.1.617-1.3,1.176-.248.7.466,1.326,1.031,1.806.941.8,1.112,3.194-.132,3.849-.522.275-1.288.359-1.416.936-.115.515.408.916.755,1.313a2.472,2.472,0,0,1-.757,3.68c-.3.143-.666.26-.776.572a1.17,1.17,0,0,0,.072.7,3.677,3.677,0,0,1,.119,1.333.609.609,0,0,1-.162.418.638.638,0,0,1-.394.111c-1.8.08-2.662-.556-3.759,1.007a1.277,1.277,0,0,1-.374.4,1.159,1.159,0,0,1-.5.124c-1.234.1-2.042-.669-3.17-.813-1.566-.2-1.9.608-3.277,1.256-2.169,1.02-3.222.391-3.629-1.087" transform="translate(-29.834 -44.846)" fill="#ebebeb"/><path d="M116.106,165.517a6.284,6.284,0,0,1-.194-1.283c-.158-2.661-2.7-2.239-4.86-2.6-1.688-.282,2.783-4.548-.622-5.924a2.99,2.99,0,0,1-1.643-1.145,1.934,1.934,0,0,1,.742-2.36,4.576,4.576,0,0,1,2.585-.648c.556-.675.1-1.69-.434-2.381s-1.2-1.474-.992-2.324c.307-1.284,2.1-1.33,3.4-1.08a9.341,9.341,0,0,0,.7-2.627c.232-.882.934-1.807,1.838-1.7.852.1,1.373,1.066,2.209,1.264.971.228,1.811-.63,2.573-1.274s2.093-1.046,2.618-.2c.314.508.126,1.216.452,1.716.566.867,1.907.329,2.74-.286s2.159-1.171,2.745-.318a3.551,3.551,0,0,1,.322.89c.394,1.137,1.623,1.7,2.58,2.432s1.716,2.179.906,3.069c-.4.439-1.1.617-1.3,1.176-.249.7.466,1.326,1.031,1.806.941.8,1.112,3.194-.132,3.849-.522.275-1.288.359-1.416.935-.114.516.408.916.755,1.313a2.472,2.472,0,0,1-.757,3.68c-.3.143-.666.26-.776.572a1.17,1.17,0,0,0,.072.7,3.678,3.678,0,0,1,.119,1.333.606.606,0,0,1-.162.418.633.633,0,0,1-.394.111c-1.8.08-2.663-.556-3.759,1.007a1.288,1.288,0,0,1-.374.4,1.17,1.17,0,0,1-.5.124c-1.234.1-2.042-.669-3.17-.813-1.566-.2-1.9.608-3.277,1.256-2.169,1.02-3.222.391-3.629-1.087" transform="translate(-30.616 -39.676)" fill="#ebebeb"/><path d="M135.081,174.654a6.284,6.284,0,0,1-.194-1.283c-.158-2.661-2.7-2.239-4.86-2.6-1.688-.282,2.783-4.548-.622-5.924a2.99,2.99,0,0,1-1.643-1.145,1.934,1.934,0,0,1,.742-2.36,4.569,4.569,0,0,1,2.585-.648c.556-.676.1-1.691-.434-2.381s-1.2-1.474-.992-2.324c.307-1.284,2.1-1.33,3.4-1.08a9.341,9.341,0,0,0,.7-2.627c.232-.882.934-1.807,1.838-1.7.852.1,1.373,1.066,2.209,1.264.971.228,1.811-.63,2.573-1.274s2.093-1.046,2.618-.2c.314.508.126,1.216.452,1.716.566.867,1.907.329,2.74-.286s2.159-1.171,2.745-.318a3.553,3.553,0,0,1,.322.89c.394,1.137,1.623,1.7,2.58,2.432s1.716,2.179.906,3.069c-.4.439-1.1.617-1.3,1.176-.248.7.466,1.326,1.031,1.806.941.8,1.112,3.194-.132,3.849-.522.275-1.288.359-1.416.935-.114.516.408.916.755,1.313a2.472,2.472,0,0,1-.757,3.68c-.3.143-.666.26-.776.572a1.176,1.176,0,0,0,.072.7,3.66,3.66,0,0,1,.119,1.333.608.608,0,0,1-.162.418.64.64,0,0,1-.394.111c-1.8.08-2.663-.556-3.759,1.007a1.28,1.28,0,0,1-.374.4,1.156,1.156,0,0,1-.5.123c-1.234.1-2.042-.669-3.17-.812-1.566-.2-1.9.608-3.277,1.256-2.169,1.02-3.222.391-3.629-1.087" transform="translate(-35.965 -42.251)" fill="#ebebeb"/><path d="M154.258,170.433a6.284,6.284,0,0,1-.194-1.283c-.158-2.662-2.7-2.24-4.86-2.6-1.688-.282,2.783-4.548-.622-5.924a2.99,2.99,0,0,1-1.643-1.145,1.934,1.934,0,0,1,.742-2.36,4.57,4.57,0,0,1,2.585-.648c.556-.676.1-1.691-.434-2.381s-1.2-1.474-.992-2.324c.307-1.283,2.1-1.33,3.4-1.08a9.342,9.342,0,0,0,.7-2.627c.232-.882.934-1.807,1.838-1.7.852.1,1.373,1.066,2.209,1.263.971.228,1.811-.63,2.573-1.274s2.093-1.046,2.618-.2c.314.508.126,1.216.452,1.716.566.867,1.907.329,2.74-.286s2.159-1.171,2.745-.318a3.553,3.553,0,0,1,.322.89c.394,1.137,1.623,1.7,2.58,2.432s1.716,2.179.906,3.069c-.4.439-1.1.617-1.3,1.176-.248.7.466,1.326,1.031,1.806.941.8,1.112,3.194-.132,3.849-.522.275-1.288.359-1.416.935-.114.516.408.916.755,1.313a2.472,2.472,0,0,1-.757,3.68c-.3.143-.666.26-.776.572a1.175,1.175,0,0,0,.072.7,3.677,3.677,0,0,1,.12,1.333.612.612,0,0,1-.162.418.635.635,0,0,1-.394.111c-1.8.08-2.663-.556-3.759,1.007a1.28,1.28,0,0,1-.374.4,1.156,1.156,0,0,1-.5.123c-1.234.1-2.042-.669-3.17-.812-1.566-.2-1.9.608-3.277,1.256-2.169,1.02-3.221.391-3.629-1.087" transform="translate(-41.371 -41.061)" fill="#ebebeb"/><path d="M155.134,193.013a4.935,4.935,0,0,1-.153-1.01c-.124-2.1-2.125-1.763-3.827-2.047-1.329-.223,2.191-3.581-.49-4.665a2.355,2.355,0,0,1-1.293-.9,1.523,1.523,0,0,1,.584-1.859,3.6,3.6,0,0,1,2.035-.51c.437-.532.082-1.331-.341-1.874s-.941-1.161-.781-1.83c.242-1.01,1.655-1.047,2.675-.85a7.336,7.336,0,0,0,.553-2.069c.183-.694.735-1.423,1.448-1.336.671.082,1.082.84,1.739,1,.765.18,1.426-.5,2.026-1s1.648-.824,2.062-.156c.247.4.1.957.356,1.352.445.682,1.5.259,2.157-.225s1.7-.922,2.162-.251a2.783,2.783,0,0,1,.254.7c.31.895,1.278,1.341,2.032,1.915s1.351,1.716.713,2.416c-.315.346-.868.486-1.024.926-.2.55.367,1.043.811,1.422.741.631.875,2.516-.1,3.031-.411.216-1.014.283-1.115.736-.09.406.321.721.595,1.034a1.946,1.946,0,0,1-.6,2.9c-.236.113-.524.205-.611.451a.923.923,0,0,0,.056.547,2.875,2.875,0,0,1,.094,1.049.479.479,0,0,1-.127.33.5.5,0,0,1-.311.088c-1.414.063-2.1-.437-2.959.793a1.016,1.016,0,0,1-.294.313.92.92,0,0,1-.391.1c-.972.08-1.607-.526-2.5-.64-1.232-.157-1.494.478-2.579.989-1.708.8-2.536.309-2.857-.855" transform="translate(-42.066 -48.91)" fill="#ebebeb"/><path d="M165.254,183.861a6.236,6.236,0,0,1-.194-1.283c-.158-2.661-2.7-2.239-4.86-2.6-1.688-.282,2.783-4.548-.622-5.924a2.99,2.99,0,0,1-1.643-1.145,1.934,1.934,0,0,1,.742-2.361,4.569,4.569,0,0,1,2.585-.648c.556-.676.1-1.692-.434-2.381s-1.2-1.474-.992-2.324c.307-1.283,2.1-1.33,3.4-1.08a9.34,9.34,0,0,0,.7-2.627c.232-.882.934-1.807,1.838-1.7.852.1,1.373,1.066,2.209,1.264.971.228,1.811-.63,2.573-1.274s2.093-1.046,2.618-.2c.314.508.126,1.216.452,1.716.566.867,1.907.329,2.74-.286s2.159-1.171,2.745-.318a3.552,3.552,0,0,1,.322.89c.394,1.137,1.623,1.7,2.58,2.432s1.716,2.179.906,3.069c-.4.439-1.1.617-1.3,1.176-.248.7.466,1.326,1.031,1.806.941.8,1.112,3.194-.132,3.849-.522.275-1.288.359-1.416.936-.114.515.408.916.755,1.313a2.472,2.472,0,0,1-.757,3.68c-.3.143-.666.26-.776.572a1.17,1.17,0,0,0,.072.7,3.66,3.66,0,0,1,.119,1.333.608.608,0,0,1-.162.418.64.64,0,0,1-.395.111c-1.8.08-2.662-.556-3.759,1.007a1.278,1.278,0,0,1-.374.4,1.159,1.159,0,0,1-.5.124c-1.234.1-2.042-.669-3.17-.813-1.566-.2-1.9.608-3.277,1.256-2.169,1.02-3.222.391-3.629-1.087" transform="translate(-44.47 -44.846)" fill="#ebebeb"/><path d="M135.081,152.089a6.284,6.284,0,0,1-.194-1.283c-.158-2.661-2.7-2.239-4.86-2.6-1.688-.282,2.783-4.548-.622-5.924a2.99,2.99,0,0,1-1.643-1.145,1.934,1.934,0,0,1,.742-2.36,4.569,4.569,0,0,1,2.585-.648c.556-.676.1-1.691-.434-2.381s-1.2-1.474-.992-2.324c.307-1.284,2.1-1.33,3.4-1.08a9.341,9.341,0,0,0,.7-2.627c.232-.882.934-1.807,1.838-1.7.852.1,1.373,1.066,2.209,1.264.971.228,1.811-.63,2.573-1.274s2.093-1.046,2.618-.2c.314.508.126,1.216.452,1.716.566.867,1.907.329,2.74-.286s2.159-1.171,2.745-.318a3.553,3.553,0,0,1,.322.89c.394,1.137,1.623,1.7,2.58,2.432s1.716,2.179.906,3.069c-.4.439-1.1.617-1.3,1.176-.248.7.466,1.326,1.031,1.806.941.8,1.112,3.194-.132,3.849-.522.275-1.288.359-1.416.935-.114.516.408.916.755,1.313a2.472,2.472,0,0,1-.757,3.68c-.3.143-.666.26-.776.572a1.176,1.176,0,0,0,.072.7,3.66,3.66,0,0,1,.119,1.333.608.608,0,0,1-.162.418.635.635,0,0,1-.394.111c-1.8.08-2.663-.556-3.759,1.007a1.28,1.28,0,0,1-.374.4,1.167,1.167,0,0,1-.5.124c-1.234.1-2.042-.669-3.17-.813-1.566-.2-1.9.608-3.277,1.256-2.169,1.02-3.222.391-3.629-1.087" transform="translate(-35.965 -35.891)" fill="#ebebeb"/><path d="M110.445,153.349a6.235,6.235,0,0,1-.194-1.283c-.158-2.661-2.7-2.239-4.86-2.6-1.688-.282,2.783-4.548-.622-5.924a2.993,2.993,0,0,1-1.643-1.145,1.934,1.934,0,0,1,.742-2.36,4.576,4.576,0,0,1,2.585-.648c.555-.675.1-1.69-.434-2.381s-1.2-1.474-.992-2.324c.307-1.283,2.1-1.33,3.4-1.08a9.341,9.341,0,0,0,.7-2.627c.232-.882.934-1.807,1.838-1.7.852.1,1.373,1.066,2.209,1.264.971.228,1.811-.63,2.573-1.274s2.093-1.046,2.618-.2c.314.508.126,1.216.452,1.716.566.867,1.907.329,2.74-.286s2.159-1.171,2.745-.318a3.552,3.552,0,0,1,.322.89c.394,1.137,1.623,1.7,2.58,2.432s1.716,2.179.906,3.069c-.4.439-1.1.617-1.3,1.176-.248.7.466,1.326,1.031,1.806.941.8,1.112,3.194-.132,3.849-.522.275-1.288.359-1.416.936-.115.515.408.916.755,1.313a2.472,2.472,0,0,1-.757,3.68c-.3.143-.666.26-.776.572a1.17,1.17,0,0,0,.072.7,3.678,3.678,0,0,1,.119,1.333.606.606,0,0,1-.162.418.633.633,0,0,1-.394.111c-1.8.08-2.662-.556-3.759,1.007a1.288,1.288,0,0,1-.374.4,1.17,1.17,0,0,1-.5.124c-1.234.1-2.042-.669-3.17-.813-1.566-.2-1.9.608-3.277,1.256-2.169,1.02-3.222.391-3.629-1.087" transform="translate(-29.021 -36.246)" fill="#ebebeb"/><path d="M95.481,163.431a6.235,6.235,0,0,1-.194-1.283c-.158-2.661-2.7-2.239-4.86-2.6-1.688-.282,2.783-4.548-.622-5.924a2.99,2.99,0,0,1-1.643-1.145,1.934,1.934,0,0,1,.742-2.361,4.57,4.57,0,0,1,2.585-.648c.556-.676.1-1.691-.434-2.381s-1.2-1.474-.992-2.324c.307-1.283,2.1-1.33,3.4-1.08a9.341,9.341,0,0,0,.7-2.627c.232-.882.934-1.807,1.838-1.7.852.1,1.373,1.066,2.209,1.264.971.228,1.811-.63,2.573-1.274s2.093-1.046,2.618-.2c.314.508.126,1.216.452,1.716.566.867,1.907.329,2.74-.286s2.159-1.171,2.745-.318a3.552,3.552,0,0,1,.322.89c.394,1.137,1.623,1.7,2.58,2.432s1.716,2.179.906,3.069c-.4.439-1.1.617-1.3,1.176-.248.7.466,1.326,1.031,1.806.941.8,1.112,3.194-.132,3.849-.522.275-1.288.359-1.416.936-.114.515.408.916.755,1.313a2.472,2.472,0,0,1-.757,3.68c-.3.143-.666.26-.776.572a1.17,1.17,0,0,0,.072.7,3.662,3.662,0,0,1,.119,1.333.608.608,0,0,1-.162.418.635.635,0,0,1-.394.111c-1.8.08-2.663-.556-3.759,1.007a1.28,1.28,0,0,1-.374.4,1.166,1.166,0,0,1-.5.124c-1.234.1-2.042-.669-3.17-.813-1.566-.2-1.9.608-3.277,1.256-2.169,1.02-3.222.391-3.629-1.087" transform="translate(-24.803 -39.088)" fill="#ebebeb"/><path d="M102.956,179.727s4.494,6.354,6.044,8.368,9.3,14.568,10.353,22.87c.113.886.223,1.649.332,2.316-3.334,22-2.81,62.247-2.693,69.138h10.559c.1-7.77.995-78.8,1.325-80.967.35-2.294,4.764-11.033,11.583-14.623s12.711-15.471,12.711-15.471H151s-4.029,7.283-9.763,11.313a22.03,22.03,0,0,1-2.58,1.53,36.612,36.612,0,0,0-2.28-12.842l-1.173,1.084c1.584,6.488,1.376,10.642.9,13.029a23.61,23.61,0,0,0-5.929,3.968c-5.948-7.734-9.292-25.422-9.292-25.422l-1.523.832a90.071,90.071,0,0,0,1.966,10.848c1.115,4.578,4.394,13.2,5.92,17.111a40.525,40.525,0,0,0-4.493,8.434,3.442,3.442,0,0,0-.574-.688c-3.874-3.5-11.158-20.053-11.158-20.053-1.762-3.848.93-13.947.93-13.947h-2.034L109,175.388l-5.114-5.579-.93.775,5.424,6.974,2.789,8.835-7.283-8.06Z" transform="translate(-29.021 -46.232)" fill="#e7e7e7"/><path d="M77.877,317.52h70.188c.987-3.293-1.566-7.244-4.347-7.8-3.416-.683-6.851-6.7-7.013-10.523s-6.312-15.6-15.878-8.33-6.66,1.071-13.58-.972S95.96,293.73,99,298.138c0,0-6.952-1.743-9.816,4.749s0,10.524,0,10.524-8.788-.256-11.3,4.11" transform="translate(-21.951 -81.333)" fill="#e0e0e0"/><path d="M288.271,42.169a3.3,3.3,0,0,1,4.248-3.161,6.986,6.986,0,0,1,8.2-7.883,6.109,6.109,0,0,1,11.328,3.089c.034,0,.068-.005.1-.005a5.63,5.63,0,1,1,0,11.261H291.475l0,0a3.3,3.3,0,0,1-3.208-3.3" transform="translate(-81.256 -7.946)" fill="#f5f5f5"/><path d="M143.684,98.041a3.3,3.3,0,0,1,4.248-3.161,6.986,6.986,0,0,1,8.2-7.883,6.109,6.109,0,0,1,11.328,3.089c.034,0,.068-.006.1-.006a5.631,5.631,0,0,1,0,11.262H146.888l0,0a3.3,3.3,0,0,1-3.208-3.3" transform="translate(-40.501 -23.695)" fill="#f5f5f5"/><path d="M250.743,105.843a2.051,2.051,0,0,1,2.641-1.966,4.344,4.344,0,0,1,5.1-4.9,3.8,3.8,0,0,1,7.043,1.92l.063,0a3.5,3.5,0,1,1,0,7H252.735l0,0a2.051,2.051,0,0,1-1.994-2.05" transform="translate(-70.678 -27.385)" fill="#f5f5f5"/><path d="M103.357,65.064A2.051,2.051,0,0,1,106,63.1a4.344,4.344,0,0,1,5.1-4.9,3.8,3.8,0,0,1,7.043,1.92c.021,0,.042,0,.063,0a3.5,3.5,0,1,1,0,7H105.349l0,0a2.051,2.051,0,0,1-1.994-2.05" transform="translate(-29.134 -15.89)" fill="#f5f5f5"/><path d="M377.187,109.786a2.051,2.051,0,0,1,2.641-1.966,4.441,4.441,0,0,1-.046-.63,4.341,4.341,0,0,1,5.146-4.271,3.8,3.8,0,0,1,7.043,1.92l.063,0a3.5,3.5,0,0,1,0,7H379.179l0,0a2.051,2.051,0,0,1-1.994-2.05" transform="translate(-106.319 -28.496)" fill="#f5f5f5"/><path d="M386.579,323.847c.162-1.952-.1-4.482-2.383-5.234-3.862-1.274-6.154-4.265-6.024-7.648s-3.936-6.676-6.985-3.5-2.643-2.438-6.709-3.8-7.512,1.944-6.4,4.966-2.9,4.91-7.7,2.34-10.09,2.106-9.073,5.764.184,4.065-2.855,2.846c-2.456-.986-6.476,1.082-6.924,4.271Z" transform="translate(-93.448 -85.505)" fill="#e0e0e0"/><path d="M400.727,223.005a4.8,4.8,0,0,0,.149-.985c.121-2.042,2.071-1.718,3.729-2,1.3-.216-2.135-3.489.478-4.545a2.3,2.3,0,0,0,1.26-.878,1.484,1.484,0,0,0-.569-1.812,3.511,3.511,0,0,0-1.983-.5c-.426-.518-.08-1.3.332-1.826s.918-1.131.761-1.783c-.236-.985-1.612-1.02-2.607-.829a7.142,7.142,0,0,1-.539-2.015c-.178-.676-.716-1.387-1.41-1.3-.654.08-1.054.818-1.695.969-.745.175-1.39-.483-1.974-.977s-1.606-.8-2.009-.152c-.241.389-.1.933-.347,1.316-.434.665-1.463.252-2.1-.219s-1.657-.9-2.106-.244a2.729,2.729,0,0,0-.248.683c-.3.873-1.245,1.307-1.979,1.866s-1.316,1.672-.7,2.354c.307.337.846.473,1,.9.19.536-.358,1.017-.791,1.386-.722.614-.852,2.451.1,2.953.4.211.988.276,1.086.718.088.395-.313.7-.58,1.008a1.9,1.9,0,0,0,.58,2.824c.229.109.511.2.6.439a.894.894,0,0,1-.055.534,2.825,2.825,0,0,0-.092,1.023.468.468,0,0,0,.125.321.488.488,0,0,0,.3.085c1.378.061,2.043-.427,2.884.773a.987.987,0,0,0,.287.3.892.892,0,0,0,.38.095c.948.078,1.567-.513,2.432-.623,1.2-.153,1.456.466,2.514.964,1.665.783,2.472.3,2.784-.834" transform="translate(-109.03 -57.504)" fill="#ebebeb"/><path d="M378.626,220.617a4.8,4.8,0,0,0,.149-.985c.121-2.042,2.07-1.718,3.729-1.995,1.3-.217-2.135-3.489.478-4.546a2.3,2.3,0,0,0,1.26-.878,1.484,1.484,0,0,0-.569-1.811,3.507,3.507,0,0,0-1.983-.5c-.427-.518-.08-1.3.332-1.826s.918-1.131.761-1.783c-.236-.985-1.612-1.02-2.607-.829a7.142,7.142,0,0,1-.539-2.015c-.178-.676-.716-1.387-1.41-1.3-.654.08-1.054.818-1.7.969-.745.175-1.39-.483-1.974-.977s-1.606-.8-2.009-.152c-.241.39-.1.933-.347,1.316-.434.665-1.463.252-2.1-.219s-1.657-.9-2.106-.244a2.731,2.731,0,0,0-.248.683c-.3.873-1.245,1.307-1.98,1.866s-1.316,1.672-.694,2.354c.307.337.846.473,1,.9.19.536-.358,1.017-.791,1.386-.722.614-.852,2.451.1,2.953.4.211.988.276,1.087.718.088.395-.313.7-.58,1.008a1.9,1.9,0,0,0,.58,2.824c.229.109.511.2.6.439a.9.9,0,0,1-.055.534,2.824,2.824,0,0,0-.092,1.023.468.468,0,0,0,.125.321.487.487,0,0,0,.3.085c1.378.061,2.043-.427,2.884.773a.979.979,0,0,0,.287.3.882.882,0,0,0,.38.095c.947.078,1.567-.513,2.432-.623,1.2-.153,1.456.466,2.514.964,1.665.783,2.472.3,2.784-.834" transform="translate(-102.8 -56.831)" fill="#ebebeb"/><path d="M376.5,206.542a4.8,4.8,0,0,0,.149-.985c.121-2.042,2.07-1.718,3.729-1.995,1.3-.217-2.135-3.489.478-4.546a2.3,2.3,0,0,0,1.26-.878,1.485,1.485,0,0,0-.569-1.812,3.511,3.511,0,0,0-1.983-.5c-.426-.518-.08-1.3.332-1.826s.918-1.131.761-1.784c-.236-.985-1.612-1.02-2.607-.829a7.141,7.141,0,0,1-.539-2.015c-.178-.676-.717-1.387-1.41-1.3-.654.08-1.054.818-1.7.969-.745.175-1.39-.483-1.974-.977s-1.606-.8-2.008-.152c-.241.389-.1.933-.348,1.316-.434.665-1.463.252-2.1-.219s-1.657-.9-2.106-.244a2.733,2.733,0,0,0-.248.683c-.3.873-1.245,1.307-1.979,1.866s-1.316,1.673-.7,2.355c.307.337.846.473,1,.9.19.536-.358,1.017-.791,1.386-.722.614-.852,2.451.1,2.953.4.211.988.276,1.087.718.088.395-.313.7-.58,1.008a1.9,1.9,0,0,0,.58,2.824c.229.109.511.2.6.439a.9.9,0,0,1-.055.534,2.823,2.823,0,0,0-.092,1.023.468.468,0,0,0,.125.321.487.487,0,0,0,.3.085c1.378.061,2.043-.427,2.884.773a.978.978,0,0,0,.287.3.892.892,0,0,0,.38.095c.947.078,1.567-.513,2.432-.623,1.2-.153,1.456.466,2.514.964,1.665.783,2.472.3,2.784-.834" transform="translate(-102.2 -52.864)" fill="#ebebeb"/><path d="M361.937,213.552a4.8,4.8,0,0,0,.149-.985c.121-2.042,2.071-1.718,3.729-2,1.3-.216-2.135-3.489.478-4.545a2.3,2.3,0,0,0,1.26-.878,1.483,1.483,0,0,0-.569-1.811,3.508,3.508,0,0,0-1.983-.5c-.426-.518-.08-1.3.332-1.826s.918-1.131.761-1.784c-.236-.985-1.612-1.02-2.607-.829a7.14,7.14,0,0,1-.539-2.016c-.178-.676-.716-1.386-1.41-1.3-.654.08-1.053.818-1.7.969-.745.175-1.39-.483-1.973-.977s-1.606-.8-2.009-.152c-.241.389-.1.933-.348,1.316-.434.665-1.463.252-2.1-.219s-1.657-.9-2.106-.244a2.729,2.729,0,0,0-.248.683c-.3.873-1.245,1.307-1.979,1.866s-1.316,1.672-.7,2.354c.307.337.846.473,1,.9.19.536-.358,1.017-.791,1.386-.722.614-.852,2.451.1,2.953.4.211.988.276,1.087.718.088.395-.313.7-.58,1.008a1.9,1.9,0,0,0,.58,2.824c.229.109.511.2.6.439a.9.9,0,0,1-.055.534,2.824,2.824,0,0,0-.092,1.023.468.468,0,0,0,.125.321.483.483,0,0,0,.3.085c1.378.062,2.043-.426,2.884.773a.979.979,0,0,0,.287.3.892.892,0,0,0,.38.095c.948.078,1.567-.513,2.432-.623,1.2-.153,1.456.466,2.514.964,1.665.783,2.472.3,2.784-.834" transform="translate(-98.096 -54.84)" fill="#ebebeb"/><path d="M347.223,210.314a4.8,4.8,0,0,0,.149-.985c.121-2.042,2.071-1.718,3.729-2,1.3-.216-2.135-3.489.478-4.545a2.3,2.3,0,0,0,1.26-.878,1.483,1.483,0,0,0-.569-1.811,3.506,3.506,0,0,0-1.983-.5c-.426-.518-.08-1.3.332-1.826s.918-1.131.761-1.784c-.236-.985-1.612-1.02-2.607-.829a7.143,7.143,0,0,1-.539-2.015c-.178-.676-.716-1.387-1.41-1.3-.654.08-1.053.818-1.695.969-.745.175-1.39-.483-1.974-.977s-1.606-.8-2.009-.152c-.241.389-.1.933-.348,1.316-.434.665-1.463.252-2.1-.219s-1.657-.9-2.106-.244a2.73,2.73,0,0,0-.248.683c-.3.873-1.245,1.307-1.979,1.866s-1.316,1.672-.7,2.354c.307.337.846.473,1,.9.19.536-.358,1.017-.791,1.386-.722.614-.852,2.451.1,2.953.4.211.988.276,1.087.718.088.395-.313.7-.579,1.007a1.9,1.9,0,0,0,.58,2.824c.229.109.511.2.6.439a.9.9,0,0,1-.055.534,2.824,2.824,0,0,0-.092,1.023.468.468,0,0,0,.125.321.487.487,0,0,0,.3.085c1.378.061,2.043-.427,2.884.773a.987.987,0,0,0,.287.3.891.891,0,0,0,.38.095c.948.078,1.567-.513,2.432-.623,1.2-.153,1.456.466,2.514.964,1.665.783,2.472.3,2.784-.834" transform="translate(-93.948 -53.927)" fill="#ebebeb"/><path d="M348.193,227.639a3.826,3.826,0,0,0,.117-.775c.1-1.608,1.63-1.354,2.936-1.571,1.02-.171-1.681-2.748.376-3.579a1.808,1.808,0,0,0,.992-.692,1.168,1.168,0,0,0-.447-1.426,2.764,2.764,0,0,0-1.562-.391c-.335-.409-.062-1.022.262-1.438s.722-.89.6-1.4c-.185-.776-1.27-.8-2.052-.653a5.653,5.653,0,0,1-.424-1.587c-.14-.533-.564-1.092-1.11-1.025-.515.063-.83.644-1.335.763-.586.139-1.094-.38-1.554-.769s-1.265-.632-1.582-.119c-.19.307-.076.734-.273,1.036-.342.524-1.152.2-1.655-.172s-1.3-.708-1.659-.192a2.146,2.146,0,0,0-.195.538c-.238.687-.98,1.029-1.559,1.469s-1.036,1.316-.547,1.854c.241.265.666.373.786.71.15.422-.281.8-.623,1.092-.569.483-.671,1.93.08,2.325.315.166.778.217.855.565.07.311-.246.553-.456.794a1.492,1.492,0,0,0,.457,2.223c.181.087.4.158.469.346a.706.706,0,0,1-.043.42,2.207,2.207,0,0,0-.072.805.366.366,0,0,0,.1.253.38.38,0,0,0,.238.067c1.085.049,1.609-.335,2.271.609a.785.785,0,0,0,.226.24.7.7,0,0,0,.3.075c.746.062,1.233-.4,1.915-.491.946-.121,1.146.368,1.979.759,1.311.616,1.946.236,2.192-.656" transform="translate(-95.056 -59.949)" fill="#ebebeb"/><path d="M338.786,220.617a4.8,4.8,0,0,0,.149-.985c.121-2.042,2.071-1.718,3.729-1.995,1.3-.217-2.135-3.489.478-4.546a2.3,2.3,0,0,0,1.26-.878,1.483,1.483,0,0,0-.569-1.811,3.506,3.506,0,0,0-1.983-.5c-.426-.518-.08-1.3.332-1.826s.918-1.131.761-1.783c-.236-.985-1.612-1.02-2.607-.829a7.142,7.142,0,0,1-.539-2.015c-.178-.676-.716-1.387-1.41-1.3-.654.08-1.053.818-1.695.969-.745.175-1.39-.483-1.974-.977s-1.606-.8-2.009-.152c-.241.39-.1.933-.348,1.316-.434.665-1.463.252-2.1-.219s-1.657-.9-2.106-.244a2.73,2.73,0,0,0-.248.683c-.3.873-1.245,1.307-1.979,1.866s-1.316,1.672-.7,2.354c.307.337.846.473,1,.9.19.536-.358,1.017-.791,1.386-.722.614-.852,2.451.1,2.953.4.211.988.276,1.087.718.088.395-.313.7-.58,1.008a1.9,1.9,0,0,0,.58,2.824c.229.109.511.2.6.439a.9.9,0,0,1-.055.534,2.824,2.824,0,0,0-.092,1.023.468.468,0,0,0,.125.321.488.488,0,0,0,.3.085c1.378.061,2.043-.427,2.884.773a.988.988,0,0,0,.287.3.882.882,0,0,0,.38.095c.948.078,1.567-.513,2.432-.623,1.2-.153,1.456.466,2.514.964,1.665.783,2.472.3,2.784-.834" transform="translate(-91.57 -56.831)" fill="#ebebeb"/><path d="M361.937,196.239a4.8,4.8,0,0,0,.149-.985c.121-2.042,2.071-1.718,3.729-2,1.3-.216-2.135-3.489.478-4.545a2.3,2.3,0,0,0,1.26-.878,1.483,1.483,0,0,0-.569-1.811,3.508,3.508,0,0,0-1.983-.5c-.426-.518-.08-1.3.332-1.827s.918-1.13.761-1.782c-.236-.985-1.612-1.02-2.607-.829a7.14,7.14,0,0,1-.539-2.016c-.178-.676-.716-1.386-1.41-1.3-.654.08-1.053.818-1.7.969-.745.175-1.39-.483-1.973-.977s-1.606-.8-2.009-.152c-.241.389-.1.933-.348,1.316-.434.665-1.463.252-2.1-.219s-1.657-.9-2.106-.244a2.729,2.729,0,0,0-.248.683c-.3.872-1.245,1.307-1.979,1.866s-1.316,1.672-.7,2.354c.307.337.846.473,1,.9.19.536-.358,1.017-.791,1.386-.722.614-.852,2.451.1,2.953.4.211.988.276,1.087.718.088.395-.313.7-.58,1.008a1.9,1.9,0,0,0,.58,2.824c.229.109.511.2.6.439a.9.9,0,0,1-.055.534,2.824,2.824,0,0,0-.092,1.023.468.468,0,0,0,.125.321.483.483,0,0,0,.3.085c1.378.062,2.043-.426,2.884.773a.98.98,0,0,0,.287.3.892.892,0,0,0,.38.095c.948.078,1.567-.513,2.432-.623,1.2-.153,1.456.466,2.514.964,1.665.783,2.472.3,2.784-.834" transform="translate(-98.096 -49.96)" fill="#ebebeb"/><path d="M380.84,197.206a4.8,4.8,0,0,0,.149-.985c.121-2.042,2.071-1.718,3.729-1.995,1.3-.217-2.135-3.489.478-4.546a2.3,2.3,0,0,0,1.26-.878,1.483,1.483,0,0,0-.569-1.811,3.506,3.506,0,0,0-1.983-.5c-.426-.518-.08-1.3.332-1.826s.918-1.131.761-1.784c-.236-.985-1.612-1.02-2.607-.829a7.144,7.144,0,0,1-.539-2.015c-.178-.676-.716-1.387-1.41-1.3-.654.08-1.053.818-1.7.969-.745.175-1.39-.483-1.973-.977s-1.606-.8-2.009-.152c-.241.389-.1.933-.348,1.316-.434.665-1.463.252-2.1-.219s-1.657-.9-2.106-.244a2.731,2.731,0,0,0-.248.683c-.3.873-1.245,1.307-1.979,1.866s-1.316,1.672-.7,2.354c.307.337.846.473,1,.9.19.536-.358,1.017-.791,1.386-.722.614-.852,2.451.1,2.953.4.211.988.276,1.087.718.088.395-.313.7-.58,1.008a1.9,1.9,0,0,0,.58,2.824c.229.109.511.2.6.439a.9.9,0,0,1-.055.534,2.824,2.824,0,0,0-.092,1.023.468.468,0,0,0,.125.321.488.488,0,0,0,.3.085c1.378.061,2.043-.427,2.884.773a.988.988,0,0,0,.287.3.892.892,0,0,0,.38.095c.948.078,1.567-.513,2.432-.623,1.2-.153,1.456.466,2.514.964,1.665.783,2.472.3,2.784-.834" transform="translate(-103.424 -50.232)" fill="#ebebeb"/><path d="M392.322,204.941a4.852,4.852,0,0,0,.148-.985c.121-2.042,2.071-1.718,3.73-1.995,1.295-.217-2.136-3.489.477-4.546a2.3,2.3,0,0,0,1.26-.878,1.483,1.483,0,0,0-.569-1.811,3.5,3.5,0,0,0-1.983-.5c-.426-.518-.079-1.3.333-1.826s.918-1.131.761-1.783c-.236-.985-1.612-1.02-2.606-.829a7.092,7.092,0,0,1-.539-2.015c-.18-.676-.717-1.387-1.411-1.3-.654.08-1.054.819-1.7.969-.744.175-1.39-.483-1.974-.977s-1.6-.8-2.008-.152c-.241.389-.1.933-.348,1.316-.434.665-1.463.252-2.1-.219s-1.657-.9-2.106-.244a2.759,2.759,0,0,0-.248.683c-.3.873-1.245,1.307-1.978,1.866s-1.317,1.672-.7,2.354c.307.337.846.473,1,.9.19.536-.358,1.017-.791,1.386-.721.614-.852,2.451.1,2.953.4.211.987.276,1.087.718.087.395-.313.7-.58,1.008a1.9,1.9,0,0,0,.58,2.824c.229.109.511.2.6.439a.894.894,0,0,1-.054.534,2.841,2.841,0,0,0-.093,1.023.474.474,0,0,0,.124.321.485.485,0,0,0,.3.085c1.378.062,2.042-.426,2.885.773a.977.977,0,0,0,.287.3.882.882,0,0,0,.38.095c.947.078,1.567-.513,2.432-.623,1.2-.153,1.456.466,2.514.964,1.665.783,2.472.3,2.785-.834" transform="translate(-106.66 -52.413)" fill="#ebebeb"/><path d="M379.183,217.445s-3.448,4.875-4.637,6.421-7.135,11.177-7.944,17.547c-.086.68-.172,1.265-.254,1.777,2.557,16.88,2.156,47.76,2.066,53.048h-8.1c-.075-5.962-.763-60.459-1.017-62.123-.269-1.76-3.655-8.465-8.887-11.22s-9.753-11.871-9.753-11.871h1.667s3.092,5.588,7.491,8.68a16.805,16.805,0,0,0,1.979,1.173,28.079,28.079,0,0,1,1.749-9.853l.9.832c-1.216,4.977-1.056,8.165-.688,10A18.106,18.106,0,0,1,358.3,224.9c4.564-5.935,7.13-19.506,7.13-19.506l1.168.638a69.145,69.145,0,0,1-1.509,8.323,138.205,138.205,0,0,1-4.542,13.129A31.117,31.117,0,0,1,364,233.953a2.642,2.642,0,0,1,.441-.528C367.412,230.738,373,218.04,373,218.04c1.352-2.952-.713-10.7-.713-10.7h1.56l.7,6.778,3.924-4.281.713.595-4.162,5.351-2.14,6.779,5.588-6.185Z" transform="translate(-96.022 -57.895)" fill="#e7e7e7"/><rect width="244.541" height="8.29" transform="translate(56.422 200.379)" fill="#e0e0e0"/><path d="M83.235,304.819H71.719V253.672l5.758-4.094,5.758,4.094Z" transform="translate(-20.216 -70.35)" fill="#e7e7e7"/><path d="M111.612,304.819H100.1V253.672l5.758-4.094,5.758,4.094Z" transform="translate(-28.215 -70.35)" fill="#e7e7e7"/><path d="M139.989,304.819H128.474V253.672l5.758-4.094,5.758,4.094Z" transform="translate(-36.213 -70.35)" fill="#e7e7e7"/><path d="M168.367,304.819H156.851V253.672l5.758-4.094,5.758,4.094Z" transform="translate(-44.212 -70.35)" fill="#e7e7e7"/><path d="M196.744,304.819H185.227V253.672l5.759-4.094,5.758,4.094Z" transform="translate(-52.211 -70.35)" fill="#e7e7e7"/><path d="M225.121,304.819H213.605V253.672l5.758-4.094,5.758,4.094Z" transform="translate(-60.21 -70.35)" fill="#e7e7e7"/><path d="M253.5,304.819H241.982V253.672l5.758-4.094,5.758,4.094Z" transform="translate(-68.208 -70.35)" fill="#e7e7e7"/><path d="M281.875,304.819H270.359V253.672l5.758-4.094,5.758,4.094Z" transform="translate(-76.207 -70.35)" fill="#e7e7e7"/><path d="M310.252,304.819H298.736V253.672l5.759-4.094,5.758,4.094Z" transform="translate(-84.206 -70.35)" fill="#e7e7e7"/><path d="M338.63,304.819H327.114V253.672l5.758-4.094,5.758,4.094Z" transform="translate(-92.205 -70.35)" fill="#e7e7e7"/><path d="M367.007,304.819H355.491V253.672l5.758-4.094,5.758,4.094Z" transform="translate(-100.204 -70.35)" fill="#e7e7e7"/><path d="M395.384,304.819H383.868V253.672l5.758-4.094,5.758,4.094Z" transform="translate(-108.202 -70.35)" fill="#e7e7e7"/><path d="M423.761,304.819H412.245V253.672L418,249.578l5.758,4.094Z" transform="translate(-116.201 -70.35)" fill="#e7e7e7"/><path d="M334.584,358.094c0,4.491-62.338,8.131-139.237,8.131s-139.237-3.64-139.237-8.131,62.338-8.131,139.237-8.131,139.237,3.641,139.237,8.131" transform="translate(-15.816 -98.645)" fill="#f5f5f5"/><path d="M421.68,324.079s6.493-5.713,4.548-6.679-4.31,4.317-4.548,3.522,1.269-8.052-2.334-7.548,0,7.548,0,7.548-2.67-2.89-3.6-2.437,2.84,5.593,2.84,5.593Z" transform="translate(-117.145 -88.325)" fill="#ff5a2d"/><g transform="translate(298.449 225.024)" opacity="0.5"><g clip-path="url(#c)"><path d="M421.68,324.079s6.493-5.713,4.548-6.679-4.31,4.317-4.548,3.522,1.269-8.052-2.334-7.548,0,7.548,0,7.548-2.67-2.89-3.6-2.437,2.84,5.593,2.84,5.593Z" transform="translate(-415.594 -313.349)" fill="#fff"/></g></g><path d="M217.377,324.079s-6.493-5.713-4.548-6.679,4.31,4.317,4.548,3.522-1.269-8.052,2.334-7.548,0,7.548,0,7.548,2.67-2.89,3.6-2.437-2.84,5.593-2.84,5.593Z" transform="translate(-59.889 -88.325)" fill="#ff5a2d"/><path d="M297.772,321.267s1.752-5.87-1.792-7.039-5.647-3.914-5.528-7.019-3.612-6.126-6.411-3.216-2.425-2.238-6.156-3.488-6.894,1.784-5.872,4.557-2.66,4.506-7.069,2.147-9.259,1.932-8.326,5.29.169,3.731-2.62,2.612-7.779,2.052-6.031,6.156,49.8,0,49.8,0" transform="translate(-69.793 -84.623)" fill="#ff5a2d"/><path d="M164.975,322.772c3.147-2.134.315-5.762-2.832-6.19s-6.31-4.182-6.46-6.573-5.814-9.744-14.625-5.2-6.134.669-12.508-.607-10.395,2.395-7.6,5.148c0,0-6.4-1.088-9.041,2.967s0,6.574,0,6.574-12.043-.241-10.959,4.809,64.024-.925,64.024-.925" transform="translate(-28.436 -85.508)" fill="#ff5a2d"/><path d="M361.907,319.77s-5.71-11.143-4.274-12.235,4.271,9.309,4.274,8.5-.159-14.977,2.478-14.416,0,13.607,0,13.607,3.55-6.666,4.941-6.162-4.1,8.431-4.1,8.431,3.279-1.983,4.1-1.831-4.1,4.1-4.1,4.1Z" transform="translate(-100.742 -85.014)" fill="#ff5a2d"/><path d="M72.468,321.66s5.71-11.143,4.274-12.235-4.272,9.309-4.274,8.5.159-14.977-2.478-14.416,0,13.607,0,13.607-3.55-6.666-4.941-6.162,4.1,8.431,4.1,8.431-3.279-1.983-4.1-1.831,4.1,4.1,4.1,4.1Z" transform="translate(-18.272 -85.547)" fill="#ff5a2d"/><g transform="translate(152.577 225.024)" opacity="0.5"><g clip-path="url(#c)"><path d="M217.377,324.079s-6.493-5.713-4.548-6.679,4.31,4.317,4.548,3.522-1.269-8.052,2.334-7.548,0,7.548,0,7.548,2.67-2.89,3.6-2.437-2.84,5.593-2.84,5.593Z" transform="translate(-212.466 -313.349)" fill="#fff"/></g></g><g transform="translate(177.812 215.592)" opacity="0.5"><g clip-path="url(#e)"><path d="M297.772,321.267s1.752-5.87-1.792-7.039-5.647-3.914-5.528-7.019-3.612-6.126-6.411-3.216-2.425-2.238-6.156-3.488-6.894,1.784-5.872,4.557-2.66,4.506-7.069,2.147-9.259,1.932-8.326,5.29.169,3.731-2.62,2.612-7.779,2.052-6.031,6.156,49.8,0,49.8,0" transform="translate(-247.605 -300.215)" fill="#fff"/></g></g><g transform="translate(72.446 217.847)" opacity="0.5"><g clip-path="url(#f)"><path d="M164.975,322.772c3.147-2.134.315-5.762-2.832-6.19s-6.31-4.182-6.46-6.573-5.814-9.744-14.625-5.2-6.134.669-12.508-.607-10.395,2.395-7.6,5.148c0,0-6.4-1.088-9.041,2.967s0,6.574,0,6.574-12.043-.241-10.959,4.809,64.024-.925,64.024-.925" transform="translate(-100.882 -303.355)" fill="#fff"/></g></g><g transform="translate(256.66 216.589)" opacity="0.5"><g clip-path="url(#g)"><path d="M361.907,319.77s-5.71-11.143-4.274-12.235,4.271,9.309,4.274,8.5-.159-14.977,2.478-14.416,0,13.607,0,13.607,3.55-6.666,4.941-6.162-4.1,8.431-4.1,8.431,3.279-1.983,4.1-1.831-4.1,4.1-4.1,4.1Z" transform="translate(-357.402 -301.603)" fill="#fff"/></g></g><g transform="translate(46.552 217.947)" opacity="0.5"><g clip-path="url(#g)"><path d="M72.468,321.66s5.71-11.143,4.274-12.235-4.272,9.309-4.274,8.5.159-14.977-2.478-14.416,0,13.607,0,13.607-3.55-6.666-4.941-6.162,4.1,8.431,4.1,8.431-3.279-1.983-4.1-1.831,4.1,4.1,4.1,4.1Z" transform="translate(-64.824 -303.494)" fill="#fff"/></g></g><path d="M328.055,325.661H61.784a1.359,1.359,0,0,0-1.359,1.359v12.292H329.413V327.02a1.359,1.359,0,0,0-1.359-1.359" transform="translate(-17.032 -91.795)" fill="#263238"/><g transform="translate(43.393 233.866)" opacity="0.8"><g clip-path="url(#i)"><path d="M328.055,325.661H61.784a1.359,1.359,0,0,0-1.359,1.359v12.292H329.413V327.02a1.359,1.359,0,0,0-1.359-1.359" transform="translate(-60.425 -325.661)" fill="#fff"/></g></g><g transform="translate(293.441 236.598)" opacity="0.2"><g clip-path="url(#j)"><rect width="17.613" height="9.249" transform="translate(0.001 0)" fill="#fff"/></g></g><g transform="translate(274.884 235.719)" opacity="0.2"><g clip-path="url(#k)"><rect width="17.613" height="9.248" transform="translate(0 0)" fill="#fff"/></g></g><g transform="translate(262.665 239.086)" opacity="0.2"><g clip-path="url(#l)"><rect width="11.466" height="5.881" transform="translate(0.001 0)" fill="#fff"/></g></g><g transform="translate(47.726 239.846)" opacity="0.2"><g clip-path="url(#l)"><rect width="11.466" height="5.881" transform="translate(0 0.001)" fill="#fff"/></g></g><g transform="translate(249.691 236.145)" opacity="0.2"><g clip-path="url(#n)"><rect width="12.054" height="8.052" transform="translate(0.001 0)" fill="#fff"/></g></g><g transform="translate(240.6 235.06)" opacity="0.2"><g clip-path="url(#o)"><rect width="8.203" height="8.052" transform="translate(0 0)" fill="#fff"/></g></g><g transform="translate(60.521 236.598)" opacity="0.2"><g clip-path="url(#o)"><rect width="8.203" height="8.052" transform="translate(0 0)" fill="#fff"/></g></g><g transform="translate(206.04 236.598)" opacity="0.2"><g clip-path="url(#o)"><rect width="8.203" height="8.052" transform="translate(0 0)" fill="#fff"/></g></g><g transform="translate(214.653 235.06)" opacity="0.2"><g clip-path="url(#r)"><rect width="8.203" height="5.564" transform="translate(0 0)" fill="#fff"/></g></g><g transform="translate(226.256 237.196)" opacity="0.2"><g clip-path="url(#s)"><rect width="13.505" height="8.052" transform="translate(0 0)" fill="#fff"/></g></g><g transform="translate(191.601 236.145)" opacity="0.2"><g clip-path="url(#s)"><rect width="13.505" height="8.052" transform="translate(0 0)" fill="#fff"/></g></g><g transform="translate(264.638 235.719)" opacity="0.2"><g clip-path="url(#u)"><rect width="8.694" height="2.59" transform="translate(0 0)" fill="#fff"/></g></g><g transform="translate(47.726 235.901)" opacity="0.2"><g clip-path="url(#u)"><rect width="8.694" height="2.59" transform="translate(0 0)" fill="#fff"/></g></g><g transform="translate(215.975 241.817)" opacity="0.2"><g clip-path="url(#u)"><rect width="8.694" height="2.59" transform="translate(0)" fill="#fff"/></g></g><g transform="translate(172.797 236.598)" opacity="0.2"><g clip-path="url(#k)"><rect width="17.613" height="9.249" transform="translate(0 0)" fill="#fff"/></g></g><g transform="translate(154.238 235.719)" opacity="0.2"><g clip-path="url(#k)"><rect width="17.613" height="9.248" transform="translate(0 0)" fill="#fff"/></g></g><g transform="translate(142.019 239.086)" opacity="0.2"><g clip-path="url(#l)"><rect width="11.466" height="5.881" transform="translate(0.001 0)" fill="#fff"/></g></g><g transform="translate(129.047 236.145)" opacity="0.2"><g clip-path="url(#n)"><rect width="12.054" height="8.052" transform="translate(0 0)" fill="#fff"/></g></g><g transform="translate(119.955 235.06)" opacity="0.2"><g clip-path="url(#o)"><rect width="8.203" height="8.052" transform="translate(0 0)" fill="#fff"/></g></g><g transform="translate(85.395 236.598)" opacity="0.2"><g clip-path="url(#o)"><rect width="8.203" height="8.052" transform="translate(0 0)" fill="#fff"/></g></g><g transform="translate(94.008 235.06)" opacity="0.2"><g clip-path="url(#r)"><rect width="8.203" height="5.564" transform="translate(0 0)" fill="#fff"/></g></g><g transform="translate(105.611 237.196)" opacity="0.2"><g clip-path="url(#s)"><rect width="13.505" height="8.052" transform="translate(0 0)" fill="#fff"/></g></g><g transform="translate(70.956 236.145)" opacity="0.2"><g clip-path="url(#s)"><rect width="13.505" height="8.052" transform="translate(0 0)" fill="#fff"/></g></g><g transform="translate(143.993 235.719)" opacity="0.2"><g clip-path="url(#u)"><rect width="8.694" height="2.59" transform="translate(0 0)" fill="#fff"/></g></g><g transform="translate(95.33 241.817)" opacity="0.2"><g clip-path="url(#u)"><rect width="8.694" height="2.59" fill="#fff"/></g></g><path d="M387.884,313.572s-5.568-6.627-9.131-3.536-1.761,9.647,2.348,9.858a10.319,10.319,0,0,0,6.783-2.072Z" transform="translate(-106.223 -87.159)" fill="#ff5a2d"/><g transform="translate(270.623 222.055)" opacity="0.2" style="isolation:isolate"><g clip-path="url(#ai)"><path d="M387.884,313.572s-5.568-6.627-9.131-3.536-1.761,9.647,2.348,9.858a10.319,10.319,0,0,0,6.783-2.072Z" transform="translate(-376.846 -309.214)" fill="#fff"/></g></g><path d="M423.849,290.245s4.676-4.9,7.571-4.068,2.594,12.535-6.386,7.8Z" transform="translate(-119.472 -80.639)" fill="#ff5a2d"/><g transform="translate(304.377 205.443)" opacity="0.3" style="isolation:isolate"><g clip-path="url(#aj)"><path d="M423.849,290.245s4.676-4.9,7.571-4.068,2.594,12.535-6.386,7.8Z" transform="translate(-423.849 -286.082)" fill="#fff"/></g></g><path d="M397.537,332.628s-15.366-21.022-2.9-25.282,14.7,16.914,11.136,22.808-8.241,2.473-8.241,2.473" transform="translate(-109.864 -86.475)" fill="#ff5a2d"/><path d="M404.357,273.882s9.532-22.133-4.587-22.8-15.658,21.946.589,25.226Z" transform="translate(-109.557 -70.769)" fill="#ff5a2d"/><g transform="translate(279.897 220.31)" opacity="0.3" style="isolation:isolate"><g clip-path="url(#ak)"><path d="M397.537,332.628s-15.366-21.022-2.9-25.282,14.7,16.914,11.136,22.808-8.241,2.473-8.241,2.473" transform="translate(-389.761 -306.785)" fill="#fff"/></g></g><g transform="translate(279.117 180.297)" opacity="0.3" style="isolation:isolate"><g clip-path="url(#al)"><path d="M404.357,273.882s9.532-22.133-4.587-22.8-15.658,21.946.589,25.226Z" transform="translate(-388.674 -251.066)" fill="#fff"/></g></g><path d="M405.33,299.751s-4.635-19.542,4.273-21.1,17.7,16.1-.725,24.974c0,0-3.161-1.96-3.548-3.873" transform="translate(-113.912 -78.517)" fill="#ff5a2d"/><g transform="translate(290.213 200.036)" opacity="0.2" style="isolation:isolate"><g clip-path="url(#am)"><path d="M405.33,299.751s-4.635-19.542,4.273-21.1,17.7,16.1-.725,24.974c0,0-3.161-1.96-3.548-3.873" transform="translate(-404.125 -278.553)" fill="#fff"/></g></g><path d="M385.186,338.62h25.8l-2.154,16.508H387.34Z" transform="translate(-108.574 -95.448)" fill="#263238"/><path d="M401.117,273.68c-5.318-3.885-9-11.392-5.865-17.718-.125.589-.284,1.229-.426,1.813-1.048,6,2.234,11.718,6.291,15.906" transform="translate(-111.086 -72.149)" fill="#ff5a2d"/><path d="M399.162,254.186c6.125,1.24,8.829,7.741,8.123,13.469-.14.8-.256,1.609-.417,2.4a39.639,39.639,0,0,0-.055-4.81c-.383-4.72-2.98-9.327-7.652-11.059" transform="translate(-112.513 -71.648)" fill="#ff5a2d"/><path d="M413.092,280.635c3.438,1.218,5.591,4.994,5.6,8.572.024,3.115-1.725,5.945-3.648,8.268a27.341,27.341,0,0,1-4.774,4.506,40.834,40.834,0,0,0,4.341-4.849,15.7,15.7,0,0,0,3.362-7.141,9.673,9.673,0,0,0-4.883-9.355" transform="translate(-115.645 -79.104)" fill="#ff5a2d"/><path d="M409.879,282.837c.918,2.859,1.735,6.281.238,9.1-1.246,1.824-1.375,4.21-1.4,6.388-.019.755.014,1.512.05,2.274a17.216,17.216,0,0,1-.5-4.557,8.239,8.239,0,0,1,1.24-4.486c1.376-2.628.72-5.882.37-8.716" transform="translate(-115.079 -79.724)" fill="#ff5a2d"/><path d="M401.784,310.358c3.566,1.849,5.044,14.238,4.9,18.143-.113-.793-.234-1.579-.383-2.363-.684-3.907-1.392-7.825-2.424-11.652-.487-1.434-.8-3.2-2.089-4.129" transform="translate(-113.252 -87.482)" fill="#ff5a2d"/><path d="M395.16,311.3a17.283,17.283,0,0,0,3.508,16.454,19.061,19.061,0,0,1-1.617-1.561A13.654,13.654,0,0,1,395.16,311.3" transform="translate(-110.994 -87.748)" fill="#ff5a2d"/><path d="M428.9,294.4a8.542,8.542,0,0,0,4.223-2.041c-.3,1.83-2.619,2.691-4.223,2.041" transform="translate(-120.895 -82.409)" fill="#ff5a2d"/><path d="M427.57,290.025c.769-1.566,3.392-2.541,4.51-.835-1.571-.685-3.1.172-4.51.835" transform="translate(-120.521 -81.262)" fill="#ff5a2d"/><path d="M386.329,315.414c-1.793-1.266-3.65-3.418-5.975-2.294,1.889-2.236,5.067.266,5.975,2.294" transform="translate(-107.212 -88.013)" fill="#ff5a2d"/><path d="M385.8,320.275c-2.343.86-7.033.928-7.323-2.356,1.344,2.678,4.771,2.089,7.323,2.356" transform="translate(-106.683 -89.613)" fill="#ff5a2d"/><path d="M90.2,330.489s-1-7.307-5.67-8.106-3.263-4.332-4.48-5.7-4.4,2.667-1.673,6.576.5,2.68,1.673,6.315,10.577,6.972,10.15.916" transform="translate(-21.789 -89.188)" fill="#263238"/><g transform="translate(55.511 227.224)" opacity="0.2" style="isolation:isolate"><g clip-path="url(#an)"><path d="M90.2,330.489s-1-7.307-5.67-8.106-3.263-4.332-4.48-5.7-4.4,2.667-1.673,6.576.5,2.68,1.673,6.315,10.577,6.972,10.15.916" transform="translate(-77.3 -316.412)" fill="#fff"/></g></g><path d="M91.135,310.554a.324.324,0,0,1-.292-.184c-.036-.075-3.6-7.674-1.729-19.781a50.785,50.785,0,0,1,2.867-10.121c2.26-6.162,4.046-11.03-.037-19.922-1.293-2.815-2.613-5.437-3.89-7.973-4.793-9.52-8.58-17.04-5.763-24.655a.324.324,0,1,1,.608.224c-2.719,7.351,1.011,14.76,5.734,24.14,1.28,2.541,2.6,5.169,3.9,7.994,4.195,9.135,2.277,14.362.057,20.416a49.534,49.534,0,0,0-2.834,10c-1.841,11.893,1.637,19.327,1.673,19.4a.325.325,0,0,1-.292.464" transform="translate(-22.924 -64.185)" fill="#263238"/><path d="M90.83,335.473s-3.02-4.552,1.339-6.891,5.233-.456,7.93-2.139,4.74-5.76,5.2-3.152-2.655,4.1-1.553,5.29-7.331,8.942-12.915,6.891" transform="translate(-25.315 -90.888)" fill="#263238"/><path d="M81.056,229.867s-2.943-8.944,3.749-9.131-.684,8.177-3.749,9.131" transform="translate(-22.666 -62.219)" fill="#263238"/><path d="M89.4,240.415S91.4,232.283,96.148,234s-2.01,6.567-6.745,6.417" transform="translate(-25.2 -65.891)" fill="#263238"/><path d="M75.415,241.409s.716-6.49-4.325-6.618-2.8,5.57,4.325,6.618" transform="translate(-19.27 -66.181)" fill="#263238"/><path d="M79.056,261.185s-6.765-6.03-9.2-1.542,5.1,5.423,9.2,1.542" transform="translate(-19.558 -72.718)" fill="#263238"/><path d="M99.517,258.014s1.272-10.016,6.736-6.874-1.976,7.875-6.736,6.874" transform="translate(-28.051 -70.618)" fill="#263238"/><path d="M105.787,277.36s-4.033-10.12,3.461-8.979,1.829,6.523-3.461,8.979" transform="translate(-29.513 -75.624)" fill="#263238"/><path d="M85.024,283.768s-6.331-7.458-11.168-5.093-.884,9.779,11.168,5.093" transform="translate(-20.251 -78.421)" fill="#263238"/><path d="M98.2,305.514s5.393-11.975,10.189-7.94-3.059,10.07-10.189,7.94" transform="translate(-27.679 -83.644)" fill="#263238"/><path d="M84.494,304.612s1.425-9.29-3.915-8.543-3.937,6.43,3.915,8.543" transform="translate(-21.814 -83.442)" fill="#263238"/><g transform="translate(49.095 158.514)" opacity="0.2" style="isolation:isolate"><g clip-path="url(#ao)"><path d="M81.056,229.867s-2.943-8.944,3.749-9.131-.684,8.177-3.749,9.131" transform="translate(-71.761 -220.733)" fill="#fff"/><path d="M89.4,240.415S91.4,232.283,96.148,234s-2.01,6.567-6.745,6.417" transform="translate(-74.295 -224.405)" fill="#fff"/><path d="M75.415,241.409s.716-6.49-4.325-6.618-2.8,5.57,4.325,6.618" transform="translate(-68.366 -224.695)" fill="#fff"/><path d="M79.056,261.185s-6.765-6.03-9.2-1.542,5.1,5.423,9.2,1.542" transform="translate(-68.653 -231.232)" fill="#fff"/><path d="M99.517,258.014s1.272-10.016,6.736-6.874-1.976,7.875-6.736,6.874" transform="translate(-77.146 -229.132)" fill="#fff"/><path d="M105.787,277.36s-4.033-10.12,3.461-8.979,1.829,6.523-3.461,8.979" transform="translate(-78.608 -234.138)" fill="#fff"/><path d="M85.024,283.768s-6.331-7.458-11.168-5.093-.884,9.779,11.168,5.093" transform="translate(-69.346 -236.935)" fill="#fff"/><path d="M98.2,305.514s5.393-11.975,10.189-7.94-3.059,10.07-10.189,7.94" transform="translate(-76.774 -242.158)" fill="#fff"/><path d="M84.494,304.612s1.425-9.29-3.915-8.543-3.937,6.43,3.915,8.543" transform="translate(-70.909 -241.956)" fill="#fff"/></g></g><path d="M82.537,247.725a.323.323,0,0,1-.158-.042,23.526,23.526,0,0,1-6.929-6.585.324.324,0,1,1,.538-.361,23.7,23.7,0,0,0,6.421,6.216c.6-1.12,2.782-4.986,4.6-6.075a.324.324,0,1,1,.332.555c-1.93,1.159-4.49,6.068-4.516,6.118a.322.322,0,0,1-.195.161.311.311,0,0,1-.093.014" transform="translate(-21.252 -67.817)" fill="#263238"/><path d="M88.607,264.46a.321.321,0,0,1-.2-.065c-5.632-4.256-12.834-4.077-12.91-4.079a.34.34,0,0,1-.334-.314.324.324,0,0,1,.313-.335c.074,0,7.26-.184,13.034,4,.753-1.2,3.65-5.56,7.366-7.748a.324.324,0,1,1,.329.558c-4.1,2.413-7.292,7.771-7.323,7.825a.322.322,0,0,1-.217.153.3.3,0,0,1-.062.006" transform="translate(-21.188 -72.124)" fill="#263238"/><path d="M93.534,285.933a.328.328,0,0,1-.162-.044c-.083-.047-8.315-4.781-14.267-4.9a.324.324,0,0,1-.317-.33.3.3,0,0,1,.33-.317c5.672.111,13.06,4.128,14.383,4.873,3.82-3.222,6.855-11.132,6.885-11.212a.324.324,0,0,1,.606.23c-.129.341-3.22,8.391-7.255,11.626a.318.318,0,0,1-.2.072" transform="translate(-22.208 -77.176)" fill="#263238"/><path d="M89.74,310.252a.328.328,0,0,1-.161-.043c-3.113-1.78-7.132-9.576-7.3-9.907a.324.324,0,0,1,.577-.3c.039.078,3.885,7.537,6.808,9.491a18.527,18.527,0,0,1,9.048-5.781.325.325,0,0,1,.186.622A17.718,17.718,0,0,0,90,310.116a.326.326,0,0,1-.265.136" transform="translate(-23.182 -84.514)" fill="#263238"/><path d="M87.562,336.218s-2.59-4.122-5.515-4.709-4.185-3.956-5.264-1.93,1.9,8.744,10.779,6.638" transform="translate(-21.584 -92.719)" fill="#263238"/><path d="M72.418,354.76H100.7l1.892-17.443H70.525Z" transform="translate(-19.879 -95.081)" fill="#ff5a2d"/><path d="M69.438,340.468h33.384l.427-3.7H69.011Z" transform="translate(-19.452 -94.927)" fill="#ff5a2d"/><g transform="translate(49.559 241.845)" opacity="0.3"><g clip-path="url(#ap)"><path d="M69.438,340.468h33.384l.427-3.7H69.011Z" transform="translate(-69.011 -336.772)" fill="#fff"/></g></g><path d="M213.746,108.575v58.849h9.943V110Z" transform="translate(-60.249 -30.604)" fill="#007cff"/><g transform="translate(153.497 77.971)" opacity="0.7"><g clip-path="url(#aq)"><path d="M213.746,108.575v58.849h9.943V110Z" transform="translate(-213.746 -108.575)" fill="#fff"/></g></g><g transform="translate(153.851 102.877)" opacity="0.3"><g clip-path="url(#ar)"><path d="M214.24,146.953s.5-1.917.852-2.06.852,5.639,1.634,6.016,1.562-4.1,2.131-4.1.639,3.622,1.42,3.48,1.349-6.96,1.988-7.031,1.065,2.273,1.065,2.273v1.563s-.568-1.918-.994-2.131-.781,8.806-1.847,8.949-1.389-4.332-1.831-4.261-.868,4.972-1.933,5.114-1.42-6.889-1.847-6.889-.639,1.563-.639,1.563Z" transform="translate(-214.24 -143.258)" fill="#fff"/></g></g><g transform="translate(153.851 117.175)" opacity="0.3"><g clip-path="url(#as)"><path d="M214.24,164.589s.781,3.693,1.207,4.048.923-2.983,1.634-2.628.742,4.972,1.578,5.185,1.547-5.753,2.186-5.824.924,2.2,1.278,2.2,1.207-4.4,1.207-4.4v3.409s-.568,3.764-1.136,3.693-1.136-1.775-1.42-1.775-.892,5.452-2.115,5.283-1.507-5.536-1.933-5.3-.71,2.506-1.137,2.434-1.349-2.434-1.349-2.434Z" transform="translate(-214.24 -163.168)" fill="#fff"/></g></g><g transform="translate(153.851 87.714)" opacity="0.3"><g clip-path="url(#at)"><path d="M214.24,123.563s.781,3.693,1.207,4.048.923-2.983,1.634-2.628.742,4.972,1.578,5.185,1.547-5.753,2.186-5.824.924,2.2,1.278,2.2,1.207-4.4,1.207-4.4v3.409s-.568,3.764-1.136,3.693-1.136-1.776-1.42-1.776-.892,5.453-2.115,5.283-1.507-5.536-1.933-5.3-.71,2.506-1.137,2.434-1.349-2.434-1.349-2.434Z" transform="translate(-214.24 -122.143)" fill="#fff"/></g></g><path d="M292.6,272.457H278.238V97.338a26.6,26.6,0,0,0-53.207,0V105.1H210.669V97.338a40.966,40.966,0,0,1,81.932,0Z" transform="translate(-59.382 -15.89)" fill="#263238"/><g transform="translate(151.287 40.483)" opacity="0.6"><g clip-path="url(#au)"><path d="M292.6,272.457H278.238V97.338a26.6,26.6,0,0,0-53.207,0V105.1H210.669V97.338a40.966,40.966,0,0,1,81.932,0Z" transform="translate(-210.669 -56.373)" fill="#fff"/></g></g><path d="M223.5,124.184H211.35a1.6,1.6,0,0,1-1.6-1.456l-.584-6.308h16.517l-.584,6.308a1.605,1.605,0,0,1-1.6,1.456" transform="translate(-58.959 -32.816)" fill="#263238"/><path d="M323.7,333.665H294.258V277.072a3.553,3.553,0,0,1,3.553-3.553h22.339a3.553,3.553,0,0,1,3.553,3.553Z" transform="translate(-82.944 -77.098)" fill="#263238"/><g transform="translate(211.314 196.421)" opacity="0.5"><g clip-path="url(#av)"><path d="M323.7,333.665H294.258V277.072a3.553,3.553,0,0,1,3.553-3.553h22.339a3.553,3.553,0,0,1,3.553,3.553Z" transform="translate(-294.258 -273.519)" fill="#fff"/></g></g><path d="M329.353,302.322h-7.186c-6.316,0-11.435,6.073-11.435,13.565s5.119,13.565,11.435,13.565h7.186c6.315,0,11.435-6.073,11.435-13.565s-5.12-13.565-11.435-13.565" transform="translate(-87.588 -85.217)" fill="#263238"/><g transform="translate(223.145 217.106)" opacity="0.6"><g clip-path="url(#aw)"><path d="M329.353,302.322h-7.186c-6.316,0-11.435,6.073-11.435,13.565s5.119,13.565,11.435,13.565h7.186c6.315,0,11.435-6.073,11.435-13.565s-5.12-13.565-11.435-13.565" transform="translate(-310.733 -302.322)" fill="#fff"/></g></g><g transform="translate(230.331 217.106)" opacity="0.2"><g clip-path="url(#ax)"><path d="M343.608,315.887c0,7.492-5.12,13.565-11.435,13.565s-11.435-6.073-11.435-13.565,5.12-13.565,11.435-13.565,11.435,6.073,11.435,13.565" transform="translate(-320.739 -302.322)" fill="#fff"/></g></g><g transform="translate(232.126 218.901)" opacity="0.2"><g clip-path="url(#ay)"><path d="M332.878,328.362c-5.315,0-9.639-5.28-9.639-11.77s4.325-11.77,9.639-11.77,9.639,5.28,9.639,11.77-4.324,11.77-9.639,11.77" transform="translate(-323.239 -304.822)"/></g></g><path d="M346.536,293.53V262.881H332.569V293.53c-4.5,1.341-7.809,5.874-7.809,11.274,0,6.455,4.727,11.688,10.559,11.688h8.468c5.832,0,10.559-5.233,10.559-11.688,0-5.4-3.314-9.932-7.81-11.274" transform="translate(-91.541 -74.099)" fill="#263238"/><g transform="translate(233.219 188.782)" opacity="0.6"><g clip-path="url(#az)"><path d="M346.536,293.53V262.881H332.569V293.53c-4.5,1.341-7.809,5.874-7.809,11.274,0,6.455,4.727,11.688,10.559,11.688h8.468c5.832,0,10.559-5.233,10.559-11.688,0-5.4-3.314-9.932-7.81-11.274" transform="translate(-324.76 -262.882)" fill="#fff"/></g></g><g transform="translate(241.686 188.782)" opacity="0.3"><g clip-path="url(#ba)"><path d="M349.86,293.53V262.881h-5.5V293.53c-4.5,1.341-7.809,5.874-7.809,11.274,0,6.455,4.727,11.688,10.559,11.688s10.559-5.233,10.559-11.688c0-5.4-3.314-9.932-7.81-11.274" transform="translate(-336.551 -262.882)" fill="#fff"/></g></g><g transform="translate(150.21 83.604)" opacity="0.5"><g clip-path="url(#bb)"><path d="M223.5,124.184H211.35a1.6,1.6,0,0,1-1.6-1.456l-.584-6.308h16.517l-.584,6.308a1.605,1.605,0,0,1-1.6,1.456" transform="translate(-209.169 -116.42)" fill="#fff"/></g></g><path d="M210.873,186.163c.684-.271,1.492,1.45,2.983,1.663s1.349-3.2,2.77-3.2.852,3,2.273,3.206,2.06-2.638,2.628-2.14-.852,1.744.355,2.151,1.367-1.015,2.21-.944-.109,3.977-1.843,3.338a8.571,8.571,0,0,1-7.754.355s-1.336.5-2.621-1.137-2-2.9-1-3.3" transform="translate(-59.307 -52.042)" fill="#007cff"/><g transform="translate(151.095 132.588)" opacity="0.6"><g clip-path="url(#bc)"><path d="M210.873,186.163c.684-.271,1.492,1.45,2.983,1.663s1.349-3.2,2.77-3.2.852,3,2.273,3.206,2.06-2.638,2.628-2.14-.852,1.744.355,2.151,1.367-1.015,2.21-.944-.109,3.977-1.843,3.338a8.571,8.571,0,0,1-7.754.355s-1.336.5-2.621-1.137-2-2.9-1-3.3" transform="translate(-210.402 -184.63)" fill="#fff"/></g></g><path d="M324.067,350.935H281.094a5.443,5.443,0,0,0-3.971,1.72l-5.573,5.944H333.61l-5.573-5.944a5.445,5.445,0,0,0-3.971-1.72" transform="translate(-76.543 -98.919)" fill="#263238"/><g transform="translate(195.006 252.015)" opacity="0.6"><g clip-path="url(#bd)"><path d="M324.067,350.935H281.094a5.443,5.443,0,0,0-3.971,1.72l-5.573,5.944H333.61l-5.573-5.944a5.445,5.445,0,0,0-3.971-1.72" transform="translate(-271.549 -350.935)" fill="#fff"/></g></g><path d="M139.275,140.127c-3.814,5.739-3.377,8.55-2.159,19.871s-2.821,16.076-.865,21.284,15.979,4.773,22.225-5.662-1.62-32.86-7.583-35.047a20.013,20.013,0,0,0-11.619-.445" transform="translate(-38.252 -39.313)" fill="#263238"/><path d="M173.363,175.722a61.615,61.615,0,0,0,11.6,3.568c3.616.159,7.124-1.163,10.744-2.111,2.683-.8,5.4-1.657,8.072-2.53a1.558,1.558,0,0,1,1.248,2.839c-2.541,1.431-5.11,2.715-7.776,3.89-4.123,1.675-8.387,3.7-12.988,3.515-4.788-.541-9.641-1.45-13.969-3.706a3.135,3.135,0,0,1,3.071-5.466" transform="translate(-47.549 -49.207)" fill="#fab373"/><path d="M179.318,176.245c-.158,1.3-1.838,3.368-3.576,5.192-1.989,2.075-4.057,3.842-4.057,3.842a35.288,35.288,0,0,1-2.571-2.786c-2.248-2.7-5.07-6.851-4.366-10.054,3.978-1.551,7.806.46,14.571,3.806" transform="translate(-46.407 -48.456)" fill="#ff5a2d"/><g transform="translate(122.688 128.593)" opacity="0.1"><g clip-path="url(#be)"><path d="M177.491,183.456c-1.989,2.075-4.057,3.842-4.057,3.842a35.283,35.283,0,0,1-2.571-2.786,6.939,6.939,0,0,1,2.334-5.443,9.527,9.527,0,0,1,4.294,4.388" transform="translate(-170.845 -179.068)"/></g></g><path d="M202.346,359.16c-3.833,0-4.339-.059-6.493-.131-1.844-.066-2.286.164-3.767.131-1.239-.027-1.192-1.211-.81-2.575.191-.684.485-2.132.749-3.239l5.615-.407c.79,1.508,2.573,3.659,4.733,3.949,2.061.276,1.5,2.272-.027,2.272" transform="translate(-53.849 -99.484)" fill="#ff5a2d"/><path d="M189.143,314.267c-.768.7-4.021,1.048-5.867.891,0,0-17.8-31.274-13.587-48.459q-2-5.451-3.461-10.262a143.609,143.609,0,0,1-3.641-14.442c-3.44-17.644-.826-25.551-.826-25.551l13.45-2.126s.847,3.232,1.5,7.382c2.485,15.871,2.564,29.91,3.289,41.106,1.041,16.179,6.276,41.364,9.142,51.461" transform="translate(-45.328 -60.411)" fill="#263238"/><g transform="translate(117.258 173.929)" opacity="0.3"><g clip-path="url(#bf)"><path d="M166.925,264.295a143.609,143.609,0,0,1-3.641-14.442,20.971,20.971,0,0,1,4.582-7.655s1.02,13.716-.941,22.1" transform="translate(-163.284 -242.198)"/></g></g><path d="M163.322,359.16c-3.833,0-4.339-.059-6.493-.131-1.844-.066-2.286.164-3.767.131-1.239-.027-1.192-1.211-.81-2.575.191-.684.485-2.132.749-3.239l5.615-.407c.79,1.508,2.573,3.659,4.733,3.949,2.061.276,1.5,2.272-.027,2.272" transform="translate(-42.849 -99.484)" fill="#ff5a2d"/><path d="M165.49,215.492s-4.1,31.712-6.447,46.973c-2.467,16.027-2.78,41.745-2.163,52.226-.9.521-4.151.159-5.92-.394,0,0-10.638-34.379-2.826-50.249-5.055-37.085,2.261-46.166,2.261-46.166Z" transform="translate(-40.948 -60.742)" fill="#263238"/><path d="M141.17,180.952c5.723,12.373,7.433,18.822,7.935,24.646l20.431-3.232c-.467-6.75-.819-10.786-1.307-14.872a62.608,62.608,0,0,0-1.35-8.33,9.513,9.513,0,0,0-5.673-6.9,5.6,5.6,0,0,0-2.032-.345c-1.02.022-2.083.057-3.109.129a66.837,66.837,0,0,0-9.278,1.465c-.876.187-1.723.388-2.521.6a3.743,3.743,0,0,0-.5.165,4.824,4.824,0,0,0-2.592,6.671" transform="translate(-39.653 -48.459)" fill="#ff5a2d"/><path d="M147.786,159.45c1.28,2.857,3.138,8.171,1.513,10.47,0,0,2.761-.872,9.353,1.891,1.344-2.769-.073-3.359-.073-3.359-3.515-.259-4-2.713-3.964-5.1Z" transform="translate(-41.657 -44.945)" fill="#fcb373"/><g transform="translate(108.907 116.099)" opacity="0.2"><g clip-path="url(#bg)"><path d="M151.661,161.669l4.041,2.309a9.355,9.355,0,0,0,.1,1.673c-1.315.019-3.387-1.084-3.832-2.378a4.5,4.5,0,0,1-.307-1.6" transform="translate(-151.655 -161.669)"/></g></g><path d="M142.754,148.276c1.669,4.677,2.276,6.687,5.392,8.564,4.689,2.824,10.082.083,9.848-4.918-.211-4.5-2.906-11.395-8.125-12.2a6.361,6.361,0,0,0-7.115,8.554" transform="translate(-40.123 -39.359)" fill="#fcb373"/><path d="M146.935,136.661c3.631,0,8.946,3.343,4.329,4.334.046,1.486-2.669,1.609-4.675.908.326,1.077-1.416,3.308-3.92,2.748,1.459.719,1.719,4.434,0,4.722s-5.31,1.41-4.979-4.722,5.365-7.99,9.245-7.99" transform="translate(-38.805 -38.521)" fill="#263238"/><path d="M151.646,151.1c.123.4.432.673.69.612s.368-.433.245-.832-.432-.672-.691-.612-.367.433-.244.832" transform="translate(-42.731 -42.354)" fill="#263238"/><path d="M158.6,149.241c.122.4.432.673.69.612s.367-.433.244-.832-.432-.672-.691-.612-.367.433-.243.832" transform="translate(-44.689 -41.83)" fill="#263238"/><path d="M158.806,148.285l.863-.5s-.256.862-.863.5" transform="translate(-44.763 -41.657)" fill="#263238"/><path d="M156.855,151.292a12.245,12.245,0,0,0,2.193,2.214,1.659,1.659,0,0,1-1.325.6Z" transform="translate(-44.213 -42.645)" fill="#ec873e"/><path d="M154.545,157.607a3.9,3.9,0,0,0,.68-.1.111.111,0,0,0,.08-.144.13.13,0,0,0-.152-.09,3.465,3.465,0,0,1-2.931-.636.117.117,0,1,0-.155.173,3.645,3.645,0,0,0,2.479.794" transform="translate(-42.851 -44.143)" fill="#263238"/><path d="M142.028,156.36a3.979,3.979,0,0,0,2.794,1.213c1.349-.008,1.566-1.4.806-2.557-.683-1.043-2.209-2.3-3.379-1.731a1.893,1.893,0,0,0-.221,3.075" transform="translate(-39.844 -43.167)" fill="#fcb373"/><path d="M149.442,147.634a.222.222,0,0,0,.157-.1,1.781,1.781,0,0,1,1.465-.846.223.223,0,0,0,.235-.231.264.264,0,0,0-.251-.25,2.228,2.228,0,0,0-1.865,1.047.248.248,0,0,0,.082.335.252.252,0,0,0,.177.042" transform="translate(-42.041 -41.212)" fill="#263238"/><path d="M159.5,144.784a.227.227,0,0,0,.162-.068.241.241,0,0,0-.022-.34,2.547,2.547,0,0,0-2.138-.735.221.221,0,0,0-.169.282.263.263,0,0,0,.3.189,2.038,2.038,0,0,1,1.688.6.262.262,0,0,0,.182.072" transform="translate(-44.346 -40.482)" fill="#263238"/><path d="M151.857,150.143l.863-.5s-.256.862-.863.5" transform="translate(-42.805 -42.181)" fill="#263238"/><path d="M144.972,174.28a52.382,52.382,0,0,0,5.07,2.291h.007c.445.165.9.33,1.357.481,2.628.883,5.379,1.429,7.339.855a4.814,4.814,0,0,0,3.232-2.6,4.521,4.521,0,0,0,.3-.876,6.615,6.615,0,0,0,.136-2.169,5.6,5.6,0,0,0-2.032-.345c-.23.007-.452.007-.682.022-.3,0-.6.014-.9.022-.51.022-1.027.05-1.53.086A66.836,66.836,0,0,0,148,173.512l-.2.043c-.23.05-.46.1-.682.151-.56.129-1.113.266-1.637.409a3.745,3.745,0,0,0-.5.165" transform="translate(-40.864 -48.459)" fill="#fcb373"/><path d="M147.952,174.349a17.137,17.137,0,0,1,2.93,2.865h.007c.445.165.9.33,1.357.481a14.057,14.057,0,0,0-3.612-3.5c-.23.05-.46.1-.682.151" transform="translate(-41.704 -49.102)" fill="#263238"/><path d="M164.233,171.97a18.5,18.5,0,0,1,3.174,3.346,4.522,4.522,0,0,0,.3-.876,14.087,14.087,0,0,0-2.578-2.492c-.3,0-.6.014-.9.022" transform="translate(-46.293 -48.468)" fill="#263238"/><g transform="translate(106.248 125.096)" opacity="0.2"><g clip-path="url(#bh)"><path d="M147.952,174.349a17.137,17.137,0,0,1,2.93,2.865h.007c.445.165.9.33,1.357.481a14.057,14.057,0,0,0-3.612-3.5c-.23.05-.46.1-.682.151" transform="translate(-147.952 -174.198)" fill="#fff"/></g></g><g transform="translate(117.94 123.48)" opacity="0.2"><g clip-path="url(#bi)"><path d="M164.233,171.97a18.5,18.5,0,0,1,3.174,3.346,4.522,4.522,0,0,0,.3-.876,14.087,14.087,0,0,0-2.578-2.492c-.3,0-.6.014-.9.022" transform="translate(-164.233 -171.948)" fill="#fff"/></g></g><path d="M224.788,170.056l-.212,1.332a1.568,1.568,0,0,1-.85,1.158L221.6,173.6a2.925,2.925,0,0,1-2.684-.039l-.517-.276a9.959,9.959,0,0,1,2.062-4.5l.459-.705a1.305,1.305,0,0,1,1.808-.426l1.409.891a1.505,1.505,0,0,1,.649,1.509" transform="translate(-61.562 -47.201)" fill="#fcb373"/><path d="M241.411,234.235l-52.72-2.6a1.682,1.682,0,0,1-1.6-1.689l.393-75.346a1.682,1.682,0,0,1,1.765-1.671l59.348,2.926a1.683,1.683,0,0,1,1.593,1.837l-7.021,75.019a1.682,1.682,0,0,1-1.758,1.524" transform="translate(-52.736 -43.106)" fill="#ff5a2d"/><g transform="translate(134.355 109.821)" opacity="0.5"><g clip-path="url(#bj)"><path d="M241.411,234.235l-52.72-2.6a1.682,1.682,0,0,1-1.6-1.689l.393-75.346a1.682,1.682,0,0,1,1.765-1.671l59.348,2.926a1.683,1.683,0,0,1,1.593,1.837l-7.021,75.019a1.682,1.682,0,0,1-1.758,1.524" transform="translate(-187.091 -152.927)" fill="#fff"/></g></g><g transform="translate(135.432 137.227)" opacity="0.2"><g clip-path="url(#bk)"><path d="M247.3,192.32l-4.776,51.052a.613.613,0,0,1-.6.546l-52.754-2.6a.6.6,0,0,1-.574-.61l.23-43.863c2.908-6.98,12-7.26,19.669-2.715,3.828,2.269,7.828,5.2,12.057,7.375,4.251,2.183,8.74,3.612,13.508,2.837,9.522-1.551,11.576-5.774,13.242-12.021" transform="translate(-188.591 -191.091)" fill="#fff"/></g></g><path d="M223.687,156.09v40.395h-9.946V155.6l3.648.18,2.413.115Z" transform="translate(-60.248 -43.86)" fill="#ff5a2d"/><g transform="translate(153.493 111.742)" opacity="0.7"><g clip-path="url(#bl)"><path d="M223.687,156.09v40.395h-9.946V155.6l3.648.18,2.413.115Z" transform="translate(-213.741 -155.602)" fill="#fff"/></g></g><g transform="translate(153.851 118.686)" opacity="0.3"><g clip-path="url(#ar)"><path d="M214.24,168.967s.5-1.917.852-2.06.852,5.639,1.634,6.016,1.562-4.1,2.131-4.1.639,3.622,1.42,3.48,1.349-6.96,1.988-7.031,1.065,2.273,1.065,2.273v1.563s-.568-1.918-.994-2.131-.781,8.806-1.847,8.949-1.389-4.332-1.831-4.261-.868,4.972-1.933,5.114-1.42-6.889-1.847-6.889-.639,1.562-.639,1.562Z" transform="translate(-214.24 -165.272)" fill="#fff"/></g></g><g transform="translate(153.851 132.984)" opacity="0.3"><g clip-path="url(#as)"><path d="M214.24,186.6s.781,3.693,1.207,4.048.923-2.983,1.634-2.628.742,4.972,1.578,5.185,1.547-5.753,2.186-5.824.924,2.2,1.278,2.2,1.207-4.4,1.207-4.4v3.409s-.568,3.764-1.136,3.693-1.136-1.776-1.42-1.776-.892,5.453-2.115,5.283-1.507-5.536-1.933-5.3-.71,2.506-1.137,2.434-1.349-2.434-1.349-2.434Z" transform="translate(-214.24 -185.182)" fill="#fff"/></g></g><path d="M205.678,203.979s2.415-1.492-.426-7.458c-1.381-2.9.951-2.982,1.576-1.633s.535,6.179,2,6.179.845-4.261,2.4-4.687,1.624,3.693,4.039,4.4,5.486-6.179,7.253-5.4-1.57,3.977.312,4.829,5.006-6.037,6.142-5.682-3.622,4.829-3.693,6.463,1.988,2.415,1.988,2.415-12.572,8.309-21.591.568" transform="translate(-57.734 -54.696)" fill="#ff5a2d"/><g transform="translate(147.088 139.348)" opacity="0.8"><g clip-path="url(#bo)"><path d="M205.678,203.979s2.415-1.492-.426-7.458c-1.381-2.9.951-2.982,1.576-1.633s.535,6.179,2,6.179.845-4.261,2.4-4.687,1.624,3.693,4.039,4.4,5.486-6.179,7.253-5.4-1.57,3.977.312,4.829,5.006-6.037,6.142-5.682-3.622,4.829-3.693,6.463,1.988,2.415,1.988,2.415-12.572,8.309-21.591.568" transform="translate(-204.822 -194.044)" fill="#fff"/></g></g><path d="M247.3,192.143,242.522,243.2a.613.613,0,0,1-.6.546l-52.754-2.6a.6.6,0,0,1-.574-.61l.23-43.863a4.557,4.557,0,0,1,4.114-.871c5.308,1.609,7.914,8.4,18.2,8.368,2.887-.007,6.126-1.185,9.415-2.837,8.431-4.237,17.189-10.776,21.7-10.858,3.163-.057,5.048.445,5.048,1.673" transform="translate(-53.159 -53.687)" fill="#ff5a2d"/><g transform="translate(135.432 136.779)" opacity="0.7"><g clip-path="url(#bp)"><path d="M247.3,192.143,242.522,243.2a.613.613,0,0,1-.6.546l-52.754-2.6a.6.6,0,0,1-.574-.61l.23-43.863a4.557,4.557,0,0,1,4.114-.871c5.308,1.609,7.914,8.4,18.2,8.368,2.887-.007,6.126-1.185,9.415-2.837,8.431-4.237,17.189-10.776,21.7-10.858,3.163-.057,5.048.445,5.048,1.673" transform="translate(-188.591 -190.466)" fill="#fff"/></g></g><g transform="translate(167.405 155.178)" opacity="0.2"><g clip-path="url(#bq)"><path d="M235.812,217.436a1.349,1.349,0,1,1-1.349-1.349,1.349,1.349,0,0,1,1.349,1.349" transform="translate(-233.113 -216.087)" fill="#fff"/></g></g><g transform="translate(145.739 181.52)" opacity="0.2"><g clip-path="url(#bq)"><path d="M205.642,254.119a1.349,1.349,0,1,1-1.349-1.349,1.349,1.349,0,0,1,1.349,1.349" transform="translate(-202.943 -252.769)" fill="#fff"/></g></g><g transform="translate(145.671 156.745)" opacity="0.2"><g clip-path="url(#bs)"><path d="M207.673,220.682a2.412,2.412,0,1,1-2.412-2.412,2.412,2.412,0,0,1,2.412,2.412" transform="translate(-202.849 -218.27)" fill="#fff"/></g></g><g transform="translate(154.427 177.293)" opacity="0.2"><g clip-path="url(#bs)"><path d="M219.866,249.3a2.412,2.412,0,1,1-2.412-2.412,2.412,2.412,0,0,1,2.412,2.412" transform="translate(-215.042 -246.883)" fill="#fff"/></g></g><g transform="translate(160.586 173.928)" opacity="0.2"><g clip-path="url(#bu)"><path d="M225.394,243.085a.888.888,0,1,1-.888-.888.887.887,0,0,1,.888.888" transform="translate(-223.618 -242.197)" fill="#fff"/></g></g><g transform="translate(157.086 184.268)" opacity="0.2"><g clip-path="url(#bv)"><path d="M220.52,257.484a.888.888,0,1,1-.888-.888.888.888,0,0,1,.888.888" transform="translate(-218.745 -256.595)" fill="#fff"/></g></g><g transform="translate(180.046 145.965)" opacity="0.2"><g clip-path="url(#bw)"><path d="M253.9,204.852a1.593,1.593,0,1,1-1.593-1.593,1.593,1.593,0,0,1,1.593,1.593" transform="translate(-250.717 -203.258)" fill="#fff"/></g></g><g transform="translate(155.247 159.977)" opacity="0.2"><g clip-path="url(#bw)"><path d="M219.369,224.363a1.593,1.593,0,1,1-1.593-1.593,1.593,1.593,0,0,1,1.593,1.593" transform="translate(-216.183 -222.77)" fill="#fff"/></g></g><g transform="translate(150.563 173.223)" opacity="0.2"><g clip-path="url(#bw)"><path d="M212.847,242.808a1.593,1.593,0,1,1-1.593-1.593,1.593,1.593,0,0,1,1.593,1.593" transform="translate(-209.661 -241.215)" fill="#fff"/></g></g><g transform="translate(159.252 162.422)" opacity="0.2"><g clip-path="url(#bz)"><path d="M223.9,227.244a1.069,1.069,0,1,1-1.069-1.069,1.068,1.068,0,0,1,1.069,1.069" transform="translate(-221.76 -226.175)" fill="#fff"/></g></g><g transform="translate(139.056 158.089)" opacity="0.2"><g clip-path="url(#bz)"><path d="M195.774,221.21a1.069,1.069,0,1,1-1.069-1.069,1.068,1.068,0,0,1,1.069,1.069" transform="translate(-193.637 -220.141)" fill="#fff"/></g></g><g transform="translate(152.157 164.913)" opacity="0.2"><g clip-path="url(#cb)"><path d="M218.975,233.192a3.548,3.548,0,1,1-3.548-3.548,3.548,3.548,0,0,1,3.548,3.548" transform="translate(-211.88 -229.643)" fill="#fff"/></g></g><g transform="translate(164.786 182.308)" opacity="0.2"><g clip-path="url(#cc)"><path d="M230.588,254.429a.561.561,0,1,1-.562-.561.562.562,0,0,1,.562.561" transform="translate(-229.466 -253.867)" fill="#fff"/></g></g><g transform="translate(139.002 147.558)" opacity="0.2"><g clip-path="url(#cc)"><path d="M194.684,206.038a.561.561,0,1,1-.561-.562.561.561,0,0,1,.561.562" transform="translate(-193.562 -205.476)" fill="#fff"/></g></g><g transform="translate(157.535 156.185)" opacity="0.2"><g clip-path="url(#cc)"><path d="M220.491,218.05a.561.561,0,1,1-.561-.562.561.561,0,0,1,.561.562" transform="translate(-219.37 -217.489)" fill="#fff"/></g></g><g transform="translate(145.11 167.899)" opacity="0.2"><g clip-path="url(#cc)"><path d="M203.19,234.364a.561.561,0,1,1-.562-.561.561.561,0,0,1,.562.561" transform="translate(-202.068 -233.802)" fill="#fff"/></g></g><g transform="translate(165.346 169.95)" opacity="0.2"><g clip-path="url(#cg)"><path d="M232.305,237.687a1.029,1.029,0,1,1-1.029-1.029,1.029,1.029,0,0,1,1.029,1.029" transform="translate(-230.247 -236.658)" fill="#fff"/></g></g><g transform="translate(145.204 151.596)" opacity="0.2"><g clip-path="url(#cg)"><path d="M204.256,212.128a1.029,1.029,0,1,1-1.03-1.029,1.03,1.03,0,0,1,1.03,1.029" transform="translate(-202.198 -211.099)" fill="#fff"/></g></g><g transform="translate(149.219 169.382)" opacity="0.2"><g clip-path="url(#ci)"><path d="M208.358,236.151a.284.284,0,1,1-.284-.284.284.284,0,0,1,.284.284" transform="translate(-207.789 -235.867)" fill="#fff"/></g></g><g transform="translate(177.887 113.32)" opacity="0.2"><g clip-path="url(#cj)"><path d="M262.072,158.783l-7.016,75.023a.613.613,0,0,1-.6.546l-6.743-.33a.611.611,0,0,0,.065-.223l7.109-76,6.614.323a.619.619,0,0,1,.431.208.593.593,0,0,1,.144.452" transform="translate(-247.71 -157.799)" fill="#fff"/></g></g><g transform="translate(102.029 131.503)" opacity="0.1"><g clip-path="url(#ck)"><path d="M155.818,193.307s-10.758,3.8-13.741-9.884l4.69-.3Z" transform="translate(-142.077 -183.12)"/></g></g><path d="M199.782,191.937l-1.354-.741a1.793,1.793,0,0,0-1.644-.042l-2.442,1.181a3.349,3.349,0,0,0-1.844,2.457l-.112.662a11.394,11.394,0,0,0,5.517,1.285l.959.078a1.494,1.494,0,0,0,1.652-1.338l.18-1.9a1.722,1.722,0,0,0-.911-1.645" transform="translate(-54.228 -53.831)" fill="#fcb373"/><path d="M147.759,178.063a73.267,73.267,0,0,0,10.588,8.491,12.776,12.776,0,0,0,5.377,2.186,52.321,52.321,0,0,0,6.76.154c3.121-.091,6.313-.264,9.471-.435a1.562,1.562,0,0,1,.529,3.056,76.5,76.5,0,0,1-9.545,2.182,35.6,35.6,0,0,1-9.055.521c-5.825-1.046-10.421-4.737-14.84-8.3-1.268-1.094-2.473-2.16-3.7-3.4a3.135,3.135,0,0,1,4.414-4.452" transform="translate(-40.145 -49.936)" fill="#fab373"/><path d="M142.857,175.989c-3.487,2.465-.963,9.573,5.362,13.916,4.246-.441,8.039-7.066,8.039-7.066s-7.049-6.042-13.4-6.85" transform="translate(-39.824 -49.607)" fill="#ff5a2d"/></g></g></g></g></svg>