<svg xmlns="http://www.w3.org/2000/svg" width="113.482" height="113.482" viewBox="0 0 113.482 113.482"><g transform="translate(-1089.759 -12096.417)"><g transform="translate(1089.759 12096.418)"><circle cx="20.502" cy="20.502" r="20.502" transform="translate(34.33 38.337) rotate(-5.682)" fill="#f5d844"/><path d="M256,163.5a20.5,20.5,0,0,1,0,41Z" transform="translate(-199.259 -127.262)" fill="#e8c723" fill-rule="evenodd"/><circle cx="16.5" cy="16.5" r="16.5" transform="translate(40.241 40.24)" fill="#f9e997"/><g transform="translate(0 -0.001)"><path d="M256,181.558a16.5,16.5,0,1,1,0,33Z" transform="translate(-199.259 -141.316)" fill="#f5d844" fill-rule="evenodd"/><path d="M21.853,359.662l13.853,8v16l-13.853,8L8,383.656v-16Z" transform="translate(-6.227 -279.945)" fill="#e3a76f" fill-rule="evenodd"/><path d="M70.5,375.658v-16l13.853,8Z" transform="translate(-54.874 -279.945)" fill="#c48958" fill-rule="evenodd"/><path d="M21.853,419.741v-16L8,395.747v16Z" transform="translate(-6.227 -308.032)" fill="#f2d1a5" fill-rule="evenodd"/><path d="M70.5,403.745v16l13.853-8v-16Z" transform="translate(-54.874 -308.032)" fill="#e3a76f" fill-rule="evenodd"/><path d="M21.853,8l13.853,8v16l-13.853,8L8,31.994V16Z" transform="translate(-6.227 -6.227)" fill="#e3a76f" fill-rule="evenodd"/><path d="M70.5,24V8l13.853,8Z" transform="translate(-54.874 -6.227)" fill="#c48958" fill-rule="evenodd"/><path d="M21.853,68.078v-16L8,44.084v16Z" transform="translate(-6.227 -34.313)" fill="#f2d1a5" fill-rule="evenodd"/><path d="M70.5,52.082v16l13.853-8v-16Z" transform="translate(-54.874 -34.313)" fill="#e3a76f" fill-rule="evenodd"/><path d="M392.853,359.662l13.853,8v16l-13.853,8-13.853-8v-16Z" transform="translate(-294.997 -279.945)" fill="#e3a76f" fill-rule="evenodd"/><path d="M441.5,375.658v-16l13.853,8Z" transform="translate(-343.644 -279.945)" fill="#c48958" fill-rule="evenodd"/><path d="M392.853,419.741v-16l-13.853-8v16Z" transform="translate(-294.997 -308.032)" fill="#f2d1a5" fill-rule="evenodd"/><path d="M441.5,403.745v16l13.853-8v-16Z" transform="translate(-343.644 -308.032)" fill="#e3a76f" fill-rule="evenodd"/><path d="M392.853,8l13.853,8v16l-13.853,8-13.853-8V16Z" transform="translate(-294.997 -6.227)" fill="#e3a76f" fill-rule="evenodd"/><path d="M441.5,24V8l13.853,8Z" transform="translate(-343.644 -6.227)" fill="#c48958" fill-rule="evenodd"/><path d="M392.853,68.078v-16l-13.853-8v16Z" transform="translate(-294.997 -34.313)" fill="#f2d1a5" fill-rule="evenodd"/><path d="M441.5,52.082v16l13.853-8v-16Z" transform="translate(-343.644 -34.313)" fill="#e3a76f" fill-rule="evenodd"/><path d="M75.47,56.74A18.729,18.729,0,1,0,56.741,75.469,18.729,18.729,0,0,0,75.47,56.74Zm3.546,0A22.275,22.275,0,1,1,56.741,34.465,22.275,22.275,0,0,1,79.016,56.74Zm-21.97-1.82c4.747.779,7.361,2.879,7.769,6.24a5.561,5.561,0,0,1-1.3,4.416,8.3,8.3,0,0,1-5,2.528v1.16a1.773,1.773,0,0,1-3.546,0V68.078a7.664,7.664,0,0,1-6.3-5.584,1.773,1.773,0,1,1,3.441-.859c.58,2.329,2.97,3.1,4.845,3.059a5.5,5.5,0,0,0,3.874-1.438,2.013,2.013,0,0,0,.463-1.668c-.137-1.128-.809-2.509-4.823-3.17-5.739-.942-7.078-3.917-7.191-6.247-.157-3.225,2.081-5.923,5.567-6.712.04-.01.08-.017.119-.025V44.217a1.773,1.773,0,1,1,3.546,0v1.2A7.623,7.623,0,0,1,64.2,50.042a1.773,1.773,0,1,1-3.27,1.373,4.283,4.283,0,0,0-4.15-2.629l-.041,0h-.02a5.289,5.289,0,0,0-1.089.128c-1.415.321-2.9,1.3-2.81,3.081.03.614.109,2.245,4.223,2.921ZM27.706,24.742v-11.9L17.4,18.791v11.9Zm-24.159,0,10.306,5.95v-11.9L3.546,12.842ZM5.319,9.771,15.626,3.82,25.932,9.771,15.626,15.72Zm25.932,0v16a1.77,1.77,0,0,1-.887,1.535l-13.853,8a1.773,1.773,0,0,1-1.773,0L.887,27.3A1.771,1.771,0,0,1,0,25.766v-16A1.773,1.773,0,0,1,.887,8.234l13.853-8a1.772,1.772,0,0,1,1.773,0l13.853,8a1.773,1.773,0,0,1,.887,1.536Zm-3.546,92.917v-11.9L17.4,96.736v11.9Zm-24.159,0,10.306,5.949v-11.9L3.546,90.785ZM5.319,87.715l10.306-5.951,10.306,5.951L15.626,93.664,5.319,87.715Zm25.932,0v16a1.769,1.769,0,0,1-.887,1.534l-13.853,8a1.773,1.773,0,0,1-1.773,0l-13.853-8A1.769,1.769,0,0,1,0,103.711v-16a1.773,1.773,0,0,1,.887-1.536l13.853-8a1.781,1.781,0,0,1,1.773,0l13.853,8a1.773,1.773,0,0,1,.887,1.536Zm78.684,14.972v-11.9L99.629,96.736v11.9Zm-24.159,0,10.306,5.949v-11.9L85.777,90.785ZM87.55,87.715l10.306-5.951,10.306,5.951L97.856,93.664,87.55,87.715Zm25.932,0v16a1.768,1.768,0,0,1-.887,1.534l-13.853,8a1.775,1.775,0,0,1-1.773,0l-13.853-8a1.773,1.773,0,0,1-.887-1.534v-16a1.777,1.777,0,0,1,.887-1.536l13.853-8a1.784,1.784,0,0,1,1.773,0l13.853,8a1.773,1.773,0,0,1,.887,1.536Zm-3.546-62.973v-11.9l-10.306,5.95v11.9Zm-24.159,0,10.306,5.95v-11.9l-10.306-5.95ZM87.55,9.771,97.856,3.82l10.306,5.951L97.856,15.72Zm25.932,0v16A1.769,1.769,0,0,1,112.6,27.3l-13.853,8a1.775,1.775,0,0,1-1.773,0l-13.853-8a1.773,1.773,0,0,1-.887-1.535v-16a1.777,1.777,0,0,1,.887-1.536l13.853-8a1.773,1.773,0,0,1,1.773,0l13.853,8a1.773,1.773,0,0,1,.887,1.536ZM15.372,40.521A1.773,1.773,0,0,0,13.6,42.294v8.285a6.692,6.692,0,0,0,6.684,6.685h8.609a1.773,1.773,0,0,0,0-3.546H20.283a3.142,3.142,0,0,1-3.138-3.139V42.294a1.773,1.773,0,0,0-1.773-1.773Zm41.37-11.106a1.773,1.773,0,0,0,1.773-1.773V19.223a3.141,3.141,0,0,1,3.138-3.138H74.66a1.773,1.773,0,0,0,0-3.546H61.653a6.694,6.694,0,0,0-6.684,6.685v8.418a1.773,1.773,0,0,0,1.773,1.773ZM98.3,72.1a1.774,1.774,0,0,0,1.773-1.773V60.4a6.694,6.694,0,0,0-6.685-6.685h-8.8a1.773,1.773,0,1,0,0,3.546h8.8A3.143,3.143,0,0,1,96.53,60.4v9.93A1.773,1.773,0,0,0,98.3,72.105ZM58.514,84.6V91.76a6.691,6.691,0,0,1-6.685,6.683h-14.6a1.773,1.773,0,1,1,0-3.546h14.6a3.142,3.142,0,0,0,3.139-3.137V84.6a1.773,1.773,0,1,1,3.546,0Z" transform="translate(0 0.001)" fill-rule="evenodd"/></g></g></g></svg>