<svg xmlns="http://www.w3.org/2000/svg" width="190" height="174.872" viewBox="0 0 190 174.872"><g transform="translate(8682 4604.559)"><g transform="translate(-8682 -4604.559)"><path d="M99.783,0A28.944,28.944,0,0,0,79.316,8.478L0,87.794H30.3a28.944,28.944,0,0,0,20.467-8.478L130.082,0Z" transform="matrix(0.998, -0.07, 0.07, 0.998, 0, 9.074)" fill="#dae3f6"/><path d="M124.729,0A36.18,36.18,0,0,0,99.145,10.6L0,109.742H37.874a36.18,36.18,0,0,0,25.584-10.6L162.6,0Z" transform="matrix(0.998, -0.07, 0.07, 0.998, 20.138, 65.397)" fill="#dae3f6"/></g><g transform="translate(-8640.899 -4571.112)"><g transform="translate(2.706 2.706)"><g transform="translate(6.826 56.312)"><path d="M37.808,57.184H31.6l-.546-3.857a29.006,29.006,0,0,0-5.478-13.208h-.529a34.13,34.13,0,0,1-5.751-.495l-.034.017A6.777,6.777,0,0,0,12.826,35a6.021,6.021,0,0,0-.819.051,5.1,5.1,0,0,0-.887.171,6.83,6.83,0,0,0-4.181,3.106A6.978,6.978,0,0,0,6,41.826V81.074H31.6V70.835h8.532a1.711,1.711,0,0,0,1.706-1.706V57.184Z" transform="translate(-6 -35)" fill="#ff826e"/></g><g transform="translate(37.593 61.432)"><path d="M39.337,40.8V38h6.826v2.8a3.764,3.764,0,0,0,2.423,3.464c.017.017.034.017.068.034a3.811,3.811,0,0,0,4.2-.734l1.962-1.979,4.829,4.829-1.979,1.962a3.811,3.811,0,0,0-.734,4.2c.017.034.017.051.034.068a3.764,3.764,0,0,0,3.464,2.423h2.8V61.89h-2.8a3.764,3.764,0,0,0-3.464,2.423c-.017.017-.017.034-.034.068a3.811,3.811,0,0,0,.734,4.2l1.979,1.962-4.829,4.829-1.962-1.979a3.811,3.811,0,0,0-4.2-.734c-.034.017-.051.017-.068.034a3.764,3.764,0,0,0-2.423,3.464v2.8H39.337v-2.8a3.764,3.764,0,0,0-2.423-3.464c-.017-.017-.034-.017-.068-.034a3.811,3.811,0,0,0-4.2.734l-1.962,1.979L24.03,68.716h3.362A1.711,1.711,0,0,0,29.1,67.009V65.3h6.024a10.244,10.244,0,1,0-.154-13.464,3.337,3.337,0,0,0-1.092-.188,3.265,3.265,0,0,0-2.338.973l-2.44,2.44H25.071a3.764,3.764,0,0,0,3.464-2.423c.017-.017.017-.034.034-.068a3.811,3.811,0,0,0-.734-4.2l-1.979-1.962,4.829-4.829,1.962,1.979a3.811,3.811,0,0,0,4.2.734c.034-.017.051-.017.068-.034A3.764,3.764,0,0,0,39.337,40.8Z" transform="translate(-24.03 -38)" fill="#fcd770"/></g><g transform="translate(71.67 0)"><path d="M44,2H71.3V25.89H44V2Z" transform="translate(-44 -2)" fill="#b4dd7f"/></g><g transform="translate(81.909 34.129)"><path d="M70.477,23.706V42.477H50V22H70.477Z" transform="translate(-50 -22)" fill="#b4dd7f"/></g><g transform="translate(44.367 30.716)"><path d="M28,37.064V20H45.064V37.064H28Z" transform="translate(-28 -20)" fill="#b4dd7f"/></g><g transform="translate(47.78 10.239)"><circle cx="3.5" cy="3.5" r="3.5" transform="translate(-0.487 -0.146)" fill="#ff826e"/></g><g transform="translate(92.147 78.496)"><circle cx="3.5" cy="3.5" r="3.5" transform="translate(0.146 -0.403)" fill="#ff826e"/></g><g transform="translate(0 17.064)"><path d="M39.542,13.706v3.413a1.711,1.711,0,0,1-1.706,1.706H3.706a1.463,1.463,0,0,1-.614-.119A1.712,1.712,0,0,1,2,17.119V12H37.835A1.711,1.711,0,0,1,39.542,13.706Z" transform="translate(-2 -12)" fill="#fcd770"/></g><g transform="translate(1.45 0)"><path d="M33.788,12.239H30.409A1.711,1.711,0,0,0,28.7,13.945v5.119H21.877V10.532A1.711,1.711,0,0,0,20.17,8.826H16.757a1.711,1.711,0,0,0-1.706,1.706v8.532H8.225V13.945a1.711,1.711,0,0,0-1.706-1.706H3.106a1.291,1.291,0,0,0-.256.017,16.8,16.8,0,0,1,30.938-.017Z" transform="translate(-2.85 -2)" fill="#ffeaa7"/></g><g transform="translate(27.303 10.239)"><path d="M24.109,11.276l.717,3.549H18V9.706A1.711,1.711,0,0,1,19.706,8h3.379A15.238,15.238,0,0,1,24.109,11.276Z" transform="translate(-18 -8)" fill="#fcd770"/></g><g transform="translate(13.651 6.826)"><path d="M16.826,7.706v8.532H10V7.706A1.711,1.711,0,0,1,11.706,6h3.413A1.711,1.711,0,0,1,16.826,7.706Z" transform="translate(-10 -6)" fill="#fcd770"/></g><g transform="translate(0 10.239)"><path d="M7.119,8A1.711,1.711,0,0,1,8.826,9.706v5.119H2l.188-1.911a16.689,16.689,0,0,1,1.263-4.9A1.291,1.291,0,0,1,3.706,8Z" transform="translate(-2 -8)" fill="#fcd770"/></g><g transform="translate(0 23.771)"><path d="M13.945,21.169v1.706a3.438,3.438,0,0,0-3.413,3.413,4.106,4.106,0,0,0,1.212,2.918l1.706,1.706a1.721,1.721,0,0,1,.495,1.195v6.126L8.6,34.411A15.74,15.74,0,0,1,2,21.578v-.7A11.7,11.7,0,0,1,3.092,15.93a1.463,1.463,0,0,0,.614.119H19.064A5.112,5.112,0,0,0,13.945,21.169Z" transform="translate(-2 -15.93)" fill="#656d78"/></g><g transform="translate(8.532 23.89)"><path d="M27.477,36.477v1.007A5.826,5.826,0,0,1,21.658,43.3H20.651a14.31,14.31,0,0,0,3.31,9.078c.307.375.614.768.9,1.16h-.529a34.13,34.13,0,0,1-5.751-.495l-.034.017a6.777,6.777,0,0,0-6.433-4.642,6.022,6.022,0,0,0-.819.051,5.1,5.1,0,0,0-.887.171V32.058a1.721,1.721,0,0,0-.495-1.195L8.212,29.157A4.106,4.106,0,0,1,7,26.239a3.438,3.438,0,0,1,3.413-3.413V21.119A5.112,5.112,0,0,1,15.532,16H27.477S32.6,22.826,32.6,31.358l-5.119,1.706Z" transform="translate(-7 -16)" fill="#f0d0b4"/></g><g transform="translate(42.661 75.083)"><path d="M40.651,49.413a3.423,3.423,0,0,1,3.413,3.413,6.817,6.817,0,0,1-6.826,6.826H27V49.413l2.44-2.44A3.265,3.265,0,0,1,31.778,46a3.337,3.337,0,0,1,1.092.188,3.25,3.25,0,0,1,1.86,1.638l.8,1.587Z" transform="translate(-27 -46)" fill="#f0d0b4"/></g></g><g transform="translate(1 1)"><path d="M106.8,59.019V35.129H96.56V28.3h6.826V1H72.67V14.651H58.7a5.107,5.107,0,1,0-6.512,6.512V31.716H45.367V52.193H57.312V62.432H53.9v4.5a2.113,2.113,0,0,1-1.439,1.923,2.091,2.091,0,0,1-2.333-.367l-3.171-3.188-7.249,7.247,3.186,3.174a2.148,2.148,0,0,1,.336,2.4A2.1,2.1,0,0,1,41.337,79.5h-4.73l-.343-2.4A30.479,30.479,0,0,0,29.5,61.892a12.555,12.555,0,0,1-2.763-6.372A7.572,7.572,0,0,0,31.216,53.4a7.478,7.478,0,0,0,2.206-5.326V44.893l5.119-1.706v-1.23A29.018,29.018,0,0,0,34.787,28.3h3.754a3.416,3.416,0,0,0,3.413-3.413V21.477a3.416,3.416,0,0,0-3.413-3.413h-.307L37.8,15.892a18.526,18.526,0,0,0-36.6,1.79L1,19.771V24.89a3.384,3.384,0,0,0,.758,2.118A13.442,13.442,0,0,0,1,31.422v.71A17.512,17.512,0,0,0,8.319,46.354l4.626,3.3v8.373a8.365,8.365,0,0,0-5.1,7.814h-.02V106.8H36.835V96.562h2.758l7.365,7.365,3.171-3.188a2.12,2.12,0,0,1,2.406-.336A2.072,2.072,0,0,1,53.9,102.3v4.5H64.138v-4.5a2.113,2.113,0,0,1,1.439-1.923,2.089,2.089,0,0,1,2.333.367l3.171,3.188,7.249-7.247-3.186-3.172A2.127,2.127,0,0,1,74.8,91.1,2.1,2.1,0,0,1,76.7,89.735h4.5V86.322H93.461a5.107,5.107,0,1,0,6.512-6.512V59.019ZM86.322,55.606V38.542h16.523l-8.088,9.435-2.109-2.109L90.235,48.28,94.951,53l8.435-9.843V55.606ZM76.083,4.413h23.89V24.89H76.083ZM53.9,14.651a1.706,1.706,0,1,1-1.706,1.706A1.708,1.708,0,0,1,53.9,14.651ZM48.78,35.129H60.906l-5.374,6.046L53.4,39.042l-2.413,2.413,4.693,4.693,6.752-7.6V48.78H48.78ZM32.888,77.583l.256,1.793a8.495,8.495,0,0,1-7.065-7l-1.13-6.739c1.085.114,2.176.183,3.266.195a27.075,27.075,0,0,1,4.672,11.754Zm2.2-36.845-5.082,1.694v2.935H27A4.443,4.443,0,0,1,23,42.9l-3.053,1.527A7.841,7.841,0,0,0,27,48.782h2.942A4.085,4.085,0,0,1,28.8,50.99,4.154,4.154,0,0,1,25.89,52.2l-6.119,0v3.413l3.522,0a15.993,15.993,0,0,0,2.314,6.676c-.546-.051-1.089-.135-1.63-.213a8.512,8.512,0,0,0-7.619-4.758V42.661a3.431,3.431,0,0,0-1-2.413l-1.706-1.706a2.4,2.4,0,0,1-.706-1.706,1.708,1.708,0,0,1,1.706-1.706h1.706V31.716A3.416,3.416,0,0,1,19.771,28.3H30.815a27.1,27.1,0,0,1,4.276,12.435Zm3.45-19.261V24.89H4.413l-.005-3.413ZM7.826,18.064H4.592l0-.041a15.216,15.216,0,0,1,.744-3.372H7.826Zm13.651,0H18.064V11.239h3.413Zm12.976-1.5.3,1.5H31.716V14.651h2.208A15,15,0,0,1,34.453,16.561ZM19.634,4.413a15.144,15.144,0,0,1,12.614,6.826h-.532A3.416,3.416,0,0,0,28.3,14.651v3.413H24.89V11.239a3.416,3.416,0,0,0-3.413-3.413H18.064a3.416,3.416,0,0,0-3.413,3.413v6.826H11.239V14.651a3.416,3.416,0,0,0-3.413-3.413H6.99A15.056,15.056,0,0,1,19.634,4.413ZM10.3,43.577A14.093,14.093,0,0,1,4.413,32.132v-.71A10.011,10.011,0,0,1,4.921,28.3H13.9a6.74,6.74,0,0,0-.95,3.413v.292a5.129,5.129,0,0,0-3.413,4.828,5.789,5.789,0,0,0,1.706,4.119l1.706,1.706v2.8Zm1.631,19.655a5.135,5.135,0,0,1,3.833-2.471,4.61,4.61,0,0,1,.587-.036,5.14,5.14,0,0,1,5.085,4.607l1.273,7.6A11.913,11.913,0,0,0,34.5,82.911l9.155,0V93.147l-12.264,0A18.883,18.883,0,0,1,12.807,77.1l-1.52-10.384a5.51,5.51,0,0,1,.648-3.481Zm21.487,40.154H11.239V83.619A22.337,22.337,0,0,0,31.39,96.562h2.032ZM77.79,86.322H76.7a5.708,5.708,0,0,0-3.966,9.6l.763.759-2.411,2.411-.759-.761a5.707,5.707,0,0,0-9.6,3.962v1.092H57.312v-1.092a5.709,5.709,0,0,0-9.6-3.964l-.758.761-2.6-2.6a3.418,3.418,0,0,0,2.72-3.341H50.69a11.942,11.942,0,1,0-.041-17.03,4.856,4.856,0,0,0-.5-.034,4.966,4.966,0,0,0-3.293,1.261,5.35,5.35,0,0,0-1.548-4.036l-.763-.759,2.411-2.411.759.761a5.7,5.7,0,0,0,9.6-3.961V65.844h3.413v1.092a5.709,5.709,0,0,0,9.6,3.964l.758-.761L73.5,72.551l-.761.758a5.706,5.706,0,0,0,3.964,9.6h1.09ZM59.017,79.5H54.951l-.321-.642a5.082,5.082,0,0,0-.722-1.065,8.54,8.54,0,1,1,3.418,15.182,8.546,8.546,0,0,0,6.812-8.356A5.126,5.126,0,0,0,59.017,79.5Zm-7.44.886,1.264,2.527h6.176a1.709,1.709,0,0,1,1.708,1.706A5.127,5.127,0,0,1,55.6,89.735H47.067V81.909l1.945-1.944A1.658,1.658,0,0,1,51.577,80.382Zm46.69,5.94a1.706,1.706,0,1,1,1.706-1.706A1.708,1.708,0,0,1,98.267,86.322ZM96.56,79.81a5.114,5.114,0,0,0-3.1,3.1H81.2V79.5H76.7a2.135,2.135,0,0,1-1.925-1.437,2.113,2.113,0,0,1,.369-2.334l3.186-3.172L71.08,65.305l-3.171,3.188a2.12,2.12,0,0,1-2.406.336,2.072,2.072,0,0,1-1.365-1.892v-4.5H60.725V52.193h5.119V34.711l4.689-5.275L67.983,27.17,63.94,31.716H55.606V21.163a5.114,5.114,0,0,0,3.1-3.1H72.67V28.3H93.147v6.826H82.909v23.89H96.56Z" transform="translate(-1 -1)"/><path d="M51.815,14.894l-2.109-2.109L47.293,15.2l4.717,4.717L63.446,6.568,60.856,4.35Z" transform="translate(31.703 1.367)"/></g></g></g></svg>