<svg xmlns="http://www.w3.org/2000/svg" width="111.945" height="111.945" viewBox="0 0 111.945 111.945"><g transform="translate(-386.527 -12096.418)"><g transform="translate(384.527 12094.418)"><g transform="translate(3.866 3.866)"><circle cx="30" cy="30" r="30" transform="translate(24.134 24.134)" fill="#ffea00"/><circle cx="22" cy="22" r="22" transform="translate(32.134 32.134)" fill="#ffd000"/><path d="M72.455,57.891A29.852,29.852,0,1,1,32.3,17.74,29.852,29.852,0,0,0,72.455,57.891Z" transform="translate(8.257 9.761)" fill="#ffd000"/><path d="M42.389,20A22.389,22.389,0,1,0,64.778,42.389,22.389,22.389,0,0,0,42.389,20Zm14.46,39.143c-.466.019-.933.037-1.4.037A29.852,29.852,0,0,1,25.6,29.329c0-.466.019-.933.037-1.4A22.367,22.367,0,0,1,56.849,59.143Z" transform="translate(11.718 11.718)" fill="#ffb700"/><path d="M3,41H25.389V78.315H3Z" transform="translate(-3 29.898)" fill="#e9f1f2"/><path d="M10.463,63.389V67.12a7.463,7.463,0,0,0,7.463,7.463h7.463v3.731H3V41H25.389V63.389Z" transform="translate(-3 29.898)" fill="#d0d8da"/><path d="M15,53H29.926V67.926H15Z" transform="translate(7.389 40.287)" fill="#ade8f4"/><path d="M29.926,64.463H15V57h5.6Z" transform="translate(7.389 43.75)" fill="#48cae4"/><path d="M29.926,60.463H15V53h5.6Z" transform="translate(7.389 40.287)" fill="#48cae4"/><g transform="translate(0 70.898)"><path d="M7,57h7.463v7.463H7Z" transform="translate(0.463 -27.148)" fill="#ade8f4"/><path d="M3,45H25.389v7.463H3Z" transform="translate(-3 -37.537)" fill="#ade8f4"/><path d="M3,41H25.389v7.463H3Z" transform="translate(-3 -41)" fill="#ade8f4"/><path d="M3,49H25.389v7.463H3Z" transform="translate(-3 -34.074)" fill="#ade8f4"/></g><path d="M3,37h7.463v7.463H3Z" transform="translate(-3 26.436)" fill="#e9f1f2"/><path d="M25.389,48.463H3V41H14.194Z" transform="translate(-3 29.898)" fill="#48cae4"/><path d="M25.389,52.463H3V45H14.194Z" transform="translate(-3 33.361)" fill="#48cae4"/><path d="M25.389,56.463H3V49H14.194Z" transform="translate(-3 36.825)" fill="#48cae4"/><path d="M10.463,42.6v1.866H3V37H4.866v1.866A3.743,3.743,0,0,0,8.6,42.6Z" transform="translate(-3 26.436)" fill="#d0d8da"/><path d="M3,41h7.463v7.463H3Z" transform="translate(-3 29.898)" fill="#00b4d8"/><path d="M3,45h7.463v7.463H3Z" transform="translate(-3 33.361)" fill="#00b4d8"/><path d="M3,49h7.463v7.463H3Z" transform="translate(-3 36.825)" fill="#00b4d8"/><path d="M14.463,60.731v3.731H7V57H8.008a7.426,7.426,0,0,0,6.455,3.731Z" transform="translate(0.463 43.75)" fill="#48cae4"/><circle cx="15" cy="15" r="15" transform="translate(78.134 0.134)" fill="#ff7373"/><path d="M74.068,21.456A14.926,14.926,0,1,1,51.38,4.44,14.926,14.926,0,0,0,74.068,21.456Z" transform="translate(33.362 -1.753)" fill="#ef5350"/><ellipse cx="5.5" cy="6" rx="5.5" ry="6" transform="translate(88.134 7.134)" fill="#ffea00"/><path d="M66.658,20.463v.448a14.892,14.892,0,0,1-18.657,0v-.448A7.463,7.463,0,0,1,55.463,13h3.731A7.463,7.463,0,0,1,66.658,20.463Z" transform="translate(35.959 5.657)" fill="#ffea00"/><path d="M66.658,20.324v.448a14.892,14.892,0,0,1-18.657,0v-.448a7.422,7.422,0,0,1,5.411-7.164,14.948,14.948,0,0,0,12.109,3.209,7.368,7.368,0,0,1,1.138,3.955Z" transform="translate(35.959 5.796)" fill="#ffd000"/><path d="M60.953,14.108A5.6,5.6,0,1,1,53.976,7.13a5.784,5.784,0,0,0-.243,1.623,5.6,5.6,0,0,0,5.6,5.6,5.784,5.784,0,0,0,1.623-.243Z" transform="translate(37.689 0.576)" fill="#ffd000"/><path d="M66.658,19.874v.448a14.892,14.892,0,0,1-18.657,0v-.448a7.375,7.375,0,0,1,3.321-6.194,9.357,9.357,0,0,0,7.873,4.329h7.22a6.823,6.823,0,0,1,.243,1.866Z" transform="translate(35.959 6.246)" fill="#ffb700"/><path d="M12.284,23.194a3.545,3.545,0,0,1-3.358-2.425L6,12h7.463l2.179,6.53a3.545,3.545,0,0,1-3.358,4.664Z" transform="translate(-0.403 4.792)" fill="#93999a"/><path d="M12.288,23.194a3.528,3.528,0,0,1-3.358-2.425L6,12h7.463l.9,2.705-2.761-.84H9.732l1.063,3.172a3.528,3.528,0,0,0,3.358,2.425,3.453,3.453,0,0,0,1.642-.41,3.567,3.567,0,0,1-3.508,4.142Z" transform="translate(-0.403 4.792)" fill="#656b76"/><path d="M8.6,6h5.6V17.194H8.6A5.6,5.6,0,1,1,8.6,6Z" transform="translate(-3 -0.403)" fill="#ef5350"/><path d="M27.657,25.389,9,19.792V8.6L27.657,3Z" transform="translate(2.194 -3)" fill="#e9f1f2"/><path d="M27.657,18.178v5.411L9,17.991V6.8L14.747,5.08A14.864,14.864,0,0,0,25.232,17.45Z" transform="translate(2.194 -1.199)" fill="#d0d8da"/><path d="M12.327,6v7.463H10.461a5.6,5.6,0,0,1-5.6-5.6A1.817,1.817,0,0,1,4.9,7.418a1.5,1.5,0,0,0-.261.224A5.6,5.6,0,0,0,8.6,17.195h5.6V6Z" transform="translate(-2.998 -0.403)" fill="#e53935"/><path d="M47,47H73.12V73.12H47Z" transform="translate(35.093 35.093)" fill="#ffd000"/><path d="M52,47h7.463v7.463H52Z" transform="translate(39.422 35.093)" fill="#ffea00"/><path d="M73.12,67.523v5.6H47V47h5.6v5.6A14.926,14.926,0,0,0,67.523,67.523Z" transform="translate(35.093 35.093)" fill="#ffb700"/></g><g transform="translate(2 2)"><path d="M71.752,27.288a1.866,1.866,0,1,0-2.946,2.289,27.7,27.7,0,0,1,5.9,17.14A27.986,27.986,0,1,1,46.718,18.732a27.7,27.7,0,0,1,17.141,5.9,1.866,1.866,0,1,0,2.289-2.946,31.789,31.789,0,1,0,5.6,5.6Z" transform="translate(9.255 9.255)"/><path d="M35.463,49.12a3.731,3.731,0,0,1-3.731-3.731,1.866,1.866,0,0,0-3.732,0,7.463,7.463,0,0,0,5.6,7.2v2.131a1.866,1.866,0,1,0,3.731,0V52.587a7.448,7.448,0,0,0-1.866-14.661,3.732,3.732,0,1,1,3.731-3.732,1.866,1.866,0,1,0,3.732,0,7.463,7.463,0,0,0-5.6-7.2V24.866a1.866,1.866,0,1,0-3.731,0V27a7.448,7.448,0,0,0,1.866,14.661,3.731,3.731,0,1,1,0,7.463Z" transform="translate(20.51 16.181)"/><path d="M28.777,60.454a1.866,1.866,0,0,0,.438,2.6A24.3,24.3,0,1,0,23.5,57.34a1.866,1.866,0,1,0,3.039-2.164,20.572,20.572,0,1,1,4.84,4.84,1.866,1.866,0,0,0-2.6.438Z" transform="translate(12.717 12.673)"/><path d="M41.181,67.583H28.12V47.06a1.866,1.866,0,0,0-1.866-1.866H13.194V35.866a1.866,1.866,0,0,0-3.731,0v1.866h-5.6A1.866,1.866,0,0,0,2,39.6V84.375a1.866,1.866,0,1,0,3.731,0V71.315H24.389V82.509H20.657v-5.6a1.866,1.866,0,0,0-1.866-1.866H11.329a1.866,1.866,0,0,0-1.866,1.866v7.463a1.866,1.866,0,0,0,1.866,1.866H41.181a1.866,1.866,0,0,0,1.866-1.866V69.449A1.866,1.866,0,0,0,41.181,67.583ZM5.731,41.463H9.463v3.731H5.731Zm0,22.389h13.06a1.866,1.866,0,1,0,0-3.731H5.731V48.926H24.389v3.731H11.329a1.866,1.866,0,0,0,0,3.732h13.06V67.583H5.731Zm7.463,14.926h3.731v3.731H13.194ZM28.12,82.509V71.315H39.315v3.731H35.583a1.866,1.866,0,0,0,0,3.732h3.731v3.731Z" transform="translate(-2 25.704)"/><path d="M60.8,35.584A16.773,16.773,0,0,0,75.259,10.273a1.866,1.866,0,0,0-3.215,1.9,12.96,12.96,0,0,1-.733,14.344,9.351,9.351,0,0,0-4.705-4.954,7.463,7.463,0,1,0-11.6,0A9.351,9.351,0,0,0,50.3,26.514,13.038,13.038,0,0,1,67.425,7.551a1.866,1.866,0,1,0,1.9-3.215A16.792,16.792,0,1,0,60.8,35.584Zm0-22.389a3.732,3.732,0,1,1-3.732,3.732A3.732,3.732,0,0,1,60.8,13.195ZM58.938,24.389h3.731a5.586,5.586,0,0,1,5.551,5.14,13,13,0,0,1-14.833,0,5.586,5.586,0,0,1,5.551-5.14Z" transform="translate(34.35 -2)"/><path d="M8.05,22.383,10.6,30.022A5.411,5.411,0,1,0,20.858,26.6l-.834-2.5,13.142,3.942a1.866,1.866,0,0,0,2.4-1.787v-5.6a1.866,1.866,0,1,0-3.731,0v3.09L16.9,19.269V10.851L31.831,6.373v6.821a1.866,1.866,0,1,0,3.731,0V3.866a1.866,1.866,0,0,0-2.4-1.787L14.765,7.6H9.442A7.463,7.463,0,0,0,8.05,22.383Zm9.263,5.4a1.659,1.659,0,0,1-.229,1.508,1.737,1.737,0,0,1-2.948-.45l-2.1-6.317h2.733l.882.265ZM9.442,11.329h3.731v7.463H9.442a3.731,3.731,0,1,1,0-7.463Z" transform="translate(-1.979 -2)"/><path d="M73.986,46H47.866A1.866,1.866,0,0,0,46,47.866V73.986a1.866,1.866,0,0,0,1.866,1.866H73.986a1.866,1.866,0,0,0,1.866-1.866V60.926a1.866,1.866,0,0,0-3.732,0V72.12H49.732V49.732h5.6v5.6a1.866,1.866,0,0,0,1.866,1.866h7.463a1.866,1.866,0,0,0,1.866-1.866v-5.6h5.6v3.731a1.866,1.866,0,0,0,3.732,0v-5.6A1.866,1.866,0,0,0,73.986,46ZM62.792,53.463H59.06V49.732h3.731Z" transform="translate(36.093 36.093)"/><path d="M56.767,63.545a1.866,1.866,0,0,0,2.465-.933,52.219,52.219,0,0,0,.989-40.185,1.866,1.866,0,1,0-3.478,1.351,48.491,48.491,0,0,1-.933,37.3,1.866,1.866,0,0,0,.957,2.465Z" transform="translate(44.448 14.654)"/><path d="M56.957,55.82a48.235,48.235,0,0,1-28.747,3.358,1.866,1.866,0,0,0-.687,3.668,52.664,52.664,0,0,0,9.672.914,51.868,51.868,0,0,0,21.284-4.534,1.866,1.866,0,0,0-1.522-3.407Z" transform="translate(18.778 44.453)"/><path d="M8.075,21.673A51.93,51.93,0,0,0,4,41.93a1.866,1.866,0,1,0,3.731,0,48.218,48.218,0,0,1,3.782-18.809,1.866,1.866,0,1,0-3.439-1.448Z" transform="translate(-0.269 14.043)"/><path d="M24.51,10.493a48.737,48.737,0,0,1,33.709.513,1.866,1.866,0,0,0,1.353-3.47,52.474,52.474,0,0,0-36.3-.56,1.866,1.866,0,1,0,1.243,3.517Z" transform="translate(15.292 -0.26)"/></g></g></g></svg>