<svg xmlns="http://www.w3.org/2000/svg" width="135" height="135" viewBox="0 0 135 135"><g transform="translate(-810 -5860)"><g transform="translate(810 5860)" fill="#fff" stroke="#f14141" stroke-width="3"><circle cx="67.5" cy="67.5" r="67.5" stroke="none"/><circle cx="67.5" cy="67.5" r="66" fill="none"/></g><g transform="translate(840.891 5888.759)"><g transform="translate(22.277 14.01)"><path d="M20.177,12.8,19.7,22.449l5.242-2.621.953-6.433Z" transform="translate(-18.509 -11.562)" fill="#ffd880"/><path d="M19.891,23.839a.91.91,0,0,1-.6-.238,1.251,1.251,0,0,1-.6-1.072l.477-9.649a1.081,1.081,0,0,1,.357-.834.926.926,0,0,1,.953-.238l5.718.6a1.206,1.206,0,0,1,.834.477,1.284,1.284,0,0,1,.238.953l-.953,6.433a1.114,1.114,0,0,1-.6.834L20.487,23.72a1.074,1.074,0,0,1-.6.119Zm1.549-9.53-.357,6.314,2.859-1.43.715-4.646Z" transform="translate(-18.7 -11.761)"/></g><g transform="translate(38.12 22.277)"><path d="M58.565,22.274V37.76a3.584,3.584,0,0,1-3.574,3.574H35.574A3.584,3.584,0,0,1,32,37.76V22.274A3.584,3.584,0,0,1,35.574,18.7H55.11a3.561,3.561,0,0,1,3.455,3.574Z" transform="translate(-32 -18.7)" fill="#ffd880"/></g><g transform="translate(38.239 22.277)"><path d="M58.546,22.274V37.76a3.584,3.584,0,0,1-3.574,3.574H35.555a3.394,3.394,0,0,1-3.455-3.1h4.408a19.04,19.04,0,0,0,19.06-19.06V18.7a3.7,3.7,0,0,1,2.978,3.574Z" transform="translate(-32.1 -18.7)" fill="#fecb4d"/></g><g transform="translate(36.929 21.085)"><path d="M55.183,42.836H35.646A4.575,4.575,0,0,1,31.238,39.5a1.206,1.206,0,0,1,2.263-.834,2.435,2.435,0,0,0,2.263,1.668H55.3a2.39,2.39,0,0,0,2.383-2.383V22.465A2.39,2.39,0,0,0,55.3,20.083H35.765a2.39,2.39,0,0,0-2.383,2.383v2.859a1.191,1.191,0,0,1-2.383,0V22.465A4.779,4.779,0,0,1,35.765,17.7H55.183a4.779,4.779,0,0,1,4.765,4.765V37.951A4.806,4.806,0,0,1,55.183,42.836Z" transform="translate(-31 -17.7)"/></g><g transform="translate(11.525 22.277)"><path d="M29.837,30.732v9.411L36.985,51.46a7.362,7.362,0,0,1,1.072,3.216l.6,6.552a1.6,1.6,0,0,0,1.787,1.43l3.574-.357A1.593,1.593,0,0,1,45.8,63.968a1.7,1.7,0,0,1-1.072,1.549L35.317,69.09a1.611,1.611,0,0,1-2.144-1.43l-.6-6.909a6.643,6.643,0,0,0-1.191-3.336L24,46.456,22.094,56.82a8.006,8.006,0,0,1-1.549,3.574l-2.263,3.1a2.144,2.144,0,0,0,0,2.621l1.43,1.787a2.058,2.058,0,0,1-.238,2.859,2.2,2.2,0,0,1-1.43.6,2.509,2.509,0,0,1-1.549-.6L10.3,64.683a2.23,2.23,0,0,1,0-3.1l2.978-2.978a9.011,9.011,0,0,0,2.5-5.361l3.455-31.211A3.765,3.765,0,0,1,23.047,18.7h3.336A3.909,3.909,0,0,1,29.6,20.487l4.169,7.386A5.108,5.108,0,0,0,38.3,30.493H44.49a2.39,2.39,0,0,1,2.383,2.383,2.443,2.443,0,0,1-2.383,2.383H36.508a4.763,4.763,0,0,1-3.1-1.191Z" transform="translate(-9.675 -18.7)" fill="#f27dad"/></g><g transform="translate(11.645 43.719)"><path d="M44.113,58.738l-3.574.357a1.617,1.617,0,0,1-1.787-1.43l-.6-6.552A8.551,8.551,0,0,0,37.085,47.9L29.937,36.7H17.31L15.88,49.923a9.011,9.011,0,0,1-2.5,5.361L10.4,58.262a2.23,2.23,0,0,0,0,3.1l6.195,6.075a1.973,1.973,0,0,0,1.549.6,2.2,2.2,0,0,0,1.43-.6,2.058,2.058,0,0,0,.238-2.859l-1.43-1.906a2.144,2.144,0,0,1,0-2.621l2.263-3.1a8.006,8.006,0,0,0,1.549-3.574L24.1,43.014l7.5,11.079A6.643,6.643,0,0,1,32.8,57.428l.6,6.671a1.649,1.649,0,0,0,2.144,1.43l9.411-3.574a1.7,1.7,0,0,0,1.072-1.549,1.748,1.748,0,0,0-1.906-1.668Z" transform="translate(-9.775 -36.7)" fill="#42baeb"/></g><g transform="translate(10.215 21.085)"><path d="M18.135,72.855a3.783,3.783,0,0,1-2.383-.953L9.558,65.827a3.379,3.379,0,0,1,0-4.765l2.978-2.978a8.034,8.034,0,0,0,2.144-4.646l3.455-31.211a5.12,5.12,0,0,1,5-4.527h3.336a5,5,0,0,1,4.169,2.263l4.169,7.5a3.862,3.862,0,0,0,3.455,2.025h6.195a3.574,3.574,0,0,1,0,7.148H36.48a6.151,6.151,0,0,1-3.931-1.43l-3.216-3.1H27.188a1.191,1.191,0,0,1,0-2.383h2.621a1.081,1.081,0,0,1,.834.357l3.574,3.336a3.623,3.623,0,0,0,2.263.834h7.981a1.191,1.191,0,0,0,0-2.383H38.267a6.356,6.356,0,0,1-5.6-3.216L28.5,21.274a2.662,2.662,0,0,0-2.144-1.191H23.019A2.693,2.693,0,0,0,20.4,22.465L16.944,53.676a10.038,10.038,0,0,1-2.859,6.075L11.106,62.73a1.087,1.087,0,0,0,0,1.43L17.3,70.235a.935.935,0,0,0,1.31,0c.238-.238.357-.357.357-.6a.77.77,0,0,0-.238-.6L17.3,67.137a3.222,3.222,0,0,1,0-4.05l2.263-2.978a6.623,6.623,0,0,0,1.31-3.1l1.906-10.364a1.293,1.293,0,0,1,.953-.953,1.133,1.133,0,0,1,1.191.477l7.386,10.96a9.032,9.032,0,0,1,1.43,3.931l.6,6.909a.256.256,0,0,0,.238.238.223.223,0,0,0,.357,0l9.411-3.574a.532.532,0,0,0,.357-.477c0-.119,0-.357-.119-.357a.369.369,0,0,0-.238-.119l-3.574.357a2.568,2.568,0,0,1-2.025-.6,3.1,3.1,0,0,1-1.072-1.906l-.6-6.552a5.4,5.4,0,0,0-.953-2.621L28.975,41.049A1.206,1.206,0,0,1,31,39.738l7.148,11.317a7.959,7.959,0,0,1,1.191,3.574l.6,6.552a.416.416,0,0,0,.119.238c.119,0,.119.119.238.119l3.574-.357a2.51,2.51,0,0,1,2.144.715,2.983,2.983,0,0,1,.953,2.144,2.727,2.727,0,0,1-1.787,2.621l-9.411,3.574a2.861,2.861,0,0,1-3.812-2.383l-.6-6.79a6.232,6.232,0,0,0-.953-2.74l-5.837-8.577-1.43,7.5a7.873,7.873,0,0,1-1.787,4.05l-2.263,3.1a1.082,1.082,0,0,0,0,1.191l1.43,1.906a3.666,3.666,0,0,1,.715,2.263A3.376,3.376,0,0,1,20.16,71.9a2.109,2.109,0,0,1-2.025.953Z" transform="translate(-8.575 -17.7)"/></g><g transform="translate(19.656 6.314)"><path d="M29.651,6.3v5.837a4.906,4.906,0,0,1-4.884,4.884h-1.43A5.847,5.847,0,0,1,17.5,11.184V6.3Z" transform="translate(-16.309 -5.109)" fill="#ffd880"/><path d="M24.958,18.4h-1.43A6.966,6.966,0,0,1,16.5,11.375V6.491A1.125,1.125,0,0,1,17.691,5.3H29.842a1.125,1.125,0,0,1,1.191,1.191v5.837A6.1,6.1,0,0,1,24.958,18.4ZM18.883,7.683v3.693a4.577,4.577,0,0,0,4.646,4.646h1.43a3.711,3.711,0,0,0,3.693-3.693V7.683Z" transform="translate(-16.5 -5.3)"/></g><g transform="translate(19.418)"><path d="M29.808,7.314H17.3a6.254,6.254,0,1,1,12.508,0Z" transform="translate(-16.109 0.191)" fill="#62c3a6"/><path d="M30,8.7H17.491A1.125,1.125,0,0,1,16.3,7.5,7.474,7.474,0,0,1,23.8,0a7.562,7.562,0,0,1,7.386,7.267V7.5A1.125,1.125,0,0,1,30,8.7ZM18.8,6.314h9.887a5.074,5.074,0,0,0-9.887,0Z" transform="translate(-16.3)"/></g><g transform="translate(27.876 6.314)"><path d="M35.074,7.683H24.591A1.125,1.125,0,0,1,23.4,6.491,1.125,1.125,0,0,1,24.591,5.3H35.074a1.125,1.125,0,0,1,1.191,1.191A1.125,1.125,0,0,1,35.074,7.683Z" transform="translate(-23.4 -5.3)"/></g><g transform="translate(23.11 33.117)"><path d="M27.977,39.593H20.591a1.191,1.191,0,0,1,0-2.383h6.195v-8.22a1.191,1.191,0,0,1,2.383,0V38.4a1.125,1.125,0,0,1-1.191,1.191Z" transform="translate(-19.4 -27.8)"/></g><g transform="translate(46.578 21.085)"><path d="M40.2,18.7v7.981l3.455-2.859,3.455,2.859V18.7Z" transform="translate(-38.89 -17.509)" fill="#c9d8ef"/><path d="M47.32,28.064a1.277,1.277,0,0,1-.715-.238l-2.74-2.263-2.74,2.263a1.278,1.278,0,0,1-1.31.119,1.145,1.145,0,0,1-.715-1.072V18.891A1.125,1.125,0,0,1,40.291,17.7H47.32a1.125,1.125,0,0,1,1.191,1.191v7.981a1.145,1.145,0,0,1-.715,1.072.716.716,0,0,1-.477.119Zm-3.455-5.242a1.277,1.277,0,0,1,.715.238l1.549,1.191V19.963H41.6v4.289l1.549-1.191A1.277,1.277,0,0,1,43.865,22.822Z" transform="translate(-39.1 -17.7)"/></g><g transform="translate(0 73.858)"><path d="M75.049,64.383H1.191a1.191,1.191,0,0,1,0-2.383H75.049a1.191,1.191,0,0,1,0,2.383Z" transform="translate(0 -62)"/></g></g></g></svg>