<svg xmlns="http://www.w3.org/2000/svg" width="190" height="174.872" viewBox="0 0 190 174.872"><g transform="translate(8682 4604.559)"><g transform="translate(-8682 -4604.559)"><path d="M99.783,0A28.944,28.944,0,0,0,79.316,8.478L0,87.794H30.3a28.944,28.944,0,0,0,20.467-8.478L130.082,0Z" transform="matrix(0.998, -0.07, 0.07, 0.998, 0, 9.074)" fill="#dae3f6"/><path d="M124.729,0A36.18,36.18,0,0,0,99.145,10.6L0,109.742H37.874a36.18,36.18,0,0,0,25.584-10.6L162.6,0Z" transform="matrix(0.998, -0.07, 0.07, 0.998, 20.138, 65.397)" fill="#dae3f6"/></g><g transform="translate(-8638.934 -4568.477)"><g transform="translate(2.029 2.029)"><path d="M261.122,422H210v16.229h51.122a8.115,8.115,0,0,0,0-16.229Z" transform="translate(-169.427 -338.419)" fill="#b3f1ff"/><path d="M392.229,252.868v16.807a4.056,4.056,0,0,1-4.057,4.057h-8.115A4.056,4.056,0,0,1,376,269.676v-16.8a12.153,12.153,0,0,1,2.473-7.332,7.516,7.516,0,0,0,1.584-4.788V236h8.115v4.753a7.6,7.6,0,0,0,1.56,4.749A12.362,12.362,0,0,1,392.229,252.868Z" transform="translate(-301.751 -190.152)" fill="#d8ec84"/><path d="M396,196h8.115v8.115H396Z" transform="translate(-317.694 -158.267)" fill="#ffda8f"/><path d="M364.115,422A8.115,8.115,0,1,1,356,430.115,8.115,8.115,0,0,1,364.115,422Z" transform="translate(-285.808 -338.419)" fill="#fff5f5"/><path d="M272.229,252.868v16.807a4.056,4.056,0,0,1-4.057,4.057h-8.115A4.056,4.056,0,0,1,256,269.676v-16.8a12.153,12.153,0,0,1,2.473-7.332,7.516,7.516,0,0,0,1.584-4.788V236h8.115v4.753a7.6,7.6,0,0,0,1.56,4.749A12.362,12.362,0,0,1,272.229,252.868Z" transform="translate(-206.095 -190.152)" fill="#d8ec84"/><path d="M276,196h8.115v8.115H276Z" transform="translate(-222.038 -158.267)" fill="#ffda8f"/><path d="M50.573,353.733H10V316H50.573Z" transform="translate(-10 -253.923)" fill="#ffda8f"/><path d="M62.459,236v8.115l-8.115,8.115H38.115L30,244.115V236Z" transform="translate(-25.943 -190.152)" fill="#fff5f5"/><g transform="translate(8.115)"><path d="M74.344,166.143a8.582,8.582,0,0,1-3.1,6.086H53.1a8.582,8.582,0,0,1-3.1-6.086C50,160.952,53.325,156,58.115,156a6.873,6.873,0,0,1,4.057,1.357A6.873,6.873,0,0,1,66.229,156C70.932,156,74.344,160.826,74.344,166.143Z" transform="translate(-50 -126.382)" fill="#ff7b79"/><path d="M86.229,10v8.115a8.115,8.115,0,0,1-16.229,0V10Z" transform="translate(-65.943 -10)" fill="#ff7b79"/></g></g><g transform="translate(0 0)"><circle cx="1.923" cy="1.923" r="1.923" transform="translate(78.463 91.56)"/><ellipse cx="2.308" cy="1.923" rx="2.308" ry="1.923" transform="translate(20 8.482)"/><path d="M94.183,83.593a6.057,6.057,0,0,0,.353-2.04V64.745a14.314,14.314,0,0,0-2.9-8.575,5.592,5.592,0,0,1-1.16-3.54V39.762a2.029,2.029,0,0,0-2.029-2.029H80.335a2.029,2.029,0,0,0-2.029,2.029V52.63a5.484,5.484,0,0,1-1.174,3.564,14.275,14.275,0,0,0-2.884,8.555v16.8a6.057,6.057,0,0,0,.349,2.029H69.843a6.057,6.057,0,0,0,.349-2.029V64.745a14.314,14.314,0,0,0-2.9-8.575,5.592,5.592,0,0,1-1.16-3.54V39.762a2.029,2.029,0,0,0-2.029-2.029H55.991a2.029,2.029,0,0,0-2.029,2.029V52.63a5.484,5.484,0,0,1-1.174,3.564,14.275,14.275,0,0,0-2.884,8.555v16.8a6.057,6.057,0,0,0,.349,2.029H44.631V64.106A2.029,2.029,0,0,0,42.6,62.077H35.328l4.652-4.652a2.029,2.029,0,0,0,.594-1.434V47.876a2.029,2.029,0,0,0-2.029-2.029H35.5A8.957,8.957,0,0,0,36.5,42.208l7.224-4.816a2.028,2.028,0,0,0,.9-1.688V26.373a2.029,2.029,0,0,0-.761-1.584L31.341,14.765a10.167,10.167,0,0,0,1.118-4.622V4.057h6.086a2.029,2.029,0,0,0,0-4.057H6.086a2.029,2.029,0,1,0,0,4.057h6.086v6.086a10.167,10.167,0,0,0,1.118,4.622L.761,24.788A2.029,2.029,0,0,0,0,26.373V35.7a2.028,2.028,0,0,0,.9,1.688l7.224,4.816a8.952,8.952,0,0,0,1.007,3.639H6.086a2.029,2.029,0,0,0-2.029,2.029v8.115a2.029,2.029,0,0,0,.594,1.434L9.3,62.077H2.029A2.029,2.029,0,0,0,0,64.106v37.733a2.029,2.029,0,0,0,2.029,2.029H13.186a2.029,2.029,0,1,0,0-4.057H4.057V66.134H40.573V99.81H31.444a2.029,2.029,0,1,0,0,4.057h62.28a10.143,10.143,0,0,0,.458-20.275ZM16.229,4.057H28.4v6.086a6.086,6.086,0,1,1-12.172,0ZM8.7,37.714,4.057,34.619V27.348l11.766-9.413a10.135,10.135,0,0,0,12.984,0l11.766,9.413v7.271l-4.643,3.1c-1.4-4.732-5.178-8.1-9.558-8.1a8.614,8.614,0,0,0-2.029.244v-3.49a2.029,2.029,0,0,0-4.057,0v3.49a8.614,8.614,0,0,0-2.029-.244c-4.381,0-8.156,3.366-9.558,8.1ZM32.459,41.79a6.2,6.2,0,0,1-1.906,4.057H14.078a6.2,6.2,0,0,1-1.906-4.057c0-4.035,2.437-8.115,6.086-8.115a4.819,4.819,0,0,1,2.867.971,2.036,2.036,0,0,0,2.38,0,4.82,4.82,0,0,1,2.867-.971C30.027,33.676,32.459,37.749,32.459,41.79ZM15.041,62.077,8.115,55.151V49.905h28.4v5.246l-6.926,6.926ZM82.364,41.79h4.057v4.057H82.364ZM78.306,64.749a10.192,10.192,0,0,1,2.062-6.108,9.495,9.495,0,0,0,1.995-6.011V49.905h4.057V52.63a9.663,9.663,0,0,0,1.96,5.959,10.288,10.288,0,0,1,2.1,6.156V81.552a2.031,2.031,0,0,1-2.029,2.029H80.335a2.031,2.031,0,0,1-2.029-2.029ZM58.02,41.79h4.057v4.057H58.02ZM53.962,64.749a10.192,10.192,0,0,1,2.062-6.108A9.495,9.495,0,0,0,58.02,52.63V49.905h4.057V52.63a9.663,9.663,0,0,0,1.96,5.959,10.288,10.288,0,0,1,2.1,6.156V81.552a2.031,2.031,0,0,1-2.029,2.029H55.991a2.031,2.031,0,0,1-2.029-2.029ZM72.226,99.81h-27.6V87.636h27.6a10.125,10.125,0,0,0,0,12.174Zm8.109,0a6.086,6.086,0,1,1,6.086-6.086A6.093,6.093,0,0,1,80.335,99.81Zm13.389,0h-5.28a10.121,10.121,0,0,0,0-12.172h5.28a6.086,6.086,0,1,1,0,12.172Z" transform="translate(0 0)"/><path d="M42.029,350.057h8.115a2.029,2.029,0,1,0,0-4.057H42.029a2.029,2.029,0,1,0,0,4.057Z" transform="translate(-31.885 -275.808)"/><path d="M42.029,390.057h8.115a2.029,2.029,0,0,0,0-4.057H42.029a2.029,2.029,0,0,0,0,4.057Z" transform="translate(-31.885 -307.694)"/><ellipse cx="2.308" cy="1.923" rx="2.308" ry="1.923" transform="translate(20 100.022)"/></g></g></g></svg>