<svg xmlns="http://www.w3.org/2000/svg" width="135" height="135" viewBox="0 0 135 135"><g transform="translate(-285 -19200.455)"><g transform="translate(0 -88.545)"><g transform="translate(285 19289)" fill="#fff" stroke="#f14141" stroke-width="3"><circle cx="67.5" cy="67.5" r="67.5" stroke="none"/><circle cx="67.5" cy="67.5" r="66" fill="none"/></g><g transform="translate(300.25 19304.045)"><path d="M34.95,66.713a18.975,18.975,0,0,0-4.327,4.909,11.166,11.166,0,0,1-1.05,1.427,4.023,4.023,0,0,1-2.691.74,7.645,7.645,0,0,1-1.128-.078.759.759,0,0,0-.114-.009v4.871H27.9v3.14a.74.74,0,0,0,.666.74c.021,0,.127.011.3.011a10.641,10.641,0,0,0,6.407-2.5V66.583A.724.724,0,0,0,34.95,66.713Z" transform="translate(-3.953 -11.948)" fill="#fdcba0"/><path d="M46.009,21.715,37.722,30.79a1.48,1.48,0,0,0-.387,1V66.946l9.116,5.988H94.676a1.48,1.48,0,0,0,1.48-1.48V22.713a1.48,1.48,0,0,0-1.48-1.48H47.1a1.48,1.48,0,0,0-1.093.482Z" transform="translate(-6.995 -0.154)" fill="#f5b144"/><path d="M94.424,21.233H94.1V68.971a1.48,1.48,0,0,1-1.48,1.48H44.393l-7.311-4.8v1.3L46.2,72.934H94.421a1.48,1.48,0,0,0,1.48-1.48V22.713a1.48,1.48,0,0,0-1.478-1.48Z" transform="translate(-6.929 -0.154)" fill="#f5a92d"/><path d="M46.009,21.77l-8.287,9.075a1.48,1.48,0,0,0-.387,1V67l9.116,5.988V21.446A1.474,1.474,0,0,0,46.009,21.77Z" transform="translate(-6.995 -0.21)" fill="#f8c150"/><path d="M74.64,21.233V37.674a.74.74,0,0,0,.74.74H86.363a.74.74,0,0,0,.74-.74V21.233Z" transform="translate(-16.697 -0.154)" fill="#f77668"/><path d="M15.31,79.887a.775.775,0,0,1-.8-.74V72.364a.775.775,0,0,1,.8-.74h7.37a.775.775,0,0,1,.8.74v6.783a.775.775,0,0,1-.8.74Z" transform="translate(-1.058 -13.259)" fill="#349cbc"/><path d="M71.129,84.263H61.318c-2.943,0-5.254-.465-6.692-1.347a2.442,2.442,0,0,1-1.162-2.26A2.637,2.637,0,0,1,55,78.379c5.424-2.532,8.361-4.958,8.731-7.2A3.114,3.114,0,0,0,62.7,68.381a2.674,2.674,0,0,0-2.04-.687c-1.8,0-4.5.878-8.018,2.607a13.2,13.2,0,0,1-3.631,1.205c-5.589.93-9.072,3.884-11.87,6.258-1.978,1.677-4.228,3.464-6.955,3.5l-.007,12.09,6.6,1.86A38.227,38.227,0,0,0,46.119,96.6a19.983,19.983,0,0,0,8.856-2.013C59,92.711,71.366,85.7,71.366,85.7a.74.74,0,0,0-.238-1.441Z" transform="translate(-5.134 -12.235)" fill="#fdddb6"/><path d="M63.181,77.269a2.637,2.637,0,0,0-1.534,2.277,2.551,2.551,0,0,0,.165,1.062,2.621,2.621,0,0,1,1.37-1.489c5.424-2.532,8.361-4.958,8.731-7.2a2.886,2.886,0,0,0-.114-1.387c-.672,2.117-3.564,4.383-8.618,6.742Z" transform="translate(-13.317 -12.974)" fill="#fdcba0"/><path d="M71.13,90.09h-.485c-2.7,1.521-12.226,6.871-15.666,8.477a19.983,19.983,0,0,1-8.856,2.013,38.225,38.225,0,0,1-9.335-1.387l-6.6-1.86v1.85l6.6,1.86a38.225,38.225,0,0,0,9.335,1.387,19.983,19.983,0,0,0,8.856-2.013C59,98.538,71.371,91.531,71.371,91.531a.74.74,0,0,0-.241-1.441Z" transform="translate(-5.135 -18.062)" fill="#fdcba0"/><path d="M14.505,78.791v2.22a.775.775,0,0,0,.8.74h7.37a.775.775,0,0,0,.8-.74v-2.22Z" transform="translate(-1.057 -15.123)" fill="#3492bc"/><path d="M11.694,99.6a.8.8,0,0,1-.855-.74V81.53a.8.8,0,0,1,.855-.74H24.679a.8.8,0,0,1,.855.74V98.861a.8.8,0,0,1-.855.74Z" transform="translate(-0.104 -15.643)" fill="#4db3ca"/><path d="M24.679,80.79h-.81v16.3a.8.8,0,0,1-.855.74H10.839v1.036a.8.8,0,0,0,.855.74H24.679a.8.8,0,0,0,.855-.74V81.53a.8.8,0,0,0-.855-.74Z" transform="translate(-0.104 -15.643)" fill="#4dabca"/><path d="M88.269,20.64H40.007a1.47,1.47,0,0,0-1.1.5l-8.841,9.672a1.48,1.48,0,0,0-.387,1V54.2a20.873,20.873,0,0,0-3.9,4.613,11.336,11.336,0,0,1-.962,1.318,3.147,3.147,0,0,1-1.931.522v-2a1.48,1.48,0,0,0-1.48-1.48H14.461a1.481,1.481,0,0,0,0,2.96h5.462v3.823H11.872a1.481,1.481,0,0,0,0,2.96H22.928V81.4H11.872a1.481,1.481,0,0,0,0,2.96H24.407a1.48,1.48,0,0,0,1.48-1.48v-.985l5.309,1.5a39.073,39.073,0,0,0,9.516,1.41,20.83,20.83,0,0,0,9.169-2.082c3.906-1.824,14.133-7.736,16.175-8.921H88.269a1.48,1.48,0,0,0,1.48-1.48V22.12A1.48,1.48,0,0,0,88.269,20.64ZM60.128,23.6h8.023V36.327H60.128Zm-21.6,2.334v33.64a25.9,25.9,0,0,0-5.891,3.774V32.384ZM22.883,63.957V63.6a5.887,5.887,0,0,0,4.027-1.386,12.03,12.03,0,0,0,1.325-1.76c.418-.622.888-1.321,1.447-2.024V65.76c0,.016,0,.03,0,.047a9.545,9.545,0,0,1-3.8,1.884V65.437a1.48,1.48,0,0,0-1.48-1.48Zm25.75,16.079c-4.831,2.256-9.2,2.383-16.668.494l-6.077-1.71V70.7a12.234,12.234,0,0,0,5.743-2.651c.5-.4,1-.828,1.532-1.276,2.725-2.312,5.814-4.931,10.8-5.76A15.4,15.4,0,0,0,48.206,59.6,23.72,23.72,0,0,1,53.6,57.7c.829-.181,2.706-.673,2.89.582.125.849-1.332,1.789-2.113,2.294a55.231,55.231,0,0,1-5.76,3.118,4.966,4.966,0,0,0-2.781,4.218,4.611,4.611,0,0,0,2.211,4.209c1.81,1.11,4.452,1.674,7.854,1.674h4.212C56.247,76,51.068,78.9,48.63,80.036Zm38.16-9.2H55.9c-2.807,0-4.986-.428-6.3-1.237a1.682,1.682,0,0,1-.8-1.545,2.009,2.009,0,0,1,1.126-1.7,57.561,57.561,0,0,0,6.067-3.29c1.245-.8,3.837-2.478,3.435-5.211A3.656,3.656,0,0,0,57.9,55.271c-1.136-.786-2.747-.937-4.927-.462a26.671,26.671,0,0,0-6.067,2.146,12.461,12.461,0,0,1-3.426,1.139c-.694.115-1.354.262-1.987.432V23.6H57.173V37.806a1.48,1.48,0,0,0,1.48,1.48H69.631a1.48,1.48,0,0,0,1.48-1.48V23.6H86.79Zm-4.165-4.286a1.48,1.48,0,0,1-1.48,1.48H67.638a1.48,1.48,0,1,1,0-2.96h13.51A1.48,1.48,0,0,1,82.627,66.551Zm-6.54-10.142a1.48,1.48,0,0,1-.079-2.091l2.841-3.066a1.525,1.525,0,0,1,2.171,0l2.841,3.066a1.48,1.48,0,0,1-.079,2.091,1.5,1.5,0,0,1-2.091-.079l-.277-.3V61.24a1.48,1.48,0,1,1-2.96,0V56.032l-.277.3a1.48,1.48,0,0,1-2.091.081Zm-2.275-2.091a1.48,1.48,0,1,1-2.171,2.012l-.277-.3V61.24a1.48,1.48,0,0,1-2.96,0V56.032l-.277.3a1.48,1.48,0,0,1-2.171-2.012L68.8,51.249a1.525,1.525,0,0,1,2.171,0Z" transform="translate(0 0)"/></g></g></g></svg>