<svg xmlns="http://www.w3.org/2000/svg" width="135" height="135" viewBox="0 0 135 135"><g transform="translate(-180 -5863)"><g transform="translate(180 5863)" fill="#fff" stroke="#f14141" stroke-width="3"><circle cx="67.5" cy="67.5" r="67.5" stroke="none"/><circle cx="67.5" cy="67.5" r="66" fill="none"/></g><g transform="translate(239.708 5922.658)"><g transform="translate(-29.897 -29.848)"><g transform="translate(0 0)"><circle cx="30.883" cy="30.883" r="30.883" transform="translate(5.258 5.251)" fill="#ffe27a"/><path d="M38.884,251.211A30.882,30.882,0,0,1,8.028,221.577c-.017.414-.027.83-.027,1.249a30.883,30.883,0,0,0,61.765,0c0-.418-.011-.834-.027-1.249a30.882,30.882,0,0,1-30.856,29.634Z" transform="translate(-2.743 -186.692)" fill="#f9cf58"/><circle cx="25.555" cy="25.555" r="25.555" transform="translate(0 36.134) rotate(-45)" fill="#f9f6f6"/><path d="M71.956,245.883a25.555,25.555,0,0,1-25.524-24.306q-.03.621-.031,1.249a25.555,25.555,0,1,0,51.109,0q0-.628-.031-1.249A25.555,25.555,0,0,1,71.956,245.883Z" transform="translate(-35.815 -186.692)" fill="#ecdaec"/><path d="M116.046,74.324l-15.7,15.7A25.555,25.555,0,1,0,118.415,46.4V68.606" transform="translate(-82.274 -35.821)" fill="#ff4755"/><circle cx="3.349" cy="3.349" r="3.349" transform="translate(32.792 32.785)" fill="#ffe27a"/><path d="M209.786,223.678a3.35,3.35,0,0,1-3.108-2.1,3.349,3.349,0,1,0,6.216,0A3.349,3.349,0,0,1,209.786,223.678Z" transform="translate(-173.645 -186.692)" fill="#f9cf58"/><path d="M118.415,245.883a25.455,25.455,0,0,1-16.778-6.279l-1.292,1.292a25.555,25.555,0,0,0,43.624-18.07q0-.628-.031-1.249A25.555,25.555,0,0,1,118.415,245.883Z" transform="translate(-82.274 -186.692)" fill="#fc2b3a"/></g><path d="M267.537,247.239l-3.207-.482a14.959,14.959,0,0,0-2.358-5.691l1.927-2.609a1.147,1.147,0,0,0-.112-1.493l-1.66-1.66a1.147,1.147,0,0,0-1.493-.112l-2.609,1.927a14.96,14.96,0,0,0-5.691-2.358l-.482-3.207a1.147,1.147,0,0,0-1.135-.977h-2.347a1.147,1.147,0,0,0-1.135.977l-.482,3.207a14.959,14.959,0,0,0-5.691,2.358l-2.609-1.927a1.148,1.148,0,0,0-1.493.112l-1.66,1.66a1.147,1.147,0,0,0-.112,1.493l1.927,2.609a14.96,14.96,0,0,0-2.358,5.691l-3.207.482a1.147,1.147,0,0,0-.977,1.135v2.347a1.147,1.147,0,0,0,.977,1.135l3.207.482a14.96,14.96,0,0,0,2.358,5.691l-1.927,2.609a1.147,1.147,0,0,0,.112,1.493l1.66,1.66a1.147,1.147,0,0,0,1.493.112l2.609-1.927a14.959,14.959,0,0,0,5.691,2.358l.482,3.207a1.147,1.147,0,0,0,1.135.977h2.347a1.147,1.147,0,0,0,1.135-.977l.482-3.207a14.96,14.96,0,0,0,5.691-2.358l2.609,1.927a1.147,1.147,0,0,0,1.493-.112l1.66-1.66a1.147,1.147,0,0,0,.112-1.493l-1.927-2.609a14.96,14.96,0,0,0,2.358-5.691l3.207-.482a1.147,1.147,0,0,0,.977-1.135v-2.347A1.148,1.148,0,0,0,267.537,247.239Zm-17.992,11.918a9.61,9.61,0,1,1,9.61-9.61A9.61,9.61,0,0,1,249.545,259.157Z" transform="translate(-194.435 -194.444)" fill="#4a80aa"/><circle cx="9.61" cy="9.61" r="9.61" transform="translate(45.499 45.493)" fill="#ffe27a"/><path d="M307.637,387.147a9.6,9.6,0,0,0,9.527-10.859,9.608,9.608,0,0,1-19.054,0,9.6,9.6,0,0,0,9.527,10.859Z" transform="translate(-252.527 -319.936)" fill="#407093"/><path d="M307.636,366.65a9.61,9.61,0,0,1-9.527-8.362,9.61,9.61,0,1,0,19.054,0A9.61,9.61,0,0,1,307.636,366.65Z" transform="translate(-252.526 -304.434)" fill="#f9cf58"/></g><g transform="translate(-25.749 -25.706)"><path d="M301.265,290.593a10.672,10.672,0,1,0,3.912,20.6,1.043,1.043,0,0,0-.764-1.94,8.6,8.6,0,1,1,3.085-2.086,1.043,1.043,0,1,0,1.513,1.435,10.672,10.672,0,0,0-7.746-18.012Z" transform="translate(-250.273 -250.273)"/><path d="M69.174,47.648l-2.5-.375a15.909,15.909,0,0,0-1.965-4.741l1.5-2.032A2.179,2.179,0,0,0,66,37.647l-1.663-1.663a2.215,2.215,0,0,0-.568-.41,32.3,32.3,0,0,0,.2-3.588,31.987,31.987,0,0,0-52.6-24.459,1.043,1.043,0,1,0,1.345,1.594A29.9,29.9,0,0,1,61.886,31.986a30.233,30.233,0,0,1-.225,3.667c-.06.036-.119.075-.177.118l-2.033,1.5q-.6-.369-1.217-.68a26.879,26.879,0,0,0,.4-4.606,26.526,26.526,0,0,0-4.454-14.754,1.043,1.043,0,0,0-1.736,1.156,24.449,24.449,0,0,1,4.1,13.6,24.817,24.817,0,0,1-.289,3.773,15.982,15.982,0,0,0-1.548-.451l-.375-2.5a2.179,2.179,0,0,0-2.168-1.866H49.816a2.179,2.179,0,0,0-2.168,1.866l-.375,2.5a15.908,15.908,0,0,0-4.741,1.965l-2.033-1.5a2.179,2.179,0,0,0-2.853.213l-1.663,1.663a2.179,2.179,0,0,0-.213,2.853l1.5,2.033a15.905,15.905,0,0,0-1.965,4.741l-2.5.375a2.179,2.179,0,0,0-1.866,2.168v2.352a2.179,2.179,0,0,0,1.866,2.168l2.5.375a15.981,15.981,0,0,0,.451,1.548,24.816,24.816,0,0,1-3.773.289A24.467,24.467,0,0,1,15.38,50.066L29.7,35.744a4.4,4.4,0,1,0,3.327-8.031V7.447a24.474,24.474,0,0,1,16.934,7.8,1.043,1.043,0,1,0,1.526-1.421,26.647,26.647,0,1,0-19.5,44.806,26.877,26.877,0,0,0,4.606-.4q.313.621.68,1.217l-1.5,2.033c-.042.058-.081.117-.118.177a30.24,30.24,0,0,1-3.667.225A29.9,29.9,0,0,1,9.814,11.925a1.043,1.043,0,0,0-1.546-1.4A31.986,31.986,0,0,0,31.986,63.972a32.3,32.3,0,0,0,3.588-.2,2.214,2.214,0,0,0,.41.567L37.647,66a2.179,2.179,0,0,0,2.853.213l2.033-1.5a15.907,15.907,0,0,0,4.741,1.965l.375,2.5a2.179,2.179,0,0,0,2.168,1.866h2.352a2.179,2.179,0,0,0,2.168-1.866l.375-2.5a15.9,15.9,0,0,0,4.74-1.965l2.033,1.5A2.179,2.179,0,0,0,64.337,66L66,64.337a2.179,2.179,0,0,0,.213-2.853l-1.5-2.033a15.9,15.9,0,0,0,1.965-4.74l2.5-.375a2.179,2.179,0,0,0,1.866-2.168V49.816a2.179,2.179,0,0,0-1.866-2.168ZM34.3,31.986a2.313,2.313,0,1,1-2.313-2.313A2.316,2.316,0,0,1,34.3,31.986ZM7.448,33.029h3.777a1.043,1.043,0,0,0,0-2.085H7.448A24.468,24.468,0,0,1,13.905,15.38l2.663,2.662a1.043,1.043,0,0,0,1.475-1.475L15.38,13.905A24.468,24.468,0,0,1,30.943,7.447V27.713a4.4,4.4,0,0,0-2.716,6.556L13.905,48.592A24.468,24.468,0,0,1,7.448,33.029ZM68.955,52.168a.106.106,0,0,1-.091.106l-3.213.483a1.042,1.042,0,0,0-.87.839,13.874,13.874,0,0,1-2.2,5.306,1.043,1.043,0,0,0,.022,1.208l1.931,2.614a.106.106,0,0,1-.01.139l-1.663,1.663a.106.106,0,0,1-.139.01L60.109,62.6a1.043,1.043,0,0,0-1.208-.022,13.872,13.872,0,0,1-5.306,2.2,1.042,1.042,0,0,0-.839.87l-.483,3.213a.106.106,0,0,1-.106.091H49.816a.106.106,0,0,1-.106-.091l-.483-3.213a1.042,1.042,0,0,0-.839-.87,13.876,13.876,0,0,1-5.306-2.2,1.043,1.043,0,0,0-1.208.022l-2.614,1.931a.108.108,0,0,1-.139-.01l-1.663-1.663a.106.106,0,0,1-.011-.139l1.931-2.614A1.042,1.042,0,0,0,39.4,58.9,13.875,13.875,0,0,1,37.2,53.6a1.042,1.042,0,0,0-.87-.839l-3.213-.483a.108.108,0,0,1-.091-.106V49.816a.106.106,0,0,1,.091-.106l3.213-.483a1.042,1.042,0,0,0,.87-.839,13.875,13.875,0,0,1,2.2-5.306,1.042,1.042,0,0,0-.022-1.208l-1.931-2.614a.107.107,0,0,1,.01-.139l1.663-1.663a.108.108,0,0,1,.139-.011l2.614,1.931a1.043,1.043,0,0,0,1.208.022,13.875,13.875,0,0,1,5.306-2.2,1.043,1.043,0,0,0,.839-.87l.483-3.213a.106.106,0,0,1,.106-.091h2.352a.106.106,0,0,1,.106.091l.483,3.213a1.042,1.042,0,0,0,.839.87A13.875,13.875,0,0,1,58.9,39.4a1.042,1.042,0,0,0,1.208-.022l2.614-1.931a.107.107,0,0,1,.139.01l1.663,1.663a.107.107,0,0,1,.01.139L62.6,41.875a1.043,1.043,0,0,0-.022,1.208,13.874,13.874,0,0,1,2.2,5.306,1.043,1.043,0,0,0,.87.839l3.213.483a.106.106,0,0,1,.091.106v2.352Z" transform="translate(0)"/><path d="M341.91,343.226l-3.9,3.994-1.691-1.644a1.043,1.043,0,0,0-1.454,1.5l2.437,2.37a1.042,1.042,0,0,0,1.473-.02l4.622-4.74a1.043,1.043,0,0,0-1.493-1.456Z" transform="translate(-288.135 -295.332)"/></g></g></g></svg>