<svg xmlns="http://www.w3.org/2000/svg" xmlns:xlink="http://www.w3.org/1999/xlink" width="168" height="156" viewBox="0 0 168 156"><defs><filter id="a" x="0" y="0" width="168" height="156" filterUnits="userSpaceOnUse"><feOffset dy="3" input="SourceAlpha"/><feGaussianBlur stdDeviation="3" result="b"/><feFlood flood-opacity="0.161"/><feComposite operator="in" in2="b"/><feComposite in="SourceGraphic"/></filter></defs><g transform="translate(-402 -1975)"><g transform="translate(78.695 -2356.382)"><g transform="matrix(1, 0, 0, 1, 323.3, 4331.38)" filter="url(#a)"><rect width="150" height="138" rx="17" transform="translate(9 6)" fill="#fff"/></g><g transform="translate(361.84 4360.755)"><g transform="translate(-0.001 11.931)"><g transform="translate(0.888 57.621)"><path d="M89.689,195.962H4.465A1.965,1.965,0,0,0,2.5,197.927a6.915,6.915,0,0,0,6.915,6.915H84.739a6.915,6.915,0,0,0,6.915-6.915A1.965,1.965,0,0,0,89.689,195.962Z" transform="translate(-2.5 -195.962)" fill="#edf4fc"/></g><g transform="translate(29.812 57.621)"><path d="M83.931,195.962v2.122a2.042,2.042,0,0,0,2.042,2.042H113.2a2.042,2.042,0,0,0,2.042-2.042v-2.122Z" transform="translate(-83.931 -195.962)" fill="#c7d7e5"/></g><g transform="translate(7.744 0.888)"><path d="M92.324,36.238h-65.6a4.92,4.92,0,0,0-4.92,4.92V92.971H97.245V41.158A4.921,4.921,0,0,0,92.324,36.238Z" transform="translate(-21.803 -36.238)" fill="#5290db"/></g><g transform="translate(11.47 4.614)"><path d="M99.066,46.729H33.51a1.217,1.217,0,0,0-1.217,1.217v51.79h67.989V47.946A1.216,1.216,0,0,0,99.066,46.729Z" transform="translate(-32.293 -46.729)" fill="#70d6f9"/></g><g transform="translate(35.545 23.552)"><circle cx="9.92" cy="9.92" r="9.92" fill="#edf4fc"/></g><g transform="translate(27.105 15.033)"><path d="M112.611,91.66h-3.629a.42.42,0,0,1-.409-.333,14.162,14.162,0,0,0-1.885-4.55.42.42,0,0,1,.054-.525l2.567-2.567a.419.419,0,0,0,0-.593L106,79.782a.419.419,0,0,0-.593,0l-2.567,2.567a.421.421,0,0,1-.525.054,14.154,14.154,0,0,0-4.55-1.885.421.421,0,0,1-.333-.41V76.479a.419.419,0,0,0-.419-.419H92.33a.419.419,0,0,0-.419.419v3.629a.421.421,0,0,1-.333.41,14.154,14.154,0,0,0-4.55,1.885.421.421,0,0,1-.525-.054l-2.567-2.567a.419.419,0,0,0-.593,0l-3.31,3.31a.419.419,0,0,0,0,.593L82.6,86.252a.42.42,0,0,1,.054.525,14.155,14.155,0,0,0-1.885,4.55.421.421,0,0,1-.409.333h-3.63a.419.419,0,0,0-.419.419V96.76a.419.419,0,0,0,.419.419h3.629a.42.42,0,0,1,.409.333,14.163,14.163,0,0,0,1.885,4.55.421.421,0,0,1-.054.525l-2.567,2.567a.419.419,0,0,0,0,.593l3.31,3.31a.419.419,0,0,0,.593,0l2.567-2.567a.421.421,0,0,1,.525-.054,14.154,14.154,0,0,0,4.55,1.885.421.421,0,0,1,.333.409v3.629a.419.419,0,0,0,.419.419H97.01a.419.419,0,0,0,.419-.419v-3.629a.42.42,0,0,1,.333-.409,14.162,14.162,0,0,0,4.55-1.885.42.42,0,0,1,.525.054l2.567,2.567a.419.419,0,0,0,.593,0l3.31-3.31a.419.419,0,0,0,0-.593l-2.567-2.567a.42.42,0,0,1-.054-.525,14.155,14.155,0,0,0,1.885-4.55.421.421,0,0,1,.409-.333h3.629a.419.419,0,0,0,.419-.419V92.079a.418.418,0,0,0-.418-.419ZM94.67,104.42a9.92,9.92,0,1,1,9.92-9.92,9.92,9.92,0,0,1-9.92,9.92Z" transform="translate(-76.31 -76.06)" fill="#f5c84c"/></g><g transform="translate(40.059 30.158)"><path d="M122.865,119.177a1.824,1.824,0,0,0-2.579,0l-2.926,2.926-1.467-1.467a1.823,1.823,0,0,0-2.579,2.579l2.756,2.756a1.824,1.824,0,0,0,2.579,0l4.215-4.215a1.823,1.823,0,0,0,0-2.579Z" transform="translate(-112.781 -118.643)" fill="#f5c84c"/></g><g transform="translate(11.47 4.614)"><path d="M99.066,46.729H33.51a1.217,1.217,0,0,0-1.217,1.217v3.813h67.989V47.946A1.216,1.216,0,0,0,99.066,46.729Z" transform="translate(-32.293 -46.729)" fill="#dae6f1"/></g><g transform="translate(11.47 4.614)"><path d="M33.51,46.729a1.217,1.217,0,0,0-1.217,1.217v3.813h7.266v-5.03Z" transform="translate(-32.293 -46.729)" fill="#fc657e"/></g><g transform="translate(6.856)"><path d="M90.712,33.738H25.11A5.815,5.815,0,0,0,19.3,39.546V90.973a.888.888,0,1,0,1.776,0V39.546a4.037,4.037,0,0,1,4.032-4.032h65.6a4.037,4.037,0,0,1,4.032,4.032V90.988a.888.888,0,1,0,1.776,0V39.546A5.814,5.814,0,0,0,90.712,33.738Z" transform="translate(-19.302 -33.738)"/></g><g transform="translate(10.582 3.726)"><path d="M97.453,44.229H31.9a2.108,2.108,0,0,0-2.105,2.1V97.753a.888.888,0,0,0,1.776,0V46.334A.329.329,0,0,1,31.9,46H97.453a.33.33,0,0,1,.329.329V97.753a.888.888,0,1,0,1.776,0V46.334A2.107,2.107,0,0,0,97.453,44.229Z" transform="translate(-29.793 -44.229)"/></g><g transform="translate(17.849 4.076)"><path d="M51.138,45.214a.888.888,0,0,0-.888.888v4.347a.888.888,0,0,0,1.776,0V46.1A.888.888,0,0,0,51.138,45.214Z" transform="translate(-50.25 -45.214)"/></g><g transform="translate(11.189 8.757)"><path d="M99.52,58.391H32.388a.888.888,0,1,0,0,1.776H99.52a.888.888,0,0,0,0-1.776Z" transform="translate(-31.5 -58.391)"/></g><g transform="translate(0 56.733)"><path d="M88.077,193.462H2.853A2.856,2.856,0,0,0,0,196.315a7.812,7.812,0,0,0,7.8,7.8H83.127a7.812,7.812,0,0,0,7.8-7.8,2.857,2.857,0,0,0-2.853-2.853Zm-4.951,8.88H7.8a6.034,6.034,0,0,1-6.027-6.027,1.078,1.078,0,0,1,1.077-1.077H88.077a1.078,1.078,0,0,1,1.077,1.077A6.034,6.034,0,0,1,83.127,202.342Z" transform="translate(0 -193.462)"/></g><g transform="translate(28.924 57.08)"><path d="M113.625,194.438a.888.888,0,0,0-.888.888V197.1a1.155,1.155,0,0,1-1.154,1.154H84.362a1.155,1.155,0,0,1-1.154-1.154V195.37a.888.888,0,0,0-1.776,0V197.1a2.933,2.933,0,0,0,2.93,2.93h27.223a2.933,2.933,0,0,0,2.93-2.93v-1.776A.888.888,0,0,0,113.625,194.438Z" transform="translate(-81.432 -194.438)"/></g><g transform="translate(26.217 14.145)"><path d="M93.058,82.08a10.808,10.808,0,1,0,10.808,10.808A10.82,10.82,0,0,0,93.058,82.08Zm0,19.84a9.032,9.032,0,1,1,9.032-9.032A9.042,9.042,0,0,1,93.058,101.92ZM111,89.16h-3.257A14.989,14.989,0,0,0,106.02,85l2.3-2.3a1.308,1.308,0,0,0,0-1.848l-3.31-3.31a1.308,1.308,0,0,0-1.849,0l-2.3,2.3a15.016,15.016,0,0,0-4.155-1.722V74.867A1.309,1.309,0,0,0,95.4,73.56H90.717a1.309,1.309,0,0,0-1.307,1.307v3.256a14.986,14.986,0,0,0-4.155,1.722l-2.3-2.3a1.308,1.308,0,0,0-1.849,0l-3.31,3.31a1.308,1.308,0,0,0,0,1.848L80.1,85a15.016,15.016,0,0,0-1.722,4.155H75.117a1.309,1.309,0,0,0-1.307,1.307v4.681a1.308,1.308,0,0,0,1.307,1.307h3.257a14.994,14.994,0,0,0,1.722,4.155l-2.3,2.3a1.308,1.308,0,0,0,0,1.849l3.31,3.31a1.308,1.308,0,0,0,1.849,0l2.3-2.3a15,15,0,0,0,4.155,1.722v3.257a1.309,1.309,0,0,0,1.307,1.307H95.4a1.309,1.309,0,0,0,1.307-1.307v-3.257a15,15,0,0,0,4.155-1.722l2.3,2.3a1.308,1.308,0,0,0,1.849,0l3.31-3.31a1.308,1.308,0,0,0,0-1.849l-2.3-2.3a15.007,15.007,0,0,0,1.722-4.155H111a1.309,1.309,0,0,0,1.307-1.307V90.467A1.309,1.309,0,0,0,111,89.16Zm-.469,5.52h-3.16a1.3,1.3,0,0,0-1.276,1.029,13.237,13.237,0,0,1-1.768,4.265,1.3,1.3,0,0,0,.175,1.63l2.235,2.235-2.647,2.648-2.235-2.235a1.3,1.3,0,0,0-1.63-.175,13.235,13.235,0,0,1-4.265,1.767,1.3,1.3,0,0,0-1.029,1.276v3.161H91.185v-3.161a1.3,1.3,0,0,0-1.029-1.276,13.242,13.242,0,0,1-4.265-1.767,1.3,1.3,0,0,0-1.63.175l-2.235,2.235-2.647-2.648,2.235-2.235a1.3,1.3,0,0,0,.176-1.63,13.248,13.248,0,0,1-1.767-4.264,1.3,1.3,0,0,0-1.277-1.029h-3.16V90.935h3.16a1.3,1.3,0,0,0,1.276-1.029,13.233,13.233,0,0,1,1.768-4.265,1.3,1.3,0,0,0-.175-1.63l-2.235-2.235,2.647-2.648,2.235,2.235a1.3,1.3,0,0,0,1.63.175,13.235,13.235,0,0,1,4.265-1.767A1.3,1.3,0,0,0,91.186,78.5v-3.16H94.93V78.5a1.3,1.3,0,0,0,1.029,1.276,13.244,13.244,0,0,1,4.266,1.767,1.3,1.3,0,0,0,1.63-.175l2.235-2.235,2.647,2.648L104.5,84.012a1.3,1.3,0,0,0-.175,1.63,13.248,13.248,0,0,1,1.767,4.264,1.3,1.3,0,0,0,1.277,1.029h3.16V94.68Z" transform="translate(-73.81 -73.56)"/></g><g transform="translate(39.172 29.271)"><path d="M121.883,116.938a2.715,2.715,0,0,0-3.835,0l-2.3,2.3-.839-.839a2.711,2.711,0,0,0-3.834,3.834l2.756,2.756a2.711,2.711,0,0,0,3.834,0l4.215-4.215a2.715,2.715,0,0,0,0-3.835Zm-1.256,2.579-4.215,4.215a.959.959,0,0,1-1.324,0l-2.756-2.756a.935.935,0,0,1,1.323-1.323l1.467,1.467a.887.887,0,0,0,1.256,0L119.3,118.2a.936.936,0,0,1,1.324,1.323Z" transform="translate(-110.284 -116.146)"/></g></g></g></g></g></svg>