<svg xmlns="http://www.w3.org/2000/svg" xmlns:xlink="http://www.w3.org/1999/xlink" width="1048" height="240" viewBox="0 0 1048 240"><defs><filter id="a" x="0" y="0" width="1048" height="240" filterUnits="userSpaceOnUse"><feOffset dy="3" input="SourceAlpha"/><feGaussianBlur stdDeviation="3" result="b"/><feFlood flood-opacity="0.161"/><feComposite operator="in" in2="b"/><feComposite in="SourceGraphic"/></filter><clipPath id="c"><rect width="104.748" height="104.748" fill="none"/></clipPath></defs><g transform="translate(-276 -17169.023)"><g transform="matrix(1, 0, 0, 1, 276, 17169.02)" filter="url(#a)"><rect width="1030" height="222" rx="20" transform="translate(9 6)" fill="#fde2e2"/></g><g transform="translate(327 17205.273)"><g transform="translate(2.7 2.7)"><g transform="translate(3.399 69.68)"><path d="M40.4,75.291H4V61.2A18.239,18.239,0,0,1,22.2,43a18.519,18.519,0,0,1,2.192.136,18.219,18.219,0,0,1,15.822,15.5l1.173,8.158.051.136,8.175-3.722,3.365,7.58-7.444,3.4a12.446,12.446,0,0,1-5.133,1.1Z" transform="translate(-4 -43)" fill="#fcd770"/></g><g transform="translate(53.229 83.276)"><path d="M40.288,61.18c.935-1.954.986-2.294.986-2.651a4.134,4.134,0,0,0-4.13-4.13h-.068a4.006,4.006,0,0,0-1.716.374l-2.039.918A9.8,9.8,0,0,1,41.682,51h2.991a6.78,6.78,0,0,1,3.4.918,7.181,7.181,0,0,1,1.411,1.071,6.841,6.841,0,0,1,1.988,4.81,3.409,3.409,0,0,1-3.4,3.4H40.3Z" transform="translate(-33.32 -51)" fill="#b4dd7f"/></g><g transform="translate(50.985 76.478)"><path d="M34.243,58.489l-.017.017-2.226,1V47H49v7.716a6.78,6.78,0,0,0-3.4-.918H42.6a9.8,9.8,0,0,0-8.362,4.691Z" transform="translate(-32 -47)" fill="#aab2bd"/></g><g transform="translate(23.249 62.882)"><path d="M94.4,39v6.8a6.8,6.8,0,0,1-6.8,6.8h-59.4a18.121,18.121,0,0,0-11.982-6.662V40.7H15.68A5.415,5.415,0,0,0,19.5,39.119L19.623,39Z" transform="translate(-15.68 -39)" fill="#ccd1d9"/></g><g transform="translate(24.711 18.695)"><path d="M87,13H25.717A16.925,16.925,0,0,1,16.54,26.443a6.821,6.821,0,0,1,2.481,5.251h5.1a3.4,3.4,0,0,1,3.4,3.4,3.424,3.424,0,0,1-3.4,3.4h-5.1l1.445,14.446c.017.17.017.357.017.527a5.435,5.435,0,0,1-1.462,3.722H93.8V19.8A6.8,6.8,0,0,0,87,13Z" transform="translate(-16.54 -13)" fill="#69d6f4"/></g><g transform="translate(61.182 1.7)"><circle cx="17" cy="17" r="17" transform="translate(0.118 -0.398)" fill="#e6e9ed"/></g><g transform="translate(42.488 45.887)"><path d="M27,29H40.6V39.2H27Z" transform="translate(-27 -29)" fill="#fcd770"/></g><path d="M35.888,20.695a16.925,16.925,0,0,1-9.177,13.443,6.769,6.769,0,0,0-4.317-1.547H15.6a10.047,10.047,0,0,0-4.878,1.241A16.993,16.993,0,1,1,35.99,19,14.042,14.042,0,0,1,35.888,20.695Z" transform="translate(-2 -2)" fill="#e6e9ed"/><g transform="translate(3.399 44.187)"><path d="M14.2,39.9v8.5A14.92,14.92,0,0,1,4,34.237V28H14.2l-1.6,1.6a6.154,6.154,0,0,0,0,8.7Z" transform="translate(-4 -28)" fill="#656d78"/></g><g transform="translate(3.399 30.591)"><path d="M27.793,26.8H23.1a3.414,3.414,0,0,0-3.042,1.869L17.6,33.6H4V30.2a10.223,10.223,0,0,1,5.319-8.956A10.047,10.047,0,0,1,14.2,20H21a6.8,6.8,0,0,1,6.8,6.8Z" transform="translate(-4 -20)" fill="#ff826e"/></g><g transform="translate(16.995 37.389)"><path d="M27.3,24a3.4,3.4,0,0,1,3.4,3.4,3.424,3.424,0,0,1-3.4,3.4H12l2.464-4.929A3.414,3.414,0,0,1,17.506,24H27.3Z" transform="translate(-12 -24)" fill="#fc6e51"/></g><g transform="translate(49.014 86.675)"><path d="M38.879,53a4.134,4.134,0,0,1,4.13,4.13c0,.357-.051.7-.986,2.651A3.949,3.949,0,0,1,40.578,60.9l-6.373,2.889-3.365-7.58,1.971-.9,2.226-1,.017-.017,2.039-.918A4.006,4.006,0,0,1,38.811,53Z" transform="translate(-30.84 -53)" fill="#f0d0b4"/></g><g transform="translate(10.197 44.187)"><path d="M11.4,48.394V39.9L9.8,38.3a6.154,6.154,0,0,1,0-8.7L11.4,28H25L26.44,42.446c.017.17.017.357.017.527A5.435,5.435,0,0,1,25,46.695l-.119.119a5.415,5.415,0,0,1-3.824,1.581H21.6v5.234a18.519,18.519,0,0,0-2.192-.136,18.038,18.038,0,0,0-7.937,1.835l-.068-.136Z" transform="translate(-8 -28)" fill="#f0d0b4"/></g></g><g transform="translate(1 1)"><path d="M18.6,14.586l2.174,6.523h8.023v-3.4H23.22L18.6,3.838,13.181,20.079,11.149,16.01H5v3.4H9.048l4.765,9.527Z" transform="translate(1.798 0.985)"/><path d="M97.872,80.877a8.507,8.507,0,0,0,8.5-8.5V28.192a8.507,8.507,0,0,0-6.876-8.334,18.681,18.681,0,0,0-37.224-.163H38.389A18.695,18.695,0,1,0,8.417,34.6,11.857,11.857,0,0,0,4.4,43.488v9.645A16.583,16.583,0,0,0,14.6,68.452v4.772A19.91,19.91,0,0,0,4.4,90.583V106.37H43.243v-.039a13.973,13.973,0,0,0,5.088-1.224l13.827-6.285a5.792,5.792,0,0,0,1.455-.95H70.68a5.092,5.092,0,0,0,4.786-3.4h25.805a5.1,5.1,0,1,0,0-10.2h-10.2a1.7,1.7,0,0,1-1.7-1.7v-1.7Zm0-3.4H39.219a20.025,20.025,0,0,0-11.026-6.4v-2.5a7.1,7.1,0,0,0,2.318-1.3h72.46v5.1A5.1,5.1,0,0,1,97.872,77.478Zm-30.591,6.8h-3a11.558,11.558,0,0,0-8.9,4.208V80.877h13.6v3.571A8.49,8.49,0,0,0,67.281,84.276Zm-22.41,9.556L44,87.768a19.69,19.69,0,0,0-2.35-6.892H51.985V90.6ZM22.444,45.186l1.23-2.459a1.69,1.69,0,0,1,1.521-.94H34.99a1.7,1.7,0,0,1,0,3.4ZM80.877,6.1a15.3,15.3,0,1,1-15.3,15.3A15.313,15.313,0,0,1,80.877,6.1Zm-18.608,17a18.688,18.688,0,0,0,37.2.28,5.087,5.087,0,0,1,3.506,4.818v35.69H32.74a7.046,7.046,0,0,0,.286-2.723L31.768,48.585H34.99a5.1,5.1,0,0,0,0-10.2H31.42a8.437,8.437,0,0,0-1.385-3.146,18.554,18.554,0,0,0,8.008-12.148ZM4.4,19.695a15.3,15.3,0,1,1,23.076,13.13,8.418,8.418,0,0,0-4.38-1.234H16.3a11.822,11.822,0,0,0-4.764,1A15.3,15.3,0,0,1,4.4,19.695ZM7.8,43.488a8.507,8.507,0,0,1,8.5-8.5h6.8a5.1,5.1,0,0,1,4.8,3.4H25.194a5.072,5.072,0,0,0-4.561,2.818l-1.99,3.98H7.8Zm0,9.645V48.585h4.658a7.789,7.789,0,0,0-1.259,4.25,7.908,7.908,0,0,0,2.3,5.554l1.1,1.1v5.172A13.181,13.181,0,0,1,7.8,53.132Zm8.1,2.853A4.488,4.488,0,0,1,14.6,52.835,4.425,4.425,0,0,1,15.9,49.684l1.1-1.1H28.354L29.645,61.5A3.7,3.7,0,0,1,28.576,64.5a3.743,3.743,0,0,1-2.626,1.088H21.394v3.4h3.4V70.7c-.165-.005-.326-.024-.491-.024A19.773,19.773,0,0,0,18,71.722V58.08Zm31.023,46.028a10.683,10.683,0,0,1-14.651-6.657l-2.451-8.17-3.256.976,2.451,8.17a14.011,14.011,0,0,0,4.349,6.638H7.8V90.583a16.5,16.5,0,0,1,32.84-2.333L41.645,95.3l-2.26,1.028,1.407,3.093,10.063-4.575,1.99,4.477Zm13.829-6.286-4.811,2.187-1.99-4.478,4.721-2.146a2.547,2.547,0,0,1,1.072-.216,2.435,2.435,0,0,1,1.008,4.653Zm9.927-1.254H65.493a5.656,5.656,0,0,0,.088-.962,5.814,5.814,0,0,0-3.766-5.428,8,8,0,0,1,2.468-.408h3a5.1,5.1,0,0,1,5.1,5.1,1.7,1.7,0,0,1-1.7,1.7Zm20.394-6.8h10.2a1.7,1.7,0,0,1,0,3.4H75.607a8.477,8.477,0,0,0-3.227-5.054V80.877h13.6v1.7a5.1,5.1,0,0,0,5.1,5.1Z" transform="translate(-1 -1)"/><path d="M57,42h3.4v3.4H57Z" transform="translate(38.173 27.68)"/><path d="M53,42h3.4v3.4H53Z" transform="translate(35.375 27.68)"/><path d="M49,42h3.4v3.4H49Z" transform="translate(32.576 27.68)"/><path d="M42,8h3.4v3.4H42Z" transform="translate(27.68 3.897)"/><path d="M46,8H59.6v3.4H46Z" transform="translate(30.478 3.897)"/><path d="M42,12h3.4v3.4H42Z" transform="translate(27.68 6.695)"/><path d="M46,12H59.6v3.4H46Z" transform="translate(30.478 6.695)"/><path d="M42,16h3.4v3.4H42Z" transform="translate(27.68 9.493)"/><path d="M46,16H59.6v3.4H46Z" transform="translate(30.478 9.493)"/><path d="M43,28H26V41.6H43ZM39.6,38.2H29.4V31.4H39.6Z" transform="translate(16.488 17.887)"/><path d="M26,24H43v3.4H26Z" transform="translate(16.488 15.089)"/><path d="M26,20H43v3.4H26Z" transform="translate(16.488 12.291)"/><path d="M26,16H43v3.4H26Z" transform="translate(16.488 9.493)"/><path d="M38,34h3.4v3.4H38Z" transform="translate(24.882 22.084)"/><path d="M42,34H70.892v3.4H42Z" transform="translate(27.68 22.084)"/><path d="M38,30H73.69v3.4H38Z" transform="translate(24.882 19.286)"/><path d="M38,26H73.69v3.4H38Z" transform="translate(24.882 16.488)"/></g></g><text transform="translate(344 17332.273)" fill="#12263f" font-size="20" font-family="Roboto-Black, Roboto" font-weight="800"><tspan x="13.971" y="21">C.I.O</tspan></text><text transform="translate(511 17332.273)" fill="#12263f" font-size="20" font-family="Roboto-Black, Roboto" font-weight="800"><tspan x="0.481" y="21">Número De Personas de M.O.D</tspan></text><text transform="translate(844.436 17332.273)" fill="#12263f" font-size="20" font-family="Roboto-Black, Roboto" font-weight="800"><tspan x="3.542" y="21">Jornada laboral</tspan></text><text transform="translate(1062 17318.773)" fill="#12263f" font-size="20" font-family="Roboto-Black, Roboto" font-weight="800"><tspan x="45.348" y="21">Constante de días </tspan></text><g transform="translate(-37 167.273)"><rect width="33.075" height="7" transform="translate(521.962 17110)" fill="#f14141"/><rect width="33.075" height="7" transform="translate(521.962 17094)" fill="#f14141"/></g><g transform="translate(251.903 174.161)"><rect width="39.708" height="5.573" transform="translate(517.679 17083.615) rotate(40)" fill="#f14141"/><rect width="39.707" height="5.573" transform="translate(548.096 17087.885) rotate(140)" fill="#f14141"/></g><g transform="translate(510.903 174.161)"><rect width="39.708" height="5.573" transform="translate(517.679 17083.615) rotate(40)" fill="#f14141"/><rect width="39.707" height="5.573" transform="translate(548.096 17087.885) rotate(140)" fill="#f14141"/></g><g transform="translate(594 17205.273)"><g transform="translate(2.694 2.694)"><g transform="translate(13.718 10.161)"><path d="M26.7,14.774H10.1a8.47,8.47,0,0,1,16.6,0Z" transform="translate(-10.1 -8)" fill="#656d78"/></g><g transform="translate(42.508)"><path d="M43.7,8.774H27.1a8.47,8.47,0,0,1,16.6,0Z" transform="translate(-27.1 -2)" fill="#b27946"/></g><g transform="translate(71.298 10.161)"><path d="M54.8,8.339A8.48,8.48,0,0,1,60.7,14.774H44.1A8.468,8.468,0,0,1,52.4,8,8.685,8.685,0,0,1,54.8,8.339Z" transform="translate(-44.1 -8)" fill="#e6e9ed"/></g><g transform="translate(82.002 6.774)"><path d="M63.257,12.774a6.772,6.772,0,0,1-6.774,6.774h-.169a8.553,8.553,0,0,0,0-3.387A8.48,8.48,0,0,0,50.42,9.726a6.782,6.782,0,0,1,12.837,3.048Z" transform="translate(-50.42 -6)" fill="#e6e9ed"/></g><g transform="translate(10.331 27.266)"><path d="M14.7,19.624A5.074,5.074,0,0,0,19.785,24.7H8.1a8.462,8.462,0,0,1,6.6-6.6Z" transform="translate(-8.1 -18.1)" fill="#b4dd7f"/></g><g transform="translate(22.016 27.266)"><path d="M26.8,25.5a17.982,17.982,0,0,0-1.321,4.251,10.2,10.2,0,0,0-8.79-5.047H15a5.088,5.088,0,0,0,5.081-5.081V18.1A8.477,8.477,0,0,1,26.8,25.5Z" transform="translate(-15 -18.1)" fill="#b4dd7f"/></g><g transform="translate(79.597 27.266)"><path d="M60.855,26.4v1.626A11.368,11.368,0,0,0,52.81,24.7H49a5.088,5.088,0,0,0,5.081-5.081V18.1A8.468,8.468,0,0,1,60.855,26.4Z" transform="translate(-49 -18.1)" fill="#b4dd7f"/></g><g transform="translate(67.793 27.266)"><path d="M53.834,24.7h-.423a11.4,11.4,0,0,0-9.924,5.775H43.47A18.328,18.328,0,0,0,42.03,25.5a8.477,8.477,0,0,1,6.723-7.4v1.524A5.074,5.074,0,0,0,53.834,24.7Z" transform="translate(-42.03 -18.1)" fill="#b4dd7f"/></g><g transform="translate(38.952 17.105)"><path d="M31.774,13.624A5.074,5.074,0,0,0,36.855,18.7,18.544,18.544,0,0,0,25,22.956V20.4a8.468,8.468,0,0,1,6.774-8.3Z" transform="translate(-25 -12.1)" fill="#ff826e"/></g><g transform="translate(50.806 17.105)"><path d="M43.855,20.4v2.557A18.544,18.544,0,0,0,32,18.7a5.088,5.088,0,0,0,5.081-5.081V12.1a8.435,8.435,0,0,1,6.774,8.3Z" transform="translate(-32 -12.1)" fill="#ff826e"/></g><g transform="translate(0 67.285)"><path d="M14.414,47.827l3.963,7.35,3.946,7.333V76.058H2V53.094a11.638,11.638,0,0,1,4.657-9.315,11.457,11.457,0,0,1,4.471-2.049Z" transform="translate(-2 -41.73)" fill="#ff826e"/></g><g transform="translate(20.323 81.781)"><path d="M20.774,56.573V70.121H14V56.573l3.387-6.283v4.59a1.7,1.7,0,0,0,1.694,1.694Z" transform="translate(-14 -50.29)" fill="#ff826e"/></g><g transform="translate(16.377 76.21)"><path d="M13.922,47h5.64A17.651,17.651,0,0,0,19,51.369v1.2l-3.387,6.283L11.67,51.522Z" transform="translate(-11.67 -47)" fill="#e6e9ed"/></g><g transform="translate(16.935 69.435)"><path d="M15.387,43l5.589,2.794a16.386,16.386,0,0,0-1.626,3.98H13.694L12,44.694Z" transform="translate(-12 -43)" fill="#ccd1d9"/></g><g transform="translate(12.414 71.129)"><path d="M15.545,49.081,13.293,53.6,9.33,46.252,13.852,44Z" transform="translate(-9.33 -44)" fill="#fcd770"/></g><g transform="translate(20.323 66.048)"><path d="M19.081,41l5.047,1.016a16.586,16.586,0,0,0-4.539,5.165L14,44.387Z" transform="translate(-14 -41)" fill="#ffc729"/></g><g transform="translate(9.128 66.048)"><path d="M18.584,44.387,15.2,46.081l-4.522,2.252-3.285-6.1a1.248,1.248,0,0,1,.237-.068L13.5,41Z" transform="translate(-7.39 -41)" fill="#ffc729"/></g><g transform="translate(6.774 33.871)"><path d="M31.4,39.85a12.7,12.7,0,0,1-2.354,3.015l-1.2,1.152a7.98,7.98,0,0,0,.169-1.694V39.139a6.79,6.79,0,0,0-5.131-6.571L21.767,32.3l-.017-.017a5.785,5.785,0,0,1-3.844,2.286l-3.912.559a3.4,3.4,0,0,0-2.913,3.353v3.844a7.98,7.98,0,0,0,.169,1.694l-1.2-1.152A12.935,12.935,0,0,1,6,33.431V25.387A3.4,3.4,0,0,1,9.387,22H22.935a10.2,10.2,0,0,1,8.79,5.047,17.615,17.615,0,0,0-.322,3.421Z" transform="translate(-6 -22)" fill="#b27946"/></g><g transform="translate(69.232 33.871)"><path d="M63.406,38.478a3.4,3.4,0,0,0-2.913-3.353l-3.912-.559a5.785,5.785,0,0,1-3.844-2.286l-.017.017-1.118.271a6.79,6.79,0,0,0-5.131,6.571v3.184a7.98,7.98,0,0,0,.169,1.694l-1.2-1.152a12.7,12.7,0,0,1-2.354-3.015V30.468a17.684,17.684,0,0,0-.2-2.693H42.9A11.4,11.4,0,0,1,52.821,22h4.234A11.448,11.448,0,0,1,68.486,33.431a12.935,12.935,0,0,1-4.048,9.433l-1.2,1.152a7.981,7.981,0,0,0,.169-1.694Z" transform="translate(-42.88 -22)" fill="#b27946"/></g><g transform="translate(81.29 67.285)"><path d="M63.548,76.058H50V62.51l3.946-7.333,3.963-7.35,3.285-6.1a11.608,11.608,0,0,1,7.892,6.148,11.707,11.707,0,0,1,1.236,5.216V76.058Z" transform="translate(-50 -41.73)" fill="#e6e9ed"/></g><g transform="translate(74.516 81.781)"><path d="M52.774,56.573V70.121H46V56.573h1.694a1.7,1.7,0,0,0,1.694-1.694V50.29Z" transform="translate(-46 -50.29)" fill="#e6e9ed"/></g><g transform="translate(77.344 76.21)"><path d="M53.31,47l2.252,4.522-3.946,7.333-3.387-6.283v-1.2A17.651,17.651,0,0,0,47.67,47Z" transform="translate(-47.67 -47)" fill="#fcd770"/></g><g transform="translate(75.702 69.435)"><path d="M55.676,44.694l-1.694,5.081H48.326a16.386,16.386,0,0,0-1.626-3.98L52.289,43Z" transform="translate(-46.7 -43)" fill="#ffc729"/></g><g transform="translate(82.984 71.129)"><path d="M57.215,46.252,53.252,53.6,51,49.081,52.694,44Z" transform="translate(-51 -44)" fill="#ff826e"/></g><g transform="translate(81.29 66.048)"><path d="M61.194,42.236l-3.285,6.1-4.522-2.252L50,44.387,55.081,41l5.877,1.169a1.248,1.248,0,0,1,.237.068Z" transform="translate(-50 -41)" fill="#fc6e51"/></g><g transform="translate(71.163 66.048)"><path d="M54.147,44.387l-5.589,2.794a16.586,16.586,0,0,0-4.539-5.165L49.067,41Z" transform="translate(-44.02 -41)" fill="#fc6e51"/></g><g transform="translate(27.097 88.065)"><path d="M28.161,62.468v5.081H18V54h7.13a20.324,20.324,0,0,0,1.016,3.421Z" transform="translate(-18 -54)" fill="#f0d0b4"/></g><g transform="translate(64.355 88.065)"><path d="M50.161,54V67.548H40V62.468l2.015-5.047A20.324,20.324,0,0,0,43.031,54Z" transform="translate(-40 -54)" fill="#f0d0b4"/></g><g transform="translate(23.71 63.627)"><path d="M26.517,64.008H17.694A1.7,1.7,0,0,1,16,62.314V56.522a17.651,17.651,0,0,1,.559-4.369h.017a16.386,16.386,0,0,1,1.626-3.98,16.586,16.586,0,0,1,4.539-5.165,11.843,11.843,0,0,1,1.744-1.135,17.023,17.023,0,0,1,5.877-2.083l1.406-.22,4.945,9.2L43.1,60.621V77.556H29.548V72.476l-2.015-5.047a20.324,20.324,0,0,1-1.016-3.421Z" transform="translate(-16 -39.57)" fill="#b4dd7f"/></g><g transform="translate(50.806 63.627)"><path d="M48.58,64.008a20.324,20.324,0,0,1-1.016,3.421l-2.015,5.047v5.081H32V60.621l6.385-11.855,4.945-9.2,1.406.22a17.023,17.023,0,0,1,5.877,2.083,11.842,11.842,0,0,1,1.744,1.135A16.586,16.586,0,0,1,56.9,48.173a16.386,16.386,0,0,1,1.626,3.98h.017a17.651,17.651,0,0,1,.559,4.369v5.792A1.7,1.7,0,0,1,57.4,64.008H48.58Z" transform="translate(-32 -39.57)" fill="#b4dd7f"/></g><g transform="translate(44.422 72.823)"><path d="M41,45,34.615,56.855,28.23,45Z" transform="translate(-28.23 -45)" fill="#ffeaa7"/></g><g transform="translate(32.177 23.71)"><path d="M39.629,26.161a14.787,14.787,0,0,1-9.382,6.283l-2.473.491V39.71a11.861,11.861,0,0,0,6.774,10.7V50.6a5.066,5.066,0,0,1-4.3,5.013l-1.948.3-1.406.22a17.023,17.023,0,0,0-5.877,2.083L21,58.2V34.629a17.614,17.614,0,0,1,.322-3.421,17.982,17.982,0,0,1,1.321-4.251,18.649,18.649,0,0,1,28.841-6.706,17.627,17.627,0,0,1,1.321,1.2,18.623,18.623,0,0,1,3.81,5.5,18.328,18.328,0,0,1,1.44,4.979,17.683,17.683,0,0,1,.2,2.693V58.2l-.017.017a17.023,17.023,0,0,0-5.877-2.083l-1.406-.22-1.948-.3a5.066,5.066,0,0,1-4.3-5.013v-.051a11.513,11.513,0,0,0,6.774-10.483v-7.13l-2.473-.491a14.845,14.845,0,0,1-9.382-6.283Z" transform="translate(-21 -16)" fill="#656d78"/></g><g transform="translate(16.935 27.097)"><path d="M22.161,18.169v1.524a5.081,5.081,0,1,1-10.161,0V18.169A7.98,7.98,0,0,1,13.694,18h6.774a7.98,7.98,0,0,1,1.694.169Z" transform="translate(-12 -18)" fill="#f0d0b4"/></g><g transform="translate(13.548 16.935)"><path d="M26.766,12a7.98,7.98,0,0,1,.169,1.694,8.468,8.468,0,0,1-16.935,0A7.98,7.98,0,0,1,10.169,12Z" transform="translate(-10 -12)" fill="#f0d0b4"/></g><g transform="translate(45.726 16.935)"><path d="M39.161,12.169v1.524a5.081,5.081,0,0,1-10.161,0V12.169A7.98,7.98,0,0,1,30.694,12h6.774A7.98,7.98,0,0,1,39.161,12.169Z" transform="translate(-29 -12)" fill="#f0d0b4"/></g><g transform="translate(42.339 6.774)"><path d="M43.766,6a7.98,7.98,0,0,1,.169,1.694A8.468,8.468,0,0,1,27,7.694,7.98,7.98,0,0,1,27.169,6Z" transform="translate(-27 -6)" fill="#f0d0b4"/></g><g transform="translate(74.516 27.097)"><path d="M56.161,18.169v1.524a5.081,5.081,0,0,1-10.161,0V18.169A7.981,7.981,0,0,1,47.694,18h6.774a7.981,7.981,0,0,1,1.694.169Z" transform="translate(-46 -18)" fill="#f0d0b4"/></g><g transform="translate(71.129 16.935)"><path d="M60.766,15.387A8.469,8.469,0,0,1,44,13.694,7.981,7.981,0,0,1,44.169,12h16.6a8.553,8.553,0,0,1,0,3.387Z" transform="translate(-44 -12)" fill="#f0d0b4"/></g><g transform="translate(76.21 61.662)"><path d="M52.081,39.409a8.308,8.308,0,0,0,3.98-1l1.1,4.386-5.081,3.387L47,42.8l1.1-4.386Z" transform="translate(-47 -38.41)" fill="#f0d0b4"/></g><g transform="translate(72.823 44.151)"><path d="M51.266,28.07a5.785,5.785,0,0,0,3.844,2.286l3.912.559a3.4,3.4,0,0,1,2.913,3.353v3.844a7.981,7.981,0,0,1-.169,1.694,8.438,8.438,0,0,1-4.319,5.775,8.308,8.308,0,0,1-3.98,1l-3.98-1a8.226,8.226,0,0,1-2.015-1.473,8.545,8.545,0,0,1-2.3-4.3A7.981,7.981,0,0,1,45,38.113V34.929a6.79,6.79,0,0,1,5.131-6.571l1.118-.271Z" transform="translate(-45 -28.07)" fill="#f0d0b4"/></g><g transform="translate(15.242 61.662)"><path d="M21.161,42.8l-5.081,3.387L11,42.8l1.1-4.386a8.308,8.308,0,0,0,3.98,1l3.98-1Z" transform="translate(-11 -38.41)" fill="#f0d0b4"/></g><g transform="translate(11.855 44.151)"><path d="M20.8,28.358a6.79,6.79,0,0,1,5.131,6.571v3.184a7.981,7.981,0,0,1-.169,1.694,8.545,8.545,0,0,1-2.3,4.3,8.226,8.226,0,0,1-2.015,1.473l-3.98,1a8.308,8.308,0,0,1-3.98-1,8.438,8.438,0,0,1-4.319-5.775A7.98,7.98,0,0,1,9,38.113V34.268a3.4,3.4,0,0,1,2.913-3.353l3.912-.559a5.785,5.785,0,0,0,3.844-2.286l.017.017Z" transform="translate(-9 -28.07)" fill="#f0d0b4"/></g><g transform="translate(39.477 58.123)"><path d="M47.97,41.824l-4.945,9.2H30.255l-4.945-9.2,1.948-.3a5.066,5.066,0,0,0,4.3-5.013V36.32a11.813,11.813,0,0,0,5.131,1.152H37a11.322,11.322,0,0,0,4.725-1.016v.051a5.066,5.066,0,0,0,4.3,5.013Z" transform="translate(-25.31 -36.32)" fill="#f0d0b4"/></g><g transform="translate(38.952 33.871)"><path d="M48.71,28.774V35.9a11.513,11.513,0,0,1-6.774,10.483A11.322,11.322,0,0,1,37.21,47.4h-.3A11.876,11.876,0,0,1,25,35.548V28.774l2.473-.491A14.787,14.787,0,0,0,36.855,22a14.845,14.845,0,0,0,9.382,6.283Z" transform="translate(-25 -22)" fill="#f0d0b4"/></g></g><g transform="translate(1 1)"><path d="M100.664,70.666a13.45,13.45,0,0,0-5.391-2.41l-4.827-.965-.54-2.164A10.179,10.179,0,0,0,93.8,59.475l.86-.82A14.713,14.713,0,0,0,99.226,48a13.06,13.06,0,0,0-3.387-8.771v-.97a10.167,10.167,0,0,0-6.629-9.514A10.178,10.178,0,0,0,91.9,24.595,8.449,8.449,0,1,0,83.889,11.3a10.141,10.141,0,0,0-8.522,17.44,10.1,10.1,0,0,0-5.309,4.551,20.509,20.509,0,0,0-3.009-3.363V28.1a10.167,10.167,0,0,0-6.629-9.514,10.161,10.161,0,1,0-13.84,0A10.167,10.167,0,0,0,39.952,28.1v1.831a20.5,20.5,0,0,0-3.009,3.362,10.111,10.111,0,0,0-5.311-4.551,10.16,10.16,0,1,0-13.841,0,10.183,10.183,0,0,0-6.063,6.264,5.083,5.083,0,0,0-3.953,4.945V48A14.719,14.719,0,0,0,12.34,58.653l.862.821a10.185,10.185,0,0,0,3.892,5.651l-.54,2.164-4.827.965A13.346,13.346,0,0,0,1,81.34V106H106V81.34A13.414,13.414,0,0,0,100.664,70.666ZM32.83,59.477l.347-.332v8.5c-.152.1-.31.19-.459.293l-3.24-.647-.54-2.164a10.185,10.185,0,0,0,3.892-5.651ZM28.452,70.54l1.067.213a18.185,18.185,0,0,0-1.55,1.959l-1.585-.793ZM22.544,77.21,21.7,74.681l1.316-.659,3.3,1.651q-.333.752-.6,1.534H22.544Zm-3.9-1,.854,2.562-.484.969-1.577-2.928ZM22.369,80.6h2.545a19.073,19.073,0,0,0-.2,2.674v.769l-1.694,3.145-2.042-3.8Zm2.34,10.588.351-.65A3.381,3.381,0,0,0,28.1,92.452v10.161H24.71Zm6.774,1.267h4.11a20.984,20.984,0,0,0,.764,2.349l1.9,4.75v3.062H31.484ZM39.5,93.542a17.407,17.407,0,0,1-.354-11.962l.715-2.142-3.211-1.072-.716,2.142a20.8,20.8,0,0,0-1.065,6.573q0,1,.095,1.983H28.1V83.271A15.162,15.162,0,0,1,41.022,68.205l.217-.034L51.806,87.8v14.815H41.645V98.9Zm14-54.21A16.312,16.312,0,0,0,62.542,44.5l1.119.224v5.739a9.818,9.818,0,0,1-9.806,9.807h-.3A10.2,10.2,0,0,1,43.339,50.11V44.727l1.119-.224A16.312,16.312,0,0,0,53.5,39.332ZM49.759,63.114a13.657,13.657,0,0,0,3.8.547h.3a13.175,13.175,0,0,0,3.409-.462,6.7,6.7,0,0,0,4.962,4.393l-3.355,6.231H48.128l-3.355-6.231a6.7,6.7,0,0,0,4.986-4.478ZM53.5,83.8l-3.548-6.59h7.1Zm1.694,4L65.763,68.173l.217.034A15.159,15.159,0,0,1,78.9,83.271v5.794H72.036q.091-.986.093-1.983a20.757,20.757,0,0,0-1.067-6.573l-.715-2.142-3.211,1.072.713,2.141A17.4,17.4,0,0,1,67.5,93.542L65.355,98.9v3.712H55.194ZM73.823,59.145l.347.33a10.185,10.185,0,0,0,3.892,5.651l-.54,2.164-3.24.647c-.149-.1-.307-.195-.459-.293ZM84.456,77.21H81.279q-.267-.785-.6-1.534l3.3-1.653,1.316.659Zm-5.426-4.5a18.614,18.614,0,0,0-1.55-1.959l1.067-.213,2.07,1.379ZM68.742,99.551l1.9-4.75a20.534,20.534,0,0,0,.764-2.349h4.11v10.161H68.742Zm10.161-7.1a3.38,3.38,0,0,0,3.037-1.917l.351.65v11.428H78.9Zm5.081-5.267L82.29,84.04v-.769a18.82,18.82,0,0,0-.207-2.674h2.545l1.4,2.794Zm4.007-7.441-.484-.969.854-2.562,1.208.6ZM92.6,71.177l-1.429,2.654-3.822-1.912,2.07-1.379ZM87.132,68l-3.148,2.1-3.148-2.1.337-1.35a9.966,9.966,0,0,0,5.623,0Zm3.626-11.108a6.774,6.774,0,1,1-13.548,0V53.708a5.073,5.073,0,0,1,3.849-4.928l.139-.036a7.509,7.509,0,0,0,4.188,2.07l3.917.561a1.7,1.7,0,0,1,1.455,1.675Zm4.5-5.3a11.321,11.321,0,0,1-1.113,2.357V53.05a5.1,5.1,0,0,0-4.361-5.028l-3.917-.561a4.183,4.183,0,0,1-3.577-4.122H78.9a7.48,7.48,0,0,0,.41,2.442,8.455,8.455,0,0,0-5.49,7.927V45.032a20.287,20.287,0,0,0-.137-2.28,9.759,9.759,0,0,1,8.185-4.495H86.1A9.753,9.753,0,0,1,95.839,48a11.288,11.288,0,0,1-.581,3.584Zm-9.58-20.1a3.387,3.387,0,1,1-6.774,0Zm6.469,4.876a13.017,13.017,0,0,0-4.112-1.329,6.7,6.7,0,0,0,.938-2.654A6.757,6.757,0,0,1,92.147,36.36ZM82.29,28.1a6.781,6.781,0,0,1-6.774-6.774H89.065A6.781,6.781,0,0,1,82.29,28.1Zm8.468-16.935A5.056,5.056,0,0,1,92.435,21a10.158,10.158,0,0,0-5.111-8.488A5.053,5.053,0,0,1,90.758,11.161ZM82.29,14.548a6.752,6.752,0,0,1,5.833,3.387H76.459A6.747,6.747,0,0,1,82.29,14.548ZM75.6,32.358a6.708,6.708,0,0,0,1.5,3.431,13.222,13.222,0,0,0-4.351,2.786c-.159-.474-.322-.945-.515-1.4A6.726,6.726,0,0,1,75.6,32.358Zm-12.012-4.94a20.2,20.2,0,0,0-4.755-1.973,6.694,6.694,0,0,0,1.346-3.23A6.741,6.741,0,0,1,63.592,27.418Zm-13.479-6.1h6.774a3.387,3.387,0,1,1-6.774,0ZM53.5,17.935a6.781,6.781,0,0,1-6.774-6.774H60.274A6.781,6.781,0,0,1,53.5,17.935Zm0-13.548a6.752,6.752,0,0,1,5.833,3.387H47.669A6.747,6.747,0,0,1,53.5,4.387ZM46.816,22.215a6.694,6.694,0,0,0,1.346,3.23,20.2,20.2,0,0,0-4.755,1.973,6.746,6.746,0,0,1,3.409-5.2ZM53.5,28.1A16.955,16.955,0,0,1,70.435,45.032V65.926a18.877,18.877,0,0,0-3.941-1.067l-3.348-.515A3.36,3.36,0,0,1,60.408,61.9a13.192,13.192,0,0,0,6.639-11.435V41.95L63.2,41.181a12.934,12.934,0,0,1-8.012-5.172V31.484H51.8v4.525a12.943,12.943,0,0,1-8.012,5.172l-3.841.769v8.16a13.534,13.534,0,0,0,6.681,11.643,3.361,3.361,0,0,1-2.779,2.591l-3.348.515a18.877,18.877,0,0,0-3.941,1.067V45.032A16.955,16.955,0,0,1,53.5,28.1ZM34.761,37.173c-.12.285-.212.581-.32.87a11.915,11.915,0,0,0-4.31-2.54,6.7,6.7,0,0,0,1.263-3.147,6.716,6.716,0,0,1,3.367,4.816ZM21.323,31.484H28.1a3.387,3.387,0,1,1-6.774,0ZM24.71,28.1a6.781,6.781,0,0,1-6.774-6.774H31.484A6.781,6.781,0,0,1,24.71,28.1Zm0-13.548a6.752,6.752,0,0,1,5.833,3.387H18.879A6.747,6.747,0,0,1,24.71,14.548Zm-6.686,17.8a6.69,6.69,0,0,0,.855,2.52H15.468A6.8,6.8,0,0,1,18.024,32.351Zm-6.281,19.23A11.27,11.27,0,0,1,11.161,48V39.952a1.7,1.7,0,0,1,1.694-1.694H26.4a8.5,8.5,0,0,1,7.021,3.766,20.472,20.472,0,0,0-.247,3.008v8.676a8.454,8.454,0,0,0-5.49-7.927,7.48,7.48,0,0,0,.41-2.442H24.71a4.186,4.186,0,0,1-3.575,4.124l-3.917.561a5.1,5.1,0,0,0-4.363,5.026v.891a11.335,11.335,0,0,1-1.113-2.359Zm4.5,1.468A1.7,1.7,0,0,1,17.7,51.373l3.917-.561a7.525,7.525,0,0,0,4.188-2.07l.141.036a5.076,5.076,0,0,1,3.849,4.93v3.179a6.774,6.774,0,1,1-13.548,0Zm6.774,14a10.081,10.081,0,0,0,2.811-.4l.337,1.35-3.148,2.1-3.148-2.1.337-1.35A10.081,10.081,0,0,0,23.016,67.048ZM17.58,70.54l2.07,1.379-3.822,1.912L14.4,71.177ZM4.387,81.34a9.883,9.883,0,0,1,6.6-9.357l10.339,19.2v11.426H11.161V83.984H7.774v18.629H4.387Zm98.226,21.273H99.226V83.984H95.839v18.629H85.677V91.187l10.339-19.2a9.877,9.877,0,0,1,6.6,9.355Z" transform="translate(-1 -1)"/><path d="M34.7,36.391a7.133,7.133,0,0,0,6.417-3.966l.178-.357-3.03-1.516-.178.359a3.787,3.787,0,0,1-6.774,0l-.178-.357-3.03,1.516.178.356A7.133,7.133,0,0,0,34.7,36.391Z" transform="translate(17.799 19.496)"/></g></g><g transform="translate(866 17206.527)"><g clip-path="url(#c)"><path d="M103.263,44.594a11.2,11.2,0,0,1-10.115-7.46Q92.62,35.719,92,34.353a11.224,11.224,0,0,1,1.86-12.459,1.637,1.637,0,0,0-.1-2.2l-8.7-8.7a1.638,1.638,0,0,0-2.2-.1A11.235,11.235,0,0,1,70.4,12.75q-1.366-.622-2.782-1.149a11.162,11.162,0,0,1-7.46-10.113A1.637,1.637,0,0,0,58.526,0h-12.3a1.636,1.636,0,0,0-1.629,1.486A11.2,11.2,0,0,1,37.133,11.6q-1.414.528-2.78,1.149a11.227,11.227,0,0,1-12.46-1.86,1.637,1.637,0,0,0-2.2.1l-8.7,8.7a1.637,1.637,0,0,0-.1,2.2,11.233,11.233,0,0,1,1.86,12.459q-.62,1.366-1.149,2.78a11.162,11.162,0,0,1-10.113,7.46A1.637,1.637,0,0,0,0,46.223v12.3a1.637,1.637,0,0,0,1.486,1.63A11.2,11.2,0,0,1,11.6,67.616q.528,1.414,1.149,2.781a11.223,11.223,0,0,1-1.86,12.46,1.636,1.636,0,0,0,.1,2.2l8.7,8.7a1.634,1.634,0,0,0,2.2.1A11.232,11.232,0,0,1,34.352,92q1.368.62,2.781,1.149a11.212,11.212,0,0,1,7.46,10.115,1.636,1.636,0,0,0,1.629,1.485h12.3a1.637,1.637,0,0,0,1.63-1.486,11.2,11.2,0,0,1,7.46-10.113Q69.029,92.621,70.4,92a11.225,11.225,0,0,1,12.46,1.86,1.634,1.634,0,0,0,2.2-.1l8.7-8.7a1.637,1.637,0,0,0,.1-2.2A11.235,11.235,0,0,1,92,70.4q.62-1.366,1.149-2.78a11.162,11.162,0,0,1,10.113-7.46,1.637,1.637,0,0,0,1.486-1.63v-12.3A1.636,1.636,0,0,0,103.263,44.594Zm-1.788,12.459a14.4,14.4,0,0,0-11.394,9.42q-.487,1.307-1.062,2.57A14.468,14.468,0,0,0,90.4,83.786L83.785,90.4A14.469,14.469,0,0,0,69.04,89.02q-1.261.575-2.569,1.062a14.4,14.4,0,0,0-9.42,11.394H47.7a14.4,14.4,0,0,0-9.42-11.394q-1.309-.488-2.571-1.062A14.465,14.465,0,0,0,20.963,90.4l-6.617-6.615a14.467,14.467,0,0,0,1.383-14.743q-.574-1.263-1.062-2.57A14.4,14.4,0,0,0,3.273,57.052V47.7a14.4,14.4,0,0,0,11.393-9.419q.489-1.308,1.063-2.572a14.466,14.466,0,0,0-1.383-14.743l6.616-6.616a14.473,14.473,0,0,0,14.744,1.382q1.263-.574,2.569-1.061A14.4,14.4,0,0,0,47.7,3.274h9.355a14.4,14.4,0,0,0,9.422,11.394q1.306.486,2.569,1.062a14.475,14.475,0,0,0,14.743-1.383L90.4,20.964a14.466,14.466,0,0,0-1.382,14.743q.575,1.263,1.062,2.571a14.4,14.4,0,0,0,11.394,9.42Z" transform="translate(0 -0.001)"/><path d="M105.068,60.647a14.4,14.4,0,0,0-11.394,9.42q-.487,1.307-1.062,2.57a14.468,14.468,0,0,0,1.382,14.743L87.378,94a14.469,14.469,0,0,0-14.745-1.382q-1.261.575-2.569,1.062a14.4,14.4,0,0,0-9.42,11.394H51.29a14.4,14.4,0,0,0-9.42-11.394q-1.309-.488-2.571-1.062a14.465,14.465,0,0,0-14.743,1.381L17.94,87.379a14.467,14.467,0,0,0,1.383-14.743q-.574-1.263-1.062-2.57A14.4,14.4,0,0,0,6.867,60.646V51.291A14.4,14.4,0,0,0,18.26,41.872q.489-1.308,1.063-2.572A14.466,14.466,0,0,0,17.94,24.557l6.616-6.616A14.473,14.473,0,0,0,39.3,19.323q1.263-.574,2.569-1.061A14.4,14.4,0,0,0,51.29,6.868h9.355a14.4,14.4,0,0,0,9.422,11.394q1.306.486,2.569,1.062a14.475,14.475,0,0,0,14.743-1.383l6.616,6.616A14.466,14.466,0,0,0,92.613,39.3q.575,1.263,1.062,2.571a14.4,14.4,0,0,0,11.394,9.42Z" transform="translate(-3.594 -3.594)" fill="#fbdab3"/><path d="M77.652,48.3A29.349,29.349,0,1,0,107,77.653,29.383,29.383,0,0,0,77.652,48.3Zm0,55.425a26.076,26.076,0,1,1,26.076-26.076,26.1,26.1,0,0,1-26.076,26.076" transform="translate(-25.278 -25.278)"/><path d="M81.246,107.322a26.076,26.076,0,1,1,26.076-26.076,26.1,26.1,0,0,1-26.076,26.076" transform="translate(-28.872 -28.872)" fill="#2c78dc"/><path d="M103.727,82.948H98.161V81.03A3.567,3.567,0,0,0,94.6,77.467h-6.02a3.567,3.567,0,0,0-3.562,3.563v1.918H79.443a4.521,4.521,0,0,0-4.516,4.516v3.362a4.482,4.482,0,0,0,2.189,3.855v9.306a4.38,4.38,0,0,0,4.375,4.375h20.188a4.38,4.38,0,0,0,4.374-4.375v-9.3a4.485,4.485,0,0,0,2.189-3.856V87.463A4.52,4.52,0,0,0,103.727,82.948ZM88.29,81.03a.289.289,0,0,1,.289-.289H94.6a.289.289,0,0,1,.288.289v1.918h-6.6ZM78.2,87.463a1.244,1.244,0,0,1,1.242-1.243c8.029,0,17.217,0,24.285,0a1.244,1.244,0,0,1,1.242,1.243v3.362a1.238,1.238,0,0,1-.872,1.186l-11.286,3.52a4.1,4.1,0,0,1-2.453,0l-11.285-3.52a1.237,1.237,0,0,1-.873-1.186V87.463Zm23.479,17.624H81.491a1.1,1.1,0,0,1-1.1-1.1V95.851l8.994,2.805a7.354,7.354,0,0,0,4.4,0l8.993-2.805v8.135a1.1,1.1,0,0,1-1.1,1.1" transform="translate(-39.211 -40.54)"/><path d="M102.969,84.624a.289.289,0,0,1,.289-.289h6.02a.289.289,0,0,1,.289.289v1.918h-6.6Z" transform="translate(-53.886 -44.134)" fill="#f7931e"/><path d="M81.8,97.075a1.243,1.243,0,0,1,1.242-1.242c8.03,0,17.217,0,24.285,0a1.243,1.243,0,0,1,1.242,1.242v3.362a1.237,1.237,0,0,1-.872,1.186l-11.286,3.52a4.1,4.1,0,0,1-2.453,0l-11.285-3.52a1.238,1.238,0,0,1-.873-1.186Z" transform="translate(-42.809 -50.152)" fill="#f7931e"/><path d="M107.684,125.271H87.5a1.1,1.1,0,0,1-1.1-1.1v-8.135l8.994,2.805a7.355,7.355,0,0,0,4.4,0l8.993-2.805v8.135a1.1,1.1,0,0,1-1.1,1.1" transform="translate(-45.212 -60.723)" fill="#f7931e"/></g></g><g transform="translate(0 -42.353)"><rect width="121" height="105" transform="translate(1125 17249)" fill="none"/><g transform="translate(1125 17175.742)"><g transform="translate(1.771 92.609)"><path d="M150.025,187.417h-79a2.4,2.4,0,0,1-2.39-2.21l-5.448-69.471H147l5.418,69.1a2.4,2.4,0,0,1-2.39,2.585Z" transform="translate(-50.023 -115.735)" fill="#31a7fb"/><path d="M152.337,183.835H82.5a7.214,7.214,0,0,1-6.934-5.28l-10.4-37.673-1.973-25.15H147Z" transform="translate(-50.025 -115.732)" fill="#1c96f9"/><path d="M27.075,186.949l-10.683-6.267-6.8-.862a2.4,2.4,0,0,1-2.043-2.881l13.107-61.2Z" transform="translate(-7.494 -115.734)" fill="#1785f8"/><path d="M49.405,115.735l6.419,71.214-10.683-6.267Z" transform="translate(-36.244 -115.734)" fill="#1576f7"/><g transform="translate(13.161 0)"><path d="M167.39,176.006,151.23,117.5a2.4,2.4,0,0,0-2.311-1.759H63.184l17,61.547a2.4,2.4,0,0,0,2.311,1.759h82.586A2.4,2.4,0,0,0,167.39,176.006Z" transform="translate(-63.184 -115.735)" fill="#eaf6ff"/><path d="M413.737,179.04h-8.785A2.4,2.4,0,0,0,407.264,176l-16.16-58.51a2.4,2.4,0,0,0-2.311-1.76h8.785a2.4,2.4,0,0,1,2.311,1.76L416.049,176A2.4,2.4,0,0,1,413.737,179.04Z" transform="translate(-311.842 -115.732)" fill="#d9ecfd"/><path d="M155.074,131.413l-3.844-13.918a2.4,2.4,0,0,0-2.311-1.759H63.184l4.33,15.678Z" transform="translate(-63.184 -115.734)" fill="#f14141"/><path d="M391.1,117.492l3.844,13.918h8.785l-3.844-13.918a2.4,2.4,0,0,0-2.311-1.76h-8.785A2.4,2.4,0,0,1,391.1,117.492Z" transform="translate(-311.842 -115.732)" fill="#fb3a82"/></g></g><path d="M151.312,228.675l-3.052-9.516a2.4,2.4,0,0,0-2.283-1.665H138.95a2.4,2.4,0,0,0-2.283,3.13l3.052,9.516A2.4,2.4,0,0,0,142,231.8h7.027a2.4,2.4,0,0,0,2.283-3.13Z" transform="translate(-104.28 -100.835)" fill="#31a7fb"/><g transform="translate(0 85.453)"><path d="M120.847,152.408,105.255,95.951A7.151,7.151,0,0,0,93.546,87.9a7.141,7.141,0,0,0-10.767,0,7.141,7.141,0,0,0-10.767,0,7.141,7.141,0,0,0-10.767,0,7.141,7.141,0,0,0-10.767,0,7.141,7.141,0,0,0-10.767,0,7.141,7.141,0,0,0-10.767,0,7.15,7.15,0,0,0-12.326,2.973H15.3a1.774,1.774,0,0,0-2.1,1.362L3.767,136.286a1.772,1.772,0,1,0,3.466.742l4.337-20.25L9.023,155.562l-4.931-.626a.625.625,0,0,1-.533-.751l1.9-8.863a1.772,1.772,0,1,0-3.466-.742l-1.9,8.863a4.17,4.17,0,0,0,3.553,5.01l6.44.817,10.37,6.083.018.009a4.134,4.134,0,0,0,2.3.7h79a4.17,4.17,0,0,0,4.157-4.5l-.3-3.879h11.2a4.17,4.17,0,0,0,4.02-5.28ZM17.261,94.382H26.7a3.612,3.612,0,0,1-3.142,1.838,1.772,1.772,0,0,0,0,3.545,7.168,7.168,0,0,0,6.933-5.383h6.976a3.612,3.612,0,0,1-3.142,1.838,1.772,1.772,0,0,0,0,3.545,7.168,7.168,0,0,0,6.933-5.383h6.976a3.612,3.612,0,0,1-3.142,1.838,1.772,1.772,0,0,0,0,3.545,7.168,7.168,0,0,0,6.933-5.383H59a3.612,3.612,0,0,1-3.142,1.838,1.772,1.772,0,0,0,0,3.545,7.168,7.168,0,0,0,6.933-5.383H69.77a3.612,3.612,0,0,1-3.142,1.838,1.772,1.772,0,0,0,0,3.545,7.168,7.168,0,0,0,6.933-5.383h6.976A3.612,3.612,0,0,1,77.4,96.22a1.772,1.772,0,0,0,0,3.545,7.168,7.168,0,0,0,6.933-5.383h6.976a3.612,3.612,0,0,1-3.142,1.838,1.772,1.772,0,1,0,0,3.545A7.168,7.168,0,0,0,95.1,94.382h5.572a.627.627,0,0,1,.6.459l.113.41a3.594,3.594,0,0,1-2.454.969,1.772,1.772,0,1,0,0,3.545,7.113,7.113,0,0,0,3.454-.891l2.11,7.641H20.612ZM98.93,89a3.614,3.614,0,0,1,3.3,2.147,4.14,4.14,0,0,0-1.56-.308l-4.883,0A3.612,3.612,0,0,1,98.93,89ZM88.162,89a3.612,3.612,0,0,1,3.146,1.844l-6.293,0A3.612,3.612,0,0,1,88.162,89ZM77.4,89a3.612,3.612,0,0,1,3.149,1.849l-6.3,0A3.612,3.612,0,0,1,77.4,89ZM66.628,89a3.612,3.612,0,0,1,3.152,1.854l-6.305,0A3.613,3.613,0,0,1,66.628,89ZM55.861,89a3.612,3.612,0,0,1,3.155,1.858l-6.311,0A3.613,3.613,0,0,1,55.861,89ZM45.093,89a3.613,3.613,0,0,1,3.158,1.863l-6.317,0A3.613,3.613,0,0,1,45.093,89ZM34.326,89a3.614,3.614,0,0,1,3.161,1.868l-6.323,0A3.613,3.613,0,0,1,34.326,89ZM23.559,89a3.613,3.613,0,0,1,3.164,1.873l-6.329,0A3.614,3.614,0,0,1,23.559,89Zm-8.47,28.281,3.355,42.784-5.936-3.482ZM117.325,153.9a.614.614,0,0,1-.5.246H92.883a1.772,1.772,0,1,0,0,3.545h9.188l.326,4.156a.625.625,0,0,1-.623.674h-79a.628.628,0,0,1-.623-.576l-4-51.045,6.048,21.9a1.773,1.773,0,0,0,3.417-.944l-6.019-21.793h83.882l11.957,43.292A.614.614,0,0,1,117.325,153.9Z" transform="translate(0 -85.453)"/><path d="M169.665,326.327h-50.15a.626.626,0,0,1-.6-.459l-3.769-13.646a1.773,1.773,0,0,0-3.417.944l3.769,13.646a4.181,4.181,0,0,0,4.019,3.06h50.15a1.773,1.773,0,0,0,0-3.545Z" transform="translate(-85.274 -257.637)"/><path d="M132.3,224.953a4.157,4.157,0,0,0,3.971,2.9h7.026a4.17,4.17,0,0,0,3.971-5.444l-3.052-9.516a4.158,4.158,0,0,0-3.971-2.9h-7.027a4.17,4.17,0,0,0-3.971,5.444Zm.413-11.158a.613.613,0,0,1,.505-.257h7.027a.623.623,0,0,1,.6.434l3.052,9.516a.625.625,0,0,1-.6.816h-7.026a.623.623,0,0,1-.6-.434l-3.052-9.516A.613.613,0,0,1,132.71,213.795Z" transform="translate(-98.545 -180.561)"/><path d="M218.465,216.582h3.272a1.772,1.772,0,0,0,0-3.545h-3.272a1.772,1.772,0,1,0,0,3.545Z" transform="translate(-165.482 -182.885)"/><path d="M265.285,216.582h3.272a1.772,1.772,0,0,0,0-3.545h-3.272a1.772,1.772,0,0,0,0,3.545Z" transform="translate(-201.238 -182.885)"/><path d="M312.1,216.582h3.272a1.772,1.772,0,0,0,0-3.545H312.1a1.772,1.772,0,0,0,0,3.545Z" transform="translate(-236.992 -182.885)"/><path d="M358.923,216.582H362.2a1.772,1.772,0,0,0,0-3.545h-3.272a1.772,1.772,0,0,0,0,3.545Z" transform="translate(-272.746 -182.885)"/><path d="M405.742,216.582h3.272a1.772,1.772,0,0,0,0-3.545h-3.272a1.772,1.772,0,0,0,0,3.545Z" transform="translate(-308.501 -182.885)"/><path d="M226.66,255.7a1.772,1.772,0,0,0,1.772,1.772H231.7a1.772,1.772,0,1,0,0-3.545h-3.272A1.772,1.772,0,0,0,226.66,255.7Z" transform="translate(-173.094 -214.11)"/><path d="M273.479,255.7a1.772,1.772,0,0,0,1.772,1.772h3.272a1.772,1.772,0,1,0,0-3.545h-3.272A1.772,1.772,0,0,0,273.479,255.7Z" transform="translate(-208.848 -214.11)"/><path d="M320.3,255.7a1.772,1.772,0,0,0,1.772,1.772h3.272a1.772,1.772,0,0,0,0-3.545h-3.272A1.772,1.772,0,0,0,320.3,255.7Z" transform="translate(-244.602 -214.11)"/><path d="M373.934,255.7a1.772,1.772,0,0,0-1.772-1.772h-3.272a1.772,1.772,0,1,0,0,3.545h3.272A1.772,1.772,0,0,0,373.934,255.7Z" transform="translate(-280.357 -214.11)"/><path d="M420.752,255.7a1.772,1.772,0,0,0-1.772-1.772h-3.272a1.772,1.772,0,1,0,0,3.545h3.272A1.772,1.772,0,0,0,420.752,255.7Z" transform="translate(-316.111 -214.11)"/><path d="M236.626,296.586a1.772,1.772,0,0,0,1.772,1.772h3.272a1.772,1.772,0,1,0,0-3.545H238.4A1.772,1.772,0,0,0,236.626,296.586Z" transform="translate(-180.705 -245.336)"/><path d="M283.444,296.586a1.772,1.772,0,0,0,1.772,1.772h3.272a1.772,1.772,0,1,0,0-3.545h-3.272A1.772,1.772,0,0,0,283.444,296.586Z" transform="translate(-216.458 -245.336)"/><path d="M330.264,296.586a1.772,1.772,0,0,0,1.772,1.772h3.272a1.772,1.772,0,1,0,0-3.545h-3.272A1.772,1.772,0,0,0,330.264,296.586Z" transform="translate(-252.213 -245.336)"/><path d="M382.126,298.359a1.772,1.772,0,0,0,0-3.545h-3.272a1.772,1.772,0,0,0,0,3.545Z" transform="translate(-287.967 -245.336)"/><path d="M428.945,298.359a1.772,1.772,0,0,0,0-3.545h-3.272a1.772,1.772,0,0,0,0,3.545Z" transform="translate(-323.721 -245.336)"/><path d="M248.592,335.7H245.32a1.772,1.772,0,1,0,0,3.545h3.272a1.772,1.772,0,1,0,0-3.545Z" transform="translate(-185.991 -276.56)"/><path d="M295.411,335.7h-3.272a1.772,1.772,0,1,0,0,3.545h3.272a1.772,1.772,0,1,0,0-3.545Z" transform="translate(-221.745 -276.56)"/><path d="M342.23,335.7h-3.272a1.772,1.772,0,1,0,0,3.545h3.272a1.772,1.772,0,0,0,0-3.545Z" transform="translate(-257.5 -276.56)"/><path d="M389.049,335.7h-3.272a1.772,1.772,0,1,0,0,3.545h3.272a1.772,1.772,0,1,0,0-3.545Z" transform="translate(-293.254 -276.56)"/><path d="M435.868,335.7H432.6a1.772,1.772,0,1,0,0,3.545h3.272a1.772,1.772,0,0,0,0-3.545Z" transform="translate(-329.008 -276.56)"/><path d="M165.011,302.91a1.773,1.773,0,0,0-1.237,2.181l2.187,7.917a1.773,1.773,0,1,0,3.417-.944l-2.187-7.917A1.773,1.773,0,0,0,165.011,302.91Z" transform="translate(-125.021 -251.47)"/><path d="M195.158,319.659a1.773,1.773,0,0,0-1.237,2.181l1.093,3.958a1.773,1.773,0,1,0,3.417-.944l-1.093-3.959A1.772,1.772,0,0,0,195.158,319.659Z" transform="translate(-148.043 -264.26)"/></g></g></g></g></svg>