<svg xmlns="http://www.w3.org/2000/svg" xmlns:xlink="http://www.w3.org/1999/xlink" width="234.077" height="214.723" viewBox="0 0 234.077 214.723"><defs><clipPath id="a"><path d="M4.134,74,34.058,139.09l30.064-16.266L35.9,60.321Z" transform="translate(-4.134 -60.321)" fill="none"/></clipPath><clipPath id="b"><rect width="234.077" height="214.723" fill="none"/></clipPath></defs><path d="M35.9,60.321l28.222,62.5L34.058,139.088,4.134,74Z" transform="translate(3.368 49.148)" fill="#efca81" fill-rule="evenodd"/><g transform="translate(7.502 109.469)"><g clip-path="url(#a)"><path d="M33.816,70.485q-6.152,7.132-12.529,14.063,4.38-.112,8.767-.114,1.222,0,2.445.009c.347-.439.691-.882,1.034-1.321,2.942-3.786,6.236-7.524,8.537-11.765-2.737-.356-5.493-.633-8.254-.871M20.626,85.261q-3.68,3.974-7.45,7.867c2.9-.085,5.805-.093,8.707-.12q1.8-.016,3.6-.036,3.321-3.852,6.466-7.836c-.633-.005-1.265-.007-1.9-.005q-4.718,0-9.428.131m12.208-.12q-3.128,3.966-6.421,7.82c3.258-.034,6.515-.067,9.773-.054q3.163-3.732,6.17-7.584c-3.174-.076-6.348-.151-9.522-.181m-7.027,8.522q-3.539,4.1-7.292,8c3.3-.011,6.6.034,9.9.111q3.444-3.806,6.778-7.707c.132-.156.269-.312.4-.47-3.261-.005-6.524.029-9.787.064M32.96,70.411Q26.753,77.6,20.314,84.574c-5.631.156-11.257.43-16.879.786a.348.348,0,1,0,.044.7c5.388-.341,10.78-.606,16.173-.766q-3.694,3.977-7.479,7.872c-2.265.08-4.526.214-6.782.446a.346.346,0,0,0-.31.381.349.349,0,0,0,.381.312c2-.205,4-.334,6.007-.416q-.384.392-.769.784a.348.348,0,1,0,.5.488q.642-.653,1.281-1.31c3.136-.105,6.277-.113,9.413-.142q1.494-.014,2.987-.031-3.563,4.1-7.335,8c-3.695.024-7.386.122-11.074.323a.348.348,0,1,0,.038.7c3.448-.187,6.9-.285,10.35-.318q-2,2.033-4.058,4a.349.349,0,1,0,.481.5q2.319-2.208,4.559-4.51c3.319-.018,6.638.02,9.959.094-3.691,4.052-7.493,8-11.477,11.772a.349.349,0,0,0,.479.506c4.141-3.918,8.088-8.034,11.918-12.257,5.35.129,10.7.345,16.044.55,3.767.143,7.533.339,11.3.535a32.981,32.981,0,0,0,8.49-.283.348.348,0,0,0-.142-.682,32.332,32.332,0,0,1-8.312.27c-3.769-.2-7.537-.39-11.308-.537-5.147-.2-10.3-.4-15.456-.534q3.242-3.6,6.388-7.277l.786-.92q2.948.014,5.893.085c6.428.165,12.883.777,19.306.272a.347.347,0,0,0,.321-.374.351.351,0,0,0-.374-.321c-6.4.5-12.83-.109-19.235-.274q-2.662-.068-5.323-.082,3.139-3.724,6.129-7.569c3.7.087,7.4.165,11.108.158a.348.348,0,0,0,0-.7c-3.526.007-7.049-.062-10.569-.143a46.037,46.037,0,0,0,4.385-6.152.348.348,0,1,0-.61-.336,49.444,49.444,0,0,1-4.646,6.468c-3.172-.074-6.343-.152-9.513-.187q.354-.452.7-.9c3.02-3.885,6.4-7.724,8.727-12.094,2.653.358,5.285.789,7.885,1.323a.348.348,0,1,0,.142-.682c-2.535-.521-5.1-.944-7.687-1.3.047-.094.093-.185.138-.279a.348.348,0,1,0-.626-.3c-.078.162-.16.325-.241.486-2.668-.35-5.354-.628-8.041-.864q3.5-4.07,6.936-8.2a.349.349,0,0,0-.535-.446q-3.6,4.315-7.257,8.569c-4.388-.372-8.784-.639-13.115-.931a.348.348,0,0,0-.049.7c4.165.281,8.386.537,12.6.886m32.192,46.3c-15.433-1.466-31.1-2.439-46.591-1.514a.349.349,0,0,0,.044.7c15.456-.926,31.084.047,46.48,1.51a.348.348,0,0,0,.067-.693m-5.435,8.063c-6.276-1.359-12.861-1.474-19.244-1.965-7.005-.541-13.994-1.325-21.019-1.577a.348.348,0,1,0-.025.7c7.016.252,14,1.036,20.992,1.575,6.35.49,12.9.6,19.15,1.953a.348.348,0,1,0,.147-.681" transform="translate(-4.97 -59.713)" fill="#ebae59" fill-rule="evenodd"/><path d="M4.643,74.179c4.3-.962,8.86-.88,13.237-1.319C28.137,71.828,38.416,71.1,48.7,70.467a.348.348,0,1,0-.042-.7c-10.3.633-20.587,1.361-30.851,2.394-4.4.443-8.989.367-13.32,1.332a.349.349,0,0,0,.152.681" transform="translate(-4.064 -52.621)" fill="#3f2a3b" fill-rule="evenodd"/><path d="M47.725,65.954C41.172,70.11,33.886,72.881,26.91,76.222c-7.76,3.718-15.257,7.951-22.988,11.723a.349.349,0,0,0,.307.626c7.729-3.773,15.224-8,22.982-11.72,7-3.354,14.311-6.139,20.886-10.31a.348.348,0,1,0-.372-.588" transform="translate(-4.466 -55.775)" fill="#3f2a3b" fill-rule="evenodd"/><path d="M14.7,114.015c3.927-7.255,9.633-13.881,14.72-20.336,5.3-6.722,10.558-14.055,16.859-19.89a.348.348,0,0,0-.472-.512C39.481,79.136,34.2,86.5,28.878,93.246c-5.11,6.488-10.84,13.148-14.785,20.436a.348.348,0,1,0,.612.332" transform="translate(3.946 -49.84)" fill="#3f2a3b" fill-rule="evenodd"/><path d="M16.741,115.837c4.6-7.2,10.181-13.763,15.6-20.342a219.671,219.671,0,0,1,17.8-19.643.347.347,0,0,0,.011-.49.343.343,0,0,0-.492-.013,220.228,220.228,0,0,0-17.859,19.7c-5.441,6.6-11.045,13.19-15.652,20.414a.347.347,0,1,0,.586.372" transform="translate(5.615 -48.156)" fill="#3f2a3b" fill-rule="evenodd"/><path d="M18,119.472c4.3-5.662,9.112-10.961,13.82-16.282,7.194-8.137,14.507-16.206,22.244-23.833a.349.349,0,0,0-.49-.5C45.827,86.5,38.5,94.58,31.3,102.727c-4.717,5.335-9.546,10.647-13.852,16.324a.348.348,0,0,0,.555.421" transform="translate(6.655 -45.298)" fill="#3f2a3b" fill-rule="evenodd"/></g></g><path d="M0,68.99,6.764,85.31,43.718,67.774,36.04,52.5Z" transform="translate(0 42.778)" fill="#02a5bf"/><path d="M54.972,92.342l5.684,14.491-36.016,15.9L17.8,109.064Z" transform="translate(14.502 75.239)" fill="#02a5bf" fill-rule="evenodd"/><g clip-path="url(#b)"><path d="M83.441,107.691c19.665.777,35.459,5.726,35.248,11.043s-16.346,9-36.011,8.226-35.459-5.727-35.247-11.047,16.346-9,36.009-8.223" transform="translate(38.645 87.659)" fill="#eabd6d" fill-rule="evenodd"/><path d="M71.926,73.914l-1.214,69.481-5.065-.127,1.484-68.228Z" transform="translate(53.488 60.224)" fill="#efca81" fill-rule="evenodd"/><path d="M92.5.047A24.171,24.171,0,0,1,99.938,1.6c.056,1.76-.091,3.691.583,5.361,2.537,6.3,9.139,8.466,14.956,10.339,2.639.851,5.136,2.022,7.7,3.062,1.161.472,3.591,1.494,3.591,1.494s-.969,7.083-1.337,9.9c-.869,6.628-.118,14.832-4.043,20.629-2.038,3.011-5.156,4.8-7.462,7.528a16.284,16.284,0,0,0-3.352,8.86A38.065,38.065,0,0,0,111.8,83.587c1.564,4.809,4.575,9.272,6.818,13.783a64.635,64.635,0,0,1,5.842,17.11,61.669,61.669,0,0,1,1.151,13.417c-.038,1.033-.258,4.152-.258,4.152s-15.877,6.481-40.083,6.687a75.868,75.868,0,0,1-38.816-10.528s.085-3.125.147-4.158a61.92,61.92,0,0,1,2.448-13.241A64.749,64.749,0,0,1,56.53,94.348c2.67-4.274,6.1-8.422,8.123-13.056a38.119,38.119,0,0,0,2.66-14.629,16.261,16.261,0,0,0-2.477-9.141c-2.029-2.938-4.96-5.023-6.693-8.217-3.343-6.152-1.8-14.244-2.023-20.924-.094-2.838-.37-9.985-.37-9.985s2.519-.78,3.72-1.136c2.657-.788,5.256-1.71,7.965-2.3,5.972-1.3,12.979-2.893,16.117-8.918.831-1.6.871-3.533,1.1-5.279A28.137,28.137,0,0,1,92.5.047" transform="translate(37.851 0)" fill="#fabcbc" fill-rule="evenodd"/><path d="M58.419,35.845c9.141,4.546,19.237-3.51,20.4-12.789a.348.348,0,0,0-.691-.083c-1.107,8.842-10.689,16.58-19.4,12.25a.348.348,0,0,0-.31.622" transform="translate(47.441 18.469)" fill="#3f2a3b" fill-rule="evenodd"/><path d="M87.584,39.923C78.076,41.975,70.7,32.117,71.8,23.276a.348.348,0,1,0-.691-.085C69.95,32.467,77.753,42.757,87.731,40.6a.348.348,0,1,0-.147-.681" transform="translate(57.841 18.646)" fill="#3f2a3b" fill-rule="evenodd"/><path d="M68.106,1.395c3.131.88,6.355,1.994,9.664,1.78a14.076,14.076,0,0,0,3.12-.641.348.348,0,1,0-.2-.666,13.442,13.442,0,0,1-2.964.612c-3.234.209-6.375-.9-9.433-1.755a.348.348,0,1,0-.187.67" transform="translate(55.283 0.58)" fill="#3f2a3b" fill-rule="evenodd"/><path d="M106.2,122.417a6.23,6.23,0,0,0,2.739,1.6,5.724,5.724,0,0,0,6.969-3.657,6.456,6.456,0,0,0-2.2-7.954,5.465,5.465,0,0,0-8.139,1.477,6.694,6.694,0,0,0-1.376,4.415,7.269,7.269,0,0,0,2.009,4.12m9.555-.316a7.77,7.77,0,0,0,.8-1.477,7.141,7.141,0,0,0-2.454-8.794,6.155,6.155,0,0,0-9.1,1.659,7.962,7.962,0,0,0-1.5,3.84,28.564,28.564,0,0,1-.906-6.548c-.065-2.025-.038-2.664.045-4.7.753-18.384,7.292-43.765,11.578-61.528a.348.348,0,1,0-.677-.163c-4.3,17.8-10.841,43.239-11.6,61.663-.085,2.06-.112,2.706-.045,4.753a24.028,24.028,0,0,0,2.02,9.586,9.582,9.582,0,0,0,1.784,2.51,6.032,6.032,0,0,0,7.3,1.666,16.4,16.4,0,0,0,5.815-4.444c.717-.829,1.913-2.278,2.572-3.127.857-1.111,1.847-2.5,2.64-3.651C131.56,102.378,137,90.174,141.745,77.8c2.343-6.1,5.038-12.682,7.118-19.235a.348.348,0,0,0-.664-.211c-2.076,6.539-4.764,13.1-7.1,19.2-4.729,12.322-10.137,24.478-17.647,35.394-.788,1.143-1.769,2.519-2.619,3.62-.65.842-1.837,2.276-2.546,3.1a19.069,19.069,0,0,1-2.526,2.435" transform="translate(82.992 35.948)" fill="#3f2a3b" fill-rule="evenodd"/><path d="M138.681,66.221a18.2,18.2,0,0,0,1.735-3.925c1.474-4.611,2.132-10.016.784-14.756s-5.845-9.065-10.9-9.357a11.639,11.639,0,0,0-3.833.535c-5.74,1.617-9.546,6.1-11.653,11.535a51.668,51.668,0,0,0-1.726,4.976c-.091.332,9.043,4.047,9.288,3.437s3.657-9,6.618-7.776c4.034,1.661-.53,10.765-.287,10.9.635.341,8.882,3.967,9.969,4.433" transform="translate(92.145 31.1)" fill="#02a5bf" fill-rule="evenodd"/></g></svg>