<svg xmlns="http://www.w3.org/2000/svg" xmlns:xlink="http://www.w3.org/1999/xlink" width="168" height="156" viewBox="0 0 168 156"><defs><filter id="a" x="0" y="0" width="168" height="156" filterUnits="userSpaceOnUse"><feOffset dy="3" input="SourceAlpha"/><feGaussianBlur stdDeviation="3" result="b"/><feFlood flood-opacity="0.161"/><feComposite operator="in" in2="b"/><feComposite in="SourceGraphic"/></filter></defs><g transform="translate(-717 -1975)"><g transform="translate(393.695 -2356.382)"><g transform="matrix(1, 0, 0, 1, 323.3, 4331.38)" filter="url(#a)"><rect width="150" height="138" rx="17" transform="translate(9 6)" fill="#fff"/></g><g transform="translate(371.225 4366.222)"><g transform="translate(2.277 2.277)"><g transform="translate(0 2.554)"><path d="M53.071,67.839v5.107a5.106,5.106,0,0,1-5.107,5.107H7.107A5.106,5.106,0,0,1,2,72.946V9.107A5.106,5.106,0,0,1,7.107,4H17.321V9.107H8.384a1.281,1.281,0,0,0-1.277,1.277V71.669a1.281,1.281,0,0,0,1.277,1.277h38.3a1.281,1.281,0,0,0,1.277-1.277v-3.83Z" transform="translate(-2 -4)" fill="#ffeaa7"/></g><g transform="translate(45.964 24.463)"><path d="M43.107,21.173v31.7H38V22.232a12.616,12.616,0,0,0,5.107-1.072Z" transform="translate(-38 -21.16)" fill="#ffeaa7"/></g><g transform="translate(5.107 7.661)"><path d="M39.12,23.257a12.729,12.729,0,0,1-5.03-10.15,13.055,13.055,0,0,1,.255-2.566,1.711,1.711,0,0,1-.255.013H18.768A2.561,2.561,0,0,1,16.214,8H7.277A1.281,1.281,0,0,0,6,9.277V70.562a1.281,1.281,0,0,0,1.277,1.277h38.3a1.281,1.281,0,0,0,1.277-1.277V25.875A12.651,12.651,0,0,1,39.12,23.257Z" transform="translate(-6 -8)" fill="#f0d0b4"/></g><g transform="translate(28.089 56.178)"><path d="M34.214,51.107v5.107L25.2,52.831a1.838,1.838,0,0,1,0-3.447L34.214,46Z" transform="translate(-24 -46)" fill="#aab2bd"/></g><g transform="translate(66.392 56.178)"><path d="M62.72,47.494a5.11,5.11,0,0,1-3.613,8.72H54V46h5.107A5.139,5.139,0,0,1,62.72,47.494Z" transform="translate(-54 -46)" fill="#aab2bd"/></g><g transform="translate(38.303 61.285)"><path d="M60.089,50v5.107H32V50Z" transform="translate(-32 -50)" fill="#4fc1e9"/></g><g transform="translate(38.303 56.178)"><path d="M60.089,46v5.107H32V46H60.089Z" transform="translate(-32 -46)" fill="#b4dd7f"/></g><g transform="translate(10.214 24.259)"><path d="M34.616,24.128a15.349,15.349,0,1,0,6.026,12.193A15.265,15.265,0,0,0,34.616,24.128Z" transform="translate(-10 -21)" fill="#e6e9ed"/></g><g transform="translate(28.089 34.473)"><path d="M24,29h5.107V41.768H24Z" transform="translate(-24 -29)" fill="#fcd770"/></g><g transform="translate(22.982 31.919)"><path d="M25.107,29.554V42.321H20V27h5.107Z" transform="translate(-20 -27)" fill="#fcd770"/></g><g transform="translate(17.875 39.58)"><path d="M16,33h5.107v7.661H16Z" transform="translate(-16 -33)" fill="#fcd770"/></g><g transform="translate(15.321)"><path d="M34.428,4.554V7.107a12.677,12.677,0,0,0-2.3,5.094,1.711,1.711,0,0,1-.255.013H16.554A2.561,2.561,0,0,1,14,9.661V4.554A2.561,2.561,0,0,1,16.554,2H31.875A2.561,2.561,0,0,1,34.428,4.554Z" transform="translate(-14 -2)" fill="#b4dd7f"/></g><g transform="translate(65.116 12.768)"><path d="M60.661,12l2.554,5.107H55.554L53,12h7.661Z" transform="translate(-53 -12)" fill="#cf9e76"/></g><g transform="translate(65.116 7.661)"><path d="M63.214,8l-2.554,5.107H53L55.554,8Z" transform="translate(-53 -8)" fill="#cf9e76"/></g><g transform="translate(33.196 0)"><path d="M53.536,14.768a12.7,12.7,0,0,1-7.661,11.7A12.767,12.767,0,0,1,28,14.768a13.055,13.055,0,0,1,.255-2.566,12.771,12.771,0,0,1,25.28,2.566Z" transform="translate(-28 -2)" fill="#e6e9ed"/></g><g transform="translate(40.857 7.661)"><circle cx="5" cy="5" r="5" transform="translate(-0.134 0.223)" fill="#ff826e"/></g><g transform="translate(56.178 28.089)"><path d="M56.214,24a10.2,10.2,0,1,1-6.384,2.234A10.211,10.211,0,0,1,56.214,24Z" transform="translate(-46 -24)" fill="#e6e9ed"/></g><g transform="translate(61.285 33.196)"><path d="M59.078,31.256a2.076,2.076,0,0,1,0,3.7L52.988,38A2.066,2.066,0,0,1,50,36.146V30.068a2.066,2.066,0,0,1,2.988-1.851Z" transform="translate(-50 -28)" fill="#ff826e"/></g></g><g transform="translate(1 1)"><path d="M73.776,57.178H54.625V27.539a14,14,0,0,0,1.35-.783l4.567,5.708a11.656,11.656,0,1,0,2-1.588l-4.577-5.721a14,14,0,0,0,4.257-8.834H66.6l2.554,5.107H79.672L76.48,15.045l3.192-6.384H69.157L66.6,13.768H62.221a14.027,14.027,0,0,0-22.974-9.5A3.826,3.826,0,0,0,35.473,1H20.152a3.825,3.825,0,0,0-3.6,2.554H7.384A6.391,6.391,0,0,0,1,9.937V73.776A6.391,6.391,0,0,0,7.384,80.16H48.241a6.391,6.391,0,0,0,6.384-6.384v-3.83H73.776a6.384,6.384,0,0,0,0-12.768Zm3.83-16.6a8.937,8.937,0,1,1-8.937-8.937A8.949,8.949,0,0,1,77.607,40.58ZM70.735,18.875l-1.277-2.554h4.806l1.277,2.554Zm0-7.661h4.806l-1.277,2.554H69.458Zm-54.179,0a3.825,3.825,0,0,0,3.6,2.554h14.11c-.038.421-.065.845-.065,1.277a14,14,0,0,0,4.567,10.334l-1.947,2.555a16.748,16.748,0,1,0,2.025,1.554l1.95-2.559a13.926,13.926,0,0,0,6.173,2.1V57.178H40.348l-9.235,3.464a3.119,3.119,0,0,0,0,5.841l9.235,3.463h6.616V72.5H8.661V11.214ZM34.2,48.241H31.643V38.027H34.2Zm-5.107,0H26.536V35.473h2.554Zm-5.107,0H21.428V43.134h2.554Zm14.656,2.554a14.028,14.028,0,0,1-21.652,0Zm1.669-2.554H36.75V35.473H31.643V32.919H23.982V40.58H18.875v7.661H15.318a14.045,14.045,0,1,1,24.989,0Zm-8.3,15.852a.567.567,0,0,1,0-1.061L39.3,60.3v6.529Zm9.846,3.3V64.839H67.392v2.554Zm25.536-5.107H41.857V59.732H67.392ZM52.071,57.178H49.518V29.024a13.817,13.817,0,0,0,2.554-.48ZM48.241,3.554A11.5,11.5,0,0,1,59.656,13.768H54.5a6.384,6.384,0,1,0,0,2.554h5.161A11.489,11.489,0,1,1,48.241,3.554Zm3.6,12.768a3.83,3.83,0,1,1,0-2.554H46.964v2.554ZM18.875,4.83a1.278,1.278,0,0,1,1.277-1.277H35.473A1.278,1.278,0,0,1,36.75,4.83V6.994a13.964,13.964,0,0,0-2.007,4.213l-14.591.006a1.278,1.278,0,0,1-1.277-1.277Zm33.2,68.946a3.835,3.835,0,0,1-3.83,3.83H7.384a3.835,3.835,0,0,1-3.83-3.83V9.937a3.835,3.835,0,0,1,3.83-3.83h8.937V8.661H8.661a2.556,2.556,0,0,0-2.554,2.554V72.5a2.556,2.556,0,0,0,2.554,2.554h38.3A2.556,2.556,0,0,0,49.518,72.5V69.946h2.554Zm21.705-6.384h-3.83V59.732h3.83a3.83,3.83,0,1,1,0,7.661Z" transform="translate(-1 -1)"/><path d="M49,36.425a3.344,3.344,0,0,0,4.838,2.99l6.084-3.041a3.344,3.344,0,0,0,0-5.98l-6.083-3.041A3.344,3.344,0,0,0,49,30.343Zm2.554-6.083a.79.79,0,0,1,.789-.789.782.782,0,0,1,.352.083l6.083,3.041a.789.789,0,0,1,0,1.412l-6.083,3.041a.811.811,0,0,1-1.141-.706Z" transform="translate(12.285 6.196)"/><path d="M9,49H24.321v2.554H9Z" transform="translate(1.214 12.285)"/><path d="M9,53H24.321v2.554H9Z" transform="translate(1.214 13.392)"/><path d="M9,13h2.554v2.554H9Z" transform="translate(1.214 2.321)"/><path d="M13,13H28.321v2.554H13Z" transform="translate(2.321 2.321)"/><path d="M9,17h2.554v2.554H9Z" transform="translate(1.214 3.428)"/><path d="M13,17H28.321v2.554H13Z" transform="translate(2.321 3.428)"/></g></g></g></g></svg>