<svg xmlns="http://www.w3.org/2000/svg" width="103.892" height="115.857" viewBox="0 0 103.892 115.857"><g transform="translate(0)"><path d="M108.557,137.107a75.5,75.5,0,0,1-13.1,8.036H21.208a75.5,75.5,0,0,1-13.1-8.036C27.2,118.026,42.141,90.7,42.141,90.7V82.662c0-5.631-3.989-20.655-3.989-20.655,1.565-4.4,5.333-5.336,9.193-4.932,5.4.567,10.989,3.761,10.989,3.761s16.429-9.387,20.184,1.171c0,0-3.991,15.024-3.991,20.655V90.7s14.945,27.33,34.031,46.411Zm0,0" transform="translate(-6.388 -44.094)" fill="#fee372"/><path d="M52.273,82.662c-1.121,4.678-4.04,14.553-4.04,14.553l-2.285,4.545-4.329,43.382H21.208a75.5,75.5,0,0,1-13.1-8.036C27.195,118.025,42.14,90.7,42.14,90.7V82.662c0-5.631-3.989-20.655-3.989-20.655,1.565-4.4,5.333-5.336,9.193-4.932l.01,0c-8.323,12.978,6.533,18.851,4.919,25.583Zm0,0" transform="translate(-6.388 -44.094)" fill="#eabe32"/><path d="M190.886,178.474H158.5v-8.033h32.386" transform="translate(-122.747 -131.873)" fill="#fb6572"/><path d="M168.334,178.474H158.5v-8.033h9.834" transform="translate(-122.747 -131.873)" fill="#ea394e"/><path d="M86.341,254.844s-11.43,26.523-26.025,45.044a70.28,70.28,0,0,0,76.82,0c-14.6-18.521-26.025-45.044-26.025-45.044" transform="translate(-46.781 -197.177)" fill="#fee372"/><path d="M103.888,91.8C86.412,74.324,72.243,49.515,70.362,46.156V38.568a44.317,44.317,0,0,1,.956-7.291,1.722,1.722,0,1,0-3.383-.645c-.49,2.558-.8,4.611-.935,6.214H37.89c-.51-5.859-3.158-16.292-3.817-18.827a5.108,5.108,0,0,1,3-2.953c4.446-1.649,11.99,1.732,14.52,3.174a1.727,1.727,0,0,0,1.706,0c2.533-1.443,10.078-4.825,14.526-3.174a5.127,5.127,0,0,1,3,2.953c-.257.983-.822,3.2-1.437,5.84a1.722,1.722,0,1,0,3.354.783c.82-3.518,1.546-6.258,1.555-6.286a1.735,1.735,0,0,0-.043-1.019A8.825,8.825,0,0,0,70.585,12.6c-.158-2.393-1.04-8.155-5.753-12.185a1.722,1.722,0,0,0-2.6.431c-.149.25-3.422,5.836-3.888,11.5-.262.086-.526.171-.795.264a39.67,39.67,0,0,0-5.1,2.182,39.852,39.852,0,0,0-5.1-2.182c-.267-.094-.53-.179-.795-.264C46.083,6.682,42.814,1.1,42.664.846a1.723,1.723,0,0,0-2.6-.431c-4.714,4.03-5.6,9.794-5.753,12.185a8.825,8.825,0,0,0-3.667,4.738,1.721,1.721,0,0,0-.042,1.019c.04.147,3.932,14.869,3.932,20.211v7.588C32.649,49.515,18.48,74.324,1,91.8a1.726,1.726,0,0,0,.128,2.551,73.94,73.94,0,0,0,11.556,7.294,0,0,0,0,0,0,0,1.72,1.72,0,0,0,.349,2.466A57.735,57.735,0,0,0,21.847,109a1.723,1.723,0,0,0,1.44-3.13,64.06,64.06,0,0,1-6.743-3.578c14.02-18.394,24.988-43.681,25.1-43.941a1.722,1.722,0,1,0-3.163-1.361c-.108.248-10.4,23.963-23.67,41.873a81.133,81.133,0,0,1-9.978-6.04c16.463-16.975,29.734-39.735,32.43-44.5H67.629c2.7,4.761,15.97,27.521,32.433,44.5a80.766,80.766,0,0,1-9.978,6.04C76.81,80.949,66.519,57.234,66.411,56.986a1.721,1.721,0,1,0-3.162,1.361c.112.26,11.08,25.544,25.1,43.939a71.294,71.294,0,0,1-35.9,10.127,68.8,68.8,0,0,1-22.919-4.021,1.723,1.723,0,1,0-1.146,3.249,72.29,72.29,0,0,0,24.065,4.216,72.864,72.864,0,0,0,39.412-11.746,1.723,1.723,0,0,0,.352-2.466l-.005,0a73.877,73.877,0,0,0,11.554-7.294,1.719,1.719,0,0,0,.129-2.551ZM64.143,4.644a14.717,14.717,0,0,1,2.821,6.674,15.866,15.866,0,0,0-5.043.138,26.7,26.7,0,0,1,2.222-6.812Zm-23.391,0a26.8,26.8,0,0,1,2.223,6.812,15.871,15.871,0,0,0-5.044-.138,14.7,14.7,0,0,1,2.821-6.674ZM66.917,44.879H37.977V40.291H66.917Zm0,0" transform="translate(-0.501 -0.001)"/></g></svg>