<svg xmlns="http://www.w3.org/2000/svg" xmlns:xlink="http://www.w3.org/1999/xlink" width="1048" height="240" viewBox="0 0 1048 240"><defs><filter id="a" x="0" y="0" width="1048" height="240" filterUnits="userSpaceOnUse"><feOffset dy="3" input="SourceAlpha"/><feGaussianBlur stdDeviation="3" result="b"/><feFlood flood-opacity="0.161"/><feComposite operator="in" in2="b"/><feComposite in="SourceGraphic"/></filter></defs><g transform="translate(-276 -20401.16)"><g transform="matrix(1, 0, 0, 1, 276, 20401.16)" filter="url(#a)"><rect width="1030" height="222" rx="20" transform="translate(9 6)" fill="#fde2e2"/></g><text transform="translate(423 20558.785)" fill="#12263f" font-size="20" font-family="Roboto-Black, Roboto" font-weight="800"><tspan x="14.366" y="21">C.I.P</tspan></text><text transform="translate(646 20558.785)" fill="#12263f" font-size="20" font-family="Roboto-Black, Roboto" font-weight="800"><tspan x="2.244" y="21">Número de unidades de la </tspan></text><text transform="translate(994.124 20558.785)" fill="#12263f" font-size="20" font-family="Roboto-Black, Roboto" font-weight="800"><tspan x="9.865" y="21">Tiempo estándar de </tspan></text><g transform="translate(405.601 20430.988)"><g transform="translate(2.706 2.706)"><g transform="translate(93.854 5.119)"><path d="M62.819,6.007a3.337,3.337,0,0,1,1.007,2.406,3.423,3.423,0,0,1-3.413,3.413H57V5h3.413A3.337,3.337,0,0,1,62.819,6.007Z" transform="translate(-57 -5)" fill="#ccd1d9"/></g><g transform="translate(46.074 5.119)"><path d="M59.716,5v6.826H29V5Z" transform="translate(-29 -5)" fill="#ccd1d9"/></g><g transform="translate(18.771)"><path d="M40.3,8.826H13V5.413A3.423,3.423,0,0,1,16.413,2H36.89A3.423,3.423,0,0,1,40.3,5.413V8.826Z" transform="translate(-13 -2)" fill="#969faa"/></g><g transform="translate(18.771 13.651)"><path d="M13,10H40.3V20.239H13Z" transform="translate(-13 -10)" fill="#969faa"/></g><g transform="translate(18.771 6.826)"><path d="M40.3,12.826H13V6H40.3v6.826Z" transform="translate(-13 -6)" fill="#aab2bd"/></g><g transform="translate(76.789)"><path d="M64.064,7.119V17.358a1.711,1.711,0,0,1-1.706,1.706H48.706A1.711,1.711,0,0,1,47,17.358V3.706A1.711,1.711,0,0,1,48.706,2H62.358a1.711,1.711,0,0,1,1.706,1.706Z" transform="translate(-47 -2)" fill="#aab2bd"/></g><g transform="translate(81.909 5.119)"><ellipse cx="3" cy="3.5" rx="3" ry="3.5" transform="translate(0.385 -0.026)" fill="#fcd770"/></g><g transform="translate(3.413 23.89)"><path d="M55.193,16l6.826,10.239H4L10.826,16H55.193Z" transform="translate(-4 -16)" fill="#ccd1d9"/></g><g transform="translate(75.083 61.432)"><path d="M46,38H66.477V58.477H46Z" transform="translate(-46 -38)" fill="#d3a06c"/></g><g transform="translate(44.367 68.257)"><path d="M28,42H48.477V62.477H28Z" transform="translate(-28 -42)" fill="#d3a06c"/></g><g transform="translate(13.651 68.257)"><path d="M10,42H30.477V62.477H10Z" transform="translate(-10 -42)" fill="#d3a06c"/></g><g transform="translate(3.413 34.129)"><path d="M62.019,22V56.129H44.954V76.606H34.716V56.129H14.239V76.606H7.413A6.808,6.808,0,0,0,4,77.527V22Z" transform="translate(-4 -22)" fill="#e6e9ed"/></g><g transform="translate(47.78 40.954)"><circle cx="3.5" cy="3.5" r="3.5" transform="translate(-0.486 0.138)" fill="#fcd770"/></g><g transform="translate(34.129 40.954)"><circle cx="3.5" cy="3.5" r="3.5" transform="translate(0.165 0.138)" fill="#fcd770"/></g><g transform="translate(80.202 40.954)"><path d="M59.239,31.119v.1a5.12,5.12,0,0,1-10.239,0v-.1a5.119,5.119,0,1,1,10.239,0Z" transform="translate(-49 -26)" fill="#fcd770"/></g><g transform="translate(0 88.735)"><g transform="translate(81.909)"><path d="M63.651,54H50a6.826,6.826,0,1,1,0,13.651H63.651a6.826,6.826,0,0,0,0-13.651Z" transform="translate(-50 -54)" fill="#ccd1d9"/></g><g transform="translate(61.432)"><path d="M51.651,60.826A6.824,6.824,0,0,1,58.477,54H38a6.826,6.826,0,1,1,0,13.651H58.477A6.824,6.824,0,0,1,51.651,60.826Z" transform="translate(-38 -54)" fill="#ccd1d9"/></g><g transform="translate(40.954)"><path d="M39.651,60.826A6.824,6.824,0,0,1,46.477,54H26a6.826,6.826,0,1,1,0,13.651H46.477A6.824,6.824,0,0,1,39.651,60.826Z" transform="translate(-26 -54)" fill="#ccd1d9"/></g><g transform="translate(20.477)"><path d="M27.651,60.826A6.824,6.824,0,0,1,34.477,54H14a6.826,6.826,0,1,1,0,13.651H34.477A6.824,6.824,0,0,1,27.651,60.826Z" transform="translate(-14 -54)" fill="#ccd1d9"/></g><path d="M15.651,60.826A6.824,6.824,0,0,1,22.477,54H8.826a6.808,6.808,0,0,0-3.413.921A7.21,7.21,0,0,0,4,56,6.83,6.83,0,0,0,8.826,67.651H22.477A6.824,6.824,0,0,1,15.651,60.826Z" transform="translate(-2 -54)" fill="#ccd1d9"/></g><g transform="translate(75.083 88.735)"><circle cx="6.5" cy="6.5" r="6.5" transform="translate(0.21 0.358)" fill="#969faa"/></g><g transform="translate(54.606 88.735)"><ellipse cx="7" cy="6.5" rx="7" ry="6.5" transform="translate(-0.313 0.358)" fill="#969faa"/></g><g transform="translate(34.129 88.735)"><circle cx="6.5" cy="6.5" r="6.5" transform="translate(0.165 0.358)" fill="#969faa"/></g><g transform="translate(13.651 88.735)"><ellipse cx="7" cy="6.5" rx="7" ry="6.5" transform="translate(-0.358 0.358)" fill="#969faa"/></g><g transform="translate(81.909 61.432)"><path d="M56.826,38v6.826H50V38h6.826Z" transform="translate(-50 -38)" fill="#b27946"/></g><g transform="translate(51.193 68.257)"><path d="M32,42h6.826v6.826H32Z" transform="translate(-32 -42)" fill="#b27946"/></g><g transform="translate(20.477 68.257)"><path d="M14,42h6.826v6.826H14Z" transform="translate(-14 -42)" fill="#b27946"/></g><g transform="translate(10.239 40.954)"><path d="M8,26H25.064V46.477H8Z" transform="translate(-8 -26)" fill="#69d6f4"/></g></g><g transform="translate(1 1)"><path d="M98.267,89.734H69.257V69.257H65.844V36.318L58.225,24.89H50.487V16.358h27.3v1.706A3.416,3.416,0,0,0,81.2,21.477h5.119V42.2a6.83,6.83,0,0,0-4.983,5.23,15.377,15.377,0,0,0-12.082,15,8.548,8.548,0,0,0,6.826,8.36v15.53h23.89V70.791a8.547,8.547,0,0,0,6.826-8.36,15.377,15.377,0,0,0-12.082-15,6.83,6.83,0,0,0-4.983-5.23V21.477h5.119a3.416,3.416,0,0,0,3.413-3.413V16.358h1.706a5.119,5.119,0,1,0,0-10.239H98.267V4.413A3.416,3.416,0,0,0,94.854,1H81.2a3.416,3.416,0,0,0-3.413,3.413V6.119h-27.3A5.126,5.126,0,0,0,45.367,1H24.89a5.126,5.126,0,0,0-5.119,5.119V24.89H12.032L4.413,36.318V91.484A8.5,8.5,0,0,0,9.532,106.8H98.267a8.532,8.532,0,0,0,0-17.064Zm-25.6-27.3a11.953,11.953,0,0,1,8.9-11.541,6.809,6.809,0,0,0,4.751,4.473v7.068H76.083v4.805A5.112,5.112,0,0,1,72.67,62.432Zm13.651,3.413h3.413v3.413H86.322ZM96.56,82.909H79.5V65.844h3.413V72.67H93.147V65.844H96.56ZM94.485,50.891a11.952,11.952,0,0,1,8.9,11.541,5.112,5.112,0,0,1-3.413,4.805V62.432H89.734V55.364a6.81,6.81,0,0,0,4.751-4.473ZM91.441,48.78a3.413,3.413,0,1,1-3.413-3.413A3.416,3.416,0,0,1,91.441,48.78ZM99.973,9.532a1.706,1.706,0,1,1,0,3.413H98.267V9.532ZM81.2,4.413H94.854l0,13.651H81.2Zm8.532,93.854a5.119,5.119,0,1,1-5.119-5.119A5.126,5.126,0,0,1,89.734,98.267Zm-71.67,0a5.119,5.119,0,1,1,5.119,5.119A5.126,5.126,0,0,1,18.064,98.267Zm6.826-25.6H28.3v3.413H24.89ZM31.716,79.5V72.67h3.413V89.734H18.064V72.67h3.413V79.5ZM29.965,93.147h6.913a8.363,8.363,0,0,0,0,10.239H29.967a8.363,8.363,0,0,0,0-10.239Zm8.577,5.119a5.119,5.119,0,1,1,5.119,5.119A5.126,5.126,0,0,1,38.542,98.267Zm11.9-5.119h6.913a8.363,8.363,0,0,0,0,10.239H50.444a8.363,8.363,0,0,0,0-10.239Zm8.577,5.119a5.119,5.119,0,1,1,5.119,5.119A5.126,5.126,0,0,1,59.019,98.267Zm11.9-5.119h6.913a8.363,8.363,0,0,0,0,10.239H70.921a8.363,8.363,0,0,0,0-10.239ZM48.78,89.734V72.67h3.413V79.5H62.432V72.67h3.413V89.734ZM55.606,72.67h3.413v3.413H55.606ZM47.074,14.651H23.184V11.239h23.89ZM77.789,9.532v3.413h-27.3V9.532ZM24.89,4.413H45.367a1.709,1.709,0,0,1,1.706,1.706V7.826H23.184V6.119A1.709,1.709,0,0,1,24.89,4.413ZM23.184,18.064h23.89V24.89H23.184ZM13.858,28.3H56.4l4.551,6.826H9.307ZM7.826,38.542H62.432V69.257H45.367V89.734H38.542V69.257H14.651V89.734H9.532a8.524,8.524,0,0,0-1.706.172ZM4.413,98.267a5.126,5.126,0,0,1,5.119-5.119H16.4a8.36,8.36,0,0,0,0,10.239H9.532A5.126,5.126,0,0,1,4.413,98.267Zm93.854,5.119H91.4a8.36,8.36,0,0,0,0-10.239h6.87a5.119,5.119,0,0,1,0,10.239Z" transform="translate(-1 -1)"/><path d="M54.119,4a5.119,5.119,0,1,0,5.119,5.119A5.126,5.126,0,0,0,54.119,4Zm0,6.826a1.706,1.706,0,1,1,1.706-1.706A1.709,1.709,0,0,1,54.119,10.826Z" transform="translate(32.909 1.119)"/><path d="M27.477,25H7V48.89H27.477ZM24.064,45.477H10.413V28.413H24.064Z" transform="translate(3.239 15.954)"/><path d="M26.119,35.239A5.119,5.119,0,1,0,21,30.119,5.126,5.126,0,0,0,26.119,35.239Zm0-6.826a1.706,1.706,0,1,1-1.706,1.706A1.709,1.709,0,0,1,26.119,28.413Z" transform="translate(13.129 15.954)"/><path d="M34.119,35.239A5.119,5.119,0,1,0,29,30.119,5.126,5.126,0,0,0,34.119,35.239Zm0-6.826a1.706,1.706,0,1,1-1.706,1.706A1.709,1.709,0,0,1,34.119,28.413Z" transform="translate(18.78 15.954)"/><path d="M21,33H44.89v3.413H21Z" transform="translate(13.129 21.606)"/><path d="M21,37h3.413v3.413H21Z" transform="translate(13.129 24.432)"/><path d="M25,37H35.239v3.413H25Z" transform="translate(15.954 24.432)"/><path d="M33,37h3.413v3.413H33Z" transform="translate(21.606 24.432)"/></g></g><g transform="translate(699.949 20412.855)"><g transform="translate(22.304 20.894)"><path d="M126.978,69.737V93.515H42.7V69.737H56.749V45.958H70.794V22.18H98.883V45.958h14.045V69.737Z" transform="translate(-42.7 -22.18)" fill="#efbf27"/></g><g transform="translate(4.276 92.227)"><g transform="translate(0)"><path d="M110.155,200.6H21.307a15.743,15.743,0,0,1,0-31.487h88.848a15.743,15.743,0,1,1,0,31.487Z" transform="translate(-5.564 -169.116)" fill="#aeaeae"/></g><g transform="translate(7.309 7.309)"><path d="M29.054,201.04a8.435,8.435,0,0,1,0-16.869H117.9a8.435,8.435,0,0,1,0,16.869Z" transform="translate(-20.619 -184.171)" fill="#4a4842"/></g><g transform="translate(96.157 7.309)"><circle cx="8.435" cy="8.435" r="8.435" fill="#efefef"/></g><g transform="translate(101.377 12.53)"><circle cx="3.214" cy="3.214" r="3.214" fill="#f0c020"/></g><g transform="translate(66.54 7.309)"><circle cx="8.435" cy="8.435" r="8.435" fill="#efefef"/></g><g transform="translate(71.761 12.53)"><circle cx="3.214" cy="3.214" r="3.214" fill="#f0c020"/></g><g transform="translate(36.925 7.309)"><circle cx="8.435" cy="8.435" r="8.435" fill="#efefef"/></g><g transform="translate(42.146 12.53)"><circle cx="3.214" cy="3.214" r="3.214" fill="#f0c020"/></g><g transform="translate(7.309 7.309)"><circle cx="8.435" cy="8.435" r="8.435" fill="#efefef"/></g><g transform="translate(12.529 12.53)"><circle cx="3.214" cy="3.214" r="3.214" fill="#f0c020"/></g></g><g transform="translate(32.071 68.448)"><path d="M70.265,130.586,68,128.566a.971.971,0,0,0-1.291,0l-2.269,2.02a.971.971,0,0,1-1.617-.725v-9.725h9.062v9.725A.971.971,0,0,1,70.265,130.586Z" transform="translate(-62.819 -120.136)" fill="#fb5c3c"/></g><g transform="translate(60.162 68.448)"><path d="M128.128,130.586l-2.269-2.02a.971.971,0,0,0-1.291,0l-2.269,2.02a.971.971,0,0,1-1.617-.725v-9.725h9.062v9.725A.971.971,0,0,1,128.128,130.586Z" transform="translate(-120.682 -120.136)" fill="#fb5c3c"/></g><g transform="translate(27.24 85.942)"><path d="M126.059,158.6H124.6a1.214,1.214,0,0,1,0-2.427h1.456a1.214,1.214,0,1,1,0,2.427Zm-6.311,0H54.081a1.214,1.214,0,1,1,0-2.427h65.668a1.214,1.214,0,0,1,0,2.427Z" transform="translate(-52.867 -156.171)" fill="#f7e4b0"/></g><g transform="translate(40.816 62.55)"><path d="M126.872,110.413h-1.456a1.214,1.214,0,0,1,0-2.427h1.456a1.214,1.214,0,0,1,0,2.427Zm-6.311,0H82.047a1.214,1.214,0,1,1,0-2.427h38.514a1.214,1.214,0,1,1,0,2.427Z" transform="translate(-80.833 -107.986)" fill="#f7e4b0"/></g><g transform="translate(53.464 38.526)"><path d="M127.629,60.927h-1.456a1.214,1.214,0,1,1,0-2.427h1.456a1.214,1.214,0,0,1,0,2.427Zm-6.311,0H108.1a1.214,1.214,0,1,1,0-2.427h13.219a1.214,1.214,0,0,1,0,2.427Z" transform="translate(-106.885 -58.5)" fill="#f7e4b0"/></g><g transform="translate(88.253 68.448)"><path d="M185.992,130.586l-2.269-2.02a.971.971,0,0,0-1.291,0l-2.269,2.02a.971.971,0,0,1-1.617-.725v-9.725h9.062v9.725a.971.971,0,0,1-1.616.725Z" transform="translate(-178.546 -120.136)" fill="#fb5c3c"/></g><g transform="translate(46.116 44.671)"><path d="M99.2,81.607l-2.269-2.02a.971.971,0,0,0-1.291,0l-2.269,2.02a.971.971,0,0,1-1.617-.725V71.157h9.062v9.725a.97.97,0,0,1-1.616.725Z" transform="translate(-91.75 -71.157)" fill="#fb5c3c"/></g><g transform="translate(74.208 44.671)"><path d="M157.06,81.607l-2.269-2.02a.971.971,0,0,0-1.291,0l-2.269,2.02a.971.971,0,0,1-1.617-.725V71.157h9.062v9.725a.971.971,0,0,1-1.616.725Z" transform="translate(-149.614 -71.157)" fill="#fb5c3c"/></g><g transform="translate(100.284 44.524)"><path d="M208.441,84.471c-.57-2.46-.948-4.086-4.282-5.188a1.215,1.215,0,0,1,0-2.305c1.936-.639,3.334-1.1,4.282-5.188a1.215,1.215,0,0,1,2.365,0c.971,4.183,2.427,4.576,4.282,5.188a1.214,1.214,0,0,1,0,2.3c-1.936.64-3.335,1.1-4.282,5.188A1.214,1.214,0,0,1,208.441,84.471Z" transform="translate(-203.328 -70.855)"/></g><g transform="translate(104.39 49.354)"><path d="M216.1,83.261a6.44,6.44,0,0,0-2.1,2.374,6.739,6.739,0,0,0-2.219-2.355,6.452,6.452,0,0,0,2.194-2.476,6.583,6.583,0,0,0,2.122,2.456Z" transform="translate(-211.785 -80.805)" fill="#f0c020"/></g><g transform="translate(16.011 44.524)"><path d="M34.85,84.471c-.57-2.46-.948-4.086-4.282-5.188a1.215,1.215,0,0,1,0-2.305c1.936-.639,3.334-1.1,4.282-5.188a1.215,1.215,0,0,1,2.365,0c.971,4.183,2.427,4.576,4.282,5.188a1.214,1.214,0,0,1,0,2.3c-1.936.64-3.335,1.1-4.282,5.188A1.214,1.214,0,0,1,34.85,84.471Z" transform="translate(-29.737 -70.855)"/></g><g transform="translate(20.117 49.354)"><path d="M42.511,83.261a6.44,6.44,0,0,0-2.1,2.374,6.739,6.739,0,0,0-2.219-2.355A6.452,6.452,0,0,0,40.389,80.8,6.583,6.583,0,0,0,42.511,83.261Z" transform="translate(-38.195 -80.805)" fill="#f0c020"/></g><g transform="translate(60.161 20.894)"><path d="M129.744,22.18v9.651a.971.971,0,0,1-1.617.723l-2.267-2.02a.976.976,0,0,0-1.291,0l-2.272,2.02a.971.971,0,0,1-1.617-.723V22.18Z" transform="translate(-120.68 -22.18)" fill="#fb5c3c"/></g><g transform="translate(3.06 19.68)"><path d="M20.017,124.93H93.333a1.214,1.214,0,0,0,0-2.427,0,0,0,0,0,0,0H20.017a14.528,14.528,0,1,1,0-29.055h88.851a14.528,14.528,0,1,1,0,29.055h-5.826a1.216,1.216,0,0,0,0,2.432h5.826a16.957,16.957,0,1,0,0-33.915H107.79V68.45a1.21,1.21,0,0,0-1.209-1.214H93.746V44.672a1.209,1.209,0,0,0-1.214-1.214H79.7V20.894a1.209,1.209,0,0,0-1.214-1.214H50.4a1.211,1.211,0,0,0-1.214,1.214V43.457c-7.4,0,2.548,0-12.831,0a1.208,1.208,0,0,0-1.214,1.214v6.471a1.214,1.214,0,1,0,2.427,0V45.886H44.9V54.4a2.184,2.184,0,0,0,3.637,1.632l2.108-1.876,2.107,1.876A2.184,2.184,0,0,0,56.393,54.4V45.884h7.089v21.35H37.567V60.853a1.214,1.214,0,0,0-2.427-.01v6.392c-.2,0-3.725,0-12.835,0A1.208,1.208,0,0,0,21.1,68.45V91.015H20.018a16.957,16.957,0,1,0,0,33.915Zm85.346-33.915H79.7V83.5a1.214,1.214,0,0,0-2.427,0v7.515H51.611V69.663h7.338v8.511a2.185,2.185,0,0,0,3.637,1.632l2.107-1.876L66.8,79.805a2.185,2.185,0,0,0,3.637-1.632V69.663h6.835V73.79a1.214,1.214,0,1,0,2.427,0V69.663H87.04v8.511a2.185,2.185,0,0,0,3.637,1.632l2.107-1.876,2.107,1.876a2.185,2.185,0,0,0,3.638-1.632v-8.51h6.833ZM96.1,69.664v7.969l-1.865-1.66a2.184,2.184,0,0,0-2.905,0l-1.865,1.66v-7.97H96.1ZM75.422,45.884h6.634v7.969l-1.864-1.659a2.183,2.183,0,0,0-2.906,0l-1.865,1.66ZM61.377,22.107h6.634V30l-1.865-1.66a2.184,2.184,0,0,0-2.905,0L61.377,30Zm-2.427,0v8.436a2.184,2.184,0,0,0,3.637,1.632L64.694,30.3,66.8,32.175a2.184,2.184,0,0,0,3.637-1.632V22.107h6.835v21.35H51.612V22.107ZM53.965,53.854,52.1,52.194a2.185,2.185,0,0,0-2.905,0l-1.865,1.66V45.886h6.634Zm11.944-7.97h7.086v8.511a2.185,2.185,0,0,0,3.637,1.632l2.107-1.876,2.107,1.876a2.184,2.184,0,0,0,3.637-1.632V45.886h6.834v21.35H65.909Zm2.1,23.778v7.97l-1.865-1.66a2.184,2.184,0,0,0-2.905,0l-1.865,1.66v-7.97Zm-34.726,0c3.472,0,1.863,0,6.634,0v7.97l-1.865-1.66a2.184,2.184,0,0,0-2.9,0l-1.865,1.66Zm-9.768,0h7.34v8.51a2.184,2.184,0,0,0,3.637,1.632L36.6,77.929l2.107,1.876a2.185,2.185,0,0,0,3.637-1.632V69.663h6.836V91.015H23.518Z" transform="translate(-3.06 -19.68)"/></g><g transform="translate(96.974 122.498)"><path d="M196.51,232.689a1.214,1.214,0,1,0,1.214-1.219A1.217,1.217,0,0,0,196.51,232.689Z" transform="translate(-196.51 -231.47)"/></g><g transform="translate(10.371 98.322)"><path d="M126.263,191.319a9.659,9.659,0,0,0-9.648-9.648H27.767a9.648,9.648,0,1,0,0,19.3h88.848a9.659,9.659,0,0,0,9.648-9.648Zm-2.427,0a7.221,7.221,0,1,1-7.221-7.221A7.229,7.229,0,0,1,123.836,191.319Zm-29.616,0A7.221,7.221,0,1,1,87,184.1,7.229,7.229,0,0,1,94.22,191.319Zm-29.616,0a7.221,7.221,0,1,1-7.22-7.221A7.229,7.229,0,0,1,64.6,191.319Zm-44.057,0a7.221,7.221,0,1,1,7.221,7.221A7.229,7.229,0,0,1,20.546,191.319Zm13.6,7.221a9.606,9.606,0,0,0,0-14.442H51.006a9.606,9.606,0,0,0,0,14.442Zm29.616,0a9.606,9.606,0,0,0,0-14.442H80.622a9.606,9.606,0,0,0,0,14.442Zm29.616,0a9.606,9.606,0,0,0,0-14.442h16.861a9.606,9.606,0,0,0,0,14.442Z" transform="translate(-18.119 -181.671)"/></g><g transform="translate(104.439 103.542)"><path d="M211.887,196.852a4.427,4.427,0,1,0,4.427-4.427A4.433,4.433,0,0,0,211.887,196.852Zm6.428,0a2,2,0,1,1-2-2A2,2,0,0,1,218.315,196.852Z" transform="translate(-211.887 -192.425)"/></g><g transform="translate(74.823 103.542)"><path d="M155.309,201.28a4.428,4.428,0,1,0-4.427-4.428A4.432,4.432,0,0,0,155.309,201.28Zm0-6.428a2,2,0,1,1-2,2A2,2,0,0,1,155.309,194.852Z" transform="translate(-150.882 -192.425)"/></g><g transform="translate(45.208 103.542)"><path d="M94.305,201.28a4.428,4.428,0,1,0-4.427-4.428A4.432,4.432,0,0,0,94.305,201.28Zm0-6.428a2,2,0,1,1-2,2A2,2,0,0,1,94.305,194.852Z" transform="translate(-89.878 -192.425)"/></g><g transform="translate(15.591 103.542)"><path d="M37.728,196.852A4.427,4.427,0,1,0,33.3,201.28,4.432,4.432,0,0,0,37.728,196.852Zm-6.428,0a2,2,0,1,1,2,2A2,2,0,0,1,31.3,196.852Z" transform="translate(-28.873 -192.425)"/></g><g transform="translate(35.14 54.784)"><circle cx="1.214" cy="1.214" r="1.214"/></g><g transform="translate(77.274 77.431)"><circle cx="1.214" cy="1.214" r="1.214"/></g></g><g transform="translate(1070.987 20461.703)"><g transform="translate(-29.897 -29.848)"><g transform="translate(0 0)"><circle cx="43.515" cy="43.515" r="43.515" transform="translate(7.409 7.4)" fill="#ffe27a"/><path d="M51.516,263.333A43.514,43.514,0,0,1,8.039,221.577c-.023.584-.038,1.17-.038,1.76a43.515,43.515,0,1,0,87.031,0c0-.59-.015-1.176-.038-1.76a43.515,43.515,0,0,1-43.477,41.756Z" transform="translate(-0.592 -172.422)" fill="#f9cf58"/><circle cx="36.008" cy="36.008" r="36.008" transform="translate(0 50.915) rotate(-45)" fill="#f9f6f6"/><path d="M82.409,255.825a36.008,36.008,0,0,1-35.964-34.248q-.042.875-.043,1.76a36.008,36.008,0,0,0,72.015,0q0-.885-.043-1.76A36.009,36.009,0,0,1,82.409,255.825Z" transform="translate(-31.485 -172.422)" fill="#ecdaec"/><path d="M122.469,85.746,100.345,107.87A36.008,36.008,0,1,0,125.806,46.4V77.689" transform="translate(-74.882 -31.494)" fill="#ff4755"/><circle cx="4.72" cy="4.72" r="4.72" transform="translate(46.205 46.195)" fill="#ffe27a"/><path d="M211.156,224.537a4.72,4.72,0,0,1-4.379-2.96,4.72,4.72,0,1,0,8.758,0A4.719,4.719,0,0,1,211.156,224.537Z" transform="translate(-160.231 -172.422)" fill="#f9cf58"/><path d="M125.806,255.825a35.868,35.868,0,0,1-23.64-8.848l-1.821,1.821a36.008,36.008,0,0,0,61.469-25.461q0-.885-.043-1.76A36.008,36.008,0,0,1,125.806,255.825Z" transform="translate(-74.882 -172.422)" fill="#fc2b3a"/></g><path d="M282.656,254.054l-4.518-.679a21.078,21.078,0,0,0-3.323-8.018l2.716-3.676a1.617,1.617,0,0,0-.157-2.1l-2.339-2.339a1.617,1.617,0,0,0-2.1-.157l-3.676,2.716a21.079,21.079,0,0,0-8.019-3.323l-.679-4.518a1.617,1.617,0,0,0-1.6-1.376h-3.307a1.617,1.617,0,0,0-1.6,1.376l-.679,4.518a21.077,21.077,0,0,0-8.019,3.323l-3.677-2.716a1.617,1.617,0,0,0-2.1.157l-2.339,2.338a1.616,1.616,0,0,0-.157,2.1l2.716,3.676a21.08,21.08,0,0,0-3.323,8.019l-4.518.679a1.617,1.617,0,0,0-1.376,1.6v3.307a1.617,1.617,0,0,0,1.376,1.6l4.518.679a21.08,21.08,0,0,0,3.323,8.019l-2.716,3.676a1.617,1.617,0,0,0,.157,2.1l2.339,2.339a1.617,1.617,0,0,0,2.1.157l3.677-2.716a21.078,21.078,0,0,0,8.019,3.323l.679,4.518a1.617,1.617,0,0,0,1.6,1.376h3.308a1.617,1.617,0,0,0,1.6-1.376l.679-4.518a21.079,21.079,0,0,0,8.019-3.323l3.676,2.716a1.617,1.617,0,0,0,2.1-.157l2.339-2.339a1.617,1.617,0,0,0,.157-2.1l-2.716-3.676a21.079,21.079,0,0,0,3.323-8.019l4.518-.679a1.617,1.617,0,0,0,1.376-1.6v-3.307A1.617,1.617,0,0,0,282.656,254.054ZM257.3,270.847a13.541,13.541,0,1,1,13.541-13.541A13.541,13.541,0,0,1,257.3,270.847Z" transform="translate(-179.652 -179.663)" fill="#4a80aa"/><circle cx="13.541" cy="13.541" r="13.541" transform="translate(64.111 64.101)" fill="#ffe27a"/><path d="M311.568,391.589a13.522,13.522,0,0,0,13.424-15.3,13.538,13.538,0,0,1-26.847,0,13.522,13.522,0,0,0,13.423,15.3Z" transform="translate(-233.916 -296.886)" fill="#407093"/><path d="M311.567,370.07a13.541,13.541,0,0,1-13.424-11.782,13.541,13.541,0,1,0,26.848,0A13.541,13.541,0,0,1,311.567,370.07Z" transform="translate(-233.915 -282.405)" fill="#f9cf58"/></g><g transform="translate(-24.052 -24.012)"><path d="M305.63,290.593a15.037,15.037,0,1,0,5.512,29.031,1.469,1.469,0,0,0-1.077-2.734,12.113,12.113,0,1,1,4.348-2.939,1.469,1.469,0,0,0,2.133,2.022,15.037,15.037,0,0,0-10.915-25.38Z" transform="translate(-233.78 -233.78)"/><path d="M97.47,67.138l-3.52-.529a22.417,22.417,0,0,0-2.768-6.68L93.3,57.066a3.07,3.07,0,0,0-.3-4.02L90.654,50.7a3.121,3.121,0,0,0-.8-.577,45.511,45.511,0,0,0,.285-5.056A45.071,45.071,0,0,0,16.025,10.606a1.469,1.469,0,1,0,1.895,2.246A42.132,42.132,0,0,1,87.2,45.07a42.6,42.6,0,0,1-.318,5.167c-.085.051-.168.106-.249.166L83.77,52.518q-.839-.519-1.715-.959a37.874,37.874,0,0,0,.562-6.49,37.377,37.377,0,0,0-6.276-20.789A1.469,1.469,0,1,0,73.9,25.91a34.449,34.449,0,0,1,5.783,19.16,34.968,34.968,0,0,1-.407,5.316,22.518,22.518,0,0,0-2.181-.636l-.529-3.52a3.07,3.07,0,0,0-3.055-2.63H70.193a3.071,3.071,0,0,0-3.055,2.63l-.529,3.519a22.414,22.414,0,0,0-6.68,2.768L57.066,50.4a3.071,3.071,0,0,0-4.02.3L50.7,53.046a3.07,3.07,0,0,0-.3,4.02l2.116,2.864a22.412,22.412,0,0,0-2.768,6.68l-3.52.529a3.071,3.071,0,0,0-2.63,3.055v3.314a3.07,3.07,0,0,0,2.63,3.055l3.52.529a22.518,22.518,0,0,0,.636,2.181,34.967,34.967,0,0,1-5.316.407,34.476,34.476,0,0,1-23.4-9.133L41.852,50.365a6.2,6.2,0,1,0,4.687-11.316V10.494A34.485,34.485,0,0,1,70.4,21.486a1.469,1.469,0,0,0,2.15-2,37.547,37.547,0,1,0-27.48,63.134,37.87,37.87,0,0,0,6.49-.562q.441.875.959,1.715L50.4,86.634c-.06.081-.115.164-.166.249a42.61,42.61,0,0,1-5.167.317A42.131,42.131,0,0,1,13.828,16.8,1.469,1.469,0,0,0,11.65,14.83,45.07,45.07,0,0,0,45.07,90.139a45.513,45.513,0,0,0,5.056-.285,3.119,3.119,0,0,0,.577.8L53.046,93a3.071,3.071,0,0,0,4.02.3l2.864-2.116a22.414,22.414,0,0,0,6.68,2.768l.529,3.52a3.071,3.071,0,0,0,3.055,2.63h3.314a3.07,3.07,0,0,0,3.055-2.63l.529-3.52a22.409,22.409,0,0,0,6.679-2.768L86.634,93.3a3.07,3.07,0,0,0,4.02-.3L93,90.654a3.071,3.071,0,0,0,.3-4.02L91.182,83.77a22.41,22.41,0,0,0,2.768-6.679l3.52-.529a3.07,3.07,0,0,0,2.63-3.055V70.193a3.07,3.07,0,0,0-2.629-3.055ZM48.329,45.07a3.26,3.26,0,1,1-3.26-3.26A3.263,3.263,0,0,1,48.329,45.07ZM10.494,46.539h5.321a1.469,1.469,0,0,0,0-2.938H10.494a34.477,34.477,0,0,1,9.1-21.93l3.752,3.752a1.469,1.469,0,0,0,2.078-2.078l-3.752-3.752a34.476,34.476,0,0,1,21.929-9.1V39.049a6.194,6.194,0,0,0-3.826,9.238L19.593,68.468a34.477,34.477,0,0,1-9.1-21.929ZM97.161,73.507a.15.15,0,0,1-.128.149l-4.527.681a1.469,1.469,0,0,0-1.225,1.182,19.55,19.55,0,0,1-3.1,7.476,1.469,1.469,0,0,0,.031,1.7l2.721,3.684a.15.15,0,0,1-.015.2l-2.343,2.343a.149.149,0,0,1-.2.014L84.7,88.212a1.47,1.47,0,0,0-1.7-.031,19.546,19.546,0,0,1-7.476,3.1A1.469,1.469,0,0,0,74.337,92.5l-.681,4.527a.15.15,0,0,1-.149.128H70.194a.149.149,0,0,1-.149-.128l-.68-4.527a1.469,1.469,0,0,0-1.182-1.226,19.552,19.552,0,0,1-7.476-3.1,1.469,1.469,0,0,0-1.7.031L55.32,90.933a.152.152,0,0,1-.2-.014l-2.343-2.344a.15.15,0,0,1-.015-.2L55.488,84.7a1.469,1.469,0,0,0,.031-1.7,19.551,19.551,0,0,1-3.1-7.476A1.469,1.469,0,0,0,51.2,74.336l-4.527-.681a.152.152,0,0,1-.128-.149V70.193a.15.15,0,0,1,.128-.149l4.527-.68a1.469,1.469,0,0,0,1.226-1.182,19.55,19.55,0,0,1,3.1-7.476,1.469,1.469,0,0,0-.031-1.7L52.767,55.32a.151.151,0,0,1,.015-.2l2.343-2.343a.151.151,0,0,1,.2-.015L59,55.487a1.469,1.469,0,0,0,1.7.031,19.55,19.55,0,0,1,7.476-3.1,1.469,1.469,0,0,0,1.182-1.226l.68-4.527a.15.15,0,0,1,.149-.128h3.314a.15.15,0,0,1,.149.128l.681,4.527a1.469,1.469,0,0,0,1.182,1.225,19.551,19.551,0,0,1,7.476,3.1,1.469,1.469,0,0,0,1.7-.031l3.684-2.721a.15.15,0,0,1,.2.015l2.343,2.343a.151.151,0,0,1,.014.2L88.213,59a1.469,1.469,0,0,0-.031,1.7,19.549,19.549,0,0,1,3.1,7.476,1.469,1.469,0,0,0,1.226,1.182l4.527.68a.15.15,0,0,1,.128.149v3.314Z" transform="translate(0)"/><path d="M344.919,343.355l-5.488,5.628-2.382-2.316A1.469,1.469,0,1,0,335,348.773l3.434,3.339a1.469,1.469,0,0,0,2.076-.028l6.513-6.678a1.469,1.469,0,0,0-2.1-2.051Z" transform="translate(-269.147 -275.87)"/></g></g><g transform="translate(58.037 3412.161)"><rect width="33.075" height="7" transform="translate(521.962 17110)" fill="#f14141"/><rect width="33.075" height="7" transform="translate(521.962 17094)" fill="#f14141"/></g><g transform="translate(417.903 3419.546)"><rect width="39.708" height="5.573" transform="translate(517.679 17083.615) rotate(40)" fill="#f14141"/><rect width="39.707" height="5.573" transform="translate(548.096 17087.885) rotate(140)" fill="#f14141"/></g></g></svg>