<svg xmlns="http://www.w3.org/2000/svg" xmlns:xlink="http://www.w3.org/1999/xlink" width="295" height="162.918" viewBox="0 0 295 162.918"><defs><clipPath id="a"><rect width="295" height="162.917" fill="none"/></clipPath><clipPath id="b"><path d="M132.49,1.821l-4.384,30.914c7.187,4.045,20.366.857,20.366.857L144.2,1.4Z" transform="translate(-128.106 -1.401)" fill="none"/></clipPath><clipPath id="d"><path d="M80.227,49.465l59.858,2.219,1.137,31.6L130.647,142.08l62.281.743L181.887,22.816,80.2,19.992Z" transform="translate(-80.199 -19.992)" fill="none"/></clipPath><clipPath id="f"><path d="M155.864,66.6c-1.058,3.283-1.929,6.61-2.669,9.979a200.233,200.233,0,0,0-4.136,27.461,48.716,48.716,0,0,0-.1,10.056c.1.76.516,2.763.979,2.885s1.386-1.569,1.792-2.154a60.157,60.157,0,0,0,4.973-8.873,128.368,128.368,0,0,0,9.634-30.48c.478-2.53,1.551-7.088,1.858-9.644l-11.233-2.791a31.112,31.112,0,0,0-1.1,3.562" transform="translate(-148.732 -63.037)" fill="none"/></clipPath><clipPath id="h"><path d="M154.443,61.277a27.561,27.561,0,0,1,.725-10.5,11.84,11.84,0,0,1,2.154-4.688,5.913,5.913,0,0,1,1.7-1.414,6.066,6.066,0,0,1,1.894-.631c5.042-.763,6.348,5.609,5.629,10.64-.552,3.86-2.308,13.542-6.359,13.673-.054,0-.107,0-.162,0-3.545,0-5.233-3.822-5.586-7.086m19.738,10.152c-3.43-1.361-2.159-9.857,1.778-22.051,1.787-5.54,6.915-12.459,12.575-10.561,4.683,1.568,8,13.5-.86,25.341-2.227,2.977-6.974,7.665-11.391,7.665a5.637,5.637,0,0,1-2.1-.394m7.172-41.722c-5.789,3.859-8.1,12.628-10.178,18.954a15.1,15.1,0,0,0-1.324-6.328c-2.477-4.853-7.612-7.363-12.83-5.683a10.026,10.026,0,0,0-3.3,1.7,15.751,15.751,0,0,0-3.267,3.521,22.033,22.033,0,0,0-2.2,4.836c-1.767,5.09-2.73,11.345-.224,16.372a41.535,41.535,0,0,0,4.538,7c4.594,5.484,5.649,10.238,5.268,13.371-.185,1.523-1.2,4.925-.836,5.588.41.735,10.988,3.974,12.215,2.8.725-.7,1.093-3.743,1.589-4.986A17.631,17.631,0,0,1,175,80.967c3.671-3.414,8.41-5.644,12.306-8.81,5.817-4.731,10.882-11.281,12.308-18.809a24.346,24.346,0,0,0,.4-4.4v-.328A34.837,34.837,0,0,0,199.6,43.6a20.4,20.4,0,0,0-.958-3.984c-1.927-5.245-6.87-11.446-12.534-11.446a8.476,8.476,0,0,0-4.759,1.536" transform="translate(-146.515 -28.171)" fill="none"/></clipPath><clipPath id="j"><path d="M32.642,48.7l2.306,71.162c17.732,6.257,46.083-6.084,46.083-6.084L58.786,43.154Z" transform="translate(-32.642 -43.154)" fill="none"/></clipPath><clipPath id="l"><path d="M33.444,69.688a17.377,17.377,0,0,0,.3,13.033c.471,1.144,2.423,4.984,2.327,4.922-.226-.147-.457-.279-.691-.415a17.418,17.418,0,0,0-2.156-1.113,36.191,36.191,0,0,0-8.034-2.207c-7.679-1.207-16.56.165-22,6.222A13.368,13.368,0,0,0,0,98.909v.185a13.118,13.118,0,0,0,1.409,5.95,24.848,24.848,0,0,0,7.768,8.337c9.08,6.484,19.582,8.569,30.36,10.3,6.155.989,14.479,1.305,20.391.3,2.133-3.585,9.753-30.358,9.5-41.258-.1-4.254-.366-8.644-1.93-12.647a22.442,22.442,0,0,0-4.65-7.386,19.6,19.6,0,0,0-5.588-3.959A18.247,18.247,0,0,0,52.31,57.24a15.572,15.572,0,0,0-2.484-.2c-8.154,0-14.192,6.659-16.382,12.651" transform="translate(0 -57.037)" fill="none"/></clipPath></defs><g transform="translate(-285 -20838.395)"><g transform="translate(285 20838.395)"><path d="M136.991,0l-3.4.053-.971,2.967,5.162.1Z" transform="translate(85.974 0)" fill="#6a3e58"/><g transform="translate(0 0)"><g clip-path="url(#a)"><path d="M132.492,1.821,144.2,1.4l4.269,32.191s-13.178,3.186-20.366-.857Z" transform="translate(83.05 0.908)" fill="#2c78dc" fill-rule="evenodd"/></g></g><g transform="translate(211.156 2.309)"><g clip-path="url(#b)"><path d="M148.465,5.936c-3.463,2.771-6.494,6-9.659,9.1a111.645,111.645,0,0,1-11.4,10.015.316.316,0,1,0,.377.508,112.707,112.707,0,0,0,11.462-10.069c3.147-3.081,6.165-6.3,9.611-9.059a.316.316,0,1,0-.4-.493" transform="translate(-128.641 1.493)" fill="#6b80ce" fill-rule="evenodd"/><path d="M150.364,9.851c-8.245,5.774-15.234,13.211-23.646,18.787a.316.316,0,0,0,.349.527c8.416-5.578,15.41-13.02,23.66-18.8a.316.316,0,0,0-.363-.518" transform="translate(-129.097 4.04)" fill="#6b80ce" fill-rule="evenodd"/><path d="M149.878,12.976c-2.791,2.736-5.945,5.1-8.965,7.577-3.391,2.776-6.766,5.6-10.346,8.136a.316.316,0,1,0,.364.516c3.593-2.54,6.981-5.377,10.383-8.164,3.035-2.484,6.2-4.862,9.008-7.613a.316.316,0,1,0-.443-.452" transform="translate(-126.598 6.044)" fill="#6b80ce" fill-rule="evenodd"/><path d="M151.685,25.52c-3.082-1.223-5.84-3.3-8.762-4.854-5.281-2.812-10.7-5.383-16.082-7.989a.316.316,0,1,0-.277.569c5.38,2.6,10.788,5.171,16.063,7.978,2.944,1.568,5.723,3.653,8.825,4.886a.317.317,0,0,0,.234-.588" transform="translate(-129.222 5.888)" fill="#6b80ce" fill-rule="evenodd"/><path d="M147.06,26.339c-1.345-.776-2.751-1.431-4.106-2.189-5.423-3.033-10.917-5.978-16.6-8.505a.316.316,0,0,0-.255.579c5.66,2.519,11.139,5.456,16.542,8.479,1.355.758,2.758,1.411,4.1,2.184a.316.316,0,1,0,.315-.547" transform="translate(-129.527 7.815)" fill="#6b80ce" fill-rule="evenodd"/><path d="M152.225,17.011c-3.17-1.424-6.163-3.249-9.169-4.978-4.836-2.784-9.7-5.5-14.76-7.851a.316.316,0,0,0-.267.574c5.045,2.347,9.891,5.05,14.713,7.824,3.025,1.741,6.038,3.574,9.226,5.008a.316.316,0,1,0,.259-.577" transform="translate(-128.274 0.383)" fill="#6b80ce" fill-rule="evenodd"/><path d="M149.316,12.133A160.693,160.693,0,0,0,127.807,1a.316.316,0,1,0-.247.582,159.827,159.827,0,0,1,21.424,11.091.316.316,0,1,0,.331-.539" transform="translate(-128.585 -1.678)" fill="#6b80ce" fill-rule="evenodd"/><path d="M145.372,7.094A81.327,81.327,0,0,0,133.028.951a.316.316,0,0,0-.249.582,80.511,80.511,0,0,1,12.248,6.092.316.316,0,1,0,.344-.531" transform="translate(-125.2 -1.709)" fill="#6b80ce" fill-rule="evenodd"/><path d="M144.663,1.011c-3.265,2.652-6.193,5.7-9.313,8.515-2.036,1.839-4.434,3.29-6.409,5.184a.317.317,0,0,0,.438.457c1.97-1.889,4.363-3.336,6.394-5.171,3.112-2.812,6.031-5.848,9.288-8.494a.316.316,0,1,0-.4-.491" transform="translate(-127.627 -1.7)" fill="#442639" fill-rule="evenodd"/><path d="M145.386,3.5c-3.245,2.126-5.883,5.171-8.739,7.772-2.6,2.364-5.5,4.343-8.121,6.676a.316.316,0,1,0,.42.471c2.621-2.332,5.528-4.314,8.128-6.681,2.83-2.578,5.441-5.6,8.659-7.707a.317.317,0,0,0-.346-.531" transform="translate(-127.903 -0.071)" fill="#442639" fill-rule="evenodd"/><path d="M152.46,22.164c-2.471-1.083-4.83-2.4-7.261-3.564-6.245-2.99-12.618-5.7-19.069-8.205a.316.316,0,1,0-.229.588c6.438,2.5,12.794,5.2,19.025,8.187,2.438,1.167,4.8,2.487,7.282,3.573a.316.316,0,0,0,.252-.58" transform="translate(-129.667 4.416)" fill="#442639" fill-rule="evenodd"/><path d="M151.377,19.158c-8.12-4.2-16.541-7.943-24.991-11.414a.315.315,0,1,0-.239.583c8.433,3.465,16.837,7.2,24.94,11.393a.316.316,0,0,0,.29-.562" transform="translate(-129.504 2.695)" fill="#442639" fill-rule="evenodd"/></g></g><g transform="translate(0 0)"><g clip-path="url(#a)"><path d="M108.428,12.335c.783.013.883-2.8.893-4,.012-1.086-.186-3.046-.829-3.153-.625-.1-.892,1.914-.9,2.937-.012,1.19-.175,4.195.837,4.211m-.883.987a4.891,4.891,0,0,1-1.266-2.739,17.585,17.585,0,0,1,.791-6.577c.226-.644.574-1.551,1.264-1.706.583-.132,1.147.747,1.3,1.01a8.063,8.063,0,0,1,.577,1.3,11.042,11.042,0,0,1,.427,1.927c.666,3.977-.791,5.474-1.5,6.9a120.5,120.5,0,0,1-.26,14.93c-.153,1.932-.336,3.864-.582,5.787a13.624,13.624,0,0,1-.206,1.368c-.015.059-.166.44-.316.368-.518-.252-.513-1.16-.567-1.629a41.291,41.291,0,0,1-.129-4.864c0-5.458.313-10.628.47-16.076" transform="translate(68.852 1.482)" fill="#a4c0d0" fill-rule="evenodd"/><path d="M89.4,12.335c.783.013.883-2.8.893-4,.012-1.086-.186-3.046-.829-3.153-.623-.1-.892,1.914-.9,2.937-.012,1.19-.173,4.195.837,4.211m-.883.987a4.9,4.9,0,0,1-1.266-2.739,17.586,17.586,0,0,1,.791-6.577c.226-.644.574-1.551,1.264-1.706.583-.132,1.147.747,1.3,1.01a8.063,8.063,0,0,1,.577,1.3,11.042,11.042,0,0,1,.427,1.927c.666,3.977-.791,5.474-1.5,6.9a120.822,120.822,0,0,1-.262,14.93c-.153,1.932-.336,3.864-.582,5.787a13.624,13.624,0,0,1-.206,1.368c-.015.059-.166.44-.316.368-.518-.252-.511-1.16-.567-1.629a41.647,41.647,0,0,1-.129-4.864c0-5.458.313-10.628.47-16.076" transform="translate(56.516 1.482)" fill="#a4c0d0" fill-rule="evenodd"/><path d="M97.255,7.653c-.1-.252-.2-.509-.288-.77a3.972,3.972,0,0,1,.791-4.177,1.225,1.225,0,0,1,1.062-.279,1.573,1.573,0,0,1,.963.824,4.685,4.685,0,0,1-.14,4.5,10.751,10.751,0,0,1-.887,1.49A16.29,16.29,0,0,0,101.1,12.26c4.48,4.619,10.29,5.245,16.3,4.47a19.257,19.257,0,0,0,12.1-7.317,4.414,4.414,0,0,1,.33-.333c.007-.008.008-.255.012-.414.036.049.054.12.094.171a8.218,8.218,0,0,0,1.263-3.981c.02-.865-.162-1.625-.793-1.937-.541-.267-1.005.059-1.31.635a4.477,4.477,0,0,0-.312,2.832l-.016.069a8.707,8.707,0,0,0-.181,1.276c0,.015-.025.043-.023.058a5.486,5.486,0,0,1-.026-4.531,1.561,1.561,0,0,1,2.149-.9,2.539,2.539,0,0,1,1.146,2.519,8.879,8.879,0,0,1-1.444,4.421l-.041.054c2.7,3.166,8.658,6.954,13.786,7.5,17.416,1.846,23.905-4.449,27.255-7.544a.316.316,0,0,1,.429.465c-3.41,3.152-10.012,9.59-27.751,7.707-5.219-.552-11.263-4.373-14.108-7.617a19.91,19.91,0,0,1-12.476,7.5c-6.211.8-12.206.117-16.834-4.658a16.986,16.986,0,0,1-2.3-2.909,17.521,17.521,0,0,1-3.376,3.255c-6.178,4.447-15.037,9.031-22.847,7.373a.316.316,0,1,1,.13-.618c7.645,1.622,16.3-2.914,22.348-7.267a16.8,16.8,0,0,0,3.384-3.306,1.03,1.03,0,0,0,.1-.142c.114-.178.265-.34.371-.523a9.8,9.8,0,0,0,.618-1.083,4.08,4.08,0,0,0,.162-3.911.98.98,0,0,0-.562-.526.612.612,0,0,0-.521.158,3.166,3.166,0,0,0-.714,3.02,3.341,3.341,0,0,0-.071.358,6.3,6.3,0,0,0-.112,1.075" transform="translate(46.595 1.416)" fill="#442639" fill-rule="evenodd"/><path d="M130.647,142.08l10.575-58.793-1.136-31.6L80.227,49.466,80.2,19.993l101.688,2.824,11.04,120.006Z" transform="translate(51.992 12.961)" fill="#f14141" fill-rule="evenodd"/></g></g><g transform="translate(132.191 32.953)"><g clip-path="url(#d)"><path d="M111.155,87.993c16.11-1.325,32.519-1.137,48.668-.893,5.317.081,10.648.4,15.967.28a.317.317,0,0,0-.016-.633c-5.309.12-10.633-.2-15.941-.279-16.168-.246-32.6-.432-48.73.893a.317.317,0,0,0,.053.631" transform="translate(-60.353 22.991)" fill="#442639" fill-rule="evenodd"/><path d="M111.32,84.5c7.1-1.152,14.6-.915,21.771-1,15.027-.178,30.1.429,45.106,1.187a.316.316,0,1,0,.033-.631c-15.021-.758-30.1-1.366-45.145-1.188-7.208.086-14.731-.15-21.865,1.007a.316.316,0,0,0,.1.625" transform="translate(-60.261 20.748)" fill="#442639" fill-rule="evenodd"/></g></g><g transform="translate(0 0)"><g clip-path="url(#a)"><path d="M52.967,90.676l163.705,1.01-1.063,12.448L53.661,103.61Z" transform="translate(34.338 58.784)" fill="#f5c8ce" fill-rule="evenodd"/><path d="M71.714,63.184c1.081.018,1.223-3.887,1.236-5.537.013-1.507-.259-4.223-1.151-4.37-.864-.143-1.236,2.65-1.249,4.068-.013,1.653-.241,5.815,1.164,5.838m-1.228,1.368a6.781,6.781,0,0,1-1.752-3.8,24.376,24.376,0,0,1,1.094-9.113c.313-.892.8-2.149,1.752-2.365.809-.181,1.591,1.038,1.8,1.4a11.435,11.435,0,0,1,.8,1.8,15.194,15.194,0,0,1,.592,2.672c.921,5.512-1.1,7.587-2.077,9.558A166.743,166.743,0,0,1,72.329,85.4c-.211,2.678-.463,5.355-.806,8.021a18.278,18.278,0,0,1-.284,1.894c-.021.084-.232.612-.438.511-.72-.349-.71-1.609-.786-2.257a57.485,57.485,0,0,1-.178-6.742c0-7.562.434-14.728.649-22.275" transform="translate(44.494 31.933)" fill="#a4c0d0" fill-rule="evenodd"/><path d="M143.509,31.179c21.22,1.777,30.653,21.528,31.255,34.294.761,16.122-13.551,27.6-29.556,29.132a37.426,37.426,0,0,1-14.63-1.612,29.446,29.446,0,0,1-10.661-5.832,27.476,27.476,0,0,1-5.734-6.611c-12.356-20.005,5.576-51.359,29.326-49.371" transform="translate(71.418 20.155)" fill="#f5c8ce" fill-rule="evenodd"/><path d="M76.223,55.605l-.117,8.845-8.24.046-.059-9.763" transform="translate(43.959 35.483)" fill="#fc9080" fill-rule="evenodd"/><path d="M102.566,26.548l.3,59.678-46.429-.213.818-53.781s-.246-21.408,24.058-21.395c6.453,0,18.294,3.727,21.251,15.71" transform="translate(36.589 7.026)" fill="#f5c8ce" fill-rule="evenodd"/><path d="M162.976,46.2a24.26,24.26,0,0,1-8.4,27.592,26.084,26.084,0,0,1-10.1,4.225c-10.035,2.184-21.637,1.151-27.691-8.248a.316.316,0,0,0-.531.343c6.2,9.631,18.074,10.76,28.357,8.523A26.754,26.754,0,0,0,154.955,74.3a24.891,24.891,0,0,0,8.616-28.311.316.316,0,1,0-.6.211" transform="translate(75.333 29.676)" fill="#442639" fill-rule="evenodd"/><path d="M168.2,65.827c-.308,2.556-1.381,7.116-1.859,9.644a128.171,128.171,0,0,1-9.634,30.48,60.156,60.156,0,0,1-4.973,8.873c-.406.585-1.33,2.276-1.792,2.154s-.879-2.125-.977-2.883a48.6,48.6,0,0,1,.1-10.056A200.482,200.482,0,0,1,153.2,76.579c.742-3.369,1.61-6.7,2.67-9.98a30.762,30.762,0,0,1,1.1-3.56Z" transform="translate(96.422 40.867)" fill="#f2f2f2" fill-rule="evenodd"/></g></g><g transform="translate(245.154 103.903)"><g clip-path="url(#f)"><path d="M149.779,116.628c1.33-4.261,1.933-8.687,2.858-13.043,2.771-13.074,5.215-26.244,8.851-39.119a.211.211,0,1,0-.407-.114c-3.639,12.881-6.087,26.061-8.86,39.145-.92,4.343-1.52,8.756-2.847,13a.212.212,0,1,0,.4.127" transform="translate(-148.322 -62.284)" fill="#442639" fill-rule="evenodd"/></g></g><g transform="translate(0 0)"><g clip-path="url(#a)"><path d="M174.18,71.429c-3.428-1.361-2.158-9.857,1.779-22.051,1.788-5.54,6.916-12.459,12.576-10.562,4.683,1.569,8,13.5-.86,25.343-2.586,3.456-8.573,9.224-13.495,7.271M160.189,68.36c4.051-.13,5.809-9.812,6.359-13.673.719-5.031-.587-11.4-5.627-10.64a6.012,6.012,0,0,0-1.894.633,5.864,5.864,0,0,0-1.7,1.413,11.828,11.828,0,0,0-2.154,4.688,27.6,27.6,0,0,0-.727,10.5c.358,3.311,2.093,7.2,5.748,7.081m10.986-19.7c2.075-6.326,4.389-15.093,10.178-18.954,7.495-5,14.836,3.231,17.292,9.911A20.382,20.382,0,0,1,199.6,43.6a29.5,29.5,0,0,1,.01,9.748c-1.426,7.528-6.491,14.078-12.309,18.809-3.9,3.168-8.634,5.4-12.3,8.81a17.647,17.647,0,0,0-4.19,5.883c-.5,1.243-.864,4.291-1.589,4.986-1.228,1.177-11.807-2.064-12.215-2.8-.368-.663.649-4.065.836-5.588.381-3.133-.674-7.887-5.268-13.371a41.354,41.354,0,0,1-4.538-7c-2.505-5.029-1.543-11.283.224-16.376a22.161,22.161,0,0,1,2.194-4.834,15.828,15.828,0,0,1,3.269-3.521,10.057,10.057,0,0,1,3.3-1.7c5.22-1.68,10.353.831,12.83,5.685a15.113,15.113,0,0,1,1.324,6.326" transform="translate(94.985 18.263)" fill="#f14141" fill-rule="evenodd"/></g></g><g transform="translate(241.499 46.434)"><g clip-path="url(#h)"><path d="M168.519,37.078c-2.072,8.418-3.6,16.977-5.588,25.42-.822,3.5-1.312,7.269-2.56,10.645a4.833,4.833,0,0,1-2.13,2.172,10.961,10.961,0,0,0-2.67,2.037c-1.793,2.247-2.242,5.218-3.14,7.913a.211.211,0,1,0,.4.134c.883-2.649,1.309-5.575,3.069-7.785a10.623,10.623,0,0,1,2.57-1.943,5.252,5.252,0,0,0,2.3-2.382c1.253-3.392,1.749-7.182,2.575-10.694,1.983-8.441,3.516-17,5.586-25.417a.211.211,0,0,0-.41-.1" transform="translate(-142.686 -22.501)" fill="#442639" fill-rule="evenodd"/></g></g><g transform="translate(0 0)"><g clip-path="url(#a)"><path d="M159.452,61.2a2.4,2.4,0,0,1,.786,3.606,2.786,2.786,0,0,1-3.364.727c-1.839-.921-1.462-3.316.025-4.243a2.63,2.63,0,0,1,2.553-.091" transform="translate(100.897 39.49)" fill="#f5c8ce" fill-rule="evenodd"/><path d="M56.118,88.8l-1.062,7.195-7.88,1.215-2.827-7.4" transform="translate(28.752 57.567)" fill="#6a3e58" fill-rule="evenodd"/><path d="M36.865,49.535,37.88,42.49l7.625-1.46L48.5,47.72" transform="translate(23.899 26.599)" fill="#6a3e58" fill-rule="evenodd"/><path d="M32.642,48.7l26.142-5.548,22.247,70.626s-28.349,12.341-46.085,6.084Z" transform="translate(21.162 27.977)" fill="#2c78dc" fill-rule="evenodd"/></g></g><g transform="translate(53.804 71.13)"><g clip-path="url(#j)"><path d="M79.913,79.336c-8.827-4.117-17.846-7.788-26.928-11.294-6.77-2.614-13.537-5.209-20.518-7.22a.2.2,0,0,0-.242.134.2.2,0,0,0,.134.242c6.971,2.006,13.727,4.6,20.487,7.208,9.074,3.5,18.083,7.17,26.9,11.284a.2.2,0,0,0,.165-.354" transform="translate(-32.917 -31.705)" fill="#5168b6" fill-rule="evenodd"/><path d="M83.088,83.687c-4.254-1.365-8.269-3.419-12.412-5.08C57.513,73.327,43.806,67.813,29.8,65.242a.2.2,0,0,0-.071.384c13.981,2.568,27.663,8.072,40.8,13.343,4.152,1.665,8.176,3.72,12.44,5.088a.195.195,0,1,0,.119-.371" transform="translate(-34.635 -28.836)" fill="#5168b6" fill-rule="evenodd"/><path d="M87.893,89.954C69.139,81.723,49.96,74.167,29.755,70.318a.2.2,0,0,0-.073.384c20.177,3.842,39.327,11.39,58.055,19.61a.2.2,0,1,0,.157-.358" transform="translate(-34.663 -25.546)" fill="#5168b6" fill-rule="evenodd"/><path d="M69.791,49.286c-4.767,3.381-9.2,7.374-13.841,10.938-9.333,7.162-18.939,14.05-27.672,21.952a.194.194,0,1,0,.26.288c8.726-7.894,18.326-14.775,27.648-21.931,4.642-3.562,9.066-7.552,13.829-10.93a.2.2,0,0,0-.226-.318" transform="translate(-35.513 -39.202)" fill="#5168b6" fill-rule="evenodd"/><path d="M69.238,45.133c-3.377,2.4-6.5,5.149-9.723,7.749C49.254,61.165,39.366,69.873,29.509,78.627a.195.195,0,1,0,.259.292C39.619,70.168,49.5,61.465,59.758,53.187c3.216-2.6,6.334-5.344,9.705-7.735a.2.2,0,1,0-.226-.318" transform="translate(-34.716 -41.894)" fill="#5168b6" fill-rule="evenodd"/><path d="M67,42.272c-5.077,3.667-9.877,7.833-14.66,11.869C43.72,61.415,35.175,68.92,27.283,76.993a.195.195,0,1,0,.279.272C35.445,69.2,43.98,61.7,52.594,54.439c4.778-4.03,9.568-8.189,14.638-11.851A.2.2,0,0,0,67,42.272" transform="translate(-36.152 -43.75)" fill="#5168b6" fill-rule="evenodd"/><path d="M80.527,76.088c-3.959,1.3-7.487,4.335-11.065,6.4A373.62,373.62,0,0,0,38.069,102.9a.2.2,0,0,0-.045.272.2.2,0,0,0,.274.045,373.244,373.244,0,0,1,31.36-20.391c3.555-2.055,7.056-5.082,10.991-6.371a.2.2,0,1,0-.122-.371" transform="translate(-29.176 -21.809)" fill="#5168b6" fill-rule="evenodd"/><path d="M78.276,79.605c-6.2,3.989-12.766,7.37-18.992,11.322C53.25,94.759,47.5,99.009,41.468,102.846a.2.2,0,0,0,.209.33c6.028-3.837,11.782-8.088,17.816-11.919,6.224-3.954,12.792-7.333,18.993-11.324a.195.195,0,0,0-.211-.328" transform="translate(-26.979 -19.543)" fill="#5168b6" fill-rule="evenodd"/><path d="M29.9,79.994A36.12,36.12,0,0,1,37.413,82.2c2.781,1.024,5.571,2.029,8.339,3.092,9.054,3.48,18.11,7.162,26.839,11.4a.2.2,0,0,0,.26-.091.192.192,0,0,0-.091-.26c-8.738-4.248-17.8-7.935-26.87-11.418-2.767-1.065-5.56-2.07-8.342-3.094a36.472,36.472,0,0,0-7.6-2.228.2.2,0,0,0-.053.387" transform="translate(-34.531 -19.523)" fill="#5168b6" fill-rule="evenodd"/><path d="M27.988,83.055c3.748,1.09,7.381,2.489,11.063,3.78,3.977,1.393,7.986,2.721,11.894,4.3,5.471,2.2,10.765,4.826,16.018,7.5a.2.2,0,0,0,.264-.086.2.2,0,0,0-.087-.262c-5.261-2.677-10.569-5.306-16.048-7.513-3.916-1.577-7.93-2.908-11.912-4.3-3.687-1.292-7.328-2.695-11.083-3.786a.195.195,0,1,0-.109.374" transform="translate(-35.751 -17.534)" fill="#5168b6" fill-rule="evenodd"/><path d="M33.454,44.763c4.01,1.223,7.75,3.43,11.513,5.247a217.79,217.79,0,0,1,22.224,11.9.2.2,0,0,0,.27-.061.194.194,0,0,0-.061-.269A218.565,218.565,0,0,0,45.137,49.659c-3.78-1.826-7.539-4.04-11.569-5.268a.194.194,0,0,0-.244.129.2.2,0,0,0,.13.244" transform="translate(-32.206 -42.358)" fill="#5168b6" fill-rule="evenodd"/><path d="M37.71,42.937c3.443,1.213,6.718,2.969,10.04,4.478A180.41,180.41,0,0,1,69.072,58.558a.2.2,0,1,0,.206-.331A181.043,181.043,0,0,0,47.911,47.06c-3.331-1.513-6.618-3.274-10.071-4.492a.2.2,0,0,0-.13.369" transform="translate(-29.441 -43.541)" fill="#5168b6" fill-rule="evenodd"/><path d="M30.414,51.14A62,62,0,0,1,39.2,55.268q5.5,2.9,11.039,5.721c8.416,4.3,17.238,8.078,25.333,12.975a.2.2,0,0,0,.269-.064.2.2,0,0,0-.066-.269c-8.1-4.9-16.933-8.683-25.359-12.99q-5.533-2.828-11.034-5.718a62.327,62.327,0,0,0-8.843-4.152.195.195,0,0,0-.125.369" transform="translate(-34.172 -38.223)" fill="#442639" fill-rule="evenodd"/><path d="M29.992,53.953c9.278,4.111,18.388,8.6,27.464,13.13,7.147,3.57,14.452,7.061,21.045,11.6a.2.2,0,1,0,.223-.321c-6.61-4.553-13.93-8.052-21.093-11.632C48.55,62.2,39.433,57.709,30.15,53.6a.195.195,0,0,0-.158.356" transform="translate(-34.435 -36.395)" fill="#442639" fill-rule="evenodd"/><path d="M81.062,70.062c-6.981,5.324-14.647,9.647-21.949,14.5-9.558,6.359-18.743,13.236-28.011,20a.2.2,0,0,0,.231.315c9.265-6.758,18.444-13.631,28-19.987,7.31-4.862,14.983-9.191,21.968-14.52a.195.195,0,0,0-.236-.31" transform="translate(-33.692 -25.736)" fill="#442639" fill-rule="evenodd"/><path d="M80.978,65.98c-7.406,4.15-14.3,9.183-21.24,14.043-9.4,6.577-18.916,12.992-28.1,19.867a.2.2,0,0,0,.234.313c9.179-6.873,18.7-13.287,28.087-19.86,6.934-4.854,13.814-9.878,21.209-14.024a.195.195,0,0,0-.191-.34" transform="translate(-33.343 -28.372)" fill="#442639" fill-rule="evenodd"/><path d="M77.851,64.51c-3.255,2.113-6.374,4.434-9.636,6.547C61.056,75.694,53.738,80.1,46.777,85.04c-5.843,4.144-11.444,8.639-17.146,12.972a.195.195,0,1,0,.236.31C35.565,93.992,41.161,89.5,47,85.358c6.957-4.933,14.269-9.339,21.425-13.973,3.26-2.113,6.381-4.434,9.636-6.547a.2.2,0,0,0-.213-.328" transform="translate(-34.644 -29.329)" fill="#442639" fill-rule="evenodd"/></g></g><g transform="translate(0 0)"><g clip-path="url(#a)"><path d="M59.93,123.973c-5.914,1.012-14.236.694-20.393-.293-10.777-1.731-21.278-3.813-30.358-10.3a24.828,24.828,0,0,1-7.768-8.335A13.824,13.824,0,0,1,3.186,90.13c5.443-6.057,14.322-7.431,22-6.222a36.128,36.128,0,0,1,8.034,2.207,17.638,17.638,0,0,1,2.156,1.111c.232.137.463.269.689.417.1.063-1.854-3.778-2.327-4.923a17.372,17.372,0,0,1-.3-13.031C35.852,63.1,42.9,55.712,52.31,57.24a18.319,18.319,0,0,1,4.955,1.482,19.618,19.618,0,0,1,5.588,3.961A22.421,22.421,0,0,1,67.5,70.068c1.566,4,1.835,8.393,1.933,12.647.246,10.9-7.373,37.673-9.5,41.257" transform="translate(0 36.976)" fill="#f14141" fill-rule="evenodd"/></g></g><g transform="translate(0 94.014)"><g clip-path="url(#l)"><path d="M36.155,97.4c.377-.918.765-1.833,1.116-2.763a.2.2,0,0,0-.366-.137c-.349.925-.733,1.836-1.113,2.749a.2.2,0,0,0,.363.15" transform="translate(23.195 -32.831)" fill="#6f2a2a" fill-rule="evenodd"/><path d="M37.135,94.465c.232-.806.432-1.62.682-2.42a.194.194,0,1,0-.371-.117c-.254.8-.453,1.62-.687,2.428a.2.2,0,1,0,.376.109" transform="translate(23.826 -34.506)" fill="#6f2a2a" fill-rule="evenodd"/><path d="M38.059,91.691c.252-.676.447-1.371.705-2.046a.2.2,0,0,0-.366-.138c-.257.674-.453,1.371-.705,2.047a.2.2,0,1,0,.366.137" transform="translate(24.428 -36.068)" fill="#6f2a2a" fill-rule="evenodd"/><path d="M38.88,89.225l.539-2.487a.195.195,0,1,0-.381-.082q-.269,1.244-.539,2.487a.195.195,0,1,0,.381.082" transform="translate(24.956 -37.936)" fill="#6f2a2a" fill-rule="evenodd"/><path d="M39.464,86.617a24.784,24.784,0,0,0,.457-2.448.2.2,0,1,0-.387-.051,23.938,23.938,0,0,1-.45,2.41.2.2,0,0,0,.147.234.194.194,0,0,0,.234-.145" transform="translate(25.334 -39.591)" fill="#6f2a2a" fill-rule="evenodd"/><path d="M40.019,83.7a15.488,15.488,0,0,0,.321-1.945.2.2,0,0,0-.389-.045,14.758,14.758,0,0,1-.313,1.9.2.2,0,0,0,.381.094" transform="translate(25.694 -41.156)" fill="#6f2a2a" fill-rule="evenodd"/><path d="M40.528,81.444c.1-.659.193-1.322.254-1.988a.194.194,0,0,0-.387-.035c-.061.658-.153,1.312-.252,1.963a.2.2,0,0,0,.386.059" transform="translate(26.022 -42.64)" fill="#6f2a2a" fill-rule="evenodd"/><path d="M40.955,79.365c.129-.829.224-1.663.315-2.5a.195.195,0,1,0-.387-.043c-.091.827-.186,1.657-.313,2.481a.2.2,0,0,0,.386.059" transform="translate(26.299 -44.322)" fill="#6f2a2a" fill-rule="evenodd"/><path d="M41.161,76.462c.089-.613.153-1.228.208-1.846a.194.194,0,1,0-.387-.035c-.056.61-.119,1.218-.206,1.825a.195.195,0,0,0,.386.056" transform="translate(26.433 -45.778)" fill="#6f2a2a" fill-rule="evenodd"/><path d="M41.36,74.41a12.574,12.574,0,0,0-.068-2.4.195.195,0,1,0-.386.051,12.325,12.325,0,0,1,.064,2.326.195.195,0,1,0,.389.025" transform="translate(26.518 -47.441)" fill="#6f2a2a" fill-rule="evenodd"/><path d="M41.217,71.88a8.915,8.915,0,0,0-.206-2.3.195.195,0,0,0-.382.076,8.576,8.576,0,0,1,.2,2.2.195.195,0,1,0,.389.025" transform="translate(26.337 -49.007)" fill="#6f2a2a" fill-rule="evenodd"/><path d="M41.07,69.52a17,17,0,0,0-.541-2.611.2.2,0,0,0-.242-.132.194.194,0,0,0-.13.244,16.746,16.746,0,0,1,.526,2.55.193.193,0,0,0,.218.168.2.2,0,0,0,.17-.219" transform="translate(26.027 -50.728)" fill="#6f2a2a" fill-rule="evenodd"/><path d="M40.551,66.8a9.025,9.025,0,0,0-.954-2.68.194.194,0,0,0-.264-.081.2.2,0,0,0-.081.264,8.684,8.684,0,0,1,.915,2.566.2.2,0,1,0,.384-.069" transform="translate(25.432 -52.51)" fill="#6f2a2a" fill-rule="evenodd"/><path d="M39.421,63.621c-.331-.516-.616-1.071-.984-1.563a.2.2,0,1,0-.313.234c.363.483.643,1.032.969,1.54a.2.2,0,0,0,.328-.211" transform="translate(24.691 -53.832)" fill="#6f2a2a" fill-rule="evenodd"/><path d="M38.259,61.763a12.776,12.776,0,0,0-1.587-1.737.2.2,0,0,0-.275.013.194.194,0,0,0,.013.275A12.279,12.279,0,0,1,37.945,62a.2.2,0,0,0,.313-.234" transform="translate(23.562 -55.132)" fill="#6f2a2a" fill-rule="evenodd"/><path d="M36.506,59.677a20.546,20.546,0,0,0-2.415-.926.2.2,0,0,0-.122.371,20.238,20.238,0,0,1,2.367.907.195.195,0,0,0,.17-.351" transform="translate(21.935 -55.932)" fill="#6f2a2a" fill-rule="evenodd"/><path d="M34.072,58.672a10.338,10.338,0,0,0-2.522-.539.2.2,0,0,0-.028.389,9.933,9.933,0,0,1,2.423.519.2.2,0,0,0,.127-.369" transform="translate(20.319 -56.327)" fill="#6f2a2a" fill-rule="evenodd"/><path d="M31.33,58.028a9.209,9.209,0,0,0-2.032.045.193.193,0,0,0-.162.223.2.2,0,0,0,.224.162,8.82,8.82,0,0,1,1.945-.04.195.195,0,1,0,.025-.389" transform="translate(18.887 -56.417)" fill="#6f2a2a" fill-rule="evenodd"/><path d="M29.132,58.189a10.389,10.389,0,0,0-2.589.885.2.2,0,0,0,.175.349,9.932,9.932,0,0,1,2.491-.851.2.2,0,0,0,.153-.229.2.2,0,0,0-.229-.155" transform="translate(17.138 -56.292)" fill="#6f2a2a" fill-rule="evenodd"/><path d="M26.236,59.334c-.5.341-1,.692-1.5,1.04a.2.2,0,0,0,.223.321c.5-.348,1-.7,1.5-1.038a.195.195,0,0,0-.218-.323" transform="translate(15.981 -55.57)" fill="#6f2a2a" fill-rule="evenodd"/><path d="M24.478,60.717c-.457.429-.893.872-1.314,1.337a.195.195,0,0,0,.29.26c.412-.457.842-.89,1.291-1.312a.2.2,0,0,0-.267-.285" transform="translate(14.985 -54.686)" fill="#6f2a2a" fill-rule="evenodd"/><path d="M23.032,62.286a9.116,9.116,0,0,0-1.146,1.9.194.194,0,1,0,.356.157,8.817,8.817,0,0,1,1.1-1.821.2.2,0,1,0-.308-.239" transform="translate(14.178 -53.683)" fill="#6f2a2a" fill-rule="evenodd"/><path d="M21.8,64.649a20.4,20.4,0,0,0-.644,2.172.193.193,0,0,0,.145.234.2.2,0,0,0,.236-.143,19.774,19.774,0,0,1,.631-2.131.2.2,0,0,0-.368-.132" transform="translate(13.712 -52.186)" fill="#6f2a2a" fill-rule="evenodd"/><path d="M20.931,67.026c-.079.48-.115.961-.173,1.444a.2.2,0,0,0,.171.216.192.192,0,0,0,.216-.17c.058-.476.092-.953.171-1.426a.2.2,0,0,0-.386-.064" transform="translate(13.456 -50.667)" fill="#6f2a2a" fill-rule="evenodd"/><path d="M20.628,68.819a11.605,11.605,0,0,0,.082,2,.2.2,0,0,0,.389-.041,11.154,11.154,0,0,1-.082-1.933.195.195,0,1,0-.389-.026" transform="translate(13.363 -49.517)" fill="#6f2a2a" fill-rule="evenodd"/><path d="M20.969,70.99a9.938,9.938,0,0,0,.567,1.907.192.192,0,0,0,.247.119.2.2,0,0,0,.12-.249,9.775,9.775,0,0,1-.551-1.833.194.194,0,1,0-.384.056" transform="translate(13.593 -48.136)" fill="#6f2a2a" fill-rule="evenodd"/><path d="M21.608,73.134c.2.6.506,1.16.71,1.759a.195.195,0,0,0,.369-.125c-.2-.6-.508-1.159-.71-1.759a.194.194,0,0,0-.247-.122.2.2,0,0,0-.122.247" transform="translate(14.002 -46.768)" fill="#6f2a2a" fill-rule="evenodd"/><path d="M22.22,74.932c.061.142.117.285.17.43a5.69,5.69,0,0,1,.3.908.638.638,0,0,1-.163.674.195.195,0,0,0,.237.308.905.905,0,0,0,.336-.831,4.552,4.552,0,0,0-.344-1.193c-.056-.153-.115-.3-.18-.452a.195.195,0,1,0-.358.155" transform="translate(14.395 -45.612)" fill="#6f2a2a" fill-rule="evenodd"/><path d="M22.222,76.373c-.544-.3-1.083-.616-1.625-.921a.193.193,0,0,0-.265.073.2.2,0,0,0,.074.267c.542.3,1.081.618,1.625.923a.2.2,0,0,0,.191-.341" transform="translate(13.165 -45.116)" fill="#6f2a2a" fill-rule="evenodd"/><path d="M20.308,75.333c-.593-.2-1.188-.412-1.788-.593a.2.2,0,1,0-.114.374c.6.18,1.187.387,1.775.588a.2.2,0,1,0,.127-.369" transform="translate(11.842 -45.566)" fill="#6f2a2a" fill-rule="evenodd"/><path d="M18.438,74.682a11.938,11.938,0,0,0-1.792-.392.2.2,0,1,0-.049.387,11.364,11.364,0,0,1,1.732.381.2.2,0,1,0,.109-.376" transform="translate(10.648 -45.853)" fill="#6f2a2a" fill-rule="evenodd"/><path d="M16.565,74.474a13.682,13.682,0,0,0-1.943-.348.2.2,0,0,0-.053.387,13.122,13.122,0,0,1,1.887.336.2.2,0,0,0,.109-.376" transform="translate(9.336 -45.96)" fill="#6f2a2a" fill-rule="evenodd"/><path d="M14.191,74.131c-.628-.056-1.256-.091-1.886-.125a.2.2,0,0,0-.021.391c.625.035,1.249.068,1.872.124a.2.2,0,0,0,.035-.389" transform="translate(7.844 -46.036)" fill="#6f2a2a" fill-rule="evenodd"/><path d="M12.085,74.092c-.552.036-1.1.061-1.655.115a.2.2,0,0,0-.175.214.192.192,0,0,0,.213.173c.547-.053,1.094-.077,1.643-.114a.195.195,0,1,0-.026-.389" transform="translate(6.648 -45.981)" fill="#6f2a2a" fill-rule="evenodd"/><path d="M10.183,74.315a14.916,14.916,0,0,0-1.724.326.2.2,0,1,0,.1.377,14.478,14.478,0,0,1,1.678-.318.195.195,0,1,0-.054-.386" transform="translate(5.39 -45.837)" fill="#6f2a2a" fill-rule="evenodd"/><path d="M8.282,74.8a16.968,16.968,0,0,0-1.929.516.195.195,0,0,0,.134.366,16.523,16.523,0,0,1,1.884-.5.195.195,0,1,0-.089-.379" transform="translate(4.036 -45.526)" fill="#6f2a2a" fill-rule="evenodd"/><path d="M6.209,75.566a21.249,21.249,0,0,0-2.014,1.383.194.194,0,0,0-.03.274.2.2,0,0,0,.275.03A20.57,20.57,0,0,1,6.418,75.9a.2.2,0,0,0-.209-.33" transform="translate(2.672 -45.044)" fill="#6f2a2a" fill-rule="evenodd"/><path d="M3.947,76.869a16.449,16.449,0,0,0-1.2,1.315.194.194,0,0,0,.03.274.2.2,0,0,0,.275-.03,15.686,15.686,0,0,1,1.17-1.284.2.2,0,0,0-.277-.275" transform="translate(1.754 -44.217)" fill="#6f2a2a" fill-rule="evenodd"/><path d="M2.481,78.461a11.727,11.727,0,0,0-.969,1.988.2.2,0,0,0,.366.137,11.381,11.381,0,0,1,.936-1.922.195.195,0,1,0-.333-.2" transform="translate(0.972 -43.209)" fill="#6f2a2a" fill-rule="evenodd"/><path d="M1.349,80.677a16.682,16.682,0,0,0-.384,2.108.195.195,0,0,0,.389.026,16.472,16.472,0,0,1,.377-2.057.2.2,0,1,0-.382-.077" transform="translate(0.625 -41.813)" fill="#6f2a2a" fill-rule="evenodd"/><path d="M1,82.813a11.438,11.438,0,0,0,.434,2.008.2.2,0,1,0,.374-.112,11.088,11.088,0,0,1-.42-1.94A.195.195,0,0,0,1,82.813" transform="translate(0.647 -40.467)" fill="#6f2a2a" fill-rule="evenodd"/><path d="M1.527,84.893A13.794,13.794,0,0,0,2.5,87.161a.2.2,0,0,0,.264.086.2.2,0,0,0,.084-.264,13.51,13.51,0,0,1-.951-2.2.195.195,0,1,0-.373.114" transform="translate(0.985 -39.142)" fill="#6f2a2a" fill-rule="evenodd"/><path d="M2.489,87.077A9.223,9.223,0,0,0,3.755,88.4.194.194,0,0,0,4,88.1a8.9,8.9,0,0,1-1.211-1.268.2.2,0,0,0-.3.246" transform="translate(1.586 -37.768)" fill="#6f2a2a" fill-rule="evenodd"/><path d="M3.86,88.649c.391.389.791.775,1.215,1.129a.195.195,0,0,0,.249-.3c-.414-.346-.806-.725-1.188-1.106a.2.2,0,0,0-.275.277" transform="translate(2.466 -36.759)" fill="#6f2a2a" fill-rule="evenodd"/><path d="M5.537,90.243c.63.529,1.329.951,2.006,1.414a.2.2,0,0,0,.221-.323c-.668-.455-1.355-.869-1.976-1.39a.195.195,0,0,0-.251.3" transform="translate(3.545 -35.733)" fill="#6f2a2a" fill-rule="evenodd"/><path d="M7.654,91.6A18.1,18.1,0,0,0,9.613,92.72a.2.2,0,1,0,.19-.341,17.932,17.932,0,0,1-1.919-1.094.195.195,0,1,0-.229.315" transform="translate(4.91 -34.86)" fill="#6f2a2a" fill-rule="evenodd"/><path d="M9.839,92.574a13.6,13.6,0,0,0,2.2,1,.194.194,0,1,0,.132-.366,13.391,13.391,0,0,1-2.135-.973.195.195,0,0,0-.194.338" transform="translate(6.316 -34.235)" fill="#6f2a2a" fill-rule="evenodd"/><path d="M11.88,93.4a13.444,13.444,0,0,0,1.922.788.2.2,0,0,0,.112-.374,12.835,12.835,0,0,1-1.864-.765.195.195,0,0,0-.17.351" transform="translate(7.63 -33.701)" fill="#6f2a2a" fill-rule="evenodd"/><path d="M14.037,94.27c.572.251,1.167.432,1.757.635a.2.2,0,0,0,.247-.122.192.192,0,0,0-.12-.247c-.58-.2-1.164-.376-1.727-.623a.2.2,0,0,0-.157.358" transform="translate(9.024 -33.142)" fill="#6f2a2a" fill-rule="evenodd"/><path d="M16.223,94.892c.682.2,1.39.3,2.077.481A.2.2,0,0,0,18.4,95c-.684-.183-1.39-.282-2.069-.478a.195.195,0,1,0-.109.374" transform="translate(10.425 -32.744)" fill="#6f2a2a" fill-rule="evenodd"/><path d="M18.445,95.383c.666.218,1.325.447,2,.616a.2.2,0,1,0,.1-.379c-.671-.168-1.322-.392-1.978-.608a.2.2,0,0,0-.247.125.2.2,0,0,0,.125.246" transform="translate(11.87 -32.424)" fill="#6f2a2a" fill-rule="evenodd"/><path d="M20.5,95.941c.49.109.991.249,1.49.31a.2.2,0,0,0,.049-.387c-.49-.059-.977-.2-1.457-.3a.195.195,0,0,0-.082.381" transform="translate(13.192 -32.066)" fill="#6f2a2a" fill-rule="evenodd"/><path d="M22.095,96.245c.651.092,1.3.221,1.948.3a.2.2,0,1,0,.048-.387c-.649-.077-1.294-.206-1.942-.3a.195.195,0,0,0-.054.386" transform="translate(14.216 -31.87)" fill="#6f2a2a" fill-rule="evenodd"/><path d="M24.207,96.6c.6.143,1.218.231,1.83.34a.195.195,0,1,0,.068-.384c-.6-.107-1.208-.193-1.807-.335a.195.195,0,0,0-.091.379" transform="translate(15.596 -31.636)" fill="#6f2a2a" fill-rule="evenodd"/><path d="M26.174,96.865c.653.153,1.319.244,1.976.377a.2.2,0,0,0,.076-.384c-.651-.132-1.314-.221-1.963-.374a.2.2,0,0,0-.089.381" transform="translate(16.871 -31.467)" fill="#6f2a2a" fill-rule="evenodd"/><path d="M28.125,97.126a14.474,14.474,0,0,1,1.655.249.2.2,0,0,0,.071-.384,14.777,14.777,0,0,0-1.7-.254.195.195,0,0,0-.026.389" transform="translate(18.115 -31.3)" fill="#6f2a2a" fill-rule="evenodd"/><path d="M30.045,97.207a18.71,18.71,0,0,0,2.525.069.2.2,0,0,0-.01-.391,18.2,18.2,0,0,1-2.472-.066.195.195,0,1,0-.043.387" transform="translate(19.365 -31.247)" fill="#6f2a2a" fill-rule="evenodd"/><path d="M32.361,97.249c.651-.028,1.3-.076,1.948-.115a.195.195,0,0,0-.023-.389c-.648.04-1.292.087-1.942.114a.2.2,0,0,0,.016.391" transform="translate(20.848 -31.295)" fill="#6f2a2a" fill-rule="evenodd"/><path d="M34.317,97.107c.463,0,.925-.03,1.386-.046a.195.195,0,0,0-.013-.389c-.46.016-.916.041-1.376.045a.2.2,0,0,0,0,.391" transform="translate(22.12 -31.342)" fill="#6f2a2a" fill-rule="evenodd"/></g></g><g transform="translate(0 0)"><g clip-path="url(#a)"><path d="M40.992,65.757c.582.326,1.8-1.752,2.294-2.644.448-.814,1.1-2.369.656-2.71s-1.447,1.078-1.871,1.843c-.491.893-1.835,3.087-1.08,3.511m-1.066.382a4.181,4.181,0,0,1,.162-2.575,15.021,15.021,0,0,1,3.265-4.627c.43-.392,1.062-.935,1.643-.771.494.14.559,1.03.565,1.287a6.978,6.978,0,0,1-.094,1.215,9.528,9.528,0,0,1-.462,1.624c-1.114,3.262-2.819,3.8-3.93,4.581A97.73,97.73,0,0,1,36.1,75.955c-.15.1-1.4-.814-1.419-.851,1.32-3.2,3.483-5.911,5.247-8.965" transform="translate(22.482 37.689)" fill="#a4c0d0" fill-rule="evenodd"/><path d="M37.042,84.31c.206-.236.41-.473.613-.707,3.035-3.544,6.11-6.73,9.239-10.182.031-.778,2.22.429.971.959A103.052,103.052,0,0,1,39.4,83.932q-.588.586-1.18,1.164a4.067,4.067,0,0,0-.778-.569c-.129-.077-.26-.152-.4-.218" transform="translate(24.014 47.433)" fill="#7a90e4" fill-rule="evenodd"/><path d="M41.275,88.9c.11.659,2.5.31,3.5.135.915-.16,2.532-.626,2.524-1.185-.01-.539-1.747-.455-2.609-.3-1,.175-3.555.5-3.414,1.353m-11.6.986c3.545-.572,7.027-1.022,10.636-1.577a4.183,4.183,0,0,1,2.11-1.485,15.012,15.012,0,0,1,5.652-.349c.575.091,1.393.242,1.63.8.2.471-.453,1.08-.649,1.246a7.005,7.005,0,0,1-1.007.687,9.488,9.488,0,0,1-1.554.656c-3.242,1.172-4.726.178-6.033-.2a99.139,99.139,0,0,1-10.531,1.846c-.008-.1-.021-.208-.035-.308a7.762,7.762,0,0,0-.219-1.317" transform="translate(19.237 55.979)" fill="#a4c0d0" fill-rule="evenodd"/><path d="M27.348,79.077c-1.563-3.677-2.927-7.3-4.454-11.035-.687-.364,1.348-1.818,1.284-.46A101.435,101.435,0,0,1,28.819,78.47a8.219,8.219,0,0,0-.925.361c-.158.068-.358.147-.547.246" transform="translate(14.75 43.444)" fill="#7a90e4" fill-rule="evenodd"/><path d="M16.024,90.546c1.681-3.723,3.458-7.241,5.215-10.969-.2-.753,2.25-.239,1.208.635a101.528,101.528,0,0,1-4.886,10.8,8.869,8.869,0,0,0-1.062-.32c-.16-.048-.316-.1-.476-.143" transform="translate(10.388 51.352)" fill="#7a90e4" fill-rule="evenodd"/><path d="M7.943,80.733c.616-.257-.272-2.5-.673-3.435-.366-.854-1.193-2.321-1.734-2.182-.523.132-.041,1.8.3,2.608.4.936,1.305,3.344,2.1,3.01m3.786,11.446c-1.436-3.45-2.716-6.855-4.139-10.369A4.166,4.166,0,0,1,5.659,80.1a15.021,15.021,0,0,1-1.64-5.42c-.045-.582-.084-1.411.4-1.77.412-.3,1.155.193,1.361.346a6.962,6.962,0,0,1,.9.821,9.423,9.423,0,0,1,1,1.361c1.887,2.886,1.263,4.559,1.2,5.916a100.334,100.334,0,0,1,4.429,10.4,9.111,9.111,0,0,0-1.34.354l-.234.076" transform="translate(2.589 47.204)" fill="#a4c0d0" fill-rule="evenodd"/><path d="M22.539,78.905a2.378,2.378,0,0,1-.732,2.983,1.984,1.984,0,0,1-2.706-.434,2.33,2.33,0,0,1-.455-.837,1.855,1.855,0,0,1-.074-.79,1.836,1.836,0,0,1,.152-.56c.644-1.429,3.043-1.7,3.816-.363" transform="translate(12.031 50.591)" fill="#fbca7e" fill-rule="evenodd"/><path d="M46.642,73.577a2.377,2.377,0,0,1-1.571,2.641,1.986,1.986,0,0,1-2.463-1.2,2.328,2.328,0,0,1-.191-.933,1.932,1.932,0,0,1,.468-1.269c1.035-1.179,3.405-.735,3.756.766" transform="translate(27.499 46.766)" fill="#442639" fill-rule="evenodd"/><path d="M24.375,65.75a2.381,2.381,0,0,1,1.7,2.558,1.986,1.986,0,0,1-2.151,1.7A2.334,2.334,0,0,1,23,69.777a1.924,1.924,0,0,1-.633-.481,1.846,1.846,0,0,1-.308-.49c-.616-1.442.809-3.389,2.314-3.056" transform="translate(14.207 42.6)" fill="#f5c8ce" fill-rule="evenodd"/><path d="M14.776,86.05a18.968,18.968,0,0,1,6.071,1.991.2.2,0,1,0,.183-.344,19.372,19.372,0,0,0-6.194-2.032.2.2,0,1,0-.059.386" transform="translate(9.472 55.533)" fill="#442639" fill-rule="evenodd"/><path d="M7.494,86.152A14.483,14.483,0,0,1,13,84.347a.192.192,0,0,0,.166-.219.2.2,0,0,0-.221-.166,14.906,14.906,0,0,0-5.659,1.856.2.2,0,0,0,.2.335" transform="translate(4.666 54.43)" fill="#442639" fill-rule="evenodd"/><path d="M29.2,87.71c.532,1.4,1.236,3.153.982,4.694a.2.2,0,0,0,.162.224.2.2,0,0,0,.224-.162c.264-1.6-.45-3.435-1-4.9a.2.2,0,0,0-.251-.114.2.2,0,0,0-.114.252" transform="translate(18.924 56.69)" fill="#442639" fill-rule="evenodd"/><path d="M24.949,75.87A7.519,7.519,0,0,1,29.5,73.917a.2.2,0,0,0-.03-.389,7.892,7.892,0,0,0-4.782,2.05.195.195,0,1,0,.259.292" transform="translate(15.964 47.667)" fill="#442639" fill-rule="evenodd"/><path d="M34.056,68.447a11.041,11.041,0,0,1,2.7,1.385,3.657,3.657,0,0,1,1.236,1.444.2.2,0,1,0,.361-.153,4.078,4.078,0,0,0-1.365-1.6,11.467,11.467,0,0,0-2.792-1.437.193.193,0,0,0-.251.114.2.2,0,0,0,.114.252" transform="translate(21.996 44.128)" fill="#442639" fill-rule="evenodd"/><path d="M36.051,79.789a5.955,5.955,0,0,1,3.921,2.83.2.2,0,0,0,.346-.181,6.353,6.353,0,0,0-4.173-3.028.2.2,0,0,0-.094.379" transform="translate(23.276 51.477)" fill="#442639" fill-rule="evenodd"/></g></g></g></g></svg>