<svg xmlns="http://www.w3.org/2000/svg" xmlns:xlink="http://www.w3.org/1999/xlink" width="168" height="156" viewBox="0 0 168 156"><defs><filter id="a" x="0" y="0" width="168" height="156" filterUnits="userSpaceOnUse"><feOffset dy="3" input="SourceAlpha"/><feGaussianBlur stdDeviation="3" result="b"/><feFlood flood-opacity="0.161"/><feComposite operator="in" in2="b"/><feComposite in="SourceGraphic"/></filter></defs><g transform="translate(6687 9725)"><g transform="translate(-7010.305 -14056.382)"><g transform="matrix(1, 0, 0, 1, 323.3, 4331.38)" filter="url(#a)"><rect width="150" height="138" rx="17" transform="translate(9 6)" fill="#fff"/></g><g transform="translate(369.805 4364.581)"><g transform="translate(2 2)"><path d="M52.55,2H9.99A3.994,3.994,0,0,0,6,5.99V77.811A3.994,3.994,0,0,0,9.99,81.8H61.861a3.994,3.994,0,0,0,3.99-3.99V15.3C65.851,8.712,59.138,2,52.55,2Z" transform="translate(-0.68 -2)" fill="#eee"/><rect width="35" height="50" rx="3" transform="translate(45 24.801)" fill="#46464e"/><rect width="27" height="9" rx="3" transform="translate(49 30.801)" fill="#8ac9fe"/><g transform="translate(49.21 42.56)"><rect width="8" height="8" rx="2" transform="translate(-0.21 0.24)" fill="#b2b2b2"/><rect width="8" height="8" rx="2" transform="translate(9.79 0.24)" fill="#b2b2b2"/><rect width="8" height="8" rx="2" transform="translate(18.79 0.24)" fill="#b2b2b2"/><rect width="8" height="8" rx="2" transform="translate(-0.21 9.24)" fill="#b2b2b2"/><rect width="8" height="8" rx="2" transform="translate(9.79 9.24)" fill="#b2b2b2"/></g><rect width="8" height="17" rx="2" transform="translate(68 51.801)" fill="#ff3c38"/><rect width="8" height="8" rx="2" transform="translate(49 60.801)" fill="#b2b2b2"/><rect width="8" height="8" rx="2" transform="translate(59 60.801)" fill="#b2b2b2"/><path d="M55.881,15.3v6.823a24.075,24.075,0,0,0-12.1-2.328,5.673,5.673,0,0,1-5.692-5.653C38.378,8.943,37.168,3.53,36.21,2h6.371c6.584,0,13.3,6.717,13.3,13.3Z" transform="translate(9.29 -2)" fill="#b2b2b2"/><path d="M22.95,56H6.99a3.99,3.99,0,0,0,0,7.98H22.95a3.99,3.99,0,1,0,0-7.98Z" transform="translate(-1.67 15.821)" fill="#ffc107"/><path d="M23.95,52H7.99a3.99,3.99,0,0,0,0,7.98H23.95a3.99,3.99,0,1,0,0-7.98Z" transform="translate(-1.34 14.501)" fill="#ffd54f"/><path d="M21.95,55.98a3.99,3.99,0,1,0,0-7.98H5.99a3.99,3.99,0,0,0,0,7.98Z" transform="translate(-2 13.181)" fill="#ffc107"/><path d="M40.95,56H24.99a3.99,3.99,0,0,0,0,7.98H40.95a3.99,3.99,0,1,0,0-7.98Z" transform="translate(4.27 15.821)" fill="#ffc107"/><path d="M41.95,52H25.99a3.99,3.99,0,0,0,0,7.98H41.95a3.99,3.99,0,1,0,0-7.98Z" transform="translate(4.6 14.501)" fill="#ffd54f"/><path d="M22.95,51.98a3.99,3.99,0,1,0,0-7.98H6.99a3.99,3.99,0,0,0,0,7.98Z" transform="translate(-1.67 11.861)" fill="#ffd54f"/><path d="M23.99,55.98H39.95a3.99,3.99,0,1,0,0-7.98H23.99a3.99,3.99,0,0,0,0,7.98Z" transform="translate(3.94 13.181)" fill="#ffc107"/><path d="M5.99,47.98H21.95a3.99,3.99,0,1,0,0-7.98H5.99a3.99,3.99,0,1,0,0,7.98Z" transform="translate(-2 10.54)" fill="#ffc107"/><path d="M24.99,51.98H40.95a3.99,3.99,0,1,0,0-7.98H24.99a3.99,3.99,0,0,0,0,7.98Z" transform="translate(4.27 11.861)" fill="#ffd54f"/><path d="M6.99,43.98H22.95a3.99,3.99,0,0,0,0-7.98H6.99a3.99,3.99,0,0,0,0,7.98Z" transform="translate(-1.67 9.22)" fill="#ffd54f"/><path d="M23.99,47.98H39.95a3.99,3.99,0,1,0,0-7.98H23.99a3.99,3.99,0,1,0,0,7.98Z" transform="translate(3.94 10.54)" fill="#ffc107"/><path d="M24.641,46c-14.187.072-14.188,21.206,0,21.28C38.826,67.208,38.828,46.074,24.641,46Z" transform="translate(1.96 12.521)" fill="#ffa000"/></g><g transform="translate(2.04 2)"><path d="M77.8,27.27H67.161V15.3c0-6.588-6.712-13.3-13.3-13.3H11.3A4,4,0,0,0,7.31,5.99V47.22a3.983,3.983,0,0,0-3.471,5.921,4.1,4.1,0,0,0-.013,6.78,4.283,4.283,0,0,0,0,3.857,4.045,4.045,0,0,0,1.131,7.249,4.3,4.3,0,0,0,.2,3.392A4.021,4.021,0,0,0,7.31,81.8H63.171a4,4,0,0,0,3.99-3.99v-1.33H77.8a4,4,0,0,0,3.99-3.99V31.26a4,4,0,0,0-3.99-3.99ZM53.861,4.66c5.067,0,10.64,5.573,10.64,10.64v2.559c-2.37-.866-6.452-.837-9.483-.723a2.984,2.984,0,0,1-2.994-2.916A24.6,24.6,0,0,0,51.11,4.66ZM9.97,5.99A1.334,1.334,0,0,1,11.3,4.66H48.056c.878.875,1.623,4.032,1.31,9.483A5.666,5.666,0,0,0,55.056,19.8c7.2-.156,9.172.529,9.445.983V27.27H51.2a3.968,3.968,0,0,0-2.949,1.33H17.95a1.33,1.33,0,0,0,0,2.66h29.26v2.66H17.95a1.33,1.33,0,0,0,0,2.66h29.26v2.66H17.95a1.33,1.33,0,0,0,0,2.66h29.26V52.77a4.572,4.572,0,0,0-1.33-.23H29.92a4.023,4.023,0,0,0-2.155,7.382,3.067,3.067,0,0,0-.267.655c-.153.013-.3.031-.451.049a3.77,3.77,0,0,0-1.623-2.168,4.264,4.264,0,0,0-.013-3.879A4.007,4.007,0,0,0,23.27,47.22H9.97ZM28.59,79.141c-10.64-.053-10.64-15.905,0-15.96C39.23,63.234,39.23,79.086,28.59,79.141ZM8.64,71.161h9.31a11.759,11.759,0,0,0,.312,2.66H8.64a1.33,1.33,0,1,1,0-2.66ZM7.31,60.521H23.27a1.21,1.21,0,0,1,1.17.718l.007.021a9.7,9.7,0,0,0-3.16,1.921H7.31a1.33,1.33,0,0,1,0-2.66Zm-1.33-2.66a1.33,1.33,0,0,1,0-2.66H21.94a1.33,1.33,0,0,1,0,2.66Zm23.94,0a1.33,1.33,0,0,1,0-2.66h15.96a1.33,1.33,0,0,1,0,2.66Zm1.33,2.66h15.96a1.33,1.33,0,1,1,0,2.66H35.893a10.074,10.074,0,0,0-5.312-2.486,1.18,1.18,0,0,1,.669-.174Zm6.675,5.32h7.955a1.33,1.33,0,1,1,0,2.66H38.918A10.977,10.977,0,0,0,37.926,65.841Zm1.3,5.32h9.31a1.33,1.33,0,1,1,0,2.66H38.918A11.744,11.744,0,0,0,39.23,71.161ZM7.31,49.88H23.27a1.33,1.33,0,1,1,0,2.66H7.31a1.33,1.33,0,0,1,0-2.66ZM5.98,65.841H19.255a10.971,10.971,0,0,0-.993,2.66H5.98a1.33,1.33,0,0,1,0-2.66Zm1.33,13.3a1.33,1.33,0,0,1,0-2.66H19.256a9.889,9.889,0,0,0,2.033,2.66Zm28.583,0a9.889,9.889,0,0,0,2.032-2.66h9.285a1.33,1.33,0,1,1,0,2.66ZM64.5,77.811a1.334,1.334,0,0,1-1.33,1.33H50.939a4.344,4.344,0,0,0-.01-2.684c.091.006.178.024.271.024H64.5Zm14.63-5.32a1.334,1.334,0,0,1-1.33,1.33H52.267a4.243,4.243,0,0,0-.6-3.826,2.658,2.658,0,0,0,2.2,1.166h2.66a2.663,2.663,0,0,0,2.66-2.66v-2.66a2.663,2.663,0,0,0-2.66-2.66h-2.66a2.663,2.663,0,0,0-2.66,2.66V68.5a2.644,2.644,0,0,0,.451,1.48,3.659,3.659,0,0,0-1.781-1.246V64.817a4.124,4.124,0,0,0,0-5.934V31.26a1.334,1.334,0,0,1,1.33-1.33H77.8a1.334,1.334,0,0,1,1.33,1.33ZM53.861,68.5v-2.66h2.66l0,2.66Zm19.95-35.91H55.191a3.994,3.994,0,0,0-3.99,3.99v1.33a3.994,3.994,0,0,0,3.99,3.99h18.62a3.994,3.994,0,0,0,3.99-3.99V36.58A3.994,3.994,0,0,0,73.811,32.59Zm1.33,5.32a1.331,1.331,0,0,1-1.33,1.33H55.191a1.331,1.331,0,0,1-1.33-1.33V36.58a1.331,1.331,0,0,1,1.33-1.33h18.62a1.331,1.331,0,0,1,1.33,1.33Zm-18.62,6.65h-2.66a2.663,2.663,0,0,0-2.66,2.66v2.66a2.663,2.663,0,0,0,2.66,2.66h2.66a2.663,2.663,0,0,0,2.66-2.66V47.22a2.663,2.663,0,0,0-2.66-2.66Zm-2.66,5.32V47.22h2.66l0,2.66Zm11.97-5.32h-2.66a2.663,2.663,0,0,0-2.66,2.66v2.66a2.663,2.663,0,0,0,2.66,2.66h2.66a2.663,2.663,0,0,0,2.66-2.66V47.22A2.663,2.663,0,0,0,65.831,44.56Zm-2.66,5.32V47.22h2.66l0,2.66Zm11.97-5.32h-2.66a2.663,2.663,0,0,0-2.66,2.66v2.66a2.663,2.663,0,0,0,2.66,2.66h2.66a2.663,2.663,0,0,0,2.66-2.66V47.22A2.663,2.663,0,0,0,75.141,44.56Zm-2.66,5.32V47.22h2.66l0,2.66Zm-15.96,3.99h-2.66a2.663,2.663,0,0,0-2.66,2.66v2.66a2.663,2.663,0,0,0,2.66,2.66h2.66a2.663,2.663,0,0,0,2.66-2.66v-2.66a2.663,2.663,0,0,0-2.66-2.66Zm-2.66,5.32v-2.66h2.66l0,2.66Zm11.97-5.32h-2.66a2.663,2.663,0,0,0-2.66,2.66v2.66a2.663,2.663,0,0,0,2.66,2.66h2.66a2.663,2.663,0,0,0,2.66-2.66v-2.66A2.663,2.663,0,0,0,65.831,53.871Zm-2.66,5.32v-2.66h2.66l0,2.66Zm11.97-5.32h-2.66a2.663,2.663,0,0,0-2.66,2.66V68.5a2.663,2.663,0,0,0,2.66,2.66h2.66A2.663,2.663,0,0,0,77.8,68.5V56.531A2.663,2.663,0,0,0,75.141,53.871ZM72.481,68.5V56.531h2.66l0,11.97Zm-6.65-5.32h-2.66a2.663,2.663,0,0,0-2.66,2.66V68.5a2.663,2.663,0,0,0,2.66,2.66h2.66a2.663,2.663,0,0,0,2.66-2.66v-2.66A2.663,2.663,0,0,0,65.831,63.181Zm-2.66,5.32v-2.66h2.66l0,2.66ZM37.582,23.037v1.049c.086.774-1.432.781-1.368,0V23.037a3.857,3.857,0,0,1-3.752-2.975,1.209,1.209,0,1,1,2.35-.54,2,2,0,0,0,2.206,1.514c1.2.15,2.379-1.011,1.349-1.881a4.472,4.472,0,0,0-1.5-.485c-5.067-.505-5.026-6-.65-6.739V11.1c-.078-.752,1.467-.682,1.368.024v.793a3.707,3.707,0,0,1,3.453,2.523c.39,1.374-1.728,2.114-2.155.717a1.776,1.776,0,0,0-1.855-1.282c-2.138-.07-1.868,2.024.052,2.1a12.752,12.752,0,0,1,2.432.676c3.329,1.614,1.715,6.36-1.928,6.386ZM28.927,76.231v.981c.08.724-1.339.731-1.28,0v-.981a3.607,3.607,0,0,1-3.509-2.782,1.131,1.131,0,1,1,2.2-.505A1.875,1.875,0,0,0,28.4,74.359c1.123.14,2.225-.946,1.262-1.759a4.183,4.183,0,0,0-1.407-.454c-4.739-.472-4.7-5.613-.608-6.3v-.781c-.073-.7,1.372-.638,1.28.023v.742a3.467,3.467,0,0,1,3.23,2.36c.365,1.285-1.616,1.977-2.015.671a1.66,1.66,0,0,0-1.734-1.2c-2-.066-1.747,1.893.048,1.966a11.948,11.948,0,0,1,2.274.632c3.113,1.51,1.6,5.95-1.8,5.974Z" transform="translate(-2.03 -2)"/></g></g></g></g></svg>