<svg xmlns="http://www.w3.org/2000/svg" width="115.66" height="119.707" viewBox="0 0 115.66 119.707"><g transform="translate(0)"><g transform="translate(49.642 1.754)"><path d="M255.959,36.744a1.169,1.169,0,0,1,1.169,1.169v6.976a25.242,25.242,0,0,1,22.621-.818,20.4,20.4,0,0,0,1.073-2.926,1.18,1.18,0,0,1,1.133-.866h5.982a1.174,1.174,0,0,0,1.175-1.175v-7.1a1.174,1.174,0,0,0-1.175-1.175h-5.982a1.179,1.179,0,0,1-1.133-.866,20.424,20.424,0,0,0-1.837-4.438,1.18,1.18,0,0,1,.188-1.414l4.229-4.229a1.174,1.174,0,0,0,0-1.661l-5.017-5.017a1.174,1.174,0,0,0-1.661,0l-4.229,4.229a1.18,1.18,0,0,1-1.414.188,20.411,20.411,0,0,0-4.438-1.837,1.18,1.18,0,0,1-.866-1.133V8.675A1.175,1.175,0,0,0,264.6,7.5h-7.1a1.175,1.175,0,0,0-1.175,1.175v5.982a1.179,1.179,0,0,1-.866,1.133,20.415,20.415,0,0,0-4.438,1.837,1.18,1.18,0,0,1-1.414-.188l-4.229-4.229a1.174,1.174,0,0,0-1.661,0l-5.017,5.017a1.174,1.174,0,0,0,0,1.661l4.229,4.229a1.18,1.18,0,0,1,.188,1.414,20.4,20.4,0,0,0-1.837,4.438,1.18,1.18,0,0,1-1.133.866h-5.982A1.175,1.175,0,0,0,233,32.009v4.735h22.961Z" transform="translate(-230.188 -7.5)" fill="#cbc4cc"/><path d="M306.058,86.841a1.169,1.169,0,0,1,1.169,1.169v6.976a25.086,25.086,0,0,1,12.123-3.1,25.441,25.441,0,0,1,2.857.162,12.769,12.769,0,1,0-23.822-6.391c0,.4.021.8.057,1.187Z" transform="translate(-280.286 -57.597)" fill="#7a6d79"/><g transform="translate(18.098 15.287)"><path d="M306.058,86.841a1.179,1.179,0,0,1,.245.027c-.038-.4-.059-.8-.059-1.214a12.773,12.773,0,0,1,8.84-12.15,12.772,12.772,0,0,0-16.7,12.15c0,.4.021.8.057,1.187Z" transform="translate(-298.385 -72.884)" fill="#685e68"/></g><path d="M332.161,100.3a6.356,6.356,0,0,0-6.246,7.546h1.151a1.169,1.169,0,0,1,1.169,1.169v2.643a6.358,6.358,0,1,0,3.926-11.359Z" transform="translate(-301.294 -78.605)" fill="#e2dee2"/><path d="M234.838,162.822a25.2,25.2,0,0,1,13.079-22.1v-6.976a1.169,1.169,0,0,0-1.169-1.169H220.977v36.508h14.646A25.242,25.242,0,0,1,234.838,162.822Z" transform="translate(-220.977 -103.335)" fill="#ffbd86"/><path d="M330.758,106.66a6.361,6.361,0,0,1,3.876-5.856,6.354,6.354,0,0,0-8.832,5.856,6.387,6.387,0,0,0,.112,1.187h1.151a1.169,1.169,0,0,1,1.169,1.169v2.643a6.343,6.343,0,0,0,6.4.856,6.359,6.359,0,0,1-3.876-5.855Z" transform="translate(-301.294 -78.604)" fill="#cbc4cc"/></g><g transform="translate(1.754 30.997)"><g transform="translate(9.996)"><g transform="translate(37.892)"><path d="M220.977,132.579h7.2v36.508h-7.2Z" transform="translate(-220.977 -132.579)" fill="#f6a96c"/></g><path d="M96.8,169.087V132.579H60.077a1.169,1.169,0,0,0-1.169,1.169v35.339Z" transform="translate(-58.908 -132.579)" fill="#fed2a4"/><path d="M66.645,169.087V133.748a1.169,1.169,0,0,1,1.169-1.169H60.077a1.169,1.169,0,0,0-1.169,1.169v35.339Z" transform="translate(-58.908 -132.579)" fill="#ffbd86"/><g transform="translate(13.616 0)"><path d="M127.1,146.574h-9.258a.7.7,0,0,1-.7-.7V132.579H127.8v13.293A.7.7,0,0,1,127.1,146.574Z" transform="translate(-117.144 -132.579)" fill="#fe646f"/></g><g transform="translate(13.615 0)"><path d="M121.786,145.872V132.579h-4.643v13.293a.7.7,0,0,0,.7.7h4.643A.7.7,0,0,1,121.786,145.872Z" transform="translate(-117.143 -132.579)" fill="#fd4755"/></g></g><g transform="translate(0 36.508)"><g transform="translate(54.95 0)"><path d="M270.388,323.115a.706.706,0,0,1,.558-1.139h6.131a.706.706,0,0,0,.706-.706V307.083l.011,0a25.237,25.237,0,0,1-19.026-18.358h-7.584v40.556H275.17Z" transform="translate(-251.184 -288.728)" fill="#f6a96c"/></g><g transform="translate(54.95)"><path d="M251.184,288.728h7.906v40.556h-7.906Z" transform="translate(-251.184 -288.728)" fill="#ea9b58"/></g><g transform="translate(0 0)"><path d="M71.1,329.284H17.322a1.169,1.169,0,0,1-1.169-1.169V289.9a1.169,1.169,0,0,1,1.169-1.169H71.1Z" transform="translate(-16.153 -288.728)" fill="#ffbd86"/></g><g transform="translate(0 0)"><path d="M24.066,328.115V289.9a1.169,1.169,0,0,1,1.169-1.169H17.322a1.169,1.169,0,0,0-1.169,1.169v38.218a1.169,1.169,0,0,0,1.169,1.169h7.913A1.169,1.169,0,0,1,24.066,328.115Z" transform="translate(-16.153 -288.728)" fill="#f6a96c"/></g><path d="M56.456,413.546H45.7a.7.7,0,0,1-.7-.7V407.7a.7.7,0,0,1,.7-.7H56.456a.7.7,0,0,1,.7.7v5.144A.7.7,0,0,1,56.456,413.546Z" transform="translate(-38.256 -379.348)" fill="#fff"/><g transform="translate(21.535)"><path d="M119.44,302.352H108.961a.7.7,0,0,1-.7-.7V288.728h11.881v12.923A.7.7,0,0,1,119.44,302.352Z" transform="translate(-108.26 -288.728)" fill="#fe646f"/></g><g transform="translate(21.535)"><path d="M113.343,301.651V288.728H108.26v12.923a.7.7,0,0,0,.7.7h5.083A.7.7,0,0,1,113.343,301.651Z" transform="translate(-108.26 -288.728)" fill="#fd4755"/></g></g></g><path d="M357.867,382.129h-6.131a.706.706,0,0,1-.706-.706V367.236a25.351,25.351,0,0,1-10.8,0v14.187a.706.706,0,0,1-.706.706H333.39a.706.706,0,0,0-.558,1.139l12.239,15.787a.706.706,0,0,0,1.116,0l12.239-15.787A.706.706,0,0,0,357.867,382.129Z" transform="translate(-256.924 -281.376)" fill="#4fc123"/><g transform="translate(75.759 100.753)"><path d="M339.366,430.937h-5.975a.706.706,0,0,0-.558,1.139l12.239,15.787a.706.706,0,0,0,1.116,0l3.15-4.063Z" transform="translate(-332.683 -430.937)" fill="#47a920"/></g><g transform="translate(63.503 36.039)"><circle cx="25.202" cy="25.202" r="25.202" fill="#fedf30"/><g transform="translate(6.978 6.978)"><circle cx="18.224" cy="18.224" r="18.224" fill="#fac600"/></g><g transform="translate(6.978 6.978)"><path d="M318.06,202.213a18.226,18.226,0,0,1,14.249-17.784,18.224,18.224,0,1,0,0,35.567A18.226,18.226,0,0,1,318.06,202.213Z" transform="translate(-310.111 -183.989)" fill="#e8b800"/></g></g><g transform="translate(0)"><path d="M53.165,407.1v-5.144A2.458,2.458,0,0,0,50.71,399.5H39.955a2.458,2.458,0,0,0-2.455,2.455V407.1a2.458,2.458,0,0,0,2.455,2.455H50.71A2.458,2.458,0,0,0,53.165,407.1Zm-3.507-1.052H41.007v-3.039h8.651Z" transform="translate(-30.756 -306.097)"/><path d="M124.313,61.241a26.98,26.98,0,0,0-14.224-23.753c.146-.4.284-.8.407-1.2h5.547a2.931,2.931,0,0,0,2.928-2.928v-7.1a2.931,2.931,0,0,0-2.928-2.928H110.5a22.159,22.159,0,0,0-1.669-4.031l3.922-3.922a2.932,2.932,0,0,0,0-4.141l-5.017-5.017a2.932,2.932,0,0,0-4.141,0l-3.922,3.922a22.191,22.191,0,0,0-4.031-1.669V2.928A2.932,2.932,0,0,0,92.71,0h-7.1a2.931,2.931,0,0,0-2.928,2.928V8.476a22.16,22.16,0,0,0-4.031,1.669L74.733,6.222a2.932,2.932,0,0,0-4.141,0L65.574,11.24a2.932,2.932,0,0,0,0,4.141L69.5,19.3a22.192,22.192,0,0,0-1.669,4.031H62.28a2.931,2.931,0,0,0-2.928,2.928v2.982H21.572a2.926,2.926,0,0,0-2.923,2.923V65.751H11.575a2.926,2.926,0,0,0-2.923,2.923v38.218a2.926,2.926,0,0,0,2.923,2.923h9.55a1.754,1.754,0,1,0,0-3.507H12.16V69.258H30.187V80.428a2.458,2.458,0,0,0,2.455,2.455H43.121a2.458,2.458,0,0,0,2.455-2.455V69.258H63.6v37.049H29.309a1.754,1.754,0,0,0,0,3.507H88.484l6.93,8.939a2.459,2.459,0,0,0,3.888,0l12.238-15.786A2.46,2.46,0,0,0,109.6,99h-5.083V87.23a27,27,0,0,0,19.8-25.989ZM35.772,32.751h7.154V43.238H35.772Zm6.3,46.625H33.695V69.258h8.374ZM56.541,65.751H22.156v-33H32.265V44.29a2.458,2.458,0,0,0,2.455,2.455h9.258a2.458,2.458,0,0,0,2.455-2.455V32.751H56.541Zm6.318-38.911h5.4a2.945,2.945,0,0,0,2.82-2.144,18.678,18.678,0,0,1,1.679-4.057,2.946,2.946,0,0,0-.478-3.511l-3.82-3.819,4.2-4.2,3.82,3.82a2.947,2.947,0,0,0,3.511.478,18.689,18.689,0,0,1,4.057-1.68,2.945,2.945,0,0,0,2.143-2.82v-5.4h5.938v5.4a2.945,2.945,0,0,0,2.144,2.82,18.677,18.677,0,0,1,4.057,1.679,2.947,2.947,0,0,0,3.511-.478l3.82-3.82,4.2,4.2-3.82,3.82a2.947,2.947,0,0,0-.478,3.511,18.688,18.688,0,0,1,1.68,4.057,2.945,2.945,0,0,0,2.82,2.143h5.4v5.938h-5.4a2.945,2.945,0,0,0-2.82,2.144c-.1.372-.225.74-.353,1.1a26.71,26.71,0,0,0-4.1-1.193,14.507,14.507,0,0,0,.051-9.923,1.753,1.753,0,0,0-3.3,1.183,11.01,11.01,0,0,1-.338,8.256c-.607-.041-1.22-.064-1.837-.064-.491,0-.979.014-1.464.04a8.109,8.109,0,1,0-14.823-5.082H78.16A11.013,11.013,0,0,1,95.1,20.537a1.753,1.753,0,0,0,1.9-2.95A14.517,14.517,0,0,0,74.653,29.244H62.859Zm21.728,2.452a4.6,4.6,0,1,1,4.575,5.122,4.554,4.554,0,0,1-2.173-.551v-1.7a2.925,2.925,0,0,0-2.4-2.873ZM60.048,65.751v-33H83.482v5.389a26.948,26.948,0,0,0-12.7,27.612H60.048Zm7.062,40.556V69.258H71.62A27.068,27.068,0,0,0,90.2,87.23V99H85.119a2.46,2.46,0,0,0-1.944,3.966l2.59,3.341H67.11Zm40.348-3.8-10.1,13.03-10.1-13.03H91.25a2.462,2.462,0,0,0,2.46-2.46v-12.1a26.976,26.976,0,0,0,7.3,0v12.1a2.463,2.463,0,0,0,2.46,2.46Zm-10.1-17.818a23.448,23.448,0,1,1,23.448-23.448A23.475,23.475,0,0,1,97.358,84.689Z" transform="translate(-8.653 0)"/><path d="M340.516,200.184a1.753,1.753,0,0,0-2.194,1.157,16.474,16.474,0,1,1,.541-7.4,1.753,1.753,0,1,0,3.466-.533,19.964,19.964,0,1,0-.657,8.967A1.753,1.753,0,0,0,340.516,200.184Z" transform="translate(-233.882 -135.226)"/><path d="M360.132,235.684a1.753,1.753,0,0,0,1.754-1.753V233h1.5a5.269,5.269,0,1,0,0-10.538h-6.5a1.77,1.77,0,0,1-1.768-1.768v-.107a1.771,1.771,0,0,1,1.768-1.768H364.7a1.754,1.754,0,0,0,0-3.507h-2.812v-.93a1.754,1.754,0,1,0-3.507,0v.93h-1.492a5.281,5.281,0,0,0-5.276,5.275v.108a5.282,5.282,0,0,0,5.276,5.275h6.5a1.762,1.762,0,1,1,0,3.524h-7.878a1.754,1.754,0,0,0,0,3.507h2.873v.931A1.753,1.753,0,0,0,360.132,235.684Z" transform="translate(-271.427 -162.915)"/></g></g></svg>