<svg xmlns="http://www.w3.org/2000/svg" xmlns:xlink="http://www.w3.org/1999/xlink" width="1048" height="240" viewBox="0 0 1048 240"><defs><filter id="a" x="0" y="0" width="1048" height="240" filterUnits="userSpaceOnUse"><feOffset dy="3" input="SourceAlpha"/><feGaussianBlur stdDeviation="3" result="b"/><feFlood flood-opacity="0.161"/><feComposite operator="in" in2="b"/><feComposite in="SourceGraphic"/></filter></defs><g transform="translate(-276 -23280.969)"><g transform="matrix(1, 0, 0, 1, 276, 23280.97)" filter="url(#a)"><rect width="1030" height="222" rx="20" transform="translate(9 6)" fill="#fde2e2"/></g><text transform="translate(423 23438.688)" fill="#12263f" font-size="20" font-family="Roboto-Black, Roboto" font-weight="800"><tspan x="14.571" y="21">C.I.T</tspan></text><text transform="translate(646 23438.688)" fill="#12263f" font-size="20" font-family="Roboto-Black, Roboto" font-weight="800"><tspan x="5.979" y="21">Número de máquinas por </tspan></text><text transform="translate(994.124 23438.688)" fill="#12263f" font-size="20" font-family="Roboto-Black, Roboto" font-weight="800"><tspan x="12.653" y="21">Jornada de trabajo, </tspan></text><g transform="translate(710.493 23310.887)"><g transform="translate(2.706 2.706)"><g transform="translate(93.854 5.119)"><path d="M62.819,6.007a3.337,3.337,0,0,1,1.007,2.406,3.423,3.423,0,0,1-3.413,3.413H57V5h3.413A3.337,3.337,0,0,1,62.819,6.007Z" transform="translate(-57 -5)" fill="#ccd1d9"/></g><g transform="translate(46.074 5.119)"><path d="M59.716,5v6.826H29V5Z" transform="translate(-29 -5)" fill="#ccd1d9"/></g><g transform="translate(18.771)"><path d="M40.3,8.826H13V5.413A3.423,3.423,0,0,1,16.413,2H36.89A3.423,3.423,0,0,1,40.3,5.413V8.826Z" transform="translate(-13 -2)" fill="#969faa"/></g><g transform="translate(18.771 13.651)"><path d="M13,10H40.3V20.239H13Z" transform="translate(-13 -10)" fill="#969faa"/></g><g transform="translate(18.771 6.826)"><path d="M40.3,12.826H13V6H40.3v6.826Z" transform="translate(-13 -6)" fill="#aab2bd"/></g><g transform="translate(76.789)"><path d="M64.064,7.119V17.358a1.711,1.711,0,0,1-1.706,1.706H48.706A1.711,1.711,0,0,1,47,17.358V3.706A1.711,1.711,0,0,1,48.706,2H62.358a1.711,1.711,0,0,1,1.706,1.706Z" transform="translate(-47 -2)" fill="#aab2bd"/></g><g transform="translate(81.909 5.119)"><ellipse cx="3" cy="3.5" rx="3" ry="3.5" transform="translate(0.385 -0.026)" fill="#fcd770"/></g><g transform="translate(3.413 23.89)"><path d="M55.193,16l6.826,10.239H4L10.826,16H55.193Z" transform="translate(-4 -16)" fill="#ccd1d9"/></g><g transform="translate(75.083 61.432)"><path d="M46,38H66.477V58.477H46Z" transform="translate(-46 -38)" fill="#d3a06c"/></g><g transform="translate(44.367 68.257)"><path d="M28,42H48.477V62.477H28Z" transform="translate(-28 -42)" fill="#d3a06c"/></g><g transform="translate(13.651 68.257)"><path d="M10,42H30.477V62.477H10Z" transform="translate(-10 -42)" fill="#d3a06c"/></g><g transform="translate(3.413 34.129)"><path d="M62.019,22V56.129H44.954V76.606H34.716V56.129H14.239V76.606H7.413A6.808,6.808,0,0,0,4,77.527V22Z" transform="translate(-4 -22)" fill="#e6e9ed"/></g><g transform="translate(47.78 40.954)"><circle cx="3.5" cy="3.5" r="3.5" transform="translate(-0.486 0.138)" fill="#fcd770"/></g><g transform="translate(34.129 40.954)"><circle cx="3.5" cy="3.5" r="3.5" transform="translate(0.165 0.138)" fill="#fcd770"/></g><g transform="translate(80.202 40.954)"><path d="M59.239,31.119v.1a5.12,5.12,0,0,1-10.239,0v-.1a5.119,5.119,0,1,1,10.239,0Z" transform="translate(-49 -26)" fill="#fcd770"/></g><g transform="translate(0 88.735)"><g transform="translate(81.909)"><path d="M63.651,54H50a6.826,6.826,0,1,1,0,13.651H63.651a6.826,6.826,0,0,0,0-13.651Z" transform="translate(-50 -54)" fill="#ccd1d9"/></g><g transform="translate(61.432)"><path d="M51.651,60.826A6.824,6.824,0,0,1,58.477,54H38a6.826,6.826,0,1,1,0,13.651H58.477A6.824,6.824,0,0,1,51.651,60.826Z" transform="translate(-38 -54)" fill="#ccd1d9"/></g><g transform="translate(40.954)"><path d="M39.651,60.826A6.824,6.824,0,0,1,46.477,54H26a6.826,6.826,0,1,1,0,13.651H46.477A6.824,6.824,0,0,1,39.651,60.826Z" transform="translate(-26 -54)" fill="#ccd1d9"/></g><g transform="translate(20.477)"><path d="M27.651,60.826A6.824,6.824,0,0,1,34.477,54H14a6.826,6.826,0,1,1,0,13.651H34.477A6.824,6.824,0,0,1,27.651,60.826Z" transform="translate(-14 -54)" fill="#ccd1d9"/></g><path d="M15.651,60.826A6.824,6.824,0,0,1,22.477,54H8.826a6.808,6.808,0,0,0-3.413.921A7.21,7.21,0,0,0,4,56,6.83,6.83,0,0,0,8.826,67.651H22.477A6.824,6.824,0,0,1,15.651,60.826Z" transform="translate(-2 -54)" fill="#ccd1d9"/></g><g transform="translate(75.083 88.735)"><circle cx="6.5" cy="6.5" r="6.5" transform="translate(0.21 0.358)" fill="#969faa"/></g><g transform="translate(54.606 88.735)"><ellipse cx="7" cy="6.5" rx="7" ry="6.5" transform="translate(-0.313 0.358)" fill="#969faa"/></g><g transform="translate(34.129 88.735)"><circle cx="6.5" cy="6.5" r="6.5" transform="translate(0.165 0.358)" fill="#969faa"/></g><g transform="translate(13.651 88.735)"><ellipse cx="7" cy="6.5" rx="7" ry="6.5" transform="translate(-0.358 0.358)" fill="#969faa"/></g><g transform="translate(81.909 61.432)"><path d="M56.826,38v6.826H50V38h6.826Z" transform="translate(-50 -38)" fill="#b27946"/></g><g transform="translate(51.193 68.257)"><path d="M32,42h6.826v6.826H32Z" transform="translate(-32 -42)" fill="#b27946"/></g><g transform="translate(20.477 68.257)"><path d="M14,42h6.826v6.826H14Z" transform="translate(-14 -42)" fill="#b27946"/></g><g transform="translate(10.239 40.954)"><path d="M8,26H25.064V46.477H8Z" transform="translate(-8 -26)" fill="#69d6f4"/></g></g><g transform="translate(1 1)"><path d="M98.267,89.734H69.257V69.257H65.844V36.318L58.225,24.89H50.487V16.358h27.3v1.706A3.416,3.416,0,0,0,81.2,21.477h5.119V42.2a6.83,6.83,0,0,0-4.983,5.23,15.377,15.377,0,0,0-12.082,15,8.548,8.548,0,0,0,6.826,8.36v15.53h23.89V70.791a8.547,8.547,0,0,0,6.826-8.36,15.377,15.377,0,0,0-12.082-15,6.83,6.83,0,0,0-4.983-5.23V21.477h5.119a3.416,3.416,0,0,0,3.413-3.413V16.358h1.706a5.119,5.119,0,1,0,0-10.239H98.267V4.413A3.416,3.416,0,0,0,94.854,1H81.2a3.416,3.416,0,0,0-3.413,3.413V6.119h-27.3A5.126,5.126,0,0,0,45.367,1H24.89a5.126,5.126,0,0,0-5.119,5.119V24.89H12.032L4.413,36.318V91.484A8.5,8.5,0,0,0,9.532,106.8H98.267a8.532,8.532,0,0,0,0-17.064Zm-25.6-27.3a11.953,11.953,0,0,1,8.9-11.541,6.809,6.809,0,0,0,4.751,4.473v7.068H76.083v4.805A5.112,5.112,0,0,1,72.67,62.432Zm13.651,3.413h3.413v3.413H86.322ZM96.56,82.909H79.5V65.844h3.413V72.67H93.147V65.844H96.56ZM94.485,50.891a11.952,11.952,0,0,1,8.9,11.541,5.112,5.112,0,0,1-3.413,4.805V62.432H89.734V55.364a6.81,6.81,0,0,0,4.751-4.473ZM91.441,48.78a3.413,3.413,0,1,1-3.413-3.413A3.416,3.416,0,0,1,91.441,48.78ZM99.973,9.532a1.706,1.706,0,1,1,0,3.413H98.267V9.532ZM81.2,4.413H94.854l0,13.651H81.2Zm8.532,93.854a5.119,5.119,0,1,1-5.119-5.119A5.126,5.126,0,0,1,89.734,98.267Zm-71.67,0a5.119,5.119,0,1,1,5.119,5.119A5.126,5.126,0,0,1,18.064,98.267Zm6.826-25.6H28.3v3.413H24.89ZM31.716,79.5V72.67h3.413V89.734H18.064V72.67h3.413V79.5ZM29.965,93.147h6.913a8.363,8.363,0,0,0,0,10.239H29.967a8.363,8.363,0,0,0,0-10.239Zm8.577,5.119a5.119,5.119,0,1,1,5.119,5.119A5.126,5.126,0,0,1,38.542,98.267Zm11.9-5.119h6.913a8.363,8.363,0,0,0,0,10.239H50.444a8.363,8.363,0,0,0,0-10.239Zm8.577,5.119a5.119,5.119,0,1,1,5.119,5.119A5.126,5.126,0,0,1,59.019,98.267Zm11.9-5.119h6.913a8.363,8.363,0,0,0,0,10.239H70.921a8.363,8.363,0,0,0,0-10.239ZM48.78,89.734V72.67h3.413V79.5H62.432V72.67h3.413V89.734ZM55.606,72.67h3.413v3.413H55.606ZM47.074,14.651H23.184V11.239h23.89ZM77.789,9.532v3.413h-27.3V9.532ZM24.89,4.413H45.367a1.709,1.709,0,0,1,1.706,1.706V7.826H23.184V6.119A1.709,1.709,0,0,1,24.89,4.413ZM23.184,18.064h23.89V24.89H23.184ZM13.858,28.3H56.4l4.551,6.826H9.307ZM7.826,38.542H62.432V69.257H45.367V89.734H38.542V69.257H14.651V89.734H9.532a8.524,8.524,0,0,0-1.706.172ZM4.413,98.267a5.126,5.126,0,0,1,5.119-5.119H16.4a8.36,8.36,0,0,0,0,10.239H9.532A5.126,5.126,0,0,1,4.413,98.267Zm93.854,5.119H91.4a8.36,8.36,0,0,0,0-10.239h6.87a5.119,5.119,0,0,1,0,10.239Z" transform="translate(-1 -1)"/><path d="M54.119,4a5.119,5.119,0,1,0,5.119,5.119A5.126,5.126,0,0,0,54.119,4Zm0,6.826a1.706,1.706,0,1,1,1.706-1.706A1.709,1.709,0,0,1,54.119,10.826Z" transform="translate(32.909 1.119)"/><path d="M27.477,25H7V48.89H27.477ZM24.064,45.477H10.413V28.413H24.064Z" transform="translate(3.239 15.954)"/><path d="M26.119,35.239A5.119,5.119,0,1,0,21,30.119,5.126,5.126,0,0,0,26.119,35.239Zm0-6.826a1.706,1.706,0,1,1-1.706,1.706A1.709,1.709,0,0,1,26.119,28.413Z" transform="translate(13.129 15.954)"/><path d="M34.119,35.239A5.119,5.119,0,1,0,29,30.119,5.126,5.126,0,0,0,34.119,35.239Zm0-6.826a1.706,1.706,0,1,1-1.706,1.706A1.709,1.709,0,0,1,34.119,28.413Z" transform="translate(18.78 15.954)"/><path d="M21,33H44.89v3.413H21Z" transform="translate(13.129 21.606)"/><path d="M21,37h3.413v3.413H21Z" transform="translate(13.129 24.432)"/><path d="M25,37H35.239v3.413H25Z" transform="translate(15.954 24.432)"/><path d="M33,37h3.413v3.413H33Z" transform="translate(21.606 24.432)"/></g></g><g transform="translate(1070.987 23341.602)"><g transform="translate(-29.897 -29.848)"><g transform="translate(0 0)"><circle cx="43.515" cy="43.515" r="43.515" transform="translate(7.409 7.4)" fill="#ffe27a"/><path d="M51.516,263.333A43.514,43.514,0,0,1,8.039,221.577c-.023.584-.038,1.17-.038,1.76a43.515,43.515,0,1,0,87.031,0c0-.59-.015-1.176-.038-1.76a43.515,43.515,0,0,1-43.477,41.756Z" transform="translate(-0.592 -172.422)" fill="#f9cf58"/><circle cx="36.008" cy="36.008" r="36.008" transform="translate(0 50.915) rotate(-45)" fill="#f9f6f6"/><path d="M82.409,255.825a36.008,36.008,0,0,1-35.964-34.248q-.042.875-.043,1.76a36.008,36.008,0,0,0,72.015,0q0-.885-.043-1.76A36.009,36.009,0,0,1,82.409,255.825Z" transform="translate(-31.485 -172.422)" fill="#ecdaec"/><path d="M122.469,85.746,100.345,107.87A36.008,36.008,0,1,0,125.806,46.4V77.689" transform="translate(-74.882 -31.494)" fill="#ff4755"/><circle cx="4.72" cy="4.72" r="4.72" transform="translate(46.205 46.195)" fill="#ffe27a"/><path d="M211.156,224.537a4.72,4.72,0,0,1-4.379-2.96,4.72,4.72,0,1,0,8.758,0A4.719,4.719,0,0,1,211.156,224.537Z" transform="translate(-160.231 -172.422)" fill="#f9cf58"/><path d="M125.806,255.825a35.868,35.868,0,0,1-23.64-8.848l-1.821,1.821a36.008,36.008,0,0,0,61.469-25.461q0-.885-.043-1.76A36.008,36.008,0,0,1,125.806,255.825Z" transform="translate(-74.882 -172.422)" fill="#fc2b3a"/></g><path d="M282.656,254.054l-4.518-.679a21.078,21.078,0,0,0-3.323-8.018l2.716-3.676a1.617,1.617,0,0,0-.157-2.1l-2.339-2.339a1.617,1.617,0,0,0-2.1-.157l-3.676,2.716a21.079,21.079,0,0,0-8.019-3.323l-.679-4.518a1.617,1.617,0,0,0-1.6-1.376h-3.307a1.617,1.617,0,0,0-1.6,1.376l-.679,4.518a21.077,21.077,0,0,0-8.019,3.323l-3.677-2.716a1.617,1.617,0,0,0-2.1.157l-2.339,2.338a1.616,1.616,0,0,0-.157,2.1l2.716,3.676a21.08,21.08,0,0,0-3.323,8.019l-4.518.679a1.617,1.617,0,0,0-1.376,1.6v3.307a1.617,1.617,0,0,0,1.376,1.6l4.518.679a21.08,21.08,0,0,0,3.323,8.019l-2.716,3.676a1.617,1.617,0,0,0,.157,2.1l2.339,2.339a1.617,1.617,0,0,0,2.1.157l3.677-2.716a21.078,21.078,0,0,0,8.019,3.323l.679,4.518a1.617,1.617,0,0,0,1.6,1.376h3.308a1.617,1.617,0,0,0,1.6-1.376l.679-4.518a21.079,21.079,0,0,0,8.019-3.323l3.676,2.716a1.617,1.617,0,0,0,2.1-.157l2.339-2.339a1.617,1.617,0,0,0,.157-2.1l-2.716-3.676a21.079,21.079,0,0,0,3.323-8.019l4.518-.679a1.617,1.617,0,0,0,1.376-1.6v-3.307A1.617,1.617,0,0,0,282.656,254.054ZM257.3,270.847a13.541,13.541,0,1,1,13.541-13.541A13.541,13.541,0,0,1,257.3,270.847Z" transform="translate(-179.652 -179.663)" fill="#4a80aa"/><circle cx="13.541" cy="13.541" r="13.541" transform="translate(64.111 64.101)" fill="#ffe27a"/><path d="M311.568,391.589a13.522,13.522,0,0,0,13.424-15.3,13.538,13.538,0,0,1-26.847,0,13.522,13.522,0,0,0,13.423,15.3Z" transform="translate(-233.916 -296.886)" fill="#407093"/><path d="M311.567,370.07a13.541,13.541,0,0,1-13.424-11.782,13.541,13.541,0,1,0,26.848,0A13.541,13.541,0,0,1,311.567,370.07Z" transform="translate(-233.915 -282.405)" fill="#f9cf58"/></g><g transform="translate(-24.052 -24.012)"><path d="M305.63,290.593a15.037,15.037,0,1,0,5.512,29.031,1.469,1.469,0,0,0-1.077-2.734,12.113,12.113,0,1,1,4.348-2.939,1.469,1.469,0,0,0,2.133,2.022,15.037,15.037,0,0,0-10.915-25.38Z" transform="translate(-233.78 -233.78)"/><path d="M97.47,67.138l-3.52-.529a22.417,22.417,0,0,0-2.768-6.68L93.3,57.066a3.07,3.07,0,0,0-.3-4.02L90.654,50.7a3.121,3.121,0,0,0-.8-.577,45.511,45.511,0,0,0,.285-5.056A45.071,45.071,0,0,0,16.025,10.606a1.469,1.469,0,1,0,1.895,2.246A42.132,42.132,0,0,1,87.2,45.07a42.6,42.6,0,0,1-.318,5.167c-.085.051-.168.106-.249.166L83.77,52.518q-.839-.519-1.715-.959a37.874,37.874,0,0,0,.562-6.49,37.377,37.377,0,0,0-6.276-20.789A1.469,1.469,0,1,0,73.9,25.91a34.449,34.449,0,0,1,5.783,19.16,34.968,34.968,0,0,1-.407,5.316,22.518,22.518,0,0,0-2.181-.636l-.529-3.52a3.07,3.07,0,0,0-3.055-2.63H70.193a3.071,3.071,0,0,0-3.055,2.63l-.529,3.519a22.414,22.414,0,0,0-6.68,2.768L57.066,50.4a3.071,3.071,0,0,0-4.02.3L50.7,53.046a3.07,3.07,0,0,0-.3,4.02l2.116,2.864a22.412,22.412,0,0,0-2.768,6.68l-3.52.529a3.071,3.071,0,0,0-2.63,3.055v3.314a3.07,3.07,0,0,0,2.63,3.055l3.52.529a22.518,22.518,0,0,0,.636,2.181,34.967,34.967,0,0,1-5.316.407,34.476,34.476,0,0,1-23.4-9.133L41.852,50.365a6.2,6.2,0,1,0,4.687-11.316V10.494A34.485,34.485,0,0,1,70.4,21.486a1.469,1.469,0,0,0,2.15-2,37.547,37.547,0,1,0-27.48,63.134,37.87,37.87,0,0,0,6.49-.562q.441.875.959,1.715L50.4,86.634c-.06.081-.115.164-.166.249a42.61,42.61,0,0,1-5.167.317A42.131,42.131,0,0,1,13.828,16.8,1.469,1.469,0,0,0,11.65,14.83,45.07,45.07,0,0,0,45.07,90.139a45.513,45.513,0,0,0,5.056-.285,3.119,3.119,0,0,0,.577.8L53.046,93a3.071,3.071,0,0,0,4.02.3l2.864-2.116a22.414,22.414,0,0,0,6.68,2.768l.529,3.52a3.071,3.071,0,0,0,3.055,2.63h3.314a3.07,3.07,0,0,0,3.055-2.63l.529-3.52a22.409,22.409,0,0,0,6.679-2.768L86.634,93.3a3.07,3.07,0,0,0,4.02-.3L93,90.654a3.071,3.071,0,0,0,.3-4.02L91.182,83.77a22.41,22.41,0,0,0,2.768-6.679l3.52-.529a3.07,3.07,0,0,0,2.63-3.055V70.193a3.07,3.07,0,0,0-2.629-3.055ZM48.329,45.07a3.26,3.26,0,1,1-3.26-3.26A3.263,3.263,0,0,1,48.329,45.07ZM10.494,46.539h5.321a1.469,1.469,0,0,0,0-2.938H10.494a34.477,34.477,0,0,1,9.1-21.93l3.752,3.752a1.469,1.469,0,0,0,2.078-2.078l-3.752-3.752a34.476,34.476,0,0,1,21.929-9.1V39.049a6.194,6.194,0,0,0-3.826,9.238L19.593,68.468a34.477,34.477,0,0,1-9.1-21.929ZM97.161,73.507a.15.15,0,0,1-.128.149l-4.527.681a1.469,1.469,0,0,0-1.225,1.182,19.55,19.55,0,0,1-3.1,7.476,1.469,1.469,0,0,0,.031,1.7l2.721,3.684a.15.15,0,0,1-.015.2l-2.343,2.343a.149.149,0,0,1-.2.014L84.7,88.212a1.47,1.47,0,0,0-1.7-.031,19.546,19.546,0,0,1-7.476,3.1A1.469,1.469,0,0,0,74.337,92.5l-.681,4.527a.15.15,0,0,1-.149.128H70.194a.149.149,0,0,1-.149-.128l-.68-4.527a1.469,1.469,0,0,0-1.182-1.226,19.552,19.552,0,0,1-7.476-3.1,1.469,1.469,0,0,0-1.7.031L55.32,90.933a.152.152,0,0,1-.2-.014l-2.343-2.344a.15.15,0,0,1-.015-.2L55.488,84.7a1.469,1.469,0,0,0,.031-1.7,19.551,19.551,0,0,1-3.1-7.476A1.469,1.469,0,0,0,51.2,74.336l-4.527-.681a.152.152,0,0,1-.128-.149V70.193a.15.15,0,0,1,.128-.149l4.527-.68a1.469,1.469,0,0,0,1.226-1.182,19.55,19.55,0,0,1,3.1-7.476,1.469,1.469,0,0,0-.031-1.7L52.767,55.32a.151.151,0,0,1,.015-.2l2.343-2.343a.151.151,0,0,1,.2-.015L59,55.487a1.469,1.469,0,0,0,1.7.031,19.55,19.55,0,0,1,7.476-3.1,1.469,1.469,0,0,0,1.182-1.226l.68-4.527a.15.15,0,0,1,.149-.128h3.314a.15.15,0,0,1,.149.128l.681,4.527a1.469,1.469,0,0,0,1.182,1.225,19.551,19.551,0,0,1,7.476,3.1,1.469,1.469,0,0,0,1.7-.031l3.684-2.721a.15.15,0,0,1,.2.015l2.343,2.343a.151.151,0,0,1,.014.2L88.213,59a1.469,1.469,0,0,0-.031,1.7,19.549,19.549,0,0,1,3.1,7.476,1.469,1.469,0,0,0,1.226,1.182l4.527.68a.15.15,0,0,1,.128.149v3.314Z" transform="translate(0)"/><path d="M344.919,343.355l-5.488,5.628-2.382-2.316A1.469,1.469,0,1,0,335,348.773l3.434,3.339a1.469,1.469,0,0,0,2.076-.028l6.513-6.678a1.469,1.469,0,0,0-2.1-2.051Z" transform="translate(-269.147 -275.87)"/></g></g><g transform="translate(405.534 23310.754)"><g transform="translate(2.709 2.709)"><g transform="translate(0 88.846)"><path d="M104.514,67.669H8.834A6.834,6.834,0,1,1,8.834,54h95.68Z" transform="translate(-2 -54)" fill="#ccd1d9"/></g><g transform="translate(0 75.177)"><path d="M12.251,46V59.669H8.834A6.825,6.825,0,0,0,2,66.5V52.834A6.832,6.832,0,0,1,8.834,46Z" transform="translate(-2 -46)" fill="#aab2bd"/></g><g transform="translate(17.086 75.143)"><path d="M21.431,45.98a12.423,12.423,0,0,0,3.5,4.9l9.055,7.774a4.279,4.279,0,0,0,2.785,1.025H12V46.014h8.543Z" transform="translate(-12 -45.98)" fill="#aab2bd"/></g><g transform="translate(41.86 82.012)"><path d="M45.294,56.834H26.5A4.267,4.267,0,0,0,29.917,50h11.96a4.267,4.267,0,0,0,3.417,6.834Z" transform="translate(-26.5 -50)" fill="#aab2bd"/></g><g transform="translate(60.654 75.143)"><path d="M62.274,46.014V59.683H37.5a4.279,4.279,0,0,0,2.785-1.025l9.055-7.774a12.423,12.423,0,0,0,3.5-4.9l.154.034Z" transform="translate(-37.5 -45.98)" fill="#aab2bd"/></g><g transform="translate(92.263 75.177)"><path d="M56,46H66.251V59.669H56Z" transform="translate(-56 -46)" fill="#aab2bd"/></g><g transform="translate(10.251 75.177)"><path d="M8,46h6.834V59.669H8Z" transform="translate(-8 -46)" fill="#ff826e"/></g><g transform="translate(85.429 75.177)"><path d="M58.834,46V59.669H52V46Z" transform="translate(-52 -46)" fill="#ff826e"/></g><g transform="translate(10.251 90.554)"><ellipse cx="5" cy="5.5" rx="5" ry="5.5" transform="translate(0.04 -0.332)" fill="#656d78"/></g><g transform="translate(23.92 90.554)"><ellipse cx="5" cy="5.5" rx="5" ry="5.5" transform="translate(0.372 -0.332)" fill="#656d78"/></g><g transform="translate(68.343 90.554)"><ellipse cx="5" cy="5.5" rx="5" ry="5.5" transform="translate(-0.052 -0.332)" fill="#656d78"/></g><g transform="translate(82.012 90.554)"><ellipse cx="5" cy="5.5" rx="5" ry="5.5" transform="translate(0.28 -0.332)" fill="#656d78"/></g><g transform="translate(68.343 50.762)"><path d="M50.543,47.583v1.709H42V32.205l.256-.5a3.777,3.777,0,0,1,.581.308,14.847,14.847,0,0,1,4.681,4.476,14.579,14.579,0,0,1,2.307,6.048Z" transform="translate(-42 -31.71)" fill="#fcd770"/></g><g transform="translate(45.516 43.842)"><path d="M37.8,27.66V28.7a3.432,3.432,0,0,0,1.709,2.956V50.452H29.255V31.983l-.615-.051A3.409,3.409,0,0,0,30.964,28.7V27.66l3.417.581A10.324,10.324,0,0,0,37.8,27.66Z" transform="translate(-28.64 -27.66)" fill="#fcd770"/></g><g transform="translate(25.629 50.762)"><path d="M25.543,32.205V49.291H17V47.583l.718-5.04a14.579,14.579,0,0,1,2.307-6.048,14.847,14.847,0,0,1,4.681-4.476,3.778,3.778,0,0,1,.581-.308Z" transform="translate(-17 -31.71)" fill="#fcd770"/></g><g transform="translate(41.006 66.634)"><path d="M46.5,41V52.584l-3.639,3.11a4.759,4.759,0,0,0-.632.683H30.271a4.76,4.76,0,0,0-.632-.683L26,52.584V41H46.5Z" transform="translate(-26 -41)" fill="#d3a06c"/></g><g transform="translate(56.383 47.84)"><path d="M46.96,50.5v2.153a4.032,4.032,0,0,1-1.418,3.075l-5.416,4.647V48.794H35V30a3.758,3.758,0,0,0,1.23.427l6.083.854a14.584,14.584,0,0,1,4.9,1.64l-.256.5Z" transform="translate(-35 -30)" fill="#b4dd7f"/></g><g transform="translate(33.915 48.113)"><path d="M32.836,30.314a4.048,4.048,0,0,0,.615-.154l.615.051v18.47H28.941V60.265l-5.416-4.647a4.032,4.032,0,0,1-1.418-3.075V33.3l-.256-.5a14.584,14.584,0,0,1,4.9-1.64Z" transform="translate(-21.85 -30.16)" fill="#b4dd7f"/></g><g transform="translate(34.513)"><path d="M45.778,15.669H22.2a17.09,17.09,0,0,1,33.488,0Z" transform="translate(-22.2 -2)" fill="#ff826e"/></g><g transform="translate(30.754 13.669)"><path d="M57.589,10a3.427,3.427,0,0,1,3.417,3.417,3.442,3.442,0,0,1-3.417,3.417H23.417A3.427,3.427,0,0,1,20,13.417,3.442,3.442,0,0,1,23.417,10H57.589Z" transform="translate(-20 -10)" fill="#fc6e51"/></g><g transform="translate(34.171 20.503)"><path d="M56.171,14V24.251a5.133,5.133,0,0,0-5.126-5.126H49.337a17.007,17.007,0,0,1-9.4-2.836l-.854-.581-.854.581a17.007,17.007,0,0,1-9.4,2.836H27.126A5.119,5.119,0,0,0,22,24.251V14Z" transform="translate(-22 -14)" fill="#656d78"/></g><g transform="translate(25.629 68.343)"><path d="M36.649,55.669a4.275,4.275,0,0,1-6.2,5.809L21.391,53.7a12.423,12.423,0,0,1-3.5-4.9A12.56,12.56,0,0,1,17,44.153V42h8.543v2.153a4.032,4.032,0,0,0,1.418,3.075l5.416,4.647,3.639,3.11a4.76,4.76,0,0,1,.632.683Z" transform="translate(-17 -42)" fill="#f0d0b4"/></g><g transform="translate(56.38 68.343)"><path d="M55.5,42v2.153a12.56,12.56,0,0,1-.888,4.647,12.423,12.423,0,0,1-3.5,4.9l-9.055,7.774a4.274,4.274,0,0,1-6.2-5.809,4.76,4.76,0,0,1,.632-.683l3.639-3.11,5.416-4.647a4.032,4.032,0,0,0,1.418-3.075V42Z" transform="translate(-34.998 -42)" fill="#f0d0b4"/></g><g transform="translate(61.355 25.629)"><path d="M44.9,22.126a5.119,5.119,0,0,1-5.126,5.126H38l-.085-.017a9.16,9.16,0,0,0,.154-1.691V17h1.709A5.133,5.133,0,0,1,44.9,22.126Z" transform="translate(-37.91 -17)" fill="#f0d0b4"/></g><g transform="translate(41.006 22.211)"><path d="M26,18.417a17.007,17.007,0,0,0,9.4-2.836L36.251,15l.854.581a17.007,17.007,0,0,0,9.4,2.836V26.96a9.16,9.16,0,0,1-.154,1.691,10.209,10.209,0,0,1-10.1,8.56l-3.417-.581L29.007,34.2a10.013,10.013,0,0,1-2.853-5.553A9.16,9.16,0,0,1,26,26.96Z" transform="translate(-26 -15)" fill="#f0d0b4"/></g><g transform="translate(34.171 25.629)"><path d="M28.834,25.543a9.16,9.16,0,0,0,.154,1.691l-.085.017H27.126a5.126,5.126,0,0,1,0-10.251h1.709Z" transform="translate(-22 -17)" fill="#f0d0b4"/></g></g><g transform="translate(1 1)"><path d="M80.985,76.177a14.3,14.3,0,0,0,.316-2.968V72.76h0V69.343l-.736-5.278a16.4,16.4,0,0,0-13.92-13.918l-6.088-.87a1.71,1.71,0,0,1-1.452-1.613A12,12,0,0,0,65.424,40.3h.5a6.841,6.841,0,0,0,6.834-6.834V24.607a5.111,5.111,0,0,0-.694-9.835,18.781,18.781,0,0,0-36.2,0,5.111,5.111,0,0,0-.694,9.835v8.857A6.841,6.841,0,0,0,42.006,40.3h.5a12,12,0,0,0,6.317,7.366,1.709,1.709,0,0,1-1.454,1.613l-6.088.87a16.4,16.4,0,0,0-13.92,13.918L26.646,69.1l-.009,1.953h-.005v1.186l0,.523h0v.449a14.3,14.3,0,0,0,.316,2.968H9.543A8.553,8.553,0,0,0,1,84.72V98.389a8.553,8.553,0,0,0,8.543,8.543h97.389V76.177Zm8.861,25.629a3.417,3.417,0,1,1,3.417-3.417A3.421,3.421,0,0,1,89.846,101.806Zm-4.473,1.709H80.649a6.742,6.742,0,0,0,0-10.251h4.724a6.742,6.742,0,0,0,0,10.251Zm-70.7-13.669V79.594h3.417V89.846Zm3.417,5.126a3.417,3.417,0,1,1-3.417,3.417A3.421,3.421,0,0,1,18.086,94.972Zm4.473-1.709h4.724a6.742,6.742,0,0,0,0,10.251H22.557a6.742,6.742,0,0,0,0-10.251Zm12.613,5.126a3.417,3.417,0,1,1-3.417-3.417A3.421,3.421,0,0,1,35.171,98.389Zm1.056-5.126H71.706a6.742,6.742,0,0,0,0,10.251H36.227a6.744,6.744,0,0,0,0-10.251ZM62.509,71.052v9.084l-3.04,2.606c-.1.082-.169.183-.258.27H48.722c-.091-.087-.162-.188-.258-.27l-3.041-2.606V71.052ZM50.462,86.429H57.47c-.019.133-.06.26-.07.395a5.93,5.93,0,0,0,.584,3.022H49.947a5.94,5.94,0,0,0,.584-3.022c-.01-.135-.051-.261-.07-.395Zm29.133,11.96a3.417,3.417,0,1,1-3.417-3.417A3.421,3.421,0,0,1,79.594,98.389Zm10.251-8.543V79.594h3.417V89.846ZM86.429,79.594V89.846H69.56l6.752-5.787a14.25,14.25,0,0,0,3.465-4.465Zm-8.545-6.385a10.858,10.858,0,0,1-3.8,8.254l-9.059,7.764a2.634,2.634,0,0,1-3.612-.277,2.569,2.569,0,0,1,.277-3.615l9.059-7.764a5.744,5.744,0,0,0,2.006-4.364V72.76h5.126Zm-.7-8.661.685,4.794h-5.11V56.53A12.907,12.907,0,0,1,77.184,64.549ZM69.341,54.42V73.209a2.324,2.324,0,0,1-.813,1.768l-2.6,2.23V67.634H60.8V52.763l5.363.767A12.882,12.882,0,0,1,69.341,54.42ZM42.006,26.629a6.764,6.764,0,0,0-3.417.95V24.92H50.658a15.15,15.15,0,0,1-6.944,1.709ZM57.274,24.92H69.343v2.659a6.764,6.764,0,0,0-3.417-.95H64.217A15.15,15.15,0,0,1,57.274,24.92Zm8.652,11.96V30.046a3.417,3.417,0,1,1,0,6.834ZM52.257,4.525v6.727h3.417V4.525A15.427,15.427,0,0,1,68.451,14.669H62.509V11.251H59.092v3.417H48.84V11.251H45.423v3.417H39.481A15.424,15.424,0,0,1,52.257,4.525ZM36.88,18.086H71.052a1.709,1.709,0,0,1,0,3.417H36.88a1.709,1.709,0,1,1,0-3.417Zm1.709,15.377a3.421,3.421,0,0,1,3.417-3.417V36.88A3.421,3.421,0,0,1,38.589,33.463Zm6.834,3.417V29.969a18.574,18.574,0,0,0,8.543-3,18.574,18.574,0,0,0,8.543,3V36.88a8.543,8.543,0,0,1-17.086,0Zm8.543,11.96a11.906,11.906,0,0,0,1.842-.157,5.132,5.132,0,0,0,1.575,2.689V67.634H50.549V51.372a5.145,5.145,0,0,0,1.575-2.689,11.905,11.905,0,0,0,1.842.157Zm-12.2,4.688,5.363-.767V67.634H42.006v9.573l-2.6-2.23a2.324,2.324,0,0,1-.813-1.768V54.42a12.926,12.926,0,0,1,3.176-.892Zm-11.02,11.02a12.909,12.909,0,0,1,4.427-8.018V69.343H30.063Zm4.425,8.211v.449a5.744,5.744,0,0,0,2.006,4.364l9.059,7.764a2.569,2.569,0,0,1,.277,3.615,2.634,2.634,0,0,1-3.612.277l-9.059-7.764a10.858,10.858,0,0,1-3.8-8.254V72.76Zm-3.554,11.3,6.752,5.787H21.5V79.594h6.651A14.3,14.3,0,0,0,31.619,84.059ZM9.543,79.594h1.709V89.846H9.543A8.454,8.454,0,0,0,4.417,91.6V84.72A5.132,5.132,0,0,1,9.543,79.594ZM4.417,98.389a5.132,5.132,0,0,1,5.126-5.126h4.07a6.744,6.744,0,0,0,0,10.251H9.543A5.132,5.132,0,0,1,4.417,98.389Zm99.1,5.126h-9.2a6.744,6.744,0,0,0,0-10.251h9.2v10.251ZM96.68,89.846V79.594h6.834V89.846Z" transform="translate(-1 -1)"/><ellipse cx="2" cy="1.5" rx="2" ry="1.5" transform="translate(46 30.932)"/><ellipse cx="2" cy="1.5" rx="2" ry="1.5" transform="translate(56 30.932)"/><path d="M39.251,23H35.834a1.709,1.709,0,1,1-3.417,0H29a5.126,5.126,0,0,0,10.251,0Z" transform="translate(18.84 14.589)"/></g></g><g transform="translate(58.037 6291.968)"><rect width="33.075" height="7" transform="translate(521.962 17110)" fill="#f14141"/><rect width="33.075" height="7" transform="translate(521.962 17094)" fill="#f14141"/></g><g transform="translate(417.903 6299.353)"><rect width="39.708" height="5.573" transform="translate(517.679 17083.615) rotate(40)" fill="#f14141"/><rect width="39.707" height="5.573" transform="translate(548.096 17087.885) rotate(140)" fill="#f14141"/></g></g></svg>