<svg xmlns="http://www.w3.org/2000/svg" width="220.689" height="203.117" viewBox="0 0 220.689 203.117"><g transform="translate(8737 -15257.124)"><g transform="translate(-9502 8661.683)"><g transform="translate(765.378 6601.417)"><path d="M115.9,0A33.619,33.619,0,0,0,92.127,9.847L0,101.974H35.193a33.619,33.619,0,0,0,23.773-9.847L151.093,0Z" transform="matrix(0.998, -0.07, 0.07, 0.998, -0.379, 4.564)" fill="#fde2e2"/><path d="M144.875,0a42.024,42.024,0,0,0-29.716,12.309L0,127.468H43.991a42.024,42.024,0,0,0,29.716-12.309L188.866,0Z" transform="matrix(0.998, -0.07, 0.07, 0.998, 23.012, 69.985)" fill="#fde2e2"/></g><g transform="translate(813.966 6635.622)"><g transform="translate(2.948 2.948)"><g transform="translate(81.802 81.802)"><path d="M75.163,47.9V71.267a3.907,3.907,0,0,1-3.9,3.9H47.9a3.907,3.907,0,0,1-3.9-3.9V47.9A3.907,3.907,0,0,1,47.9,44h7.791v7.791h7.791V44h7.791A3.907,3.907,0,0,1,75.163,47.9Z" transform="translate(-44 -44)" fill="#d3a06c"/></g><g transform="translate(85.698 50.64)"><path d="M77.163,55.267a3.907,3.907,0,0,1-3.9,3.9H49.9a3.907,3.907,0,0,1-3.9-3.9V31.9A3.907,3.907,0,0,1,49.9,28h7.791v7.791h7.791V28h7.791a3.907,3.907,0,0,1,3.9,3.9Z" transform="translate(-46 -28)" fill="#d3a06c"/></g><g transform="translate(54.535 50.64)"><path d="M61.163,31.9V55.267a3.907,3.907,0,0,1-3.9,3.9H49.477V47.477a3.907,3.907,0,0,0-3.9-3.9H30V31.9A3.907,3.907,0,0,1,33.9,28h7.791v7.791h7.791V28h7.791A3.907,3.907,0,0,1,61.163,31.9Z" transform="translate(-30 -28)" fill="#d3a06c"/></g><g transform="translate(58.43)"><path d="M86.535,5.9V48.744a3.907,3.907,0,0,1-3.9,3.9H35.9a3.907,3.907,0,0,1-3.9-3.9V5.9A3.907,3.907,0,0,1,35.9,2H51.477V13.686H67.058V2H82.64A3.907,3.907,0,0,1,86.535,5.9Z" transform="translate(-32 -2)" fill="#d3a06c"/></g><g transform="translate(77.907)"><path d="M42,2H57.581V13.686H42Z" transform="translate(-42 -2)" fill="#b27946"/></g><g transform="translate(66.221 50.64)"><path d="M36,28h7.791v7.791H36Z" transform="translate(-36 -28)" fill="#b27946"/></g><g transform="translate(97.384 50.64)"><path d="M52,28h7.791v7.791H52Z" transform="translate(-52 -28)" fill="#b27946"/></g><g transform="translate(93.488 81.802)"><path d="M50,44h7.791v7.791H50Z" transform="translate(-50 -44)" fill="#b27946"/></g><g transform="translate(0 15.581)"><path d="M36.084,10a8.765,8.765,0,0,1,0,17.529H23.424a5.852,5.852,0,0,0-5.843,5.843v3.9a3.924,3.924,0,0,0-3.9,3.9v.331a3.907,3.907,0,0,0,1.149,2.766l2.746,2.746v9.738L15.3,55.615A24.079,24.079,0,0,1,26.073,10Z" transform="translate(-2 -10)" fill="#656d78"/></g><g transform="translate(0 88.054)"><path d="M37.058,65.44V76.016H2V47.21A20.319,20.319,0,0,0,9.07,62.616l.876.721a19.7,19.7,0,0,0,2.746,1.987,20.22,20.22,0,0,0,10.44,2.9h2.61a20.355,20.355,0,0,0,6.836-1.188Z" transform="translate(-2 -47.21)" fill="#4fc1e9"/></g><g transform="translate(0 68.169)"><path d="M21.477,66.215,12.693,75a19.7,19.7,0,0,1-2.746-1.987l-.876-.721a20.284,20.284,0,0,1,6.077-34.376L17.581,37A40.51,40.51,0,0,1,29.267,47.634a39.589,39.589,0,0,1,3.447,5.629,40.142,40.142,0,0,1,3.253,8.8v.019Z" transform="translate(-2 -37)" fill="#4fc1e9"/></g><g transform="translate(46.744 70.116)"><path d="M30.558,50.757a5.542,5.542,0,0,0-3.486,3.486L26,57.477V41.9H49.372a3.924,3.924,0,0,0,3.9-3.9V80.849a3.907,3.907,0,0,1-3.9,3.9H26V69.981l15.426-5.531a5.534,5.534,0,0,0-1.48-10.868H37.686l-1.48-1.48A5.517,5.517,0,0,0,30.558,50.757Z" transform="translate(-26 -38)" fill="#ffeaa7"/></g><g transform="translate(50.64 66.221)"><path d="M47.477,36a3.907,3.907,0,0,1,3.9,3.9,3.924,3.924,0,0,1-3.9,3.9H28V36H47.477Z" transform="translate(-28 -36)" fill="#e6e9ed"/></g><g transform="translate(30.715 79.855)"><path d="M33.8,43v9.738L21.023,56.381a40.141,40.141,0,0,0-3.253-8.8Z" transform="translate(-17.77 -43)" fill="#f0d0b4"/></g><g transform="translate(10.693 82.591)"><path d="M61.4,49.128a5.543,5.543,0,0,1-2.435,9.251L43.541,63.911,31.855,68.1l-4.48,1.6a20.356,20.356,0,0,1-6.836,1.188H17.93a20.22,20.22,0,0,1-10.44-2.9L16.274,59.2l14.491-4.129v-.019l12.777-3.642,1.071-3.233a5.509,5.509,0,0,1,9.135-2.142l1.48,1.48h2.259A5.553,5.553,0,0,1,61.4,49.128Z" transform="translate(-7.49 -44.405)" fill="#f0d0b4"/></g><g transform="translate(11.686 33.11)"><path d="M23.581,48.215V64.692A40.51,40.51,0,0,0,11.9,54.058V38.477L9.149,35.731A3.907,3.907,0,0,1,8,32.965v-.331a3.924,3.924,0,0,1,3.9-3.9v-3.9A5.852,5.852,0,0,1,17.738,19H27.905a5.863,5.863,0,0,1,5.22,3.194c1.714,3.35,4.09,8.667,4.09,12.387l-5.843,1.948v5.044a6.65,6.65,0,0,1-6.642,6.642Z" transform="translate(-8 -19)" fill="#f0d0b4"/></g></g><g transform="translate(1 1)"><path d="M117.432,51.865a5.811,5.811,0,0,0,.429-2.174V6.843A5.85,5.85,0,0,0,112.017,1H65.273A5.85,5.85,0,0,0,59.43,6.843V49.692a5.811,5.811,0,0,0,.428,2.174,5.832,5.832,0,0,0-4.324,5.617v9.738h-3.9v7.791h-3.9v6.32L34.6,85.089a42.447,42.447,0,0,0-2.435-3.878V67.145a8.514,8.514,0,0,0,7.791-8.521V54.991L45.8,53.044v-1.4c0-4.028-2.345-9.446-4.31-13.281a7.917,7.917,0,0,0-.662-1.058,10.705,10.705,0,0,0-3.792-20.719H27.023a26.024,26.024,0,0,0-11.639,49.3l1.2.6v3.288l-1.165.436a22.323,22.323,0,0,0-14.4,20.39H1v31.163H39.954V110.6l7.791-2.791v13.949h25.32a5.85,5.85,0,0,0,5.843-5.843V86.7h4.254a5.777,5.777,0,0,0-.358,1.948v23.372a5.85,5.85,0,0,0,5.843,5.843h23.372a5.85,5.85,0,0,0,5.843-5.843V88.645a5.811,5.811,0,0,0-.429-2.174,5.834,5.834,0,0,0,4.324-5.617V57.483A5.832,5.832,0,0,0,117.432,51.865ZM82.8,4.9H94.488v7.791H82.8ZM63.326,6.843A1.951,1.951,0,0,1,65.273,4.9H78.907V16.581H98.384V4.9h13.634a1.951,1.951,0,0,1,1.948,1.948V49.692a1.951,1.951,0,0,1-1.948,1.948H65.273a1.951,1.951,0,0,1-1.948-1.948Zm38.953,48.692h3.9v3.9h-3.9Zm-31.163,0h3.9v3.9h-3.9ZM55.535,71.116H73.064a1.948,1.948,0,1,1,0,3.9H55.535Zm-32.09,30.949,27.77-7.935,1.4-4.2a3.561,3.561,0,0,1,5.9-1.393l2.057,2.059h3.06a3.6,3.6,0,0,1,3.59,3.592,3.655,3.655,0,0,1-2.754,3.5L32.872,109a18.333,18.333,0,0,1-6.178,1.071H24.08a18.326,18.326,0,0,1-7.164-1.478Zm24.3-16.68v5.687L38.23,93.789a41.75,41.75,0,0,0-1.86-5.154ZM41.792,50.272l-5.734,1.913v6.441a4.7,4.7,0,0,1-4.7,4.7l-6.984,0v3.9l3.9,0v9.285a41.782,41.782,0,0,0-7.791-6.425V54.729L17.152,51.4a1.939,1.939,0,0,1-.571-1.379v-.333a1.951,1.951,0,0,1,1.948-1.948h1.948V41.9a3.9,3.9,0,0,1,3.9-3.9H34.545a3.893,3.893,0,0,1,3.475,2.129,35.948,35.948,0,0,1,3.773,10.138ZM4.9,42.6A22.154,22.154,0,0,1,27.023,20.477H37.032a6.817,6.817,0,0,1,0,13.634H24.372A7.8,7.8,0,0,0,16.581,41.9v2.281a5.854,5.854,0,0,0-3.9,5.51v.333A5.808,5.808,0,0,0,14.4,54.158l2.183,2.183v5.732A21.977,21.977,0,0,1,4.9,42.6ZM16.786,73.851l1.492-.561A38.364,38.364,0,0,1,34.49,94.858L23.683,97.946l-.767-2.3A16.5,16.5,0,0,0,11.21,84.808l-.945,3.778A12.627,12.627,0,0,1,19.22,96.88l.976,2.927-6.813,6.813c-.421-.3-.832-.621-1.227-.96l-.861-.738a18.324,18.324,0,0,1,5.49-31.071Zm19.272,44.01H4.9V103.522a22.187,22.187,0,0,0,3.864,4.355l.861.738a22.23,22.23,0,0,0,14.46,5.35h2.614a22.177,22.177,0,0,0,7.493-1.3l1.872-.67Zm37.006,0H51.64V106.41l14.01-5.019A7.485,7.485,0,0,0,63.631,86.7H62.184l-.917-.917a7.261,7.261,0,0,0-9.627-.725V78.907H73.064a5.777,5.777,0,0,0,1.948-.358v37.364A1.95,1.95,0,0,1,73.064,117.861Zm5.843-44.8a5.85,5.85,0,0,0-5.843-5.843H59.43V57.483a1.951,1.951,0,0,1,1.948-1.948h5.843v7.791H78.907V55.535H84.75A1.951,1.951,0,0,1,86.7,57.483V80.855A1.95,1.95,0,0,1,84.75,82.8H78.907Zm35.058,38.953a1.95,1.95,0,0,1-1.948,1.948H88.645a1.95,1.95,0,0,1-1.948-1.948V88.645A1.95,1.95,0,0,1,88.645,86.7h5.843v7.791h11.686V86.7h5.843a1.95,1.95,0,0,1,1.948,1.948ZM98.384,86.7h3.9v3.9h-3.9Zm19.477-5.843a1.95,1.95,0,0,1-1.948,1.948H92.541a1.95,1.95,0,0,1-1.948-1.948V57.483a1.951,1.951,0,0,1,1.948-1.948h5.843v7.791H110.07V55.535h5.843a1.951,1.951,0,0,1,1.948,1.948Z" transform="translate(-1 -1)"/><path d="M51,23h3.9v3.9H51Z" transform="translate(46.384 19.849)"/><path d="M47,23h3.9v3.9H47Z" transform="translate(42.593 19.849)"/><path d="M55,23h3.9v3.9H55Z" transform="translate(50.174 19.849)"/><path d="M47,19H66.477v3.9H47Z" transform="translate(42.593 16.058)"/></g></g></g></g></svg>