<svg xmlns="http://www.w3.org/2000/svg" xmlns:xlink="http://www.w3.org/1999/xlink" width="168" height="156" viewBox="0 0 168 156"><defs><filter id="a" x="0" y="0" width="168" height="156" filterUnits="userSpaceOnUse"><feOffset dy="3" input="SourceAlpha"/><feGaussianBlur stdDeviation="3" result="b"/><feFlood flood-opacity="0.161"/><feComposite operator="in" in2="b"/><feComposite in="SourceGraphic"/></filter></defs><g transform="translate(6355 9725)"><g transform="translate(-6678.305 -14056.382)"><g transform="matrix(1, 0, 0, 1, 323.3, 4331.38)" filter="url(#a)"><rect width="150" height="138" rx="17" transform="translate(9 6)" fill="#fff"/></g><g transform="translate(367.307 4367.386)"><g transform="translate(2.258 17.354)"><g transform="translate(2.516 35.224)"><path d="M4,42H14.064V67.16H4Z" transform="translate(-4 -42)" fill="#ff826e"/></g><g transform="translate(17.612 37.74)"><path d="M16,44H26.064V66.644H16Z" transform="translate(-16 -44)" fill="#ff826e"/></g><g transform="translate(47.804 12.58)"><path d="M56.354,71.8H40V24H50.064V36.58H49.85a3.558,3.558,0,0,0-2.516,6.076l3.988,3.988-4.567,7.309a11.246,11.246,0,0,0-1.723,6v.528A11.323,11.323,0,0,0,56.354,71.8Z" transform="translate(-40 -24)" fill="#ff826e"/></g><g transform="translate(32.708 22.644)"><path d="M28,32H38.064V69.74H28Z" transform="translate(-28 -32)" fill="#ff826e"/></g><g transform="translate(54.094 22.644)"><path d="M52.649,34.516A3.3,3.3,0,0,1,55.857,32H59.3a3.307,3.307,0,0,1,3.309,3.309,3.09,3.09,0,0,1-.126.906L60.1,44.58H50.032l-3.988-3.988a3.558,3.558,0,0,1,2.516-6.076h4.089Z" transform="translate(-45 -32)" fill="#a0d468"/></g><g transform="translate(52.836 35.224)"><path d="M50.29,42H60.354l4.567,7.309a11.246,11.246,0,0,1,1.723,6v.528a11.322,11.322,0,1,1-22.644,0V55.31a11.246,11.246,0,0,1,1.723-6Z" transform="translate(-44 -42)" fill="#b4dd7f"/></g><g transform="translate(49.062)"><path d="M47.441,15.107A3.772,3.772,0,1,1,44.774,14,3.765,3.765,0,0,1,47.441,15.107Z" transform="translate(-41 -14)" fill="#fcd770"/></g><g transform="translate(31.45 10.064)"><path d="M34.057,23.912a3.7,3.7,0,0,1,.491,1.862,3.774,3.774,0,0,1-7.5.616,3.306,3.306,0,0,1-.05-.616,3.774,3.774,0,0,1,7.057-1.862Z" transform="translate(-27 -22)" fill="#fcd770"/></g><g transform="translate(0 5.032)"><path d="M26.984,28.517a12.339,12.339,0,0,1,.176,2.063,12.618,12.618,0,1,1-.176-2.063Z" transform="translate(-2 -18)" fill="#fcd770"/></g></g><g transform="translate(1 1)"><path d="M11.516,35.914v2.7h2.516v-2.7a3.577,3.577,0,0,0,.531-6.62L12.11,28.069a1.075,1.075,0,0,1,.481-2.037h.367a1.075,1.075,0,0,1,1.074,1.074v.184h2.516v-.184A3.584,3.584,0,0,0,14.032,23.7V21H11.516v2.7a3.577,3.577,0,0,0-.531,6.62l2.453,1.225a1.075,1.075,0,0,1-.481,2.037H12.59a1.075,1.075,0,0,1-1.074-1.074V31.064H9v1.442A3.584,3.584,0,0,0,11.516,35.914Z" transform="translate(1.064 4.16)"/><path d="M14.838,48.8A13.854,13.854,0,0,0,28.676,34.966c0-.345-.026-.683-.052-1.023l4.267-.712a5.012,5.012,0,0,0,9.426-3.354l9.177-5.245a5.012,5.012,0,0,0,7.918-6.045L72.706,5.295v7.027h2.516V1H63.9V3.516h7.027L57.634,16.809a4.966,4.966,0,0,0-2.54-.713,5.037,5.037,0,0,0-5.032,5.032,4.987,4.987,0,0,0,.2,1.315l-9.177,5.245A5,5,0,0,0,32.5,30.748l-4.286.715A13.831,13.831,0,1,0,14.838,48.8ZM55.094,18.612a2.516,2.516,0,1,1-2.516,2.516A2.519,2.519,0,0,1,55.094,18.612ZM37.482,28.676a2.516,2.516,0,1,1-2.516,2.516A2.519,2.519,0,0,1,37.482,28.676ZM14.838,23.644A11.322,11.322,0,1,1,3.516,34.966,11.336,11.336,0,0,1,14.838,23.644Z" transform="translate(-1 -1)"/><path d="M3,68.676H15.58V41H3Zm2.516-25.16h7.548V66.16H5.516Z" transform="translate(-0.484 9.32)"/><path d="M15,68.16H27.58V43H15Zm2.516-22.644h7.548V65.644H17.516Z" transform="translate(2.612 9.836)"/><path d="M27,71.256H39.58V31H27Zm2.516-37.74h7.548V68.74H29.516Z" transform="translate(5.708 6.74)"/><path d="M55.032,47.7V45H52.516v2.7a3.577,3.577,0,0,0-.531,6.62l2.453,1.227a1.074,1.074,0,0,1-.481,2.035H53.59a1.076,1.076,0,0,1-1.074-1.074V55.064H50v1.442a3.582,3.582,0,0,0,2.516,3.408v2.7h2.516v-2.7a3.577,3.577,0,0,0,.531-6.62L53.11,52.067a1.074,1.074,0,0,1,.481-2.035h.367a1.076,1.076,0,0,1,1.074,1.074v.184h2.516v-.184A3.584,3.584,0,0,0,55.032,47.7Z" transform="translate(11.642 10.352)"/><path d="M67.28,53.546,63.008,46.71l2.235-7.824a4.57,4.57,0,0,0-4.393-5.822H57.407a4.556,4.556,0,0,0-4.058,2.516H51.58V23H39V73.32H56.612a12.594,12.594,0,0,0,12.58-12.58v-.527a12.569,12.569,0,0,0-1.912-6.667ZM55.354,37.633a2.055,2.055,0,0,1,2.052-2.053h3.443A2.052,2.052,0,0,1,62.823,38.2L60.7,45.644H52.1l-3.622-3.622A2.3,2.3,0,0,1,50.107,38.1h2.731v2.516h2.516ZM41.516,70.8V25.516h7.548V35.7A4.809,4.809,0,0,0,46.7,43.8l3.282,3.282-4.038,6.462a12.559,12.559,0,0,0-1.913,6.667v.527A12.555,12.555,0,0,0,49.1,70.8ZM66.676,60.74a10.064,10.064,0,0,1-20.128,0v-.527a10.041,10.041,0,0,1,1.53-5.333l4.2-6.72h8.67l4.2,6.72a10.041,10.041,0,0,1,1.53,5.333Z" transform="translate(8.804 4.676)"/></g></g></g></g></svg>