<svg xmlns="http://www.w3.org/2000/svg" width="220.689" height="203.117" viewBox="0 0 220.689 203.117"><g transform="translate(8737 -14486.124)"><g transform="translate(-9502 7890.683)"><g transform="translate(765.378 6601.417)"><path d="M115.9,0A33.619,33.619,0,0,0,92.127,9.847L0,101.974H35.193a33.619,33.619,0,0,0,23.773-9.847L151.093,0Z" transform="matrix(0.998, -0.07, 0.07, 0.998, -0.379, 4.564)" fill="#fde2e2"/><path d="M144.875,0a42.024,42.024,0,0,0-29.716,12.309L0,127.468H43.991a42.024,42.024,0,0,0,29.716-12.309L188.866,0Z" transform="matrix(0.998, -0.07, 0.07, 0.998, 23.012, 69.985)" fill="#fde2e2"/></g><g transform="translate(809.539 6642.526)"><g transform="translate(8.173 17.351)"><g transform="translate(0 0)"><path d="M50.938,92.092H31.8V69.428A1.928,1.928,0,0,1,33.723,67.5H49.01a1.928,1.928,0,0,1,1.928,1.928Z" transform="translate(-31.795 -67.5)" fill="#ffcf5d"/><path d="M155.408,92.092H136.265V69.428a1.928,1.928,0,0,1,1.928-1.928H153.48a1.928,1.928,0,0,1,1.928,1.928Z" transform="translate(-109.411 -67.5)" fill="#ffcf5d"/><path d="M259.878,92.092H240.735V69.428a1.928,1.928,0,0,1,1.928-1.928H257.95a1.928,1.928,0,0,1,1.928,1.928Z" transform="translate(-187.026 -67.5)" fill="#ffcf5d"/></g><path d="M49.01,67.5H43.226V84.38H31.8v7.712H50.938V69.428A1.928,1.928,0,0,0,49.01,67.5Z" transform="translate(-31.795 -67.5)" fill="#ffb545"/><path d="M153.48,67.5H147.7V84.38H136.265v7.712h19.143V69.428A1.928,1.928,0,0,0,153.48,67.5Z" transform="translate(-109.411 -67.5)" fill="#ffb545"/><path d="M257.95,67.5h-5.784V84.38H240.735v7.712h19.143V69.428A1.928,1.928,0,0,0,257.95,67.5Z" transform="translate(-187.026 -67.5)" fill="#ffb545"/></g><g transform="translate(88.736 17.351)"><path d="M355.808,75.212V69.428a1.928,1.928,0,0,0-1.928-1.928h-3.856a1.928,1.928,0,0,0-1.928,1.928v5.784a2.892,2.892,0,0,0-2.892,2.892V92.092h13.5V78.1a2.892,2.892,0,0,0-2.892-2.892Z" transform="translate(-345.205 -67.5)" fill="#95d6a4"/><path d="M438.308,75.212V69.428a1.928,1.928,0,0,0-1.928-1.928h-3.856a1.928,1.928,0,0,0-1.928,1.928v5.784a2.892,2.892,0,0,0-2.892,2.892V92.092h13.5V78.1a2.892,2.892,0,0,0-2.892-2.892Z" transform="translate(-406.498 -67.5)" fill="#95d6a4"/></g><g transform="translate(8.378 57.366)"><path d="M86.163,223.166H74.732a3.856,3.856,0,0,0-3.856,3.856,3.856,3.856,0,0,0-3.856-3.856H55.59a3.856,3.856,0,0,0-3.856,3.856,3.856,3.856,0,0,0-3.856-3.856H36.447a3.856,3.856,0,0,0-3.856,3.856v20.736H90.019V227.022a3.856,3.856,0,0,0-3.856-3.856Z" transform="translate(-32.591 -223.166)" fill="#5c87bd"/><path d="M86.163,223.166H82.308v16.88H70.877V227.022a3.856,3.856,0,0,0-3.856-3.856H63.165v16.88H51.734V227.022a3.856,3.856,0,0,0-3.856-3.856H44.022v16.88H32.591v7.712H90.019V227.022a3.856,3.856,0,0,0-3.856-3.856Z" transform="translate(-32.591 -223.166)" fill="#456ea2"/></g><g transform="translate(73.518 62.507)"><path d="M331.861,243.168H323a3.856,3.856,0,0,0-3.856,3.856,3.856,3.856,0,0,0-3.856-3.856h-8.861a3.856,3.856,0,0,0-3.856,3.856,3.856,3.856,0,0,0-3.856-3.856h-8.86A3.856,3.856,0,0,0,286,247.024v15.594h49.716V247.024a3.856,3.856,0,0,0-3.856-3.856Z" transform="translate(-286.001 -243.168)" fill="#fff9eb"/><path d="M331.861,243.168h-3.856v11.739h-8.86v-7.883a3.856,3.856,0,0,0-3.856-3.856h-3.856v11.739h-8.861v-7.883a3.856,3.856,0,0,0-3.856-3.856h-3.856v11.739H286v7.712h49.716V247.024a3.856,3.856,0,0,0-3.856-3.856Z" transform="translate(-286.001 -243.168)" fill="#d3cdbf"/></g><g transform="translate(8.377 97.381)"><path d="M114.3,387.274V382.69a3.856,3.856,0,0,0-3.856-3.856H97.73a3.856,3.856,0,0,0-3.856,3.856,3.856,3.856,0,0,0-3.856-3.856H77.3a3.856,3.856,0,0,0-3.856,3.856,3.856,3.856,0,0,0-3.856-3.856H56.874a3.856,3.856,0,0,0-3.856,3.856,3.856,3.856,0,0,0-3.856-3.856H36.446a3.856,3.856,0,0,0-3.856,3.856v4.584a3.856,3.856,0,0,0,3.856,3.856,3.856,3.856,0,0,0-3.856,3.856v8.44H114.3v-8.44a3.856,3.856,0,0,0-3.856-3.856A3.856,3.856,0,0,0,114.3,387.274Z" transform="translate(-32.59 -378.834)" fill="#8b9ba9"/><path d="M114.3,389.2V382.69a3.856,3.856,0,0,0-3.856-3.856h-3.856v4.584H93.874v-.728a3.856,3.856,0,0,0-3.856-3.856H86.162v4.584H73.446v-.728a3.856,3.856,0,0,0-3.856-3.856H65.734v4.584H53.018v-.728a3.856,3.856,0,0,0-3.856-3.856H45.306v4.584H32.59v3.856a3.856,3.856,0,0,0,3.856,3.856h8.861v4.584H32.59v7.712H114.3v-8.44a3.856,3.856,0,0,0-3.856-3.856h1.928A1.928,1.928,0,0,0,114.3,389.2Zm-48.568,6.512H53.018V391.13H65.734Zm20.428,0H73.446V391.13H86.162Zm20.428,0H93.874V391.13h12.716Z" transform="translate(-32.59 -378.834)" fill="#6c7a88"/></g><path d="M412.058,386.545v-5.784a1.928,1.928,0,0,0-1.928-1.928h-3.856a1.928,1.928,0,0,0-1.928,1.928v5.784a2.892,2.892,0,0,0-2.892,2.892v13.988h13.5V389.436A2.892,2.892,0,0,0,412.058,386.545Z" transform="translate(-298.26 -281.453)" fill="#95d6a4"/><g transform="translate(1.928 1.928)"><path d="M133.328,7.5H9.428A1.928,1.928,0,0,0,7.5,9.428v3.856a1.928,1.928,0,0,0,1.928,1.928h123.9a1.928,1.928,0,0,0,1.928-1.928V9.428A1.928,1.928,0,0,0,133.328,7.5Z" transform="translate(-7.5 -7.5)" fill="#ce795f"/><path d="M133.328,474.5H9.428A1.928,1.928,0,0,0,7.5,476.428v3.856a1.928,1.928,0,0,0,1.928,1.928h123.9a1.928,1.928,0,0,0,1.928-1.928v-3.856A1.928,1.928,0,0,0,133.328,474.5Z" transform="translate(-7.5 -354.456)" fill="#ce795f"/><path d="M133.328,163.167H9.428A1.928,1.928,0,0,0,7.5,165.095v3.856a1.928,1.928,0,0,0,1.928,1.928h123.9a1.928,1.928,0,0,0,1.928-1.928v-3.856A1.928,1.928,0,0,0,133.328,163.167Z" transform="translate(-7.5 -123.152)" fill="#ce795f"/><path d="M133.328,318.833H9.428A1.928,1.928,0,0,0,7.5,320.761v3.856a1.928,1.928,0,0,0,1.928,1.928h123.9a1.928,1.928,0,0,0,1.928-1.928v-3.856A1.928,1.928,0,0,0,133.328,318.833Z" transform="translate(-7.5 -238.804)" fill="#ce795f"/></g><g transform="translate(0 0)"><path d="M127.756,0H3.856A3.861,3.861,0,0,0,0,3.856V7.712a3.861,3.861,0,0,0,3.856,3.856H120.044a1.928,1.928,0,1,0,0-3.856H3.856V3.856h123.9V7.712a1.928,1.928,0,0,0,0,3.856A3.848,3.848,0,0,0,131.591,8.1l.008-.067c.007-.113.013-.221.013-.326V3.856A3.861,3.861,0,0,0,127.756,0Z" transform="translate(0 0)"/><path d="M127.756,395.924h-9.137v-12.06a4.827,4.827,0,0,0-2.892-4.417v-6.186a1.928,1.928,0,0,0-1.928-1.928h-7.712a1.928,1.928,0,0,0-1.928,1.928v6.186a4.827,4.827,0,0,0-2.892,4.417v12.06h-9.25v-6.512a5.76,5.76,0,0,0-1.478-3.856,5.76,5.76,0,0,0,1.478-3.856v-4.584a5.79,5.79,0,0,0-5.784-5.784H73.517a5.761,5.761,0,0,0-3.856,1.477,5.759,5.759,0,0,0-3.856-1.477H53.089a5.76,5.76,0,0,0-3.856,1.478,5.76,5.76,0,0,0-3.856-1.478H32.661a5.76,5.76,0,0,0-3.856,1.478,5.76,5.76,0,0,0-3.856-1.478H12.233a5.79,5.79,0,0,0-5.784,5.784V381.7a5.761,5.761,0,0,0,1.477,3.856,5.76,5.76,0,0,0-1.477,3.856v6.512H3.856A3.861,3.861,0,0,0,0,399.78v3.856c0,.111.005.221.013.326a3.861,3.861,0,0,0,3.843,3.529,1.928,1.928,0,0,0,0-3.856,0,0,0,0,1,0,0V399.78h123.9v3.856H11.567a1.928,1.928,0,0,0,0,3.856H127.756a3.86,3.86,0,0,0,3.856-3.856V399.78A3.861,3.861,0,0,0,127.756,395.924ZM73.517,375.189H86.234a1.93,1.93,0,0,1,1.928,1.928V381.7a1.93,1.93,0,0,1-1.928,1.928H71.589v-6.512A1.93,1.93,0,0,1,73.517,375.189Zm-20.428,0H65.806a1.93,1.93,0,0,1,1.928,1.928v6.512H51.162v-6.512A1.93,1.93,0,0,1,53.089,375.189Zm-22.356,12.3H47.306v8.44H30.734Zm1.928-12.3H45.378a1.93,1.93,0,0,1,1.928,1.928v6.512H30.734v-6.512A1.93,1.93,0,0,1,32.661,375.189Zm-22.356,1.928a1.93,1.93,0,0,1,1.928-1.928H24.95a1.93,1.93,0,0,1,1.928,1.928v6.512H12.233a1.93,1.93,0,0,1-1.928-1.928Zm0,18.808v-6.512a1.93,1.93,0,0,1,1.928-1.928H26.878v8.44Zm40.856-8.44H67.734v8.44H51.162Zm20.428,8.44v-8.44H86.234a1.93,1.93,0,0,1,1.928,1.928v6.512Zm33.534,0v-12.06a.965.965,0,0,1,.964-.964,1.928,1.928,0,0,0,1.928-1.928v-5.784h3.856v5.784A1.928,1.928,0,0,0,113.8,382.9a.965.965,0,0,1,.964.964v12.06Z" transform="translate(0 -275.881)"/><path d="M127.755,84.592h-2.389V72.531a4.827,4.827,0,0,0-2.892-4.417V61.928A1.928,1.928,0,0,0,120.546,60h-7.712a1.928,1.928,0,0,0-1.928,1.928v6.186a4.827,4.827,0,0,0-2.892,4.417V84.592h-3.856V72.531a4.827,4.827,0,0,0-2.892-4.417V61.928A1.928,1.928,0,0,0,99.34,60H91.628A1.928,1.928,0,0,0,89.7,61.928v6.186a4.827,4.827,0,0,0-2.892,4.417V84.592H82.952V61.928A1.928,1.928,0,0,0,81.024,60H61.882a1.928,1.928,0,0,0-1.928,1.928V84.592H56.1V61.928A1.928,1.928,0,0,0,54.17,60H35.027A1.928,1.928,0,0,0,33.1,61.928V84.592H29.244V61.928A1.928,1.928,0,0,0,27.316,60H8.173a1.928,1.928,0,0,0-1.928,1.928V84.592H3.856A3.861,3.861,0,0,0,0,88.448V92.3c0,.111.005.221.013.326A3.861,3.861,0,0,0,3.856,96.16a1.928,1.928,0,0,0,0-3.856l0,0V88.448h123.9V92.3H11.567a1.928,1.928,0,0,0,0,3.856H127.755a3.864,3.864,0,0,0,3.856-3.856V88.448A3.861,3.861,0,0,0,127.755,84.592ZM111.871,72.531a.965.965,0,0,1,.964-.964,1.928,1.928,0,0,0,1.928-1.928V63.856h3.856V69.64a1.928,1.928,0,0,0,1.928,1.928.965.965,0,0,1,.964.964v12.06h-9.64Zm-21.207,0a.965.965,0,0,1,.964-.964,1.928,1.928,0,0,0,1.928-1.928V63.856h3.856V69.64a1.928,1.928,0,0,0,1.928,1.928.965.965,0,0,1,.964.964v12.06H90.664ZM63.81,63.856H79.1V84.592H63.81Zm-26.854,0H52.242V84.592H36.955Zm-26.854,0H25.388V84.592H10.1Z" transform="translate(0 -44.577)"/><path d="M127.756,240.257h-2.594V226.591a5.79,5.79,0,0,0-5.784-5.784h-8.861a5.76,5.76,0,0,0-3.856,1.478,5.76,5.76,0,0,0-3.856-1.478h-8.86a5.76,5.76,0,0,0-3.856,1.478,5.76,5.76,0,0,0-3.856-1.478H77.373a5.79,5.79,0,0,0-5.784,5.784v13.666H67.734V221.45a5.79,5.79,0,0,0-5.784-5.784H50.519a5.761,5.761,0,0,0-3.856,1.477,5.76,5.76,0,0,0-3.856-1.477H31.376a5.761,5.761,0,0,0-3.856,1.477,5.76,5.76,0,0,0-3.856-1.477H12.233a5.79,5.79,0,0,0-5.784,5.784v18.807H3.856A3.864,3.864,0,0,0,0,244.113v3.856a3.861,3.861,0,0,0,3.856,3.856H120.044a1.928,1.928,0,1,0,0-3.856H3.856v-3.856h123.9v3.856a1.928,1.928,0,1,0,0,3.856,3.846,3.846,0,0,0,3.835-3.463l.008-.064c.007-.113.013-.224.013-.329v-3.856A3.864,3.864,0,0,0,127.756,240.257Zm-17.238-15.594h8.861a1.93,1.93,0,0,1,1.928,1.928v13.666H108.589V226.591A1.93,1.93,0,0,1,110.517,224.663Zm-16.572,0h8.86a1.93,1.93,0,0,1,1.928,1.928v13.666H92.018V226.591A1.93,1.93,0,0,1,93.946,224.663Zm-18.5,1.928a1.93,1.93,0,0,1,1.928-1.928h8.861a1.93,1.93,0,0,1,1.928,1.928v13.666H75.445Zm-24.926-7.069H61.95a1.93,1.93,0,0,1,1.928,1.928v18.807H48.591V221.45A1.93,1.93,0,0,1,50.519,219.522Zm-19.143,0H42.807a1.93,1.93,0,0,1,1.928,1.928v18.807H29.448V221.45A1.93,1.93,0,0,1,31.376,219.522ZM10.306,221.45a1.93,1.93,0,0,1,1.928-1.928H23.665a1.93,1.93,0,0,1,1.928,1.928v18.807H10.306Z" transform="translate(0 -160.228)"/></g></g></g></g></svg>