<svg xmlns="http://www.w3.org/2000/svg" width="220.689" height="203.117" viewBox="0 0 220.689 203.117"><g transform="translate(8737 -14108.124)"><g transform="translate(-9502 7512.683)"><g transform="translate(765.378 6601.417)"><path d="M115.9,0A33.619,33.619,0,0,0,92.127,9.847L0,101.974H35.193a33.619,33.619,0,0,0,23.773-9.847L151.093,0Z" transform="matrix(0.998, -0.07, 0.07, 0.998, -0.379, 4.564)" fill="#fde2e2"/><path d="M144.875,0a42.024,42.024,0,0,0-29.716,12.309L0,127.468H43.991a42.024,42.024,0,0,0,29.716-12.309L188.866,0Z" transform="matrix(0.998, -0.07, 0.07, 0.998, 23.012, 69.985)" fill="#fde2e2"/></g><g transform="translate(808.789 6630.444)"><g transform="translate(3.115 3.115)"><g transform="translate(0 67.67)"><circle cx="4" cy="4" r="4" transform="translate(-0.003 0.326)" fill="#ef7385"/></g><g transform="translate(0 50.753)"><circle cx="4" cy="4" r="4" transform="translate(-0.003 0.244)" fill="#ef7385"/></g><g transform="translate(16.918 42.294)"><path d="M60.753,22V34.688H22.688V85.441H10V22Z" transform="translate(-10 -22)" fill="#f0d0b4"/></g><g transform="translate(29.606 54.982)"><path d="M66.753,28V40.688H32.918a4.242,4.242,0,0,0-4.229,4.229V87.212H16V28H66.753Z" transform="translate(-16 -28)" fill="#e6e9ed"/></g><g transform="translate(84.588 76.129)"><path d="M75.835,38V71.835H42V38H75.835Z" transform="translate(-42 -38)" fill="#e6e9ed"/></g><g transform="translate(42.294 67.67)"><path d="M64.294,42.459V80.523a4.242,4.242,0,0,1-4.229,4.229H26.229A4.242,4.242,0,0,1,22,80.523V38.229A4.242,4.242,0,0,1,26.229,34H60.065a4.242,4.242,0,0,1,4.229,4.229Z" transform="translate(-22 -34)" fill="#fcd770"/></g><g transform="translate(76.129)"><path d="M88.753,26.319v2.115A4.407,4.407,0,0,1,85.729,32.6a4.326,4.326,0,0,0-2.665,2.5l-.317.761a4.141,4.141,0,0,0-.338,1.671,4.272,4.272,0,0,0,.465,1.967,4.367,4.367,0,0,1-.8,5.075l-1.5,1.5a4.375,4.375,0,0,1-3.087,1.29,4.447,4.447,0,0,1-1.988-.486,4.3,4.3,0,0,0-3.637-.127l-.761.317a4.326,4.326,0,0,0-2.5,2.665,4.407,4.407,0,0,1-4.166,3.024H62.319a4.407,4.407,0,0,1-4.166-3.024,4.326,4.326,0,0,0-2.5-2.665l-.761-.317a4.141,4.141,0,0,0-1.671-.338,4.272,4.272,0,0,0-1.967.465,4.367,4.367,0,0,1-5.075-.8l-1.5-1.5a4.375,4.375,0,0,1-1.29-3.087,4.447,4.447,0,0,1,.486-1.988,4.3,4.3,0,0,0,.127-3.637l-.317-.761a4.326,4.326,0,0,0-2.665-2.5A4.407,4.407,0,0,1,38,28.434V26.319a4.407,4.407,0,0,1,3.024-4.166,4.326,4.326,0,0,0,2.665-2.5l.317-.761a4.141,4.141,0,0,0,.338-1.671,4.272,4.272,0,0,0-.465-1.967,4.367,4.367,0,0,1,.8-5.075l1.5-1.5a4.375,4.375,0,0,1,3.087-1.29,4.447,4.447,0,0,1,1.988.486,4.3,4.3,0,0,0,3.637.127l.761-.317a4.326,4.326,0,0,0,2.5-2.665A4.407,4.407,0,0,1,62.319,2h2.115A4.407,4.407,0,0,1,68.6,5.024a4.326,4.326,0,0,0,2.5,2.665l.761.317a4.141,4.141,0,0,0,1.671.338,4.272,4.272,0,0,0,1.967-.465,4.367,4.367,0,0,1,5.075.8l1.5,1.5a4.375,4.375,0,0,1,1.29,3.087,4.447,4.447,0,0,1-.486,1.988,4.3,4.3,0,0,0-.127,3.637l.317.761a4.326,4.326,0,0,0,2.665,2.5A4.407,4.407,0,0,1,88.753,26.319ZM76.065,27.376A12.688,12.688,0,1,0,63.376,40.065,12.7,12.7,0,0,0,76.065,27.376Z" transform="translate(-38 -2)" fill="#ffc729"/></g><g transform="translate(88.817 12.688)"><path d="M56.688,8A12.688,12.688,0,1,1,44,20.688,12.7,12.7,0,0,1,56.688,8Zm4.229,12.688a4.229,4.229,0,1,0-4.229,4.229A4.242,4.242,0,0,0,60.918,20.688Z" transform="translate(-44 -8)" fill="#fcd770"/></g></g><g transform="translate(1 1)"><path d="M57.8,7a14.8,14.8,0,1,0,14.8,14.8A14.819,14.819,0,0,0,57.8,7Zm0,25.376A10.573,10.573,0,1,1,68.376,21.8,10.585,10.585,0,0,1,57.8,32.376Z" transform="translate(45.817 5.688)"/><path d="M53.344,11a6.344,6.344,0,1,0,6.344,6.344A6.352,6.352,0,0,0,53.344,11Zm0,8.459a2.115,2.115,0,1,1,2.115-2.115A2.118,2.118,0,0,1,53.344,19.459Z" transform="translate(50.276 10.147)"/><path d="M125.407,21.261A2.167,2.167,0,0,1,124.041,20c-.108-.279-.22-.556-.34-.831a2.178,2.178,0,0,1,.08-1.846,6.486,6.486,0,0,0-1.205-7.53l-1.491-1.489a6.486,6.486,0,0,0-7.53-1.205,2.159,2.159,0,0,1-1.848.08c-.271-.118-.548-.231-.825-.34a2.17,2.17,0,0,1-1.26-1.37A6.491,6.491,0,0,0,103.444,1h-2.106a6.49,6.49,0,0,0-6.177,4.475A2.163,2.163,0,0,1,93.9,6.841c-.277.108-.552.22-.827.34a2.178,2.178,0,0,1-1.846-.08A6.486,6.486,0,0,0,83.7,8.306L82.208,9.8A6.486,6.486,0,0,0,81,17.328a2.174,2.174,0,0,1,.08,1.848c-.118.273-.233.55-.34.825a2.165,2.165,0,0,1-1.37,1.26A6.491,6.491,0,0,0,74.9,27.438v2.106a6.49,6.49,0,0,0,4.475,6.177,2.167,2.167,0,0,1,1.366,1.256c.108.279.22.556.34.831A2.178,2.178,0,0,1,81,39.655a6.486,6.486,0,0,0,1.205,7.53l1.489,1.491a6.49,6.49,0,0,0,7.53,1.205,2.167,2.167,0,0,1,1.848-.08c.273.118.55.233.825.34a2.165,2.165,0,0,1,1.26,1.37,6.491,6.491,0,0,0,5.115,4.384V77.129H87.586V75.014a6.335,6.335,0,0,0-4.229-5.955V55.982H70.668V43.294H15.688v67.67H28.376v8.459H41.454a6.335,6.335,0,0,0,5.955,4.229H81.244a6.352,6.352,0,0,0,6.344-6.344v-2.115h12.688v10.573a2.117,2.117,0,0,1-2.115,2.115H9.344a2.117,2.117,0,0,1-2.115-2.115V85.588H3v40.179a6.352,6.352,0,0,0,6.344,6.344H98.161a6.352,6.352,0,0,0,6.344-6.344V115.194h16.918V77.129H104.506V55.893a6.489,6.489,0,0,0,5.115-4.386,2.167,2.167,0,0,1,1.256-1.366c.279-.108.556-.22.831-.34a2.178,2.178,0,0,1,1.846.08,6.49,6.49,0,0,0,7.53-1.205l1.491-1.489a6.486,6.486,0,0,0,1.205-7.53,2.174,2.174,0,0,1-.08-1.848c.118-.273.233-.55.34-.825a2.165,2.165,0,0,1,1.37-1.26,6.5,6.5,0,0,0,4.47-6.179V27.438a6.49,6.49,0,0,0-4.475-6.177ZM81.244,72.9a2.117,2.117,0,0,1,2.115,2.115V85.588H45.294V75.014A2.117,2.117,0,0,1,47.409,72.9ZM45.294,89.817H83.359v12.688H45.294ZM19.918,106.735V47.523H66.441v8.459H28.376v50.753ZM32.606,60.212H79.129V68.67H47.409a6.352,6.352,0,0,0-6.344,6.344v40.179H32.606Zm48.638,59.212H47.409a2.117,2.117,0,0,1-2.115-2.115V106.735H83.359v10.574A2.117,2.117,0,0,1,81.244,119.423Zm35.95-8.459H87.588V81.359h29.606Zm8.459-81.42a2.27,2.27,0,0,1-1.565,2.159,6.379,6.379,0,0,0-3.988,3.747c-.089.226-.182.453-.277.672a6.385,6.385,0,0,0,.184,5.439,2.266,2.266,0,0,1-.421,2.631l-1.491,1.491a2.269,2.269,0,0,1-2.631.421,6.4,6.4,0,0,0-5.437-.184q-.333.143-.679.279a6.385,6.385,0,0,0-3.745,3.99,2.268,2.268,0,0,1-2.159,1.563h-2.106a2.27,2.27,0,0,1-2.159-1.565A6.379,6.379,0,0,0,95.431,46.2c-.226-.089-.453-.182-.672-.277a6.259,6.259,0,0,0-2.508-.522,6.515,6.515,0,0,0-2.931.7,2.272,2.272,0,0,1-2.631-.421L85.2,44.193a2.266,2.266,0,0,1-.421-2.631,6.38,6.38,0,0,0,.184-5.437q-.143-.333-.279-.679a6.385,6.385,0,0,0-3.99-3.745,2.264,2.264,0,0,1-1.563-2.157V27.438a2.27,2.27,0,0,1,1.563-2.159,6.377,6.377,0,0,0,3.99-3.747c.089-.226.182-.453.277-.672a6.385,6.385,0,0,0-.184-5.439,2.269,2.269,0,0,1,.421-2.633L86.685,11.3a2.262,2.262,0,0,1,2.633-.421,6.373,6.373,0,0,0,5.437.184c.224-.1.45-.19.677-.277a6.4,6.4,0,0,0,3.747-3.99,2.268,2.268,0,0,1,2.159-1.565h2.106A2.27,2.27,0,0,1,105.6,6.794a6.387,6.387,0,0,0,3.745,3.988c.226.089.453.182.675.277a6.393,6.393,0,0,0,5.439-.184,2.27,2.27,0,0,1,2.633.421l1.489,1.489A2.269,2.269,0,0,1,120,15.418a6.38,6.38,0,0,0-.184,5.437q.143.333.279.679a6.385,6.385,0,0,0,3.99,3.745,2.268,2.268,0,0,1,1.563,2.159Z" transform="translate(1.229 -1)"/><path d="M7.344,37.688A6.344,6.344,0,1,0,1,31.344,6.352,6.352,0,0,0,7.344,37.688Zm0-8.459a2.115,2.115,0,1,1-2.115,2.115A2.118,2.118,0,0,1,7.344,29.229Z" transform="translate(-1 25.753)"/><path d="M13.688,39.344a6.344,6.344,0,1,0-6.344,6.344A6.352,6.352,0,0,0,13.688,39.344Zm-8.459,0a2.115,2.115,0,1,1,2.115,2.115A2.117,2.117,0,0,1,5.229,39.344Z" transform="translate(-1 34.67)"/><path d="M45,41H66.147v4.229H45Z" transform="translate(48.047 43.588)"/><path d="M45,45H66.147v4.229H45Z" transform="translate(48.047 48.047)"/><path d="M45,49h4.229v4.229H45Z" transform="translate(48.047 52.506)"/><path d="M53,49h4.229v4.229H53Z" transform="translate(56.964 52.506)"/><path d="M49,49h4.229v4.229H49Z" transform="translate(52.506 52.506)"/><path d="M25,37h4.229v4.229H25Z" transform="translate(25.753 39.129)"/><path d="M29,37h4.229v4.229H29Z" transform="translate(30.212 39.129)"/><path d="M33,37h4.229v4.229H33Z" transform="translate(34.67 39.129)"/><path d="M7.229,24.748a2.118,2.118,0,0,1,2.115-2.115H61.182L50.517,29.3l2.242,3.587L72.546,20.519,52.759,8.152l-2.242,3.587L61.182,18.4H9.344A6.352,6.352,0,0,0,3,24.748v14.8H7.229Z" transform="translate(1.229 6.972)"/><path d="M33,45h4.229v4.229H33Z" transform="translate(34.67 48.047)"/><path d="M37,45h4.229v4.229H37Z" transform="translate(39.129 48.047)"/><path d="M29,45h4.229v4.229H29Z" transform="translate(30.212 48.047)"/><path d="M33,53h4.229v4.229H33Z" transform="translate(34.67 56.964)"/><path d="M25,53h4.229v4.229H25Z" transform="translate(25.753 56.964)"/><path d="M29,53h4.229v4.229H29Z" transform="translate(30.212 56.964)"/></g></g></g></g></svg>