<svg xmlns="http://www.w3.org/2000/svg" width="220.689" height="203.117" viewBox="0 0 220.689 203.117"><g transform="translate(8737 -14860.124)"><g transform="translate(-9502 8264.683)"><g transform="translate(765.378 6601.417)"><path d="M115.9,0A33.619,33.619,0,0,0,92.127,9.847L0,101.974H35.193a33.619,33.619,0,0,0,23.773-9.847L151.093,0Z" transform="matrix(0.998, -0.07, 0.07, 0.998, -0.379, 4.564)" fill="#fde2e2"/><path d="M144.875,0a42.024,42.024,0,0,0-29.716,12.309L0,127.468H43.991a42.024,42.024,0,0,0,29.716-12.309L188.866,0Z" transform="matrix(0.998, -0.07, 0.07, 0.998, 23.012, 69.985)" fill="#fde2e2"/></g><g transform="translate(800.949 6621.011)"><path d="M361.311,237.211v53.507a6.113,6.113,0,0,1-6.11,6.113h-36.28a6.111,6.111,0,0,1-6.111-6.112V237.211a6.11,6.11,0,0,1,6.112-6.111h8.251v.019a4.542,4.542,0,0,0,4.544,4.543H342.4a4.542,4.542,0,0,0,4.543-4.544V231.1H355.2a6.111,6.111,0,0,1,6.111,6.11Zm-31.527,33.876v-8.732h-8.729v8.732Z" transform="translate(-223.374 -151.071)" fill="#f8ec7d"/><path d="M367.06,217.711v-.278a4.542,4.542,0,0,1,4.544-4.543h10.687a4.542,4.542,0,0,1,4.543,4.544v.3a4.542,4.542,0,0,1-4.544,4.543H371.6a4.542,4.542,0,0,1-4.543-4.544Z" transform="translate(-263.261 -137.682)" fill="#6fe3ff"/><path d="M253.334,140.973v19.039h-1.877a4.542,4.542,0,0,0-4.543,4.544v.277h-8.252a6.11,6.11,0,0,0-6.111,6.112v39.395l-28.9,16.685V169.651l49.679-28.681Z" transform="translate(-143.115 -84.803)" fill="#c16752"/><path d="M133.317,129.036,107.99,114.414,157.666,85.73h0L183,100.355Z" transform="translate(-72.782 -44.188)" fill="#af593c"/><rect width="8.729" height="8.732" transform="translate(97.68 111.284)" fill="#6fe3ff"/><path d="M90.046,46.689,40.37,75.372,16.02,61.314,65.7,32.63Z" transform="translate(-5.161 -5.147)" fill="#af593c"/><path d="M65.682,169.651v57.373L16,198.34V140.973l.005,0,24.35,14.059Z" transform="translate(-5.147 -84.803)" fill="#e48e66"/><path d="M131.826,78.15h-6.6a6.5,6.5,0,0,0-6.2-4.766h-7.04V56.17a1.824,1.824,0,0,0-.9-1.611l-25.3-14.622-.868,1.607h.06v0l.876-1.6L61.486,25.878a1.876,1.876,0,0,0-1.866,0L9.964,54.547A1.859,1.859,0,0,0,9,56.17v57.368a1.853,1.853,0,0,0,.927,1.6l49.682,28.684a1.85,1.85,0,0,0,.927.248,1.944,1.944,0,0,0,.953-.248l26.145-15.081v10.9a7.848,7.848,0,0,0,7.914,7.869h36.28a7.89,7.89,0,0,0,7.964-7.869V86.14A8,8,0,0,0,131.826,78.15Zm-10.04,1.6v.3a2.678,2.678,0,0,1-2.756,2.6H108.342a2.637,2.637,0,0,1-2.706-2.621v-.278a2.682,2.682,0,0,1,2.706-2.661H119.03A2.727,2.727,0,0,1,121.787,79.751ZM106.508,56.167,60.535,82.708,38.915,70.225,84.886,43.681ZM60.535,29.623,81.178,41.542,35.208,68.085,14.565,56.167ZM12.707,59.374,58.774,85.918v53.093L12.707,112.467Zm49.774,79.637V85.918l45.8-26.544v14.01h.058a6.5,6.5,0,0,0-6.2,4.766h-6.6a7.953,7.953,0,0,0-7.914,7.99v38.326Zm73.6.635a4.181,4.181,0,0,1-4.257,4.163H95.546a4.138,4.138,0,0,1-4.207-4.162V86.14a4.242,4.242,0,0,1,4.207-4.284h6.668a6.339,6.339,0,0,0,6.127,4.5H119.03a6.339,6.339,0,0,0,6.127-4.5h6.669a4.285,4.285,0,0,1,4.257,4.284Z" transform="translate(0 0)"/><path d="M338.84,290.444h1.941a1.853,1.853,0,1,0,0-3.707h-.074v-5.03h5.11a1.784,1.784,0,0,0,1.763,1.251,1.859,1.859,0,0,0,1.865-1.849v-1.247A1.878,1.878,0,0,0,347.569,278H338.84a1.849,1.849,0,0,0-1.84,1.861v8.732a1.84,1.84,0,0,0,1.84,1.851Z" transform="translate(-241.16 -185.553)"/><path d="M349.444,343.853A1.853,1.853,0,0,0,347.59,342h-8.737A1.853,1.853,0,0,0,337,343.853v8.737a1.853,1.853,0,0,0,1.853,1.853h8.737a1.853,1.853,0,0,0,1.853-1.853Zm-8.737,1.853h5.03v5.03h-5.03Z" transform="translate(-241.16 -232.609)"/><path d="M340.78,414.737h-.074v-5.03h5.011a1.864,1.864,0,0,0,3.726,0v-1.784A1.933,1.933,0,0,0,347.569,406H338.84a1.9,1.9,0,0,0-1.84,1.925v8.729a1.789,1.789,0,0,0,1.84,1.79h1.941a1.853,1.853,0,1,0,0-3.707Z" transform="translate(-241.159 -279.665)"/><path d="M364.592,285.079l-5.427,5.428-1.652-1.651a1.853,1.853,0,0,0-2.621,2.621l2.963,2.96a1.853,1.853,0,0,0,2.621,0l6.738-6.738a1.853,1.853,0,0,0-2.621-2.621Z" transform="translate(-253.915 -190.358)"/><path d="M364.592,414.329l-5.427,5.427-1.652-1.651a1.853,1.853,0,0,0-2.621,2.621l2.963,2.96a1.853,1.853,0,0,0,2.621,0l6.738-6.738a1.853,1.853,0,0,0-2.621-2.621Z" transform="translate(-253.915 -285.388)"/><path d="M427.385,295H415.743a1.853,1.853,0,1,0,0,3.707h11.641a1.853,1.853,0,1,0,0-3.707Z" transform="translate(-297.693 -198.053)"/><path d="M427.385,359H415.743a1.853,1.853,0,1,0,0,3.707h11.641a1.853,1.853,0,1,0,0-3.707Z" transform="translate(-297.693 -245.108)"/><path d="M427.385,423H415.743a1.853,1.853,0,1,0,0,3.707h11.641a1.853,1.853,0,1,0,0-3.707Z" transform="translate(-297.693 -292.164)"/></g></g></g></svg>