<svg xmlns="http://www.w3.org/2000/svg" width="220.689" height="203.115" viewBox="0 0 220.689 203.115"><g transform="translate(-1179 -25765.623)"><g transform="translate(414 19170.18)"><g transform="translate(765.378 6601.417)"><path d="M115.9,0A33.619,33.619,0,0,0,92.127,9.847L0,101.974H35.193a33.619,33.619,0,0,0,23.773-9.847L151.093,0Z" transform="matrix(0.998, -0.07, 0.07, 0.998, -0.379, 4.564)" fill="#fde2e2"/><path d="M144.875,0a42.024,42.024,0,0,0-29.716,12.309L0,127.468H43.991a42.024,42.024,0,0,0,29.716-12.309L188.866,0Z" transform="matrix(0.998, -0.07, 0.07, 0.998, 23.012, 69.985)" fill="#fde2e2"/></g><g transform="translate(810 6600.912)"><g transform="translate(1.914 43.196)"><g transform="translate(69.039 13.339)"><path d="M332.372,126.254h-54.4v35.538h7.455a1.287,1.287,0,0,1,1.287,1.287v28.3l3.473-3.464a10.964,10.964,0,0,1,15.484,0l17.909,17.86h8.787V126.254Z" transform="translate(-277.976 -119.818)" fill="#0593fc"/><path d="M277.976,126.254h7.138v35.538h-7.138Z" transform="translate(-277.976 -119.818)" fill="#0182fc"/><path d="M334.509,101.041H277.976v6.436H334.51a1.287,1.287,0,0,0,1.287-1.287v-3.861A1.287,1.287,0,0,0,334.509,101.041Z" transform="translate(-277.976 -101.041)" fill="#0182fc"/><path d="M284.9,106.189v-3.861a1.287,1.287,0,0,1,1.287-1.287h-8.212v6.436h8.212A1.287,1.287,0,0,1,284.9,106.189Z" transform="translate(-277.976 -101.04)" fill="#0172fb"/><g transform="translate(45.663 86.011)"><path d="M467.74,438.005H456.869l6.454,6.436h4.417a1.287,1.287,0,0,0,1.287-1.287v-3.861A1.287,1.287,0,0,0,467.74,438.005Z" transform="translate(-456.869 -438.005)" fill="#0182fc"/></g></g><path d="M20.918,72.995v93.424H44.8v-43a1.287,1.287,0,0,1,1.287-1.287H86.532V72.995Z" transform="translate(-17.493 -66.814)" fill="#fed402"/><path d="M20.918,74h9.2v93.169h-9.2Z" transform="translate(-17.493 -67.559)" fill="#fac600"/><g transform="translate(0 0)"><path d="M78.677,48.782H8.787A1.287,1.287,0,0,0,7.5,50.069v3.861a1.287,1.287,0,0,0,1.287,1.287h69.89a1.287,1.287,0,0,0,1.287-1.287V50.069a1.287,1.287,0,0,0-1.287-1.287Z" transform="translate(-7.5 -48.782)" fill="#fac600"/></g><path d="M18.348,53.93V50.068a1.287,1.287,0,0,1,1.287-1.287H8.787A1.287,1.287,0,0,0,7.5,50.068V53.93a1.287,1.287,0,0,0,1.287,1.287H19.635A1.287,1.287,0,0,1,18.348,53.93Z" transform="translate(-7.5 -48.781)" fill="#e8b800"/><g transform="translate(0 99.35)"><path d="M8.787,438.005A1.287,1.287,0,0,0,7.5,439.292v3.861a1.287,1.287,0,0,0,1.287,1.287H34.809v-6.436H8.787Z" transform="translate(-7.5 -438.005)" fill="#fac600"/></g><g transform="translate(0 99.35)"><path d="M18.348,443.153v-3.861A1.287,1.287,0,0,1,19.635,438H8.787A1.287,1.287,0,0,0,7.5,439.291v3.861a1.287,1.287,0,0,0,1.287,1.287H19.635A1.287,1.287,0,0,1,18.348,443.153Z" transform="translate(-7.5 -438.004)" fill="#e8b800"/></g><g transform="translate(27.309 55.313)"><path d="M164.962,266.768a1.287,1.287,0,0,0-1.287-1.287h-47.9a1.287,1.287,0,0,0-1.287,1.287v49.185h29.529l20.943-20.885v-28.3Z" transform="translate(-114.489 -265.481)" fill="#ffbd86"/><g transform="translate(0)"><path d="M124.4,265.481h-8.621a1.287,1.287,0,0,0-1.287,1.287v49.185h8.621V266.768A1.287,1.287,0,0,1,124.4,265.481Z" transform="translate(-114.49 -265.481)" fill="#f6a96c"/></g><g transform="translate(20.91)"><path d="M204.288,277.739H197.18a.772.772,0,0,1-.772-.772V265.481h8.652v11.485A.772.772,0,0,1,204.288,277.739Z" transform="translate(-196.408 -265.481)" fill="#fe646f"/></g><g transform="translate(20.91)"><path d="M200.67,276.966V265.481h-4.261v11.485a.772.772,0,0,0,.772.772h4.261A.772.772,0,0,1,200.67,276.966Z" transform="translate(-196.409 -265.481)" fill="#fd4755"/></g><g transform="translate(6.517 30.961)"><path d="M152.226,399.756H140.792a.772.772,0,0,1-.772-.772V387.549a.772.772,0,0,1,.772-.772h11.434a.772.772,0,0,1,.772.772v11.434A.772.772,0,0,1,152.226,399.756Z" transform="translate(-140.02 -386.777)" fill="#fff"/></g><g transform="translate(6.517 30.961)"><path d="M146.434,398.984V387.55a.772.772,0,0,1,.772-.772h-6.415a.772.772,0,0,0-.772.772v11.434a.772.772,0,0,0,.772.772h6.415A.772.772,0,0,1,146.434,398.984Z" transform="translate(-140.019 -386.778)" fill="#f3f0f3"/></g><g transform="translate(29.529 22.923)"><path d="M254.594,358.486l-24.417,24.349h64.317l-24.417-24.349A10.964,10.964,0,0,0,254.594,358.486Z" transform="translate(-230.177 -355.286)" fill="#7a6d79"/></g><g transform="translate(29.529 22.924)"><path d="M267.29,356.474a10.967,10.967,0,0,0-12.7,2.017L230.177,382.84h9.91L264.5,358.491A10.954,10.954,0,0,1,267.29,356.474Z" transform="translate(-230.177 -355.292)" fill="#685e68"/></g></g></g><g transform="translate(0 41.282)"><path d="M146.641,379.278H135.207a2.69,2.69,0,0,0-2.687,2.687V393.4a2.69,2.69,0,0,0,2.687,2.687h11.434a2.69,2.69,0,0,0,2.687-2.687V381.965A2.689,2.689,0,0,0,146.641,379.278ZM145.5,392.257h-9.15v-9.15h9.15v9.15Z" transform="translate(-98.694 -293.004)"/><path d="M125.349,71.968a1.914,1.914,0,0,0,1.914-1.914V64.886h.223a3.2,3.2,0,0,0,3.2-3.2V57.823a3.2,3.2,0,0,0-3.2-3.2H72.868V51.546h.223a3.205,3.205,0,0,0,3.2-3.2V44.483a3.2,3.2,0,0,0-3.2-3.2H3.2a3.2,3.2,0,0,0-3.2,3.2v3.861a3.205,3.205,0,0,0,3.2,3.2h.223V73.882H3.394a1.914,1.914,0,0,0,0,3.829h.031v28.978H3.394a1.914,1.914,0,1,0,0,3.829h.031v30.113H3.2a3.206,3.206,0,0,0-3.2,3.2v3.861a3.205,3.205,0,0,0,3.2,3.2H93.422a1.914,1.914,0,0,0,0-3.829H63.384l21.138-21.079a9.065,9.065,0,0,1,12.78,0l21.138,21.079H102.356a1.914,1.914,0,0,0,0,3.829h25.132a3.205,3.205,0,0,0,3.2-3.2v-3.861a3.2,3.2,0,0,0-3.2-3.2h-.223V115.455h.031a1.914,1.914,0,1,0,0-3.829h-.031v-24.2h.031a1.914,1.914,0,1,0,0-3.829h-.031V78.987a1.914,1.914,0,1,0-3.829,0V83.6H72.868V77.711H72.9a1.914,1.914,0,1,0,0-3.829h-.031v-9h50.567v5.168a1.914,1.914,0,0,0,1.914,1.914ZM17.357,51.546a1.914,1.914,0,0,0,0-3.829H3.829V45.111H72.464v2.607H26.291a1.914,1.914,0,0,0,0,3.829H69.039V73.882H7.254V51.546Zm9.952,95.521H3.829V144.46H27.309Zm0-6.436H7.254V110.518H27.309Zm0-40.835v6.893H7.254V77.711H69.039V96.594H30.511a3.205,3.205,0,0,0-3.2,3.2Zm24.739.627h4.824v8.429H52.048ZM77.782,127.3l-19.82,19.766H31.138V100.423H48.219v9.571a2.69,2.69,0,0,0,2.687,2.687h7.108a2.69,2.69,0,0,0,2.687-2.687v-9.571H77.782V127.3Zm39.626,13.33-17.4-17.355a12.9,12.9,0,0,0-18.187,0l-.207.207v-8.029h41.824v25.177h-6.027Zm9.452,3.829v2.607h-3l-2.614-2.607Zm-3.425-57.034v24.2H81.611V99.8a3.205,3.205,0,0,0-3.2-3.2H72.868V87.426ZM72.868,61.057V58.45H126.86v2.607Z" transform="translate(0 -41.282)"/><path d="M366.931,389.783h-1.544a1.914,1.914,0,1,0,0,3.829h1.544a1.914,1.914,0,1,0,0-3.829Z" transform="translate(-270.695 -300.828)"/><path d="M340.173,415a1.914,1.914,0,1,0,0,3.829h1.544a1.914,1.914,0,1,0,0-3.829Z" transform="translate(-251.918 -319.605)"/><path d="M395.642,429.92h1.545a1.914,1.914,0,0,0,0-3.829h-1.545a1.914,1.914,0,0,0,0,3.829Z" transform="translate(-293.229 -327.868)"/></g></g></g></g></svg>