<svg xmlns="http://www.w3.org/2000/svg" xmlns:xlink="http://www.w3.org/1999/xlink" width="505" height="322.168" viewBox="0 0 505 322.168"><defs><clipPath id="a"><rect width="505" height="322.169" fill="none"/></clipPath><clipPath id="c"><rect width="25.016" height="71.078" fill="none"/></clipPath><clipPath id="d"><rect width="52.116" height="4.58" fill="none"/></clipPath><clipPath id="e"><rect width="28.029" height="17.431" fill="none"/></clipPath><clipPath id="f"><rect width="2.488" height="2.427" fill="none"/></clipPath><clipPath id="g"><rect width="27.873" height="18.203" fill="none"/></clipPath><clipPath id="h"><rect width="2.492" height="2.481" fill="none"/></clipPath><clipPath id="i"><rect width="31.799" height="2.263" fill="none"/></clipPath><clipPath id="j"><rect width="80.049" height="78.677" fill="none"/></clipPath><clipPath id="k"><rect width="62.251" height="58.861" fill="none"/></clipPath><clipPath id="l"><rect width="15.958" height="15.959" fill="none"/></clipPath><clipPath id="m"><rect width="8.334" height="27.217" fill="none"/></clipPath><clipPath id="n"><rect width="2.569" height="2.66" fill="none"/></clipPath><clipPath id="o"><rect width="22.37" height="1.63" fill="none"/></clipPath><clipPath id="p"><rect width="3.204" height="30.524" fill="none"/></clipPath><clipPath id="q"><rect width="25.74" height="6.158" fill="none"/></clipPath><clipPath id="r"><rect width="13.966" height="23.354" fill="none"/></clipPath></defs><g transform="translate(-915 -25353.621)"><g transform="translate(915 25353.621)"><g clip-path="url(#a)"><rect width="81.562" height="62.907" transform="translate(45.856 256.257)" fill="#ebebeb"/><g clip-path="url(#a)"><path d="M148.945,419.317c-.089,0-.162-14.022-.162-31.315s.073-31.318.162-31.318.162,14.019.162,31.318-.073,31.315-.162,31.315" transform="translate(-41.962 -100.597)" fill="#e0e0e0"/><rect width="6.253" height="7.068" transform="translate(114.249 304.846)" fill="#fafafa"/><rect width="9.265" height="13.423" transform="translate(70.738 256.419)" fill="#e0e0e0"/><rect width="9.265" height="13.423" transform="translate(70.738 305.554)" fill="#e0e0e0"/><rect width="28.504" height="7.541" transform="translate(363.056 0)" fill="#f5f5f5"/><path d="M517.333,18.542a.923.923,0,0,1-.009-.137c0-.1-.006-.228-.009-.386q-.008-.533-.022-1.485c-.011-1.3-.028-3.173-.049-5.533l.088.088-28.5.057c.064-.065-.146.145.144-.144h0v.965q0,.482,0,.962v1.9q0,1.888,0,3.709l-.141-.142,20.312.065,6,.04,1.621.019.424.009a1.021,1.021,0,0,1,.15.009.722.722,0,0,1-.132.009l-.406.009-1.591.019-5.963.041-20.411.065h-.142v-.142q0-1.819,0-3.709,0-.944,0-1.9V11h0c.291-.291.082-.081.147-.146l28.5.057h.089V11c-.021,2.382-.037,4.271-.049,5.586q-.014.938-.022,1.464c0,.152-.006.274-.009.371a.567.567,0,0,1-.009.12" transform="translate(-137.826 -3.058)" fill="#e0e0e0"/><rect width="28.503" height="7.541" transform="translate(414.264 272.993)" fill="#f5f5f5"/><path d="M588.655,398.772a.933.933,0,0,1-.009-.137c0-.1-.006-.228-.009-.387q-.008-.532-.022-1.483c-.011-1.3-.028-3.173-.049-5.533l.088.088-28.5.057c.064-.065-.146.144.144-.145h0v1.927q0,.958,0,1.9,0,1.888,0,3.709l-.141-.142,20.312.065,6,.041,1.621.018.424.009a1.165,1.165,0,0,1,.15.009.722.722,0,0,1-.132.009l-.406.009-1.591.019-5.963.041-20.411.065h-.142v-.142q0-1.819,0-3.709v-1.9q0-.48,0-.962v-.965h0c.291-.291.082-.081.147-.146l28.5.057h.089v.088c-.021,2.382-.037,4.271-.049,5.586q-.014.938-.021,1.464c0,.152-.007.274-.009.371a.563.563,0,0,1-.009.12" transform="translate(-157.941 -110.296)" fill="#e0e0e0"/><path d="M82.934,45.014a28.22,28.22,0,1,1-28.22-28.22,28.219,28.219,0,0,1,28.22,28.22" transform="translate(-7.473 -4.736)" fill="#f5f5f5"/><path d="M30.295,44.263A25.689,25.689,0,1,1,54.246,71.58,25.689,25.689,0,0,1,30.295,44.263" transform="translate(-8.528 -5.713)" fill="#fff"/><path d="M77.709,50.731a5.176,5.176,0,0,1-.908.06l-2.5.05c-2.119.029-5.07.05-8.4.055h-.165v-.165c0-.533,0-1.1,0-1.666,0-3.722.019-7.09.049-9.528.022-1.176.039-2.149.053-2.888a6.506,6.506,0,0,1,.065-1.059,6.508,6.508,0,0,1,.065,1.059c.014.739.032,1.712.052,2.888.03,2.438.049,5.806.049,9.528,0,.57,0,1.132,0,1.666l-.165-.165c3.332.005,6.284.025,8.4.055l2.5.05a5.176,5.176,0,0,1,.908.06" transform="translate(-18.54 -10.038)" fill="#e0e0e0"/><path d="M66.011,25.675a7.148,7.148,0,0,1,.166,2.157,7.151,7.151,0,0,1-.166,2.158,7.151,7.151,0,0,1-.166-2.158,7.148,7.148,0,0,1,.166-2.157" transform="translate(-18.571 -7.241)" fill="#e0e0e0"/><path d="M81.2,30.5a6.923,6.923,0,0,1-1.386,1.622,6.944,6.944,0,0,1-1.622,1.386,6.959,6.959,0,0,1,1.387-1.622A6.949,6.949,0,0,1,81.2,30.5" transform="translate(-22.051 -8.601)" fill="#e0e0e0"/><path d="M90.483,40.912a8.939,8.939,0,0,1-1.77,1.182,8.943,8.943,0,0,1-1.865,1.027,9.465,9.465,0,0,1,3.634-2.208" transform="translate(-24.494 -11.535)" fill="#e0e0e0"/><path d="M95.187,56.3a13.146,13.146,0,0,1-2.942.167A13.15,13.15,0,0,1,89.3,56.3a13.15,13.15,0,0,1,2.943-.167,13.146,13.146,0,0,1,2.942.167" transform="translate(-25.186 -15.833)" fill="#e0e0e0"/><path d="M38.482,55.757a11.744,11.744,0,0,1-2.779.167,11.744,11.744,0,0,1-2.779-.167A11.744,11.744,0,0,1,35.7,55.59a11.744,11.744,0,0,1,2.779.167" transform="translate(-9.286 -15.678)" fill="#e0e0e0"/><path d="M42.952,67.325a12.187,12.187,0,0,1-2.1,1.9,12.2,12.2,0,0,1-2.308,1.646,12.239,12.239,0,0,1,2.1-1.905,12.219,12.219,0,0,1,2.308-1.646" transform="translate(-10.87 -18.987)" fill="#e0e0e0"/><path d="M53.44,76.223A18.9,18.9,0,0,1,52.011,78.7a18.925,18.925,0,0,1-1.516,2.425,9.335,9.335,0,0,1,1.231-2.6,9.331,9.331,0,0,1,1.715-2.306" transform="translate(-14.239 -21.497)" fill="#e0e0e0"/><path d="M66.011,85.388a13.173,13.173,0,0,1-.166-2.942,13.177,13.177,0,0,1,.166-2.943,13.177,13.177,0,0,1,.166,2.943,13.173,13.173,0,0,1-.166,2.942" transform="translate(-18.571 -22.423)" fill="#e0e0e0"/><path d="M82.011,80.73a12.675,12.675,0,0,1-4.4-3.839,27.083,27.083,0,0,1,2.2,1.926,27.1,27.1,0,0,1,2.208,1.913" transform="translate(-21.887 -21.685)" fill="#e0e0e0"/><path d="M90.594,71.869a10.244,10.244,0,0,1-1.949-1.713,10.173,10.173,0,0,1-1.713-1.949A10.242,10.242,0,0,1,88.88,69.92a10.234,10.234,0,0,1,1.714,1.949" transform="translate(-24.517 -19.236)" fill="#e0e0e0"/><path d="M43.049,43.541a7.85,7.85,0,0,1-1.72-1.484,7.885,7.885,0,0,1-1.485-1.72,7.866,7.866,0,0,1,1.72,1.485,7.866,7.866,0,0,1,1.485,1.72" transform="translate(-11.236 -11.375)" fill="#e0e0e0"/><path d="M53.3,32.791a7.564,7.564,0,0,1-1.69-1.448,7.568,7.568,0,0,1-1.456-1.684,7.552,7.552,0,0,1,1.691,1.448A7.558,7.558,0,0,1,53.3,32.791" transform="translate(-14.145 -8.364)" fill="#e0e0e0"/><path d="M33.168,46.022a25.537,25.537,0,0,1,24.02-25.489c-.5-.029-1.008-.049-1.518-.049a25.538,25.538,0,0,0,0,51.075c.51,0,1.016-.019,1.518-.049a25.535,25.535,0,0,1-24.02-25.488" transform="translate(-8.498 -5.777)" fill="#ebebeb"/><path d="M30.288,44.222s.008.141.009.417,0,.691,0,1.222q0,.4-.007.9c.013.331.059.691.091,1.082s.074.811.115,1.261a14.111,14.111,0,0,0,.242,1.42,24.482,24.482,0,0,0,2.39,6.99,25.527,25.527,0,0,0,6.018,7.673l1.05.895c.371.28.764.54,1.152.815s.768.573,1.2.8l1.283.723.653.364.691.3,1.4.617c.477.193.981.331,1.477.5a13.062,13.062,0,0,0,1.521.452,23.832,23.832,0,0,0,3.2.585c.549.055,1.1.145,1.659.174l1.694.024c.284,0,.57.019.856,0l.859-.075c.574-.057,1.155-.085,1.734-.166a27.06,27.06,0,0,0,3.466-.775l.866-.255c.144-.044.291-.082.434-.131l.422-.171,1.7-.686c.558-.257,1.1-.563,1.65-.844.272-.15.56-.274.821-.446l.788-.513a28.771,28.771,0,0,0,3.054-2.268l1.39-1.342.349-.338.319-.368.635-.742.638-.746.569-.8.568-.811.285-.407c.087-.141.164-.288.248-.431l.984-1.741.816-1.842a27.285,27.285,0,0,0,1.844-7.956,27.3,27.3,0,0,0-.785-8.132q-.285-.971-.568-1.934-.375-.932-.747-1.855l-.189-.461-.229-.44-.457-.878-.458-.873-.535-.824-.533-.82-.267-.406-.3-.381-1.2-1.513a28.665,28.665,0,0,0-2.731-2.649l-.714-.612c-.236-.205-.505-.365-.756-.55-.512-.351-1.007-.725-1.526-1.053l-1.6-.9-.4-.224c-.135-.067-.276-.124-.413-.187l-.826-.366A27.041,27.041,0,0,0,62.846,21.3c-.564-.156-1.137-.26-1.7-.391l-.842-.187c-.281-.056-.567-.073-.849-.111l-1.682-.2c-.559-.045-1.116-.028-1.668-.045a23.826,23.826,0,0,0-3.25.162,13.025,13.025,0,0,0-1.567.248c-.514.1-1.032.174-1.53.3l-1.47.429-.725.212L46.869,22,45.5,22.55c-.455.172-.865.431-1.292.638-.42.223-.844.429-1.249.658L41.8,24.6a25.528,25.528,0,0,0-6.969,6.82,24.486,24.486,0,0,0-3.283,6.617,14.043,14.043,0,0,0-.426,1.376q-.149.66-.279,1.236c-.083.383-.176.734-.232,1.06q-.06.492-.111.893-.1.789-.156,1.211c-.037.274-.062.413-.062.413s.006-.141.034-.415.072-.688.128-1.217q.043-.4.1-.9c.052-.327.141-.681.219-1.066s.172-.8.267-1.242A13.824,13.824,0,0,1,31.447,38,24.37,24.37,0,0,1,34.7,31.325a25.6,25.6,0,0,1,6.989-6.9l1.165-.76c.406-.233.834-.442,1.256-.667s.842-.473,1.3-.648l1.376-.557.7-.28.73-.215,1.483-.437c.5-.132,1.025-.2,1.543-.311a13.139,13.139,0,0,1,1.581-.255,24.042,24.042,0,0,1,3.281-.171c.556.016,1.12,0,1.683.042l1.7.2c.284.038.574.055.857.111l.851.187c.567.131,1.147.236,1.715.393a27.243,27.243,0,0,1,3.372,1.228l.835.368c.139.063.281.121.418.188l.4.226,1.614.911c.525.33,1.025.706,1.543,1.061.253.186.526.348.765.555l.722.617a29.012,29.012,0,0,1,2.763,2.674l1.217,1.528.306.385.271.411.539.829.541.831.464.882.463.887.232.445.191.465.757,1.876.575,1.956a27.567,27.567,0,0,1,.8,8.222,27.527,27.527,0,0,1-1.865,8.045l-.826,1.863-1,1.76c-.084.145-.163.294-.251.436l-.288.411-.575.819-.575.813-.645.754-.643.75-.322.372-.354.341-1.406,1.356a29.036,29.036,0,0,1-3.089,2.29l-.8.517c-.263.174-.555.3-.83.45-.56.284-1.1.592-1.669.851l-1.718.692-.426.171c-.145.05-.293.088-.439.132l-.876.256a27.36,27.36,0,0,1-3.5.777c-.584.08-1.172.108-1.752.164l-.868.074c-.289.018-.577,0-.864,0l-1.709-.028c-.565-.029-1.121-.121-1.674-.178a23.977,23.977,0,0,1-3.23-.6,13.086,13.086,0,0,1-1.534-.459c-.5-.173-1.008-.314-1.489-.51l-1.412-.628-.7-.309-.658-.369-1.292-.733c-.431-.233-.806-.547-1.2-.812s-.785-.542-1.159-.826l-1.055-.905a25.609,25.609,0,0,1-6.028-7.753,24.385,24.385,0,0,1-2.356-7.043,13.914,13.914,0,0,1-.23-1.428q-.054-.677-.1-1.267c-.028-.392-.07-.754-.078-1.086q.011-.5.02-.9.022-.8.033-1.223c.009-.275.021-.416.021-.416" transform="translate(-8.521 -5.672)" fill="#e0e0e0"/><path d="M686.593,71.673a.929.929,0,0,1-.009-.137c0-.1-.006-.228-.009-.387q-.008-.532-.022-1.484c-.012-1.3-.028-3.173-.049-5.533l.088.088-28.5.057c.064-.065-.146.144.144-.145h0v1.927q0,.958,0,1.9,0,1.888,0,3.709l-.141-.142L678.4,71.6l6,.041,1.621.019.424.009a1.02,1.02,0,0,1,.15.009.642.642,0,0,1-.132.009l-.406.009-1.591.018-5.963.041-20.411.065h-.142v-.143q0-1.819,0-3.709v-1.9q0-.479,0-.962v-.965h0c.291-.291.082-.081.147-.146l28.5.057h.089v.088c-.021,2.382-.037,4.271-.049,5.586q-.014.938-.021,1.464c0,.152-.006.274-.009.371a.563.563,0,0,1-.009.12" transform="translate(-185.563 -18.043)" fill="#e0e0e0"/><path d="M696.444,61.163a.825.825,0,0,1-.011-.144c0-.108-.007-.239-.012-.4q-.01-.557-.026-1.512c-.014-1.322-.033-3.19-.057-5.486l.1.1-17.125.041c-.131.129.175-.177.144-.145v.986q0,.492,0,.978,0,.972,0,1.92c0,1.261,0,2.484-.005,3.656l-.138-.139,12.251.066,3.569.038.962.017a2.88,2.88,0,0,1,.344.017,1.976,1.976,0,0,1-.311.017l-.933.017-3.537.038-12.344.066h-.139v-.139c0-1.172,0-2.4-.005-3.656q0-.947,0-1.92,0-.486,0-.978v-.986c-.032.031.276-.276.146-.146l17.125.041h.106v.1c-.024,2.323-.042,4.212-.056,5.549q-.016.94-.026,1.488a4.3,4.3,0,0,1-.022.5" transform="translate(-191.55 -15.073)" fill="#e0e0e0"/><path d="M662.307,279.8a.923.923,0,0,1-.009-.137c0-.1-.006-.228-.009-.387q-.008-.532-.022-1.484c-.011-1.3-.028-3.173-.049-5.533l.088.088-28.5.057c.064-.065-.146.144.144-.146v1.929q0,.958,0,1.9,0,1.888,0,3.709l-.141-.142,20.312.065,6,.04,1.621.019.424.009a1.021,1.021,0,0,1,.15.009.643.643,0,0,1-.132.009l-.406.009-1.591.018-5.963.041-20.411.065h-.142V279.8q0-1.819,0-3.709,0-.944,0-1.9v-1.929c.291-.29.082-.08.147-.145l28.5.057h.089v.088c-.021,2.382-.037,4.271-.049,5.586q-.014.938-.022,1.464c0,.152-.006.274-.009.371a.567.567,0,0,1-.009.12" transform="translate(-178.714 -76.741)" fill="#e0e0e0"/><path d="M672.158,269.287a.841.841,0,0,1-.011-.144c0-.108-.007-.239-.011-.4q-.01-.557-.026-1.512c-.014-1.322-.033-3.19-.057-5.486l.1.1-17.125.041c-.131.129.175-.177.144-.145v.986q0,.492,0,.978,0,.972,0,1.92c0,1.261,0,2.484,0,3.656l-.138-.139,12.251.066,3.569.038.962.017a2.87,2.87,0,0,1,.344.017,1.979,1.979,0,0,1-.311.017l-.933.017-3.537.038-12.344.066h-.139v-.139c0-1.172,0-2.4-.005-3.656q0-.947,0-1.92,0-.486,0-.978v-.986c-.032.031.276-.276.146-.146l17.125.041h.106v.1c-.023,2.323-.042,4.212-.056,5.549q-.016.94-.026,1.488a4.317,4.317,0,0,1-.022.5" transform="translate(-184.7 -73.772)" fill="#e0e0e0"/><rect width="77.873" height="123.066" transform="translate(398.836 20.141)" fill="#e0e0e0"/><rect width="73.411" height="118.731" transform="translate(400.934 22.453)" fill="#f5f5f5"/><rect width="29.272" height="45.423" transform="translate(437.64 29.369)" fill="#fff"/><path d="M631.251,46.071a1.093,1.093,0,1,1-1.093-1.093,1.092,1.092,0,0,1,1.093,1.093" transform="translate(-177.419 -12.685)" fill="#e0e0e0"/><rect width="29.273" height="45.423" transform="translate(408.139 87.434)" fill="#fff"/><path d="M590.162,126.944a1.093,1.093,0,1,1-1.093-1.093,1.093,1.093,0,0,1,1.093,1.093" transform="translate(-165.83 -35.494)" fill="#e0e0e0"/><rect width="25" height="35.47" transform="translate(407.742 29.369)" fill="#fff"/><path d="M585.875,45.037a.908.908,0,1,1-.908-.908.908.908,0,0,1,.908.908" transform="translate(-164.725 -12.446)" fill="#e0e0e0"/><rect width="26.906" height="14.907" transform="translate(441.138 91.075) rotate(-6.436)" fill="#fff"/><path d="M634.051,128.3a.926.926,0,1,1-.925-.925.925.925,0,0,1,.925.925" transform="translate(-178.302 -35.924)" fill="#e0e0e0"/><path d="M595.732,136.125c0,.121-4.6.218-10.265.218s-10.267-.1-10.267-.218,4.6-.218,10.267-.218,10.265.1,10.265.218" transform="translate(-162.227 -38.331)" fill="#e0e0e0"/><path d="M595.732,140.651c0,.121-4.6.218-10.265.218s-10.267-.1-10.267-.218,4.6-.218,10.267-.218,10.265.1,10.265.218" transform="translate(-162.227 -39.607)" fill="#e0e0e0"/><path d="M595.732,145.178c0,.121-4.6.218-10.265.218s-10.267-.1-10.267-.218,4.6-.218,10.267-.218,10.265.1,10.265.218" transform="translate(-162.227 -40.884)" fill="#e0e0e0"/><path d="M595.732,149.7c0,.121-4.6.218-10.265.218s-10.267-.1-10.267-.218,4.6-.218,10.267-.218,10.265.1,10.265.218" transform="translate(-162.227 -42.16)" fill="#e0e0e0"/><path d="M595.732,154.231c0,.121-4.6.219-10.265.219s-10.267-.1-10.267-.219,4.6-.218,10.267-.218,10.265.1,10.265.218" transform="translate(-162.227 -43.437)" fill="#e0e0e0"/><path d="M595.732,158.757c0,.121-4.6.218-10.265.218s-10.267-.1-10.267-.218,4.6-.218,10.267-.218,10.265.1,10.265.218" transform="translate(-162.227 -44.714)" fill="#e0e0e0"/><path d="M595.732,163.284c0,.121-4.6.218-10.265.218s-10.267-.1-10.267-.218,4.6-.218,10.267-.218,10.265.1,10.265.218" transform="translate(-162.227 -45.99)" fill="#e0e0e0"/><path d="M640.191,131.356c.017.119-4.521.859-10.134,1.651s-10.18,1.338-10.2,1.218,4.52-.858,10.135-1.651,10.179-1.338,10.2-1.218" transform="translate(-174.822 -37.042)" fill="#e0e0e0"/><path d="M640.759,134.187c.017.119-4.521.858-10.134,1.651s-10.18,1.338-10.2,1.218,4.52-.858,10.136-1.651,10.179-1.338,10.2-1.218" transform="translate(-174.982 -37.841)" fill="#e0e0e0"/><path d="M641.279,136.8c.017.119-4.521.859-10.134,1.651s-10.18,1.338-10.2,1.218,4.52-.858,10.135-1.651,10.179-1.338,10.2-1.218" transform="translate(-175.129 -38.578)" fill="#e0e0e0"/><path d="M637.63,54.055c0,.121-5.193.218-11.6.218s-11.6-.1-11.6-.218,5.192-.218,11.6-.218,11.6.1,11.6.218" transform="translate(-173.292 -15.184)" fill="#e0e0e0"/><path d="M637.63,56.747c0,.121-5.193.218-11.6.218s-11.6-.1-11.6-.218,5.192-.218,11.6-.218,11.6.1,11.6.218" transform="translate(-173.292 -15.943)" fill="#e0e0e0"/><path d="M637.63,59.438c0,.121-5.193.218-11.6.218s-11.6-.1-11.6-.218,5.192-.218,11.6-.218,11.6.1,11.6.218" transform="translate(-173.292 -16.702)" fill="#e0e0e0"/><path d="M637.63,62.129c0,.121-5.193.218-11.6.218s-11.6-.1-11.6-.218,5.192-.218,11.6-.218,11.6.1,11.6.218" transform="translate(-173.292 -17.461)" fill="#e0e0e0"/><path d="M637.63,64.821c0,.121-5.193.218-11.6.218s-11.6-.1-11.6-.218,5.192-.218,11.6-.218,11.6.1,11.6.218" transform="translate(-173.292 -18.22)" fill="#e0e0e0"/><path d="M637.63,67.512c0,.121-5.193.218-11.6.218s-11.6-.1-11.6-.218,5.192-.218,11.6-.218,11.6.1,11.6.218" transform="translate(-173.292 -18.979)" fill="#e0e0e0"/><path d="M637.63,70.2c0,.121-5.193.218-11.6.218s-11.6-.1-11.6-.218,5.192-.218,11.6-.218,11.6.1,11.6.218" transform="translate(-173.292 -19.738)" fill="#e0e0e0"/><path d="M637.63,78.191c0,.121-5.193.218-11.6.218s-11.6-.1-11.6-.218,5.192-.218,11.6-.218,11.6.1,11.6.218" transform="translate(-173.292 -21.991)" fill="#e0e0e0"/><path d="M637.857,81.034c0,.121-5.193.218-11.6.218s-11.6-.1-11.6-.218,5.192-.218,11.6-.218,11.6.1,11.6.218" transform="translate(-173.356 -22.793)" fill="#e0e0e0"/><path d="M638.085,83.876c0,.121-5.193.218-11.6.218s-11.6-.1-11.6-.218,5.192-.218,11.6-.218,11.6.1,11.6.218" transform="translate(-173.42 -23.594)" fill="#e0e0e0"/><path d="M638.312,86.719c0,.121-5.193.218-11.6.218s-11.6-.1-11.6-.218,5.192-.218,11.6-.218,11.6.1,11.6.218" transform="translate(-173.484 -24.396)" fill="#e0e0e0"/><path d="M638.539,89.562c0,.121-5.193.218-11.6.218s-11.6-.1-11.6-.218,5.192-.218,11.6-.218,11.6.1,11.6.218" transform="translate(-173.548 -25.198)" fill="#e0e0e0"/><path d="M638.767,92.4c0,.121-5.193.218-11.6.218s-11.6-.1-11.6-.218,5.192-.218,11.6-.218,11.6.1,11.6.218" transform="translate(-173.613 -26)" fill="#e0e0e0"/><rect width="28.504" height="7.541" transform="translate(35.475 108.115)" fill="#f5f5f5"/><path d="M61.07,169.126a.934.934,0,0,1-.009-.137c0-.1-.006-.228-.009-.387q-.008-.532-.022-1.484l-.049-5.533.088.088-28.5.057c.064-.065-.146.145.144-.145v.967q0,.482,0,.962v1.9q0,1.888,0,3.709l-.141-.142,20.312.065,6,.04,1.621.019.424.009a.91.91,0,0,1,.15.009.719.719,0,0,1-.132.009l-.406.009-1.591.019-5.963.041-20.411.065h-.142v-.142q0-1.819,0-3.709,0-.944,0-1.9v-1.929c.291-.29.082-.08.147-.145l28.5.057h.089v.088l-.049,5.586q-.014.938-.022,1.464c0,.152-.006.274-.009.371a.565.565,0,0,1-.009.12" transform="translate(-9.144 -45.528)" fill="#e0e0e0"/><path d="M65.479,256.573a.921.921,0,0,1-.009-.137c0-.1-.006-.228-.009-.387q-.008-.532-.022-1.483l-.049-5.533.088.088-28.5.057c.064-.065-.146.144.144-.145h0v1.927q0,.958,0,1.9,0,1.888,0,3.709l-.141-.142,20.312.065,6,.041,1.621.019.424.009a1.165,1.165,0,0,1,.15.009.641.641,0,0,1-.132.009l-.406.009-1.59.018-5.963.041-20.411.065h-.142v-.143q0-1.819,0-3.709,0-.943,0-1.9v-1.927h0c.291-.291.082-.081.147-.146l28.5.057h.089v.088l-.049,5.586q-.014.938-.022,1.464c0,.152-.006.274-.009.371a.566.566,0,0,1-.009.12" transform="translate(-10.387 -70.191)" fill="#e0e0e0"/><path d="M75.33,246.062a.839.839,0,0,1-.011-.144c0-.108-.007-.239-.011-.4q-.01-.557-.026-1.512c-.014-1.322-.033-3.19-.057-5.486l.1.1-17.125.041c-.131.129.175-.177.144-.145v.986q0,.492,0,.978,0,.972,0,1.92c0,1.261,0,2.484-.005,3.656l-.138-.139,12.251.066,3.569.038.962.017a2.88,2.88,0,0,1,.344.017,1.974,1.974,0,0,1-.311.017l-.933.017-3.537.038L58.2,246.2h-.139v-.139c0-1.172,0-2.4-.005-3.656q0-.947,0-1.92,0-.486,0-.978v-.986c-.032.031.276-.276.146-.146l17.125.041h.106v.1c-.023,2.323-.042,4.212-.056,5.549q-.016.94-.026,1.488a4.3,4.3,0,0,1-.022.5" transform="translate(-16.374 -67.221)" fill="#e0e0e0"/><path d="M499.1,446.173c0,.1-111.735.187-249.536.187-137.849,0-249.56-.083-249.56-.187s111.711-.187,249.56-.187c137.8,0,249.536.083,249.536.187" transform="translate(0 -125.784)" fill="#263238"/><path d="M86.375,274.122c-6.439,3.336-11.377,9.079-14.927,15.4s-5.838,13.262-8.105,20.15L61.359,345.2c7.493-12.747,13.506-27.731,15.131-42.427l-4.986-.444c3.344-.51,6.149-2.932,7.935-5.8a35.341,35.341,0,0,0,3.6-9.445l-6.083.9a22.544,22.544,0,0,0,9.418-13.862" transform="translate(-17.305 -77.312)" fill="#455a64"/><g transform="translate(44.054 196.81)" opacity="0.3"><g clip-path="url(#c)"><path d="M86.375,274.122c-6.439,3.336-11.377,9.079-14.927,15.4s-5.838,13.262-8.105,20.15L61.359,345.2c7.493-12.747,13.506-27.731,15.131-42.427l-4.986-.444c3.344-.51,6.149-2.932,7.935-5.8a35.341,35.341,0,0,0,3.6-9.445l-6.083.9a22.544,22.544,0,0,0,9.418-13.862" transform="translate(-61.359 -274.122)"/></g></g><path d="M53.486,352.369S37.224,332.9,37.411,314.322h6.57S36.845,309.63,37.41,307s.752-12.576.752-12.576l6.006,1.5s-4.5-2.252-5.068-5.818,1.314-20.084,1.314-20.084,7.32,7.7,9.573,15.579,8.165,17.08,6.429,41.106-2.929,25.659-2.929,25.659" transform="translate(-10.542 -76.157)" fill="#455a64"/><path d="M71.3,362.532s17.619-11.737,21.533-26.718l-5.281-1.437s6.764-2.211,6.885-4.448,2.147-10.275,2.147-10.275l-5.158-.107s4.115-.825,5.347-3.569,3.338-16.434,3.338-16.434S92.537,304.13,89,309.975,78.7,321.921,74.84,341.616,71.3,362.532,71.3,362.532" transform="translate(-20.106 -84.482)" fill="#455a64"/><path d="M47.794,293.664a.858.858,0,0,1,.062.2c.038.155.085.353.145.6.126.554.3,1.327.523,2.309.228,1,.492,2.231.778,3.664s.63,3.058.961,4.866c.7,3.609,1.437,7.923,2.2,12.724.735,4.8,1.468,10.1,2.119,15.669s1.132,10.9,1.512,15.742c.357,4.848.623,9.217.765,12.89.09,1.836.131,3.5.174,4.957s.072,2.717.079,3.744c.008,1.007.014,1.8.018,2.366,0,.253,0,.456,0,.616a.876.876,0,0,1-.015.21.943.943,0,0,1-.024-.21c-.008-.159-.019-.362-.032-.615-.021-.567-.05-1.358-.088-2.364-.029-1.027-.074-2.282-.142-3.741s-.122-3.118-.229-4.952c-.176-3.669-.47-8.033-.845-12.875-.4-4.841-.9-10.157-1.54-15.726s-1.372-10.856-2.088-15.66c-.74-4.8-1.449-9.115-2.115-12.728-.314-1.809-.635-3.44-.906-4.874s-.51-2.668-.716-3.675c-.192-.988-.345-1.765-.453-2.323-.045-.249-.08-.449-.109-.606a.876.876,0,0,1-.024-.209" transform="translate(-13.479 -82.823)" fill="#263238"/><path d="M43.571,383.476s-14.883-16.886-19.5-27.094l3.488-1.491a9.038,9.038,0,0,1-7.08-2.32,26.788,26.788,0,0,1-4.813-5.96l4.595-.776a17.088,17.088,0,0,1-10.04-7.778c5.422.892,10.329,3.871,14.372,7.594a71.455,71.455,0,0,1,8.708,10.09,34.4,34.4,0,0,1,3.382,5.561c2.5,5.17,6.9,15.973,6.89,22.174" transform="translate(-2.882 -95.344)" fill="#455a64"/><path d="M91.514,313.233a.693.693,0,0,1-.065.174l-.226.492-.9,1.877c-.794,1.623-1.921,3.983-3.285,6.91C84.3,328.539,80.7,336.708,77.143,345.9s-6.382,17.666-8.3,23.835c-.96,3.084-1.714,5.588-2.218,7.323l-.6,1.994-.164.516a.658.658,0,0,1-.068.172.661.661,0,0,1,.032-.182c.034-.139.076-.312.129-.526l.528-2.013c.462-1.748,1.177-4.264,2.105-7.361,1.852-6.193,4.646-14.685,8.2-23.892S84,328.4,86.8,322.572c1.4-2.915,2.56-5.258,3.395-6.862l.964-1.845.258-.475a.692.692,0,0,1,.1-.156" transform="translate(-18.557 -88.343)" fill="#263238"/><path d="M54.149,400.057a7.7,7.7,0,0,1-.23-1.2c-.117-.779-.314-1.9-.59-3.282a68.374,68.374,0,0,0-3.018-10.553A68.341,68.341,0,0,0,45.6,375.1c-.705-1.217-1.3-2.191-1.725-2.852a7.747,7.747,0,0,1-.624-1.056,7.675,7.675,0,0,1,.745.976c.465.638,1.095,1.593,1.832,2.8a60.262,60.262,0,0,1,4.833,9.919,60.267,60.267,0,0,1,2.929,10.637c.243,1.391.4,2.524.475,3.311a7.676,7.676,0,0,1,.086,1.224" transform="translate(-12.198 -104.689)" fill="#263238"/><rect width="32.572" height="6.644" transform="translate(29.017 291.396)" fill="#2c78dc"/><path d="M44.738,415.118l3.523,22.349H67.944l3.284-22.349Z" transform="translate(-12.618 -117.078)" fill="#2c78dc"/><path d="M72.187,415.045c0,.1-6.162.187-13.761.187s-13.763-.083-13.763-.187,6.161-.187,13.763-.187,13.761.083,13.761.187" transform="translate(-12.597 -117.004)" fill="#263238"/><rect width="58.635" height="45.225" transform="translate(296.726 138.635)" fill="#2c78dc"/><rect width="4.495" height="5.082" transform="translate(301.698 173.566)" fill="#fafafa"/><rect width="6.66" height="9.65" transform="translate(330.813 138.752)" fill="#ebebeb"/><rect width="6.66" height="9.649" transform="translate(330.813 174.076)" fill="#ebebeb"/><path d="M433.6,239.065c-.1,0-.187-9.947-.187-22.213s.083-22.216.187-22.216.187,9.945.187,22.216-.083,22.213-.187,22.213" transform="translate(-122.237 -54.894)" fill="#263238"/><rect width="2.877" height="154.077" transform="translate(250.062 14.912)" fill="#263238"/><rect width="2.877" height="158.618" transform="translate(134.522 14.911)" fill="#263238"/><rect width="2.877" height="164.609" transform="translate(361.758 14.912)" fill="#263238"/><rect width="226.911" height="2.877" transform="translate(135.283 14.912)" fill="#263238"/><rect width="226.911" height="2.877" transform="translate(136.607 69.405)" fill="#263238"/><rect width="226.911" height="2.877" transform="translate(135.283 123.899)" fill="#263238"/><rect width="3.685" height="28.564" transform="translate(137.822 40.841)" fill="#2c78dc"/><rect width="3.684" height="28.563" transform="translate(141.316 41.191) rotate(-7.288)" fill="#2c78dc"/><rect width="28.564" height="2.772" transform="translate(148.576 66.633)" fill="#2c78dc"/><rect width="28.564" height="2.772" transform="translate(151.46 61.029)" fill="#2c78dc"/><rect width="28.564" height="2.772" transform="translate(154.229 58.19)" fill="#e0e0e0"/><rect width="39.869" height="2.772" transform="translate(148.576 63.867)" fill="#455a64"/><rect width="58.635" height="45.225" transform="translate(190.713 78.674)" fill="#455a64"/><rect width="4.495" height="5.082" transform="translate(195.685 113.604)" fill="#fafafa"/><rect width="6.66" height="9.65" transform="translate(224.801 78.79)" fill="#ebebeb"/><rect width="6.66" height="9.65" transform="translate(224.801 114.113)" fill="#ebebeb"/><path d="M285.941,155.549c-.1,0-.187-9.947-.187-22.214s.083-22.215.187-22.215.187,9.945.187,22.215-.083,22.214-.187,22.214" transform="translate(-80.593 -31.34)" fill="#263238"/><rect width="58.635" height="45.225" transform="translate(255.783 24.058)" fill="#455a64"/><rect width="4.495" height="5.082" transform="translate(260.755 58.989)" fill="#fafafa"/><rect width="6.661" height="9.65" transform="translate(289.87 24.175)" fill="#ebebeb"/><rect width="6.661" height="9.65" transform="translate(289.87 59.498)" fill="#ebebeb"/><path d="M376.572,79.479c-.1,0-.187-9.947-.187-22.213s.083-22.216.187-22.216.187,9.945.187,22.216-.083,22.213-.187,22.213" transform="translate(-106.154 -9.885)" fill="#263238"/><rect width="42.33" height="45.225" transform="translate(316.923 24.058)" fill="#2c78dc"/><rect width="4.495" height="5.082" transform="translate(321.958 61.938)" fill="#fafafa"/><rect width="6.66" height="9.65" transform="translate(340.465 24.175)" fill="#ebebeb"/><rect width="6.66" height="9.65" transform="translate(340.465 59.498)" fill="#ebebeb"/><path d="M461.4,79.263c-.1,0-.187-9.947-.187-22.214s.083-22.215.187-22.215.186,9.945.186,22.215-.083,22.214-.186,22.214" transform="translate(-130.079 -9.824)" fill="#263238"/><rect width="34.191" height="26.371" transform="translate(257.616 97.566)" fill="#2c78dc"/><rect width="2.621" height="2.963" transform="translate(260.514 117.935)" fill="#fafafa"/><rect width="3.883" height="5.627" transform="translate(277.492 97.635)" fill="#ebebeb"/><rect width="3.883" height="5.627" transform="translate(277.492 118.232)" fill="#ebebeb"/><path d="M370.627,162.7c-.1,0-.187-5.8-.187-12.953s.083-12.954.187-12.954.187,5.8.187,12.954-.083,12.953-.187,12.953" transform="translate(-104.477 -38.58)" fill="#263238"/><rect width="34.191" height="26.371" transform="translate(324.461 97.566)" fill="#2c78dc"/><rect width="2.621" height="2.963" transform="translate(327.36 117.935)" fill="#fafafa"/><rect width="3.883" height="5.627" transform="translate(344.337 97.635)" fill="#ebebeb"/><rect width="3.883" height="5.627" transform="translate(344.337 118.232)" fill="#ebebeb"/><path d="M463.73,162.7c-.1,0-.187-5.8-.187-12.953s.083-12.954.187-12.954.187,5.8.187,12.954-.083,12.953-.187,12.953" transform="translate(-130.735 -38.58)" fill="#263238"/><rect width="61.617" height="16.349" transform="translate(188.445 52.788)" fill="#2c78dc"/><path d="M285.244,90.194c-.1,0-.187-3.69-.187-8.242s.083-8.242.187-8.242.187,3.689.187,8.242-.083,8.242-.187,8.242" transform="translate(-80.396 -20.789)" fill="#263238"/><rect width="6.022" height="8.04" transform="translate(224.5 52.788)" fill="#ebebeb"/><rect width="49.612" height="13.163" transform="translate(138.052 110.855)" fill="#455a64"/><path d="M210.6,167.974a59.052,59.052,0,0,1-.187-6.635,59.05,59.05,0,0,1,.187-6.636,59.043,59.043,0,0,1,.187,6.636,59.045,59.045,0,0,1-.187,6.635" transform="translate(-59.345 -43.631)" fill="#263238"/><rect width="4.848" height="6.474" transform="translate(167.081 110.963)" fill="#ebebeb"/><rect width="43.749" height="11.608" transform="translate(143.215 99.272)" fill="#2c78dc"/><path d="M215.622,150.1a45.952,45.952,0,0,1-.187-5.851,45.959,45.959,0,0,1,.187-5.852,45.959,45.959,0,0,1,.187,5.852,45.952,45.952,0,0,1-.187,5.851" transform="translate(-60.76 -39.034)" fill="#263238"/><rect width="4.275" height="5.709" transform="translate(168.814 99.272)" fill="#ebebeb"/><rect width="43.749" height="11.608" transform="translate(259.501 85.989)" fill="#455a64"/><path d="M377.587,131.6a45.948,45.948,0,0,1-.187-5.851,45.956,45.956,0,0,1,.187-5.852,45.963,45.963,0,0,1,.187,5.852,45.956,45.956,0,0,1-.187,5.851" transform="translate(-106.44 -33.816)" fill="#263238"/><rect width="4.275" height="5.709" transform="translate(285.1 85.988)" fill="#ebebeb"/><rect width="22.494" height="15.665" transform="translate(155.652 42.46)" fill="#2c78dc"/><path d="M232.388,74.779c-.1,0-.187-3.489-.187-7.791s.083-7.793.187-7.793.187,3.489.187,7.793-.083,7.791-.187,7.791" transform="translate(-65.489 -16.695)" fill="#263238"/><path d="M237.365,59.139c.08,0,0,5,0,5h5.63v-5Z" transform="translate(-66.945 -16.679)" fill="#ebebeb"/><rect width="22.494" height="15.665" transform="translate(296.726 108.194)" fill="#2c78dc"/><path d="M428.88,166.336c-.1,0-.187-3.489-.187-7.791s.083-7.793.187-7.793.186,3.489.186,7.793-.083,7.791-.186,7.791" transform="translate(-120.906 -42.517)" fill="#263238"/><path d="M433.856,150.7c.08,0,0,5,0,5h5.63v-5Z" transform="translate(-122.363 -42.502)" fill="#ebebeb"/><rect width="34.355" height="26.497" transform="translate(209.282 26.035)" fill="#455a64"/><rect width="2.633" height="2.977" transform="translate(212.195 46.501)" fill="#fafafa"/><rect width="3.902" height="5.654" transform="translate(229.253 26.104)" fill="#ebebeb"/><rect width="3.902" height="5.654" transform="translate(229.253 46.799)" fill="#ebebeb"/><path d="M303.363,63.2c-.1,0-.187-5.828-.187-13.015s.083-13.016.187-13.016.187,5.826.187,13.016-.083,13.015-.187,13.015" transform="translate(-85.506 -10.482)" fill="#263238"/><rect width="252.892" height="138.663" transform="translate(124.003 181.726)" fill="#e0e0e0"/><path d="M425.825,391.993H172.215V252.612h253.61Zm-252.892-.718H425.107V253.33H172.933Z" transform="translate(-48.571 -71.245)" fill="#263238"/><rect width="252.892" height="28.18" transform="translate(124.003 202.43)" fill="#2c78dc"/><rect width="252.892" height="5.154" transform="translate(124.003 237.995)" fill="#2c78dc"/><rect width="261.86" height="12.934" transform="translate(119.912 175.259)" fill="#e0e0e0"/><path d="M428.8,256.966c0-.374-.017-4.15-.054-12.934l.054.054-261.847.133h-.013l.187-.187v12.934l-.187-.187,185.585.078,76.275.109s-.444.009-1.325.013l-3.917.014-15.106.027-55.789.056-185.723.078h-.187V243.844h.2l261.847.133h.055v.055c-.037,8.785-.052,12.56-.054,12.934" transform="translate(-47.031 -68.773)" fill="#263238"/><rect width="92.108" height="9.125" transform="translate(279.958 165.92)" fill="#455a64"/><rect width="52.117" height="4.58" transform="translate(306.39 161.315)" fill="#455a64"/><g transform="translate(306.391 161.315)" opacity="0.2"><g clip-path="url(#d)"><rect width="52.117" height="4.58" transform="translate(-0.001)"/></g></g><rect width="45.022" height="34.725" transform="translate(312.304 123.508)" fill="#455a64"/><rect width="3.451" height="3.902" transform="translate(316.121 150.329)" fill="#fafafa"/><rect width="5.114" height="7.409" transform="translate(338.477 123.598)" fill="#ebebeb"/><rect width="5.114" height="7.409" transform="translate(338.477 150.72)" fill="#ebebeb"/><path d="M450.564,206.7c-.1,0-.187-7.806-.187-17.431s.083-17.434.187-17.434.187,7.8.187,17.434-.083,17.431-.187,17.431" transform="translate(-127.022 -48.462)" fill="#263238"/><rect width="61.383" height="3.048" transform="translate(301.757 158.244)" fill="#e0e0e0"/><path d="M420.273,223.38a1.015,1.015,0,0,1-.01-.174c0-.136-.008-.317-.013-.554-.007-.523-.017-1.286-.032-2.32v-.054h.055c7.73-.077,32.308-.133,61.38-.133h0c.374.374.1.1.187.188h0v3.232h-.187l-43.589-.078-13.06-.056-3.525-.027-.909-.014a2.473,2.473,0,0,1-.3-.013s.115-.009.327-.013l.933-.013,3.568-.027,13.1-.057,43.451-.078-.187.187v-3.045h0c.083.083-.187-.187.187.186h0c-29.072,0-53.65-.056-61.38-.133l.055-.054c-.014,1.02-.024,1.773-.032,2.289-.006.241-.009.426-.013.566a1.506,1.506,0,0,1-.01.192" transform="translate(-118.516 -62.089)" fill="#263238"/><path d="M481.734,230.99c0,.1-20.395.187-45.548.187s-45.551-.083-45.551-.187,20.39-.187,45.551-.187,45.548.083,45.548.187" transform="translate(-110.173 -65.095)" fill="#263238"/><path d="M433.908,240.227a55.678,55.678,0,0,1,0-9.11,55.669,55.669,0,0,1,0,9.11" transform="translate(-122.325 -65.183)" fill="#263238"/><rect width="25.84" height="4.472" transform="translate(282.381 168.562)" fill="#fff"/><path d="M419.159,239.261H393.283v-4.509h25.876Zm-25.84-.037h25.8v-4.436h-25.8Z" transform="translate(-110.92 -66.208)" fill="#263238"/><path d="M410.211,238.6v-.314H409.9v-.314h-.315v-.945h.315v-.314h.314v-.314h.944v.314h.314v.314h.316v.945h-.316v.314h-.314v.314Zm.315-.314h.629v-1.259h-.314v-.314h-.63v1.259h.315Z" transform="translate(-115.516 -66.672)" fill="#263238"/><path d="M413.088,238.6v-.629h.314v-.314h.315v-.315h.629v-.314h.314v-.315h-.943v.315h-.63v-.315h.314V236.4h1.574v.314h.314v.63h-.314v.315h-.315v.314h-.63v.314h1.259v.314Z" transform="translate(-116.505 -66.672)" fill="#263238"/><path d="M420.1,238.6v-2.2h.63v1.259h.629v-.315h.315v-.314h.63v.314h-.314v.315h-.315v.314h.315v.314h.314v.314h-.63v-.314h-.315v-.314h-.629v.629Z" transform="translate(-118.483 -66.672)" fill="#263238"/><path d="M423.922,239.159v-.315h1.259v-.314h-1.259v-.314h-.315v-.63h.315v-.314h1.888v1.573H425.5v.315Zm.314-.944h.943v-.63h-.943Z" transform="translate(-119.472 -66.919)" fill="#263238"/><path d="M601.271,100.177l1.488,29.169a9.084,9.084,0,0,1-18.142.971c-.155-2.775-.266-5.049-.266-5.049s-7.134-.234-8.075-7.223c-.543-4.037-.965-13.3-1.225-20.4a9.248,9.248,0,0,1,8.125-9.516l4.229-.516a13.051,13.051,0,0,1,13.866,12.564" transform="translate(-162.183 -24.703)" fill="#ffc09d"/><path d="M588.006,138.575a17.033,17.033,0,0,0,8.786-3.807s-1.633,5.367-8.7,5.589Z" transform="translate(-165.838 -38.009)" fill="#ff9b6c"/><path d="M578.01,110.171c.14.115.829-.538,1.9-.666,1.073-.144,1.93.314,2.031.167.05-.065-.1-.285-.479-.493a2.761,2.761,0,0,0-1.646-.3,2.65,2.65,0,0,0-1.5.693c-.3.294-.383.544-.315.594" transform="translate(-163.013 -30.703)" fill="#263238"/><path d="M591.933,112.751a1.008,1.008,0,0,0,1.087.892.963.963,0,0,0,.92-1.027,1.008,1.008,0,0,0-1.086-.892.964.964,0,0,0-.921,1.027" transform="translate(-166.945 -31.509)" fill="#263238"/><path d="M578.988,114.321a1.008,1.008,0,0,0,1.087.891.963.963,0,0,0,.92-1.027,1.008,1.008,0,0,0-1.086-.892.965.965,0,0,0-.921,1.028" transform="translate(-163.294 -31.952)" fill="#263238"/><path d="M592.5,108.608c.14.115.83-.538,1.905-.666,1.073-.144,1.93.314,2.03.167.05-.065-.1-.285-.479-.493a2.761,2.761,0,0,0-1.646-.3,2.655,2.655,0,0,0-1.5.693c-.3.294-.383.544-.315.594" transform="translate(-167.101 -30.262)" fill="#263238"/><path d="M587.489,117.883a7.18,7.18,0,0,0-1.786-.1c-.279.005-.545-.018-.614-.2a1.409,1.409,0,0,1,.084-.836q.266-1.045.557-2.191a36.21,36.21,0,0,0,1.157-5.693,36.277,36.277,0,0,0-1.613,5.587q-.272,1.151-.521,2.2a1.6,1.6,0,0,0-.011,1.1.7.7,0,0,0,.5.347,1.867,1.867,0,0,0,.474.008,7.045,7.045,0,0,0,1.771-.214" transform="translate(-164.89 -30.702)" fill="#263238"/><path d="M591.932,121.926c-.177.011-.036,1.179-.934,2.129s-2.157.974-2.147,1.139c-.007.075.305.192.832.143a2.93,2.93,0,0,0,1.8-.884,2.555,2.555,0,0,0,.709-1.777c-.015-.493-.181-.767-.26-.75" transform="translate(-166.077 -34.387)" fill="#263238"/><path d="M591.941,103.249c.142.279,1.2.01,2.48.008,1.28-.027,2.343.218,2.478-.065.06-.135-.151-.388-.6-.622a4.315,4.315,0,0,0-3.778.044c-.44.243-.646.5-.583.635" transform="translate(-166.945 -28.812)" fill="#263238"/><path d="M577.219,105.655c.219.221.929-.123,1.819-.243.885-.151,1.665-.037,1.808-.314.061-.133-.088-.363-.446-.554a2.656,2.656,0,0,0-2.922.449c-.284.289-.357.554-.259.663" transform="translate(-162.784 -29.414)" fill="#263238"/><path d="M609.179,112.668c.113-.066,4.636-2.01,5.067,2.8s-4.482,4.246-4.5,4.109-.565-6.9-.565-6.9" transform="translate(-171.81 -31.651)" fill="#ffc09d"/><path d="M611.782,118.214c.02-.017.089.051.236.1a.842.842,0,0,0,.627-.043,2.08,2.08,0,0,0,.792-1.944,2.782,2.782,0,0,0-.342-1.177.971.971,0,0,0-.687-.586.428.428,0,0,0-.473.274c-.052.14-.013.233-.038.244s-.11-.071-.09-.274a.538.538,0,0,1,.162-.317.637.637,0,0,1,.452-.164,1.181,1.181,0,0,1,.94.667,2.857,2.857,0,0,1,.411,1.312,2.183,2.183,0,0,1-1.035,2.185.9.9,0,0,1-.777-.059c-.159-.1-.195-.21-.179-.22" transform="translate(-172.543 -32.245)" fill="#ff9b6c"/><path d="M603.458,104.842a2.533,2.533,0,0,0-2.16,1.462c-.228.722-.2,1.5-.429,2.226s-.853,1.426-1.6,1.343a1.485,1.485,0,0,1-1.131-.971,4.084,4.084,0,0,1-.2-1.542c.009-2.269.209-4.543.024-6.8a11.581,11.581,0,0,0-2.206-6.335,6.337,6.337,0,0,0-5.982-2.464c-1.473.3-2.743,1.244-4.2,1.631a5.887,5.887,0,0,1-5.055-1.029c-.18-.14-.987-.541-.987-.541a2.767,2.767,0,0,1,.323-1.541c2.6-3.069,7.791-4.47,11.781-3.968A14.071,14.071,0,0,1,601.7,92.526c2.109,3.425,2.23,8.533,1.76,12.317" transform="translate(-163.446 -24.313)" fill="#263238"/><path d="M582.745,90.9c2.661-.212,7.827.175,10.113,1.555.271.163.577.452.442.738-.1.216-.385.255-.623.277a36.758,36.758,0,0,0-7.063,1.938,12.725,12.725,0,0,1-4.589,1.251,4.605,4.605,0,0,1-4.1-2l-.643.33a7.85,7.85,0,0,1,6.465-4.093" transform="translate(-162.531 -25.62)" fill="#263238"/><path d="M574.761,95.69a9.039,9.039,0,0,1,4.926-2.991c5.991-1.256,16.145-.605,22.63,9.183a24.107,24.107,0,0,0,.413-5.674c-.174-1.424-2.06-9.8-11.108-11.4,0,0-13.754-3.412-16.86,10.881" transform="translate(-162.103 -23.819)" fill="#2c78dc"/><g transform="translate(412.658 60.634)" opacity="0.2"><g clip-path="url(#e)"><path d="M574.761,95.69a8.6,8.6,0,0,1,5.516-3.364c5.388-.9,15.928.332,22.039,9.556a24.107,24.107,0,0,0,.413-5.674c-.174-1.424-2.06-9.8-11.108-11.4,0,0-13.754-3.412-16.86,10.881" transform="translate(-574.761 -84.452)"/></g></g><path d="M597.522,101.489c-3.152-4.077-7.432-6.623-11.976-8.745s-11.841-3.878-16.808-4.568a10.528,10.528,0,0,0-4.479.075,4.014,4.014,0,0,0-2.952,3.084c-.236,1.87,3.323,4.275,4.97,5.192a50.129,50.129,0,0,0,4.93,2.154s-.455-3.372,4.847-4.71c7.229-1.823,21.713,7.679,21.467,7.519" transform="translate(-158.305 -24.811)" fill="#2c78dc"/><path d="M662.475,407.983l11.491,10.892s-11.349,12.948-9.885,15.63l27.654-15.961L674.616,399.3Z" transform="translate(-186.841 -112.618)" fill="#455a64"/><g transform="translate(493.876 299.785)" opacity="0.6"><g clip-path="url(#f)"><path d="M688.755,417.6a1.3,1.3,0,0,1,1.555.78,1.254,1.254,0,0,1-.76,1.548,1.375,1.375,0,0,1-1.642-.835,1.3,1.3,0,0,1,.969-1.523" transform="translate(-687.883 -417.548)" fill="#fff"/></g></g><g transform="translate(477.022 303.966)" opacity="0.6"><g clip-path="url(#g)"><path d="M692.281,425.332l-1.745-1.96L664.75,439.477a2.206,2.206,0,0,0-.147,2.1Z" transform="translate(-664.408 -423.372)" fill="#fff"/></g></g><path d="M677.746,426.46c.088.129.785-.225,1.7-.209.916-.008,1.61.353,1.7.225.105-.1-.587-.768-1.7-.768s-1.809.648-1.7.752" transform="translate(-191.145 -120.064)" fill="#263238"/><path d="M674.825,430.731c.05.147.762.012,1.562.289.808.253,1.3.786,1.428.7.136-.057-.258-.888-1.258-1.213s-1.808.1-1.732.227" transform="translate(-190.323 -121.382)" fill="#263238"/><path d="M674.586,436.331c.137-.047-.093-.822-.887-1.332s-1.591-.41-1.577-.265c-.006.155.638.291,1.282.72.655.414,1.042.946,1.182.877" transform="translate(-189.562 -122.577)" fill="#263238"/><path d="M675.284,421.43c.131.085.622-.477,1.4-.9.77-.434,1.508-.548,1.5-.7.016-.144-.857-.276-1.766.229s-1.269,1.308-1.139,1.371" transform="translate(-190.446 -118.37)" fill="#263238"/><path d="M672.764,416.483c.033.055.606-.191,1.35-.857a7.2,7.2,0,0,0,1.143-1.325,7.536,7.536,0,0,0,.518-.9,1.986,1.986,0,0,0,.209-.575.681.681,0,0,0-.381-.741.858.858,0,0,0-.767.062,2.094,2.094,0,0,0-.464.389,5.761,5.761,0,0,0-.661.818,5.648,5.648,0,0,0-.734,1.6,2.673,2.673,0,0,0-.106,1.6c.088.006.133-.6.47-1.48a6.385,6.385,0,0,1,.78-1.439,5.953,5.953,0,0,1,.627-.728c.239-.255.482-.41.635-.329.057.032.073.049.066.17a1.591,1.591,0,0,1-.155.421,8.385,8.385,0,0,1-.458.858,8.807,8.807,0,0,1-.994,1.324c-.638.7-1.126,1.059-1.078,1.129" transform="translate(-189.742 -116.204)" fill="#263238"/><path d="M671.571,416.872a2.545,2.545,0,0,0-.464-1.532,5.167,5.167,0,0,0-1.977-1.972,1.321,1.321,0,0,0-1.292-.141.746.746,0,0,0-.329.732,2.17,2.17,0,0,0,.173.584,3.527,3.527,0,0,0,.572.913,3.67,3.67,0,0,0,1.457,1.035,2.06,2.06,0,0,0,1.6.128,13.118,13.118,0,0,1-1.445-.479,3.679,3.679,0,0,1-1.228-1,3.292,3.292,0,0,1-.467-.8c-.139-.314-.176-.613-.05-.651a.916.916,0,0,1,.752.146,5.3,5.3,0,0,1,.8.523,5.737,5.737,0,0,1,1.111,1.186c.536.77.705,1.353.79,1.328" transform="translate(-188.258 -116.512)" fill="#263238"/><path d="M534.47,412.695l-2.74,14.781s-16.365,5.352-16.473,8.406l31.144.37,2.3-23.556Z" transform="translate(-145.321 -116.394)" fill="#455a64"/><g transform="translate(396.975 310.579)" opacity="0.6"><g clip-path="url(#h)"><path d="M554.447,432.629a1.3,1.3,0,0,1,.94,1.464,1.253,1.253,0,0,1-1.443.944,1.376,1.376,0,0,1-.987-1.556,1.3,1.3,0,0,1,1.61-.816" transform="translate(-552.917 -432.582)" fill="#fff"/></g></g><g transform="translate(369.773 317.594)" opacity="0.6"><g clip-path="url(#i)"><path d="M546.337,444.616l.491-2.264-30.6.395a2.206,2.206,0,0,0-1.2,1.73Z" transform="translate(-515.029 -442.353)" fill="#fff"/></g></g><path d="M537.474,433.013c.009.156.791.206,1.57.687.793.461,1.206,1.126,1.347,1.06.143-.034-.113-.959-1.068-1.526s-1.886-.364-1.849-.222" transform="translate(-151.586 -122.08)" fill="#263238"/><path d="M532.862,435.1c-.032.151.65.4,1.2,1.045.566.63.718,1.339.872,1.328.147.02.231-.9-.463-1.685s-1.606-.836-1.605-.688" transform="translate(-150.285 -122.694)" fill="#263238"/><path d="M529.842,439.729c.142.029.339-.755-.083-1.6s-1.16-1.164-1.223-1.032c-.085.13.4.576.737,1.274.353.689.414,1.345.569,1.356" transform="translate(-149.063 -123.269)" fill="#263238"/><path d="M539.277,428.042c.069.141.778-.093,1.661-.056.883.019,1.577.3,1.654.161.087-.115-.6-.674-1.637-.7s-1.758.478-1.678.6" transform="translate(-152.093 -120.554)" fill="#263238"/><path d="M629.089,263.042c.517.349,1.693,18.087,0,21.977L633.4,316.98S644.95,335.328,647.276,338s17.413,28.716,17.413,28.716l-17.032,14.692s-29.6-38.678-34.363-45.543c-7.465-10.77-16.278-51.146-16.278-51.146l-1.148-20.041Z" transform="translate(-168.055 -74.187)" fill="#263238"/><path d="M588.987,289c-.517.948-23.566,36.378-23.566,36.378s-3.5,18.768-4.273,27.045-6.442,29.562-6.442,29.562l-18.549-1.456s5.017-54.8,8.118-65.483S556,283.726,556,283.726l7.281-19.312,20.962.393Z" transform="translate(-151.215 -74.574)" fill="#263238"/><path d="M591.464,272.493a3.718,3.718,0,0,0,.116.573q.147.6.4,1.625l1.519,5.962c1.3,5.031,3.094,11.979,5.185,19.626s4.131,14.534,5.685,19.493c.778,2.479,1.42,4.48,1.883,5.858l.537,1.584a3.775,3.775,0,0,0,.21.546,3.611,3.611,0,0,0-.144-.566l-.475-1.6L604.6,319.7c-1.493-4.975-3.492-11.867-5.585-19.513-2.059-7.638-3.923-14.554-5.283-19.6-.679-2.482-1.232-4.5-1.625-5.935l-.46-1.608a3.748,3.748,0,0,0-.183-.555" transform="translate(-166.813 -76.853)" fill="#455a64"/><path d="M440.962,350.313l-47.806-41.8,15.854-17.056,46.4,42.342Z" transform="translate(-110.884 -82.2)" fill="#455a64"/><rect width="5.504" height="4.868" transform="translate(326.076 257.115) rotate(-48.832)" fill="#fafafa"/><path d="M405.183,299.261l-7.119,7.659,5.772,5.048,6.88-7.868Z" transform="translate(-112.268 -84.402)" fill="#ebebeb"/><path d="M442.812,352.549c-.078-.068,3.2-3.945,7.323-8.658s7.527-8.481,7.6-8.413-3.2,3.944-7.323,8.659-7.527,8.48-7.6,8.412" transform="translate(-124.888 -94.616)" fill="#263238"/><rect width="48.982" height="63.506" transform="matrix(0.658, -0.753, 0.753, 0.658, 249.303, 262.374)" fill="#455a64"/><g transform="translate(249.303 225.501)" opacity="0.3"><g clip-path="url(#j)"><rect width="48.982" height="63.506" transform="matrix(0.658, -0.753, 0.753, 0.658, 0, 36.872)"/></g></g><rect width="5.504" height="4.869" transform="translate(293.106 293.18) rotate(-48.832)" fill="#fafafa"/><rect width="10.452" height="7.213" transform="translate(289.168 246.218) rotate(-48.83)" fill="#ebebeb"/><rect width="10.452" height="7.213" transform="translate(263.983 275.017) rotate(-48.83)" fill="#ebebeb"/><path d="M396.892,395.258c-.078-.068,6.951-8.233,15.7-18.234s15.9-18.058,15.98-17.989-6.949,8.231-15.7,18.236-15.9,18.056-15.978,17.988" transform="translate(-111.937 -101.26)" fill="#263238"/><rect width="40.982" height="53.135" transform="translate(317.887 199.042) rotate(-48.831)" fill="#455a64"/><rect width="4.605" height="4.074" transform="translate(354.537 224.817) rotate(-48.831)" fill="#fafafa"/><rect width="8.745" height="6.035" transform="matrix(0.658, -0.753, 0.753, 0.658, 351.241, 185.525)" fill="#ebebeb"/><rect width="8.745" height="6.035" transform="matrix(0.658, -0.753, 0.753, 0.658, 330.169, 209.621)" fill="#ebebeb"/><path d="M484.308,302.179c-.078-.068,5.793-6.908,13.111-15.276s13.315-15.1,13.393-15.032-5.792,6.907-13.111,15.278-13.315,15.1-13.392,15.031" transform="translate(-136.592 -76.677)" fill="#263238"/><path d="M459.2,325.693l-47.806-41.8,15.854-17.056,46.4,42.342Z" transform="translate(-116.026 -75.256)" fill="#455a64"/><g transform="translate(295.364 191.576)" opacity="0.3"><g clip-path="url(#k)"><path d="M459.2,325.693l-47.806-41.8,15.854-17.056,46.4,42.342Z" transform="translate(-411.39 -266.832)"/></g></g><rect width="5.504" height="4.868" transform="translate(339.167 239.438) rotate(-48.832)" fill="#fafafa"/><rect width="10.452" height="7.213" transform="matrix(0.658, -0.753, 0.753, 0.658, 310.043, 221.276)" fill="#ebebeb"/><path d="M461.045,327.982c-.078-.068,3.125-3.914,7.153-8.589s7.358-8.413,7.437-8.346-3.124,3.912-7.154,8.59-7.358,8.412-7.436,8.345" transform="translate(-130.031 -87.726)" fill="#263238"/><path d="M418.952,424.016a12.943,12.943,0,1,0,12.943-12.943,12.943,12.943,0,0,0-12.943,12.943" transform="translate(-118.159 -115.937)" fill="#455a64"/><g transform="translate(305.757 300.099)" opacity="0.3"><g clip-path="url(#l)"><path d="M425.866,425.965a7.979,7.979,0,1,0,7.979-7.979,7.979,7.979,0,0,0-7.979,7.979" transform="translate(-425.866 -417.986)"/></g></g><path d="M551.952,172.58c-.393.337-17.884,18.87-17.884,18.87l-32.581,17.431,3.85,4.626c.47,2.233,34.1-8.139,39.464-13.279,3.622-3.469,14.84-13.5,14.84-13.5l-2.474-17.646Z" transform="translate(-141.437 -47.687)" fill="#ffc09d"/><path d="M500.3,226.707l-5.64-2.193a40.165,40.165,0,0,1-10.025,4.695,51.62,51.62,0,0,0-7.37,2.506l.049.3a2.906,2.906,0,0,0,3.044.8c3.314-.706,9.325-1.925,9.265-1.692-.085.33-3.913,2.971-4.146,4.608-.21,1.473.863.983,1.9.371s10.757-3.609,11.871-6.181,1.054-3.215,1.054-3.215" transform="translate(-134.604 -63.321)" fill="#ffc09d"/><path d="M586,148.3l-8.179,3.331c-2,.579-4.731,5-7.1,7.814l-10.537,10.915,14.545,17.725Z" transform="translate(-157.99 -41.827)" fill="#2c78dc"/><path d="M602.277,135.064l3.954,4.908s15.364,5.7,16.958,9.55c2.239,5.407-.7,22.205-.7,22.205l-4.059,36.188,5.55,20.024-50.931.871s3.09-52.5,3.807-58.055c.5-3.863,4.525-19.843,6.448-25.847l.41,2.068.23-.941Z" transform="translate(-161.621 -38.093)" fill="#2c78dc"/><path d="M577.668,170.508a.65.65,0,0,0-.032.167c-.017.131-.037.294-.061.495-.049.462-.116,1.1-.2,1.9-.17,1.655-.388,4.051-.639,7.015-.5,5.927-1.078,14.124-1.645,23.18s-1.1,17.256-1.544,23.185c-.223,2.944-.4,5.335-.531,7.022q-.086,1.213-.136,1.911c-.011.2-.019.365-.027.5a.647.647,0,0,0,0,.17.585.585,0,0,0,.033-.167c.016-.131.036-.294.06-.495.049-.462.116-1.1.2-1.9.17-1.655.388-4.051.64-7.015.5-5.927,1.078-14.125,1.645-23.183s1.1-17.252,1.544-23.182c.222-2.944.4-5.335.53-7.022.058-.808.1-1.446.136-1.91.011-.2.02-.365.027-.5a.659.659,0,0,0,0-.171" transform="translate(-161.564 -48.089)" fill="#263238"/><path d="M588.384,147.942a7.286,7.286,0,0,1,.633.935c.4.605.943,1.507,1.707,2.542a7.565,7.565,0,0,0,.657.762c.24.269.462.565.719.825a1.317,1.317,0,0,0,.908.479,2.041,2.041,0,0,0,1.052-.44c1.435-.936,3-1.989,4.632-3.1,3.267-2.234,6.218-4.274,8.39-5.7,1.084-.714,1.972-1.276,2.591-1.656a6.535,6.535,0,0,1,.985-.554,6.506,6.506,0,0,1-.9.675l-2.523,1.753L598.9,150.25c-1.636,1.116-3.207,2.163-4.657,3.085a2.319,2.319,0,0,1-1.241.478,1.618,1.618,0,0,1-1.127-.59c-.274-.288-.49-.589-.716-.852a7.614,7.614,0,0,1-.652-.8c-.75-1.073-1.259-1.992-1.619-2.623a5.922,5.922,0,0,1-.508-1.009" transform="translate(-165.944 -40.059)" fill="#263238"/><path d="M589.8,166.511a4.312,4.312,0,0,1-.982.1c-.628.037-1.534.075-2.636.112l-.168.006.016-.172c.15-1.483.355-3.352.592-5.376.29-2.476.574-4.716.8-6.335.111-.809.21-1.464.284-1.915a2.555,2.555,0,0,1,.155-.7,2.647,2.647,0,0,1-.011.714c-.03.456-.088,1.115-.167,1.928-.157,1.627-.4,3.871-.689,6.348-.237,2.024-.469,3.889-.666,5.367l-.151-.167c1.1,0,2.009,0,2.639.017a4.252,4.252,0,0,1,.985.068" transform="translate(-165.277 -42.936)" fill="#263238"/><path d="M590.683,164.423a1.284,1.284,0,0,1,.761,1.527,1.234,1.234,0,0,1-1.5.781,1.187,1.187,0,0,1-.7-1.522,1.257,1.257,0,0,1,1.439-.786" transform="translate(-166.165 -46.368)" fill="#e0e0e0"/><g transform="translate(445.984 129.896)" opacity="0.3"><g clip-path="url(#m)"><path d="M627.253,208.139,625,196.735l-2.657-.108-1.161-15.7,2.689,12.677,2.9-.648,2.744,14.73Z" transform="translate(-621.178 -180.922)"/></g></g><path d="M645.973,180.454,623.5,185.478s-3.491-14.871-3.626-18.933,5-16.667,12.831-14.069c0,0,2.373-.48,4.531,2.692.868,1.277,8.738,25.285,8.738,25.285" transform="translate(-174.825 -42.905)" fill="#2c78dc"/><path d="M620.562,164.891a12.4,12.4,0,0,1,.246-3.262,14.56,14.56,0,0,1,1.213-3.33,8.4,8.4,0,0,1,2.619-3.362,9.343,9.343,0,0,1,3.978-1.567,18.328,18.328,0,0,1,3.549-.169,13.531,13.531,0,0,1,2.379.3c.551.13.844.251.857.221,0-.011-.065-.05-.2-.115a4.721,4.721,0,0,0-.62-.235,11.32,11.32,0,0,0-2.4-.411,17.145,17.145,0,0,0-3.61.1,9.436,9.436,0,0,0-4.133,1.6,8.533,8.533,0,0,0-2.7,3.5,13.883,13.883,0,0,0-1.166,3.42,9.244,9.244,0,0,0-.161,2.432,5.248,5.248,0,0,0,.089.656c.03.149.052.225.064.223" transform="translate(-174.971 -43.125)" fill="#263238"/><path d="M583.036,243s-11.429,1.754-12.045,3.413-.836,8.288.615,10.006,5.928,1.091,5.4-.35-2.7-.948-2.7-.948l-1.46-3.965,2.04-1.6s3.021,2.89,4.061,2.771,4,1.249,5.981-1.426,3.31-2.959,3.31-2.959Z" transform="translate(-160.905 -68.534)" fill="#ffc09d"/><path d="M583.753,253.572c-.189.151-1.811,3.15-3.565,4.244s-4.229,2.331-4.915,1.241a6.886,6.886,0,0,1-.872-2.366l7.021-3.481Z" transform="translate(-162.001 -71.414)" fill="#ffc09d"/><path d="M397.428,379.061l-37.7-33.013a1.984,1.984,0,0,1,2.613-2.985l36.184,31.685c18.594-21.946,94.682-111.636,98.093-113.828a43.048,43.048,0,0,1,7.661-3.448,46.032,46.032,0,0,0,5.339-2.249,19.846,19.846,0,0,0,5.081-4.194,1.983,1.983,0,0,1,3.072,2.509,23.64,23.64,0,0,1-6.245,5.161,48.2,48.2,0,0,1-5.846,2.483,41.257,41.257,0,0,0-6.869,3.041c-3.63,3.013-60.875,70.131-98.565,114.626a1.99,1.99,0,0,1-1.366.7c-.049,0-.1.005-.147.005a1.985,1.985,0,0,1-1.307-.491m101.335-114.8.009-.006-.009.006" transform="translate(-101.265 -70.594)" fill="#e0e0e0"/><path d="M553.586,269.669c-.044.024-.09.05-.128.012s0-.172.054-.185l.177.329h0l-.005,0-.011,0-.025.006a.144.144,0,0,1-.06,0,.105.105,0,0,1-.079-.067c-.011-.054.037-.078.08-.1s.093-.05.085-.1a.1.1,0,0,0-.073-.07.133.133,0,0,0-.057-.005l-.024.006-.01,0,0,0h0l.178.328c.051-.01.1-.141.042-.177s-.09-.009-.134.015" transform="translate(-156.088 -76.005)" fill="#263238"/><path d="M397.382,378.989a2.219,2.219,0,0,0,.643.36,1.967,1.967,0,0,0,2.013-.441l5.492-6.506,20.648-24.391,31.664-37.176,19.288-22.471,10.42-12.02,5.418-6.162c.92-1.03,1.83-2.077,2.778-3.1l1.414-1.549c.478-.514,1-1.008,1.493-1.514l.005-.005.013-.008a25.9,25.9,0,0,1,3.947-1.916c1.358-.552,2.74-1.059,4.119-1.587s2.761-1.068,4.085-1.732a20.516,20.516,0,0,0,3.719-2.451,21.192,21.192,0,0,0,3.176-3.156,1.8,1.8,0,0,0-2.781-2.242c-.235.256-.508.579-.773.85a21.648,21.648,0,0,1-1.707,1.6,16.747,16.747,0,0,1-3.967,2.526c-2.872,1.282-5.885,2.221-8.771,3.51-.72.323-1.432.667-2.122,1.05a9.387,9.387,0,0,0-1,.617l-.429.373-.419.424c-1.117,1.129-2.191,2.323-3.273,3.509-4.3,4.776-8.585,9.687-12.9,14.65-15.089,17.391-29.521,34.3-43.114,50.227L398.6,374.778l-.1.122-.119-.106-32.237-28.267-3.533-3.1a3.407,3.407,0,0,0-.89-.656,1.864,1.864,0,0,0-1.957,3.117l1.63,1.431,3.166,2.779,11.36,9.973L391.8,374.035l4.168,3.68c.941.834,1.418,1.274,1.418,1.274s-.5-.415-1.45-1.237l-4.2-3.646-15.937-13.9-11.385-9.945-3.173-2.772-1.633-1.427a2.1,2.1,0,0,1,2.206-3.518,3.643,3.643,0,0,1,.956.7l3.539,3.094,32.275,28.223-.223.016,37.83-44.554c13.585-15.934,28.014-32.846,43.1-50.24,4.319-4.964,8.6-9.874,12.908-14.655,1.085-1.189,2.157-2.38,3.286-3.522l.424-.428.476-.411a9.769,9.769,0,0,1,1.031-.635c.7-.39,1.423-.738,2.15-1.063,2.911-1.3,5.932-2.241,8.77-3.508a16.353,16.353,0,0,0,3.884-2.471,21.322,21.322,0,0,0,1.679-1.571c.274-.281.5-.55.783-.859a2.165,2.165,0,0,1,3.345,2.7,21.224,21.224,0,0,1-3.255,3.244,20.884,20.884,0,0,1-3.787,2.493c-1.348.674-2.739,1.214-4.12,1.745s-2.762,1.033-4.112,1.582a25.631,25.631,0,0,0-3.892,1.884l.018-.013c-.487.5-.986.973-1.462,1.483l-1.412,1.544c-.946,1.021-1.857,2.068-2.777,3.1l-5.421,6.156L477.38,288.581,458.07,311.03l-31.725,37.123L405.62,372.478c-2.416,2.829-4.26,5.015-5.54,6.474a2,2,0,0,1-2.065.426,1.6,1.6,0,0,1-.633-.389" transform="translate(-101.219 -70.522)" fill="#263238"/><path d="M631.172,193.249l1.91,16.817a9.5,9.5,0,0,1-5.843,9.867L590.17,235.1l-3.659-6.136,31.225-20.5-2.773-11.554" transform="translate(-165.417 -54.503)" fill="#ffc09d"/><path d="M620.776,179.521a.9.9,0,0,0,.03.269c.039.207.088.458.146.762.149.708.35,1.661.6,2.835.544,2.457,1.292,5.826,2.148,9.7l.036.162.164-.036,4.469-.994,12.722-2.9,3.846-.916,1.043-.266a1.525,1.525,0,0,0,.358-.116,1.582,1.582,0,0,0-.373.048l-1.056.2-3.871.809-12.745,2.8-4.465,1,.2.125c-.9-3.859-1.692-7.219-2.266-9.669-.286-1.165-.518-2.111-.691-2.814-.079-.3-.145-.546-.2-.75a.956.956,0,0,0-.088-.255" transform="translate(-175.08 -50.631)" fill="#263238"/><rect width="58.002" height="44.736" transform="translate(117.468 130.553)" fill="#2c78dc"/><rect width="4.446" height="5.026" transform="translate(122.386 165.107)" fill="#fafafa"/><rect width="6.588" height="9.546" transform="translate(151.188 130.668)" fill="#ebebeb"/><rect width="6.588" height="9.545" transform="translate(151.188 165.611)" fill="#ebebeb"/><path d="M183.7,227.312c-.1,0-.187-9.839-.187-21.973s.083-21.976.187-21.976.187,9.838.187,21.976-.083,21.973-.187,21.973" transform="translate(-51.758 -51.715)" fill="#263238"/><path d="M228.742,192.09a40.99,40.99,0,0,1,3.181-3.145c.7-.472,3.7-2.186,3.7-2.186s5.011-.508,5.647-.064a5.635,5.635,0,0,1,1.022.913l.749-.024s1.672-.253,1.928.778a2.214,2.214,0,0,1-.989,2.222,3.748,3.748,0,0,1-.51.292l.681-.18s1.454,1.065,1.153,1.956a4.569,4.569,0,0,1-1.231,1.671,1.644,1.644,0,0,1-.082,1.854l-.693.974a2.02,2.02,0,0,1,.225,2.017c-.53,1.032-3.761,2-3.761,2a48.89,48.89,0,0,1-6.429.231c-1.007-.243-3.418-.453-3.418-.453Z" transform="translate(-64.513 -52.603)" fill="#ffc09d"/><path d="M244.668,188.071a5.258,5.258,0,0,1-1.182.376,13.656,13.656,0,0,1-3,.5,18.492,18.492,0,0,0-3.013-.032,4.771,4.771,0,0,0-1.146.375c-.032-.018.312-.4,1.095-.571a13.521,13.521,0,0,1,3.049-.055,18.959,18.959,0,0,0,2.954-.407,5.591,5.591,0,0,1,1.239-.182" transform="translate(-66.653 -53.04)" fill="#ff9b6c"/><path d="M249.534,192.128c.033.032-.065.173-.284.27a2.9,2.9,0,0,1-.866.206c-.682.063-1.219.027-1.233-.06-.016-.1.536-.223,1.2-.284.33-.034.622-.065.829-.1s.323-.074.358-.037" transform="translate(-69.705 -54.183)" fill="#ff9b6c"/><path d="M249.6,197.165c.045.083-.263.333-.712.5s-.844.184-.865.092.319-.254.744-.415.788-.263.833-.178" transform="translate(-69.952 -55.599)" fill="#ff9b6c"/><path d="M248.664,201.115c.073.057-.209.477-.77.68s-1.045.07-1.026-.021.435-.125.908-.3.816-.424.888-.356" transform="translate(-69.625 -56.718)" fill="#ff9b6c"/><path d="M225.3,193.475l-9.891,2.434-.39,11.513,13.243-5,.98-4.858Z" transform="translate(-60.644 -54.567)" fill="#ffc09d"/><path d="M166.073,425.441v16.115l33.158-.157c-.241-3.267-18.439-9.787-18.439-9.787l.362-6.171Z" transform="translate(-46.838 -119.989)" fill="#455a64"/><g transform="translate(123.657 310.102)" opacity="0.6"><g clip-path="url(#n)"><path d="M173.173,431.98a1.4,1.4,0,0,0-.908,1.61,1.293,1.293,0,0,0,1.53.95,1.481,1.481,0,0,0,.953-1.709,1.33,1.33,0,0,0-1.7-.806" transform="translate(-172.233 -431.918)" fill="#fff"/></g></g><path d="M166.073,446.876V444.3l31.657.367s1.651.974,1.5,2.05Z" transform="translate(-46.838 -125.309)" fill="#263238"/><path d="M185.4,434.412c0,.167-.807.255-1.592.8-.8.528-1.2,1.258-1.345,1.194-.149-.03.076-1.033,1.037-1.681s1.933-.471,1.9-.317" transform="translate(-51.45 -122.478)" fill="#263238"/><path d="M191.778,436.521c.039.162-.654.456-1.191,1.172-.556.7-.684,1.465-.844,1.46-.151.029-.276-.949.407-1.825s1.623-.966,1.628-.807" transform="translate(-53.48 -123.096)" fill="#263238"/><path d="M195.266,441.126c-.146.038-.382-.794.018-1.716s1.148-1.3,1.218-1.16c.093.136-.389.635-.706,1.4-.335.754-.37,1.46-.53,1.478" transform="translate(-55.015 -123.594)" fill="#263238"/><path d="M184.779,427.86c-.065.154-.808-.067-1.717.011-.912.058-1.615.386-1.7.244-.095-.12.588-.749,1.661-.825s1.834.437,1.758.569" transform="translate(-51.148 -120.508)" fill="#263238"/><path d="M184.859,433.457a2.358,2.358,0,0,0,.07-.984,5.38,5.38,0,0,0-.878-2.541,5.052,5.052,0,0,0-1.3-1.338,1.143,1.143,0,0,0-1.119-.192,1.234,1.234,0,0,0-.653,1.061,4.271,4.271,0,0,0,2.914,3.77,4.206,4.206,0,0,0,4.479-1.3,2.93,2.93,0,0,0,.594-1,1.054,1.054,0,0,0,.005-.645.775.775,0,0,0-.451-.466,1.436,1.436,0,0,0-1.034.1,6.235,6.235,0,0,0-.772.431,6.844,6.844,0,0,0-1.9,1.839,2.529,2.529,0,0,0-.457.863,9.494,9.494,0,0,1,2.525-2.4c.444-.25,1.025-.608,1.494-.448.205.083.287.32.189.6a2.579,2.579,0,0,1-.521.821,3.814,3.814,0,0,1-4.009,1.139,3.885,3.885,0,0,1-2.626-3.275.8.8,0,0,1,.391-.7.767.767,0,0,1,.738.144,4.825,4.825,0,0,1,1.234,1.2,5.628,5.628,0,0,1,.967,2.361c.091.61.071.96.112.962" transform="translate(-51.043 -120.802)" fill="#263238"/><path d="M139.409,426.316v5.2l-.375,9.353-12.432.3-.443-9.65.365-5.88Z" transform="translate(-35.581 -120.045)" fill="#455a64"/><path d="M135.524,440.85c-.075,0,.1-2.857.4-6.39s.6-6.4.673-6.4-.1,2.857-.4,6.39-.6,6.4-.673,6.4" transform="translate(-38.218 -120.727)" fill="#263238"/><path d="M139.227,444.688l-12.559.143v1.712l12.568-.015Z" transform="translate(-35.725 -125.418)" fill="#263238"/><path d="M126.71,435.771c-.019-.014.088-.194.318-.493a8.838,8.838,0,0,1,3.115-2.483,6.721,6.721,0,0,1,7.747,1.405,5.578,5.578,0,0,1,.91,1.325,1.561,1.561,0,0,1,.2.551,12.766,12.766,0,0,0-1.3-1.7,6.687,6.687,0,0,0-4.66-1.874,7.693,7.693,0,0,0-4.729,1.809c-1.04.831-1.546,1.5-1.6,1.457" transform="translate(-35.736 -121.877)" fill="#263238"/><path d="M164.587,256.373l-1.451-2.269-46.451,2.183s-.891,14.431-.246,19.715c.207,1.7,1.165,8.264,1.165,8.264l1.147,50.9c.437,4.039,1.531,46.526,1.531,46.526h18.411l3.754-68.106c.4-7.58.109-19.067.491-27.454l6.325,25.691,4.709,15.808s-1.016,7.841-2.129,17.176c-1.56,13.08-1.506,36.3-1.506,36.3l18.9.3s2.624-24.122,4.679-38.209l1.763-16.813a87.988,87.988,0,0,0-1.44-10.82Z" transform="translate(-32.774 -71.666)" fill="#263238"/><path d="M153.808,294.215a4.457,4.457,0,0,1-.851-.286,8.676,8.676,0,0,1-.968-.414c-.368-.182-.8-.365-1.243-.635a16.426,16.426,0,0,1-1.442-.887c-.516-.326-1.025-.732-1.566-1.153a23.186,23.186,0,0,1-3.15-3.148,23.465,23.465,0,0,1-2.443-3.725c-.3-.62-.6-1.2-.8-1.772a15,15,0,0,1-.566-1.6,13.632,13.632,0,0,1-.358-1.35,8.328,8.328,0,0,1-.2-1.034,4.395,4.395,0,0,1-.095-.892c.072-.013.234,1.258.883,3.2a16.475,16.475,0,0,0,.6,1.562c.217.561.523,1.128.821,1.734a22.754,22.754,0,0,0,5.514,6.775c.527.422,1.023.831,1.526,1.162.484.358.964.646,1.4.911,1.763,1.043,2.967,1.479,2.939,1.547" transform="translate(-39.518 -78.215)" fill="#455a64"/><path d="M180.66,270.649a4.356,4.356,0,0,1-1.605.047,9.388,9.388,0,0,1-3.69-1.2,9.177,9.177,0,0,1-2.887-2.594,4.268,4.268,0,0,1-.751-1.42c.054-.028.337.515.946,1.273a10.332,10.332,0,0,0,2.865,2.442,10.59,10.59,0,0,0,3.549,1.258c.961.151,1.572.134,1.575.195" transform="translate(-48.432 -74.875)" fill="#455a64"/><path d="M138.592,101.266l-.355,28.576c-.06,4.859.844,12.01,8.531,11.755,6.653-.724,8.418-7.022,8.47-11.557.024-2.151.05-3.945.067-4.166,0,0,7.283-.594,7.9-7.788.3-3.476.326-10.686.276-17.209a13.447,13.447,0,0,0-12.472-13.3l-.695-.051c-7.523-.109-11.818,6.219-11.719,13.742" transform="translate(-38.987 -24.685)" fill="#ffc09d"/><path d="M158.407,139.581a17.44,17.44,0,0,1-9.172-3.456s1.9,5.426,9.135,5.3Z" transform="translate(-42.089 -38.392)" fill="#ff9b6c"/><path d="M154.528,109.729c-.143.146-.974-.523-2.179-.556-1.2-.05-2.105.559-2.231.4-.062-.069.086-.335.479-.611a3.017,3.017,0,0,1,1.792-.508,2.908,2.908,0,0,1,1.729.629c.363.3.481.577.411.642" transform="translate(-42.335 -30.589)" fill="#263238"/><path d="M155.45,113.329a.975.975,0,0,1-1.009.913.932.932,0,0,1-.938-.95.975.975,0,0,1,1.009-.913.933.933,0,0,1,.939.951" transform="translate(-43.293 -31.694)" fill="#263238"/><path d="M160.471,118.27a7.336,7.336,0,0,1,1.821-.193c.284-.009.556-.045.617-.234a1.441,1.441,0,0,0-.127-.852q-.324-1.054-.678-2.213a37,37,0,0,1-1.465-5.764,37.094,37.094,0,0,1,1.926,5.632q.337,1.164.643,2.223a1.642,1.642,0,0,1,.065,1.12.711.711,0,0,1-.494.379,1.965,1.965,0,0,1-.485.032,7.208,7.208,0,0,1-1.821-.131" transform="translate(-45.258 -30.746)" fill="#263238"/><path d="M153.789,103.563c-.116.267-1.081.066-2.236.126-1.157.034-2.105.314-2.239.057-.059-.123.121-.369.513-.607a3.78,3.78,0,0,1,3.41-.139c.408.205.6.437.553.564" transform="translate(-42.109 -28.953)" fill="#263238"/><path d="M169.757,106.662c-.126.218-1.067-.024-2.206-.059-1.14-.056-2.086.111-2.206-.117-.052-.109.135-.3.533-.477a3.982,3.982,0,0,1,1.686-.279,4.119,4.119,0,0,1,1.676.413c.392.2.574.415.518.519" transform="translate(-46.631 -29.819)" fill="#263238"/><path d="M137.026,114.01c-.119-.062-4.841-1.824-5.042,3.11s4.792,4.119,4.807,3.978.235-7.087.235-7.087" transform="translate(-37.222 -32.054)" fill="#ffc09d"/><path d="M135.852,119.784c-.021-.017-.088.057-.236.117a.861.861,0,0,1-.643-.013,2.129,2.129,0,0,1-.906-1.949,2.837,2.837,0,0,1,.292-1.221.992.992,0,0,1,.673-.633.438.438,0,0,1,.5.256c.06.141.025.238.051.248s.109-.078.078-.284a.552.552,0,0,0-.181-.317.651.651,0,0,0-.47-.145,1.21,1.21,0,0,0-.93.728,2.919,2.919,0,0,0-.354,1.363,2.233,2.233,0,0,0,1.167,2.183.925.925,0,0,0,.791-.1c.158-.116.188-.225.172-.235" transform="translate(-37.715 -32.671)" fill="#ff9b6c"/><path d="M157.823,125.416c.054-.125-.913-.414-1.592-1.321a5.546,5.546,0,0,1-.683-1.288c-.144-.358-.253-.584-.306-.566s-.038.258.041.648a3.638,3.638,0,0,0,.635,1.443,2.952,2.952,0,0,0,1.26.965c.377.153.632.162.645.12" transform="translate(-43.775 -34.476)" fill="#263238"/><path d="M169.831,110.362c-.143.146-.974-.523-2.179-.556-1.2-.05-2.105.559-2.231.4-.062-.069.086-.335.479-.611a3.017,3.017,0,0,1,1.792-.508,2.909,2.909,0,0,1,1.729.629c.363.3.481.577.411.642" transform="translate(-46.651 -30.767)" fill="#263238"/><path d="M170.529,113.816a.975.975,0,0,1-1.009.913.932.932,0,0,1-.938-.95.975.975,0,0,1,1.009-.913.933.933,0,0,1,.939.951" transform="translate(-47.545 -31.832)" fill="#263238"/><path d="M166.89,89.608a3.893,3.893,0,0,0-4.856-1.536,5.328,5.328,0,0,0-9.178-4.6,2.177,2.177,0,0,0-1.061-1.46,4.3,4.3,0,0,0-1.771-.528,8.475,8.475,0,0,0-7.738,3.374,9.221,9.221,0,0,0-7.812,2.85c-2.318,2.567-2.754,8.517-.216,13.657l.6,3.223a2.932,2.932,0,0,1,2.015.5c.666.6.965,1.727,2.073,1.3.564-.218,1.078-1.4,1.267-1.976a28.071,28.071,0,0,0,1.216-11.884,9.013,9.013,0,0,1,2.786-2.011l-.085.076c2.01-.7,4.285-1.385,6.192-.441,1.479.732,2.349,2.267,3.455,3.492a11.294,11.294,0,0,0,8.051,3.718c.106,2.025-.064,4.889.042,6.914l1.7-3.244v.017c.14-.238.255-.477.367-.717l.038-.073v-.011c.312-.253.549-.717,1.075-1.32a4.251,4.251,0,0,0,.7-4.349,3.892,3.892,0,0,0,1.138-4.964" transform="translate(-37.38 -22.967)" fill="#263238"/><path d="M177.147,106.049l-.006-.006Z" transform="translate(-49.96 -29.908)" fill="#263238"/><path d="M172.971,92.922c.005,0,.017.035.036.106a1.446,1.446,0,0,1,.045.319,2.138,2.138,0,0,1-.287,1.157,2.207,2.207,0,0,1-.551.638,1.976,1.976,0,0,1-.9.384,2.226,2.226,0,0,1-2.057-.775l.123-.1a1.361,1.361,0,0,1,.348.967,1.788,1.788,0,0,1-.551,1.244,2.016,2.016,0,0,1-1.167.5,3.136,3.136,0,0,1-2.028-.558,6.609,6.609,0,0,1-1.084-.921,2.74,2.74,0,0,1-.345-.39,3.84,3.84,0,0,1,.389.344,7.658,7.658,0,0,0,1.1.869,3.062,3.062,0,0,0,1.95.506,1.88,1.88,0,0,0,1.073-.464,1.635,1.635,0,0,0,.5-1.13,1.2,1.2,0,0,0-.3-.853l.122-.106a2.094,2.094,0,0,0,1.908.733,1.934,1.934,0,0,0,1.38-.935,2.186,2.186,0,0,0,.321-1.1c0-.274-.038-.424-.023-.426" transform="translate(-46.409 -26.207)" fill="#455a64"/><path d="M165.791,85.391c0-.005.039.011.106.047a2.157,2.157,0,0,1,.275.185,2.407,2.407,0,0,1,.744.966,1.892,1.892,0,0,1-.169,1.778,1.456,1.456,0,0,1-.9.617,1.481,1.481,0,0,1-1.149-.223,1.293,1.293,0,0,1-.274-.272l.141-.08a1.375,1.375,0,0,1-.037,1.109,1.517,1.517,0,0,1-.718.736,2,2,0,0,1-1.681,0,2.687,2.687,0,0,1-.905-.684,1.3,1.3,0,0,1-.24-.335c.01-.008.1.108.284.294a2.85,2.85,0,0,0,.905.622,1.906,1.906,0,0,0,1.57-.026,1.376,1.376,0,0,0,.64-.668,1.226,1.226,0,0,0,.031-.979l-.261-.606.4.526a1.11,1.11,0,0,0,.236.235,1.329,1.329,0,0,0,1.021.2,1.308,1.308,0,0,0,.808-.546,1.787,1.787,0,0,0,.186-1.649,2.486,2.486,0,0,0-.678-.96c-.21-.189-.348-.269-.34-.281" transform="translate(-45.403 -24.083)" fill="#455a64"/><path d="M108.03,170.61s-5.539,31.462-5.272,34.4,1.741,7.622,5.082,8.424a14.7,14.7,0,0,0,6.417,0l-4.011-38.644Z" transform="translate(-28.979 -48.118)" fill="#455a64"/><path d="M162.585,210.284l-1.02-14.3.3-19.239L157.96,150.9a2.11,2.11,0,0,0-1.326-1.652l-6.056-2.336-.868-3.411a25.965,25.965,0,0,0-14.16-4.06,15.756,15.756,0,0,0-8.691,2.693l-.561,3.461s-6.629,4.713-8.094,6.1c-6.129,5.8-7.412,8.169-8.124,10.13s4.255,47.513,4.255,47.513l-.661,8.209-1.014,3.023c-.479,2.051.032,5.548,2.137,5.637l48.178-.2c2.142.05.022-13.613-.387-15.716" transform="translate(-31.026 -39.326)" fill="#455a64"/><path d="M204.293,181.966l-18.115,1.641c-.948-2.577-2.563-1-2.563-1s-5.434-12.108-7.181-18.051c-1.954-6.642-4.036-9.234-4.937-10.449-.664-.895-2.745-1.368-2.745-1.368a9.747,9.747,0,0,0-9.177,2.784c-5.016,5.285-3.156,19.958-3.156,19.958l7.037,10.254c.477,1.379,3.869,7.185,7.906,12.01a9.192,9.192,0,0,0,9.014,3.049l25.635-5.543a23.539,23.539,0,0,0-1.718-13.282" transform="translate(-44.021 -43.011)" fill="#455a64"/><path d="M156.976,148.98a1.175,1.175,0,0,1-.246-.05l-.69-.182c-.6-.152-1.473-.362-2.562-.567a71.383,71.383,0,0,0-8.588-1.059,58.655,58.655,0,0,0-8.649.026c-1.1.095-1.989.232-2.6.342l-.7.139a1.1,1.1,0,0,1-.248.034,1.166,1.166,0,0,1,.238-.075l.694-.177a22.906,22.906,0,0,1,2.6-.409,53.046,53.046,0,0,1,8.676-.086,63.2,63.2,0,0,1,8.6,1.121c1.088.224,1.959.456,2.555.633l.681.22a1.177,1.177,0,0,1,.233.09" transform="translate(-37.425 -41.398)" fill="#263238"/><g transform="translate(95.424 105.518)" opacity="0.3"><g clip-path="url(#o)"><path d="M132.909,147.675c7.282,1.289,14.664.012,22.37.924-7.441-1.541-15.19-2.271-22.37-.924" transform="translate(-132.909 -146.968)"/></g></g><g transform="translate(79.441 134.856)" opacity="0.3"><g clip-path="url(#p)"><path d="M113.852,218.355c-4.1-9.593-3.306-20.107-2.751-30.524Z" transform="translate(-110.648 -187.831)"/></g></g><path d="M110.764,180.092a.462.462,0,0,1,.019.111c.009.084.021.192.036.327.028.3.067.724.118,1.261.1,1.109.231,2.691.4,4.64.33,3.919.78,9.333,1.327,15.308s1.109,11.384,1.566,15.292c.225,1.954.42,3.535.557,4.627.065.536.117.957.154,1.258.014.136.025.243.034.327a.057.057,0,1,1-.021,0l-.055-.326c-.045-.3-.11-.719-.191-1.254-.162-1.089-.38-2.668-.622-4.622-.494-3.906-1.077-9.311-1.626-15.29s-.974-11.393-1.267-15.314c-.14-1.951-.253-3.535-.333-4.645-.034-.538-.06-.962-.08-1.264-.006-.136-.011-.245-.015-.329a.433.433,0,0,1,0-.113" transform="translate(-31.238 -50.792)" fill="#263238"/><path d="M142.518,172.959a1.648,1.648,0,0,1-.3.016l-.859.006c-.746,0-1.825.009-3.158.039-2.665.06-6.347.256-10.387.734s-7.666,1.157-10.271,1.725c-1.3.282-2.355.525-3.079.7l-.836.2a1.618,1.618,0,0,1-.3.055,1.763,1.763,0,0,1,.285-.095l.827-.233c.719-.2,1.766-.466,3.067-.768a97.244,97.244,0,0,1,20.687-2.461c1.335-.013,2.416,0,3.162.026l.859.033a1.6,1.6,0,0,1,.3.025" transform="translate(-31.963 -48.755)" fill="#263238"/><path d="M129.089,179.541c-.057,0,.05-4.359.239-9.73s.387-9.726.444-9.723-.05,4.357-.239,9.731-.387,9.725-.444,9.723" transform="translate(-36.403 -45.15)" fill="#263238"/><g transform="translate(81.946 124.296)" opacity="0.3"><g clip-path="url(#q)"><path d="M114.311,176.479a55.6,55.6,0,0,0,8.744-1.152,13.3,13.3,0,0,0-.49,3.911,8.969,8.969,0,0,0,1.944-3.578,5.415,5.415,0,0,0,2.206,3.619,11.841,11.841,0,0,0,.2-3.985q6.526-.787,12.966-2.146a87.905,87.905,0,0,0-25.74,3.2" transform="translate(-114.137 -173.122)"/></g></g><g transform="translate(117.038 137.452)" opacity="0.3"><g clip-path="url(#r)"><path d="M163.014,191.446s4.84,23.688,13.8,23.35l.17-3.484c-5.034-2.25-9.512-10.926-13.966-19.866" transform="translate(-163.014 -191.446)"/></g></g><path d="M203.513,206.675a3.328,3.328,0,0,1-.532.139l-1.54.331-5.674,1.155-8.423,1.669c-1.582.314-3.23.714-4.969,1.031a12.8,12.8,0,0,1-2.7.233,11.951,11.951,0,0,1-1.388-.08,3.959,3.959,0,0,1-1.4-.377.747.747,0,0,1-.247-.215l.109.083a6.284,6.284,0,0,1-2.41-1.424,18.138,18.138,0,0,1-1.862-1.936,42.489,42.489,0,0,1-2.964-4.086c-1.742-2.7-3.132-5.235-4.265-7.377s-1.992-3.9-2.575-5.126l-.659-1.412a3.351,3.351,0,0,1-.207-.5,3.194,3.194,0,0,1,.269.473l.717,1.383c.62,1.2,1.513,2.944,2.669,5.07s2.568,4.64,4.316,7.319a43.19,43.19,0,0,0,2.957,4.041,17.9,17.9,0,0,0,1.829,1.895,5.989,5.989,0,0,0,2.267,1.348l.109.083a1.4,1.4,0,0,0,.12.085,3.688,3.688,0,0,0,1.269.332,11.623,11.623,0,0,0,1.35.08,12.5,12.5,0,0,0,2.636-.223c1.722-.309,3.375-.7,4.965-1.01l8.438-1.6,5.7-1.047,1.552-.267a3.319,3.319,0,0,1,.546-.07" transform="translate(-45.635 -53.242)" fill="#263238"/><path d="M210.64,182.949a1.492,1.492,0,0,1-.345.062l-1,.12-3.759.393-12.993,1.244-.121.011-.057-.115a3.055,3.055,0,0,0-.938-1.259.984.984,0,0,0-1.317.3l-.2.239-.118-.281-1.58-3.792c-2.7-6.583-5-12.6-6.726-16.922-.861-2.164-1.579-3.906-2.094-5.1l-.607-1.37a2.721,2.721,0,0,1-.2-.485,2.746,2.746,0,0,1,.266.452c.167.3.391.755.673,1.343.557,1.18,1.314,2.909,2.206,5.062,1.793,4.3,4.13,10.3,6.827,16.881.538,1.3,1.068,2.571,1.574,3.789l-.315-.042a1.665,1.665,0,0,1,.826-.544,1.2,1.2,0,0,1,.976.17,3.359,3.359,0,0,1,1.068,1.417l-.178-.1,13-1.111,3.769-.289,1.007-.062a1.483,1.483,0,0,1,.35,0" transform="translate(-50.367 -43.994)" fill="#263238"/><path d="M167.674,156.331a20.419,20.419,0,0,0-3.975.312,9.493,9.493,0,0,0-3.873,1.757,10.074,10.074,0,0,0-3.041,4.2,14.761,14.761,0,0,0-1.027,5.147,28,28,0,0,0,.238,4.325c.151,1.228.315,2.22.416,2.906a6.157,6.157,0,0,1,.125,1.073,5.764,5.764,0,0,1-.268-1.047c-.145-.68-.349-1.665-.534-2.9a25.645,25.645,0,0,1-.32-4.371,14.632,14.632,0,0,1,1.025-5.278,10.209,10.209,0,0,1,3.176-4.332,9.477,9.477,0,0,1,4.031-1.744,12.547,12.547,0,0,1,2.952-.187c.348.022.618.047.8.076a.792.792,0,0,1,.275.059" transform="translate(-43.831 -44.048)" fill="#263238"/></g></g></g></g></svg>