<svg xmlns="http://www.w3.org/2000/svg" width="79.067" height="90.523" viewBox="0 0 79.067 90.523"><g transform="translate(-32.4)"><g transform="translate(33.734 1.318)"><path d="M425.092,136.5h-.012l-.526.309v9.105h7.978l.436-.372v-1.166A7.9,7.9,0,0,0,425.092,136.5Z" transform="translate(-356.554 -113.686)" fill="#ffa90f"/><path d="M171.7,8.724l-.564-1.267H132.48a2.921,2.921,0,0,0-2.921,2.921V15.42l1.215,1h32.411l10.641,10.343V39.93H181.4l.842-.615V18.558l-1.314-.581Z" transform="translate(-113.715 -7.457)" fill="#62ddfc"/><g transform="translate(15.844 0)"><path d="M138.619,10.378a2.921,2.921,0,0,1,2.921-2.921h-9.06a2.921,2.921,0,0,0-2.921,2.921V15.42l1.215,1h9.06l-1.215-1V10.378Z" transform="translate(-129.559 -7.457)" fill="#00d2fc"/></g><path d="M47.834,136.5h-.162a7.75,7.75,0,0,0-7.727,7.727v1.316l.763.211h7.72V137Z" transform="translate(-39.945 -113.686)" fill="#ffa90f"/><path d="M364.741,7.457v8.18a2.921,2.921,0,0,0,2.921,2.921h8.18Z" transform="translate(-307.316 -7.457)" fill="#00d2fc"/><path d="M126.826,54.171l-.681-1.673H87.485a2.921,2.921,0,0,0-2.921,2.921V76.393l1.146,1.146H134.1l3.146-1.146V63.6l-1.639-.765Z" transform="translate(-76.675 -44.535)" fill="#dbedff"/><path d="M93.625,55.418A2.921,2.921,0,0,1,96.546,52.5h-9.06a2.921,2.921,0,0,0-2.921,2.921V76.392l1.146,1.146h9.06l-1.146-1.146Z" transform="translate(-76.676 -44.534)" fill="#b5dcff"/><path d="M319.746,52.5v8.18a2.921,2.921,0,0,0,2.921,2.921h8.18Z" transform="translate(-270.276 -44.535)" fill="#b5dcff"/><path d="M369.515,15.637V12.231l-4.774-4.774v8.18a2.921,2.921,0,0,0,2.921,2.921h4.774A2.921,2.921,0,0,1,369.515,15.637Z" transform="translate(-307.316 -7.457)" fill="#00c2fb"/><path d="M324.52,60.678V57.272L319.746,52.5v8.18a2.921,2.921,0,0,0,2.921,2.921h4.774A2.921,2.921,0,0,1,324.52,60.678Z" transform="translate(-270.276 -44.535)" fill="#8bcaff"/><path d="M116.36,187.649H39.945v53.665a2.348,2.348,0,0,0,2.348,2.348h71.718a2.348,2.348,0,0,0,2.348-2.348Z" transform="translate(-39.945 -155.791)" fill="#ffd086"/><path d="M51.207,241.314V187.649H39.945v53.665a2.348,2.348,0,0,0,2.348,2.348H53.556A2.348,2.348,0,0,1,51.207,241.314Z" transform="translate(-39.945 -155.791)" fill="#ffc365"/><path d="M285.689,320h-28.14a1.5,1.5,0,0,0-1.5,1.5v22.15a1.5,1.5,0,0,0,1.5,1.5h28.14a1.5,1.5,0,0,0,1.5-1.5V321.5A1.5,1.5,0,0,0,285.689,320Z" transform="translate(-217.839 -264.743)" fill="#dbedff"/><path d="M263.108,343.655V321.5a1.5,1.5,0,0,1,1.5-1.5h-7.062a1.5,1.5,0,0,0-1.5,1.5v22.15a1.5,1.5,0,0,0,1.5,1.5h7.062A1.5,1.5,0,0,1,263.108,343.655Z" transform="translate(-217.839 -264.743)" fill="#b5dcff"/></g><g transform="translate(32.4 0)"><path d="M40.289,22.893A9.065,9.065,0,0,0,32.4,31.869v54.98a3.678,3.678,0,0,0,3.674,3.674h71.718a3.679,3.679,0,0,0,3.674-3.674v-24a1.326,1.326,0,0,0-2.652,0v24a1.023,1.023,0,0,1-1.022,1.022H36.074a1.023,1.023,0,0,1-1.022-1.022V34.51h73.763V56.66a1.326,1.326,0,0,0,2.652,0V32.018a9.216,9.216,0,0,0-7.889-9.107V12.427a1.332,1.332,0,0,0-.388-.938L92.089.388A1.339,1.339,0,0,0,91.151,0H52.491a4.252,4.252,0,0,0-4.247,4.247V7.963H44.536a4.252,4.252,0,0,0-4.247,4.247Zm0,8.965H35.052a6.413,6.413,0,0,1,5.237-6.285ZM103.578,25.6a6.562,6.562,0,0,1,5.235,6.258h-5.235ZM92.477,4.527,99.05,11.1H94.072a1.6,1.6,0,0,1-1.595-1.595ZM50.9,4.247a1.6,1.6,0,0,1,1.595-1.595H89.825V9.506a4.252,4.252,0,0,0,4.247,4.247h6.854V31.859h-5.3V20.39a1.332,1.332,0,0,0-.388-.938l-11.1-11.1a1.342,1.342,0,0,0-.938-.388H50.9ZM91.1,19.064H86.116a1.6,1.6,0,0,1-1.595-1.595V12.491ZM42.941,12.21a1.6,1.6,0,0,1,1.595-1.595H81.87v6.854a4.252,4.252,0,0,0,4.247,4.247h6.854V31.858H42.941Z" transform="translate(-32.4 0)"/><path d="M303.648,425.126H284.907a1.326,1.326,0,0,0,0,2.652h18.741a1.326,1.326,0,1,0,0-2.652Z" transform="translate(-239.171 -349.962)"/><path d="M303.648,397.5H284.907a1.326,1.326,0,0,0,0,2.652h18.741a1.326,1.326,0,1,0,0-2.652Z" transform="translate(-239.171 -327.22)"/><path d="M303.648,369.873H284.907a1.326,1.326,0,1,0,0,2.652h18.741a1.326,1.326,0,1,0,0-2.652Z" transform="translate(-239.171 -304.478)"/><path d="M303.648,342.246H284.907a1.326,1.326,0,1,0,0,2.652h18.741a1.326,1.326,0,1,0,0-2.652Z" transform="translate(-239.171 -281.736)"/><path d="M156.394,149.617H119.916a1.326,1.326,0,0,0,0,2.652h36.478a1.326,1.326,0,0,0,0-2.652Z" transform="translate(-103.351 -123.164)"/><path d="M119.915,124.643h30.7a1.326,1.326,0,0,0,0-2.652h-30.7a1.326,1.326,0,0,0,0,2.652Z" transform="translate(-103.351 -100.423)"/><path d="M262.3,312.545H251.329a2.832,2.832,0,0,0-2.829,2.829v22.15a2.832,2.832,0,0,0,2.829,2.829h28.14a2.832,2.832,0,0,0,2.829-2.829v-22.15a2.832,2.832,0,0,0-2.829-2.829H268.493a1.326,1.326,0,1,0,0,2.652h10.976a.177.177,0,0,1,.177.177v22.15a.177.177,0,0,1-.177.177h-28.14a.177.177,0,0,1-.177-.177v-22.15a.177.177,0,0,1,.177-.177H262.3a1.326,1.326,0,0,0,0-2.652Z" transform="translate(-210.293 -257.286)"/></g></g></svg>