<svg xmlns="http://www.w3.org/2000/svg" width="220.688" height="203.117" viewBox="0 0 220.688 203.117"><g transform="translate(2428 7968.617)"><g transform="translate(-3193 -14564.059)"><g transform="translate(765.378 6601.417)"><path d="M115.9,0A33.619,33.619,0,0,0,92.127,9.847L0,101.974H35.193a33.619,33.619,0,0,0,23.773-9.847L151.093,0Z" transform="matrix(0.998, -0.07, 0.07, 0.998, -0.379, 4.564)" fill="#fde2e2"/><path d="M144.875,0a42.024,42.024,0,0,0-29.716,12.309L0,127.468H43.991a42.024,42.024,0,0,0,29.716-12.309L188.866,0Z" transform="matrix(0.998, -0.07, 0.07, 0.998, 23.012, 69.985)" fill="#fde2e2"/></g><g transform="translate(808.885 6629.468)"><path d="M250.166,200.463H233.5V142.271a6.65,6.65,0,0,1,6.65-6.65h3.371a6.649,6.649,0,0,1,6.65,6.65Zm0,0" transform="translate(-174.263 -101.434)" fill="#abebf4"/><path d="M250.166,280.238a90.586,90.586,0,0,1-16.67,5.939v22.448h16.67Zm0,0" transform="translate(-174.263 -209.595)" fill="#8ed7e8"/><path d="M155.311,246.572h-16.67v-43.5a5.8,5.8,0,0,1,5.8-5.8h5.073a5.8,5.8,0,0,1,5.8,5.8Zm0,0" transform="translate(-103.319 -147.542)" fill="#b2e59c"/><path d="M345.025,137.149h-16.67V70a6.607,6.607,0,0,1,6.607-6.607h3.454A6.608,6.608,0,0,1,345.025,70Zm0,0" transform="translate(-245.21 -47.415)" fill="#ffde55"/><path d="M345.022,218.594a108.77,108.77,0,0,1-16.671,11.778v22.854h16.671Zm0,0" transform="translate(-245.207 -163.491)" fill="#ffcd00"/><path d="M109.477,253.989,142.995,236.2a5.606,5.606,0,0,1,8.122,6.07,16.24,16.24,0,0,1-5.559,9.639l-3.436,2.784a2.33,2.33,0,0,0,1.466,4.142l13.775.006a21.8,21.8,0,0,0,12.55-3.968l15.395-10.826a7.237,7.237,0,0,1,8.757,11.511L173.9,272.124a21.8,21.8,0,0,1-8.655,4.331l-44.2,10.822Zm0,0" transform="translate(-81.507 -176.157)" fill="#ffe2d9"/><path d="M128.046,315.487c-12.694-3.725-11.748-21.093-11.748-21.093l-6.821,3.621,11.57,33.288,33.689-8.249c-7.1-1.972-18.517-5.169-26.69-7.566Zm0,0" transform="translate(-81.507 -220.183)" fill="#ffcfc2"/><path d="M35.828,308.758l12.524,33.425a9.764,9.764,0,0,1-6.98,12.948l-11.978,2.721a9.765,9.765,0,0,1-11.612-7.065l-6.451-24.819a10.057,10.057,0,0,1,6.971-12.2Zm0,0" transform="translate(-7.858 -230.926)" fill="#8ed7e8"/><path d="M48.352,353.168,46.4,347.956a32.3,32.3,0,0,0-14.814-2.623A9.8,9.8,0,0,1,21.36,335.243a67.6,67.6,0,0,1,1.512-11.8L18.3,324.751a10.058,10.058,0,0,0-6.971,12.2l6.451,24.818a9.765,9.765,0,0,0,11.612,7.066l11.978-2.721a9.765,9.765,0,0,0,6.98-12.948Zm0,0" transform="translate(-7.858 -241.911)" fill="#7ac1dd"/><path d="M82.935,432.3a5.558,5.558,0,1,1-5.558-5.558A5.558,5.558,0,0,1,82.935,432.3Zm0,0" transform="translate(-53.343 -319.166)" fill="#ffeb99"/><path d="M77.187,7.5H62.069a3.925,3.925,0,1,0,0,7.85h5.38L51.682,30.528l-7.476-3.867a3.926,3.926,0,0,0-4.59.722L9.127,58.107a3.925,3.925,0,0,0,5.572,5.53L43.16,34.958l7.415,3.835a3.927,3.927,0,0,0,4.526-.659L73.262,20.652v6.023a3.925,3.925,0,1,0,7.85,0V11.425s0-.008,0-.012A3.636,3.636,0,0,0,77.187,7.5Zm0,0" transform="translate(-5.601 -5.609)" fill="#97f7e5"/><path d="M116.735,109.231c-5.931-5.9-12.786-.378-12.786-.378V77.771a1.891,1.891,0,1,0-3.781,0v33.742s-9.015,7.107-12.89,8.844V64.392A4.723,4.723,0,0,1,92,59.674H95.45a4.723,4.723,0,0,1,4.718,4.718v5.639a1.891,1.891,0,1,0,3.781,0V64.392a8.508,8.508,0,0,0-8.5-8.5H92a8.508,8.508,0,0,0-8.5,8.5v57.463a19.851,19.851,0,0,1-3.46.644V82.641A8.551,8.551,0,0,0,71.5,74.1H68.126a8.551,8.551,0,0,0-8.54,8.541V101.9l-3.46,1.837v-6.41a7.7,7.7,0,0,0-7.689-7.689H43.363a7.7,7.7,0,0,0-7.688,7.689V114.6L29.5,117.873l-17.335,4.954a11.948,11.948,0,0,0-8.28,14.494l1.939,7.46a1.89,1.89,0,1,0,3.659-.951l-1.939-7.46a8.119,8.119,0,0,1,5.661-9.907l15.849-4.53,11.912,31.792a8.467,8.467,0,0,1-5.628,10.441l-11.978,2.721a7.839,7.839,0,0,1-9.364-5.7l-2.431-9.357a1.891,1.891,0,0,0-3.66.951l2.432,9.357a11.594,11.594,0,0,0,11.233,8.729c3.82,0,14.6-3.016,14.6-3.016A11.651,11.651,0,0,0,45,154.083l41.436-10.144a23.843,23.843,0,0,0,9.406-4.708L116,122.662c6.148-5.452,2.541-11.632.734-13.431ZM68.126,77.881H71.5a4.765,4.765,0,0,1,4.759,4.76v39.952l-11.93,0c-1.1-.01-.337-.734-.278-.783l3.436-2.783a17.965,17.965,0,0,0,6.221-10.731,7.5,7.5,0,0,0-10.338-8.369V82.641a4.765,4.765,0,0,1,4.759-4.76Zm-28.67,19.45a3.912,3.912,0,0,1,3.907-3.908h5.073a3.913,3.913,0,0,1,3.908,3.908v8.417L39.456,112.59ZM113.6,119.742,93.438,136.31a20.028,20.028,0,0,1-7.905,3.956l-41.741,10.22L32.566,120.528l32.052-17.014A3.715,3.715,0,0,1,70,107.536a14.289,14.289,0,0,1-4.9,8.548l-3.436,2.784a4.221,4.221,0,0,0,2.656,7.5l13.776.006h.009a23.574,23.574,0,0,0,13.629-4.313l15.394-10.826a5.327,5.327,0,0,1,6.9.636c1.06,1.084,3.135,4.3-.429,7.869Zm0,0" transform="translate(-2.243 -41.804)"/><path d="M79.217,426.687a7.448,7.448,0,1,0-7.448,7.448A7.457,7.457,0,0,0,79.217,426.687Zm-11.115,0a3.667,3.667,0,1,1,3.667,3.667A3.671,3.671,0,0,1,68.1,426.687Zm0,0" transform="translate(-47.733 -313.556)"/><path d="M10.44,59.36,37.923,31.665l6.181,3.2a5.814,5.814,0,0,0,6.706-.976l14.959-14.4s-.412,7.4,5.817,7.4A5.823,5.823,0,0,0,77.4,21.066V5.815c0-.018,0-.036,0-.055A5.5,5.5,0,0,0,71.586,0H56.468a5.822,5.822,0,0,0-5.816,5.816c0,6.393,6.506,5.816,6.506,5.816L45.745,22.616l-6.272-3.244a5.793,5.793,0,0,0-6.8,1.068L2.184,51.166a5.823,5.823,0,0,0,.032,8.225,5.734,5.734,0,0,0,8.225-.032ZM4.867,53.83,35.358,23.1a1.718,1.718,0,0,1,2.379-.373L45.212,26.6a1.89,1.89,0,0,0,2.18-.317L63.159,11.1a1.891,1.891,0,0,0-1.311-3.252h-5.38a2.035,2.035,0,0,1,0-4.07H71.586A1.777,1.777,0,0,1,73.619,5.8c0,.017,0,.033,0,.051V21.066a2.034,2.034,0,1,1-4.069,0V15.043a1.891,1.891,0,0,0-3.2-1.362L48.188,31.163a2.034,2.034,0,0,1-2.346.342L38.427,27.67a1.892,1.892,0,0,0-2.211.348L7.756,56.7a1.949,1.949,0,0,1-2.877.011,2.037,2.037,0,0,1-.012-2.877Zm0,0" transform="translate(0 0)"/></g></g></g></svg>