<svg xmlns="http://www.w3.org/2000/svg" xmlns:xlink="http://www.w3.org/1999/xlink" width="925" height="482.905" viewBox="0 0 925 482.905"><defs><clipPath id="a"><rect width="925" height="482.905" fill="none"/></clipPath></defs><g transform="translate(-338 -4506.544)"><g transform="translate(53)"><g transform="translate(285 4506.544)"><g clip-path="url(#a)"><path d="M9.453,0H276.045A9.453,9.453,0,0,1,285.5,9.453V121.889a9.451,9.451,0,0,1-9.451,9.451H9.451A9.451,9.451,0,0,1,0,121.889V9.453A9.453,9.453,0,0,1,9.453,0Z" transform="translate(6.235 8.313)" fill="#ccc"/><path d="M383.137,489.721a8.7,8.7,0,0,1-8.7,8.7h-268.1a8.7,8.7,0,0,1-8.695-8.7V202.546a8.693,8.693,0,0,1,8.695-8.695h268.1a8.7,8.7,0,0,1,8.7,8.695Z" transform="translate(-7.814 -15.513)" fill="#ccc"/><path d="M9.453,0H276.047A9.451,9.451,0,0,1,285.5,9.451V295.116a9.451,9.451,0,0,1-9.451,9.451H9.451A9.451,9.451,0,0,1,0,295.116V9.453A9.453,9.453,0,0,1,9.453,0Z" transform="translate(83.591 170.025)" fill="#f8f8f8"/><path d="M285.5,122.644a8.7,8.7,0,0,1-8.7,8.7H8.695A8.7,8.7,0,0,1,0,122.644V8.695A8.693,8.693,0,0,1,8.695,0H276.8a8.7,8.7,0,0,1,8.7,8.695Z" fill="#f8f8f8"/><path d="M68.429,122.929a4.135,4.135,0,0,0,3.4-1.784l42.346-51.393a4.124,4.124,0,0,0-.121-5.252L71.83,13.26a4.129,4.129,0,0,0-3.4-1.79H17.623a6.35,6.35,0,0,0-6.349,6.354v98.719a6.35,6.35,0,0,0,6.349,6.355Z" transform="translate(-0.902 -0.918)" fill="#2c78dc"/><path d="M888.287,489.721a8.7,8.7,0,0,1-8.7,8.7h-268.1a8.7,8.7,0,0,1-8.695-8.7V202.546a8.693,8.693,0,0,1,8.695-8.695h268.1a8.7,8.7,0,0,1,8.7,8.695Z" transform="translate(-48.238 -15.513)" fill="#ccc"/><path d="M881.51,480.684a8.7,8.7,0,0,1-8.7,8.7h-268.1a8.7,8.7,0,0,1-8.695-8.7V193.509a8.693,8.693,0,0,1,8.695-8.695h268.1a8.7,8.7,0,0,1,8.7,8.695Z" transform="translate(-47.696 -14.79)" fill="#f8f8f8"/><path d="M9.453,0H276.047A9.451,9.451,0,0,1,285.5,9.451V121.889a9.451,9.451,0,0,1-9.451,9.451H9.451A9.451,9.451,0,0,1,0,121.889V9.453A9.453,9.453,0,0,1,9.453,0Z" transform="translate(317.416 8.313)" fill="#ccc"/><path d="M623.747,122.644a8.7,8.7,0,0,1-8.7,8.7h-268.1a8.7,8.7,0,0,1-8.695-8.7V8.695A8.693,8.693,0,0,1,346.944,0h268.1a8.7,8.7,0,0,1,8.7,8.695Z" transform="translate(-27.068)" fill="#f8f8f8"/><path d="M406.679,122.929a4.135,4.135,0,0,0,3.4-1.784l42.346-51.393A4.124,4.124,0,0,0,452.3,64.5L410.08,13.26a4.129,4.129,0,0,0-3.4-1.79H355.873a6.35,6.35,0,0,0-6.349,6.354v98.719a6.35,6.35,0,0,0,6.349,6.355Z" transform="translate(-27.971 -0.918)" fill="#2953a7"/><path d="M544.234,334.75,502.01,283.511a4.132,4.132,0,0,0-3.4-1.79H470.952a4.13,4.13,0,0,1,3.4,1.79l42.223,51.239A4.125,4.125,0,0,1,516.7,340L474.354,391.4a4.136,4.136,0,0,1-3.138,1.767l27.392.017a4.138,4.138,0,0,0,3.4-1.784L544.356,340a4.125,4.125,0,0,0-.122-5.252" transform="translate(-37.688 -22.545)" fill="#2953a7"/><path d="M9.453,0H276.047A9.451,9.451,0,0,1,285.5,9.451V121.889a9.451,9.451,0,0,1-9.451,9.451H9.451A9.451,9.451,0,0,1,0,121.889V9.453A9.453,9.453,0,0,1,9.453,0Z" transform="translate(639.502 8.313)" fill="#ccc"/><path d="M973.85,122.644a8.7,8.7,0,0,1-8.7,8.7h-268.1a8.7,8.7,0,0,1-8.695-8.7V8.695A8.693,8.693,0,0,1,697.047,0h268.1a8.7,8.7,0,0,1,8.7,8.695Z" transform="translate(-55.085)" fill="#f8f8f8"/><path d="M756.782,122.929a4.135,4.135,0,0,0,3.4-1.784l42.345-51.393a4.124,4.124,0,0,0-.121-5.252L760.183,13.26a4.129,4.129,0,0,0-3.4-1.79H705.976a6.35,6.35,0,0,0-6.349,6.354v98.719a6.35,6.35,0,0,0,6.349,6.355Z" transform="translate(-55.988 -0.918)" fill="#183164"/></g></g><text transform="translate(419.757 4549.563)" fill="#12263f" font-size="18" font-family="Roboto-Black, Roboto" font-weight="800"><tspan x="9.224" y="19">Factores de </tspan><tspan x="15.776" y="44">productos</tspan></text><text transform="translate(719.562 4549.563)" fill="#12263f" font-size="18" font-family="Roboto-Black, Roboto" font-weight="800"><tspan x="24.962" y="19">Producción </tspan><tspan x="4" y="44">(valor agregado)</tspan></text><text transform="translate(1043 4555.563)" fill="#12263f" font-size="18" font-family="Roboto-Black, Roboto" font-weight="800"><tspan x="28.23" y="19">Producto </tspan><tspan x="32.423" y="44">(output)</tspan></text><text transform="translate(431.392 4794.413)" fill="#12263f" font-size="18" font-family="Roboto-Black, Roboto" font-weight="800"><tspan x="23.721" y="19">Los 4 factores:</tspan></text><text transform="translate(427.378 4834.5)" fill="#12263f" font-size="16" font-family="Roboto-Regular, Roboto"><tspan x="0" y="17">Recursos naturales</tspan><tspan x="0" y="45">Trabajo</tspan><tspan x="0" y="73">Capital</tspan><tspan x="0" y="101">Iniciativa empresarial</tspan></text><path d="M28.208,4.676a.637.637,0,0,1-.177.69L26.816,6.472a5.35,5.35,0,0,1,0,1.426L28.031,9a.637.637,0,0,1,.177.69,7.125,7.125,0,0,1-.441.963l-.132.227a7.4,7.4,0,0,1-.62.878.642.642,0,0,1-.688.191l-1.563-.5a6.141,6.141,0,0,1-1.235.716l-.351,1.6a.673.673,0,0,1-.511.5,7.334,7.334,0,0,1-1.218.1,7.178,7.178,0,0,1-1.168-.1.673.673,0,0,1-.511-.5l-.351-1.6a5.516,5.516,0,0,1-1.235-.716l-1.562.5a.641.641,0,0,1-.688-.191,7.365,7.365,0,0,1-.621-.878l-.131-.227a7,7,0,0,1-.443-.963A.638.638,0,0,1,14.918,9L16.132,7.9a5.445,5.445,0,0,1,0-1.426L14.918,5.366a.636.636,0,0,1-.178-.69,7.034,7.034,0,0,1,.443-.963l.131-.227a7.271,7.271,0,0,1,.621-.877.637.637,0,0,1,.688-.191l1.562.5A5.4,5.4,0,0,1,19.42,2.2L19.771.6a.637.637,0,0,1,.511-.5,7.271,7.271,0,0,1,2.386,0,.637.637,0,0,1,.511.5l.351,1.6a5.993,5.993,0,0,1,1.235.715l1.563-.5a.639.639,0,0,1,.688.191,7.267,7.267,0,0,1,.62.877l.132.227a7.124,7.124,0,0,1,.441.963ZM21.474,9.43A2.258,2.258,0,1,0,19.229,7.16,2.25,2.25,0,0,0,21.474,9.43Z" transform="translate(395.882 4838.449)" fill="#f14141"/><path d="M28.208,4.676a.637.637,0,0,1-.177.69L26.816,6.472a5.35,5.35,0,0,1,0,1.426L28.031,9a.637.637,0,0,1,.177.69,7.125,7.125,0,0,1-.441.963l-.132.227a7.4,7.4,0,0,1-.62.878.642.642,0,0,1-.688.191l-1.563-.5a6.141,6.141,0,0,1-1.235.716l-.351,1.6a.673.673,0,0,1-.511.5,7.334,7.334,0,0,1-1.218.1,7.178,7.178,0,0,1-1.168-.1.673.673,0,0,1-.511-.5l-.351-1.6a5.516,5.516,0,0,1-1.235-.716l-1.562.5a.641.641,0,0,1-.688-.191,7.365,7.365,0,0,1-.621-.878l-.131-.227a7,7,0,0,1-.443-.963A.638.638,0,0,1,14.918,9L16.132,7.9a5.445,5.445,0,0,1,0-1.426L14.918,5.366a.636.636,0,0,1-.178-.69,7.034,7.034,0,0,1,.443-.963l.131-.227a7.271,7.271,0,0,1,.621-.877.637.637,0,0,1,.688-.191l1.562.5A5.4,5.4,0,0,1,19.42,2.2L19.771.6a.637.637,0,0,1,.511-.5,7.271,7.271,0,0,1,2.386,0,.637.637,0,0,1,.511.5l.351,1.6a5.993,5.993,0,0,1,1.235.715l1.563-.5a.639.639,0,0,1,.688.191,7.267,7.267,0,0,1,.62.877l.132.227a7.124,7.124,0,0,1,.441.963ZM21.474,9.43A2.258,2.258,0,1,0,19.229,7.16,2.25,2.25,0,0,0,21.474,9.43Z" transform="translate(395.882 4865.173)" fill="#f14141"/><path d="M28.208,4.676a.637.637,0,0,1-.177.69L26.816,6.472a5.35,5.35,0,0,1,0,1.426L28.031,9a.637.637,0,0,1,.177.69,7.125,7.125,0,0,1-.441.963l-.132.227a7.4,7.4,0,0,1-.62.878.642.642,0,0,1-.688.191l-1.563-.5a6.141,6.141,0,0,1-1.235.716l-.351,1.6a.673.673,0,0,1-.511.5,7.334,7.334,0,0,1-1.218.1,7.178,7.178,0,0,1-1.168-.1.673.673,0,0,1-.511-.5l-.351-1.6a5.516,5.516,0,0,1-1.235-.716l-1.562.5a.641.641,0,0,1-.688-.191,7.365,7.365,0,0,1-.621-.878l-.131-.227a7,7,0,0,1-.443-.963A.638.638,0,0,1,14.918,9L16.132,7.9a5.445,5.445,0,0,1,0-1.426L14.918,5.366a.636.636,0,0,1-.178-.69,7.034,7.034,0,0,1,.443-.963l.131-.227a7.271,7.271,0,0,1,.621-.877.637.637,0,0,1,.688-.191l1.562.5A5.4,5.4,0,0,1,19.42,2.2L19.771.6a.637.637,0,0,1,.511-.5,7.271,7.271,0,0,1,2.386,0,.637.637,0,0,1,.511.5l.351,1.6a5.993,5.993,0,0,1,1.235.715l1.563-.5a.639.639,0,0,1,.688.191,7.267,7.267,0,0,1,.62.877l.132.227a7.124,7.124,0,0,1,.441.963ZM21.474,9.43A2.258,2.258,0,1,0,19.229,7.16,2.25,2.25,0,0,0,21.474,9.43Z" transform="translate(395.882 4891.846)" fill="#f14141"/><path d="M28.208,4.676a.637.637,0,0,1-.177.69L26.816,6.472a5.35,5.35,0,0,1,0,1.426L28.031,9a.637.637,0,0,1,.177.69,7.125,7.125,0,0,1-.441.963l-.132.227a7.4,7.4,0,0,1-.62.878.642.642,0,0,1-.688.191l-1.563-.5a6.141,6.141,0,0,1-1.235.716l-.351,1.6a.673.673,0,0,1-.511.5,7.334,7.334,0,0,1-1.218.1,7.178,7.178,0,0,1-1.168-.1.673.673,0,0,1-.511-.5l-.351-1.6a5.516,5.516,0,0,1-1.235-.716l-1.562.5a.641.641,0,0,1-.688-.191,7.365,7.365,0,0,1-.621-.878l-.131-.227a7,7,0,0,1-.443-.963A.638.638,0,0,1,14.918,9L16.132,7.9a5.445,5.445,0,0,1,0-1.426L14.918,5.366a.636.636,0,0,1-.178-.69,7.034,7.034,0,0,1,.443-.963l.131-.227a7.271,7.271,0,0,1,.621-.877.637.637,0,0,1,.688-.191l1.562.5A5.4,5.4,0,0,1,19.42,2.2L19.771.6a.637.637,0,0,1,.511-.5,7.271,7.271,0,0,1,2.386,0,.637.637,0,0,1,.511.5l.351,1.6a5.993,5.993,0,0,1,1.235.715l1.563-.5a.639.639,0,0,1,.688.191,7.267,7.267,0,0,1,.62.877l.132.227a7.124,7.124,0,0,1,.441.963ZM21.474,9.43A2.258,2.258,0,1,0,19.229,7.16,2.25,2.25,0,0,0,21.474,9.43Z" transform="translate(395.882 4918.57)" fill="#f14141"/><text transform="translate(877.661 4794.413)" fill="#12263f" font-size="18" font-family="Roboto-Black, Roboto" font-weight="800"><tspan x="75.811" y="19">5 M’s:</tspan></text><text transform="translate(879.661 4836.5)" fill="#12263f" font-size="16" font-family="Roboto-Regular, Roboto"><tspan x="0" y="17">Materials: Materiales</tspan><tspan x="0" y="43">Machinery - Maquinaria</tspan><tspan x="0" y="69" xml:space="preserve">Money:  Capital</tspan><tspan x="0" y="95">Manpower – Fuerza laboral</tspan><tspan x="0" y="121">Management - Administración</tspan></text><path d="M28.208,4.676a.637.637,0,0,1-.177.69L26.816,6.472a5.35,5.35,0,0,1,0,1.426L28.031,9a.637.637,0,0,1,.177.69,7.125,7.125,0,0,1-.441.963l-.132.227a7.4,7.4,0,0,1-.62.878.642.642,0,0,1-.688.191l-1.563-.5a6.141,6.141,0,0,1-1.235.716l-.351,1.6a.673.673,0,0,1-.511.5,7.334,7.334,0,0,1-1.218.1,7.178,7.178,0,0,1-1.168-.1.673.673,0,0,1-.511-.5l-.351-1.6a5.516,5.516,0,0,1-1.235-.716l-1.562.5a.641.641,0,0,1-.688-.191,7.365,7.365,0,0,1-.621-.878l-.131-.227a7,7,0,0,1-.443-.963A.638.638,0,0,1,14.918,9L16.132,7.9a5.445,5.445,0,0,1,0-1.426L14.918,5.366a.636.636,0,0,1-.178-.69,7.034,7.034,0,0,1,.443-.963l.131-.227a7.271,7.271,0,0,1,.621-.877.637.637,0,0,1,.688-.191l1.562.5A5.4,5.4,0,0,1,19.42,2.2L19.771.6a.637.637,0,0,1,.511-.5,7.271,7.271,0,0,1,2.386,0,.637.637,0,0,1,.511.5l.351,1.6a5.993,5.993,0,0,1,1.235.715l1.563-.5a.639.639,0,0,1,.688.191,7.267,7.267,0,0,1,.62.877l.132.227a7.124,7.124,0,0,1,.441.963ZM21.474,9.43A2.258,2.258,0,1,0,19.229,7.16,2.25,2.25,0,0,0,21.474,9.43Z" transform="translate(849.893 4838.449)" fill="#f14141"/><path d="M28.208,4.676a.637.637,0,0,1-.177.69L26.816,6.472a5.35,5.35,0,0,1,0,1.426L28.031,9a.637.637,0,0,1,.177.69,7.125,7.125,0,0,1-.441.963l-.132.227a7.4,7.4,0,0,1-.62.878.642.642,0,0,1-.688.191l-1.563-.5a6.141,6.141,0,0,1-1.235.716l-.351,1.6a.673.673,0,0,1-.511.5,7.334,7.334,0,0,1-1.218.1,7.178,7.178,0,0,1-1.168-.1.673.673,0,0,1-.511-.5l-.351-1.6a5.516,5.516,0,0,1-1.235-.716l-1.562.5a.641.641,0,0,1-.688-.191,7.365,7.365,0,0,1-.621-.878l-.131-.227a7,7,0,0,1-.443-.963A.638.638,0,0,1,14.918,9L16.132,7.9a5.445,5.445,0,0,1,0-1.426L14.918,5.366a.636.636,0,0,1-.178-.69,7.034,7.034,0,0,1,.443-.963l.131-.227a7.271,7.271,0,0,1,.621-.877.637.637,0,0,1,.688-.191l1.562.5A5.4,5.4,0,0,1,19.42,2.2L19.771.6a.637.637,0,0,1,.511-.5,7.271,7.271,0,0,1,2.386,0,.637.637,0,0,1,.511.5l.351,1.6a5.993,5.993,0,0,1,1.235.715l1.563-.5a.639.639,0,0,1,.688.191,7.267,7.267,0,0,1,.62.877l.132.227a7.124,7.124,0,0,1,.441.963ZM21.474,9.43A2.258,2.258,0,1,0,19.229,7.16,2.25,2.25,0,0,0,21.474,9.43Z" transform="translate(849.893 4864.06)" fill="#f14141"/><path d="M28.208,4.676a.637.637,0,0,1-.177.69L26.816,6.472a5.35,5.35,0,0,1,0,1.426L28.031,9a.637.637,0,0,1,.177.69,7.125,7.125,0,0,1-.441.963l-.132.227a7.4,7.4,0,0,1-.62.878.642.642,0,0,1-.688.191l-1.563-.5a6.141,6.141,0,0,1-1.235.716l-.351,1.6a.673.673,0,0,1-.511.5,7.334,7.334,0,0,1-1.218.1,7.178,7.178,0,0,1-1.168-.1.673.673,0,0,1-.511-.5l-.351-1.6a5.516,5.516,0,0,1-1.235-.716l-1.562.5a.641.641,0,0,1-.688-.191,7.365,7.365,0,0,1-.621-.878l-.131-.227a7,7,0,0,1-.443-.963A.638.638,0,0,1,14.918,9L16.132,7.9a5.445,5.445,0,0,1,0-1.426L14.918,5.366a.636.636,0,0,1-.178-.69,7.034,7.034,0,0,1,.443-.963l.131-.227a7.271,7.271,0,0,1,.621-.877.637.637,0,0,1,.688-.191l1.562.5A5.4,5.4,0,0,1,19.42,2.2L19.771.6a.637.637,0,0,1,.511-.5,7.271,7.271,0,0,1,2.386,0,.637.637,0,0,1,.511.5l.351,1.6a5.993,5.993,0,0,1,1.235.715l1.563-.5a.639.639,0,0,1,.688.191,7.267,7.267,0,0,1,.62.877l.132.227a7.124,7.124,0,0,1,.441.963ZM21.474,9.43A2.258,2.258,0,1,0,19.229,7.16,2.25,2.25,0,0,0,21.474,9.43Z" transform="translate(849.893 4891.965)" fill="#f14141"/><path d="M28.208,4.676a.637.637,0,0,1-.177.69L26.816,6.472a5.35,5.35,0,0,1,0,1.426L28.031,9a.637.637,0,0,1,.177.69,7.125,7.125,0,0,1-.441.963l-.132.227a7.4,7.4,0,0,1-.62.878.642.642,0,0,1-.688.191l-1.563-.5a6.141,6.141,0,0,1-1.235.716l-.351,1.6a.673.673,0,0,1-.511.5,7.334,7.334,0,0,1-1.218.1,7.178,7.178,0,0,1-1.168-.1.673.673,0,0,1-.511-.5l-.351-1.6a5.516,5.516,0,0,1-1.235-.716l-1.562.5a.641.641,0,0,1-.688-.191,7.365,7.365,0,0,1-.621-.878l-.131-.227a7,7,0,0,1-.443-.963A.638.638,0,0,1,14.918,9L16.132,7.9a5.445,5.445,0,0,1,0-1.426L14.918,5.366a.636.636,0,0,1-.178-.69,7.034,7.034,0,0,1,.443-.963l.131-.227a7.271,7.271,0,0,1,.621-.877.637.637,0,0,1,.688-.191l1.562.5A5.4,5.4,0,0,1,19.42,2.2L19.771.6a.637.637,0,0,1,.511-.5,7.271,7.271,0,0,1,2.386,0,.637.637,0,0,1,.511.5l.351,1.6a5.993,5.993,0,0,1,1.235.715l1.563-.5a.639.639,0,0,1,.688.191,7.267,7.267,0,0,1,.62.877l.132.227a7.124,7.124,0,0,1,.441.963ZM21.474,9.43A2.258,2.258,0,1,0,19.229,7.16,2.25,2.25,0,0,0,21.474,9.43Z" transform="translate(849.893 4917.576)" fill="#f14141"/><path d="M28.208,4.676a.637.637,0,0,1-.177.69L26.816,6.472a5.35,5.35,0,0,1,0,1.426L28.031,9a.637.637,0,0,1,.177.69,7.125,7.125,0,0,1-.441.963l-.132.227a7.4,7.4,0,0,1-.62.878.642.642,0,0,1-.688.191l-1.563-.5a6.141,6.141,0,0,1-1.235.716l-.351,1.6a.673.673,0,0,1-.511.5,7.334,7.334,0,0,1-1.218.1,7.178,7.178,0,0,1-1.168-.1.673.673,0,0,1-.511-.5l-.351-1.6a5.516,5.516,0,0,1-1.235-.716l-1.562.5a.641.641,0,0,1-.688-.191,7.365,7.365,0,0,1-.621-.878l-.131-.227a7,7,0,0,1-.443-.963A.638.638,0,0,1,14.918,9L16.132,7.9a5.445,5.445,0,0,1,0-1.426L14.918,5.366a.636.636,0,0,1-.178-.69,7.034,7.034,0,0,1,.443-.963l.131-.227a7.271,7.271,0,0,1,.621-.877.637.637,0,0,1,.688-.191l1.562.5A5.4,5.4,0,0,1,19.42,2.2L19.771.6a.637.637,0,0,1,.511-.5,7.271,7.271,0,0,1,2.386,0,.637.637,0,0,1,.511.5l.351,1.6a5.993,5.993,0,0,1,1.235.715l1.563-.5a.639.639,0,0,1,.688.191,7.267,7.267,0,0,1,.62.877l.132.227a7.124,7.124,0,0,1,.441.963ZM21.474,9.43A2.258,2.258,0,1,0,19.229,7.16,2.25,2.25,0,0,0,21.474,9.43Z" transform="translate(849.893 4943.187)" fill="#f14141"/><g transform="translate(937.002 4544.131)"><path d="M54.4,23.3a4.414,4.414,0,0,0-6.25,0l-7.573,7.566a5.906,5.906,0,0,1-5.12,8.847H27.868a.843.843,0,0,1,0-1.687h7.591a4.219,4.219,0,0,0,4.217-4.217,4.168,4.168,0,0,0-.354-1.687,4.22,4.22,0,0,0-3.863-2.53H19a5.855,5.855,0,0,0-4.175,1.729L11,35.141v.008L23.154,47.3h.008l1.678-1.687h10a8.377,8.377,0,0,0,5.963-2.471l13.6-13.6a4.408,4.408,0,0,0,0-6.25Z" transform="translate(-1.723 -3.289)" fill="#fff"/><path d="M.244,45.841a.85.85,0,0,0,0,1.2L12.9,59.69a.855.855,0,0,0,1.2,0l2.429-2.421L2.673,43.42Z" transform="translate(0 -6.642)" fill="#fff"/><path d="M6.623,36.66a.843.843,0,0,0-1.192,0L3.242,38.841a.846.846,0,0,0,0,1.194L19.269,56.062a.855.855,0,0,0,1.2,0l2.185-2.178a.843.843,0,0,0,0-1.194Z" transform="translate(-0.469 -5.545)" fill="#fff"/><path d="M41.247,26.244l7.439-7.431A6.068,6.068,0,0,1,53,17.025a6.28,6.28,0,0,1,1.054.093V4.374A3.373,3.373,0,0,0,50.676,1H43.085v9.278a.846.846,0,0,1-.843.843H33.808a.846.846,0,0,1-.843-.843V1H25.374A3.373,3.373,0,0,0,22,4.374V24.616H37.182a5.864,5.864,0,0,1,4.065,1.628ZM30.434,22.085H25.374a.843.843,0,0,1,0-1.687h5.061a.843.843,0,1,1,0,1.687Zm5.061-3.374H25.374a.843.843,0,0,1,0-1.687H35.495a.843.843,0,1,1,0,1.687Z" transform="translate(-3.445 0)" fill="#fff"/><path d="M37,1h6.747V9.434H37Z" transform="translate(-5.794 0)" fill="#fff"/></g><g transform="translate(597 4504.489)"><path d="M131.874,111.665,152.9,99.527l-9.888-5.709-21.024,12.138Z" transform="translate(-87.001 -46.672)" fill="#fff"/><path d="M44.067,165.224,23,153.085v24.28L44.067,189.5Z" transform="translate(0 -98.763)" fill="#fff"/><rect width="2.3" height="2.3" transform="translate(62.713 78.89)" fill="#fff"/><path d="M211,165.224V189.5l11.5-6.651V165.325a3.637,3.637,0,0,1,3.619-3.654h3.016a2.97,2.97,0,0,1,2.835-2.179h-.026v-6.407Z" transform="translate(-165.238 -98.763)" fill="#fff"/><rect width="7.386" height="2.543" rx="1.271" transform="translate(65.497 62.424)" fill="#fff"/><path d="M60.477,46.168l-9.441-5.451L30.013,52.855l9.441,5.451Z" transform="translate(-6.164 0)" fill="#fff"/><path d="M338.514,238h-3.049a2.9,2.9,0,0,1-2.8,2.058h-4.888a2.9,2.9,0,0,1-2.8-2.058h-3.049A1.94,1.94,0,0,0,320,239.959v24.469a1.892,1.892,0,0,0,1.924,1.9h16.59a1.912,1.912,0,0,0,1.947-1.9V239.959A1.96,1.96,0,0,0,338.514,238Zm-16.456,5.695a.846.846,0,0,1,.841-.852h3.992a.859.859,0,0,1,.857.852v.57a.85.85,0,0,1-.852.846.816.816,0,0,1-.806-.572h-2.338v2.3h.033a.848.848,0,0,1,0,1.7H322.9a.841.841,0,0,1-.841-.847Zm0,7.745a.848.848,0,0,1,.848-.848h4a.848.848,0,0,1,.848.848v4a.848.848,0,0,1-.848.848h-4a.848.848,0,0,1-.848-.848Zm1.729,12.592H322.9a.817.817,0,0,1-.841-.818v-3.992a.871.871,0,0,1,.841-.88h3.992a.884.884,0,0,1,.857.88v.817a.852.852,0,1,1-1.7,0h-2.292v2.3h.034a.848.848,0,0,1,0,1.7Zm6.255-3.3-3.082,3.082a.847.847,0,0,1-1.2,0l-1.355-1.354a.848.848,0,1,1,1.2-1.2l.755.755,2.482-2.482a.848.848,0,1,1,1.2,1.2Zm0-15.649-3.082,3.082a.847.847,0,0,1-1.2,0l-1.355-1.354a.848.848,0,0,1,1.2-1.2l.755.755,2.482-2.482a.848.848,0,1,1,1.2,1.2Zm7.5,17.012h-5.323a.848.848,0,1,1,0-1.7h5.323a.848.848,0,1,1,0,1.7Zm0-7.749h-5.323a.848.848,0,1,1,0-1.7h5.323a.848.848,0,1,1,0,1.7Zm0-7.749h-5.323a.848.848,0,1,1,0-1.7h5.323a.848.848,0,1,1,0,1.7Z" transform="translate(-261.04 -173.397)" fill="#fff"/></g><g transform="translate(310.583 4545.604)"><path d="M122.807,27.428h18.218a1.517,1.517,0,0,0,1.518-1.518V7.591a1.517,1.517,0,0,0-1.518-1.518H136.47V4.554a4.554,4.554,0,0,0-9.109,0V6.073h-4.554a1.518,1.518,0,0,0-1.518,1.518V25.91A1.518,1.518,0,0,0,122.807,27.428ZM130.4,4.554a1.518,1.518,0,0,1,3.036,0V6.073H130.4Zm0,0" transform="translate(-109.014)" fill="#fff"/><path d="M45.019,241.732a1.518,1.518,0,0,0-1.3-.732,7.193,7.193,0,0,0-6.371,3.854l-4.657,8.887a4.545,4.545,0,0,1-4.035,2.44H18.348a1.518,1.518,0,1,1,0-3.036h10.31A1.516,1.516,0,0,0,30,252.331l1.74-3.321a1.323,1.323,0,0,0-1.173-1.937H14.79A7.542,7.542,0,0,0,9.423,249.3L.444,258.274a1.518,1.518,0,0,0,0,2.147l7.591,7.561a1.517,1.517,0,0,0,2.147,0l5.758-5.729H28.657a10.6,10.6,0,0,0,9.414-5.695l6.992-13.336a1.513,1.513,0,0,0-.044-1.492Zm0,0" transform="translate(0 -216.608)" fill="#fff"/></g><g transform="translate(473.994 4698.653)"><g transform="translate(2.403 2.403)"><g transform="translate(0 41.925)"><path d="M23.17,34A18.411,18.411,0,0,0,38.743,49.573v21.1A39.406,39.406,0,0,1,2.07,34Z" transform="translate(-2.07 -34)" fill="#ccd1d9"/></g><g transform="translate(0 0)"><path d="M20.36,33.491H9.856L7.23,38.743H2.07A39.406,39.406,0,0,1,38.743,2.07v21.1a18.418,18.418,0,0,0-13.984,10.32Z" transform="translate(-2.07 -2.07)" fill="#ccd1d9"/></g><g transform="translate(41.925 0)"><path d="M70.673,38.743h-21.1A18.411,18.411,0,0,0,34,23.17V2.07A39.406,39.406,0,0,1,70.673,38.743Z" transform="translate(-34 -2.07)" fill="#ccd1d9"/></g><g transform="translate(41.925 41.925)"><path d="M34,70.673v-21.1A18.411,18.411,0,0,0,49.573,34h21.1A39.406,39.406,0,0,1,34,70.673Z" transform="translate(-34 -34)" fill="#ccd1d9"/></g><g transform="translate(5.16 31.421)"><path d="M19.13,26h4.4a18.318,18.318,0,0,0-1.589,5.252H6L8.626,26Z" transform="translate(-6 -26)" fill="#cf9e76"/></g><g transform="translate(18.29 10.412)"><path d="M23.878,10H26.5a7.89,7.89,0,0,1-7.878,7.878H16A7.89,7.89,0,0,1,23.878,10Z" transform="translate(-16 -10)" fill="#b4dd7f"/></g><g transform="translate(7.786 20.917)"><path d="M18.5,23.252H13.252A5.245,5.245,0,0,1,8,18h5.252A5.245,5.245,0,0,1,18.5,23.252Z" transform="translate(-8 -18)" fill="#b4dd7f"/></g><g transform="translate(55.055 13.038)"><path d="M53.441,17.239a4.858,4.858,0,0,1-3.795,7.891h-.788A4.842,4.842,0,0,1,44,20.272a4.874,4.874,0,0,1,1.064-3.033L49.252,12Z" transform="translate(-44 -12)" fill="#69d6f4"/></g><g transform="translate(15.664 53.742)"><path d="M24.5,45.626c0,2.626,2.626,2.626,2.626,6.565s-3.519,5.252-6.565,5.252C17.939,57.443,14,56.13,14,52.191S17.939,45.626,17.939,43c0,0,2.626,0,2.626,4.451v.8C20.565,45.075,24.5,45.626,24.5,45.626Z" transform="translate(-14 -43)" fill="#ff826e"/></g><g transform="translate(20.917 20.917)"><path d="M54.581,33.756a18.849,18.849,0,0,1,0,5.252A18.411,18.411,0,0,1,39.008,54.581a18.849,18.849,0,0,1-5.252,0A18.411,18.411,0,0,1,18.184,39.008a18.85,18.85,0,0,1,0-5.252A18.408,18.408,0,0,1,33.756,18.184a18.85,18.85,0,0,1,5.252,0A18.411,18.411,0,0,1,54.581,33.756Z" transform="translate(-18 -18)" fill="#e6e9ed"/></g><g transform="translate(34.047 34.047)"><circle cx="5.252" cy="5.252" r="5.252" transform="translate(0 0)" fill="#fcd770"/></g></g><g transform="translate(1.006 1.006)"><path d="M33.565,27a6.565,6.565,0,1,0,6.565,6.565A6.573,6.573,0,0,0,33.565,27Zm0,10.5A3.939,3.939,0,1,1,37.5,33.565,3.944,3.944,0,0,1,33.565,37.5Z" transform="translate(7.131 7.131)"/><path d="M31,21h2.626v5.252H31Z" transform="translate(8.383 5.253)"/><path d="M0,0H2.626V5.252H0Z" transform="translate(29.547 31.412) rotate(-45)"/><path d="M21,31h5.252v2.626H21Z" transform="translate(5.253 8.383)"/><path d="M0,0H5.252V2.626H0Z" transform="translate(29.546 49.979) rotate(-45)"/><path d="M31,39h2.626v5.252H31Z" transform="translate(8.383 10.887)"/><path d="M0,0H2.626V5.252H0Z" transform="translate(46.256 48.124) rotate(-45)"/><path d="M39,31h5.252v2.626H39Z" transform="translate(10.887 8.383)"/><path d="M0,0H5.252V2.626H0Z" transform="translate(46.258 33.27) rotate(-45)"/><path d="M61.4,41.7c0-.444-.038-.877-.067-1.313H82.4l-.092-1.4A40.772,40.772,0,0,0,44.413,1.1l-1.4-.092V22.074c-.436-.029-.869-.067-1.313-.067s-.877.038-1.313.067V1.006l-1.4.092A40.772,40.772,0,0,0,1.1,38.991l-.092,1.4H22.074c-.029.436-.067.869-.067,1.313s.038.877.067,1.313H1.006l.092,1.4A40.769,40.769,0,0,0,38.989,82.3l1.4.093V61.33c.436.029.869.067,1.313.067s.877-.038,1.313-.067V82.4l1.4-.092A40.769,40.769,0,0,0,82.3,44.415l.093-1.4H61.33c.029-.436.067-.869.067-1.313ZM45.641,3.837A38.155,38.155,0,0,1,79.567,37.763H61A19.753,19.753,0,0,0,45.641,22.4Zm-7.878,0V22.4A19.76,19.76,0,0,0,24.3,32.511H22.007v-10.5H23.32a9.2,9.2,0,0,0,9.191-9.191V11.5H28.572a9.2,9.2,0,0,0-9.191,9.191v2.66a6.5,6.5,0,0,0-3.939-1.347H9.157A38.121,38.121,0,0,1,37.763,3.837ZM22.139,19.38a6.576,6.576,0,0,1,6.433-5.252h1.18A6.576,6.576,0,0,1,23.32,19.38Zm-2.983,7.878H15.441a3.947,3.947,0,0,1-3.715-2.626h3.715A3.947,3.947,0,0,1,19.156,27.259Zm-10.28-4.8v.864a6.573,6.573,0,0,0,6.565,6.565H19.38v2.626h-10L6.752,37.763H3.837A37.755,37.755,0,0,1,8.876,22.456Zm.811,15.307L11,35.137H23.155a19.419,19.419,0,0,0-.752,2.626Zm28.075,41.8A38.152,38.152,0,0,1,3.837,45.641H22.4A19.753,19.753,0,0,0,37.763,61ZM24.633,41.7A17.069,17.069,0,1,1,41.7,58.771,17.089,17.089,0,0,1,24.633,41.7Zm54.934,3.939A38.154,38.154,0,0,1,45.641,79.567V61A19.753,19.753,0,0,0,61,45.641Z" transform="translate(-1.006 -1.006)"/><path d="M49.173,26.944h.785a6.174,6.174,0,0,0,4.82-10.03L49.565,10.4l-5.211,6.515a6.173,6.173,0,0,0,4.819,10.03ZM46.4,18.556l3.16-3.952,3.162,3.954a3.546,3.546,0,0,1-2.769,5.762h-.785A3.546,3.546,0,0,1,46.4,18.556Z" transform="translate(12.139 1.934)"/><path d="M61.443,40.939a3.939,3.939,0,0,0-7.878,0h2.626A1.313,1.313,0,1,1,57.5,42.252H47v2.626H57.5A3.944,3.944,0,0,0,61.443,40.939Z" transform="translate(13.391 10.261)"/><path d="M54.13,45a3.944,3.944,0,0,0-3.939,3.939h2.626a1.313,1.313,0,1,1,1.313,1.313H41v2.626H54.13a3.939,3.939,0,1,0,0-7.878Z" transform="translate(11.513 12.765)"/><path d="M37,49h2.626v2.626H37Z" transform="translate(10.261 14.017)"/><path d="M18.252,42H16.939v1.313a6.74,6.74,0,0,1-1.448,2.927C14.381,47.885,13,49.935,13,52.5c0,4.309,3.964,6.565,7.878,6.565,3.634,0,7.878-1.72,7.878-6.565a6.833,6.833,0,0,0-1.807-4.849c-.569-.7-.819-1.032-.819-1.716V44.8L25,44.639a6.507,6.507,0,0,0-3.2.4A3.962,3.962,0,0,0,18.252,42Zm4.265,5.646a2.213,2.213,0,0,1,1.171-.407,5.858,5.858,0,0,0,1.228,2.076A4.283,4.283,0,0,1,26.13,52.5c0,3.654-4.02,3.939-5.252,3.939-1.817,0-5.252-.823-5.252-3.939,0-1.767,1.039-3.308,2.043-4.8a16.565,16.565,0,0,0,1.418-2.367,5,5,0,0,1,.478,2.425v.8h2.626a1.1,1.1,0,0,1,.326-.919Z" transform="translate(2.748 11.826)"/></g></g><g transform="translate(938.608 4699.659)"><path d="M229.426,34.713A2.713,2.713,0,1,1,226.713,32,2.713,2.713,0,0,1,229.426,34.713Zm0,0" transform="translate(-186.017 -26.574)" fill="#495867"/><path d="M224,88h5.426v5.426H224Zm0,0" transform="translate(-186.017 -73.078)" fill="#bdd5ea"/><path d="M400,360h8.139v8.139H400Zm0,0" transform="translate(-332.173 -298.956)" fill="#495867"/><path d="M32,360h8.139v8.139H32Zm0,0" transform="translate(-26.574 -298.956)" fill="#495867"/><path d="M115.27,120H98.991v2.713l-12.209,2.713L80,140.348,86.783,151.2V140.348l2.713-8.139,9.5-4.07H115.27l9.5,5.426,2.713,6.783V151.2l6.783-10.852-6.783-14.922-12.209-2.713Zm0,0" transform="translate(-66.435 -99.652)" fill="#577399"/><path d="M192,120h16.278v8.139H192Zm0,0" transform="translate(-159.443 -99.652)" fill="#495867"/><path d="M181.844,217.635v-5.426h-4.425a10.812,10.812,0,0,0-1.155-2.792l3.128-3.128-3.836-3.836-3.128,3.128a10.793,10.793,0,0,0-2.792-1.155V200h-5.426v4.425a10.812,10.812,0,0,0-2.792,1.155l-3.128-3.128-3.836,3.836,3.128,3.128a10.793,10.793,0,0,0-1.155,2.792H152v5.426h4.425a10.813,10.813,0,0,0,1.155,2.792l-3.128,3.128,3.836,3.836,3.128-3.128a10.793,10.793,0,0,0,2.792,1.155v4.425h5.426v-4.425a10.812,10.812,0,0,0,2.792-1.155l3.128,3.128,3.836-3.836-3.128-3.128a10.793,10.793,0,0,0,1.155-2.792Zm-14.922,2.713a5.426,5.426,0,1,1,5.426-5.426A5.426,5.426,0,0,1,166.922,220.348Zm0,0" transform="translate(-126.226 -166.087)" fill="#fe5f55"/><path d="M81.253,418.852H13.426a5.426,5.426,0,1,1,0-10.852H81.253a5.426,5.426,0,1,1,0,10.852Zm0,0" transform="translate(-6.644 -338.817)" fill="#bdd5ea"/><path d="M206.783,261.565A6.783,6.783,0,1,0,200,254.783,6.791,6.791,0,0,0,206.783,261.565Zm0-10.852a4.07,4.07,0,1,1-4.07,4.07A4.075,4.075,0,0,1,206.783,250.713Zm0,0" transform="translate(-166.087 -205.947)"/><path d="M145.357,204.209A1.356,1.356,0,0,0,144,205.565v5.426a1.356,1.356,0,0,0,1.357,1.357h3.421a12.483,12.483,0,0,0,.491,1.184l-2.42,2.42a1.355,1.355,0,0,0,0,1.918l3.836,3.838a1.354,1.354,0,0,0,1.918,0l2.42-2.418a12.331,12.331,0,0,0,1.184.489V223.2a1.356,1.356,0,0,0,1.357,1.357h5.426a1.357,1.357,0,0,0,1.357-1.357v-3.421a12.329,12.329,0,0,0,1.184-.489l2.42,2.418a1.355,1.355,0,0,0,1.918,0l3.836-3.838a1.355,1.355,0,0,0,0-1.918l-2.42-2.42a11.988,11.988,0,0,0,.491-1.184H175.2a1.356,1.356,0,0,0,1.357-1.357v-5.426a1.356,1.356,0,0,0-1.357-1.357h-3.421a12.489,12.489,0,0,0-.491-1.184l2.42-2.42a1.355,1.355,0,0,0,0-1.918l-3.836-3.838a1.354,1.354,0,0,0-1.918,0l-2.42,2.418a12.329,12.329,0,0,0-1.184-.49v-3.421A1.356,1.356,0,0,0,162.993,192h-5.426a1.357,1.357,0,0,0-1.357,1.357v3.421a12.331,12.331,0,0,0-1.184.49l-2.42-2.418a1.355,1.355,0,0,0-1.918,0l-3.836,3.838a1.355,1.355,0,0,0,0,1.918l2.42,2.42a11.986,11.986,0,0,0-.491,1.184Zm6.54-2.394-2.17-2.169,1.918-1.92,2.171,2.169a1.352,1.352,0,0,0,1.65.209,9.435,9.435,0,0,1,2.44-1.009,1.357,1.357,0,0,0,1.017-1.313v-3.069h2.713v3.069a1.357,1.357,0,0,0,1.017,1.313,9.435,9.435,0,0,1,2.44,1.009,1.357,1.357,0,0,0,1.65-.209l2.171-2.169,1.918,1.92-2.17,2.169a1.357,1.357,0,0,0-.209,1.649,9.441,9.441,0,0,1,1.012,2.441,1.357,1.357,0,0,0,1.313,1.017h3.067v2.713h-3.069a1.355,1.355,0,0,0-1.313,1.017,9.442,9.442,0,0,1-1.012,2.441,1.359,1.359,0,0,0,.209,1.649l2.17,2.169-1.918,1.92-2.17-2.169a1.357,1.357,0,0,0-1.65-.209,9.444,9.444,0,0,1-2.44,1.009,1.356,1.356,0,0,0-1.016,1.313v3.069h-2.713v-3.069a1.357,1.357,0,0,0-1.017-1.313,9.434,9.434,0,0,1-2.44-1.009,1.357,1.357,0,0,0-1.65.209l-2.171,2.169-1.918-1.92,2.17-2.169a1.357,1.357,0,0,0,.209-1.649,9.442,9.442,0,0,1-1.012-2.441,1.354,1.354,0,0,0-1.311-1.017h-3.069v-2.713h3.069a1.355,1.355,0,0,0,1.313-1.017,9.442,9.442,0,0,1,1.012-2.441,1.358,1.358,0,0,0-.211-1.649Zm0,0" transform="translate(-119.582 -159.443)"/><path d="M0,2.713H39.339V4.319a4.046,4.046,0,0,0,0,7.64v1.606H37.983a1.356,1.356,0,0,0-1.357,1.357v4.07h-4.07A1.356,1.356,0,0,0,31.2,20.348v1.625L20.054,24.45a1.354,1.354,0,0,0-.941.762L12.331,40.134a1.357,1.357,0,0,0,.084,1.279L19.2,52.266a1.356,1.356,0,0,0,2.507-.717V40.916l2.451-7.352,8.679-3.72H48.474l8.773,5.012,2.44,6.1V51.548a1.357,1.357,0,0,0,2.507.719l6.783-10.852a1.354,1.354,0,0,0,.084-1.279L62.279,25.214a1.353,1.353,0,0,0-.941-.762L50.192,21.973V20.348a1.356,1.356,0,0,0-1.357-1.357h-4.07v-4.07a1.356,1.356,0,0,0-1.357-1.357H42.052V11.959a4.046,4.046,0,0,0,0-7.64V2.713H81.392V0H0Zm22.527,28.6a1.353,1.353,0,0,0-.753.818L19.06,40.267a1.408,1.408,0,0,0-.069.429v6.122L15.1,40.594l6.2-13.642,9.9-2.2v2.84Zm37.562-4.358,6.2,13.642L62.4,46.818V40.7a1.377,1.377,0,0,0-.1-.5l-2.713-6.783A1.361,1.361,0,0,0,59,32.734L50.192,27.7V24.753Zm-12.61-3.891v4.07H33.913V21.7H47.479Zm-8.139-4.07V16.278h2.713v2.713ZM40.7,9.5a1.357,1.357,0,1,1,1.357-1.357A1.358,1.358,0,0,1,40.7,9.5Zm0,0"/><path d="M77.322,360.715v-7.358A1.356,1.356,0,0,0,75.966,352H67.827a1.356,1.356,0,0,0-1.357,1.357v6.783H14.922v-6.783A1.356,1.356,0,0,0,13.565,352H5.426a1.356,1.356,0,0,0-1.357,1.357v7.358A6.777,6.777,0,0,0,6.783,373.7H74.609a6.777,6.777,0,0,0,2.713-12.99Zm-8.139-6h5.426v5.426H69.183Zm-62.4,0h5.426v5.426H6.783Zm67.827,16.278H6.783a4.07,4.07,0,1,1,0-8.139H74.609a4.07,4.07,0,1,1,0,8.139Zm0,0" transform="translate(0 -292.313)"/><path d="M40,432h2.713v2.713H40Zm0,0" transform="translate(-33.217 -358.747)"/><path d="M88,432h2.713v2.713H88Zm0,0" transform="translate(-73.078 -358.747)"/><path d="M136,432h2.713v2.713H136Zm0,0" transform="translate(-112.939 -358.747)"/><path d="M184,432h2.713v2.713H184Zm0,0" transform="translate(-152.8 -358.747)"/><path d="M232,432h2.713v2.713H232Zm0,0" transform="translate(-192.661 -358.747)"/><path d="M280,432h2.713v2.713H280Zm0,0" transform="translate(-232.521 -358.747)"/><path d="M328,432h2.713v2.713H328Zm0,0" transform="translate(-272.382 -358.747)"/><path d="M376,432h2.713v2.713H376Zm0,0" transform="translate(-312.243 -358.747)"/><path d="M424,432h2.713v2.713H424Zm0,0" transform="translate(-352.104 -358.747)"/><path d="M32,32H60.487v2.713H32Zm0,0" transform="translate(-26.574 -26.574)"/><path d="M0,32H2.713v2.713H0Zm0,0" transform="translate(0 -26.574)"/><path d="M464,32h2.713v2.713H464Zm0,0" transform="translate(-385.321 -26.574)"/><path d="M280,32h28.487v2.713H280Zm0,0" transform="translate(-232.521 -26.574)"/></g></g></g></svg>