<svg xmlns="http://www.w3.org/2000/svg" width="220.688" height="203.117" viewBox="0 0 220.688 203.117"><g transform="translate(-765 -6595.441)"><g transform="translate(765.378 6601.417)"><path d="M115.9,0A33.619,33.619,0,0,0,92.127,9.847L0,101.974H35.193a33.619,33.619,0,0,0,23.773-9.847L151.093,0Z" transform="matrix(0.998, -0.07, 0.07, 0.998, -0.379, 4.564)" fill="#fde2e2"/><path d="M144.875,0a42.024,42.024,0,0,0-29.716,12.309L0,127.468H43.991a42.024,42.024,0,0,0,29.716-12.309L188.866,0Z" transform="matrix(0.998, -0.07, 0.07, 0.998, 23.012, 69.985)" fill="#fde2e2"/></g><g transform="translate(804.492 6627.997)"><path d="M99.422,61.068V47.354H84.954a31.8,31.8,0,0,0-4.32-10.376L90.874,26.739l-9.69-9.69L70.944,27.288a31.8,31.8,0,0,0-10.377-4.32V8.5H46.854V22.968a31.8,31.8,0,0,0-10.376,4.32L26.239,17.049l-9.69,9.69L26.788,36.978a31.8,31.8,0,0,0-4.32,10.376H8V61.068H22.468a31.8,31.8,0,0,0,4.32,10.377L16.549,81.683l9.69,9.69L36.478,81.134a31.8,31.8,0,0,0,10.376,4.32V99.922H60.568V85.454a31.8,31.8,0,0,0,10.377-4.32L81.184,91.374l9.69-9.69L80.634,71.444a31.8,31.8,0,0,0,4.32-10.377ZM53.711,70.21a15.988,15.988,0,1,1,11.316-4.683A16,16,0,0,1,53.711,70.21Zm0,0" transform="translate(-5.714 -5.714)" fill="#3e3d42"/><path d="M110.856,88.5a22.856,22.856,0,1,0,22.856,22.856A22.855,22.855,0,0,0,110.856,88.5Zm0,38.854a15.988,15.988,0,1,1,11.316-4.683A16,16,0,0,1,110.856,127.354Zm0,0" transform="translate(-62.859 -62.859)" fill="#d80027"/><path d="M17.142,376.5H135.991a9.143,9.143,0,0,1,9.142,9.142v4.571a9.143,9.143,0,0,1-9.142,9.142H17.142A9.143,9.143,0,0,1,8,390.213v-4.571A9.143,9.143,0,0,1,17.142,376.5Zm0,0" transform="translate(-5.714 -268.579)" fill="#787680"/><path d="M241.142,405.071a4.571,4.571,0,1,1-4.571-4.571A4.571,4.571,0,0,1,241.142,405.071Zm0,0" transform="translate(-165.719 -285.722)" fill="#acabb1"/><path d="M161.142,405.071a4.571,4.571,0,1,1-4.571-4.571A4.571,4.571,0,0,1,161.142,405.071Zm0,0" transform="translate(-108.574 -285.722)" fill="#acabb1"/><path d="M321.142,405.071a4.571,4.571,0,1,1-4.571-4.571A4.571,4.571,0,0,1,321.142,405.071Zm0,0" transform="translate(-222.863 -285.722)" fill="#acabb1"/><path d="M81.142,405.071a4.571,4.571,0,1,1-4.571-4.571A4.571,4.571,0,0,1,81.142,405.071Zm0,0" transform="translate(-51.43 -285.722)" fill="#acabb1"/><path d="M401.142,405.071a4.571,4.571,0,1,1-4.571-4.571A4.571,4.571,0,0,1,401.142,405.071Zm0,0" transform="translate(-280.008 -285.722)" fill="#acabb1"/><path d="M396.57,325.07H376V304.5h20.57Zm0,0" transform="translate(-268.579 -217.149)" fill="#ffd422"/><path d="M372.57,253.07H352V232.5h20.57Zm0,0" transform="translate(-251.436 -165.719)" fill="#ffcd00"/><path d="M324.57,325.07H304V304.5h20.57Zm0,0" transform="translate(-217.149 -217.149)" fill="#cca400"/><g transform="translate(0 0.5)"><path d="M2.286,57.639h12.68a34.036,34.036,0,0,0,3.219,7.744L9.21,74.353a2.287,2.287,0,0,0,0,3.234l9.7,9.7a2.287,2.287,0,0,0,3.232,0l8.975-8.976a33.967,33.967,0,0,0,7.742,3.218v12.68a2.286,2.286,0,0,0,2.286,2.286H54.853a2.286,2.286,0,0,0,2.286-2.286V81.528a33.969,33.969,0,0,0,7.742-3.218l8.975,8.976a2.353,2.353,0,0,0,3.232,0l9.7-9.7a2.287,2.287,0,0,0,0-3.234l-8.976-8.97a34.034,34.034,0,0,0,3.219-7.744h12.68a2.286,2.286,0,0,0,2.286-2.286V41.64a2.286,2.286,0,0,0-2.286-2.286H81.028a34.035,34.035,0,0,0-3.219-7.744l8.974-8.97a2.287,2.287,0,0,0,0-3.234l-9.7-9.7a2.287,2.287,0,0,0-3.232,0l-8.975,8.976a34.089,34.089,0,0,0-7.742-3.219V2.786A2.286,2.286,0,0,0,54.853.5H41.14a2.286,2.286,0,0,0-2.286,2.286v12.68a34.091,34.091,0,0,0-7.742,3.219L22.138,9.708a2.353,2.353,0,0,0-3.232,0l-9.7,9.7a2.287,2.287,0,0,0,0,3.234l8.976,8.97a34.034,34.034,0,0,0-3.219,7.744H2.286A2.286,2.286,0,0,0,0,41.64V55.353a2.286,2.286,0,0,0,2.286,2.286ZM4.571,43.926H16.753a2.287,2.287,0,0,0,2.233-1.8,29.4,29.4,0,0,1,4-9.631,2.287,2.287,0,0,0-.309-2.85l-8.626-8.626,6.466-6.466,8.623,8.626A2.287,2.287,0,0,0,32,23.491a29.458,29.458,0,0,1,9.631-4,2.287,2.287,0,0,0,1.8-2.233V5.071h9.142V17.253a2.287,2.287,0,0,0,1.8,2.233,29.458,29.458,0,0,1,9.631,4,2.287,2.287,0,0,0,2.852-.309l8.623-8.626,6.464,6.466-8.623,8.623A2.287,2.287,0,0,0,73,32.5a29.383,29.383,0,0,1,4,9.633,2.287,2.287,0,0,0,2.233,1.8H91.422V53.07H79.238A2.287,2.287,0,0,0,77,54.867,29.374,29.374,0,0,1,73,64.5a2.287,2.287,0,0,0,.309,2.85l8.626,8.623-6.466,6.468-8.623-8.626A2.287,2.287,0,0,0,64,73.5a29.379,29.379,0,0,1-9.629,4,2.285,2.285,0,0,0-1.8,2.233V91.922H43.426V79.74a2.285,2.285,0,0,0-1.8-2.233A29.379,29.379,0,0,1,32,73.5a2.287,2.287,0,0,0-2.852.309l-8.623,8.626-6.464-6.466,8.623-8.623a2.287,2.287,0,0,0,.309-2.852,29.411,29.411,0,0,1-4-9.633,2.285,2.285,0,0,0-2.233-1.795H4.571Zm0,0" transform="translate(0 -0.5)" fill="#231f20"/><path d="M122.284,141.069A18.284,18.284,0,1,0,104,122.784,18.284,18.284,0,0,0,122.284,141.069Zm0-32a13.713,13.713,0,1,1-13.713,13.713A13.714,13.714,0,0,1,122.284,109.071Zm0,0" transform="translate(-74.288 -74.788)" fill="#231f20"/><path d="M105.141,130.782A25.141,25.141,0,1,0,80,105.641,25.141,25.141,0,0,0,105.141,130.782Zm0-45.711a20.57,20.57,0,1,1-20.57,20.57A20.57,20.57,0,0,1,105.141,85.071Zm0,0" transform="translate(-57.144 -57.644)" fill="#231f20"/><path d="M130.277,265.64V247.356a2.286,2.286,0,0,0-2.286-2.286H123.42V226.786a2.286,2.286,0,0,0-2.286-2.286h-20.57a2.286,2.286,0,0,0-2.286,2.286V245.07H86.851a2.286,2.286,0,0,0-2.286,2.286V265.64H11.428A11.441,11.441,0,0,0,0,277.068v4.571a11.441,11.441,0,0,0,11.428,11.428H130.277A11.441,11.441,0,0,0,141.7,281.639v-4.571A11.441,11.441,0,0,0,130.277,265.64Zm-4.571,0h-16v-16h16ZM102.85,229.071h16v16h-16Zm-13.713,20.57h16v16h-16Zm48,32a6.857,6.857,0,0,1-6.857,6.857H11.428a6.857,6.857,0,0,1-6.857-6.857v-4.571a6.857,6.857,0,0,1,6.857-6.857H130.277a6.857,6.857,0,0,1,6.857,6.857Zm0,0" transform="translate(0 -160.505)" fill="#231f20"/><path d="M230.857,392.5a6.857,6.857,0,1,0,6.857,6.857A6.857,6.857,0,0,0,230.857,392.5Zm0,9.142a2.286,2.286,0,1,1,2.286-2.286A2.286,2.286,0,0,1,230.857,401.642Zm0,0" transform="translate(-160.005 -280.508)" fill="#231f20"/><path d="M150.857,392.5a6.857,6.857,0,1,0,6.857,6.857A6.857,6.857,0,0,0,150.857,392.5Zm0,9.142a2.286,2.286,0,1,1,2.286-2.286A2.286,2.286,0,0,1,150.857,401.642Zm0,0" transform="translate(-102.86 -280.508)" fill="#231f20"/><path d="M310.857,392.5a6.857,6.857,0,1,0,6.857,6.857A6.857,6.857,0,0,0,310.857,392.5Zm0,9.142a2.286,2.286,0,1,1,2.286-2.286A2.286,2.286,0,0,1,310.857,401.642Zm0,0" transform="translate(-217.149 -280.508)" fill="#231f20"/><path d="M70.857,392.5a6.857,6.857,0,1,0,6.857,6.857A6.857,6.857,0,0,0,70.857,392.5Zm0,9.142a2.286,2.286,0,1,1,2.286-2.286A2.286,2.286,0,0,1,70.857,401.642Zm0,0" transform="translate(-45.716 -280.508)" fill="#231f20"/><path d="M390.857,392.5a6.857,6.857,0,1,0,6.857,6.857A6.857,6.857,0,0,0,390.857,392.5Zm0,9.142a2.286,2.286,0,1,1,2.286-2.286A2.286,2.286,0,0,1,390.857,401.642Zm0,0" transform="translate(-274.293 -280.508)" fill="#231f20"/></g></g></g></svg>