<svg xmlns="http://www.w3.org/2000/svg" width="190" height="174.873" viewBox="0 0 190 174.873"><g transform="translate(-810 -5617)"><g transform="translate(9492 10221.559)"><g transform="translate(-8682 -4604.559)"><path d="M99.783,0A28.944,28.944,0,0,0,79.316,8.478L0,87.794H30.3a28.944,28.944,0,0,0,20.467-8.478L130.082,0Z" transform="matrix(0.998, -0.07, 0.07, 0.998, 0, 9.074)" fill="#dae3f6"/><path d="M124.729,0A36.18,36.18,0,0,0,99.145,10.6L0,109.742H37.874a36.18,36.18,0,0,0,25.584-10.6L162.6,0Z" transform="matrix(0.998, -0.07, 0.07, 0.998, 20.138, 65.397)" fill="#dae3f6"/></g><g transform="translate(-8640.231 -4575.937)"><path d="M248.561,194.221H233.5v-52.59a6.01,6.01,0,0,1,6.009-6.009h3.046a6.009,6.009,0,0,1,6.009,6.009Zm0,0" transform="translate(-179.917 -104.725)" fill="#abebf4"/><path d="M248.561,280.238A81.865,81.865,0,0,1,233.5,285.6v20.287h15.065Zm0,0" transform="translate(-179.917 -216.396)" fill="#8ed7e8"/><path d="M153.706,241.825H138.641V202.511a5.24,5.24,0,0,1,5.24-5.241h4.585a5.241,5.241,0,0,1,5.241,5.241Zm0,0" transform="translate(-106.672 -152.329)" fill="#b2e59c"/><path d="M343.42,130.049H328.355V69.366a5.971,5.971,0,0,1,5.971-5.971h3.122a5.972,5.972,0,0,1,5.972,5.971Zm0,0" transform="translate(-253.166 -48.953)" fill="#ffde55"/><path d="M343.417,218.594a98.3,98.3,0,0,1-15.066,10.644v20.654h15.066Zm0,0" transform="translate(-253.163 -168.795)" fill="#ffcd00"/><path d="M109.477,252.212l30.291-16.079a5.066,5.066,0,0,1,7.34,5.485,14.676,14.676,0,0,1-5.023,8.711l-3.1,2.516a2.106,2.106,0,0,0,1.325,3.743l12.449.005a19.7,19.7,0,0,0,11.342-3.586l13.913-9.784a6.54,6.54,0,0,1,7.914,10.4L167.7,268.6a19.7,19.7,0,0,1-7.822,3.914l-39.943,9.78Zm0,0" transform="translate(-84.152 -181.873)" fill="#ffe2d9"/><path d="M126.259,313.457c-11.472-3.366-10.617-19.063-10.617-19.063l-6.164,3.272,10.456,30.083,30.446-7.455c-6.414-1.783-16.735-4.671-24.121-6.838Zm0,0" transform="translate(-84.152 -227.327)" fill="#ffcfc2"/><path d="M33.439,308.758l11.319,30.208a8.824,8.824,0,0,1-6.308,11.7l-10.825,2.459a8.825,8.825,0,0,1-10.495-6.385l-5.83-22.43a9.089,9.089,0,0,1,6.3-11.026Zm0,0" transform="translate(-8.113 -238.419)" fill="#8ed7e8"/><path d="M44.757,350.306l-1.765-4.71A29.192,29.192,0,0,0,29.6,343.225a8.852,8.852,0,0,1-9.242-9.118,61.093,61.093,0,0,1,1.367-10.663l-4.131,1.18a9.09,9.09,0,0,0-6.3,11.027l5.83,22.429a8.825,8.825,0,0,0,10.495,6.386l10.825-2.459a8.825,8.825,0,0,0,6.308-11.7Zm0,0" transform="translate(-8.113 -249.76)" fill="#7ac1dd"/><path d="M81.865,431.761a5.023,5.023,0,1,1-5.023-5.023A5.023,5.023,0,0,1,81.865,431.761Zm0,0" transform="translate(-55.074 -329.521)" fill="#ffeb99"/><path d="M70.525,7.5H56.863a3.547,3.547,0,1,0,0,7.094h4.862L47.476,28.311,40.72,24.816a3.548,3.548,0,0,0-4.148.652L9.017,53.235a3.547,3.547,0,0,0,5.036,5L39.774,32.314l6.7,3.466a3.549,3.549,0,0,0,4.09-.6l16.413-15.8V24.83a3.547,3.547,0,1,0,7.094,0V11.047s0-.007,0-.011A3.286,3.286,0,0,0,70.525,7.5Zm0,0" transform="translate(-5.783 -5.791)" fill="#97f7e5"/><path d="M105.834,104.1c-5.36-5.336-11.555-.342-11.555-.342V75.665a1.709,1.709,0,1,0-3.417,0v30.493s-8.147,6.422-11.649,7.992V63.574a4.268,4.268,0,0,1,4.263-4.263H86.6a4.268,4.268,0,0,1,4.263,4.263v5.1a1.709,1.709,0,1,0,3.417,0v-5.1a7.689,7.689,0,0,0-7.681-7.68H83.476a7.689,7.689,0,0,0-7.681,7.68V115.5a17.939,17.939,0,0,1-3.127.582V80.066a7.727,7.727,0,0,0-7.718-7.719H61.9a7.727,7.727,0,0,0-7.718,7.719V97.475l-3.127,1.661V93.342a6.957,6.957,0,0,0-6.949-6.949H39.525a6.956,6.956,0,0,0-6.948,6.949v15.6L27,111.906l-15.666,4.477a10.8,10.8,0,0,0-7.483,13.1L5.6,136.224a1.708,1.708,0,1,0,3.307-.86l-1.752-6.742a7.338,7.338,0,0,1,5.116-8.953L26.6,115.575,37.36,144.306a7.652,7.652,0,0,1-5.087,9.436L21.449,156.2a7.084,7.084,0,0,1-8.463-5.149l-2.2-8.456a1.709,1.709,0,0,0-3.308.86l2.2,8.456A10.478,10.478,0,0,0,19.831,159.8c3.452,0,13.2-2.726,13.2-2.726A10.53,10.53,0,0,0,41,144.63l37.447-9.168a21.548,21.548,0,0,0,8.5-4.255l18.223-14.973c5.557-4.927,2.3-10.512.663-12.138ZM61.9,75.765h3.046a4.306,4.306,0,0,1,4.3,4.3v36.106l-10.781,0c-.99-.009-.3-.663-.251-.707l3.1-2.515a16.236,16.236,0,0,0,5.622-9.7A6.775,6.775,0,0,0,57.6,95.684V80.066a4.306,4.306,0,0,1,4.3-4.3ZM35.994,93.342a3.536,3.536,0,0,1,3.531-3.532H44.11a3.536,3.536,0,0,1,3.532,3.532v7.607l-11.648,6.183ZM103,113.6,84.779,128.569a18.1,18.1,0,0,1-7.144,3.575L39.913,141.38,29.768,114.306,58.734,98.931a3.357,3.357,0,0,1,4.865,3.634,12.913,12.913,0,0,1-4.425,7.725l-3.1,2.516a3.815,3.815,0,0,0,2.4,6.779l12.45.005h.008a21.305,21.305,0,0,0,12.317-3.9l13.912-9.784a4.814,4.814,0,0,1,6.236.575c.958.98,2.833,3.889-.388,7.111Zm0,0" transform="translate(-2.316 -43.161)"/><path d="M77.783,425.97a6.731,6.731,0,1,0-6.731,6.731A6.739,6.739,0,0,0,77.783,425.97Zm-10.045,0a3.314,3.314,0,1,1,3.314,3.314A3.318,3.318,0,0,1,67.737,425.97Zm0,0" transform="translate(-49.282 -323.73)"/><path d="M9.483,53.645,34.32,28.617l5.586,2.89a5.255,5.255,0,0,0,6.06-.882L59.486,17.611s-.372,6.684,5.257,6.684A5.263,5.263,0,0,0,70,19.038V5.256c0-.016,0-.033,0-.05A4.975,4.975,0,0,0,64.742,0H51.08a5.262,5.262,0,0,0-5.256,5.256c0,5.777,5.88,5.256,5.88,5.256L41.39,20.439l-5.668-2.931a5.236,5.236,0,0,0-6.146.966L2.021,46.241a5.262,5.262,0,0,0,.028,7.433,5.182,5.182,0,0,0,7.433-.028Zm-5.037-5L32,20.88a1.552,1.552,0,0,1,2.15-.337l6.755,3.494a1.708,1.708,0,0,0,1.97-.287L57.127,10.034a1.709,1.709,0,0,0-1.184-2.939H51.08a1.839,1.839,0,0,1,0-3.678H64.742A1.606,1.606,0,0,1,66.58,5.245c0,.015,0,.03,0,.046V19.038a1.839,1.839,0,1,1-3.677,0V13.595a1.709,1.709,0,0,0-2.894-1.231L43.6,28.163a1.838,1.838,0,0,1-2.12.309l-6.7-3.466a1.71,1.71,0,0,0-2,.314L7.057,51.238a1.762,1.762,0,0,1-2.6.01,1.841,1.841,0,0,1-.011-2.6Zm0,0" transform="translate(0 0)"/></g></g></g></svg>