<svg xmlns="http://www.w3.org/2000/svg" xmlns:xlink="http://www.w3.org/1999/xlink" width="168" height="156" viewBox="0 0 168 156"><defs><filter id="a" x="0" y="0" width="168" height="156" filterUnits="userSpaceOnUse"><feOffset dy="3" input="SourceAlpha"/><feGaussianBlur stdDeviation="3" result="b"/><feFlood flood-opacity="0.161"/><feComposite operator="in" in2="b"/><feComposite in="SourceGraphic"/></filter></defs><g transform="translate(2362 8266)"><g transform="matrix(1, 0, 0, 1, -2362, -8266)" filter="url(#a)"><rect width="150" height="138" rx="17" transform="translate(9 6)" fill="#fff"/></g><g transform="translate(-2341.322 -8230.142)"><path d="M127.222,353.031h11.954l13.414,3.524a4.368,4.368,0,0,1,3.106,5.369l-.029.108a4.5,4.5,0,0,1-5.374,3.215c-3.793-.9-8.766-2.071-8.766-2.071l12.805,3.018a13.958,13.958,0,0,0,8.127-.525l12.077-4.554a4.222,4.222,0,0,1,3.073,7.865l-14.359,5.809a13.957,13.957,0,0,1-8.528.624L134.5,370.5h-7.278v-17.47Z" transform="translate(-84.09 -299.057)" fill="#ffd0c6"/><path d="M37.955,324.183H51.6v26.165H37.955Z" transform="translate(-8.471 -274.619)" fill="#ffa76b"/><path d="M144.709,10V71.95L136.4,75.083a13.952,13.952,0,0,1-8.127.526l-3.863-.91a4.5,4.5,0,0,0,5.2-3.253l.029-.109a4.367,4.367,0,0,0-3.105-5.368l-13.415-3.525H101.163v-4.41h-4.7V19.647L106.174,10Z" transform="translate(-58.031 -8.471)" fill="#dfecff"/><path d="M106.174,10v9.647H96.46Z" transform="translate(-58.031 -8.471)" fill="#868eaf"/><path d="M97.357,64.088a5.751,5.751,0,0,0-7.45-3.46l-1.7.641V41.215a1.529,1.529,0,1,0-3.058,0V62.421l-7.319,2.76a12.378,12.378,0,0,1-6.124.678,6.059,6.059,0,0,0,1.264-2.208,5.97,5.97,0,0,0-4.08-7.631L55.475,52.5a1.528,1.528,0,0,0-.388-.05H44.661V49.564a1.529,1.529,0,0,0-1.529-1.529H39.958V12.7h8.185a1.529,1.529,0,0,0,1.529-1.529V3.058H85.148V27.551a1.529,1.529,0,1,0,3.058,0V1.529A1.529,1.529,0,0,0,86.677,0H48.142a1.545,1.545,0,0,0-1.077.444l-9.714,9.647a1.546,1.546,0,0,0-.451,1.085V48.035H29.484a1.529,1.529,0,0,0-1.529,1.529V75.729a1.529,1.529,0,0,0,1.529,1.529H43.132a1.529,1.529,0,0,0,1.529-1.529V72.974h5.565l20.045,4.868a15.4,15.4,0,0,0,9.462-.693L94.092,71.34a5.74,5.74,0,0,0,3.264-7.252ZM46.613,9.647H42.138L46.613,5.2ZM41.6,74.2H31.013V51.093H41.6Zm51.343-5.695L78.587,74.314a12.354,12.354,0,0,1-7.594.556L50.77,69.959a1.527,1.527,0,0,0-.361-.043H44.661V55.5H54.888l13.224,3.475a2.822,2.822,0,0,1,1.213.666,2.962,2.962,0,0,1,.468,3.656A2.994,2.994,0,0,1,66.7,64.732l-8.914-2.1a1.529,1.529,0,1,0-.7,2.976l.008,0H57.1c.283.067,5.073,1.2,8.751,2.067a45.517,45.517,0,0,0,6.188,1.3,16.065,16.065,0,0,0,7.174-1.047l11.772-4.439a2.717,2.717,0,0,1,3.489,1.621,2.688,2.688,0,0,1-1.528,3.4Z" transform="translate(0 0)"/><path d="M169.762,94.188h-4.416a1.529,1.529,0,0,0,0,3.058h2.11v.916a1.529,1.529,0,1,0,3.058,0V97.18a4.4,4.4,0,0,0,3.639-4.325V92.67a4.4,4.4,0,0,0-4.391-4.391h-1.554a1.333,1.333,0,1,1,0-2.667h4.416a1.529,1.529,0,1,0,0-3.058h-2.11v-.916a1.529,1.529,0,0,0-3.058,0v.982a4.391,4.391,0,0,0,.752,8.716h1.554A1.335,1.335,0,0,1,171.1,92.67v.184a1.335,1.335,0,0,1-1.333,1.333Z" transform="translate(-115.09 -67.862)"/><path d="M275.3,79.835h-10.55a1.529,1.529,0,1,0,0,3.058H275.3a1.529,1.529,0,1,0,0-3.058Z" transform="translate(-199.296 -67.629)"/><path d="M275.3,132.632h-10.55a1.529,1.529,0,1,0,0,3.058H275.3a1.529,1.529,0,1,0,0-3.058Z" transform="translate(-199.296 -112.354)"/><path d="M275.3,185.429h-10.55a1.529,1.529,0,1,0,0,3.058H275.3a1.529,1.529,0,1,0,0-3.058Z" transform="translate(-199.296 -157.079)"/><path d="M191.093,238.226H165.346a1.529,1.529,0,0,0,0,3.058h25.748a1.529,1.529,0,1,0,0-3.058Z" transform="translate(-115.09 -201.804)"/><path d="M191.093,291.022H165.346a1.529,1.529,0,1,0,0,3.058h25.748a1.529,1.529,0,1,0,0-3.058Z" transform="translate(-115.09 -246.528)"/><path d="M404.874,215.476a1.528,1.528,0,1,0-.423,2.119A1.544,1.544,0,0,0,404.874,215.476Z" transform="translate(-316.925 -181.959)"/></g></g></svg>