<svg xmlns="http://www.w3.org/2000/svg" xmlns:xlink="http://www.w3.org/1999/xlink" width="400" height="266.666" viewBox="0 0 400 266.666"><defs><clipPath id="a"><rect width="400" height="266.666" fill="none"/></clipPath></defs><g transform="translate(-549.67 -493.147)"><g transform="translate(549.67 493.147)" clip-path="url(#a)"><path d="M684.607,571.994c-.828,7.307,13.65,22.75,3.723,35.435-11.032-1.1-19.994-10.341-19.994-10.341l.966-19.3Z" transform="translate(-561.559 -501.047)" fill="#2d2833"/><path d="M687.46,543.058c-6.116-10.781-23.412-9.7-27.509-7.953a16.436,16.436,0,0,0-4.549,3.977v53.1H642.45c9.022,14.29,27.9,14.608,37.08,4.136-2.482-1.93-5.515-1.931-9.651-4.689-2.5-1.667-2.739-5.187-.491-14.8,14.248-1.711,15.988-10.771,16.314-17.586.2-4.1,3.878-6.929,1.759-16.184" transform="translate(-558.966 -497.24)" fill="#f79683"/><path d="M660.307,573.987c-.068.138-1.241,2.205-1.241,2.205,1.357,4.257,4.119,11.242,10.95,9.635.252-1.453.595-3.1,1.037-4.993-2.873-.105-7.19-1.289-10.746-6.848" transform="translate(-560.63 -501.246)"/><path d="M670.93,560.508c-1.313-1.083.329-4.095,1.689-3.134s-.611,4.027-1.689,3.134" transform="translate(-561.771 -499.563)"/><path d="M684.651,562.762c-1.312-1.089.33-4.1,1.691-3.137s-.614,4.028-1.691,3.137" transform="translate(-563.146 -499.789)"/><path d="M679,567.729a.3.3,0,0,1-.044-.59,6.613,6.613,0,0,0,3.016-1.356c1.031-.942.875-1.98.279-3.345-1.436-3.619-.164-7.235,3.316-9.446a4.087,4.087,0,0,1,3.686-.327,3,3,0,0,1,1.617,2.594.3.3,0,0,1-.591.065,2.451,2.451,0,0,0-1.283-2.124,3.511,3.511,0,0,0-3.11.292c-3.225,2.049-4.407,5.389-3.087,8.717.586,1.341.939,2.765-.447,4.029a7.2,7.2,0,0,1-3.307,1.487.242.242,0,0,1-.045,0" transform="translate(-562.598 -499.08)"/><path d="M674.178,573.581h0c-2.559,0-3.744-2.895-4.289-5.323a.3.3,0,0,1,.487-.288,12.162,12.162,0,0,0,7.443,3.323.3.3,0,0,1,.165.524,6.264,6.264,0,0,1-3.806,1.765m-3.481-4.567c.515,1.774,1.544,3.973,3.481,3.973a5.046,5.046,0,0,0,2.862-1.182,12.363,12.363,0,0,1-6.344-2.79" transform="translate(-561.714 -500.636)"/><path d="M676.353,553.139a.3.3,0,0,1-.282-.2,3.086,3.086,0,0,0-1.783-2.026c-1.988-.768-4.867.624-6.013,1.258a.3.3,0,1,1-.287-.519c1.514-.837,4.373-2.117,6.514-1.293a3.651,3.651,0,0,1,2.132,2.389.3.3,0,0,1-.184.377.3.3,0,0,1-.1.016" transform="translate(-561.509 -498.852)"/><path d="M675.088,557.194a.3.3,0,0,1-.206.367l-2.016.569a.319.319,0,0,1-.081.011.3.3,0,0,1-.08-.583" transform="translate(-561.975 -499.564)"/><path d="M688.772,559.289a.3.3,0,0,1-.169.384l-1.86.724a.288.288,0,0,1-.108.021.3.3,0,0,1-.108-.574" transform="translate(-563.363 -499.774)"/><path d="M612.507,608.158a114.081,114.081,0,0,0-15.028,17.649c-2.483,3.86-6.067,8.411.139,19.854s21.1,29.921,23.026,32.127,5.225-12.33,5.225-12.33-8.852-22.437-11.886-28.916c6.352-7.883,13.969-17.354,13.969-17.354Z" transform="translate(-554.129 -504.67)" fill="#f79683"/><path d="M617.556,642.59a.3.3,0,0,1-.263-.157l-2.041-3.83a.3.3,0,0,1,.525-.28l2.041,3.829a.3.3,0,0,1-.122.4.292.292,0,0,1-.139.035" transform="translate(-556.237 -507.676)"/><path d="M676.245,602.026c-2.508-1.171-6.247-3.1-8.2-5.151a1.862,1.862,0,0,0-1.756-.569c-3.438,1.469-6.234,2.657-9.878,2.068a25.826,25.826,0,0,1-12.105-5.113c-4.021,1.694-8.137,3.017-8.817,1.684-3.586-2.206-12.685-1.655-29.368,20.131,2.757,2.068,10.479,8.133,14.89,14.062a58.64,58.64,0,0,0,5.653-4.411c-.412,8.41-2.345,26.471-5.239,37.089s-15.167,38.194-9.238,55.843c12.409-6.481,59.013-24.13,59.013-24.13s-6.48-22.2-7.308-26.2,0-9.514,1.792-15.719,2.208-9.514,4.137-11.581,4.549-5.1,4.549-5.1l2.759,4.413c2.292-5.618,13.615-13.013,16.871-13.306-2.67-6.945-9.206-21.006-17.76-24.011" transform="translate(-555.326 -503.177)" fill="#2c78dc"/><path d="M676.362,601.736a34.444,34.444,0,0,1-7.246-4.275c-.818-.668-1.31-1.382-2.408-1.545a1.155,1.155,0,0,0-.6.1c-.957.408-1.915.81-2.889,1.175-6.256,2.35-13.669-.174-18.733-4.174a.3.3,0,0,0-.289-.076,45.691,45.691,0,0,1-5.009,1.812,10.6,10.6,0,0,1-2.253.4c-.622.038-.834-.206-1.326-.5a6.24,6.24,0,0,0-1.967-.757,10.662,10.662,0,0,0-5.966.821,31.826,31.826,0,0,0-8.959,5.9,97.2,97.2,0,0,0-12.883,14.27.3.3,0,0,0,.106.406c5.381,4.046,10.712,8.561,14.784,13.956a.3.3,0,0,0,.407.107,48.422,48.422,0,0,0,5.713-4.458l-.507-.211c-.332,6.57-1.055,13.131-1.948,19.646a121.482,121.482,0,0,1-3.808,19.167c-3.687,12.014-8.349,23.668-9.884,36.24-.727,5.966-.717,12.2,1.172,17.959a.3.3,0,0,0,.436.177c8.4-4.366,17.359-7.758,26.126-11.289q13.829-5.569,27.759-10.88,2.527-.969,5.057-1.929a.3.3,0,0,0,.208-.365c-2.273-7.79-4.562-15.581-6.626-23.427a24.742,24.742,0,0,1-.992-6.286c-.019-4.473,1.213-8.874,2.414-13.143.868-3.084,1.352-6.594,3.013-9.383a25.259,25.259,0,0,1,3.059-3.533q1.122-1.263,2.226-2.539l-.467-.06q1.381,2.205,2.759,4.413c.105.17.42.217.513,0,1.5-3.5,4.836-6.205,7.815-8.43a43.132,43.132,0,0,1,4.782-3.1,11.537,11.537,0,0,1,4.019-1.631c.172-.021.364-.178.286-.376a76.662,76.662,0,0,0-6.922-13.893c-2.7-4.2-6.216-8.551-11.045-10.325-.36-.133-.515.442-.157.572,4.937,1.816,8.411,6.447,11.123,10.733a74.774,74.774,0,0,1,6.428,13.071l.287-.375c-3.15.369-6.317,2.8-8.795,4.585-3.175,2.292-6.749,5.174-8.334,8.869h.513l-2.758-4.414a.3.3,0,0,0-.467-.06c-1.664,1.927-3.552,3.732-5.087,5.758-1.665,2.2-2.13,5.359-2.818,7.949-1.745,6.569-4.046,13.387-2.365,20.211,2.043,8.287,4.549,16.477,6.935,24.673.03.1.058.2.087.3l.207-.366c-15.917,6.029-31.809,12.183-47.468,18.857-3.911,1.666-7.842,3.34-11.616,5.3l.436.178c-2.134-6.506-1.825-13.537-.821-20.221a129.774,129.774,0,0,1,5.059-20.19c1.612-5.028,3.512-9.978,4.942-15.063a141.849,141.849,0,0,0,3.7-20.329c.726-5.658,1.316-11.351,1.6-17.051a.3.3,0,0,0-.508-.21,47.173,47.173,0,0,1-5.593,4.365l.407.107c-4.138-5.484-9.528-10.057-15-14.17.034.136.07.271.106.407,4.57-5.946,9.529-11.845,15.542-16.4,2.8-2.122,6.174-4.211,9.78-4.436a6.78,6.78,0,0,1,2.945.448,9.352,9.352,0,0,1,1.129.75c.987.559,2.618.024,3.6-.233a30.347,30.347,0,0,0,2.921-.973c.947-.354,1.727-.954,2.62-.282a23.546,23.546,0,0,0,5.182,2.843c3.58,1.48,7.585,2.367,11.407,1.451a25.785,25.785,0,0,0,3.848-1.376c.946-.393,1.6-.693,2.482.062.531.453,1.015.942,1.57,1.371a35.592,35.592,0,0,0,6.686,3.826c.345.162.646-.35.3-.513" transform="translate(-555.292 -503.144)" fill="#2c78dc"/><path d="M658.574,601.053a17.509,17.509,0,0,0,8.155.931,16.043,16.043,0,0,0,7.1-2.34c.315-.213.018-.728-.3-.513a16.031,16.031,0,0,1-6.8,2.258,16.615,16.615,0,0,1-8-.909c-.357-.139-.511.435-.157.572" transform="translate(-560.561 -503.76)"/><path d="M633.237,588.334c-4.068,6.343-5.109,15.577,3.1,18.889,8.755,3.532,20.261-.993,23.018-20.436s-1.633-31.5,5.316-47.952c3.309-.966,12.918,1.2,21.855,10.891,1.806-1.964,1.639-15.792-16.426-20.341s-26.456,12.9-30.593,28.061-14.339,25.441-13.925,32.887a13.1,13.1,0,0,1,7.653-2" transform="translate(-557.275 -496.704)" fill="#2d2833"/><path d="M624.794,661.649c-.32,1.65-.657,3.232-1.01,4.713,8.608,7.833,33.887,8.63,41.708,6.66a22.827,22.827,0,0,1-.014-4.8c-20.553,1.877-36.5-4.273-40.684-6.575" transform="translate(-557.095 -510.029)" fill="#2d2833"/><path d="M655.049,674.2c-10.653,0-25.294-2-31.5-7.649a.3.3,0,0,1-.089-.289c.339-1.423.678-3,1.007-4.7a.3.3,0,0,1,.436-.2c4.33,2.383,16.762,6.889,32.815,6.889,2.566,0,5.156-.118,7.7-.35a.308.308,0,0,1,.238.085.3.3,0,0,1,.086.237,22.486,22.486,0,0,0,.013,4.737.3.3,0,0,1-.223.324,47.828,47.828,0,0,1-10.483.92m-30.968-7.972c6.153,5.443,20.5,7.378,30.968,7.378a48.981,48.981,0,0,0,10.085-.841,23.074,23.074,0,0,1-.014-4.245c-2.447.213-4.935.32-7.4.32-15.754,0-28.07-4.319-32.744-6.77-.294,1.488-.594,2.884-.894,4.158" transform="translate(-557.062 -509.996)" fill="#2d2833"/><path d="M653.374,675.806c-.109,0-.219,0-.331-.014l-4.01-.365a3.632,3.632,0,0,1-3.285-3.944l.121-1.309a3.631,3.631,0,0,1,3.942-3.284l4.013.366a3.627,3.627,0,0,1,3.283,3.944l-.119,1.307a3.613,3.613,0,0,1-3.614,3.3m-3.9-7.277a1.962,1.962,0,0,0-1.962,1.794l-.12,1.309a1.971,1.971,0,0,0,1.787,2.145l4.01.366a1.951,1.951,0,0,0,2.145-1.787l.121-1.308a1.973,1.973,0,0,0-1.788-2.144l-4.011-.367a1.776,1.776,0,0,0-.182-.008" transform="translate(-559.294 -510.553)" fill="#fe6868"/><path d="M683.867,628.085c.29,3.86.222,7.465-2.027,10.811-.215.319.3.615.513.3,2.3-3.426,2.405-7.143,2.108-11.111-.028-.38-.623-.382-.594,0" transform="translate(-562.907 -506.638)"/><path d="M623.215,632.593a.3.3,0,0,1-.191-.525l9.928-8.274a.3.3,0,1,1,.381.456l-9.928,8.274a.3.3,0,0,1-.19.068" transform="translate(-557.009 -506.23)"/><path d="M631.451,600.06a.259.259,0,0,1-.046,0,.3.3,0,0,1-.247-.339c.451-2.913,2.614-6.454,4.352-9.3,1.208-1.979,2.253-3.687,2.333-4.539a.292.292,0,0,1,.323-.267.3.3,0,0,1,.268.323c-.093.988-1.118,2.667-2.417,4.792-1.711,2.8-3.84,6.287-4.273,9.083a.3.3,0,0,1-.293.251" transform="translate(-557.834 -502.411)"/><path d="M734.532,653.248c3.421,2.355,13.99,6.461,17.791,9.048s7.224-9.049,5.7-10.037-13.382-9.5-13.382-9.5-9.123,5.4-10.112,10.494" transform="translate(-568.191 -508.136)" fill="#f79683"/><path d="M754.534,577.583c-5.683,1.8-8.456-.415-8.734-8.456-7.345,7.9-15.248-.694-14.693-8.732s3.879-12.2,6.1-23.7,12.328-22.093,21.209-23.425c11.089-1.664,15.246,4.989,15.246,4.989,7.07.278,13.69,5.393,15.388,17.743,2.5,18.159,14.691,27.446,8.456,36.594-10.119,8.871-30.773,14.277-42.97,4.989" transform="translate(-567.845 -495.136)" fill="#2d2833"/><path d="M762.921,560.28c1.523,3.192,6.39,13.23,6.39,13.23-3.5,1.065-10.189,3.041-10.189,3.041,3.65,10.8,30.261,18.782,41.364-3.118-7.833-1.216-11.406-2.355-11.863-2.661s-7.755-16.575-7.755-16.575Z" transform="translate(-570.655 -499.264)" fill="#f79683"/><path d="M766.062,566.4c.717,1.493,1.636,3.39,2.484,5.146,7.979,2.412,10.838-5.289,12.295-10.632-3.96,5.645-10.549,6.361-14.779,5.486" transform="translate(-571.35 -499.937)"/><path d="M747.788,545.733c4.989,12.058,8.731,15.525,16.771,17.186s17.883-4.019,19.545-14.832-6.375-26.75-18.712-24.951-21.9,9.428-17.6,22.6" transform="translate(-569.415 -496.138)" fill="#f79683"/><path d="M757.836,644.866c-.471,5.915-1.023,13.118-1.216,14.22-.456,2.584-2.432,28.439-4.257,34.977,16.727,3.5,60.676,3.952,60.676,3.952.3-4.6-9.346-43.989-11.405-53.074-15.3,5.573-38.832,1.9-43.8-.075" transform="translate(-569.978 -508.348)" fill="#2d2833"/><path d="M812.948,644.949c-1.79,1.923-12.3,14-12.3,14s2.371,2.92,3.559,4.464,4.657,3.155,4.657,3.155l16.615-15.3Z" transform="translate(-574.816 -508.356)" fill="#f79683"/><path d="M827.345,617.294c-4.714-9.884-11.555-24.787-15.814-30.567s-8.821-11.253-15.816-11.405c-8.82,11.557-31.936,13.687-39.234,2.585-6.235,1.976-14.6,5.778-20.682,18.1s-12.926,23.723-14.752,30.262,2.054,14.9,13.307,21.443c4.409-10.343,9.809-11.558,9.809-11.558-2.434-2.28-7.452-6.69-7.452-6.69.911-3.65,12.166-17.337,12.166-17.337,1.52,3.495,4.181,3.726,4.486,8.44.132,2.034-1.675,16.117,1.292,18.78,4.1,3.286,10.647,3.723,15.664,4.1,6.632.509,22.283.3,27.676-3.421,5.328-3.96.229-12.849.761-33.379,5.474,6.084,11.559,16.729,12.318,19.466s-7.3,12.166-7.3,12.166c.759,3.194,10.567,8.971,13,9.884,8.819-10.341,15.282-20.985,10.567-30.87" transform="translate(-566.797 -501.38)" fill="#f14141"/><path d="M827.573,617.105c-3.226-6.766-6.378-13.568-9.806-20.234-2.973-5.781-6.22-11.338-10.7-16.1a18.335,18.335,0,0,0-8.272-5.35c-.857-.24-2.889-.9-3.525-.082a20.714,20.714,0,0,1-3.076,3.114c-4.755,3.977-11.119,5.966-17.232,6.36-6.618.427-14.329-1.27-18.256-7.092a.3.3,0,0,0-.335-.137,33.877,33.877,0,0,0-13.38,7.691c-5.98,5.729-9.062,13.795-12.851,20.989-3.3,6.252-7.109,12.555-9.246,19.33-1.606,5.094.323,10.189,3.489,14.237a34.365,34.365,0,0,0,9.792,8.1.3.3,0,0,0,.406-.107A26.029,26.029,0,0,1,741,638.306a8.207,8.207,0,0,1,3.215-1.907.3.3,0,0,0,.132-.5c-2.376-2.219-4.817-4.37-7.256-6.519l-.184-.161c.211.186.143,0,.246-.265a11.477,11.477,0,0,1,.767-1.523c.673-1.2,1.448-2.338,2.226-3.468,2.774-4.028,5.811-7.891,8.916-11.669l-.467-.061a12.883,12.883,0,0,0,2.154,3.138,8.3,8.3,0,0,1,2.25,4.665,30.9,30.9,0,0,1-.219,5.566,66.062,66.062,0,0,0-.065,8.206c.124,1.823.313,3.966,1.471,5.461a9.256,9.256,0,0,0,3.663,2.223,24.535,24.535,0,0,0,5.321,1.451,71.607,71.607,0,0,0,9.3.89,82.683,82.683,0,0,0,18.329-1.055c2.779-.508,6.3-1.212,8.285-3.414,1.439-1.594,1.643-3.864,1.627-5.91-.026-3.449-.615-6.9-.977-10.324a128.712,128.712,0,0,1-.71-16.521l-.507.21a78.638,78.638,0,0,1,10.869,16.207c.857,1.66,1.754,3.08,1.054,4.928a26.373,26.373,0,0,1-3.656,5.964q-1.508,2.053-3.154,4c-.684.811,1.085,2.465,1.6,2.983a33.5,33.5,0,0,0,6.022,4.56,31.867,31.867,0,0,0,5.422,2.947.287.287,0,0,0,.289-.077c7.044-8.294,15.847-19.861,10.614-31.23-.161-.347-.672-.045-.513.3,3.766,8.18-.276,16.629-5,23.445-1.373,1.982-2.872,3.875-4.406,5.735-.063.073-.951,1.208-.965,1.2-.2-.077-.389-.168-.579-.257-.519-.242-1.026-.514-1.528-.786a48.726,48.726,0,0,1-7.289-4.792,15.17,15.17,0,0,1-2.653-2.6c-.53-.7-.808-.751-.333-1.319q1.948-2.34,3.716-4.824a19.541,19.541,0,0,0,3.255-5.913c.418-1.556-.71-3.241-1.384-4.567A77.5,77.5,0,0,0,798.936,606.4a.3.3,0,0,0-.507.21,160.736,160.736,0,0,0,1.288,21.694c.376,3.363,1.34,8.159-1.288,10.892-1.651,1.717-4.5,2.307-6.727,2.8a61.876,61.876,0,0,1-9.886,1.183,83.594,83.594,0,0,1-18.945-.885,21.479,21.479,0,0,1-6.308-2.06,4.824,4.824,0,0,1-2.821-3.381c-.8-3.088-.586-6.514-.453-9.668.1-2.2.445-4.457.34-6.658a8.087,8.087,0,0,0-1.639-4.593,22.118,22.118,0,0,1-2.888-4,.3.3,0,0,0-.465-.061q-2.972,3.617-5.788,7.36c-1.459,1.93-2.887,3.887-4.219,5.907a15.546,15.546,0,0,0-2.236,4.2.291.291,0,0,0,.076.289c2.507,2.2,5.014,4.413,7.453,6.69.044-.165.086-.33.131-.5a8.785,8.785,0,0,0-3.285,1.9c-3.1,2.51-5.141,6.2-6.7,9.8l.406-.106c-6.006-3.538-12.169-8.759-13.431-16a14.482,14.482,0,0,1,1.171-7.78,99.135,99.135,0,0,1,4.617-9.79c2.013-3.9,4.093-7.768,6.118-11.665,2.043-3.934,3.846-8.016,6.379-11.671a31.483,31.483,0,0,1,14.641-11.463c.516-.2,1.038-.382,1.56-.562.705-.242.741-.331,1.192.278a14.119,14.119,0,0,0,2.6,2.617,18.771,18.771,0,0,0,6.657,3.19,30.822,30.822,0,0,0,16.853-.579,29.845,29.845,0,0,0,7.782-3.633,24.142,24.142,0,0,0,3.023-2.383c.5-.456.961-.947,1.409-1.448.224-.248.435-.51.643-.768.361-.448,1.685-.031,2.114.044,3.82.669,6.913,3.274,9.453,6.048a51.427,51.427,0,0,1,5.982,8.026c5.323,8.759,9.416,18.291,13.82,27.529.165.346.676.044.513-.3" transform="translate(-566.767 -501.342)" fill="#f14141"/><path d="M826.684,651.984a.281.281,0,0,1-.124-.028c-7.721-3.543-10.514-7.325-11-8.048a.3.3,0,0,1,.495-.329c.466.7,3.174,4.362,10.75,7.838a.3.3,0,0,1-.124.567" transform="translate(-576.305 -508.206)"/><path d="M756.879,654.93c-1.978-.455-5.836.437-4.77,4.315-2.966.381-2.736,2.2-.99,4.258-1.6,1.749-1.063,3.193,1.369,5.4s6.158,3.574,5.474.456c1.674-.229.836-3.346.3-3.954,2.661.837,3.059-1.407-1.5-6.654a17.267,17.267,0,0,0,.114-3.821" transform="translate(-569.724 -509.345)" fill="#f79683"/><path d="M742.629,549.365c.831,4.3,7.265,4.278,11.437-6.793.831,5.683,13.029-2.548,15.109-13.377,1.248,10.812,7.693,17.259,9.5,17.673-3.188,12.2-2.268,26.723,13.037,21.415-1.94-19.822-6.385-39.156-9.987-42.484s-11.089-9.286-20.516-5.405-20.931,7.623-18.576,28.97" transform="translate(-568.971 -495.75)" fill="#2d2833"/><path d="M787.984,574.282c4.564,2.013,8.343-1.441,10.668-4.989l-.543-.071a3.983,3.983,0,0,0,2.906,3.159.3.3,0,0,0,.158-.572,3.394,3.394,0,0,1-2.491-2.744c-.041-.275-.418-.262-.543-.071-2.12,3.233-5.617,6.644-9.857,4.775-.346-.153-.65.358-.3.513" transform="translate(-573.531 -500.732)"/><path d="M766.955,557.558a10.56,10.56,0,0,1-1.411-.116,2.983,2.983,0,0,1-2.385-2.054,4.882,4.882,0,0,1-.359-1.9,8.544,8.544,0,0,0-.076-.873,3.386,3.386,0,0,0-1.146-2.52,9.307,9.307,0,0,0-1.684-1.145.3.3,0,1,1,.288-.519,9.835,9.835,0,0,1,1.784,1.214,3.957,3.957,0,0,1,1.346,2.889,9.005,9.005,0,0,1,.079.925,4.407,4.407,0,0,0,.312,1.691,2.419,2.419,0,0,0,1.934,1.7,4.151,4.151,0,0,0,3.021-.357.3.3,0,1,1,.364.47,3.3,3.3,0,0,1-2.068.59" transform="translate(-570.717 -498.682)"/><path d="M766.449,561.242a8.052,8.052,0,0,1-2.82-.488.3.3,0,1,1,.215-.553,7.441,7.441,0,0,0,4.183.265,7.106,7.106,0,0,0,2.248-1.053,13.258,13.258,0,0,0,.922-.992c.055-.074.114-.172.175-.273a1.741,1.741,0,0,1,.619-.709.3.3,0,0,1,.264.533,1.575,1.575,0,0,0-.374.484c-.073.12-.144.236-.214.329a13.1,13.1,0,0,1-.963,1.037l-.058.056a7.615,7.615,0,0,1-2.449,1.157,6.967,6.967,0,0,1-1.747.206" transform="translate(-571.087 -499.585)"/><path d="M773.337,550.734c-.6-.059-2.338-1.376-1.319-1.855.54-.239,1.379.359,1.677.719.361.359.721,1.018,0,1.136a1.933,1.933,0,0,1-1.5-.538c-.241-.239-.841-1.317-.062-1.257a2.48,2.48,0,0,1,.9.659c.122.12.66.6.6.778-.12.537-1.319-.54-1.436-.718-.181-.239-.422-.719.117-.54a2.1,2.1,0,0,1,.9.718c.24.24.3.66-.12.42a1.351,1.351,0,0,1-.48-.659" transform="translate(-571.916 -498.725)"/><path d="M773.5,551.006c-.06,0-.12,0-.179-.008a.239.239,0,0,1-.05,0,.773.773,0,0,1-.116-.02,2.257,2.257,0,0,1-1.2-.6,2.119,2.119,0,0,1-.3-.429,1.307,1.307,0,0,1-.267-.552.738.738,0,0,1,.474-.814c.708-.312,1.672.364,2.031.8a1.276,1.276,0,0,1,.454,1.151.715.715,0,0,1-.634.469,1.966,1.966,0,0,1-.207.011" transform="translate(-571.882 -498.693)"/><path d="M757.41,553.3a1.544,1.544,0,0,1-1.038-.554c-.278-.208-.9-1.109-.417-1.247.554-.209,1.247.692,1.525,1.039.207.416.346.969-.278.9a2.045,2.045,0,0,1-1.386-1.108c-.139-.209-.277-.556-.069-.694.208-.07.625.138.762.209.346.206.971.622.9,1.037a.373.373,0,0,1-.623.278" transform="translate(-570.306 -498.99)"/><path d="M757.267,553.706a1.1,1.1,0,0,1-.13-.008,2.347,2.347,0,0,1-1.626-1.285,1.039,1.039,0,0,1-.188-.718.527.527,0,0,1,.226-.341l.03-.017a.548.548,0,0,1,.261-.159c.714-.271,1.455.659,1.81,1.1a.513.513,0,0,1,.061.087c.238.476.272.841.1,1.087a.618.618,0,0,1-.545.249m-1.133-1.73a1.694,1.694,0,0,0,.382.5,2.06,2.06,0,0,0,.551.422.078.078,0,0,0,.013-.047c.02-.144-.122-.4-.755-.782-.073-.037-.136-.067-.191-.09" transform="translate(-570.273 -498.956)"/><path d="M772.7,543.544a.293.293,0,0,1-.133-.032c-2.038-1.02-4.13-1.79-5.637-.525a.3.3,0,0,1-.382-.454c2.011-1.69,4.9-.246,6.285.449a.3.3,0,0,1-.132.562" transform="translate(-571.388 -498.016)"/><path d="M745.581,553.342a3.452,3.452,0,0,1-2.191-.742,2.775,2.775,0,0,1-.93-2.722c.01-.215.021-.438.021-.67a.3.3,0,0,1,.595,0c0,.242-.012.474-.023.7-.046.931-.078,1.6.707,2.228,1.483,1.177,3.608.5,4.956-.633a13.4,13.4,0,0,0,3.309-4.428c.682-1.359,1.279-2.786,1.856-4.167l.109-.26a.3.3,0,1,1,.548.229,1.517,1.517,0,0,0,.13,1.663,2.348,2.348,0,0,0,2.309.526c3.487-.921,6.6-3.712,9.5-8.533a28.356,28.356,0,0,0,1.68-3.247,4.493,4.493,0,0,0,.387-2.1,6.74,6.74,0,0,1,.147-1.666.3.3,0,1,1,.576.142,6.3,6.3,0,0,0-.129,1.523,5.011,5.011,0,0,1-.443,2.349,28.555,28.555,0,0,1-1.709,3.3c-2.993,4.959-6.219,7.838-9.862,8.8a2.957,2.957,0,0,1-2.908-.711,1.813,1.813,0,0,1-.324-.526c-.418.984-.858,1.976-1.341,2.938a13.971,13.971,0,0,1-3.457,4.617,5.723,5.723,0,0,1-3.517,1.386" transform="translate(-568.983 -496.769)"/><path d="M782.489,548.128a5.047,5.047,0,0,1-3.345-1.534c-3.979-4.029-6.755-10.212-7.615-16.965a.3.3,0,0,1,.257-.332.3.3,0,0,1,.333.257c.843,6.625,3.559,12.684,7.447,16.622a3.939,3.939,0,0,0,3.676,1.237c1.152-.4,1.759-1.969,1.942-3.308a.3.3,0,1,1,.589.08c-.1.735-.567,3.181-2.339,3.789a2.9,2.9,0,0,1-.946.153" transform="translate(-571.898 -496.769)"/><path d="M758.872,665.832a.3.3,0,0,1-.173-.055c-.827-.592-1.578-1.241-2.305-1.868q-.335-.29-.677-.581a13.554,13.554,0,0,1-3.022-2.95,3.677,3.677,0,0,1-.338-3.453,2.7,2.7,0,0,1,2.017-1.863l2.078-.462a.3.3,0,1,1,.129.579l-2.054.456a2.1,2.1,0,0,0-1.611,1.489,3.077,3.077,0,0,0,.271,2.917,13.077,13.077,0,0,0,2.906,2.825c.239.2.465.4.69.592.75.647,1.457,1.259,2.262,1.834a.3.3,0,0,1-.173.539" transform="translate(-569.95 -509.322)"/><path d="M751.792,658.931c-2.262.925-2.333,3.264-.833,5.04a33.575,33.575,0,0,0,4.21,3.758c.837.705,1.752,2,2.918,2.051.382.017.381-.577,0-.595-.728-.033-1.562-1.057-2.071-1.51-.836-.743-1.716-1.438-2.565-2.167-1.526-1.309-4.951-4.593-1.5-6,.35-.143.2-.719-.157-.573" transform="translate(-569.735 -509.754)"/><path d="M750.815,606.655a23.272,23.272,0,0,0-.366,6.123,9.934,9.934,0,0,0,2.22,4.712c.226.3.742.008.513-.3a9.958,9.958,0,0,1-2.2-4.926,21.2,21.2,0,0,1,.4-5.453c.057-.374-.516-.535-.571-.157" transform="translate(-569.777 -504.498)"/><path d="M735.489,633.555c1.8,1.045,3.308,2.483,5.019,3.65.317.217.614-.3.3-.513-1.712-1.168-3.222-2.6-5.019-3.65a.3.3,0,0,0-.3.513" transform="translate(-568.273 -507.159)"/><path d="M803.926,606.429c2.01,2.784,4.67,5.074,6.5,7.984.2.323.718.025.513-.3-1.835-2.913-4.491-5.2-6.5-7.983-.221-.308-.737-.012-.513.3" transform="translate(-575.138 -504.454)"/><path d="M758.072,580.719c1.558,3.183,4.883,4.736,7.959,6.139a31.236,31.236,0,0,0,11.851,2.427,36.153,36.153,0,0,0,23.427-8.163c.3-.241-.125-.659-.42-.42a36.026,36.026,0,0,1-22.462,8,31.466,31.466,0,0,1-11.257-2c-3.22-1.266-7-3.04-8.586-6.284-.168-.345-.68-.043-.513.3" transform="translate(-570.546 -501.875)"/><path d="M760.192,653.824c11.042,2.979,22.775,4.405,34.07,1.978.374-.081.216-.654-.157-.574-11.191,2.407-22.817.974-33.755-1.977a.3.3,0,0,0-.157.573" transform="translate(-570.741 -509.186)"/><path d="M773.443,656.411v27.7c0,3.122.29,6.263-.445,9.33-.089.373.484.531.574.158a33.347,33.347,0,0,0,.468-8.356c-.048-3.127,0-6.257,0-9.383V656.411a.3.3,0,0,0-.594,0" transform="translate(-572.044 -509.476)"/><path d="M775.809,663.262a2.066,2.066,0,0,0,1.63,1.413c.882.12,1.352-.59,1.363-1.4a1.518,1.518,0,0,0-2.994-.325c-.07.374.5.534.573.158a.922.922,0,0,1,1.826.167c.084,1.406-1.554.67-1.826-.174-.117-.363-.69-.207-.573.158" transform="translate(-572.325 -510.043)"/><path d="M775.005,653.494a2.066,2.066,0,0,0,1.63,1.413c.882.12,1.353-.59,1.364-1.4a1.519,1.519,0,0,0-2.995-.328c-.07.375.5.534.573.158a.922.922,0,0,1,1.827.169c.084,1.4-1.555.669-1.827-.174-.117-.364-.69-.208-.573.158" transform="translate(-572.245 -509.064)"/><path d="M776.19,678.566a2.022,2.022,0,0,0,1.057,2.422,1.3,1.3,0,0,0,2-.938,1.855,1.855,0,0,0-1.078-1.993,1.413,1.413,0,0,0-1.95.437c-.175.34.339.641.513.3.227-.44.738-.4,1.136-.224a1.311,1.311,0,0,1,.818,1.2c-.005.775-.631,1-1.228.655a1.4,1.4,0,0,1-.7-1.7c.138-.358-.436-.511-.572-.157" transform="translate(-572.353 -511.653)"/><path d="M798.349,657.269a44.55,44.55,0,0,0,4.88,7.24,16.03,16.03,0,0,0,2.721,2.462,11.723,11.723,0,0,0,4.177,1.55.3.3,0,0,0,.157-.573,12.93,12.93,0,0,1-3.687-1.239,14.864,14.864,0,0,1-2.948-2.62,38.293,38.293,0,0,1-4.787-7.119.3.3,0,0,0-.513.3" transform="translate(-574.581 -509.546)"/><path d="M760.35,661.579c2.367-.573,2.826-3.161,4.236-4.792.249-.288-.169-.71-.42-.42-1.306,1.508-1.808,4.115-3.974,4.639-.372.09-.215.663.157.573" transform="translate(-570.741 -509.49)"/><path d="M873.138,686.76c-.138,3.447-1.93,16.547-1.655,19.716,12.134,4.277,58.876,24.269,58.876,24.269s-3.31-36.952-4-41.641-53.222-2.344-53.222-2.344" transform="translate(-581.909 -512.486)" fill="#f14141"/><path d="M872.805,686.725c-.148,3.266-.62,6.529-.964,9.778s-.933,6.668-.692,9.938a.307.307,0,0,0,.219.287c8.484,3,16.782,6.579,25.091,10.026q13.978,5.8,27.9,11.734,2.909,1.236,5.815,2.478c.184.079.47-.006.447-.256q-.939-10.476-1.918-20.948c-.451-4.823-.905-9.647-1.392-14.467-.161-1.6-.327-3.21-.511-4.812a3.626,3.626,0,0,0-.508-2.074c-1.33-1.456-4.5-1.527-6.28-1.745-4.138-.507-8.327-.64-12.49-.738-9.144-.213-18.3-.038-27.438.246-2.328.073-4.656.152-6.982.256-.382.016-.383.611,0,.594,5.537-.247,11.081-.393,16.623-.495a270.882,270.882,0,0,1,27.936.49c2.463.211,5.74.242,7.925,1.584.663.408.556,1.338.636,2.025.188,1.634.354,3.272.518,4.909.971,9.617,1.842,19.244,2.716,28.87q.286,3.153.57,6.3l.446-.257c-15.408-6.588-30.845-13.125-46.379-19.412q-3.837-1.552-7.693-3.058-1.475-.574-2.959-1.128c-.441-.165-.882-.327-1.326-.487-.558-.2-.4-.1-.4-.793-.021-6.308,1.4-12.557,1.684-18.848.017-.382-.577-.381-.594,0" transform="translate(-581.873 -512.452)" fill="#f14141"/><path d="M893.831,692.433c.01,5.122.266,10.241.144,15.363-.041,1.729-.627,3.905.516,5.382a3.972,3.972,0,0,0,1.935.93,19.528,19.528,0,0,0,2.289.776c3.13.588,1.378-4.8,1.235-6.164a158.566,158.566,0,0,1-.7-16.411.3.3,0,0,0-.595,0c0,4.108.089,8.214.355,12.313a47.325,47.325,0,0,0,.508,5.326c.215,1.188,1.37,4.74-.991,4.3a8.3,8.3,0,0,1-1.565-.574c-1.424-.588-2.536-.75-2.535-2.708,0-2,.173-4.009.178-6.017.015-4.171-.174-8.34-.182-12.512a.3.3,0,0,0-.594,0" transform="translate(-584.147 -513.072)"/><path d="M874.288,694.893a38.838,38.838,0,0,0,9.391,2.151c3.5.5,7.03.837,10.562,1.021,4.536.238,9.1.1,13.641.013,2.636-.052,5.272-.139,7.9-.4,2.925-.289,5.832-.685,8.776-.711a.3.3,0,0,0,0-.594c-5.382.048-10.719.974-16.109,1.094-4.53.1-9.084.215-13.613.027-3.543-.148-7.084-.5-10.6-.972a39.336,39.336,0,0,1-9.792-2.207c-.354-.147-.506.427-.157.573" transform="translate(-582.174 -513.3)"/><path d="M915.443,699.206c.517,4.126-.259,8.564,1.648,12.416,1.706,3.444,7.479,6.131,11.069,4.387.344-.166.043-.678-.3-.512-2.273,1.1-4.9.038-6.97-1.041a7.568,7.568,0,0,1-3.8-4.359c-1.228-3.453-.6-7.312-1.05-10.89-.047-.374-.642-.38-.594,0" transform="translate(-586.316 -513.764)"/><path d="M878.894,696.907a14.145,14.145,0,0,1-.759,4.264c-.53,1.484-2.152,3.965-3.849,4.273-.377.068-.217.642.157.573,1.559-.284,2.631-1.981,3.448-3.175a10.993,10.993,0,0,0,1.6-5.936c.015-.384-.579-.382-.594,0" transform="translate(-582.172 -513.533)"/><path d="M882.668,589.8c3.93-1.654,4.136-3.722,2.482-9.307-9.514,1.033-14.065-6.412-16.754-13.031s-9.1-16.338-5.168-23.784,24.129-22.612,37.366,6.963c4.343-2.138,9.445,8,.343,12.341-1.239,0,.346,3.033,1.173,6.343s3.516,15.3,7.445,17.373c-2.068,10.342-19.028,13.237-26.886,3.1" transform="translate(-580.961 -497.151)" fill="#f79683"/><path d="M885.945,560.014c-1.523.539.517,3.827,1.964,3.206s-.206-3.825-1.964-3.206" transform="translate(-583.307 -499.838)"/><path d="M872.843,563.462c-1.522.536.517,3.826,1.964,3.205s-.205-3.826-1.964-3.205" transform="translate(-581.995 -500.184)"/><path d="M879.673,571.569a2.414,2.414,0,0,1-1.436-.4c-1.1-.78-1.055-2.484-1.014-4.131.008-.31.016-.617.016-.915,0-2.254-1.849-5.176-5.493-8.68a.3.3,0,1,1,.411-.428c3.767,3.621,5.676,6.686,5.676,9.108,0,.3-.008.615-.016.929-.037,1.493-.076,3.036.764,3.633.652.463,1.867.364,3.606-.291a.3.3,0,0,1,.211.556,8.031,8.031,0,0,1-2.724.615" transform="translate(-581.929 -499.538)"/><path d="M884.593,575.641a.3.3,0,0,1-.034-.592,8.187,8.187,0,0,0,5.488-3.406.3.3,0,0,1,.417-.05.3.3,0,0,1,.051.418,8.762,8.762,0,0,1-5.886,3.628l-.036,0" transform="translate(-583.196 -501)"/><path d="M878.876,555.975c-1.438-2.158,1.343-5.481,5.377-4.549s3.411,2.1,2.482,2.205a10.25,10.25,0,0,0-5.654,2.067c-1.654,1.344-2,.587-2.2.277" transform="translate(-582.615 -498.97)" fill="#2b2630"/><path d="M879.538,556.734a1.053,1.053,0,0,1-.91-.578,2.724,2.724,0,0,1-.091-2.9,5.172,5.172,0,0,1,5.751-2.156c2.867.661,3.431,1.447,3.4,1.989a.966.966,0,0,1-.952.8l-.168.018a9.83,9.83,0,0,0-5.331,1.985,2.987,2.987,0,0,1-1.7.838m3.309-5.2a4.247,4.247,0,0,0-3.785,2.011,2.125,2.125,0,0,0,.03,2.237l.038.058c.121.189.21.3.409.3a2.432,2.432,0,0,0,1.323-.7,10.373,10.373,0,0,1,5.645-2.115l.165-.018c.247-.027.419-.148.425-.245.011-.192-.5-.812-2.941-1.376a5.814,5.814,0,0,0-1.307-.153" transform="translate(-582.582 -498.938)" fill="#2b2630"/><path d="M865.987,560.76c.206-1.308,3.515-3.17,6.549-2.275.9.07-1.515-2.138-3.377-2.688s-4.963.9-3.172,4.962" transform="translate(-581.308 -499.413)" fill="#2b2630"/><path d="M865.953,561.024a.3.3,0,0,1-.273-.177c-.916-2.08-.545-3.381-.073-4.1a3.233,3.233,0,0,1,2.71-1.387,3.131,3.131,0,0,1,.891.124c1.459.432,3.885,2.2,3.779,2.928a.412.412,0,0,1-.446.344l-.063,0a.477.477,0,0,1-.06-.012,5.6,5.6,0,0,0-1.584-.222c-2.336,0-4.448,1.366-4.587,2.259a.3.3,0,0,1-.256.248.262.262,0,0,1-.038,0m2.365-5.075a2.652,2.652,0,0,0-2.213,1.117,3.31,3.31,0,0,0-.128,2.906,6.364,6.364,0,0,1,4.857-2.052,6.3,6.3,0,0,1,1.343.142,8.4,8.4,0,0,0-3.138-2.014,2.543,2.543,0,0,0-.723-.1" transform="translate(-581.274 -499.38)" fill="#2b2630"/><path d="M852.352,542.638a7.881,7.881,0,0,0,9.7,3.059c1.24-.552,2.688-2.137,5.515-1.862s4.826-.551,7.928-3.032,7.031-3.034,9.307-.621.965,6.344,2.9,7.652,4.343.139,4.826,2.69.208,7.513,2.069,8,2.551-3.309,2.483-6.135,2.756-2.965,4.481-3.172.828-10.065-1.657-14.132-6.823-5.24-9.031-5.93-4.781-3.746-7.445-6.274c-1.623-1.54-5.447-1.861-8.065.207s-3.45,1.379-6.481,0-8.676.328-10.884,3.843a4.887,4.887,0,0,0,2.06,7.119c-5.308-.69-10.388,4.386-7.7,8.591" transform="translate(-579.921 -496)" fill="#2d2833"/><path d="M887.236,583.972a.3.3,0,0,1,0-.594,12.214,12.214,0,0,0,8.21-3.918c2.137-2.226,4.645-6.387,4.459-13.564a.3.3,0,0,1,.29-.305.3.3,0,0,1,.3.29c.191,7.382-2.409,11.682-4.625,13.99a12.82,12.82,0,0,1-8.628,4.1Z" transform="translate(-583.461 -500.405)"/><path d="M887.493,584.44l-.014.029c.077-.006.148-.006.224-.014a17.84,17.84,0,0,1,.971,5.089c8.684,5.1,12.679-8.262,11.3-16.879-3.059,9.276-9.224,11.347-12.483,11.775" transform="translate(-583.515 -501.114)"/><path d="M883.063,594.253c1.793,2.62,4.965,4.686,11.444,4.273s11.859-5.377,12.549-6.757,2.618.83,8,1.519,15.03.414,20.406,9.789,5.656,26.06,3.173,39.435-4,20.679-11.306,20.679c0,12.549-.139,17.651-5.1,17.239s-19.857,1.653-31.438,1.1-21.1-1.244-22.061-5.517-.826-12.547-1.378-18.2c-9.514,4.55-16-.691-18.752-12.135s5.515-21.509,6.758-29.092,7.032-15.443,13.512-17.235a134.228,134.228,0,0,0,14.2-5.1" transform="translate(-579.563 -502.983)" fill="#2c78dc"/><path d="M882.776,594.369c3.452,4.907,10.465,5.325,15.758,3.6a20.142,20.142,0,0,0,7.459-4.536,15.121,15.121,0,0,0,1.4-1.714c.428-.54,2.463.54,2.919.705,5.43,1.958,11.368,1.191,16.749,3.464,6.866,2.9,9.959,9.758,11.459,16.631,2.321,10.642,1.325,21.813-.677,32.409-.818,4.325-1.557,8.862-3.4,12.893-1.393,3.04-3.715,5-7.143,5.041a.3.3,0,0,0-.3.3c0,3.6.051,7.214-.277,10.8-.17,1.852-.415,4.465-2.077,5.65-1.406,1-3.876.415-5.493.461-3.249.094-6.5.377-9.74.6a182.477,182.477,0,0,1-24.5.211,57.1,57.1,0,0,1-11.03-1.484c-2.539-.677-4.6-1.718-5.086-4.444-1.007-5.636-.648-11.483-1.182-17.171a.3.3,0,0,0-.446-.256c-2.833,1.323-5.94,2.07-9.017,1.19-2.833-.807-4.92-3.094-6.392-5.538a25.623,25.623,0,0,1-3.4-10.827,27.741,27.741,0,0,1,1.918-11.384c1.156-3.275,2.682-6.4,3.948-9.635,1.212-3.1,1.537-6.4,2.751-9.487a23.38,23.38,0,0,1,7.342-9.885c3.052-2.35,7.005-3.007,10.57-4.261,2.8-.984,5.574-2.057,8.3-3.224.352-.15.049-.661-.3-.513-2.115.9-4.262,1.734-6.417,2.533q-2.686,1-5.418,1.86a30.862,30.862,0,0,0-4.938,1.747c-6.35,3.262-9.868,10.32-11.2,17.012-.636,3.2-2.157,6.221-3.427,9.2a50.227,50.227,0,0,0-3.343,10.062,24.28,24.28,0,0,0,4.317,18.906,11.189,11.189,0,0,0,6.394,4.226c2.933.641,5.96-.233,8.609-1.469l-.448-.256c.352,3.729.416,7.477.616,11.215.089,1.665.211,3.327.419,4.98a8.267,8.267,0,0,0,.773,3.105c1.008,1.769,3.407,2.49,5.23,2.977a55.417,55.417,0,0,0,10.351,1.381,176.266,176.266,0,0,0,24.549-.147c3.293-.222,6.586-.5,9.885-.622,1.729-.065,3.8.381,5.456-.22,1.872-.681,2.461-2.886,2.775-4.636.741-4.131.519-8.483.519-12.658l-.3.3c4.658-.061,7.058-3.388,8.513-7.457a67.775,67.775,0,0,0,2.422-9.946c.741-3.824,1.4-7.648,1.773-11.527a72.618,72.618,0,0,0-1.1-23.013c-1.432-6.286-4.375-12.327-10.239-15.514-3.465-1.883-7.436-2.417-11.3-2.8a29.368,29.368,0,0,1-6.894-1.356c-.891-.31-2.393-1.257-3.346-.68-.33.2-.509.7-.745.988a12.66,12.66,0,0,1-1.681,1.642,19.8,19.8,0,0,1-7.166,3.858c-4.789,1.427-11.176.767-14.24-3.588-.219-.311-.734-.014-.513.3" transform="translate(-579.532 -502.949)" fill="#2c78dc"/><path d="M867.721,607.7c1.655-2.792,1.843-6.854.085-12.645s-2.586-8.79,1.966-10.858c.1-1.965,3.309-3.827,5.791-3.929,2.377-2.586,10.236.723,6.1,4.86a2.012,2.012,0,0,1-.93,2.378c2.311,3.619,3.516,5.584,1.033,10.962a60.576,60.576,0,0,0-3.722,11.271s-5.876,1.374-10.323-2.039" transform="translate(-581.403 -501.784)" fill="#f79683"/><path d="M877.312,590.46a1.739,1.739,0,0,1-1.35-.526,2.713,2.713,0,0,1-.468-2.1,4.835,4.835,0,0,1-2.3.425.3.3,0,0,1-.272-.32.3.3,0,0,1,.321-.272,3.841,3.841,0,0,0,2.47-.687.3.3,0,0,1,.48.3c-.121.432-.318,1.676.205,2.247a1.514,1.514,0,0,0,1.453.277,1.7,1.7,0,0,0,1.47-1.307,4.884,4.884,0,0,0-1.6-4.235c-1.607-1.287-5.3-.737-7.739.581a.3.3,0,0,1-.283-.523c2.6-1.4,6.544-2,8.393-.523a5.4,5.4,0,0,1,1.807,4.844,2.272,2.272,0,0,1-1.938,1.747,3.57,3.57,0,0,1-.652.065" transform="translate(-581.718 -502.144)"/><path d="M880.254,588.319a.3.3,0,0,1-.036-.592,1.955,1.955,0,0,0,1.282-.839,3.272,3.272,0,0,0-.011-2.77c-1.23-3.62-5.113-3.85-7.419-3.121a.3.3,0,1,1-.179-.567c2.531-.8,6.794-.526,8.161,3.5a3.8,3.8,0,0,1-.053,3.283,2.533,2.533,0,0,1-1.71,1.107l-.036,0" transform="translate(-582.133 -501.856)"/><path d="M882.649,585.38a.3.3,0,0,1-.175-.537,2.49,2.49,0,0,0,.689-3.451,5.113,5.113,0,0,0-4.055-1.855,2.765,2.765,0,0,0-2.315.857.3.3,0,0,1-.487-.341,3.3,3.3,0,0,1,2.776-1.11h.028a5.726,5.726,0,0,1,4.542,2.113,3.03,3.03,0,0,1-.829,4.269.3.3,0,0,1-.174.057" transform="translate(-582.39 -501.743)"/><path d="M878.732,593.722a.292.292,0,0,1-.227-.105c-1.383-1.634-3.675-2.651-5.226-2.314a.3.3,0,1,1-.126-.581c1.771-.382,4.269.695,5.806,2.512a.3.3,0,0,1-.227.489" transform="translate(-582.056 -502.915)"/><path d="M875.114,617.869a16.065,16.065,0,0,1-9.179-2.345.3.3,0,0,1,.309-.508c2.439,1.484,5.1,2.43,10.176,2.232a.279.279,0,0,1,.309.284.3.3,0,0,1-.285.309c-.462.019-.9.027-1.329.027" transform="translate(-581.342 -505.353)"/><path d="M890.558,654.182c-1.345.1-13.03-.725-15.512-.725-1.655,6.93-6.466,13.356-14.065,12.2-1.862,1.758.105,3.206,1.449,3.929s.723,2.171,2.171,3.413,3.206.1,4.343.413,2.481,1.656,5.275-1.758,5.686-5.687,9.41-4.86a49,49,0,0,1,5.687,1.55s-4.24-4.755,1.242-14.166" transform="translate(-580.784 -509.208)" fill="#f79683"/><path d="M915.63,670.676c-10.391,0-21.317-.983-23.438-2.461a.3.3,0,0,1-.083-.089c-3.24-5.294-.406-12.527,1.267-14.513a.3.3,0,0,1,.233-.106c.112,0,11.27.191,15.311-1.123,2.5-.813,8.827-2.7,13.535-2.7a.3.3,0,0,1,0,.595c-4.623,0-10.877,1.87-13.351,2.674-3.929,1.278-13.973,1.176-15.36,1.154-1.549,1.979-4.091,8.789-1.162,13.657,3.4,2.189,31.447,3.64,40.642.754a.3.3,0,0,1,.177.566c-3.56,1.118-10.537,1.6-17.771,1.6" transform="translate(-583.83 -508.83)"/><path d="M921.254,648.593a.281.281,0,0,1-.125-.028.3.3,0,0,1-.144-.394c1.306-2.812,2.959-14.048,3.283-17.073a.3.3,0,0,1,.327-.264.3.3,0,0,1,.264.327c-.246,2.31-1.9,14.174-3.335,17.26a.3.3,0,0,1-.269.172" transform="translate(-586.869 -506.942)"/><path d="M897.567,669.751a.294.294,0,0,1-.246-.13c-2.722-4.03-.061-13.447.914-15.3a.3.3,0,1,1,.526.276c-1.148,2.181-3.366,11.109-.948,14.69a.3.3,0,0,1-.246.463" transform="translate(-584.382 -509.279)"/><path d="M861.9,661.81a7.151,7.151,0,0,1-1.685-.178.3.3,0,1,1,.144-.577c2,.5,6.238-.148,8.333-2.3,6.893-7.079,7.874-25.746,7.432-34.628a40.572,40.572,0,0,1,.57-8.226,10.123,10.123,0,0,0,.223-2.648c-5.828,1.253-8.492-.68-9.924-1.72a3.14,3.14,0,0,0-.962-.571c-.377.122-1.209,2.462-1.944,4.526-1.226,3.446-2.9,8.168-5.309,11.888a29.646,29.646,0,0,0-4.917,17.827.3.3,0,0,1-.291.3h-.005a.3.3,0,0,1-.3-.292,30.2,30.2,0,0,1,5.01-18.161c2.367-3.662,4.033-8.345,5.249-11.764,1.278-3.591,1.833-5.038,2.6-4.914a3.265,3.265,0,0,1,1.213.677c1.46,1.06,3.909,2.834,9.532,1.6a.492.492,0,0,1,.475.179c.328.38.224,1.191-.067,3.155a40.167,40.167,0,0,0-.564,8.109c.053,1.059,1.194,26.042-7.6,35.072-1.782,1.831-4.9,2.638-7.218,2.638" transform="translate(-580.086 -504.892)"/><path d="M897.555,603.372c-.212,0-.418,0-.62-.013-5.585-.215-9.558-3.134-10.75-4.924a.3.3,0,0,1,.495-.329c1.21,1.817,5.2,4.464,10.278,4.659,4.063.159,10.153-1.226,16.024-8.711a.3.3,0,0,1,.468.367c-5.735,7.313-11.7,8.95-15.894,8.95" transform="translate(-583.38 -503.245)"/><path d="M928.314,700.278c.054,2.281.409,4.6.655,6.866.255,2.353.281,4.7.447,7.06.355,5.018.552,10,.552,15.03a.3.3,0,0,0,.594,0c0-4.841-.2-9.623-.511-14.45-.154-2.375-.181-4.748-.431-7.115-.259-2.445-.654-4.935-.713-7.391a.3.3,0,0,0-.594,0" transform="translate(-587.606 -513.871)"/><path d="M927.068,761.29c0,42.2-78.155,76.415-174.568,76.415S577.933,803.493,577.933,761.29s78.156-76.418,174.567-76.418,174.568,34.214,174.568,76.418" transform="translate(-552.502 -512.356)" fill="#fff"/><path d="M765.248,725.025a4.679,4.679,0,1,0-4.136,0,6.509,6.509,0,0,0-4.446,6.173v4.394h.022c.211,1.3,3.031,2.328,6.493,2.328s6.282-1.031,6.492-2.328h.023V731.2a6.513,6.513,0,0,0-4.448-6.173" transform="translate(-570.409 -515.49)" fill="#f14141"/><path d="M787.854,702.884a4.679,4.679,0,1,0-4.137,0,6.514,6.514,0,0,0-4.446,6.174v4.394h.023c.211,1.3,3.032,2.327,6.491,2.327s6.283-1.029,6.493-2.327h.022v-4.394a6.512,6.512,0,0,0-4.445-6.174" transform="translate(-572.674 -513.272)" fill="#2c78dc"/><path d="M616.669,747.7l23.8,3.057-.286-.376q-3.494,10.482-6.987,20.962c-.078.238.16.4.366.365q14.847-2.185,29.695-4.368c-.121-.07-.244-.139-.365-.208l3.274,8.734c.133.355.708.2.573-.159q-1.637-4.366-3.275-8.733a.306.306,0,0,0-.365-.208L633.4,771.139l.365.364q3.493-10.48,6.986-20.961a.3.3,0,0,0-.286-.375l-23.8-3.057c-.379-.049-.374.545,0,.594" transform="translate(-556.354 -518.591)"/><path d="M617.764,747.136c0,2.112-2.737,3.821-6.113,3.821s-6.114-1.71-6.114-3.821,2.737-3.821,6.114-3.821,6.113,1.711,6.113,3.821" transform="translate(-555.267 -518.211)" fill="#02a5bf"/><path d="M648.05,750.063c0,1.432-1.858,2.593-4.15,2.593s-4.147-1.161-4.147-2.593,1.856-2.592,4.147-2.592,4.15,1.162,4.15,2.592" transform="translate(-558.695 -518.628)" fill="#2d2833"/><path d="M639.119,772.251c0,2.112-2.737,3.821-6.113,3.821s-6.113-1.71-6.113-3.821,2.736-3.82,6.113-3.82,6.113,1.71,6.113,3.82" transform="translate(-557.407 -520.728)" fill="#2c78dc"/><path d="M671.685,769.021c0,1.282-1.661,2.322-3.712,2.322s-3.713-1.039-3.713-2.322,1.662-2.321,3.713-2.321,3.712,1.039,3.712,2.321" transform="translate(-561.151 -520.554)" fill="#02a5bf"/><path d="M675.324,778.727c0,1.282-1.662,2.321-3.713,2.321s-3.713-1.038-3.713-2.321,1.662-2.318,3.713-2.318,3.713,1.038,3.713,2.318" transform="translate(-561.515 -521.527)" fill="#f14141"/><path d="M662.886,734.957q19.628-5.522,39.256-11.041c.327-.092-.284-.287-.156-.105.143.2.285.4.427.6l2.088,2.924,6.92,9.686,10.518,14.725.336-.436L680.206,741l-19.473-4.772a.3.3,0,0,0-.157.575q21.034,5.152,42.07,10.306l19.472,4.771c.234.057.5-.212.337-.436q-10-14-20-28a.3.3,0,0,0-.335-.137L662.86,734.347l-.131.037a.3.3,0,0,0,.157.573" transform="translate(-560.76 -516.205)"/><path d="M707.269,709.65a5.222,5.222,0,1,0-4.614,0,7.267,7.267,0,0,0-4.964,6.89v4.9h.026c.235,1.448,3.382,2.6,7.245,2.6s7.01-1.148,7.246-2.6h.023v-4.9a7.266,7.266,0,0,0-4.962-6.89" transform="translate(-564.5 -513.846)" fill="#2d2833"/><path d="M732.417,745.345a5.221,5.221,0,1,0-4.614,0,7.268,7.268,0,0,0-4.962,6.889v4.9h.022c.238,1.447,3.387,2.6,7.248,2.6s7.01-1.15,7.247-2.6h.023v-4.9a7.268,7.268,0,0,0-4.963-6.889" transform="translate(-567.02 -517.423)" fill="#2c78dc"/><path d="M662.313,725.511a5.222,5.222,0,1,0-4.616,0,7.27,7.27,0,0,0-4.962,6.89v4.9h.024c.236,1.448,3.385,2.6,7.246,2.6s7.009-1.148,7.245-2.6h.023v-4.9a7.268,7.268,0,0,0-4.961-6.89" transform="translate(-559.996 -515.436)" fill="#f14141"/><path d="M796.309,721.29a4.678,4.678,0,1,0-4.135,0,6.51,6.51,0,0,0-4.446,6.172v4.4h.022c.211,1.3,3.031,2.327,6.492,2.327s6.281-1.03,6.491-2.327h.022v-4.4a6.508,6.508,0,0,0-4.446-6.172" transform="translate(-573.521 -515.116)" fill="#2d2833"/><path d="M848.59,734.042a3.591,3.591,0,0,1,3.155-.048l19.811,11.457c.821.474.739,1.266-.185,1.766l-15.589,8.459a3.594,3.594,0,0,1-3.157.047l-19.809-11.456c-.821-.473-.737-1.264.184-1.765Z" transform="translate(-577.982 -517.243)" fill="#fe6868"/><path d="M853.915,757.321l-.031,0a.3.3,0,0,1-.264-.326l1.209-11.585a.475.475,0,0,0-.143-.374,2.293,2.293,0,0,0-1.658-.512l-20.784.312h-.005a.3.3,0,0,1,0-.594l20.785-.313a2.769,2.769,0,0,1,2.106.706,1.057,1.057,0,0,1,.3.838l-1.21,11.583a.3.3,0,0,1-.3.266" transform="translate(-577.951 -518.272)"/><path d="M851.186,743.514l-.031,0a.3.3,0,0,1-.265-.326l1-9.586a.293.293,0,0,1,.327-.265.3.3,0,0,1,.264.326l-1,9.586a.3.3,0,0,1-.294.266" transform="translate(-579.849 -517.211)"/><path d="M857.539,748.168a.3.3,0,0,1-.005-.594l16.767-.252h.005a.3.3,0,0,1,0,.594l-16.766.252Z" transform="translate(-580.485 -518.613)"/><path d="M858.195,711.129a2.572,2.572,0,0,1,2.259-.034l14.168,8.195c.588.339.528.9-.132,1.262L863.341,726.6a2.573,2.573,0,0,1-2.258.034l-14.171-8.194c-.584-.337-.525-.9.134-1.261Z" transform="translate(-579.41 -514.958)" fill="#2c78dc"/><path d="M862,727.857l-.032,0a.3.3,0,0,1-.265-.327l.865-8.286a.246.246,0,0,0-.081-.2,1.575,1.575,0,0,0-1.123-.338l-14.864.222h0a.3.3,0,0,1-.005-.595l14.863-.221a2.1,2.1,0,0,1,1.571.532.833.833,0,0,1,.233.664l-.864,8.286a.3.3,0,0,1-.3.266" transform="translate(-579.379 -515.686)"/><path d="M860.045,717.979l-.031,0a.3.3,0,0,1-.265-.326l.717-6.856a.3.3,0,1,1,.59.062l-.717,6.855a.3.3,0,0,1-.294.266" transform="translate(-580.736 -514.926)"/><path d="M864.587,721.308a.3.3,0,0,1,0-.594l11.991-.18h.005a.3.3,0,0,1,0,.594l-11.991.18Z" transform="translate(-581.192 -515.929)"/><path d="M905.317,740.667a3.2,3.2,0,0,1,2.808-.041l17.618,10.187c.73.424.656,1.127-.164,1.571l-13.865,7.526a3.2,3.2,0,0,1-2.807.041l-17.62-10.189c-.729-.422-.654-1.126.165-1.572Z" transform="translate(-583.846 -517.911)" fill="#02a5bf"/><path d="M910.052,761.4l-.032,0a.3.3,0,0,1-.263-.326l1.076-10.306a.39.39,0,0,0-.12-.307,2,2,0,0,0-1.4-.444h-.053l-18.481.275h-.005a.3.3,0,0,1,0-.593l18.484-.276a2.512,2.512,0,0,1,1.9.637.965.965,0,0,1,.272.769l-1.077,10.3a.3.3,0,0,1-.294.266" transform="translate(-583.815 -518.823)"/><path d="M907.625,749.122l-.031,0a.3.3,0,0,1-.265-.327l.893-8.525a.3.3,0,1,1,.59.061l-.892,8.526a.3.3,0,0,1-.3.266" transform="translate(-585.503 -517.879)"/><path d="M913.273,753.259a.3.3,0,0,1,0-.594l14.913-.222h0a.3.3,0,0,1,0,.594l-14.913.222Z" transform="translate(-586.069 -519.126)"/><path d="M827.292,748.434a84.914,84.914,0,0,1-21.773,3c-5.322.121-10.628-.219-15.946-.292v.594H790a.3.3,0,0,0,0-.594h-.426a.3.3,0,0,0,0,.594c5.481.077,10.945.406,16.431.281a83.765,83.765,0,0,0,21.445-3.013.3.3,0,0,0-.157-.573" transform="translate(-573.677 -518.723)"/><path d="M832.595,753.48c-5.333,3.293-10.506,6.833-15.733,10.29-2.542,1.681-5.087,3.336-7.754,4.812a43.578,43.578,0,0,0-6.8,4.342c-.3.244.127.661.42.419a45.475,45.475,0,0,1,7.114-4.49c2.519-1.395,4.914-2.986,7.315-4.571,5.231-3.451,10.4-7,15.732-10.289.327-.2.028-.714-.3-.513" transform="translate(-574.972 -519.225)"/><path d="M845.838,757.377c-3.972,5.46-4.689,16.088,1.592,20.2.321.211.618-.3.3-.512-6.006-3.936-5.143-14.212-1.378-19.39.225-.31-.291-.607-.514-.3" transform="translate(-579.037 -519.607)"/><path d="M793.378,747.817l-7.3,2.068a.3.3,0,0,0-.177.436,37.744,37.744,0,0,0,4.666,5.654c.274.267.7-.153.42-.42a36.885,36.885,0,0,1-4.574-5.534c-.059.145-.119.291-.177.436l7.3-2.068a.3.3,0,0,0-.157-.573" transform="translate(-573.334 -518.661)"/><path d="M802.552,777.36a21.412,21.412,0,0,1-5.205-.418.3.3,0,0,1-.129-.479,29.9,29.9,0,0,0,3.364-5.05.3.3,0,0,1,.527.275,31.137,31.137,0,0,1-3.135,4.8c2.629.537,9.954.121,10.031.116a.29.29,0,0,1,.313.279.3.3,0,0,1-.278.314c-.193.011-2.822.16-5.489.16" transform="translate(-574.464 -521.01)"/><path d="M850.185,781.839a.2.2,0,0,1-.047,0c-.28-.044-6.869-1.11-8.945-1.964a.3.3,0,0,1,.226-.549,63.055,63.055,0,0,0,8.482,1.873c.075-1.247.46-3.946.478-4.073a.3.3,0,1,1,.588.085c-.005.033-.484,3.395-.484,4.335a.3.3,0,0,1-.3.3" transform="translate(-578.859 -521.573)"/><path d="M685.561,642.8c2.346,4.549,22.407,31.092,31.92,42.674,5.017,6.106,6.48,8.687,7.308,13.926s1.1,9.1,3.309,12.821,3.586,5.1,4.688,4.137.691-3.033-.549-6.619-.279-5.1,2.066-3.171,8.272,6.62,12,8.55,6.481.415,3.035-2.345-2.9-2.206-2.9-2.206a9.651,9.651,0,0,0,1.1-7.308c-.966-4.411-4.827-7.306-8-9.926s-11.168-16.409-15.029-23.58-21.526-37.986-22.768-39.779c-4.531.759-13.494,6.687-16.184,12.824" transform="translate(-563.285 -506.856)" fill="#f79683"/><path d="M745.08,711.636c2.464,2.446,4.9,4.9,7.447,7.239.282.259.7-.16.42-.419-2.543-2.335-4.989-4.8-7.447-7.24a.3.3,0,0,0-.42.42" transform="translate(-569.239 -514.987)"/><path d="M748.527,709.454c2.21,1.784,4.466,4.287,4.773,7.236.04.377.634.381.594,0-.325-3.124-2.6-5.761-4.947-7.656-.3-.238-.719.18-.42.42" transform="translate(-569.583 -514.769)"/><path d="M749.509,706.74a10.9,10.9,0,0,1,4,5.51c.122.363.695.208.573-.157a11.58,11.58,0,0,0-4.272-5.866c-.312-.223-.609.293-.3.513" transform="translate(-569.679 -514.49)"/></g></g></svg>