<svg xmlns="http://www.w3.org/2000/svg" width="190" height="174.873" viewBox="0 0 190 174.873"><g transform="translate(-810 -6134.754)"><g transform="translate(9492 10739.313)"><g transform="translate(-8682 -4604.559)"><path d="M99.783,0A28.944,28.944,0,0,0,79.316,8.478L0,87.794H30.3a28.944,28.944,0,0,0,20.467-8.478L130.082,0Z" transform="matrix(0.998, -0.07, 0.07, 0.998, 0, 9.074)" fill="#dae3f6"/><path d="M124.729,0A36.18,36.18,0,0,0,99.145,10.6L0,109.742H37.874a36.18,36.18,0,0,0,25.584-10.6L162.6,0Z" transform="matrix(0.998, -0.07, 0.07, 0.998, 20.138, 65.397)" fill="#dae3f6"/></g><g transform="translate(-8646.356 -4576.627)"><path d="M129.019,42.271v87.307H40V42.271L84.51,32Z" transform="translate(-25.153 -18.864)" fill="#0093b9"/><path d="M104,168h61.629v68.476H104Z" transform="translate(-75.458 -125.762)" fill="#e3e4e2"/><path d="M129.019,42.271V49.69L84.51,38.946,40,49.69V42.271L84.51,32Z" transform="translate(-25.153 -18.864)" fill="#0884a9"/><rect width="14.009" height="7.004" rx="3.502" transform="translate(66.351 33.821) rotate(180)" fill="#57c3c1"/><path d="M115.291,27.983,65.645,16,16,27.983v6.848L65.645,22.848l49.645,11.983Z" transform="translate(-6.289 -6.288)" fill="#e3e4e2"/><path d="M104,168h61.629v29.1H104Z" transform="translate(-75.458 -125.762)" fill="#c9c9c8"/><path d="M77.629,286.781v-27.39H46.814V232H16v54.781Z" transform="translate(-6.289 -176.067)" fill="#f8bc1e"/><path d="M208,360h10.271v10.271H208Z" transform="translate(-157.203 -276.676)" fill="#f9da62"/><path d="M197.1,368h-2.568a2.568,2.568,0,0,0-2.568,2.568v4.345a13.631,13.631,0,0,1-13.629,13.63h-7.77A2.568,2.568,0,0,0,168,391.111v2.568h29.1Z" transform="translate(-125.763 -282.964)" fill="#f5a922"/><path d="M64,360H74.271v10.271H64Z" transform="translate(-44.018 -276.676)" fill="#f9da62"/><path d="M53.1,368H50.535a2.568,2.568,0,0,0-2.568,2.568v4.345a13.631,13.631,0,0,1-13.629,13.63h-7.77A2.568,2.568,0,0,0,24,391.111v2.568H53.1Z" transform="translate(-12.577 -282.964)" fill="#f5a922"/><path d="M64,232H74.271v10.271H64Z" transform="translate(-44.018 -176.067)" fill="#f9da62"/><path d="M53.1,240H50.535a2.568,2.568,0,0,0-2.568,2.568v4.345a13.631,13.631,0,0,1-13.629,13.63h-7.77A2.568,2.568,0,0,0,24,263.111v2.568H53.1Z" transform="translate(-12.577 -182.355)" fill="#f5a922"/><path d="M120,448h3.424v3.424H120Z" transform="translate(-88.034 -345.845)"/><path d="M71.341,251.391h-29.1V225.712A1.712,1.712,0,0,0,40.526,224H9.712A1.712,1.712,0,0,0,8,225.712v54.781A1.712,1.712,0,0,0,9.712,282.2H71.341a1.712,1.712,0,0,0,1.712-1.712V253.1A1.712,1.712,0,0,0,71.341,251.391ZM52.51,254.814h6.848v6.848H52.51ZM21.7,227.424h6.848v6.848H21.7Zm-10.271,0h6.848v8.56a1.712,1.712,0,0,0,1.712,1.712H30.255a1.712,1.712,0,0,0,1.712-1.712v-8.56h6.848v23.967H11.424ZM21.7,254.814h6.848v6.848H21.7Zm-10.271,0h6.848v8.56a1.712,1.712,0,0,0,1.712,1.712H30.255a1.712,1.712,0,0,0,1.712-1.712v-8.56h6.848v23.967H11.424Zm58.2,23.967H42.238V254.814h6.848v8.56a1.712,1.712,0,0,0,1.712,1.712H61.069a1.712,1.712,0,0,0,1.712-1.712v-8.56h6.848Z" transform="translate(-0.001 -169.779)"/><path d="M264,448h3.424v3.424H264Z" transform="translate(-201.22 -345.845)"/><path d="M120,320h3.424v3.424H120Z" transform="translate(-88.034 -245.236)"/><path d="M108.6,30.207a1.7,1.7,0,0,0,.4.048,1.717,1.717,0,0,0,1.482-.853,1.762,1.762,0,0,0,.23-.9V21.7a1.712,1.712,0,0,0-1.31-1.664L59.758,8.048a1.7,1.7,0,0,0-.8,0L9.309,20.031A1.712,1.712,0,0,0,8,21.7v6.8a1.781,1.781,0,0,0,.294,1.01,1.715,1.715,0,0,0,1.819.7l3.023-.729V50.8h3.424V28.651l42.8-10.331,42.8,10.331V109H91.883V42.238a1.712,1.712,0,0,0-1.712-1.712H28.542a1.712,1.712,0,0,0-1.712,1.712v6.848A1.712,1.712,0,0,0,28.542,50.8H88.459v3.424h-42.8v3.424h42.8v3.424h-42.8v3.424h42.8v3.424h-42.8V71.34h42.8V109H76.475v3.424h34.238V109h-5.136V29.477ZM30.254,47.374V43.95h58.2v3.424Zm29.1-32.526a1.7,1.7,0,0,0-.4.048L11.423,26.368V23.043l47.933-11.57,47.933,11.57v3.325L59.758,14.9A1.7,1.7,0,0,0,59.356,14.847Z" transform="translate(0 0)"/><path d="M219.983,98.271a5.136,5.136,0,1,0,0-10.271h-6.848a5.136,5.136,0,1,0,0,10.271Zm-8.56-5.136a1.714,1.714,0,0,1,1.712-1.712h6.848a1.712,1.712,0,1,1,0,3.424h-6.848A1.714,1.714,0,0,1,211.424,93.136Z" transform="translate(-157.203 -62.881)"/></g></g></g></svg>