<svg xmlns="http://www.w3.org/2000/svg" width="190" height="174.873" viewBox="0 0 190 174.873"><g transform="translate(-610 -5887.263)"><g transform="translate(9292 10491.821)"><g transform="translate(-8682 -4604.559)"><path d="M99.783,0A28.944,28.944,0,0,0,79.316,8.478L0,87.794H30.3a28.944,28.944,0,0,0,20.467-8.478L130.082,0Z" transform="matrix(0.998, -0.07, 0.07, 0.998, 0, 9.074)" fill="#dae3f6"/><path d="M124.729,0A36.18,36.18,0,0,0,99.145,10.6L0,109.742H37.874a36.18,36.18,0,0,0,25.584-10.6L162.6,0Z" transform="matrix(0.998, -0.07, 0.07, 0.998, 20.138, 65.397)" fill="#dae3f6"/></g><g transform="translate(-8647.413 -4574.138)"><path d="M85.952,53.323V41.63H73.616a27.115,27.115,0,0,0-3.684-8.848l8.731-8.731L70.4,15.789,61.67,24.52a27.116,27.116,0,0,0-8.848-3.684V8.5H41.13V20.836a27.115,27.115,0,0,0-8.848,3.684l-8.731-8.731-8.262,8.262,8.731,8.731a27.116,27.116,0,0,0-3.684,8.848H8V53.323H20.336A27.115,27.115,0,0,0,24.02,62.17L15.289,70.9l8.262,8.262,8.731-8.731a27.116,27.116,0,0,0,8.848,3.684V86.452H52.823V74.116a27.115,27.115,0,0,0,8.848-3.684L70.4,79.163,78.663,70.9,69.933,62.17a27.116,27.116,0,0,0,3.684-8.848Zm-38.976,7.8a13.632,13.632,0,1,1,9.649-3.993A13.641,13.641,0,0,1,46.976,61.118Zm0,0" transform="translate(-6.051 -6.051)" fill="#3e3d42"/><path d="M107.488,88.5a19.488,19.488,0,1,0,19.488,19.488A19.488,19.488,0,0,0,107.488,88.5Zm0,33.13a13.632,13.632,0,1,1,9.649-3.993A13.641,13.641,0,0,1,107.488,121.63Zm0,0" transform="translate(-66.563 -66.563)" fill="#d80027"/><path d="M15.8,376.5H117.133a7.8,7.8,0,0,1,7.8,7.8v3.9a7.8,7.8,0,0,1-7.8,7.8H15.8a7.8,7.8,0,0,1-7.8-7.8v-3.9A7.8,7.8,0,0,1,15.8,376.5Zm0,0" transform="translate(-6.051 -284.406)" fill="#787680"/><path d="M239.8,404.4a3.9,3.9,0,1,1-3.9-3.9A3.9,3.9,0,0,1,239.8,404.4Zm0,0" transform="translate(-175.485 -302.56)" fill="#acabb1"/><path d="M159.8,404.4a3.9,3.9,0,1,1-3.9-3.9A3.9,3.9,0,0,1,159.8,404.4Zm0,0" transform="translate(-114.973 -302.56)" fill="#acabb1"/><path d="M319.8,404.4a3.9,3.9,0,1,1-3.9-3.9A3.9,3.9,0,0,1,319.8,404.4Zm0,0" transform="translate(-235.997 -302.56)" fill="#acabb1"/><path d="M79.8,404.4a3.9,3.9,0,1,1-3.9-3.9A3.9,3.9,0,0,1,79.8,404.4Zm0,0" transform="translate(-54.461 -302.56)" fill="#acabb1"/><path d="M399.8,404.4a3.9,3.9,0,1,1-3.9-3.9A3.9,3.9,0,0,1,399.8,404.4Zm0,0" transform="translate(-296.509 -302.56)" fill="#acabb1"/><path d="M393.539,322.039H376V304.5h17.539Zm0,0" transform="translate(-284.406 -229.945)" fill="#ffd422"/><path d="M369.539,250.039H352V232.5h17.539Zm0,0" transform="translate(-266.253 -175.485)" fill="#ffcd00"/><path d="M321.539,322.039H304V304.5h17.539Zm0,0" transform="translate(-229.945 -229.945)" fill="#cca400"/><g transform="translate(0 0.5)"><path d="M1.949,49.22H12.76a29.021,29.021,0,0,0,2.744,6.6L7.853,63.472a1.95,1.95,0,0,0,0,2.758L16.12,74.5a1.95,1.95,0,0,0,2.756,0l7.652-7.653a28.963,28.963,0,0,0,6.6,2.744V80.4a1.949,1.949,0,0,0,1.949,1.949H46.771A1.949,1.949,0,0,0,48.72,80.4V69.589a28.963,28.963,0,0,0,6.6-2.744L62.974,74.5a2.006,2.006,0,0,0,2.756,0L74,66.229a1.95,1.95,0,0,0,0-2.758l-7.653-7.649a29.02,29.02,0,0,0,2.744-6.6H79.9a1.949,1.949,0,0,0,1.949-1.949V35.579A1.949,1.949,0,0,0,79.9,33.63H69.089a29.021,29.021,0,0,0-2.744-6.6L74,19.378a1.95,1.95,0,0,0,0-2.758L65.729,8.351a1.95,1.95,0,0,0-2.756,0L55.321,16a29.066,29.066,0,0,0-6.6-2.744V2.449A1.949,1.949,0,0,0,46.771.5H35.079A1.949,1.949,0,0,0,33.13,2.449V13.261A29.068,29.068,0,0,0,26.529,16L18.876,8.351a2.006,2.006,0,0,0-2.756,0L7.851,16.621a1.95,1.95,0,0,0,0,2.758L15.5,27.027a29.02,29.02,0,0,0-2.744,6.6H1.949A1.949,1.949,0,0,0,0,35.579V47.271A1.949,1.949,0,0,0,1.949,49.22ZM3.9,37.527H14.285A1.95,1.95,0,0,0,16.189,36,25.068,25.068,0,0,1,19.6,27.783a1.95,1.95,0,0,0-.264-2.43L11.985,18,17.5,12.485l7.353,7.355a1.95,1.95,0,0,0,2.432.264A25.118,25.118,0,0,1,35.5,16.689a1.95,1.95,0,0,0,1.532-1.9V4.4h7.8V14.785a1.95,1.95,0,0,0,1.532,1.9A25.118,25.118,0,0,1,54.567,20.1,1.95,1.95,0,0,0,57,19.84l7.353-7.355L69.863,18,62.51,25.351a1.95,1.95,0,0,0-.264,2.432A25.054,25.054,0,0,1,65.659,36a1.95,1.95,0,0,0,1.9,1.532H77.952v7.8H67.563a1.95,1.95,0,0,0-1.9,1.532,25.046,25.046,0,0,1-3.412,8.21,1.95,1.95,0,0,0,.264,2.43l7.355,7.353-5.513,5.515L57,63.01a1.95,1.95,0,0,0-2.432-.264,25.05,25.05,0,0,1-8.21,3.414,1.949,1.949,0,0,0-1.534,1.9V78.452h-7.8V68.065a1.949,1.949,0,0,0-1.534-1.9,25.05,25.05,0,0,1-8.21-3.414,1.95,1.95,0,0,0-2.432.264L17.5,70.365l-5.511-5.513L19.34,57.5a1.95,1.95,0,0,0,.264-2.432,25.078,25.078,0,0,1-3.414-8.214,1.949,1.949,0,0,0-1.9-1.53H3.9Zm0,0" transform="translate(0 -0.5)" fill="#231f20"/><path d="M119.59,135.681A15.59,15.59,0,1,0,104,120.09,15.59,15.59,0,0,0,119.59,135.681Zm0-27.283A11.693,11.693,0,1,1,107.9,120.09,11.693,11.693,0,0,1,119.59,108.4Zm0,0" transform="translate(-78.666 -79.166)" fill="#231f20"/><path d="M101.437,123.374A21.437,21.437,0,1,0,80,101.937,21.437,21.437,0,0,0,101.437,123.374Zm0-38.976A17.539,17.539,0,1,1,83.9,101.937,17.539,17.539,0,0,1,101.437,84.4Zm0,0" transform="translate(-60.512 -61.012)" fill="#231f20"/><path d="M111.082,259.578v-15.59a1.949,1.949,0,0,0-1.949-1.949h-3.9v-15.59a1.949,1.949,0,0,0-1.949-1.949H85.747a1.949,1.949,0,0,0-1.949,1.949v15.59H74.055a1.949,1.949,0,0,0-1.949,1.949v15.59H9.744A9.755,9.755,0,0,0,0,269.323v3.9a9.755,9.755,0,0,0,9.744,9.744H111.082a9.755,9.755,0,0,0,9.744-9.744v-3.9A9.756,9.756,0,0,0,111.082,259.578Zm-3.9,0H93.543V245.937h13.642ZM87.7,228.4h13.642v13.642H87.7ZM76,245.937H89.645v13.642H76Zm40.925,27.283a5.847,5.847,0,0,1-5.846,5.846H9.744A5.847,5.847,0,0,1,3.9,273.22v-3.9a5.847,5.847,0,0,1,5.846-5.846H111.082a5.847,5.847,0,0,1,5.846,5.846Zm0,0" transform="translate(0 -169.933)" fill="#231f20"/><path d="M229.846,392.5a5.846,5.846,0,1,0,5.846,5.846A5.847,5.847,0,0,0,229.846,392.5Zm0,7.8a1.949,1.949,0,1,1,1.949-1.949A1.949,1.949,0,0,1,229.846,400.3Zm0,0" transform="translate(-169.433 -297.009)" fill="#231f20"/><path d="M149.846,392.5a5.846,5.846,0,1,0,5.846,5.846A5.847,5.847,0,0,0,149.846,392.5Zm0,7.8a1.949,1.949,0,1,1,1.949-1.949A1.949,1.949,0,0,1,149.846,400.3Zm0,0" transform="translate(-108.921 -297.009)" fill="#231f20"/><path d="M309.846,392.5a5.846,5.846,0,1,0,5.846,5.846A5.847,5.847,0,0,0,309.846,392.5Zm0,7.8a1.949,1.949,0,1,1,1.949-1.949A1.949,1.949,0,0,1,309.846,400.3Zm0,0" transform="translate(-229.945 -297.009)" fill="#231f20"/><path d="M69.846,392.5a5.846,5.846,0,1,0,5.846,5.846A5.847,5.847,0,0,0,69.846,392.5Zm0,7.8a1.949,1.949,0,1,1,1.949-1.949A1.949,1.949,0,0,1,69.846,400.3Zm0,0" transform="translate(-48.41 -297.009)" fill="#231f20"/><path d="M389.847,392.5a5.846,5.846,0,1,0,5.846,5.846A5.847,5.847,0,0,0,389.847,392.5Zm0,7.8a1.949,1.949,0,1,1,1.949-1.949A1.949,1.949,0,0,1,389.847,400.3Zm0,0" transform="translate(-290.457 -297.009)" fill="#231f20"/></g></g></g></g></svg>