<svg xmlns="http://www.w3.org/2000/svg" width="220.688" height="203.117" viewBox="0 0 220.688 203.117"><g transform="translate(2428 7613.617)"><g transform="translate(-3193 -14209.059)"><g transform="translate(765.378 6601.417)"><path d="M115.9,0A33.619,33.619,0,0,0,92.127,9.847L0,101.974H35.193a33.619,33.619,0,0,0,23.773-9.847L151.093,0Z" transform="matrix(0.998, -0.07, 0.07, 0.998, -0.379, 4.564)" fill="#fde2e2"/><path d="M144.875,0a42.024,42.024,0,0,0-29.716,12.309L0,127.468H43.991a42.024,42.024,0,0,0,29.716-12.309L188.866,0Z" transform="matrix(0.998, -0.07, 0.07, 0.998, 23.012, 69.985)" fill="#fde2e2"/></g><g transform="translate(807.722 6627.366)"><path d="M175.827,254.4l17.825-17.638c6.657-6.657,19.461,1.742,12.544,9.88l-21.583,25.393a15.14,15.14,0,0,1-2.887,2.62,21.531,21.531,0,0,1-11.706,2.964H137.99a60.093,60.093,0,0,0-6.933.4l-9.212,1.035-19.107-18.542s10.839-20.469,32.1-14.586a45.785,45.785,0,0,0,12.218,1.625h21.05c9.91,0,9.988,15.745-.083,15.745H149.7" transform="translate(-75.6 -172.083)" fill="#ffcdac"/><path d="M41.1,359.536l18.177-18.649a.013.013,0,0,0,0-.019L28.438,310.936a.014.014,0,0,0-.019,0L10.07,329.986Zm0,0" transform="translate(-7.409 -228.434)" fill="#6bd5e1"/><path d="M64.035,100.317a11.355,11.355,0,0,0-10.27,11.3v12.089a3.781,3.781,0,0,0,3.781,3.781H83.469a3.781,3.781,0,0,0,3.781-3.781V111.62a11.354,11.354,0,0,0-10.283-11.3" transform="translate(-39.563 -73.45)" fill="#ffb677"/><path d="M94.5,23.518A12.685,12.685,0,1,1,81.81,10.832,12.685,12.685,0,0,1,94.5,23.518Zm0,0" transform="translate(-50.865 -7.603)" fill="#ffcdac"/><path d="M190.8,100.317a11.356,11.356,0,0,0-10.271,11.3v12.089a3.782,3.782,0,0,0,3.782,3.781h25.923a3.781,3.781,0,0,0,3.781-3.781V111.62a11.355,11.355,0,0,0-10.283-11.3" transform="translate(-132.844 -73.45)" fill="#ff8364"/><path d="M221.261,23.518a12.686,12.686,0,1,1-12.685-12.686A12.685,12.685,0,0,1,221.261,23.518Zm0,0" transform="translate(-144.146 -7.603)" fill="#ffcdac"/><path d="M317.572,100.317a11.355,11.355,0,0,0-10.271,11.3v12.089a3.781,3.781,0,0,0,3.781,3.781H337a3.782,3.782,0,0,0,3.782-3.781V111.62a11.355,11.355,0,0,0-10.284-11.3" transform="translate(-226.129 -73.45)" fill="#ffd98e"/><path d="M348.031,23.518a12.686,12.686,0,1,1-12.686-12.686A12.686,12.686,0,0,1,348.031,23.518Zm0,0" transform="translate(-237.431 -7.603)" fill="#ffcdac"/><path d="M132.047,227.2a12.25,12.25,0,0,0-7.556-3.166,10.816,10.816,0,0,0-8.31,3.164l-15.038,14.88a9.981,9.981,0,0,0-1.017-1.452,9.749,9.749,0,0,0-7.617-3.406H71.458a43.176,43.176,0,0,1-11.509-1.529,28.317,28.317,0,0,0-26.415,5.589,38.42,38.42,0,0,0-6.879,7.384L22.88,245a2.683,2.683,0,0,0-1.861-.755H21a2.689,2.689,0,0,0-1.908.819L.745,264.117a2.662,2.662,0,0,0,.082,3.772l31.034,29.55a2.66,2.66,0,0,0,3.74-.069l18.177-18.649a2.675,2.675,0,0,0-.053-3.786L52.142,273.4l3.623-.408a57.57,57.57,0,0,1,6.626-.384H94.419a24.045,24.045,0,0,0,13.139-3.383l.087-.058a17.729,17.729,0,0,0,3.394-3.081l21.583-25.392c3.694-4.345,3.463-9.767-.576-13.491Zm-98.421,64.57L6.433,265.881l14.649-15.208,27.033,26.234Zm94.943-54.525-21.583,25.393a12.437,12.437,0,0,1-2.336,2.129,18.92,18.92,0,0,1-10.229,2.519H62.39a62.819,62.819,0,0,0-7.23.419L47.2,268.6,30.523,252.42a33.182,33.182,0,0,1,6.376-7.014,22.9,22.9,0,0,1,21.632-4.583,48.49,48.49,0,0,0,12.928,1.722H92.509c3.781,0,4.79,3.275,4.79,5.21a5.762,5.762,0,0,1-1.245,3.692,4.521,4.521,0,0,1-3.628,1.522H74.1a2.661,2.661,0,0,0,0,5.321H92.425a9.866,9.866,0,0,0,7.683-3.4,10.926,10.926,0,0,0,2.506-6.779l17.319-17.137c2.475-2.475,6.343-1.854,8.506.141,1.118,1.032,2.623,3.2.129,6.133Zm0,0" transform="translate(0 -164.481)"/><path d="M234.489,335.275a2.66,2.66,0,1,0-5.18,1.214l.025.108a2.662,2.662,0,0,0,2.588,2.053,2.694,2.694,0,0,0,.61-.07,2.66,2.66,0,0,0,1.983-3.2Zm0,0" transform="translate(-168.686 -244.835)"/><path d="M50.133,56.63H76.056A6.4,6.4,0,0,0,79.836,55.4a6.4,6.4,0,0,0,3.781,1.232h25.924a6.4,6.4,0,0,0,3.781-1.232A6.4,6.4,0,0,0,117.1,56.63h25.923a6.449,6.449,0,0,0,6.441-6.442V38.1a13.949,13.949,0,0,0-7.587-12.473,15.346,15.346,0,1,0-23.631,0,13.936,13.936,0,0,0-4.927,4.224,13.91,13.91,0,0,0-4.928-4.224,15.346,15.346,0,1,0-23.63,0,13.91,13.91,0,0,0-4.928,4.224,13.923,13.923,0,0,0-4.928-4.225,15.345,15.345,0,1,0-23.63,0A13.951,13.951,0,0,0,43.691,38.1V50.189a6.449,6.449,0,0,0,6.442,6.442ZM130.065,5.821A10.025,10.025,0,1,1,120.04,15.846,10.036,10.036,0,0,1,130.065,5.821Zm-6.912,23.72a15.291,15.291,0,0,0,13.822,0,8.644,8.644,0,0,1,7.171,8.559V50.189a1.122,1.122,0,0,1-1.121,1.121H117.1a1.121,1.121,0,0,1-1.12-1.121V38.1a8.644,8.644,0,0,1,7.17-8.559ZM96.579,5.821A10.025,10.025,0,1,1,86.554,15.846,10.036,10.036,0,0,1,96.579,5.821Zm-6.911,23.72a15.291,15.291,0,0,0,13.822,0,8.645,8.645,0,0,1,7.171,8.559V50.189a1.122,1.122,0,0,1-1.121,1.121H83.618A1.122,1.122,0,0,1,82.5,50.189V38.1a8.646,8.646,0,0,1,7.171-8.559ZM63.094,5.821A10.025,10.025,0,1,1,53.069,15.846,10.036,10.036,0,0,1,63.094,5.821ZM49.012,38.1a8.646,8.646,0,0,1,7.171-8.559,15.291,15.291,0,0,0,13.822,0A8.644,8.644,0,0,1,77.176,38.1V50.189a1.122,1.122,0,0,1-1.121,1.121H50.133a1.122,1.122,0,0,1-1.121-1.121Zm0,0" transform="translate(-32.149)"/></g></g></g></svg>