<svg xmlns="http://www.w3.org/2000/svg" width="220.688" height="203.117" viewBox="0 0 220.688 203.117"><g transform="translate(2428 6950.617)"><g transform="translate(-3193 -13546.059)"><g transform="translate(765.378 6601.417)"><path d="M115.9,0A33.619,33.619,0,0,0,92.127,9.847L0,101.974H35.193a33.619,33.619,0,0,0,23.773-9.847L151.093,0Z" transform="matrix(0.998, -0.07, 0.07, 0.998, -0.379, 4.564)" fill="#fde2e2"/><path d="M144.875,0a42.024,42.024,0,0,0-29.716,12.309L0,127.468H43.991a42.024,42.024,0,0,0,29.716-12.309L188.866,0Z" transform="matrix(0.998, -0.07, 0.07, 0.998, 23.012, 69.985)" fill="#fde2e2"/></g><g transform="translate(810.901 6624.695)"><g transform="translate(22.304 20.894)"><path d="M126.978,69.737V93.515H42.7V69.737H56.749V45.958H70.794V22.18H98.883V45.958h14.045V69.737Z" transform="translate(-42.7 -22.18)" fill="#efbf27"/></g><g transform="translate(4.276 92.227)"><g transform="translate(0)"><path d="M110.155,200.6H21.307a15.743,15.743,0,0,1,0-31.487h88.848a15.743,15.743,0,1,1,0,31.487Z" transform="translate(-5.564 -169.116)" fill="#aeaeae"/></g><g transform="translate(7.309 7.309)"><path d="M29.054,201.04a8.435,8.435,0,0,1,0-16.869H117.9a8.435,8.435,0,0,1,0,16.869Z" transform="translate(-20.619 -184.171)" fill="#4a4842"/></g><g transform="translate(96.157 7.309)"><circle cx="8.435" cy="8.435" r="8.435" fill="#efefef"/></g><g transform="translate(101.377 12.53)"><circle cx="3.214" cy="3.214" r="3.214" fill="#f0c020"/></g><g transform="translate(66.54 7.309)"><circle cx="8.435" cy="8.435" r="8.435" fill="#efefef"/></g><g transform="translate(71.761 12.53)"><circle cx="3.214" cy="3.214" r="3.214" fill="#f0c020"/></g><g transform="translate(36.925 7.309)"><circle cx="8.435" cy="8.435" r="8.435" fill="#efefef"/></g><g transform="translate(42.146 12.53)"><circle cx="3.214" cy="3.214" r="3.214" fill="#f0c020"/></g><g transform="translate(7.309 7.309)"><circle cx="8.435" cy="8.435" r="8.435" fill="#efefef"/></g><g transform="translate(12.529 12.53)"><circle cx="3.214" cy="3.214" r="3.214" fill="#f0c020"/></g></g><g transform="translate(32.071 68.448)"><path d="M70.265,130.586,68,128.566a.971.971,0,0,0-1.291,0l-2.269,2.02a.971.971,0,0,1-1.617-.725v-9.725h9.062v9.725A.971.971,0,0,1,70.265,130.586Z" transform="translate(-62.819 -120.136)" fill="#fb5c3c"/></g><g transform="translate(60.162 68.448)"><path d="M128.128,130.586l-2.269-2.02a.971.971,0,0,0-1.291,0l-2.269,2.02a.971.971,0,0,1-1.617-.725v-9.725h9.062v9.725A.971.971,0,0,1,128.128,130.586Z" transform="translate(-120.682 -120.136)" fill="#fb5c3c"/></g><g transform="translate(27.24 85.942)"><path d="M126.059,158.6H124.6a1.214,1.214,0,0,1,0-2.427h1.456a1.214,1.214,0,1,1,0,2.427Zm-6.311,0H54.081a1.214,1.214,0,1,1,0-2.427h65.668a1.214,1.214,0,0,1,0,2.427Z" transform="translate(-52.867 -156.171)" fill="#f7e4b0"/></g><g transform="translate(40.816 62.55)"><path d="M126.872,110.413h-1.456a1.214,1.214,0,0,1,0-2.427h1.456a1.214,1.214,0,0,1,0,2.427Zm-6.311,0H82.047a1.214,1.214,0,1,1,0-2.427h38.514a1.214,1.214,0,1,1,0,2.427Z" transform="translate(-80.833 -107.986)" fill="#f7e4b0"/></g><g transform="translate(53.464 38.526)"><path d="M127.629,60.927h-1.456a1.214,1.214,0,1,1,0-2.427h1.456a1.214,1.214,0,0,1,0,2.427Zm-6.311,0H108.1a1.214,1.214,0,1,1,0-2.427h13.219a1.214,1.214,0,0,1,0,2.427Z" transform="translate(-106.885 -58.5)" fill="#f7e4b0"/></g><g transform="translate(88.253 68.448)"><path d="M185.992,130.586l-2.269-2.02a.971.971,0,0,0-1.291,0l-2.269,2.02a.971.971,0,0,1-1.617-.725v-9.725h9.062v9.725a.971.971,0,0,1-1.616.725Z" transform="translate(-178.546 -120.136)" fill="#fb5c3c"/></g><g transform="translate(46.116 44.671)"><path d="M99.2,81.607l-2.269-2.02a.971.971,0,0,0-1.291,0l-2.269,2.02a.971.971,0,0,1-1.617-.725V71.157h9.062v9.725a.97.97,0,0,1-1.616.725Z" transform="translate(-91.75 -71.157)" fill="#fb5c3c"/></g><g transform="translate(74.208 44.671)"><path d="M157.06,81.607l-2.269-2.02a.971.971,0,0,0-1.291,0l-2.269,2.02a.971.971,0,0,1-1.617-.725V71.157h9.062v9.725a.971.971,0,0,1-1.616.725Z" transform="translate(-149.614 -71.157)" fill="#fb5c3c"/></g><g transform="translate(100.284 44.524)"><path d="M208.441,84.471c-.57-2.46-.948-4.086-4.282-5.188a1.215,1.215,0,0,1,0-2.305c1.936-.639,3.334-1.1,4.282-5.188a1.215,1.215,0,0,1,2.365,0c.971,4.183,2.427,4.576,4.282,5.188a1.214,1.214,0,0,1,0,2.3c-1.936.64-3.335,1.1-4.282,5.188A1.214,1.214,0,0,1,208.441,84.471Z" transform="translate(-203.328 -70.855)"/></g><g transform="translate(104.39 49.354)"><path d="M216.1,83.261a6.44,6.44,0,0,0-2.1,2.374,6.739,6.739,0,0,0-2.219-2.355,6.452,6.452,0,0,0,2.194-2.476,6.583,6.583,0,0,0,2.122,2.456Z" transform="translate(-211.785 -80.805)" fill="#f0c020"/></g><g transform="translate(16.011 44.524)"><path d="M34.85,84.471c-.57-2.46-.948-4.086-4.282-5.188a1.215,1.215,0,0,1,0-2.305c1.936-.639,3.334-1.1,4.282-5.188a1.215,1.215,0,0,1,2.365,0c.971,4.183,2.427,4.576,4.282,5.188a1.214,1.214,0,0,1,0,2.3c-1.936.64-3.335,1.1-4.282,5.188A1.214,1.214,0,0,1,34.85,84.471Z" transform="translate(-29.737 -70.855)"/></g><g transform="translate(20.117 49.354)"><path d="M42.511,83.261a6.44,6.44,0,0,0-2.1,2.374,6.739,6.739,0,0,0-2.219-2.355A6.452,6.452,0,0,0,40.389,80.8,6.583,6.583,0,0,0,42.511,83.261Z" transform="translate(-38.195 -80.805)" fill="#f0c020"/></g><g transform="translate(60.161 20.894)"><path d="M129.744,22.18v9.651a.971.971,0,0,1-1.617.723l-2.267-2.02a.976.976,0,0,0-1.291,0l-2.272,2.02a.971.971,0,0,1-1.617-.723V22.18Z" transform="translate(-120.68 -22.18)" fill="#fb5c3c"/></g><g transform="translate(3.06 19.68)"><path d="M20.017,124.93H93.333a1.214,1.214,0,0,0,0-2.427,0,0,0,0,0,0,0H20.017a14.528,14.528,0,1,1,0-29.055h88.851a14.528,14.528,0,1,1,0,29.055h-5.826a1.216,1.216,0,0,0,0,2.432h5.826a16.957,16.957,0,1,0,0-33.915H107.79V68.45a1.21,1.21,0,0,0-1.209-1.214H93.746V44.672a1.209,1.209,0,0,0-1.214-1.214H79.7V20.894a1.209,1.209,0,0,0-1.214-1.214H50.4a1.211,1.211,0,0,0-1.214,1.214V43.457c-7.4,0,2.548,0-12.831,0a1.208,1.208,0,0,0-1.214,1.214v6.471a1.214,1.214,0,1,0,2.427,0V45.886H44.9V54.4a2.184,2.184,0,0,0,3.637,1.632l2.108-1.876,2.107,1.876A2.184,2.184,0,0,0,56.393,54.4V45.884h7.089v21.35H37.567V60.853a1.214,1.214,0,0,0-2.427-.01v6.392c-.2,0-3.725,0-12.835,0A1.208,1.208,0,0,0,21.1,68.45V91.015H20.018a16.957,16.957,0,1,0,0,33.915Zm85.346-33.915H79.7V83.5a1.214,1.214,0,0,0-2.427,0v7.515H51.611V69.663h7.338v8.511a2.185,2.185,0,0,0,3.637,1.632l2.107-1.876L66.8,79.805a2.185,2.185,0,0,0,3.637-1.632V69.663h6.835V73.79a1.214,1.214,0,1,0,2.427,0V69.663H87.04v8.511a2.185,2.185,0,0,0,3.637,1.632l2.107-1.876,2.107,1.876a2.185,2.185,0,0,0,3.638-1.632v-8.51h6.833ZM96.1,69.664v7.969l-1.865-1.66a2.184,2.184,0,0,0-2.905,0l-1.865,1.66v-7.97H96.1ZM75.422,45.884h6.634v7.969l-1.864-1.659a2.183,2.183,0,0,0-2.906,0l-1.865,1.66ZM61.377,22.107h6.634V30l-1.865-1.66a2.184,2.184,0,0,0-2.905,0L61.377,30Zm-2.427,0v8.436a2.184,2.184,0,0,0,3.637,1.632L64.694,30.3,66.8,32.175a2.184,2.184,0,0,0,3.637-1.632V22.107h6.835v21.35H51.612V22.107ZM53.965,53.854,52.1,52.194a2.185,2.185,0,0,0-2.905,0l-1.865,1.66V45.886h6.634Zm11.944-7.97h7.086v8.511a2.185,2.185,0,0,0,3.637,1.632l2.107-1.876,2.107,1.876a2.184,2.184,0,0,0,3.637-1.632V45.886h6.834v21.35H65.909Zm2.1,23.778v7.97l-1.865-1.66a2.184,2.184,0,0,0-2.905,0l-1.865,1.66v-7.97Zm-34.726,0c3.472,0,1.863,0,6.634,0v7.97l-1.865-1.66a2.184,2.184,0,0,0-2.9,0l-1.865,1.66Zm-9.768,0h7.34v8.51a2.184,2.184,0,0,0,3.637,1.632L36.6,77.929l2.107,1.876a2.185,2.185,0,0,0,3.637-1.632V69.663h6.836V91.015H23.518Z" transform="translate(-3.06 -19.68)"/></g><g transform="translate(96.974 122.498)"><path d="M196.51,232.689a1.214,1.214,0,1,0,1.214-1.219A1.217,1.217,0,0,0,196.51,232.689Z" transform="translate(-196.51 -231.47)"/></g><g transform="translate(10.371 98.322)"><path d="M126.263,191.319a9.659,9.659,0,0,0-9.648-9.648H27.767a9.648,9.648,0,1,0,0,19.3h88.848a9.659,9.659,0,0,0,9.648-9.648Zm-2.427,0a7.221,7.221,0,1,1-7.221-7.221A7.229,7.229,0,0,1,123.836,191.319Zm-29.616,0A7.221,7.221,0,1,1,87,184.1,7.229,7.229,0,0,1,94.22,191.319Zm-29.616,0a7.221,7.221,0,1,1-7.22-7.221A7.229,7.229,0,0,1,64.6,191.319Zm-44.057,0a7.221,7.221,0,1,1,7.221,7.221A7.229,7.229,0,0,1,20.546,191.319Zm13.6,7.221a9.606,9.606,0,0,0,0-14.442H51.006a9.606,9.606,0,0,0,0,14.442Zm29.616,0a9.606,9.606,0,0,0,0-14.442H80.622a9.606,9.606,0,0,0,0,14.442Zm29.616,0a9.606,9.606,0,0,0,0-14.442h16.861a9.606,9.606,0,0,0,0,14.442Z" transform="translate(-18.119 -181.671)"/></g><g transform="translate(104.439 103.542)"><path d="M211.887,196.852a4.427,4.427,0,1,0,4.427-4.427A4.433,4.433,0,0,0,211.887,196.852Zm6.428,0a2,2,0,1,1-2-2A2,2,0,0,1,218.315,196.852Z" transform="translate(-211.887 -192.425)"/></g><g transform="translate(74.823 103.542)"><path d="M155.309,201.28a4.428,4.428,0,1,0-4.427-4.428A4.432,4.432,0,0,0,155.309,201.28Zm0-6.428a2,2,0,1,1-2,2A2,2,0,0,1,155.309,194.852Z" transform="translate(-150.882 -192.425)"/></g><g transform="translate(45.208 103.542)"><path d="M94.305,201.28a4.428,4.428,0,1,0-4.427-4.428A4.432,4.432,0,0,0,94.305,201.28Zm0-6.428a2,2,0,1,1-2,2A2,2,0,0,1,94.305,194.852Z" transform="translate(-89.878 -192.425)"/></g><g transform="translate(15.591 103.542)"><path d="M37.728,196.852A4.427,4.427,0,1,0,33.3,201.28,4.432,4.432,0,0,0,37.728,196.852Zm-6.428,0a2,2,0,1,1,2,2A2,2,0,0,1,31.3,196.852Z" transform="translate(-28.873 -192.425)"/></g><g transform="translate(35.14 54.784)"><circle cx="1.214" cy="1.214" r="1.214"/></g><g transform="translate(77.274 77.431)"><circle cx="1.214" cy="1.214" r="1.214"/></g></g></g></g></svg>