<svg xmlns="http://www.w3.org/2000/svg" xmlns:xlink="http://www.w3.org/1999/xlink" width="400" height="330" viewBox="0 0 400 330"><defs><clipPath id="a"><rect width="400" height="330" transform="translate(1020 9354)" fill="#fff" stroke="#707070" stroke-width="1"/></clipPath><clipPath id="b"><rect width="670.704" height="329.651" fill="none"/></clipPath><clipPath id="d"><rect width="4.208" height="4.357" fill="none"/></clipPath><clipPath id="e"><rect width="19.701" height="5.015" fill="none"/></clipPath><clipPath id="f"><rect width="4.338" height="3.492" fill="none"/></clipPath><clipPath id="g"><rect width="20.23" height="2.015" fill="none"/></clipPath><clipPath id="h"><rect width="1.639" height="12.214" fill="none"/></clipPath><clipPath id="i"><rect width="6.55" height="8.354" fill="none"/></clipPath></defs><g transform="translate(-1020 -8215)"><g transform="translate(0 -1139)" clip-path="url(#a)"><g transform="translate(1020 9354.35)"><g clip-path="url(#b)"><g clip-path="url(#b)"><path d="M346.193,37.228c-.23.418.164,38.031.164,38.031l3.064.034,1.032-38.061Z" transform="translate(-94.85 -10.202)" fill="#e0e0e0"/><path d="M348.254,82.586l-3.53.184.032,5.326-4,2.09.025,3.5L343.4,97.3l.111-5.037,3.262-1.705,2.788,1.455-.171,5.432,2.886-3.53-.161-3.237L348.4,87.923Z" transform="translate(-93.38 -22.632)" fill="#e0e0e0"/><path d="M308.145,37.31,274.8,77.538a6.006,6.006,0,0,1-8.457.791l-4.362-3.616a6.006,6.006,0,0,1-.791-8.457l33.349-40.229a6.006,6.006,0,0,1,8.457-.791l4.362,3.616a6.006,6.006,0,0,1,.791,8.457" transform="translate(-71.195 -6.537)" fill="#e0e0e0"/><path d="M338.317,40.94H308.3a3.769,3.769,0,0,1-3.769-3.77V33.614a3.769,3.769,0,0,1,3.769-3.77h30.014a3.77,3.77,0,0,1,3.77,3.77V37.17a3.77,3.77,0,0,1-3.77,3.77" transform="translate(-83.453 -8.178)" fill="#e0e0e0"/><path d="M275.207,151.195h-7.959a8.437,8.437,0,0,1-8.437-8.437V81.487a8.437,8.437,0,0,1,8.437-8.437h7.959a8.437,8.437,0,0,1,8.438,8.437v61.27a8.438,8.438,0,0,1-8.438,8.438" transform="translate(-70.923 -20.018)" fill="#e0e0e0"/><path d="M280.074,162.044a6.122,6.122,0,1,1-6.121-6.121,6.121,6.121,0,0,1,6.121,6.121" transform="translate(-73.395 -42.729)" fill="#e0e0e0"/><path d="M279.724,85.509a6.122,6.122,0,1,1-6.121-6.121,6.121,6.121,0,0,1,6.121,6.121" transform="translate(-73.3 -21.755)" fill="#e0e0e0"/><path d="M314.454,33.458a3.713,3.713,0,1,1-5.252,0,3.713,3.713,0,0,1,5.252,0" transform="translate(-84.435 -8.871)" fill="#e0e0e0"/><path d="M350.24,34.75a2.523,2.523,0,1,1-3.568,0,2.523,2.523,0,0,1,3.568,0" transform="translate(-94.798 -9.32)" fill="#e0e0e0"/><path d="M641.436,14.613c.251.486-1.249,28.155-1.249,28.155l-3.509-.053L636.56,14.49Z" transform="translate(-174.441 -3.971)" fill="#e0e0e0"/><path d="M630.469,32.988l8.311.654L638.373,46.2l9.3,5.176-.277,8.254-6.382,8.361.052-11.885-7.586-4.223-6.665,3.257.065,12.821-6.585-8.5.581-7.623,8.91-6.269Z" transform="translate(-169.983 -9.04)" fill="#e0e0e0"/><path d="M664.909,15.41,703.1,61.479a6.879,6.879,0,0,0,9.686.906l5-4.142a6.879,6.879,0,0,0,.905-9.686L680.5,2.489a6.878,6.878,0,0,0-9.686-.905l-5,4.141a6.879,6.879,0,0,0-.905,9.686" transform="translate(-181.776 0)" fill="#e0e0e0"/><path d="M635.617,19.568h34.371a4.316,4.316,0,0,0,4.317-4.317V11.178a4.317,4.317,0,0,0-4.317-4.317H635.617a4.317,4.317,0,0,0-4.317,4.317V15.25a4.317,4.317,0,0,0,4.317,4.317" transform="translate(-172.999 -1.88)" fill="#e0e0e0"/><path d="M713.389,145.831H722.5a9.662,9.662,0,0,0,9.663-9.663V66A9.663,9.663,0,0,0,722.5,56.34h-9.115A9.662,9.662,0,0,0,703.727,66v70.166a9.662,9.662,0,0,0,9.662,9.663" transform="translate(-192.847 -15.439)" fill="#e0e0e0"/><path d="M713.258,158.256a7.01,7.01,0,1,0,7.011-7.01,7.011,7.011,0,0,0-7.011,7.01" transform="translate(-195.459 -41.447)" fill="#e0e0e0"/><path d="M713.659,70.609a7.01,7.01,0,1,0,7.01-7.011,7.01,7.01,0,0,0-7.01,7.011" transform="translate(-195.569 -17.428)" fill="#e0e0e0"/><path d="M675.969,11a4.253,4.253,0,1,0,6.015,0,4.253,4.253,0,0,0-6.015,0" transform="translate(-184.899 -2.673)" fill="#e0e0e0"/><path d="M636.016,12.479a2.89,2.89,0,1,0,4.086,0,2.89,2.89,0,0,0-4.086,0" transform="translate(-174.06 -3.188)" fill="#e0e0e0"/><path d="M197.255,173.344H632.742a8.583,8.583,0,0,0,8.583-8.583v-8.1a8.584,8.584,0,0,0-8.583-8.583H197.255a8.583,8.583,0,0,0-8.583,8.583v8.1a8.583,8.583,0,0,0,8.583,8.583" transform="translate(-51.703 -40.58)" fill="#e0e0e0"/><path d="M269.957,164.146a6.278,6.278,0,1,0,6.278-6.278,6.278,6.278,0,0,0-6.278,6.278" transform="translate(-73.978 -43.262)" fill="#e0e0e0"/><path d="M199,162.778a6.278,6.278,0,1,0,6.278-6.278A6.278,6.278,0,0,0,199,162.778" transform="translate(-54.533 -42.887)" fill="#e0e0e0"/><path d="M348.688,164.146a6.278,6.278,0,1,0,6.278-6.278,6.278,6.278,0,0,0-6.278,6.278" transform="translate(-95.553 -43.262)" fill="#e0e0e0"/><path d="M427.419,164.146a6.278,6.278,0,1,0,6.278-6.278,6.278,6.278,0,0,0-6.278,6.278" transform="translate(-117.128 -43.262)" fill="#e0e0e0"/><path d="M506.15,164.146a6.278,6.278,0,1,0,6.278-6.278,6.278,6.278,0,0,0-6.278,6.278" transform="translate(-138.704 -43.262)" fill="#e0e0e0"/><path d="M584.881,164.146a6.278,6.278,0,1,0,6.278-6.278,6.278,6.278,0,0,0-6.278,6.278" transform="translate(-160.279 -43.262)" fill="#e0e0e0"/><path d="M663.613,164.146a6.278,6.278,0,1,0,6.278-6.278,6.278,6.278,0,0,0-6.278,6.278" transform="translate(-181.854 -43.262)" fill="#e0e0e0"/><path d="M770.956,164.146a6.278,6.278,0,1,0,6.278-6.278,6.278,6.278,0,0,0-6.278,6.278" transform="translate(-211.27 -43.262)" fill="#e0e0e0"/><rect width="71.649" height="97.562" transform="translate(488.036 132.764)" fill="#e0e0e0"/><rect width="71.649" height="59.656" transform="translate(170.854 172.469)" fill="#e0e0e0"/><path d="M226.253,220a7.956,7.956,0,0,0,1.04,1.941,5.2,5.2,0,0,0,1.218,1.279,22.778,22.778,0,0,0,2.214,1.459s21.269,1.154,24.835.638,13.217-12.09,13.217-12.09l7.839,8.873a65.679,65.679,0,0,1-16.1,13.591c-6.04,3.49-32.448-2.777-32.472-2.783a64.681,64.681,0,0,1-6.95.193c-3.244-.222-3.228-.513-3.138-.886.242-1,5.721.174,4.69-.762s-6.868-.66-6.571-1.7c.386-1.352,6.1-.015,6.59.062s.621-.631.174-.677c-.644-.066-7.387-.93-7.021-2.261.2-.739,1.5-.25,1.5-.25s6.25,1.273,6.4.638-3.49-1.515-4.739-1.721-1.64-.876-1.095-1.347c.371-.322,4.214.221,5.444.454s4.6.934,3.217-.761-1.8-3.517-1.57-4.089a.684.684,0,0,1,1.278.2" transform="translate(-59.139 -58.431)" fill="#ffc09d"/><path d="M309.65,155.515c-1.315-.326-1.1-3.949-1.24-5.058a3.637,3.637,0,0,1,.131-2.008,2.753,2.753,0,0,1,2.155-1.339c.87-.131,1.763-.046,2.635-.172,1.754-.253,3.319-1.34,5.085-1.5a5.014,5.014,0,0,1,3.943,1.44,4.937,4.937,0,0,0,4.007,2.48,5.022,5.022,0,0,1,3.464,4.106,14.294,14.294,0,0,1-.243,3.352,5.107,5.107,0,0,0,.468,3.273c.611.994,1.758,1.578,2.322,2.6a2.794,2.794,0,0,1-2.843,4.118c-.327-.047-.7-.14-.957.07a1.3,1.3,0,0,0-.3.783,2.122,2.122,0,0,1-4.173-.759" transform="translate(-84.495 -39.851)" fill="#263238"/><path d="M324.987,179.886l-11.537-.921c-.072-1.347.025-6.558.025-6.558s-4.8-.746-4.859-5.545.772-15.82.772-15.82a16.68,16.68,0,0,1,16.76,2.107l.711.547Z" transform="translate(-84.571 -41.02)" fill="#ffc09d"/><path d="M311.157,162.478a.7.7,0,1,0-.984-.048.7.7,0,0,0,.984.048" transform="translate(-84.949 -44.192)" fill="#263238"/><path d="M309.6,161.149c.075.083.547-.28,1.207-.283s1.141.338,1.214.254c.036-.038-.039-.188-.248-.347a1.63,1.63,0,0,0-1.932.023c-.205.164-.277.316-.24.353" transform="translate(-84.838 -43.974)" fill="#263238"/><path d="M319.933,162.328a.7.7,0,1,0,.959.229.7.7,0,0,0-.959-.229" transform="translate(-87.582 -44.455)" fill="#263238"/><path d="M319.486,161.951c.075.083.547-.279,1.207-.282s1.141.338,1.214.253c.036-.038-.039-.188-.248-.347a1.63,1.63,0,0,0-1.932.023c-.205.164-.277.316-.24.353" transform="translate(-87.548 -44.194)" fill="#263238"/><path d="M315.19,167.55a3.219,3.219,0,0,0-1.069-.227c-.173-.019-.309-.058-.322-.151a.949.949,0,0,1,.124-.5l.523-1.343a18.358,18.358,0,0,0,1.131-3.53,18.432,18.432,0,0,0-1.483,3.4l-.5,1.354a1.105,1.105,0,0,0-.094.719.453.453,0,0,0,.3.276,1.092,1.092,0,0,0,.295.038,3.22,3.22,0,0,0,1.092-.038" transform="translate(-85.903 -44.34)" fill="#263238"/><path d="M315.295,180.217a11.161,11.161,0,0,0,6.257-1.778s-1.479,3.453-6.268,3.021Z" transform="translate(-86.399 -48.899)" fill="#ff9b6c"/><path d="M332.809,163c.079-.037,2.759-.589,2.741,2.625s-3.258,2.132-3.263,2.04.523-4.665.523-4.665" transform="translate(-91.059 -44.652)" fill="#ffc09d"/><path d="M333.65,166.942c.014-.01.056.04.15.083a.559.559,0,0,0,.418.011,1.385,1.385,0,0,0,.648-1.239,1.841,1.841,0,0,0-.152-.8.648.648,0,0,0-.419-.433.286.286,0,0,0-.332.152c-.044.089-.023.154-.041.159s-.068-.054-.041-.187a.353.353,0,0,1,.127-.2.426.426,0,0,1,.311-.081.788.788,0,0,1,.582.5,1.9,1.9,0,0,1,.189.9,1.455,1.455,0,0,1-.825,1.384.6.6,0,0,1-.512-.089c-.1-.08-.116-.152-.1-.158" transform="translate(-91.431 -45.052)" fill="#ff9b6c"/><path d="M309.414,150.24a5.723,5.723,0,0,0,4.868,2.64,18.661,18.661,0,0,0,5.682-1c1.009-.279,2.238-.493,2.978.248a2.806,2.806,0,0,1,.635,1.68,18.143,18.143,0,0,1,.057,4.057,4.645,4.645,0,0,0,.006,1.619,1.357,1.357,0,0,0,1.089,1.069c.846.071,1.845-1.29,2.131-2.089a11.7,11.7,0,0,0,.457-2.995,5.3,5.3,0,0,0-.617-3.411,7.031,7.031,0,0,0-3.11-2.4,18.291,18.291,0,0,0-7.684-2.016,10.155,10.155,0,0,0-7.289,2.764" transform="translate(-84.572 -40.458)" fill="#263238"/><path d="M375.2,438.432l-1.471-6.235,11.663-2.829,2.248,9.1-.711.222c-3.175.959-16.21,4.654-18.519,4.523-2.576-.145,6.791-4.78,6.791-4.78" transform="translate(-100.836 -117.663)" fill="#ff4f5b"/><g transform="translate(282.548 317.382)" opacity="0.4"><g clip-path="url(#d)"><path d="M389.214,441.544a4.16,4.16,0,0,1,.885-2.847,4.041,4.041,0,0,1,2.521-1.509l.793,3.259Z" transform="translate(-389.204 -437.188)"/></g></g><g transform="translate(267.107 320.549)" opacity="0.4"><g clip-path="url(#e)"><path d="M370.661,444.207s-3.23,1.844-2.658,2.311,13.886-2.772,19.633-4.714l-.082-.256-15.5,3.909s-.71-1.387-1.4-1.251" transform="translate(-367.935 -441.549)"/></g></g><path d="M387.742,441.478a1.078,1.078,0,0,1-.2.07l-.567.175-2.1.607c-1.774.5-4.235,1.157-6.968,1.824s-5.22,1.217-7.026,1.59l-2.14.428-.584.106a1.131,1.131,0,0,1-.205.028,1.093,1.093,0,0,1,.2-.056l.579-.133,2.131-.473c1.8-.4,4.281-.965,7.013-1.63s5.194-1.309,6.975-1.783l2.108-.562.575-.149a1.121,1.121,0,0,1,.2-.042" transform="translate(-100.834 -120.981)" fill="#263238"/><path d="M373.088,446.595a3.166,3.166,0,0,0-1.562-1.551,1.938,1.938,0,0,1,1.562,1.551" transform="translate(-101.812 -121.956)" fill="#263238"/><path d="M377.51,443.315c-.028.029-.241-.131-.476-.358s-.4-.434-.376-.462.242.131.477.358.4.433.375.462" transform="translate(-103.217 -121.259)" fill="#263238"/><path d="M378.631,442.439c-.019.036-.233-.043-.478-.174s-.428-.267-.409-.3.233.043.478.174.428.267.409.3" transform="translate(-103.515 -121.111)" fill="#263238"/><path d="M378.96,440.9a2.727,2.727,0,1,1-.626.084,1.407,1.407,0,0,1,.626-.084" transform="translate(-103.516 -120.819)" fill="#263238"/><path d="M378.931,439.766a1.769,1.769,0,0,1-1.355.44,55.094,55.094,0,0,0,1.355-.44" transform="translate(-103.47 -120.51)" fill="#263238"/><path d="M376.054,442.083a2.248,2.248,0,0,1-.751.178,4.541,4.541,0,0,1-.841.018,2.268,2.268,0,0,1-.5-.078.416.416,0,0,1-.242-.187.3.3,0,0,1,.041-.327,1.414,1.414,0,0,1,1.8-.011,1.388,1.388,0,0,1,.367.44c.061.121.076.195.068.2a2.154,2.154,0,0,0-.5-.556,1.388,1.388,0,0,0-.741-.261,1.2,1.2,0,0,0-.878.278c-.1.117-.017.246.134.293a2.367,2.367,0,0,0,.465.078,5.368,5.368,0,0,0,.82.013c.468-.03.754-.1.759-.076" transform="translate(-102.404 -120.948)" fill="#263238"/><path d="M376.608,441.857a.761.761,0,0,1-.213-.5,1.255,1.255,0,0,1,.071-.6c.092-.2.206-.469.531-.534a.306.306,0,0,1,.315.29.835.835,0,0,1-.046.366,2.342,2.342,0,0,1-.243.539,1.106,1.106,0,0,1-.355.407c-.018-.015.116-.171.265-.458a2.719,2.719,0,0,0,.2-.526c.064-.183.065-.484-.131-.473-.192.028-.338.261-.417.439a1.274,1.274,0,0,0-.093.539,2.767,2.767,0,0,0,.11.508" transform="translate(-103.143 -120.638)" fill="#263238"/><path d="M392.52,437.16c0,.027-.342.049-.854.24a3.761,3.761,0,0,0-2.462,3.178c-.057.543.008.883-.019.886a.7.7,0,0,1-.058-.235,3.141,3.141,0,0,1-.025-.66,3.645,3.645,0,0,1,2.531-3.266,3.146,3.146,0,0,1,.645-.139.709.709,0,0,1,.242,0" transform="translate(-106.627 -119.796)" fill="#263238"/><path d="M390.52,430.884a41.6,41.6,0,0,1,1.226,4.778,21.071,21.071,0,0,1-.683-2.371,20.832,20.832,0,0,1-.543-2.407" transform="translate(-107.016 -118.078)" fill="#263238"/><path d="M385.532,442.113a9.851,9.851,0,0,1-3.4.861c-.006-.042.767-.18,1.7-.419s1.682-.482,1.7-.442" transform="translate(-104.718 -121.154)" fill="#263238"/><path d="M389.881,441.343c.036.022-.023.176-.058.37s-.041.359-.081.366-.1-.17-.062-.393.169-.366.2-.343" transform="translate(-106.783 -120.943)" fill="#263238"/><path d="M390.66,439.578c.035.021-.012.16-.1.312s-.192.258-.226.237.011-.16.1-.311.193-.258.227-.237" transform="translate(-106.962 -120.46)" fill="#263238"/><path d="M392.091,438.479c0,.041-.154.078-.31.18s-.258.223-.3.2.022-.2.217-.327.391-.1.388-.057" transform="translate(-107.278 -120.15)" fill="#263238"/><path d="M393.332,437.873c.023.033-.03.109-.117.17s-.177.084-.2.052.029-.11.117-.171.177-.083.2-.051" transform="translate(-107.699 -119.989)" fill="#263238"/><path d="M306.106,440.544l-.037-6.407,12-.145.152,9.372-.743.057c-3.309.224-16.84.905-19.062.261-2.478-.719,7.689-3.138,7.689-3.138" transform="translate(-81.67 -118.93)" fill="#ff4f5b"/><g transform="translate(232.199 320.901)" opacity="0.4"><g clip-path="url(#f)"><path d="M319.85,445.527a4.165,4.165,0,0,1,1.5-2.577,4.047,4.047,0,0,1,2.794-.906l.044,3.353Z" transform="translate(-319.85 -442.035)"/></g></g><g transform="translate(216.322 322.974)" opacity="0.4"><g clip-path="url(#g)"><path d="M301.127,444.89s-3.561,1.074-3.108,1.657,14.153.409,20.19-.2l-.023-.268-15.979.339s-.381-1.511-1.08-1.532" transform="translate(-297.979 -444.89)"/></g></g><path d="M318.387,446.517a1.051,1.051,0,0,1-.206.025l-.592.044-2.18.122c-1.841.089-4.386.179-7.2.218s-5.361.016-7.2-.024l-2.182-.063-.593-.027a1.094,1.094,0,0,1-.206-.02,1.137,1.137,0,0,1,.207-.01h.594l2.182.017c1.842.014,4.388.019,7.2-.018s5.355-.112,7.2-.176l2.182-.076.593-.016a1.089,1.089,0,0,1,.208,0" transform="translate(-81.67 -122.361)" fill="#263238"/><path d="M303.367,446.553a3.166,3.166,0,0,0-1.175-1.861,1.939,1.939,0,0,1,1.175,1.861" transform="translate(-82.812 -121.861)" fill="#263238"/><path d="M308.41,444.346c-.033.022-.205-.182-.384-.456s-.3-.513-.263-.535.206.182.385.456.3.513.262.535" transform="translate(-84.337 -121.495)" fill="#263238"/><path d="M309.7,443.744c-.027.03-.218-.094-.427-.277s-.356-.356-.33-.386.217.094.426.277.357.356.331.386" transform="translate(-84.661 -121.419)" fill="#263238"/><path d="M310.339,442.4a2.758,2.758,0,1,1-.629-.057,1.412,1.412,0,0,1,.629.057" transform="translate(-84.701 -121.218)" fill="#263238"/><path d="M310.553,441.318a1.226,1.226,0,0,1-.7.212,1.214,1.214,0,0,1-.722-.087,3.833,3.833,0,0,1,.709-.057,3.874,3.874,0,0,1,.71-.068" transform="translate(-84.714 -120.934)" fill="#263238"/><path d="M307.22,442.886a2.222,2.222,0,0,1-.771.005,4.507,4.507,0,0,1-.823-.171,2.254,2.254,0,0,1-.473-.188.413.413,0,0,1-.194-.237.3.3,0,0,1,.113-.31,1.414,1.414,0,0,1,1.754.391,1.374,1.374,0,0,1,.258.512.421.421,0,0,1,.022.208,2.173,2.173,0,0,0-.359-.653,1.4,1.4,0,0,0-.664-.42,1.2,1.2,0,0,0-.918.075c-.121.092-.072.235.065.315a2.35,2.35,0,0,0,.436.179,5.4,5.4,0,0,0,.8.2c.463.076.757.073.757.1" transform="translate(-83.567 -121.077)" fill="#263238"/><path d="M307.765,442.775a.761.761,0,0,1-.1-.534,1.266,1.266,0,0,1,.2-.566.773.773,0,0,1,.637-.4.307.307,0,0,1,.242.353.845.845,0,0,1-.126.346,2.362,2.362,0,0,1-.359.471,1.119,1.119,0,0,1-.437.318c-.014-.019.152-.141.362-.388a2.684,2.684,0,0,0,.316-.467c.1-.164.173-.457-.021-.49-.193-.017-.388.178-.5.333a1.268,1.268,0,0,0-.212.5,2.822,2.822,0,0,0-.006.52" transform="translate(-84.311 -120.925)" fill="#263238"/><path d="M324.084,441.974c0,.027-.344-.028-.886.043a3.76,3.76,0,0,0-3.111,2.544c-.177.517-.19.863-.217.86a.691.691,0,0,1,0-.242,3.167,3.167,0,0,1,.123-.649,3.645,3.645,0,0,1,3.2-2.616,3.166,3.166,0,0,1,.66.008.7.7,0,0,1,.237.052" transform="translate(-87.654 -121.097)" fill="#263238"/><path d="M323.865,435.145a21.25,21.25,0,0,1,.134,2.463,20.763,20.763,0,0,1-.01,2.468,21.165,21.165,0,0,1-.135-2.464,20.847,20.847,0,0,1,.011-2.467" transform="translate(-88.742 -119.246)" fill="#263238"/><path d="M316.426,445.255a9.862,9.862,0,0,1-3.507.078c0-.042.788,0,1.755-.027s1.747-.093,1.752-.051" transform="translate(-85.751 -122.013)" fill="#263238"/><path d="M320.862,445.212c.03.029-.062.167-.139.348s-.12.34-.161.339-.064-.189.028-.4.247-.318.273-.29" transform="translate(-87.836 -122.003)" fill="#263238"/><path d="M322.02,443.677c.029.028-.046.154-.169.281s-.245.208-.274.181.046-.154.169-.282.245-.208.274-.18" transform="translate(-88.122 -121.582)" fill="#263238"/><path d="M323.672,442.937c-.008.041-.168.041-.343.106s-.3.16-.333.133.066-.194.285-.27.4-.006.391.031" transform="translate(-88.511 -121.363)" fill="#263238"/><path d="M325.032,442.609c.015.037-.053.1-.152.139s-.192.042-.206.005.053-.1.152-.14.192-.041.207,0" transform="translate(-88.972 -121.284)" fill="#263238"/><path d="M297.885,267.761l5.6,124.469,18.686.393-3.1-104.2,33.862,105.446,15.273-4.181L334.125,267.761" transform="translate(-81.631 -73.376)" fill="#263238"/><path d="M392.146,431.7c.1-.028.241.172.324.449s.073.523-.023.552-.241-.172-.324-.449-.072-.523.024-.552" transform="translate(-107.441 -118.301)" fill="#455a64"/><path d="M390.49,426.135c.1-.029.309.4.477.958s.225,1.034.129,1.062-.309-.4-.477-.958-.225-1.033-.129-1.062" transform="translate(-106.996 -116.776)" fill="#455a64"/><path d="M388.82,420.568c.1-.029.309.4.477.958s.225,1.034.129,1.063-.309-.4-.477-.958-.225-1.034-.129-1.063" transform="translate(-106.538 -115.25)" fill="#455a64"/><path d="M387.151,415c.1-.029.309.4.477.958s.225,1.034.129,1.063-.309-.4-.477-.958-.225-1.034-.129-1.063" transform="translate(-106.081 -113.725)" fill="#455a64"/><path d="M385.481,409.433c.1-.029.309.4.477.958s.225,1.034.129,1.063-.309-.4-.477-.958-.225-1.034-.129-1.063" transform="translate(-105.623 -112.199)" fill="#455a64"/><path d="M383.812,403.866c.1-.029.309.4.477.958s.225,1.034.129,1.063-.309-.4-.477-.958-.225-1.034-.129-1.063" transform="translate(-105.166 -110.674)" fill="#455a64"/><path d="M382.142,398.3c.1-.029.309.4.477.958s.225,1.034.129,1.063-.309-.4-.477-.958-.225-1.034-.129-1.063" transform="translate(-104.708 -109.148)" fill="#455a64"/><path d="M380.473,392.733c.1-.029.309.4.477.958s.225,1.034.129,1.063-.309-.4-.477-.958-.225-1.034-.129-1.063" transform="translate(-104.251 -107.623)" fill="#455a64"/><path d="M378.8,387.164c.1-.029.309.4.477.958s.225,1.034.129,1.063-.309-.4-.477-.958-.225-1.034-.129-1.063" transform="translate(-103.793 -106.097)" fill="#455a64"/><path d="M377.134,381.6c.1-.029.309.4.477.958s.225,1.034.129,1.063-.309-.4-.477-.958-.225-1.034-.129-1.063" transform="translate(-103.336 -104.571)" fill="#455a64"/><path d="M375.464,376.03c.1-.029.309.4.477.958s.225,1.034.129,1.063-.309-.4-.477-.958-.225-1.034-.129-1.063" transform="translate(-102.878 -103.046)" fill="#455a64"/><path d="M373.794,370.464c.1-.029.309.4.477.958s.225,1.034.129,1.063-.309-.4-.477-.958-.225-1.034-.129-1.063" transform="translate(-102.42 -101.52)" fill="#455a64"/><path d="M372.125,364.9c.1-.029.309.4.477.958s.225,1.034.129,1.063-.309-.4-.477-.958-.225-1.034-.129-1.063" transform="translate(-101.963 -99.995)" fill="#455a64"/><path d="M370.456,359.328c.1-.029.309.4.477.958s.225,1.034.129,1.063-.309-.4-.477-.959-.225-1.033-.129-1.062" transform="translate(-101.506 -98.469)" fill="#455a64"/><path d="M368.785,353.761c.1-.029.309.4.477.958s.225,1.034.129,1.062-.309-.4-.477-.958-.225-1.033-.129-1.062" transform="translate(-101.048 -96.943)" fill="#455a64"/><path d="M367.117,348.195c.1-.029.309.4.477.958s.225,1.034.129,1.062-.309-.4-.477-.958-.225-1.033-.129-1.062" transform="translate(-100.591 -95.418)" fill="#455a64"/><path d="M365.447,342.627c.1-.029.309.4.477.958s.225,1.034.129,1.063-.309-.4-.477-.958-.225-1.034-.129-1.063" transform="translate(-100.133 -93.892)" fill="#455a64"/><path d="M363.776,337.06c.1-.029.309.4.477.958s.225,1.034.129,1.063-.309-.4-.477-.958-.225-1.034-.129-1.063" transform="translate(-99.675 -92.366)" fill="#455a64"/><path d="M362.108,331.492c.1-.029.309.4.477.958s.225,1.034.129,1.063-.309-.4-.477-.958-.225-1.034-.129-1.063" transform="translate(-99.218 -90.841)" fill="#455a64"/><path d="M360.438,325.925c.1-.029.309.4.476.958s.225,1.034.129,1.063-.309-.4-.477-.958-.225-1.034-.128-1.063" transform="translate(-98.76 -89.315)" fill="#455a64"/><path d="M358.769,320.358c.1-.029.309.4.477.958s.225,1.034.129,1.062-.309-.4-.477-.958-.225-1.034-.129-1.062" transform="translate(-98.303 -87.79)" fill="#455a64"/><path d="M357.1,314.791c.1-.029.309.4.477.958s.225,1.034.129,1.062-.309-.4-.477-.958-.225-1.034-.129-1.062" transform="translate(-97.845 -86.264)" fill="#455a64"/><path d="M355.429,309.225c.1-.029.309.4.477.958s.225,1.034.129,1.063-.309-.4-.477-.958-.225-1.034-.129-1.063" transform="translate(-97.388 -84.738)" fill="#455a64"/><path d="M353.76,303.657c.1-.029.309.4.477.958s.225,1.034.129,1.063-.309-.4-.477-.958-.225-1.034-.129-1.063" transform="translate(-96.93 -83.213)" fill="#455a64"/><path d="M352.091,298.089c.1-.029.309.4.477.958s.225,1.034.129,1.063-.309-.4-.477-.958-.225-1.034-.129-1.063" transform="translate(-96.473 -81.687)" fill="#455a64"/><path d="M350.421,292.522c.1-.029.309.4.477.958s.225,1.034.129,1.063-.309-.4-.477-.958-.225-1.034-.129-1.063" transform="translate(-96.015 -80.161)" fill="#455a64"/><path d="M348.751,286.956c.1-.029.309.4.477.958s.225,1.034.129,1.063-.309-.4-.477-.958-.225-1.034-.129-1.063" transform="translate(-95.558 -78.636)" fill="#455a64"/><path d="M347.083,281.388c.1-.029.309.4.477.958s.225,1.034.129,1.063-.309-.4-.477-.958-.225-1.034-.129-1.063" transform="translate(-95.101 -77.11)" fill="#455a64"/><path d="M345.413,275.821c.1-.029.309.4.477.958s.225,1.034.129,1.063-.309-.4-.477-.958-.225-1.034-.129-1.063" transform="translate(-94.643 -75.585)" fill="#455a64"/><path d="M344.152,271.658c.1-.029.241.172.324.449s.073.523-.023.552-.241-.172-.325-.449-.072-.523.024-.552" transform="translate(-94.288 -74.443)" fill="#455a64"/><path d="M326.843,438.353c.1-.005.193.224.208.513s-.054.526-.155.531-.193-.224-.208-.513.054-.526.154-.531" transform="translate(-89.524 -120.125)" fill="#455a64"/><path d="M326.611,432.641c.1,0,.2.457.221,1.03s-.042,1.039-.142,1.043-.2-.457-.22-1.03.041-1.04.142-1.043" transform="translate(-89.463 -118.559)" fill="#455a64"/><path d="M326.431,426.928c.1,0,.195.459.211,1.032s-.051,1.04-.151,1.043-.2-.459-.211-1.032.051-1.039.151-1.042" transform="translate(-89.412 -116.994)" fill="#455a64"/><path d="M326.284,421.213c.1,0,.193.46.207,1.033s-.056,1.039-.156,1.042-.192-.46-.207-1.033.056-1.039.156-1.042" transform="translate(-89.371 -115.428)" fill="#455a64"/><path d="M326.148,415.5c.1,0,.192.46.206,1.033s-.057,1.04-.157,1.042-.192-.46-.206-1.034.057-1.04.157-1.042" transform="translate(-89.333 -113.861)" fill="#455a64"/><path d="M326,409.777c.1,0,.194.46.21,1.033s-.054,1.04-.154,1.043-.194-.46-.209-1.033.053-1.04.153-1.043" transform="translate(-89.294 -112.294)" fill="#455a64"/><path d="M325.815,404.061c.1,0,.2.457.219,1.031s-.044,1.04-.144,1.044-.2-.458-.219-1.031.044-1.04.144-1.044" transform="translate(-89.245 -110.727)" fill="#455a64"/><path d="M325.577,398.349c.1,0,.2.457.225,1.029s-.038,1.04-.138,1.045-.2-.457-.225-1.029.038-1.04.138-1.045" transform="translate(-89.181 -109.162)" fill="#455a64"/><path d="M325.353,392.636c.1,0,.2.457.221,1.03s-.041,1.04-.142,1.043-.2-.457-.221-1.029.041-1.04.142-1.044" transform="translate(-89.119 -107.597)" fill="#455a64"/><path d="M325.152,386.923c.1,0,.2.458.216,1.031s-.046,1.04-.146,1.043-.2-.458-.217-1.031.046-1.04.147-1.043" transform="translate(-89.063 -106.031)" fill="#455a64"/><path d="M324.976,381.2c.1,0,.2.459.212,1.032s-.051,1.04-.151,1.043-.195-.459-.212-1.032.051-1.04.151-1.042" transform="translate(-89.013 -104.464)" fill="#455a64"/><path d="M324.825,375.49c.1,0,.193.46.208,1.032s-.055,1.04-.156,1.042-.192-.46-.207-1.033.055-1.04.155-1.042" transform="translate(-88.971 -102.898)" fill="#455a64"/><path d="M324.7,369.774c.1,0,.191.461.2,1.034s-.06,1.039-.16,1.041-.19-.461-.2-1.034.06-1.039.16-1.041" transform="translate(-88.935 -101.332)" fill="#455a64"/><path d="M324.6,364.058c.1,0,.189.462.2,1.035s-.065,1.039-.165,1.04-.189-.462-.2-1.034.065-1.039.166-1.04" transform="translate(-88.907 -99.765)" fill="#455a64"/><path d="M324.532,358.342c.1,0,.187.462.192,1.035s-.07,1.039-.17,1.04-.187-.462-.192-1.035.07-1.039.17-1.04" transform="translate(-88.887 -98.199)" fill="#455a64"/><path d="M324.489,352.626c.1,0,.184.463.187,1.036s-.075,1.038-.175,1.039-.184-.463-.187-1.037.075-1.037.175-1.038" transform="translate(-88.874 -96.632)" fill="#455a64"/><path d="M324.475,346.909c.1,0,.182.465.182,1.037s-.08,1.037-.18,1.037-.182-.464-.183-1.037.081-1.037.181-1.037" transform="translate(-88.868 -95.066)" fill="#455a64"/><path d="M324.489,341.193c.1,0,.179.465.177,1.038s-.086,1.037-.186,1.037-.179-.465-.177-1.038.086-1.037.186-1.037" transform="translate(-88.871 -93.499)" fill="#455a64"/><path d="M324.532,335.476c.1,0,.177.466.172,1.039s-.091,1.037-.191,1.036-.177-.466-.172-1.039.091-1.037.191-1.036" transform="translate(-88.881 -91.933)" fill="#455a64"/><path d="M324.6,329.76c.1,0,.175.467.167,1.04s-.1,1.036-.2,1.034-.174-.467-.166-1.04.1-1.036.2-1.034" transform="translate(-88.899 -90.366)" fill="#455a64"/><path d="M324.7,324.046c.1,0,.172.468.161,1.041s-.1,1.036-.2,1.034-.173-.467-.162-1.041.1-1.036.2-1.034" transform="translate(-88.925 -88.8)" fill="#455a64"/><path d="M324.83,318.326c.1,0,.17.47.156,1.042s-.107,1.036-.207,1.034-.17-.469-.156-1.043.107-1.037.207-1.034" transform="translate(-88.958 -87.233)" fill="#455a64"/><path d="M325.024,312.607c.1,0,.163.473.14,1.045s-.122,1.034-.222,1.031-.163-.471-.14-1.045.122-1.034.222-1.03" transform="translate(-89.006 -85.666)" fill="#455a64"/><path d="M325.344,306.9c.1.007.151.476.113,1.048s-.149,1.029-.249,1.024-.15-.474-.113-1.048.149-1.031.249-1.024" transform="translate(-89.085 -84.101)" fill="#455a64"/><path d="M325.848,301.2c.1.012.134.482.076,1.05s-.186,1.023-.285,1.014-.134-.479-.076-1.05.186-1.026.285-1.014" transform="translate(-89.208 -82.541)" fill="#455a64"/><path d="M326.418,296.955c.1.015.147.258.106.543s-.154.505-.253.491-.147-.256-.106-.543.155-.506.253-.491" transform="translate(-89.377 -81.376)" fill="#455a64"/><path d="M322.768,269.936a3.187,3.187,0,0,1,.118.761c.052.491.116,1.2.187,2.083.142,1.76.312,4.193.479,6.881.078,1.34.152,2.616.22,3.791a11.652,11.652,0,0,0,.361,3.028,2.572,2.572,0,0,0,1.261,1.5,3.714,3.714,0,0,0,.719.206c0,.011-.068.028-.2.032a1.6,1.6,0,0,1-.574-.108,2.625,2.625,0,0,1-1.446-1.539,10.989,10.989,0,0,1-.454-3.1c-.078-1.175-.161-2.45-.249-3.79-.166-2.688-.3-5.124-.373-6.888-.038-.882-.063-1.6-.072-2.09a3.163,3.163,0,0,1,.023-.77" transform="translate(-88.443 -73.972)" fill="#455a64"/><path d="M325.251,272.156c.028.046-.157.17-.174.464a.562.562,0,0,0,.145.426.494.494,0,0,0,.791-.322.561.561,0,0,0-.193-.406c-.217-.2-.436-.158-.448-.211-.033-.034.231-.21.6,0a.779.779,0,0,1,.377.6.8.8,0,0,1-1.372.557.779.779,0,0,1-.15-.7c.114-.41.427-.467.426-.42" transform="translate(-89.007 -74.54)" fill="#455a64"/><path d="M346.2,274.739a3.593,3.593,0,0,1-1.552.592,6.572,6.572,0,0,1-6.966-3.113,3.591,3.591,0,0,1-.594-1.551c.06-.022.252.585.811,1.414a6.831,6.831,0,0,0,6.706,3c.99-.137,1.571-.4,1.594-.339" transform="translate(-92.373 -74.172)" fill="#455a64"/><path d="M304.541,269.937a2.643,2.643,0,0,1-.066,1.348,5.3,5.3,0,0,1-4.666,4.089,2.643,2.643,0,0,1-1.345-.112c.005-.06.516-.006,1.311-.142a5.565,5.565,0,0,0,4.453-3.9c.24-.77.253-1.284.314-1.281" transform="translate(-81.79 -73.973)" fill="#455a64"/><path d="M343.728,206.806l-11.769-11.864v0a20.965,20.965,0,0,0-8.127-5.261,16.774,16.774,0,0,0-5.093-.976,20.418,20.418,0,0,1-12.3.007c-1.689.212-11.88.386-15.364,3.856l-10.5,19.333,11.287,7.922,3.471-6.608-.558,12.374-1.861,21.857,36.469.378L328.91,228l-.027-14.342,5.262,5.122Z" transform="translate(-76.887 -51.713)" fill="#455a64"/><path d="M329.158,156.762H306.064a1.232,1.232,0,1,1,0-2.465h23.094a1.232,1.232,0,1,1,0,2.465" transform="translate(-83.535 -42.283)" fill="#f14141"/><path d="M329.132,150.035H307.616v-1.7a10.758,10.758,0,1,1,21.516,0Z" transform="translate(-84.298 -37.702)" fill="#f14141"/><rect width="3.297" height="12.937" transform="translate(232.136 99.879)" fill="#f14141"/><path d="M298.606,189.3l-2.258,63.435,40.433-2.275-3.636-58.42s-6.567-4.331-10.084-3.558l-8.4,27.521-6.479-28.1Z" transform="translate(-81.21 -51.492)" fill="#f14141"/><path d="M336.283,252.581l-39.1-.163.13-3.662,38.706.335Z" transform="translate(-81.438 -68.168)" fill="#fff"/><path d="M336.506,264.233l-39.779-.166.131-3.662h39.41Z" transform="translate(-81.314 -71.36)" fill="#fff"/><path d="M346.012,225.045l3.749,3.281-26.884-2.6-3.159,8.515,34.518,6.134c4.012.541,10.433-2.084,11.14-7.331a9.68,9.68,0,0,0-2.643-8.028l-9.6-9.1" transform="translate(-87.614 -59.169)" fill="#ffc09d"/><path d="M319.572,149.839a37.69,37.69,0,0,1-.249-6.106,37.7,37.7,0,0,1,.249-6.108,37.708,37.708,0,0,1,.249,6.108,37.7,37.7,0,0,1-.249,6.106" transform="translate(-87.506 -37.714)" fill="#263238"/><path d="M324.139,149.839a37.7,37.7,0,0,1-.249-6.106,37.714,37.714,0,0,1,.249-6.108,37.7,37.7,0,0,1,.249,6.108,37.69,37.69,0,0,1-.249,6.106" transform="translate(-88.758 -37.714)" fill="#263238"/><path d="M329.444,154.165c0,.137-4.935.249-11.022.249s-11.023-.112-11.023-.249,4.934-.249,11.023-.249,11.022.112,11.022.249" transform="translate(-84.239 -42.179)" fill="#263238"/><g transform="translate(235.45 99.847)" opacity="0.2"><g clip-path="url(#h)"><path d="M324.327,137.537v12.214L325.966,138Z" transform="translate(-324.327 -137.537)"/></g></g><g transform="translate(224.102 101.872)" opacity="0.6"><g clip-path="url(#i)"><path d="M315.244,140.341a12.3,12.3,0,0,1-1.431.791,10.2,10.2,0,0,0-4.645,5.969,12.373,12.373,0,0,1-.415,1.581,3.584,3.584,0,0,1,.073-1.665,8.98,8.98,0,0,1,4.822-6.2,3.583,3.583,0,0,1,1.6-.48" transform="translate(-308.696 -140.327)" fill="#fff"/></g></g><path d="M318.764,170.337c.092.1-.425.716-1.265,1.219s-1.626.674-1.67.547.621-.494,1.413-.973,1.428-.9,1.522-.793" transform="translate(-86.548 -46.674)" fill="#263238"/><path d="M315.886,235.749a64.479,64.479,0,0,1-6.951.192c-3.244-.221-3.228-.513-3.138-.886.243-1,5.721.174,4.69-.762s-6.868-.66-6.571-1.7c.386-1.352,6.1-.015,6.591.062s.621-.631.173-.677c-.644-.067-7.387-.93-7.02-2.262.2-.738,1.495-.25,1.495-.25s6.25,1.273,6.4.638-3.49-1.515-4.74-1.722c-1.234-.2-1.639-.875-1.095-1.346.372-.322,4.214.221,5.445.454s4.6.933,3.217-.762-1.8-3.517-1.57-4.089a.684.684,0,0,1,1.278.2,7.942,7.942,0,0,0,1.04,1.941,5.189,5.189,0,0,0,1.217,1.279,22.6,22.6,0,0,0,2.214,1.458" transform="translate(-83.21 -60.911)" fill="#ffc09d"/><rect width="29.823" height="46.403" transform="translate(541.549 232.995) rotate(-41.7)" fill="#f14141"/><path d="M820.021,343.519a4.461,4.461,0,1,1,.363-6.3,4.461,4.461,0,0,1-.363,6.3" transform="translate(-222.68 -92.001)" fill="#455a64"/><path d="M816.961,339.171l-.156,2.549,4,.166" transform="translate(-223.834 -92.945)" fill="none" stroke="#fff" stroke-miterlimit="10" stroke-width="1"/><path d="M775.338,347.235c-.092-.1,4.848-4.653,11.032-10.162s11.271-9.893,11.363-9.791-4.847,4.652-11.032,10.163-11.271,9.893-11.363,9.79" transform="translate(-212.47 -89.687)" fill="#263238"/><path d="M790.623,343.9c-.1.091-7.223-7.78-15.9-17.578s-15.634-17.819-15.531-17.91,7.222,7.779,15.9,17.58,15.633,17.817,15.53,17.908" transform="translate(-208.046 -84.515)" fill="#fafafa"/><path d="M759.283,328.3c-.091-.1,4.83-4.611,10.99-10.067s11.231-9.8,11.321-9.7-4.829,4.609-10.991,10.068-11.23,9.8-11.321,9.695" transform="translate(-208.071 -84.549)" fill="#fafafa"/><path d="M781.82,354.156c-.091-.1,4.868-4.644,11.075-10.142s11.315-9.873,11.406-9.77-4.867,4.643-11.076,10.142-11.315,9.873-11.406,9.77" transform="translate(-214.247 -91.594)" fill="#fafafa"/><path d="M771.091,319.311a2.781,2.781,0,0,1-.615-.7,11.205,11.205,0,0,1-1.234-2.23,12.053,12.053,0,0,1-.9-3.683,4.659,4.659,0,0,1,.253-2.291,2.006,2.006,0,0,1,.875-.97,2.076,2.076,0,0,1,1.331-.183,2.777,2.777,0,0,1,1.969,1.551,5.808,5.808,0,0,1,.543,2.224,9.875,9.875,0,0,1-.46,3.77,9.271,9.271,0,0,1-1.106,2.3,2.656,2.656,0,0,1-.6.717,16.5,16.5,0,0,0,1.369-3.12,10.075,10.075,0,0,0,.34-3.631,5.493,5.493,0,0,0-.519-2.039,2.3,2.3,0,0,0-1.624-1.285,1.462,1.462,0,0,0-1.674.865,4.315,4.315,0,0,0-.241,2.056,12.646,12.646,0,0,0,.769,3.588,25.059,25.059,0,0,0,1.522,3.062" transform="translate(-210.545 -84.736)" fill="#fafafa"/><path d="M771.806,323.424a2.284,2.284,0,0,1,.66-.533,9.694,9.694,0,0,1,2.078-1.018,10.618,10.618,0,0,1,5.435-.414,2.663,2.663,0,0,1,1.074.432,1.45,1.45,0,0,1,.621,1.112,1.475,1.475,0,0,1-.582,1.124,3.484,3.484,0,0,1-.979.564,7.51,7.51,0,0,1-1.991.536,7.886,7.886,0,0,1-3.438-.334,6.975,6.975,0,0,1-2.061-1.068c-.436-.332-.629-.571-.612-.589a11.892,11.892,0,0,0,2.775,1.321,7.974,7.974,0,0,0,3.275.216,7.318,7.318,0,0,0,1.859-.531c.6-.238,1.258-.669,1.257-1.233a.971.971,0,0,0-.42-.722,2.227,2.227,0,0,0-.877-.351,10.827,10.827,0,0,0-1.943-.2,11.176,11.176,0,0,0-3.284.468,23.736,23.736,0,0,0-2.847,1.216" transform="translate(-211.503 -88.043)" fill="#fafafa"/><path d="M736.449,314.977l58.458,66.495,73.491,0v33.226H790.934l-69.519-79.635Z" transform="translate(-197.694 -86.315)" fill="#263238"/><path d="M652.025,243.667a2.658,2.658,0,0,1,.587.107,14.552,14.552,0,0,1,1.655.444A21.82,21.82,0,0,1,659.918,247a28.408,28.408,0,0,1,6.725,6.484,35.991,35.991,0,0,1,5.287,10.144,53.1,53.1,0,0,1,2.29,11.211,90.95,90.95,0,0,1,.418,9.326c0,2.656-.073,4.8-.131,6.286-.034.7-.061,1.264-.083,1.707a2.669,2.669,0,0,1-.063.595,2.776,2.776,0,0,1-.037-.6c0-.444-.007-1.01-.011-1.708,0-1.484.013-3.63-.027-6.28s-.147-5.8-.523-9.281a54.408,54.408,0,0,0-2.306-11.1,36.321,36.321,0,0,0-5.183-10.025,28.819,28.819,0,0,0-6.557-6.47,23.321,23.321,0,0,0-5.514-2.891c-1.391-.492-2.193-.683-2.18-.734" transform="translate(-178.679 -66.772)" fill="#263238"/><path d="M678.79,290.207a3.263,3.263,0,0,1-.039-.655c0-.479-.009-1.1-.015-1.876-.005-1.629,0-3.986-.043-6.9s-.159-6.373-.536-10.2a67.15,67.15,0,0,0-2.292-12.25,44.849,44.849,0,0,0-5.135-11.309,35.217,35.217,0,0,0-6.6-7.694,28.957,28.957,0,0,0-5.659-3.855c-1.445-.737-2.285-1.07-2.265-1.118a3.188,3.188,0,0,1,.62.211,17.814,17.814,0,0,1,1.732.734,27.026,27.026,0,0,1,5.8,3.76,34.562,34.562,0,0,1,6.756,7.713,44.292,44.292,0,0,1,5.227,11.417,65.414,65.414,0,0,1,2.271,12.347c.354,3.845.428,7.322.431,10.237s-.062,5.273-.116,6.9c-.032.773-.057,1.4-.078,1.874a3.2,3.2,0,0,1-.061.653" transform="translate(-179.825 -64.222)" fill="#263238"/><path d="M580.257,172.494l35.389,42.689a10.521,10.521,0,1,0,16.2-13.43l-35.389-42.689a10.521,10.521,0,0,0-16.2,13.43" transform="translate(-158.348 -42.546)" fill="#455a64"/><path d="M629.159,304.927h7.1A11.229,11.229,0,0,0,647.488,293.7V223.146a11.229,11.229,0,0,0-11.229-11.229h-7.1a11.229,11.229,0,0,0-11.229,11.229V293.7a11.229,11.229,0,0,0,11.229,11.229" transform="translate(-169.335 -58.073)" fill="#455a64"/><path d="M627.835,317.841a7.286,7.286,0,1,0,7.286-7.286,7.286,7.286,0,0,0-7.286,7.286" transform="translate(-172.05 -85.103)" fill="#263238"/><path d="M628.252,226.748a7.286,7.286,0,1,0,7.286-7.286,7.285,7.285,0,0,0-7.286,7.286" transform="translate(-172.164 -60.141)" fill="#263238"/><path d="M589.079,164.8a4.42,4.42,0,1,0,6.251,0,4.42,4.42,0,0,0-6.251,0" transform="translate(-161.074 -44.805)" fill="#263238"/><path d="M618,227.819a1.177,1.177,0,0,1-.059-.393,8.926,8.926,0,0,1-.044-1.138,13.839,13.839,0,0,1,.711-4.129,15.706,15.706,0,0,1,3.059-5.412,14.355,14.355,0,0,1,13.825-4.9,15.716,15.716,0,0,1,5.784,2.278,13.869,13.869,0,0,1,3.152,2.76,8.777,8.777,0,0,1,.682.912c.146.215.216.333.2.342a18.738,18.738,0,0,0-4.224-3.715,15.876,15.876,0,0,0-5.676-2.125,14.146,14.146,0,0,0-13.4,4.749,15.894,15.894,0,0,0-3.072,5.224,18.764,18.764,0,0,0-.941,5.546" transform="translate(-169.323 -57.985)" fill="#263238"/><path d="M580.907,159.172c.077.049-.446.841-.985,2.248a14.477,14.477,0,0,0,.507,11.395c.661,1.352,1.253,2.1,1.18,2.151-.026.022-.192-.148-.471-.477a9.194,9.194,0,0,1-1.021-1.512,12.6,12.6,0,0,1-1.054-2.5,13.595,13.595,0,0,1-.293-6.6,12.522,12.522,0,0,1,.828-2.586,9.086,9.086,0,0,1,.883-1.6c.248-.352.4-.536.427-.517" transform="translate(-158.53 -43.618)" fill="#263238"/><path d="M80.286,228.388c.014.054-.905.267-2.5.828a26.56,26.56,0,0,0-6.325,3.3,33,33,0,0,0-7.521,7.41A41.575,41.575,0,0,0,58,251.417a62.27,62.27,0,0,0-2.64,12.723c-.428,3.984-.546,7.6-.59,10.632s-.023,5.493-.02,7.191c0,.809,0,1.46-.006,1.956a3.5,3.5,0,0,1-.036.683,3.556,3.556,0,0,1-.065-.681c-.023-.5-.052-1.146-.088-1.955-.062-1.7-.136-4.157-.139-7.2a104.966,104.966,0,0,1,.486-10.677,60.938,60.938,0,0,1,2.624-12.831,41.249,41.249,0,0,1,6.047-11.607,32.577,32.577,0,0,1,7.689-7.425,25.108,25.108,0,0,1,6.462-3.2,16.867,16.867,0,0,1,1.893-.514,3.468,3.468,0,0,1,.671-.131" transform="translate(-14.911 -62.586)" fill="#263238"/><path d="M49.537,281.686a4.2,4.2,0,0,1-.063-.748c-.02-.538-.048-1.252-.082-2.147-.058-1.865-.125-4.564-.121-7.9s.094-7.318.5-11.72a75.021,75.021,0,0,1,2.6-14.133,50.791,50.791,0,0,1,5.979-13.067,39.668,39.668,0,0,1,7.726-8.831,31.059,31.059,0,0,1,6.632-4.312,20.9,20.9,0,0,1,1.979-.846,4.279,4.279,0,0,1,.707-.249,4.19,4.19,0,0,1-.669.341c-.436.227-1.122.466-1.931.928a32.951,32.951,0,0,0-6.491,4.407,40.26,40.26,0,0,0-7.568,8.812,51.281,51.281,0,0,0-5.888,12.959,76.787,76.787,0,0,0-2.624,14.036c-.429,4.379-.555,8.348-.605,11.679s-.036,6.031-.037,7.9c-.005.9-.009,1.61-.012,2.148a4.166,4.166,0,0,1-.037.75" transform="translate(-13.502 -59.665)" fill="#263238"/><path d="M201.032,142.366c-.3.578,1.486,33.51,1.486,33.51l4.176-.063.141-33.594Z" transform="translate(-55.081 -38.973)" fill="#263238"/><path d="M203.99,164.236l-9.893.778.484,14.946-11.066,6.161.329,9.824,7.6,9.952-.062-14.146,9.029-5.027,7.933,3.876-.078,15.259,7.837-10.121-.692-9.073L204.8,179.2Z" transform="translate(-50.29 -45.007)" fill="#263238"/><path d="M147.845,146.881l-40.527,48.887a12.049,12.049,0,0,1-18.552-15.38L129.294,131.5a12.048,12.048,0,0,1,18.551,15.379" transform="translate(-23.565 -34.842)" fill="#455a64"/><path d="M190.234,148.262h-39.7a5.745,5.745,0,0,1-5.745-5.745v-3.633a5.745,5.745,0,0,1,5.745-5.745h39.7a5.745,5.745,0,0,1,5.745,5.745v3.633a5.745,5.745,0,0,1-5.745,5.745" transform="translate(-39.679 -36.485)" fill="#455a64"/><path d="M99.394,298.543h0a16.925,16.925,0,0,1-16.925-16.925V208.954a16.925,16.925,0,0,1,33.85,0v72.664a16.925,16.925,0,0,1-16.925,16.925" transform="translate(-22.6 -52.623)" fill="#455a64"/><path d="M111.454,313.331a8.344,8.344,0,1,1-8.344-8.344,8.344,8.344,0,0,1,8.344,8.344" transform="translate(-25.969 -83.578)" fill="#263238"/><path d="M110.977,209.012a8.344,8.344,0,1,1-8.344-8.343,8.344,8.344,0,0,1,8.344,8.343" transform="translate(-25.839 -54.991)" fill="#263238"/><path d="M158.314,138.065a5.062,5.062,0,1,1-7.159,0,5.062,5.062,0,0,1,7.159,0" transform="translate(-41.016 -37.429)" fill="#263238"/><path d="M207.092,139.825a3.439,3.439,0,1,1-4.864,0,3.439,3.439,0,0,1,4.864,0" transform="translate(-55.142 -38.041)" fill="#263238"/><path d="M117.167,210.253a20.729,20.729,0,0,0-1.053-6.36,18.2,18.2,0,0,0-3.517-6,16.211,16.211,0,0,0-15.377-5.449,18.182,18.182,0,0,0-6.508,2.444,20.727,20.727,0,0,0-4.823,4.277,1.539,1.539,0,0,1,.237-.388,10.488,10.488,0,0,1,.786-1.039,15.959,15.959,0,0,1,3.612-3.148,18.02,18.02,0,0,1,6.616-2.6,16.423,16.423,0,0,1,15.8,5.6,18,18,0,0,1,3.5,6.184,15.96,15.96,0,0,1,.825,4.721,10.684,10.684,0,0,1-.044,1.3,1.562,1.562,0,0,1-.06.45" transform="translate(-23.536 -52.536)" fill="#263238"/><path d="M170.148,131.626c.028-.019.2.194.477.6a10.693,10.693,0,0,1,1,1.832,14.542,14.542,0,0,1,.939,2.958,15.623,15.623,0,0,1-.336,7.545,14.5,14.5,0,0,1-1.2,2.863,10.722,10.722,0,0,1-1.159,1.735c-.316.379-.5.576-.529.555-.075-.058.611-.9,1.375-2.452a16.333,16.333,0,0,0,1.069-2.826,16.542,16.542,0,0,0,.326-7.334,16.26,16.26,0,0,0-.814-2.91c-.624-1.611-1.231-2.513-1.151-2.564" transform="translate(-46.405 -36.07)" fill="#263238"/><path d="M355.593,331.29H7.7c-4.254,0-7.7-5.114-7.7-11.423v-7.222c0-6.309,3.448-11.423,7.7-11.423h347.89c4.254,0,7.7,5.114,7.7,11.423v7.222c0,6.309-3.449,11.423-7.7,11.423" transform="translate(0 -82.546)" fill="#455a64"/><path d="M639.737,320.342a7.472,7.472,0,1,1-7.472-7.472,7.472,7.472,0,0,1,7.472,7.472" transform="translate(-171.216 -85.738)" fill="#263238"/><path d="M724.191,318.713a7.473,7.473,0,1,1-7.473-7.472,7.473,7.473,0,0,1,7.473,7.472" transform="translate(-194.359 -85.291)" fill="#263238"/><path d="M452.323,320.342a7.472,7.472,0,1,1-7.472-7.472,7.473,7.473,0,0,1,7.472,7.472" transform="translate(-119.858 -85.738)" fill="#263238"/><path d="M358.615,320.342a7.472,7.472,0,1,1-7.472-7.472,7.473,7.473,0,0,1,7.472,7.472" transform="translate(-94.178 -85.738)" fill="#263238"/><path d="M264.908,320.342a7.472,7.472,0,1,1-7.472-7.472,7.473,7.473,0,0,1,7.472,7.472" transform="translate(-68.499 -85.738)" fill="#263238"/><path d="M171.2,320.342a7.472,7.472,0,1,1-7.472-7.472,7.473,7.473,0,0,1,7.472,7.472" transform="translate(-42.82 -85.738)" fill="#263238"/><path d="M43.439,320.342a7.472,7.472,0,1,1-7.472-7.472,7.473,7.473,0,0,1,7.472,7.472" transform="translate(-7.808 -85.738)" fill="#263238"/><path d="M132.8,423.546H47.525l1.129-80.906h85.278Z" transform="translate(-13.024 -93.896)" fill="#263238"/><path d="M117.114,301.128c0,.137-7.807.249-17.435.249s-17.436-.112-17.436-.249,7.8-.249,17.436-.249,17.435.112,17.435.249" transform="translate(-22.538 -82.452)" fill="#263238"/><path d="M353.837,329.134s.16-.02.477-.049a5.666,5.666,0,0,0,1.4-.3,7.47,7.47,0,0,0,2.172-1.219,10.661,10.661,0,0,0,2.466-3.027,16.075,16.075,0,0,0,1.757-5.4,18.562,18.562,0,0,0-.405-7.175,12.378,12.378,0,0,0-3.681-6.313,6.806,6.806,0,0,0-2.977-1.509,19.088,19.088,0,0,0-3.372-.137l-78.7.079-259.634.073a6.539,6.539,0,0,0-4.415,1.877,9.714,9.714,0,0,0-1.774,2.2,12.925,12.925,0,0,0-1.3,2.833,17.828,17.828,0,0,0-.822,6.664,16.244,16.244,0,0,0,1.672,6.279A10.675,10.675,0,0,0,8.332,326.4a7.733,7.733,0,0,0,2,1.646,6.181,6.181,0,0,0,2.222.778,23.174,23.174,0,0,0,2.318.058h9.293l36.466,0,68.936.015,116.725.054,78.692.079,21.394.046,5.564.025c1.253.009,1.9.025,1.9.025s-.642.017-1.9.025l-5.564.025-21.394.046-78.692.079-116.725.054-68.936.015-36.466,0H14.871a23.2,23.2,0,0,1-2.348-.06,6.428,6.428,0,0,1-2.312-.809,8.076,8.076,0,0,1-2.08-1.713,11.116,11.116,0,0,1-1.692-2.489A16.882,16.882,0,0,1,4.7,317.779a18.525,18.525,0,0,1,.854-6.932A13.449,13.449,0,0,1,6.9,307.9a10.125,10.125,0,0,1,1.845-2.29,6.8,6.8,0,0,1,4.592-1.951l259.634.073,78.7.079a19.088,19.088,0,0,1,3.39.15,6.92,6.92,0,0,1,3.017,1.541,12.565,12.565,0,0,1,3.716,6.407,18.753,18.753,0,0,1,.394,7.255,16.13,16.13,0,0,1-1.787,5.443,10.615,10.615,0,0,1-2.493,3.03,7.377,7.377,0,0,1-2.189,1.2,5.378,5.378,0,0,1-1.405.272c-.318.02-.478.023-.478.023" transform="translate(-1.279 -83.214)" fill="#263238"/><rect width="44.776" height="28.778" transform="translate(245.824 190.141)" fill="#f14141"/><path d="M376.441,290.677c-.137,0-.249-6.447-.249-14.4s.112-14.4.249-14.4.249,6.445.249,14.4-.112,14.4-.249,14.4" transform="translate(-103.09 -71.765)" fill="#263238"/><rect width="31.684" height="52.874" transform="translate(100.085 165.802)" fill="#f14141"/><path d="M171.919,281.228c-.137,0-.249-11.739-.249-26.215s.112-26.217.249-26.217.249,11.736.249,26.217-.112,26.215-.249,26.215" transform="translate(-47.044 -62.698)" fill="#263238"/><rect width="46.402" height="29.823" transform="translate(613.52 265.655) rotate(-0.167)" fill="#f14141"/><path d="M911.918,364.723a4.461,4.461,0,1,1-4.474-4.448,4.461,4.461,0,0,1,4.474,4.448" transform="translate(-247.454 -98.728)" fill="#455a64"/><path d="M905.981,365.508l1.8,1.807,2.779-2.886" transform="translate(-248.272 -99.867)" fill="none" stroke="#fff" stroke-miterlimit="10" stroke-width="1"/><path d="M889.907,396.137c-.137,0-.269-6.714-.293-15s.068-15,.206-15,.268,6.712.292,15-.068,15-.2,15" transform="translate(-243.786 -100.337)" fill="#263238"/><path d="M892.017,388.715c0,.137-10.613.249-23.7.249s-23.7-.112-23.7-.249,10.611-.249,23.7-.249,23.7.112,23.7.249" transform="translate(-231.454 -106.454)" fill="#fafafa"/><path d="M865.049,395.62c-.137,0-.249-6.673-.249-14.9s.112-14.9.249-14.9.249,6.672.249,14.9-.112,14.9-.249,14.9" transform="translate(-236.987 -100.246)" fill="#fafafa"/><path d="M899.393,395.847c-.137,0-.249-6.724-.249-15.015s.112-15.017.249-15.017.249,6.722.249,15.017-.112,15.015-.249,15.015" transform="translate(-246.398 -100.247)" fill="#fafafa"/><path d="M861,386.222a2.778,2.778,0,0,1-.934-.006,11.217,11.217,0,0,1-2.488-.555,12.069,12.069,0,0,1-3.352-1.77,4.67,4.67,0,0,1-1.547-1.71,2,2,0,0,1-.145-1.3,2.074,2.074,0,0,1,.746-1.118,2.78,2.78,0,0,1,2.467-.445,5.812,5.812,0,0,1,2.025,1.069,9.86,9.86,0,0,1,2.517,2.844,9.269,9.269,0,0,1,.989,2.354,2.655,2.655,0,0,1,.139.924,16.507,16.507,0,0,0-1.428-3.093,10.1,10.1,0,0,0-2.492-2.662,5.483,5.483,0,0,0-1.871-.963,2.3,2.3,0,0,0-2.038.363,1.464,1.464,0,0,0-.463,1.827,4.317,4.317,0,0,0,1.379,1.543,12.644,12.644,0,0,0,3.195,1.8,25.09,25.09,0,0,0,3.3.891" transform="translate(-233.611 -103.917)" fill="#fafafa"/><path d="M864.812,386.845a2.287,2.287,0,0,1,.038-.847,9.721,9.721,0,0,1,.616-2.231,10.616,10.616,0,0,1,3.293-4.343,2.672,2.672,0,0,1,1.036-.518,1.453,1.453,0,0,1,1.244.274,1.475,1.475,0,0,1,.455,1.181,3.493,3.493,0,0,1-.227,1.106,7.518,7.518,0,0,1-.918,1.846,7.9,7.9,0,0,1-2.53,2.353,6.992,6.992,0,0,1-2.166.834,2.145,2.145,0,0,1-.846.068,11.946,11.946,0,0,0,2.828-1.2,7.987,7.987,0,0,0,2.333-2.308,7.326,7.326,0,0,0,.836-1.743c.218-.605.334-1.386-.091-1.759a.969.969,0,0,0-.819-.165,2.237,2.237,0,0,0-.844.424,10.707,10.707,0,0,0-1.434,1.324,11.14,11.14,0,0,0-1.828,2.769,23.591,23.591,0,0,0-.977,2.937" transform="translate(-236.984 -103.824)" fill="#fafafa"/></g></g></g></g></g></svg>