<svg xmlns="http://www.w3.org/2000/svg" width="190" height="174.873" viewBox="0 0 190 174.873"><g transform="translate(-725 -6649.39)"><g transform="translate(9407 11253.948)"><g transform="translate(-8682 -4604.559)"><path d="M99.783,0A28.944,28.944,0,0,0,79.316,8.478L0,87.794H30.3a28.944,28.944,0,0,0,20.467-8.478L130.082,0Z" transform="matrix(0.998, -0.07, 0.07, 0.998, 0, 9.074)" fill="#dae3f6"/><path d="M124.729,0A36.18,36.18,0,0,0,99.145,10.6L0,109.742H37.874a36.18,36.18,0,0,0,25.584-10.6L162.6,0Z" transform="matrix(0.998, -0.07, 0.07, 0.998, 20.138, 65.397)" fill="#dae3f6"/></g><g transform="translate(-8649.314 -4583.021)"><g transform="translate(-0.046 6.928)"><path d="M188.845,93.253l-9.011-36.24a1.009,1.009,0,0,0-1.12-.731l-28.836,4.481A1.087,1.087,0,0,0,149,61.787l2.436,37.263a1.978,1.978,0,0,0,2.095,1.9h.244l33.513-5.212a1.991,1.991,0,0,0,1.656-2.289A.194.194,0,0,1,188.845,93.253Z" transform="translate(-76.399 -32.233)" fill="#fc657e"/><path d="M120.3,88.693l-2.436-37.263a.972.972,0,0,1,.877-1.023L131.8,48.361l-2.825-11.3a1.367,1.367,0,0,0-1.461-.974L89.517,41.98a1.285,1.285,0,0,0-1.12,1.364l3.166,49.051a2.652,2.652,0,0,0,2.728,2.533.618.618,0,0,0,.292-.049l28.008-4.335a2.027,2.027,0,0,1-2.289-1.656C120.35,88.839,120.3,88.79,120.3,88.693Z" transform="translate(-45.314 -21.876)" fill="#f5c84c"/><circle cx="8.427" cy="8.427" r="8.427" transform="translate(44.641 99.94)" fill="#29589f"/><circle cx="8.427" cy="8.427" r="8.427" transform="translate(86.24 99.94)" fill="#29589f"/><path d="M19.975,46.587h-.292L5.313,45.174a3.1,3.1,0,0,1,.536-6.186L20.267,40.4a3.1,3.1,0,0,1-.292,6.186Z" transform="translate(-1.248 -23.365)" fill="#fc657e"/><path d="M146.821,174.3h-58.4l5.066-7.355a11.7,11.7,0,0,1,7.745-4.92l38.919-6.381a2.929,2.929,0,0,0,2.436-3.361,2.979,2.979,0,0,0-2.923-2.484l-40.576,6.625a17.807,17.807,0,0,0-10.424,7.112l-6.673,9.742a4.377,4.377,0,0,0,1.12,6.089,4.539,4.539,0,0,0,2.484.779h61.229a2.931,2.931,0,0,0,2.923-2.923A2.87,2.87,0,0,0,146.821,174.3Z" transform="translate(-41.633 -80.207)" fill="#dae6f1"/><circle cx="3.02" cy="3.02" r="3.02" transform="translate(50.048 105.347)" fill="#5290db"/><circle cx="3.02" cy="3.02" r="3.02" transform="translate(91.646 105.347)" fill="#5290db"/><path d="M246.737,156.187h-1.023v-1.023a1.364,1.364,0,1,0-2.728,0v1.023h-1.023a1.364,1.364,0,1,0,0,2.728h1.023v1.023a1.364,1.364,0,1,0,2.728,0v-1.023h1.023a1.364,1.364,0,0,0,0-2.728Z" transform="translate(-123.381 -82.258)" fill="#70d6f9"/><path d="M79.97,26.478a4.78,4.78,0,0,1-3.848-3.751c0-.049-.049-.1-.1-.049a.048.048,0,0,0-.049.049,4.719,4.719,0,0,1-3.848,3.751c-.049,0-.1.049-.049.1a.048.048,0,0,0,.049.049,4.78,4.78,0,0,1,3.848,3.751c0,.049.049.1.1.049a.048.048,0,0,0,.049-.049,4.719,4.719,0,0,1,3.848-3.751c.049,0,.1-.049.049-.1C80.019,26.478,80.019,26.478,79.97,26.478Z" transform="translate(-36.936 -14.996)" fill="#f5c84c"/><circle cx="1.461" cy="1.461" r="1.461" transform="translate(29.736 20.883)" fill="#fc657e"/><circle cx="1.461" cy="1.461" r="1.461" transform="translate(26.326 63.261)" fill="#87d147"/><circle cx="1.461" cy="1.461" r="1.461" transform="translate(114.492 83.232)" fill="#f5c84c"/><path d="M3.873,29.954l14.37,1.364a2.1,2.1,0,0,0,.779,0L40.406,80.369a8.873,8.873,0,0,0,9.206,5.309,17.6,17.6,0,0,0-3.653,3.946l-6.673,9.645a5.584,5.584,0,0,0,1.461,7.794,5.645,5.645,0,0,0,3.166.974h2.679a9.628,9.628,0,1,0,13.59.828,6.649,6.649,0,0,0-.828-.828H88.19a9.628,9.628,0,1,0,13.59.828,6.649,6.649,0,0,0-.828-.828h4.14a4.14,4.14,0,0,0,0-8.281H49.076l3.751-5.407a10.441,10.441,0,0,1,6.917-4.384l38.919-6.381a4.144,4.144,0,0,0,3.41-4.774,3.842,3.842,0,0,0-.633-1.607l11.3-1.851a5.194,5.194,0,0,0,4.384-5.163V41.206a4.085,4.085,0,0,0-4.092-4.092h-.1l-6.966.195-1.461-5.943a2.212,2.212,0,0,0-2.484-1.607l-2.971.438-.1-.633A11.546,11.546,0,0,0,85.8,19.92a14.9,14.9,0,0,0-2,.487,2.618,2.618,0,0,0-1.9-.487L77.62,20.6l-.195-1.218a14.767,14.767,0,0,0-29.177,4.579l.195,1.218-4.433.682a2.538,2.538,0,0,0-2.143,2.63l.682,10.521L25.306,39.5,21.36,30.49a4.341,4.341,0,0,0,.779-6.089,4.3,4.3,0,0,0-3.02-1.656L4.7,21.381a4.321,4.321,0,0,0-4.725,3.9,4.249,4.249,0,0,0,3.9,4.676ZM46.543,63.71,45.277,44.129,59.695,77.154l-6.819,1.072Zm3.8,14.905-1.266.195a1.394,1.394,0,0,1-1.607-1.169v-.195l-.438-6.527ZM78.594,32.779a9.072,9.072,0,0,1,4.14-9.109l2.192,8.768-6.235.974ZM103,39.794l2.63,6.04,5.553,22.358v.049a.807.807,0,0,1-.536.974h-.1l-1.9.292L95.789,39.988Zm-9.791.292,13.006,29.859-6.819,1.072L86,40.329Zm7.842,34.73-.682-1.559,6.819-1.072.633,1.51ZM82.491,77.885l-.731-1.7,6.819-1.072.731,1.656Zm-1.7-3.994L75.428,61.567l-1.266-19.63L87.606,72.868Zm-3.7.536a.776.776,0,0,1-.877-.682v-.1l-.341-4.968L78.3,74.232Zm2.192,2.143.731,1.7L73.236,79.4l-.779-1.754Zm-8.524,3.215-6.771,1.12L63.2,79.054l6.819-1.072Zm21.043-3.41-.731-1.607L97.884,73.7l.682,1.559ZM83.368,40.329,96.861,71.358l-6.819,1.072L76.159,40.524Zm-9.5-2.143-.1-1.559,2.923-.438.292,1.9ZM72.506,54.943,66.368,40.817l5.212-.146ZM63.738,40.865,72.993,62.1l.779,11.69a3.094,3.094,0,0,0,.244,1.12l-2.533.39L56.529,41.06Zm-9.839.292L68.95,75.693,62.13,76.765,46.738,41.352Zm6.771,38.286.828,1.851-6.771,1.12-.828-1.9Zm-.438,35.851a7.209,7.209,0,1,1-7.209-7.209A7.193,7.193,0,0,1,60.231,115.294Zm41.6,0a7.209,7.209,0,1,1-7.209-7.209A7.193,7.193,0,0,1,101.829,115.294ZM99.686,79.2a1.705,1.705,0,0,1-1.413,1.948L59.354,87.53a13.015,13.015,0,0,0-8.524,5.407l-5.066,7.4a1.24,1.24,0,0,0,.292,1.7,1.118,1.118,0,0,0,.682.195h58.4a1.7,1.7,0,1,1,0,3.41H43.962a3.16,3.16,0,0,1-3.166-3.166,3.061,3.061,0,0,1,.585-1.8l6.673-9.645a16.362,16.362,0,0,1,9.693-6.625l40.429-6.625a1.656,1.656,0,0,1,1.51,1.413ZM112.4,72.965l-2.046.341-.633-1.461,1.266-.195a3.24,3.24,0,0,0,2.679-3.7c0-.1-.049-.244-.049-.341l-2.095-8.329,3.264,7.5v3.458a2.819,2.819,0,0,1-2.387,2.728Zm.633-33.415a1.614,1.614,0,0,1,1.7,1.607V60.69L107.967,45.1l-1.315-5.358Zm-10.765-7.355,1.266,5.163-24.112.633-.341-2.241,17.974-2.776.39,2.484a1.233,1.233,0,1,0,2.436-.39l-.39-2.484ZM86.193,22.355a9.085,9.085,0,0,1,10.375,7.6l.1.633-9.352,1.461-2.338-9.4a6.276,6.276,0,0,1,1.218-.292Zm-6.284.39a11.735,11.735,0,0,0-1.656,1.8l-.244-1.51Zm-29.275.877a12.381,12.381,0,1,1,24.453-3.9v.1l.195,1.218L50.83,24.84ZM44.351,28.3l4.433-.682.585,3.653a1.209,1.209,0,1,0,2.387-.39l-.585-3.653,24.453-3.8.585,3.653a1.155,1.155,0,0,0,.438.731,11.09,11.09,0,0,0-.438,5.358l.1.633-3.069.487a2.273,2.273,0,0,0-1.9,2.338l.1,1.656-26.5.731L44.254,28.4a.1.1,0,0,1,.1-.1Zm-.682,28.836L36.9,41.6l5.748-.146Zm-9.4-15.441,9.839,22.65.877,13.249a3.87,3.87,0,0,0,4.043,3.7,1.348,1.348,0,0,0,.438-.049l1.9-.292.828,1.948-2.533.438a6.512,6.512,0,0,1-7.014-3.8L26.328,41.888ZM4.458,23.768l14.37,1.364a1.883,1.883,0,1,1-.341,3.751L4.117,27.567a1.907,1.907,0,0,1,.341-3.8Z" transform="translate(0.046 -6.928)"/><path d="M104.438,229.176a4.238,4.238,0,1,0-4.238-4.238A4.241,4.241,0,0,0,104.438,229.176Zm0-6.04a1.8,1.8,0,0,1,1.8,1.8,1.83,1.83,0,0,1-1.8,1.8,1.8,1.8,0,1,1,0-3.6Z" transform="translate(-51.37 -116.571)"/><path d="M189.838,229.176a4.238,4.238,0,1,0-4.238-4.238A4.241,4.241,0,0,0,189.838,229.176Zm0-6.04a1.8,1.8,0,1,1-1.8,1.8A1.8,1.8,0,0,1,189.838,223.136Z" transform="translate(-95.171 -116.571)"/></g></g></g></g></svg>