<svg xmlns="http://www.w3.org/2000/svg" xmlns:xlink="http://www.w3.org/1999/xlink" width="148" height="149" viewBox="0 0 148 149"><defs><filter id="a" x="0" y="0" width="148" height="149" filterUnits="userSpaceOnUse"><feOffset dy="3" input="SourceAlpha"/><feGaussianBlur stdDeviation="3" result="b"/><feFlood flood-opacity="0.161"/><feComposite operator="in" in2="b"/><feComposite in="SourceGraphic"/></filter></defs><g transform="translate(-360 -8655)"><g transform="matrix(1, 0, 0, 1, 360, 8655)" filter="url(#a)"><ellipse cx="65" cy="65.5" rx="65" ry="65.5" transform="translate(9 6)" fill="#fff"/></g><g transform="translate(389.174 8668.342)"><g transform="translate(16.034 20.498)"><path d="M99.518,54.242V70.272H42.7V54.242h9.472V38.211H61.64V22.18H80.578V38.211h9.469V54.242Z" transform="translate(-42.7 -22.18)" fill="#efbf27"/></g><g transform="translate(3.88 68.589)"><g transform="translate(0)"><path d="M76.077,190.344h-59.9a10.614,10.614,0,1,1,0-21.228h59.9a10.614,10.614,0,1,1,0,21.228Z" transform="translate(-5.564 -169.116)" fill="#aeaeae"/></g><g transform="translate(4.927 4.927)"><path d="M26.305,195.544a5.686,5.686,0,0,1,0-11.373H86.2a5.686,5.686,0,0,1,0,11.373Z" transform="translate(-20.619 -184.171)" fill="#4a4842"/></g><g transform="translate(64.827 4.928)"><circle cx="5.686" cy="5.686" r="5.686" fill="#efefef"/></g><g transform="translate(68.346 8.447)"><circle cx="2.167" cy="2.167" r="2.167" fill="#f0c020"/></g><g transform="translate(44.86 4.928)"><circle cx="5.686" cy="5.686" r="5.686" fill="#efefef"/></g><g transform="translate(48.38 8.447)"><circle cx="2.167" cy="2.167" r="2.167" fill="#f0c020"/></g><g transform="translate(24.894 4.928)"><circle cx="5.686" cy="5.686" r="5.686" fill="#efefef"/></g><g transform="translate(28.414 8.447)"><circle cx="2.167" cy="2.167" r="2.167" fill="#f0c020"/></g><g transform="translate(4.927 4.928)"><circle cx="5.686" cy="5.686" r="5.686" fill="#efefef"/></g><g transform="translate(8.447 8.447)"><circle cx="2.167" cy="2.167" r="2.167" fill="#f0c020"/></g></g><g transform="translate(22.619 52.559)"><path d="M67.839,127.181l-1.53-1.362a.655.655,0,0,0-.871,0l-1.53,1.362a.655.655,0,0,1-1.09-.489v-6.556h6.11v6.556A.654.654,0,0,1,67.839,127.181Z" transform="translate(-62.819 -120.136)" fill="#fb5c3c"/></g><g transform="translate(41.557 52.559)"><path d="M125.7,127.181l-1.53-1.362a.655.655,0,0,0-.871,0l-1.53,1.362a.655.655,0,0,1-1.09-.489v-6.556h6.11v6.556A.654.654,0,0,1,125.7,127.181Z" transform="translate(-120.682 -120.136)" fill="#fb5c3c"/></g><g transform="translate(19.361 64.353)"><path d="M102.212,157.807h-.982a.818.818,0,1,1,0-1.636h.982a.818.818,0,1,1,0,1.636Zm-4.255,0H53.685a.818.818,0,1,1,0-1.636H97.957a.818.818,0,1,1,0,1.636Z" transform="translate(-52.867 -156.171)" fill="#f7e4b0"/></g><g transform="translate(28.515 48.582)"><path d="M111.871,109.622h-.982a.818.818,0,1,1,0-1.636h.982a.818.818,0,0,1,0,1.636Zm-4.255,0H81.651a.818.818,0,1,1,0-1.636h25.965a.818.818,0,1,1,0,1.636Z" transform="translate(-80.833 -107.986)" fill="#f7e4b0"/></g><g transform="translate(37.041 32.386)"><path d="M120.87,60.136h-.982a.818.818,0,1,1,0-1.636h.982a.818.818,0,0,1,0,1.636Zm-4.255,0H107.7a.818.818,0,0,1,0-1.636h8.912a.818.818,0,0,1,0,1.636Z" transform="translate(-106.885 -58.5)" fill="#f7e4b0"/></g><g transform="translate(60.495 52.559)"><path d="M183.566,127.181l-1.53-1.362a.655.655,0,0,0-.871,0l-1.53,1.362a.655.655,0,0,1-1.09-.489v-6.556h6.11v6.556A.654.654,0,0,1,183.566,127.181Z" transform="translate(-178.546 -120.136)" fill="#fb5c3c"/></g><g transform="translate(32.088 36.528)"><path d="M96.77,78.2,95.24,76.84a.655.655,0,0,0-.871,0L92.84,78.2a.655.655,0,0,1-1.09-.489V71.157h6.11v6.556A.654.654,0,0,1,96.77,78.2Z" transform="translate(-91.75 -71.157)" fill="#fb5c3c"/></g><g transform="translate(51.026 36.528)"><path d="M154.634,78.2,153.1,76.84a.655.655,0,0,0-.871,0L150.7,78.2a.655.655,0,0,1-1.09-.489V71.157h6.11v6.556a.654.654,0,0,1-1.09.489Z" transform="translate(-149.614 -71.157)" fill="#fb5c3c"/></g><g transform="translate(68.606 36.429)"><path d="M206.775,80.035c-.385-1.659-.639-2.755-2.887-3.5a.819.819,0,0,1,0-1.554c1.3-.431,2.248-.743,2.887-3.5a.819.819,0,0,1,1.594,0c.655,2.82,1.636,3.085,2.887,3.5a.819.819,0,0,1,0,1.554c-1.305.431-2.248.743-2.887,3.5A.818.818,0,0,1,206.775,80.035Z" transform="translate(-203.328 -70.855)"/></g><g transform="translate(71.374 39.686)"><path d="M214.695,82.461a4.342,4.342,0,0,0-1.414,1.6,4.544,4.544,0,0,0-1.5-1.587,4.35,4.35,0,0,0,1.479-1.669,4.438,4.438,0,0,0,1.43,1.656Z" transform="translate(-211.785 -80.805)" fill="#f0c020"/></g><g transform="translate(11.791 36.429)"><path d="M33.184,80.035c-.385-1.659-.639-2.755-2.887-3.5a.819.819,0,0,1,0-1.554c1.3-.431,2.248-.743,2.887-3.5a.819.819,0,0,1,1.594,0c.655,2.82,1.636,3.085,2.887,3.5a.819.819,0,0,1,0,1.554c-1.305.431-2.248.743-2.887,3.5A.818.818,0,0,1,33.184,80.035Z" transform="translate(-29.737 -70.855)"/></g><g transform="translate(14.559 39.686)"><path d="M41.1,82.461a4.342,4.342,0,0,0-1.414,1.6,4.544,4.544,0,0,0-1.5-1.587A4.35,4.35,0,0,0,39.674,80.8,4.438,4.438,0,0,0,41.1,82.461Z" transform="translate(-38.195 -80.805)" fill="#f0c020"/></g><g transform="translate(41.556 20.498)"><path d="M126.791,22.18v6.507a.655.655,0,0,1-1.09.488l-1.528-1.362a.658.658,0,0,0-.871,0l-1.532,1.362a.655.655,0,0,1-1.09-.488V22.18Z" transform="translate(-120.68 -22.18)" fill="#fb5c3c"/></g><g transform="translate(3.06 19.68)"><path d="M14.492,90.637H63.92a.818.818,0,0,0,0-1.636,0,0,0,0,0,0,0H14.492a9.794,9.794,0,1,1,0-19.588h59.9a9.794,9.794,0,1,1,0,19.588H70.466a.82.82,0,0,0,0,1.64h3.928a11.432,11.432,0,0,0,0-22.865h-.727V52.56a.816.816,0,0,0-.815-.818H64.2V36.529a.815.815,0,0,0-.818-.818H54.73V20.5a.815.815,0,0,0-.818-.818H34.974a.816.816,0,0,0-.818.818V35.71h-8.65a.815.815,0,0,0-.818.818v4.363a.818.818,0,1,0,1.636,0V37.347H31.27v5.737a1.472,1.472,0,0,0,2.452,1.1l1.421-1.265,1.421,1.265a1.473,1.473,0,0,0,2.452-1.1V37.346h4.779V51.74H26.324v-4.3a.818.818,0,0,0-1.636-.007v4.309H16.034a.814.814,0,0,0-.815.818V67.772h-.727a11.432,11.432,0,1,0,0,22.865ZM72.03,67.772H54.73V62.706a.818.818,0,0,0-1.636,0v5.066h-17.3v-14.4h4.947v5.738a1.473,1.473,0,0,0,2.452,1.1l1.421-1.265,1.421,1.265a1.473,1.473,0,0,0,2.452-1.1V53.377h4.608V56.16a.818.818,0,1,0,1.636,0V53.377h4.948v5.738a1.473,1.473,0,0,0,2.452,1.1L63.55,58.95l1.421,1.265a1.473,1.473,0,0,0,2.452-1.1V53.378H72.03ZM65.787,53.378v5.373l-1.257-1.119a1.473,1.473,0,0,0-1.959,0L61.314,58.75V53.377h4.473ZM51.845,37.346h4.473v5.372L55.061,41.6a1.472,1.472,0,0,0-1.959,0l-1.257,1.119Zm-9.469-16.03h4.473v5.322L45.591,25.52a1.472,1.472,0,0,0-1.959,0l-1.257,1.119Zm-1.636,0V27a1.473,1.473,0,0,0,2.452,1.1l1.421-1.265L46.033,28.1A1.473,1.473,0,0,0,48.485,27V21.316h4.608V35.71h-17.3V21.316Zm-3.36,21.4L36.122,41.6a1.473,1.473,0,0,0-1.959,0l-1.257,1.119V37.347h4.473Zm8.052-5.373h4.777v5.738a1.473,1.473,0,0,0,2.452,1.1l1.421-1.265L55.5,44.184a1.473,1.473,0,0,0,2.452-1.1V37.347h4.608V51.741H45.431Zm1.417,16.031V58.75l-1.257-1.119a1.472,1.472,0,0,0-1.959,0L42.376,58.75V53.377Zm-23.411,0H27.91V58.75l-1.257-1.119a1.473,1.473,0,0,0-1.958,0L23.437,58.75Zm-6.585,0H21.8v5.737a1.473,1.473,0,0,0,2.452,1.1l1.421-1.265,1.421,1.265a1.473,1.473,0,0,0,2.452-1.1V53.377h4.609v14.4h-17.3Z" transform="translate(-3.06 -19.68)"/></g><g transform="translate(66.375 88.997)"><path d="M196.51,232.292a.818.818,0,1,0,.818-.822A.821.821,0,0,0,196.51,232.292Z" transform="translate(-196.51 -231.47)"/></g><g transform="translate(7.989 72.698)"><path d="M91.027,188.176a6.512,6.512,0,0,0-6.5-6.5h-59.9a6.5,6.5,0,1,0,0,13.009h59.9a6.512,6.512,0,0,0,6.5-6.5Zm-1.636,0a4.868,4.868,0,1,1-4.868-4.868A4.874,4.874,0,0,1,89.391,188.176Zm-19.966,0a4.868,4.868,0,1,1-4.868-4.868A4.874,4.874,0,0,1,69.424,188.176Zm-19.966,0a4.868,4.868,0,1,1-4.868-4.868A4.873,4.873,0,0,1,49.458,188.176Zm-29.7,0a4.868,4.868,0,1,1,4.868,4.868A4.874,4.874,0,0,1,19.755,188.176Zm9.167,4.868a6.476,6.476,0,0,0,0-9.736H40.29a6.476,6.476,0,0,0,0,9.736Zm19.966,0a6.476,6.476,0,0,0,0-9.736H60.257a6.476,6.476,0,0,0,0,9.736Zm19.966,0a6.476,6.476,0,0,0,0-9.736H80.223a6.476,6.476,0,0,0,0,9.736Z" transform="translate(-18.119 -181.671)"/></g><g transform="translate(71.408 76.218)"><path d="M211.887,195.41a2.985,2.985,0,1,0,2.985-2.985A2.988,2.988,0,0,0,211.887,195.41Zm4.333,0a1.348,1.348,0,1,1-1.348-1.348A1.35,1.35,0,0,1,216.22,195.41Z" transform="translate(-211.887 -192.425)"/></g><g transform="translate(51.441 76.218)"><path d="M153.867,198.4a2.985,2.985,0,1,0-2.985-2.985A2.988,2.988,0,0,0,153.867,198.4Zm0-4.334a1.349,1.349,0,1,1-1.348,1.348A1.35,1.35,0,0,1,153.867,194.061Z" transform="translate(-150.882 -192.425)"/></g><g transform="translate(31.475 76.218)"><path d="M92.863,198.4a2.985,2.985,0,1,0-2.985-2.985A2.988,2.988,0,0,0,92.863,198.4Zm0-4.334a1.349,1.349,0,1,1-1.348,1.348A1.35,1.35,0,0,1,92.863,194.061Z" transform="translate(-89.878 -192.425)"/></g><g transform="translate(11.508 76.218)"><path d="M34.843,195.41a2.985,2.985,0,1,0-2.985,2.985A2.988,2.988,0,0,0,34.843,195.41Zm-4.333,0a1.348,1.348,0,1,1,1.348,1.349A1.35,1.35,0,0,1,30.509,195.41Z" transform="translate(-28.873 -192.425)"/></g><g transform="translate(24.687 43.347)"><circle cx="0.818" cy="0.818" r="0.818"/></g><g transform="translate(53.093 58.615)"><circle cx="0.818" cy="0.818" r="0.818"/></g></g></g></svg>