<svg xmlns="http://www.w3.org/2000/svg" width="190" height="174.873" viewBox="0 0 190 174.873"><g transform="translate(-610.328 -6926.208)"><g transform="translate(9292.328 11530.767)"><g transform="translate(-8682 -4604.559)"><path d="M99.783,0A28.944,28.944,0,0,0,79.316,8.478L0,87.794H30.3a28.944,28.944,0,0,0,20.467-8.478L130.082,0Z" transform="matrix(0.998, -0.07, 0.07, 0.998, 0, 9.074)" fill="#dae3f6"/><path d="M124.729,0A36.18,36.18,0,0,0,99.145,10.6L0,109.742H37.874a36.18,36.18,0,0,0,25.584-10.6L162.6,0Z" transform="matrix(0.998, -0.07, 0.07, 0.998, 20.138, 65.397)" fill="#dae3f6"/></g><g transform="translate(-8671.614 -4575.471)"><g transform="translate(35.728 1.709)"><g transform="translate(0)"><path d="M117.859,152.349H45.7a4.184,4.184,0,0,1-4.184-4.184V52.575A4.184,4.184,0,0,1,45.7,48.391h72.16a4.184,4.184,0,0,1,4.184,4.184v95.589A4.184,4.184,0,0,1,117.859,152.349Z" transform="translate(-41.515 -39.071)" fill="#ffc250"/><path d="M329.031,48.39h-14a4.184,4.184,0,0,1,4.184,4.184v95.589a4.184,4.184,0,0,1-4.184,4.184h14a4.184,4.184,0,0,0,4.184-4.184V52.575a4.184,4.184,0,0,0-4.184-4.185Z" transform="translate(-252.687 -39.07)" fill="#eab14d"/><path d="M71.522,167.181V79.894a1.5,1.5,0,0,1,1.5-1.5h63.859a1.5,1.5,0,0,1,1.5,1.5v87.288a1.5,1.5,0,0,1-1.5,1.5H73.018A1.5,1.5,0,0,1,71.522,167.181Z" transform="translate(-64.683 -62.239)" fill="#f5f5f5"/><path d="M310.821,78.4h-14a1.5,1.5,0,0,1,1.5,1.5v87.288a1.5,1.5,0,0,1-1.5,1.5h14a1.5,1.5,0,0,0,1.5-1.5V79.894A1.5,1.5,0,0,0,310.821,78.4Z" transform="translate(-238.627 -62.239)" fill="#eaeaea"/><path d="M166.2,12.708V10.5a3,3,0,0,0-3-3h-11.77a3,3,0,0,0-3,3v2.2a1.229,1.229,0,0,1-1.229,1.229h-4.9a2.951,2.951,0,0,0-2.95,2.95v6.772h35.934V16.887a2.951,2.951,0,0,0-2.951-2.95h-4.9a1.229,1.229,0,0,1-1.229-1.229Z" transform="translate(-117.047 -7.5)" fill="#c2d0da"/><g transform="translate(15.54 24.627)"><path d="M109.694,131.363V118.191a2.643,2.643,0,0,1,2.643-2.643h13.173a2.643,2.643,0,0,1,2.643,2.643v13.173a2.643,2.643,0,0,1-2.643,2.643H112.337A2.642,2.642,0,0,1,109.694,131.363Z" transform="translate(-109.694 -115.548)" fill="#66b49d"/><path d="M109.694,251.77V238.6a2.643,2.643,0,0,1,2.643-2.643h13.173a2.643,2.643,0,0,1,2.643,2.643V251.77a2.643,2.643,0,0,1-2.643,2.643H112.337A2.642,2.642,0,0,1,109.694,251.77Z" transform="translate(-109.694 -208.511)" fill="#66b49d"/><path d="M109.694,372.175V359a2.643,2.643,0,0,1,2.643-2.642h13.173A2.643,2.643,0,0,1,128.152,359v13.173a2.643,2.643,0,0,1-2.643,2.643H112.337A2.642,2.642,0,0,1,109.694,372.175Z" transform="translate(-109.694 -301.473)" fill="#66b49d"/></g><g transform="translate(44.102 26.559)"><g transform="translate(2.807 0)"><path d="M291.543,181.058l-1.678-2.211-6.28-3.977-2.414-.38L249.013,225.3a13.236,13.236,0,0,0-1.685,3.98,10.358,10.358,0,0,1,9.18,5.813,13.232,13.232,0,0,0,2.877-3.225Z" transform="translate(-247.328 -162.988)" fill="#fc8086"/><path d="M422.424,126.449l-2.714-1.718a4.533,4.533,0,0,0-6.255,1.406l-2.488,3.932.794,1.6,7.551,4.782,2.028.186,2.49-3.935A4.532,4.532,0,0,0,422.424,126.449Z" transform="translate(-373.67 -124.027)" fill="#8c9ba6"/></g><path d="M0,0H6.461V12.277H0Z" transform="matrix(0.535, -0.845, 0.845, 0.535, 36.653, 11.487)" fill="#c9e2e7"/><path d="M247,420.708l-9.156,7.379a1.738,1.738,0,0,1-2.78-1.76l2.755-11.432A10.358,10.358,0,0,1,247,420.708Z" transform="translate(-235.011 -348.599)" fill="#7c8b96"/></g></g></g><g transform="translate(34.02 0)"><g transform="translate(0)"><path d="M136.7,135.672a1.709,1.709,0,0,0-2.39.363l-3.384,4.6-1.157-1.589A1.71,1.71,0,1,0,127,141.056l2,2.741a2.385,2.385,0,0,0,1.915.978h.006a2.384,2.384,0,0,0,1.914-.968l4.228-5.745A1.711,1.711,0,0,0,136.7,135.672Z" transform="translate(-105.558 -104.492)"/><path d="M136.7,258.7a1.709,1.709,0,0,0-2.39.363l-3.384,4.6-1.157-1.589A1.71,1.71,0,1,0,127,264.082l2,2.741a2.384,2.384,0,0,0,1.915.977h.006a2.385,2.385,0,0,0,1.914-.968l4.228-5.744A1.71,1.71,0,0,0,136.7,258.7Z" transform="translate(-105.557 -199.478)"/><path d="M136.7,376.483a1.709,1.709,0,0,0-2.39.363l-3.384,4.6-1.157-1.589A1.71,1.71,0,1,0,127,381.866l2,2.741a2.384,2.384,0,0,0,1.915.977h.006a2.385,2.385,0,0,0,1.914-.968l4.228-5.744A1.71,1.71,0,0,0,136.7,376.483Z" transform="translate(-105.557 -290.416)"/><path d="M222.235,136.287h21.132a1.71,1.71,0,1,0,0-3.42H222.235a1.71,1.71,0,0,0,0,3.42Z" transform="translate(-178.016 -102.584)"/><path d="M222.235,167.628H232.8a1.71,1.71,0,1,0,0-3.42H222.235a1.71,1.71,0,0,0,0,3.42Z" transform="translate(-178.016 -126.781)"/><path d="M222.235,256.692h14.179a1.71,1.71,0,0,0,0-3.42H222.235a1.71,1.71,0,0,0,0,3.42Z" transform="translate(-178.016 -195.545)"/><path d="M232.8,288.034a1.71,1.71,0,1,0,0-3.42H222.235a1.71,1.71,0,0,0,0,3.42Z" transform="translate(-178.016 -219.744)"/><path d="M119.722,108.047H106.549A4.358,4.358,0,0,0,102.2,112.4v13.173a4.358,4.358,0,0,0,4.352,4.352h13.173a4.358,4.358,0,0,0,4.352-4.352V112.4A4.357,4.357,0,0,0,119.722,108.047Zm.933,17.525a.934.934,0,0,1-.933.933H106.55a.934.934,0,0,1-.933-.933V112.4a.934.934,0,0,1,.933-.933h13.173a.934.934,0,0,1,.933.933Z" transform="translate(-86.658 -83.421)"/><path d="M119.722,228.453H106.549a4.357,4.357,0,0,0-4.352,4.352v13.173a4.357,4.357,0,0,0,4.352,4.352h13.173a4.358,4.358,0,0,0,4.352-4.352V232.805A4.357,4.357,0,0,0,119.722,228.453Zm.933,17.525a.934.934,0,0,1-.933.933H106.55a.934.934,0,0,1-.933-.933V232.805a.934.934,0,0,1,.933-.933h13.173a.934.934,0,0,1,.933.933Z" transform="translate(-86.658 -176.383)"/><path d="M119.722,348.857H106.549a4.358,4.358,0,0,0-4.352,4.352v13.173a4.358,4.358,0,0,0,4.352,4.352h13.173a4.358,4.358,0,0,0,4.352-4.352V353.209A4.357,4.357,0,0,0,119.722,348.857Zm.933,17.525a.934.934,0,0,1-.933.933H106.55a.934.934,0,0,1-.933-.933V353.209a.934.934,0,0,1,.933-.933h13.173a.934.934,0,0,1,.933.933Z" transform="translate(-86.658 -269.344)"/><path d="M132.308,29.247l-2.714-1.719a6.242,6.242,0,0,0-8.615,1.936L118.491,33.4l-3.455,5.46-3.908,6.175V19.365a3.209,3.209,0,0,0-3.205-3.206H95.67V12.74h16.4a2.477,2.477,0,0,1,2.475,2.475V30.022a1.71,1.71,0,0,0,3.42,0V15.214a5.9,5.9,0,0,0-5.894-5.894H95.317A4.666,4.666,0,0,0,91.01,6.436H86.593V4.714A4.72,4.72,0,0,0,81.879,0H70.109a4.72,4.72,0,0,0-4.715,4.715V6.437H60.977A4.666,4.666,0,0,0,56.671,9.32H39.914a5.9,5.9,0,0,0-5.894,5.894V110.8a5.9,5.9,0,0,0,5.894,5.894h72.159a5.9,5.9,0,0,0,5.894-5.894V72.464a1.71,1.71,0,0,0-3.42,0V110.8a2.477,2.477,0,0,1-2.475,2.475H39.914A2.477,2.477,0,0,1,37.44,110.8V15.214a2.477,2.477,0,0,1,2.475-2.475h16.4v3.42H44.065a3.209,3.209,0,0,0-3.206,3.206v87.287a3.209,3.209,0,0,0,3.206,3.206h63.858a3.209,3.209,0,0,0,3.205-3.206V74.384L128.3,47.253v0l3.454-5.458,2.49-3.935a6.25,6.25,0,0,0-1.935-8.612Zm-6.672.8a2.8,2.8,0,0,1,2.129.369l2.714,1.719a2.826,2.826,0,0,1,.875,3.894l-1.575,2.489-7.483-4.739,1.574-2.488a2.8,2.8,0,0,1,1.766-1.245ZM93.252,96.238a11.512,11.512,0,0,1-1.083,1.444,12.02,12.02,0,0,0-1.817-1.946l31.861-50.313,2.282,1.445Zm-11.676,10.2a.23.23,0,0,0-.032-.012h0l2.416-10.032A8.608,8.608,0,0,1,89.6,99.968c-9.054,7.3-7.9,6.351-8.026,6.468Zm38.89-69.765,7.483,4.739-1.626,2.57L118.84,39.24ZM59.737,11.135c0-.021,0-.042,0-.063s0-.014,0-.022a1.241,1.241,0,0,1,1.238-1.194h4.9a2.942,2.942,0,0,0,2.939-2.939v-2.2a1.3,1.3,0,0,1,1.3-1.295H81.879a1.3,1.3,0,0,1,1.3,1.295v2.2a2.942,2.942,0,0,0,2.939,2.939h4.9a1.241,1.241,0,0,1,1.238,1.194c0,.007,0,.014,0,.022s0,.042,0,.063v5.025H59.737ZM44.279,19.579h63.43V50.434l-17.9,28.279a1.71,1.71,0,1,0,2.89,1.829L117.011,42.13l2.312,1.464L87.462,93.907a12.006,12.006,0,0,0-2.536-.811,11.561,11.561,0,0,1,.842-1.6l2.658-4.2a1.71,1.71,0,1,0-2.89-1.829l-2.658,4.2a14.918,14.918,0,0,0-1.9,4.494h0L78.221,105.6a3.549,3.549,0,0,0-.1.842H44.279Zm63.43,86.859H87.024l5.868-4.729a14.912,14.912,0,0,0,3.249-3.642l11.568-18.279Z" transform="translate(-34.02 0)"/></g></g></g></g></g></svg>