<svg xmlns="http://www.w3.org/2000/svg" xmlns:xlink="http://www.w3.org/1999/xlink" width="148" height="149" viewBox="0 0 148 149"><defs><filter id="a" x="0" y="0" width="148" height="149" filterUnits="userSpaceOnUse"><feOffset dy="3" input="SourceAlpha"/><feGaussianBlur stdDeviation="3" result="b"/><feFlood flood-opacity="0.161"/><feComposite operator="in" in2="b"/><feComposite in="SourceGraphic"/></filter></defs><g transform="translate(-1058 -8655)"><g transform="matrix(1, 0, 0, 1, 1058, 8655)" filter="url(#a)"><ellipse cx="65" cy="65.5" rx="65" ry="65.5" transform="translate(9 6)" fill="#fff"/></g><g transform="translate(1093.616 8681.718)"><g transform="translate(-0.046 6.928)"><path d="M172.761,78.323l-5.374-21.611a.6.6,0,0,0-.668-.436l-17.2,2.672a.648.648,0,0,0-.523.61l1.452,22.221a1.18,1.18,0,0,0,1.249,1.133h.145L171.831,79.8a1.187,1.187,0,0,0,.988-1.365A.116.116,0,0,1,172.761,78.323Z" transform="translate(-105.706 -41.934)" fill="#fc657e"/><path d="M107.421,67.452,105.969,45.23a.579.579,0,0,1,.523-.61l7.785-1.22-1.685-6.739a.815.815,0,0,0-.871-.581L89.063,39.6a.766.766,0,0,0-.668.813l1.888,29.251a1.581,1.581,0,0,0,1.627,1.51.368.368,0,0,0,.174-.029l16.7-2.585a1.209,1.209,0,0,1-1.365-.988C107.45,67.539,107.421,67.51,107.421,67.452Z" transform="translate(-62.704 -27.606)" fill="#f5c84c"/><circle cx="5.025" cy="5.025" r="5.025" transform="translate(26.621 59.598)" fill="#29589f"/><circle cx="5.025" cy="5.025" r="5.025" transform="translate(51.428 59.598)" fill="#29589f"/><path d="M12.911,43.515h-.174l-8.569-.842a1.851,1.851,0,1,1,.32-3.689l8.6.842a1.849,1.849,0,0,1-.174,3.689Z" transform="translate(-1.744 -29.667)" fill="#fc657e"/><path d="M120.338,164.411H85.51l3.021-4.386a6.975,6.975,0,0,1,4.619-2.934l23.209-3.805a1.747,1.747,0,0,0,1.452-2,1.777,1.777,0,0,0-1.743-1.481l-24.2,3.95a10.619,10.619,0,0,0-6.216,4.241l-3.98,5.81a2.61,2.61,0,0,0,.668,3.631,2.707,2.707,0,0,0,1.481.465h36.513a1.748,1.748,0,0,0,1.743-1.743A1.712,1.712,0,0,0,120.338,164.411Z" transform="translate(-57.611 -108.299)" fill="#dae6f1"/><circle cx="1.801" cy="1.801" r="1.801" transform="translate(29.845 62.822)" fill="#5290db"/><circle cx="1.801" cy="1.801" r="1.801" transform="translate(54.652 62.822)" fill="#5290db"/><path d="M244.26,155.223h-.61v-.61a.813.813,0,1,0-1.627,0v.61h-.61a.813.813,0,0,0,0,1.627h.61v.61a.813.813,0,1,0,1.627,0v-.61h.61a.813.813,0,0,0,0-1.627Z" transform="translate(-170.698 -111.137)" fill="#70d6f9"/><path d="M76.776,24.936A2.85,2.85,0,0,1,74.482,22.7c0-.029-.029-.058-.058-.029a.028.028,0,0,0-.029.029A2.814,2.814,0,0,1,72.1,24.936c-.029,0-.058.029-.029.058a.028.028,0,0,0,.029.029,2.85,2.85,0,0,1,2.295,2.237c0,.029.029.058.058.029a.028.028,0,0,0,.029-.029,2.814,2.814,0,0,1,2.295-2.237c.029,0,.058-.029.029-.058C76.805,24.936,76.805,24.936,76.776,24.936Z" transform="translate(-51.114 -18.089)" fill="#f5c84c"/><circle cx="0.871" cy="0.871" r="0.871" transform="translate(17.732 12.453)" fill="#fc657e"/><circle cx="0.871" cy="0.871" r="0.871" transform="translate(15.699 37.725)" fill="#87d147"/><circle cx="0.871" cy="0.871" r="0.871" transform="translate(68.275 49.634)" fill="#f5c84c"/><path d="M2.291,20.659l8.569.813a1.25,1.25,0,0,0,.465,0L24.077,50.723a5.291,5.291,0,0,0,5.49,3.166,10.5,10.5,0,0,0-2.179,2.353l-3.98,5.751a3.33,3.33,0,0,0,.871,4.648,3.367,3.367,0,0,0,1.888.581h1.6a5.741,5.741,0,1,0,8.1.494,3.965,3.965,0,0,0-.494-.494h17.2a5.741,5.741,0,1,0,8.1.494,3.965,3.965,0,0,0-.494-.494h2.469a2.469,2.469,0,0,0,0-4.938h-33.4l2.237-3.224a6.226,6.226,0,0,1,4.125-2.614l23.209-3.805a2.471,2.471,0,0,0,2.033-2.847,2.291,2.291,0,0,0-.378-.959l6.739-1.1a3.1,3.1,0,0,0,2.614-3.079V27.369a2.436,2.436,0,0,0-2.44-2.44h-.058l-4.154.116L62.3,21.5a1.319,1.319,0,0,0-1.481-.959L59.05,20.8l-.058-.378a6.885,6.885,0,0,0-7.843-5.751,8.885,8.885,0,0,0-1.191.29,1.561,1.561,0,0,0-1.133-.29l-2.556.407-.116-.726a8.806,8.806,0,0,0-17.4,2.73l.116.726-2.643.407a1.513,1.513,0,0,0-1.278,1.569l.407,6.274-10.283.29-2.353-5.374a2.589,2.589,0,0,0,.465-3.631,2.563,2.563,0,0,0-1.8-.988l-8.6-.813A2.577,2.577,0,0,0-.033,17.871a2.534,2.534,0,0,0,2.324,2.789Zm25.446,20.13-.755-11.677,8.6,19.694-4.067.639ZM30,49.678l-.755.116a.831.831,0,0,1-.959-.7v-.116l-.261-3.892ZM46.85,22.344a5.41,5.41,0,0,1,2.469-5.432l1.307,5.229-3.718.581ZM61.4,26.527l1.569,3.6,3.311,13.333v.029a.481.481,0,0,1-.32.581h-.058l-1.133.174L57.1,26.643Zm-5.839.174L63.32,44.507l-4.067.639-7.988-18.3Zm4.677,20.711-.407-.93,4.067-.639.378.9Zm-11.067,1.83-.436-1.017,4.067-.639.436.988ZM48.157,46.86l-3.2-7.349L44.207,27.8,52.224,46.25Zm-2.208.32a.463.463,0,0,1-.523-.407v-.058l-.2-2.963,1.452,3.311Zm1.307,1.278.436,1.017-4.038.668L43.19,49.1Zm-5.083,1.917-4.038.668-.465-1.1,4.067-.639Zm12.549-2.033-.436-.959,4.067-.639.407.93ZM49.7,26.846l8.046,18.5-4.067.639L45.4,26.963Zm-5.664-1.278-.058-.93,1.743-.261.174,1.133Zm-.813,9.992-3.66-8.424,3.108-.087ZM37.99,27.166l5.519,12.665.465,6.971a1.845,1.845,0,0,0,.145.668l-1.51.232-8.918-20.42Zm-5.868.174L41.1,47.935l-4.067.639L27.853,27.456ZM36.16,50.172l.494,1.1-4.038.668-.494-1.133ZM35.9,71.551a4.3,4.3,0,1,1-4.3-4.3A4.289,4.289,0,0,1,35.9,71.551Zm24.807,0a4.3,4.3,0,1,1-4.3-4.3A4.289,4.289,0,0,1,60.706,71.551ZM59.427,50.026a1.017,1.017,0,0,1-.842,1.162L35.376,54.993a7.761,7.761,0,0,0-5.083,3.224l-3.021,4.415a.74.74,0,0,0,.174,1.017.667.667,0,0,0,.407.116H62.681a1.017,1.017,0,1,1,0,2.033H26.2a1.884,1.884,0,0,1-1.888-1.888,1.825,1.825,0,0,1,.349-1.075l3.98-5.751a9.757,9.757,0,0,1,5.78-3.95l24.109-3.95a.988.988,0,0,1,.9.842Zm7.581-3.718-1.22.2-.378-.871.755-.116a1.932,1.932,0,0,0,1.6-2.208c0-.058-.029-.145-.029-.2l-1.249-4.967,1.946,4.473v2.062a1.681,1.681,0,0,1-1.423,1.627Zm.378-19.927a.962.962,0,0,1,1.017.959V38.988l-4.038-9.3-.784-3.2ZM60.967,22l.755,3.079-14.379.378-.2-1.336L57.859,22.46l.232,1.481a.735.735,0,1,0,1.452-.232l-.232-1.481Zm-9.586-5.868a5.418,5.418,0,0,1,6.187,4.531l.058.378-5.577.871L50.655,16.3a3.742,3.742,0,0,1,.726-.174Zm-3.747.232a7,7,0,0,0-.988,1.075l-.145-.9Zm-17.458.523a7.383,7.383,0,0,1,14.582-2.324v.058l.116.726L30.293,17.609Zm-3.747,2.789,2.643-.407.349,2.179a.721.721,0,1,0,1.423-.232L30.5,19.033l14.582-2.266.349,2.179a.689.689,0,0,0,.261.436,6.614,6.614,0,0,0-.261,3.2l.058.378-1.83.29a1.356,1.356,0,0,0-1.133,1.394l.058.988-15.8.436-.407-6.332a.062.062,0,0,1,.058-.058Zm-.407,17.2L21.985,27.6l3.428-.087ZM20.417,27.66l5.868,13.507.523,7.9a2.308,2.308,0,0,0,2.411,2.208.8.8,0,0,0,.261-.029l1.133-.174.494,1.162L29.6,52.5a3.883,3.883,0,0,1-4.183-2.266L15.682,27.776ZM2.639,16.97l8.569.813a1.123,1.123,0,1,1-.2,2.237l-8.569-.784a1.137,1.137,0,0,1,.2-2.266Z" transform="translate(0.046 -6.928)"/><path d="M102.727,225.754a2.527,2.527,0,1,0-2.527-2.527A2.529,2.529,0,0,0,102.727,225.754Zm0-3.6a1.072,1.072,0,0,1,1.075,1.075,1.091,1.091,0,0,1-1.075,1.075,1.075,1.075,0,0,1,0-2.15Z" transform="translate(-71.081 -158.604)"/><path d="M188.127,225.754a2.527,2.527,0,1,0-2.527-2.527A2.529,2.529,0,0,0,188.127,225.754Zm0-3.6a1.075,1.075,0,1,1-1.075,1.075A1.072,1.072,0,0,1,188.127,222.152Z" transform="translate(-131.674 -158.604)"/></g></g></g></svg>