<svg xmlns="http://www.w3.org/2000/svg" width="190" height="174.873" viewBox="0 0 190 174.873"><g transform="translate(-600 -6399.399)"><g transform="translate(9282 11003.958)"><g transform="translate(-8682 -4604.559)"><path d="M99.783,0A28.944,28.944,0,0,0,79.316,8.478L0,87.794H30.3a28.944,28.944,0,0,0,20.467-8.478L130.082,0Z" transform="matrix(0.998, -0.07, 0.07, 0.998, 0, 9.074)" fill="#dae3f6"/><path d="M124.729,0A36.18,36.18,0,0,0,99.145,10.6L0,109.742H37.874a36.18,36.18,0,0,0,25.584-10.6L162.6,0Z" transform="matrix(0.998, -0.07, 0.07, 0.998, 20.138, 65.397)" fill="#dae3f6"/></g><g transform="translate(-8660.055 -4628.556)"><g transform="translate(2.143 55.848)"><path d="M7.511,156.773H144.634a5.827,5.827,0,0,1,4.708,4.708v74.494a5.836,5.836,0,0,1-4.708,4.708H21.142A13.633,13.633,0,0,1,7.511,227.044V156.773Z" transform="translate(-7.511 -129.504)" fill="#ecf4ff" fill-rule="evenodd"/><path d="M21.142,61.218A13.626,13.626,0,0,0,7.511,74.848v83.91a13.627,13.627,0,0,1,13.631-13.63,12.735,12.735,0,0,1,6.763,1.788.947.947,0,0,0,1.456-.89V65.707A3.316,3.316,0,0,0,27.7,62.893a13.487,13.487,0,0,0-6.56-1.675Z" transform="translate(-7.511 -61.218)" fill="#cbe2ff" fill-rule="evenodd"/><path d="M126.088,195.041h20.369a2.089,2.089,0,0,1,2.079,2.079v20.361a2.083,2.083,0,0,1-2.079,2.079H126.088a2.077,2.077,0,0,1-2.071-2.079V197.12a2.082,2.082,0,0,1,2.071-2.079Z" transform="translate(-90.77 -156.852)" fill="#cbe2ff" fill-rule="evenodd"/><path d="M418.661,108.739l-9.554-2.9-8.736,2.9v68.176l9.2,2.395,9.092-2.395Z" transform="translate(-288.26 -93.103)" fill="#ff6978" fill-rule="evenodd"/><path d="M410.669,370.649l3.422-6.73,4.571-9h-18.29l4.57,9,3.422,6.73A1.255,1.255,0,0,0,410.669,370.649Z" transform="translate(-288.26 -271.103)" fill="#ffcbbe" fill-rule="evenodd"/><path d="M418.661,76.854V66.808a5.607,5.607,0,0,0-5.59-5.59h-7.1a5.608,5.608,0,0,0-5.6,5.59V76.854Z" transform="translate(-288.26 -61.218)" fill="#ff8793" fill-rule="evenodd"/><path d="M119.215,384.306h13.946l2.289-7.571-2.289-5.889H119.215a4.337,4.337,0,0,0-3.5,3.511V380.8a4.338,4.338,0,0,0,3.5,3.5Z" transform="translate(-84.835 -282.487)" fill="#f2ce7e" fill-rule="evenodd"/><path d="M176.856,348.41h17.457L196.7,339.8l-2.387-13.242v-2.435a4.337,4.337,0,0,0-3.511-3.511H180.367a4.337,4.337,0,0,0-3.511,3.511V348.41Z" transform="translate(-128.53 -246.591)" fill="#b3e59f" fill-rule="evenodd"/><path d="M238.028,363.3h17.449l1.764-5.8-1.764-7.66v-4.886a4.337,4.337,0,0,0-3.511-3.5H238.028Z" transform="translate(-172.245 -261.481)" fill="#f2ce7e" fill-rule="evenodd"/><path d="M299.172,384.306h13.946a4.338,4.338,0,0,0,3.5-3.5v-6.447a4.338,4.338,0,0,0-3.5-3.511H299.172Z" transform="translate(-215.941 -282.487)" fill="#b3e59f" fill-rule="evenodd"/><path d="M140.647,233.759H17.155a13.57,13.57,0,0,1-5.533-1.173,13.624,13.624,0,0,0,12.458,8.1H147.571a5.836,5.836,0,0,0,4.708-4.708V161.481a5.827,5.827,0,0,0-4.708-4.708h-2.216V229.05A5.836,5.836,0,0,1,140.647,233.759Z" transform="translate(-10.449 -129.504)" fill="#cbe2ff" fill-rule="evenodd"/><path d="M47.92,88.487v56.689a12.336,12.336,0,0,1,5.469,1.739.947.947,0,0,0,1.456-.89V65.707a3.316,3.316,0,0,0-1.658-2.815,13.49,13.49,0,0,0-6.56-1.674,13.888,13.888,0,0,0-3.454.437,13.875,13.875,0,0,1,3.09,1.238,3.316,3.316,0,0,1,1.658,2.815V88.487Z" transform="translate(-32.995 -61.218)" fill="#bed8fb" fill-rule="evenodd"/><path d="M440.2,116.011v68.176h6.925V116.011Z" transform="translate(-316.722 -100.375)" fill="#eb616f" fill-rule="evenodd"/><path d="M426.179,66.808V76.854H433.1V66.808a5.607,5.607,0,0,0-5.59-5.59h-6.933A5.608,5.608,0,0,1,426.179,66.808Z" transform="translate(-302.703 -61.218)" fill="#f77b87" fill-rule="evenodd"/></g><path d="M130.408,69.349V61.438a3.48,3.48,0,0,0-3.454-3.454h-7.1a3.466,3.466,0,0,0-3.454,3.454v7.911h14.011ZM40.94,107.813a2.139,2.139,0,0,1,3.026-3.025l1.95,1.95,5.412-5.42a2.142,2.142,0,1,1,3.025,3.033l-6.924,6.925a2.144,2.144,0,0,1-3.026,0Zm80.319-24.7a2.14,2.14,0,1,1,4.279,0v44.92a2.14,2.14,0,1,1-4.279,0ZM87.519,155.532h13.17V146.35H87.519Zm15.3,4.279H33.02a2.148,2.148,0,0,1-2.144-2.144v-13.46a2.14,2.14,0,0,1,2.144-2.135H48.334v-12.2a2.133,2.133,0,0,1,2.135-2.135H67.926a2.134,2.134,0,0,1,2.136,2.135v3.8H85.375a2.147,2.147,0,0,1,2.144,2.144v6.253h15.3a2.14,2.14,0,0,1,2.144,2.135v13.46a2.147,2.147,0,0,1-2.143,2.144Zm-32.762-4.279h13.17v-17.57H70.062Zm-17.449,0H65.782V132.017H52.613Zm-17.457,0H48.334V146.35H35.156ZM26.129,80.973H112.11V61.438a7.761,7.761,0,0,1,7.742-7.734h7.1a7.761,7.761,0,0,1,7.733,7.734V80.973h9.287a2.14,2.14,0,0,1,2.135,2.144v83.909a2.134,2.134,0,0,1-2.135,2.136H84.72a2.14,2.14,0,0,1,0-4.279H141.83V85.253h-7.143v15.475a2.14,2.14,0,1,1-4.279,0v-27.1H116.4v63.9h14.011v-27.1a2.14,2.14,0,1,1,4.279,0v29.235a2.271,2.271,0,0,1-.364,1.213l-9.011,17.748a2.176,2.176,0,0,1-.955.955,2.13,2.13,0,0,1-2.863-.946l-9.044-17.8a2.277,2.277,0,0,1-.34-1.173V85.253H26.128v16.194a2.14,2.14,0,1,1-4.279,0V59.715a11.352,11.352,0,0,0-6.075-1.731,11.49,11.49,0,0,0-11.5,11.495v73.111c.113-.122.227-.243.34-.356a15.731,15.731,0,0,1,11.155-4.619,15.973,15.973,0,0,1,5.015.817c.356.121.712.259,1.06.4V111.147a2.14,2.14,0,1,1,4.279,0v31.362a2.14,2.14,0,0,1-3.43,1.7,11.207,11.207,0,0,0-3.268-1.723,11.5,11.5,0,1,0-3.656,22.4H75.028a2.14,2.14,0,0,1,0,4.279H15.774A15.77,15.77,0,0,1,0,153.388V69.478A15.774,15.774,0,0,1,25.174,56.811a2.156,2.156,0,0,1,.955,1.788V80.973ZM129.065,141.8H117.732L123.4,152.96Zm-28.6-47.864a2.14,2.14,0,0,1,0,4.279H71.494a2.14,2.14,0,0,1,0-4.279ZM88.417,114.374a2.14,2.14,0,1,1,0,4.279H71.494a2.14,2.14,0,0,1,0-4.279Zm12.045-10.217a2.14,2.14,0,0,1,0,4.279H71.494a2.14,2.14,0,0,1,0-4.279ZM35.391,91.894H59.91a2.14,2.14,0,0,1,2.135,2.144v24.518A2.14,2.14,0,0,1,59.91,120.7H35.391a2.142,2.142,0,0,1-2.144-2.144V94.037a2.142,2.142,0,0,1,2.144-2.144Zm22.375,4.287H37.526V116.42h20.24Z" transform="translate(0 0)"/></g></g></g></svg>