<svg xmlns="http://www.w3.org/2000/svg" xmlns:xlink="http://www.w3.org/1999/xlink" width="148" height="149" viewBox="0 0 148 149"><defs><filter id="a" x="0" y="0" width="148" height="149" filterUnits="userSpaceOnUse"><feOffset dy="3" input="SourceAlpha"/><feGaussianBlur stdDeviation="3" result="b"/><feFlood flood-opacity="0.161"/><feComposite operator="in" in2="b"/><feComposite in="SourceGraphic"/></filter></defs><g transform="translate(-708 -8655)"><g transform="matrix(1, 0, 0, 1, 708, 8655)" filter="url(#a)"><ellipse cx="65" cy="65.5" rx="65" ry="65.5" transform="translate(9 6)" fill="#fff"/></g><g transform="translate(739.104 8680.022)"><path d="M100.488,38.979V98.3H40V38.979L70.244,32Z" transform="translate(-27.348 -20.511)" fill="#0093b9"/><path d="M104,168h41.876v46.529H104Z" transform="translate(-82.042 -136.736)" fill="#e3e4e2"/><path d="M100.488,38.979v5.041l-30.244-7.3L40,44.021V38.979L70.244,32Z" transform="translate(-27.348 -20.511)" fill="#0884a9"/><rect width="9.519" height="4.759" rx="2.38" transform="translate(47.649 25.545) rotate(180)" fill="#57c3c1"/><path d="M83.467,24.143,49.734,16,16,24.143V28.8l33.734-8.143L83.467,28.8Z" transform="translate(-6.838 -6.837)" fill="#e3e4e2"/><path d="M104,168h41.876v19.775H104Z" transform="translate(-82.042 -136.736)" fill="#c9c9c8"/><path d="M57.876,269.223V250.612H36.938V232H16v37.223Z" transform="translate(-6.838 -191.43)" fill="#f8bc1e"/><path d="M208,360h6.979v6.979H208Z" transform="translate(-170.92 -300.818)" fill="#f9da62"/><path d="M187.775,368H186.03a1.745,1.745,0,0,0-1.745,1.745V372.7a9.262,9.262,0,0,1-9.261,9.261h-5.28A1.745,1.745,0,0,0,168,383.7v1.745h19.775Z" transform="translate(-136.736 -307.655)" fill="#f5a922"/><path d="M64,360h6.979v6.979H64Z" transform="translate(-47.858 -300.818)" fill="#f9da62"/><path d="M43.775,368H42.03a1.745,1.745,0,0,0-1.745,1.745V372.7a9.262,9.262,0,0,1-9.261,9.261h-5.28A1.745,1.745,0,0,0,24,383.7v1.745H43.775Z" transform="translate(-13.674 -307.655)" fill="#f5a922"/><path d="M64,232h6.979v6.979H64Z" transform="translate(-47.858 -191.43)" fill="#f9da62"/><path d="M43.775,240H42.03a1.745,1.745,0,0,0-1.745,1.745V244.7a9.262,9.262,0,0,1-9.261,9.262h-5.28A1.745,1.745,0,0,0,24,255.7v1.745H43.775Z" transform="translate(-13.674 -198.267)" fill="#f5a922"/><path d="M120,448h2.326v2.326H120Z" transform="translate(-95.716 -376.023)"/><path d="M51.039,242.612H31.265V225.163A1.163,1.163,0,0,0,30.1,224H9.163A1.163,1.163,0,0,0,8,225.163v37.223a1.163,1.163,0,0,0,1.163,1.163H51.039a1.163,1.163,0,0,0,1.163-1.163V243.775A1.163,1.163,0,0,0,51.039,242.612Zm-12.8,2.326H42.9v4.653H38.244ZM17.306,226.326h4.653v4.653H17.306Zm-6.979,0h4.653v5.816a1.163,1.163,0,0,0,1.163,1.163h6.979a1.163,1.163,0,0,0,1.163-1.163v-5.816h4.653v16.285H10.326Zm6.979,18.612h4.653v4.653H17.306Zm-6.979,0h4.653v5.816a1.163,1.163,0,0,0,1.163,1.163h6.979a1.163,1.163,0,0,0,1.163-1.163v-5.816h4.653v16.285H10.326Zm39.55,16.285H31.265V244.938h4.653v5.816a1.163,1.163,0,0,0,1.163,1.163H44.06a1.163,1.163,0,0,0,1.163-1.163v-5.816h4.653Z" transform="translate(-0.001 -184.593)"/><path d="M264,448h2.326v2.326H264Z" transform="translate(-218.778 -376.023)"/><path d="M120,320h2.326v2.326H120Z" transform="translate(-95.716 -266.634)"/><path d="M76.357,23.089a1.155,1.155,0,0,0,.273.033,1.167,1.167,0,0,0,1.007-.579,1.2,1.2,0,0,0,.156-.611V17.306a1.163,1.163,0,0,0-.89-1.131L43.169,8.032a1.158,1.158,0,0,0-.546,0L8.889,16.175A1.163,1.163,0,0,0,8,17.306v4.62a1.21,1.21,0,0,0,.2.686,1.165,1.165,0,0,0,1.236.478l2.054-.5V37.081h2.326V22.032L42.9,15.012l29.081,7.02v54.6H65V31.264A1.163,1.163,0,0,0,63.834,30.1H21.958a1.163,1.163,0,0,0-1.163,1.163v4.653a1.163,1.163,0,0,0,1.163,1.163H62.671v2.326H33.59v2.326H62.671V44.06H33.59v2.326H62.671v2.326H33.59v2.326H62.671V76.63H54.528v2.326H77.793V76.63H74.3V22.594ZM23.121,34.754V32.428h39.55v2.326ZM42.9,12.653a1.155,1.155,0,0,0-.273.033l-32.3,7.8V18.222L42.9,10.36l32.57,7.862v2.26l-32.3-7.8A1.155,1.155,0,0,0,42.9,12.653Z" transform="translate(0 0)"/><path d="M216.143,94.979a3.49,3.49,0,1,0,0-6.979H211.49a3.49,3.49,0,1,0,0,6.979Zm-5.816-3.49a1.165,1.165,0,0,1,1.163-1.163h4.653a1.163,1.163,0,1,1,0,2.326H211.49A1.165,1.165,0,0,1,210.326,91.49Z" transform="translate(-170.92 -68.368)"/></g></g></svg>