<svg xmlns="http://www.w3.org/2000/svg" xmlns:xlink="http://www.w3.org/1999/xlink" width="567.813" height="279.08" viewBox="0 0 567.813 279.08"><defs><clipPath id="a"><rect width="567.813" height="279.08" fill="none"/></clipPath><clipPath id="c"><rect width="3.563" height="3.688" fill="none"/></clipPath><clipPath id="d"><rect width="16.679" height="4.246" fill="none"/></clipPath><clipPath id="e"><rect width="3.672" height="2.956" fill="none"/></clipPath><clipPath id="f"><rect width="17.126" height="1.706" fill="none"/></clipPath><clipPath id="g"><rect width="1.388" height="10.341" fill="none"/></clipPath><clipPath id="h"><rect width="5.545" height="7.072" fill="none"/></clipPath></defs><g transform="translate(-222.188 -921.987)"><g transform="translate(222.188 921.987)"><g clip-path="url(#a)"><g clip-path="url(#a)"><path d="M346.182,37.228c-.195.354.139,32.2.139,32.2l2.594.029.873-32.222Z" transform="translate(-133.397 -14.348)" fill="#a9bee9"/><path d="M347.1,82.586l-2.988.156.027,4.509-3.385,1.769.022,2.964,2.211,3.06.094-4.264,2.761-1.444,2.36,1.232-.144,4.6,2.443-2.988-.136-2.74L347.231,87.1Z" transform="translate(-131.33 -31.829)" fill="#a9bee9"/><path d="M300.729,35.245,272.5,69.3a5.085,5.085,0,0,1-7.16.669l-3.693-3.061a5.084,5.084,0,0,1-.669-7.16l28.233-34.057a5.084,5.084,0,0,1,7.16-.669l3.693,3.061a5.085,5.085,0,0,1,.669,7.16" transform="translate(-100.129 -9.193)" fill="#a9bee9"/><path d="M333.135,39.237h-25.41a3.191,3.191,0,0,1-3.191-3.192v-3.01a3.191,3.191,0,0,1,3.191-3.192h25.41a3.192,3.192,0,0,1,3.192,3.192v3.01a3.192,3.192,0,0,1-3.192,3.192" transform="translate(-117.369 -11.502)" fill="#a9bee9"/><path d="M272.691,139.207h-6.738a7.143,7.143,0,0,1-7.143-7.143V80.193a7.143,7.143,0,0,1,7.143-7.143h6.738a7.143,7.143,0,0,1,7.143,7.143v51.871a7.144,7.144,0,0,1-7.143,7.143" transform="translate(-99.747 -28.154)" fill="#a9bee9"/><path d="M278.2,161.105a5.183,5.183,0,1,1-5.182-5.182,5.182,5.182,0,0,1,5.182,5.182" transform="translate(-103.223 -60.094)" fill="#e0e0e0"/><path d="M277.846,84.57a5.183,5.183,0,1,1-5.182-5.182,5.182,5.182,0,0,1,5.182,5.182" transform="translate(-103.089 -30.597)" fill="#e0e0e0"/><path d="M313.481,33.291a3.144,3.144,0,1,1-4.446,0,3.143,3.143,0,0,1,4.446,0" transform="translate(-118.749 -12.476)" fill="#e0e0e0"/><path d="M349.579,34.637a2.136,2.136,0,1,1-3.021,0,2.136,2.136,0,0,1,3.021,0" transform="translate(-133.324 -13.108)" fill="#e0e0e0"/><path d="M640.688,14.594c.213.411-1.057,23.836-1.057,23.836l-2.97-.045-.1-23.9Z" transform="translate(-245.334 -5.585)" fill="#a9bee9"/><path d="M628.908,32.988l7.036.554L635.6,44.173l7.871,4.382-.234,6.988-5.4,7.078.044-10.062-6.422-3.575-5.643,2.757.055,10.854-5.575-7.2.492-6.454,7.543-5.307Z" transform="translate(-239.064 -12.714)" fill="#a9bee9"/><path d="M664.667,13.046l32.333,39a5.824,5.824,0,0,0,8.2.767l4.229-3.506a5.824,5.824,0,0,0,.766-8.2l-32.333-39a5.823,5.823,0,0,0-8.2-.766l-4.229,3.506a5.824,5.824,0,0,0-.766,8.2" transform="translate(-255.649 0)" fill="#a9bee9"/><path d="M634.955,17.618h29.1a3.654,3.654,0,0,0,3.655-3.655V10.516a3.655,3.655,0,0,0-3.655-3.655h-29.1a3.655,3.655,0,0,0-3.655,3.655v3.447a3.655,3.655,0,0,0,3.655,3.655" transform="translate(-243.306 -2.644)" fill="#a9bee9"/><path d="M711.907,132.1h7.717a8.18,8.18,0,0,0,8.18-8.18V64.52a8.18,8.18,0,0,0-8.18-8.18h-7.717a8.18,8.18,0,0,0-8.18,8.18v59.4a8.18,8.18,0,0,0,8.18,8.18" transform="translate(-271.22 -21.714)" fill="#a9bee9"/><path d="M713.258,157.181a5.935,5.935,0,1,0,5.935-5.935,5.935,5.935,0,0,0-5.935,5.935" transform="translate(-274.893 -58.291)" fill="#e0e0e0"/><path d="M713.659,69.533a5.935,5.935,0,1,0,5.934-5.935,5.935,5.935,0,0,0-5.934,5.935" transform="translate(-275.048 -24.511)" fill="#e0e0e0"/><path d="M675.778,10.809a3.6,3.6,0,1,0,5.092,0,3.6,3.6,0,0,0-5.092,0" transform="translate(-260.042 -3.759)" fill="#e0e0e0"/><path d="M635.886,12.349a2.446,2.446,0,1,0,3.46,0,2.447,2.447,0,0,0-3.46,0" transform="translate(-244.798 -4.483)" fill="#e0e0e0"/><path d="M195.938,169.468h368.68a7.266,7.266,0,0,0,7.266-7.266v-6.855a7.267,7.267,0,0,0-7.266-7.266H195.938a7.266,7.266,0,0,0-7.266,7.266V162.2a7.266,7.266,0,0,0,7.266,7.266" transform="translate(-72.715 -57.071)" fill="#a9bee9"/><path d="M269.957,163.183a5.315,5.315,0,1,0,5.315-5.315,5.315,5.315,0,0,0-5.315,5.315" transform="translate(-104.043 -60.843)" fill="#e0e0e0"/><path d="M199,161.815a5.315,5.315,0,1,0,5.315-5.315A5.315,5.315,0,0,0,199,161.815" transform="translate(-76.696 -60.316)" fill="#e0e0e0"/><path d="M348.688,163.183A5.315,5.315,0,1,0,354,157.868a5.315,5.315,0,0,0-5.315,5.315" transform="translate(-134.386 -60.843)" fill="#e0e0e0"/><path d="M427.419,163.183a5.315,5.315,0,1,0,5.315-5.315,5.315,5.315,0,0,0-5.315,5.315" transform="translate(-164.73 -60.843)" fill="#e0e0e0"/><path d="M506.15,163.183a5.315,5.315,0,1,0,5.315-5.315,5.315,5.315,0,0,0-5.315,5.315" transform="translate(-195.073 -60.843)" fill="#e0e0e0"/><path d="M584.881,163.183a5.315,5.315,0,1,0,5.315-5.315,5.315,5.315,0,0,0-5.315,5.315" transform="translate(-225.416 -60.843)" fill="#e0e0e0"/><path d="M663.613,163.183a5.315,5.315,0,1,0,5.315-5.315,5.315,5.315,0,0,0-5.315,5.315" transform="translate(-255.76 -60.843)" fill="#e0e0e0"/><path d="M770.956,163.183a5.315,5.315,0,1,0,5.315-5.315,5.315,5.315,0,0,0-5.315,5.315" transform="translate(-297.13 -60.843)" fill="#e0e0e0"/><rect width="60.657" height="82.595" transform="translate(413.168 112.397)" fill="#a9bee9"/><rect width="60.657" height="50.504" transform="translate(144.644 146.011)" fill="#a9bee9"/><path d="M224.651,218.958a6.735,6.735,0,0,0,.88,1.643,4.406,4.406,0,0,0,1.031,1.083,19.272,19.272,0,0,0,1.875,1.235s18.006.977,21.025.54,11.189-10.235,11.189-10.235l6.636,7.512a55.6,55.6,0,0,1-13.628,11.506c-5.113,2.954-27.471-2.351-27.49-2.356a54.763,54.763,0,0,1-5.884.163c-2.746-.188-2.733-.434-2.656-.75.205-.849,4.843.147,3.97-.645s-5.814-.559-5.563-1.437c.327-1.145,5.163-.013,5.579.053s.525-.534.147-.573c-.545-.056-6.254-.787-5.944-1.914.172-.626,1.266-.212,1.266-.212s5.291,1.077,5.419.54-2.954-1.283-4.012-1.457-1.388-.741-.927-1.14c.314-.272,3.567.187,4.609.385s3.891.79,2.724-.644-1.522-2.977-1.329-3.461a.579.579,0,0,1,1.082.165" transform="translate(-83.173 -82.178)" fill="#ffc09d"/><path d="M309.448,153.966c-1.114-.276-.935-3.343-1.05-4.282a3.079,3.079,0,0,1,.111-1.7,2.33,2.33,0,0,1,1.824-1.133c.737-.111,1.492-.039,2.23-.146,1.485-.214,2.81-1.135,4.3-1.267a4.245,4.245,0,0,1,3.338,1.219,4.18,4.18,0,0,0,3.393,2.1,4.252,4.252,0,0,1,2.932,3.476,12.1,12.1,0,0,1-.206,2.838,4.323,4.323,0,0,0,.4,2.771c.517.841,1.488,1.336,1.965,2.2a2.366,2.366,0,0,1-2.407,3.486c-.277-.04-.594-.119-.81.06a1.1,1.1,0,0,0-.254.663,1.8,1.8,0,0,1-3.533-.642" transform="translate(-118.834 -56.047)" fill="#263238"/><path d="M322.475,175.253l-9.767-.78c-.061-1.14.021-5.552.021-5.552s-4.064-.632-4.113-4.694.654-13.393.654-13.393a14.121,14.121,0,0,1,14.189,1.784l.6.463Z" transform="translate(-118.941 -57.69)" fill="#ffc09d"/><path d="M310.978,162.292a.59.59,0,1,0-.833-.041.59.59,0,0,0,.833.041" transform="translate(-119.473 -62.152)" fill="#263238"/><path d="M309.6,161.044c.064.07.463-.237,1.022-.24s.966.286,1.028.215c.03-.032-.033-.159-.21-.294a1.38,1.38,0,0,0-1.636.02c-.174.139-.234.267-.2.3" transform="translate(-119.317 -61.845)" fill="#263238"/><path d="M319.882,162.312a.59.59,0,1,0,.812.194.59.59,0,0,0-.812-.194" transform="translate(-123.176 -62.522)" fill="#263238"/><path d="M319.484,161.846c.064.071.463-.237,1.022-.239s.966.286,1.028.214c.03-.032-.033-.159-.21-.294a1.38,1.38,0,0,0-1.636.02c-.174.139-.234.267-.2.3" transform="translate(-123.128 -62.154)" fill="#263238"/><path d="M314.927,166.668a2.726,2.726,0,0,0-.9-.192c-.147-.016-.261-.049-.272-.128a.8.8,0,0,1,.105-.419l.443-1.137a15.541,15.541,0,0,0,.958-2.989A15.6,15.6,0,0,0,314,164.68l-.419,1.146a.935.935,0,0,0-.08.608.384.384,0,0,0,.253.234.924.924,0,0,0,.25.033,2.725,2.725,0,0,0,.924-.033" transform="translate(-120.814 -62.36)" fill="#263238"/><path d="M315.293,179.944a9.449,9.449,0,0,0,5.3-1.505s-1.253,2.924-5.306,2.558Z" transform="translate(-121.512 -68.771)" fill="#ff9b6c"/><path d="M332.729,162.99c.067-.031,2.335-.5,2.32,2.222s-2.758,1.805-2.763,1.727.443-3.949.443-3.949" transform="translate(-128.065 -62.798)" fill="#ffc09d"/><path d="M333.649,166.553c.012-.009.047.034.127.071a.473.473,0,0,0,.354.009,1.172,1.172,0,0,0,.549-1.049,1.558,1.558,0,0,0-.128-.679.549.549,0,0,0-.355-.366.242.242,0,0,0-.281.128c-.037.076-.02.13-.034.135s-.058-.045-.035-.158a.3.3,0,0,1,.108-.17.361.361,0,0,1,.263-.068.667.667,0,0,1,.492.425,1.612,1.612,0,0,1,.16.76,1.232,1.232,0,0,1-.7,1.171.507.507,0,0,1-.433-.075c-.084-.068-.1-.128-.089-.133" transform="translate(-128.589 -63.362)" fill="#ff9b6c"/><path d="M309.292,149.841a4.845,4.845,0,0,0,4.121,2.235,15.8,15.8,0,0,0,4.81-.849c.854-.237,1.895-.417,2.521.21a2.376,2.376,0,0,1,.538,1.422,15.359,15.359,0,0,1,.048,3.435,3.933,3.933,0,0,0,0,1.371,1.149,1.149,0,0,0,.922.905c.717.06,1.562-1.092,1.8-1.769a9.9,9.9,0,0,0,.387-2.535,4.483,4.483,0,0,0-.522-2.887,5.952,5.952,0,0,0-2.633-2.036,15.484,15.484,0,0,0-6.5-1.707,8.6,8.6,0,0,0-6.171,2.34" transform="translate(-118.943 -56.9)" fill="#263238"/><path d="M374.094,437.042l-1.245-5.279,9.873-2.4,1.9,7.7-.6.188c-2.688.812-13.723,3.94-15.678,3.83-2.181-.123,5.75-4.047,5.75-4.047" transform="translate(-141.815 -165.481)" fill="#ff4f5b"/><g transform="translate(239.203 268.693)" opacity="0.4"><g clip-path="url(#c)"><path d="M389.213,440.876a3.522,3.522,0,0,1,.749-2.41,3.421,3.421,0,0,1,2.134-1.278l.671,2.759Z" transform="translate(-389.204 -437.188)"/></g></g><g transform="translate(226.131 271.374)" opacity="0.4"><g clip-path="url(#d)"><path d="M370.243,443.8s-2.734,1.561-2.25,1.957,11.755-2.347,16.621-3.991l-.069-.217-13.12,3.31s-.6-1.174-1.182-1.059" transform="translate(-367.935 -441.549)"/></g></g><path d="M384.707,441.477a.915.915,0,0,1-.165.06l-.48.148-1.776.514c-1.5.423-3.585.98-5.9,1.544s-4.42,1.03-5.948,1.346l-1.812.362-.495.09a.956.956,0,0,1-.174.023.927.927,0,0,1,.169-.047l.49-.112,1.8-.4c1.522-.338,3.624-.817,5.937-1.38s4.4-1.108,5.905-1.509l1.785-.476.487-.126a.955.955,0,0,1,.172-.036" transform="translate(-141.813 -170.147)" fill="#263238"/><path d="M372.849,446.356a2.68,2.68,0,0,0-1.322-1.313,1.641,1.641,0,0,1,1.322,1.313" transform="translate(-143.188 -171.52)" fill="#263238"/><path d="M377.379,443.189c-.023.025-.2-.111-.4-.3s-.342-.368-.318-.391.2.111.4.3.341.367.318.392" transform="translate(-145.165 -170.538)" fill="#263238"/><path d="M378.495,442.364c-.016.03-.2-.036-.4-.148s-.362-.226-.346-.256.2.036.4.148.362.226.346.256" transform="translate(-145.584 -170.331)" fill="#263238"/><path d="M378.774,440.9a2.311,2.311,0,1,1-.53.071,1.191,1.191,0,0,1,.53-.071" transform="translate(-145.585 -169.919)" fill="#263238"/><path d="M378.723,439.765a1.5,1.5,0,0,1-1.147.372,46.851,46.851,0,0,0,1.147-.372" transform="translate(-145.52 -169.486)" fill="#263238"/><path d="M375.691,441.972a1.9,1.9,0,0,1-.635.151,3.839,3.839,0,0,1-.712.015,1.918,1.918,0,0,1-.425-.066.352.352,0,0,1-.2-.159.257.257,0,0,1,.034-.277,1.2,1.2,0,0,1,1.521-.009,1.174,1.174,0,0,1,.31.372c.052.1.065.165.058.168a1.824,1.824,0,0,0-.42-.471,1.176,1.176,0,0,0-.628-.221,1.014,1.014,0,0,0-.744.235c-.082.1-.015.208.114.248a2.007,2.007,0,0,0,.394.066,4.547,4.547,0,0,0,.694.011c.4-.025.638-.084.643-.064" transform="translate(-144.021 -170.101)" fill="#263238"/><path d="M376.574,441.607a.644.644,0,0,1-.18-.423,1.062,1.062,0,0,1,.06-.505c.078-.168.175-.4.449-.452a.259.259,0,0,1,.267.245.706.706,0,0,1-.039.31,1.983,1.983,0,0,1-.206.457.938.938,0,0,1-.3.345c-.015-.013.1-.144.224-.388a2.3,2.3,0,0,0,.173-.446c.054-.155.055-.41-.111-.4s-.286.221-.353.371a1.079,1.079,0,0,0-.079.456,2.35,2.35,0,0,0,.093.43" transform="translate(-145.061 -169.665)" fill="#263238"/><path d="M392,437.159c0,.023-.289.042-.723.2a3.184,3.184,0,0,0-2.084,2.69c-.048.46.007.747-.016.75a.6.6,0,0,1-.049-.2,2.658,2.658,0,0,1-.022-.559,3.086,3.086,0,0,1,2.142-2.765,2.67,2.67,0,0,1,.546-.118.6.6,0,0,1,.2,0" transform="translate(-149.96 -168.481)" fill="#263238"/><path d="M390.52,430.884a35.228,35.228,0,0,1,1.038,4.045,17.838,17.838,0,0,1-.578-2.007,17.624,17.624,0,0,1-.46-2.037" transform="translate(-150.507 -166.065)" fill="#263238"/><path d="M385.01,442.113a8.339,8.339,0,0,1-2.878.729c0-.036.649-.152,1.442-.355s1.424-.408,1.436-.374" transform="translate(-147.276 -170.391)" fill="#263238"/><path d="M389.848,441.343c.03.018-.02.149-.049.313s-.034.3-.069.31-.088-.144-.052-.332.143-.31.17-.291" transform="translate(-150.179 -170.095)" fill="#263238"/><path d="M390.608,439.578c.03.018-.01.136-.087.264s-.163.218-.192.2.009-.135.086-.264.163-.218.192-.2" transform="translate(-150.431 -169.415)" fill="#263238"/><path d="M392,438.474c0,.035-.13.066-.262.152s-.219.189-.25.173.018-.173.184-.277.331-.082.329-.049" transform="translate(-150.876 -168.979)" fill="#263238"/><path d="M393.283,437.871c.02.028-.025.092-.1.144s-.15.071-.17.044.025-.093.1-.144.15-.071.17-.043" transform="translate(-151.468 -168.753)" fill="#263238"/><path d="M304.866,439.539l-.031-5.424,10.159-.123.129,7.934-.629.048c-2.8.189-14.257.766-16.137.221-2.1-.608,6.51-2.657,6.51-2.657" transform="translate(-114.861 -167.263)" fill="#ff4f5b"/><g transform="translate(196.578 271.672)" opacity="0.4"><g clip-path="url(#e)"><path d="M319.85,444.991a3.527,3.527,0,0,1,1.27-2.182,3.426,3.426,0,0,1,2.366-.767l.037,2.839Z" transform="translate(-319.85 -442.035)"/></g></g><g transform="translate(183.136 273.427)" opacity="0.4"><g clip-path="url(#f)"><path d="M300.644,444.89s-3.015.91-2.631,1.4,11.982.346,17.092-.167l-.019-.227-13.528.287s-.323-1.28-.915-1.3" transform="translate(-297.979 -444.89)"/></g></g><path d="M315.263,446.516a.9.9,0,0,1-.175.021l-.5.037-1.846.1c-1.559.076-3.713.152-6.094.184s-4.539.014-6.1-.02l-1.847-.053-.5-.023a.929.929,0,0,1-.175-.017.964.964,0,0,1,.175-.009h.5l1.848.014c1.56.012,3.715.016,6.1-.015s4.534-.1,6.092-.149l1.847-.064.5-.014a.916.916,0,0,1,.176,0" transform="translate(-114.86 -172.088)" fill="#263238"/><path d="M303.187,446.267a2.681,2.681,0,0,0-.994-1.576,1.641,1.641,0,0,1,.994,1.576" transform="translate(-116.466 -171.385)" fill="#263238"/><path d="M308.31,444.194c-.028.018-.174-.154-.325-.386s-.251-.434-.222-.453.175.154.326.386.25.435.222.453" transform="translate(-118.611 -170.871)" fill="#263238"/><path d="M309.582,443.642c-.023.026-.184-.079-.361-.234s-.3-.3-.28-.327.184.079.361.234.3.3.28.327" transform="translate(-119.067 -170.764)" fill="#263238"/><path d="M310.146,442.394a2.333,2.333,0,1,1-.532-.049,1.2,1.2,0,0,1,.532.049" transform="translate(-119.123 -170.482)" fill="#263238"/><path d="M310.335,441.316a1.038,1.038,0,0,1-.59.18,1.027,1.027,0,0,1-.611-.074,42.706,42.706,0,0,0,1.2-.106" transform="translate(-119.142 -170.082)" fill="#263238"/><path d="M306.872,442.723a1.879,1.879,0,0,1-.653,0,3.816,3.816,0,0,1-.7-.144,1.908,1.908,0,0,1-.4-.159.349.349,0,0,1-.164-.2.257.257,0,0,1,.1-.262,1.2,1.2,0,0,1,1.485.331,1.163,1.163,0,0,1,.218.433.356.356,0,0,1,.019.176,1.84,1.84,0,0,0-.3-.553,1.181,1.181,0,0,0-.562-.355,1.013,1.013,0,0,0-.777.063c-.1.078-.061.2.055.267a1.985,1.985,0,0,0,.369.152,4.571,4.571,0,0,0,.674.167c.392.064.641.061.641.082" transform="translate(-117.529 -170.282)" fill="#263238"/><path d="M307.749,442.545a.644.644,0,0,1-.081-.452,1.071,1.071,0,0,1,.172-.479.655.655,0,0,1,.54-.339.259.259,0,0,1,.2.3.715.715,0,0,1-.107.293,2,2,0,0,1-.3.4.946.946,0,0,1-.37.269c-.012-.016.128-.119.306-.328a2.275,2.275,0,0,0,.268-.4c.088-.139.146-.387-.018-.415s-.328.151-.427.282a1.074,1.074,0,0,0-.179.427,2.394,2.394,0,0,0,0,.44" transform="translate(-118.575 -170.069)" fill="#263238"/><path d="M323.436,441.962c0,.023-.291-.024-.75.036a3.183,3.183,0,0,0-2.634,2.154c-.15.438-.161.731-.184.728a.583.583,0,0,1,0-.2,2.68,2.68,0,0,1,.1-.549,3.086,3.086,0,0,1,2.707-2.214,2.684,2.684,0,0,1,.559.007.586.586,0,0,1,.2.044" transform="translate(-123.276 -170.311)" fill="#263238"/><path d="M323.86,435.145a17.992,17.992,0,0,1,.114,2.085,17.592,17.592,0,0,1-.009,2.089,17.9,17.9,0,0,1-.114-2.086,17.64,17.64,0,0,1,.009-2.088" transform="translate(-124.806 -167.707)" fill="#263238"/><path d="M315.888,445.253a8.35,8.35,0,0,1-2.969.066c0-.036.667,0,1.485-.023s1.479-.079,1.484-.043" transform="translate(-120.601 -171.599)" fill="#263238"/><path d="M320.811,445.212c.025.025-.052.141-.118.294s-.1.288-.136.287-.054-.16.023-.336.209-.269.231-.245" transform="translate(-123.533 -171.585)" fill="#263238"/><path d="M321.951,443.676c.025.023-.039.13-.143.238s-.208.176-.232.153.039-.13.143-.238.208-.176.232-.152" transform="translate(-123.935 -170.993)" fill="#263238"/><path d="M323.567,442.927c-.007.034-.142.035-.29.09s-.255.135-.282.112.056-.164.241-.229.341,0,.331.026" transform="translate(-124.482 -170.685)" fill="#263238"/><path d="M324.977,442.6c.013.031-.045.084-.129.118s-.162.036-.175,0,.045-.085.128-.119.162-.035.175,0" transform="translate(-125.13 -170.574)" fill="#263238"/><path d="M297.885,267.761l4.742,105.374,15.82.332-2.627-88.218,28.667,89.27,12.93-3.539-28.85-103.219" transform="translate(-114.806 -103.197)" fill="#263238"/><path d="M392.134,431.7c.081-.024.2.146.274.38s.061.443-.02.468-.2-.146-.275-.38-.061-.443.02-.468" transform="translate(-151.104 -166.379)" fill="#455a64"/><path d="M390.482,426.135c.081-.025.262.339.4.811s.191.875.109.9-.262-.339-.4-.811-.191-.875-.109-.9" transform="translate(-150.479 -164.234)" fill="#455a64"/><path d="M388.812,420.567c.081-.025.262.339.4.811s.191.875.109.9-.262-.339-.4-.811-.191-.875-.109-.9" transform="translate(-149.835 -162.088)" fill="#455a64"/><path d="M387.143,415c.081-.025.262.339.4.811s.19.875.109.9-.262-.339-.4-.811-.191-.875-.109-.9" transform="translate(-149.192 -159.943)" fill="#455a64"/><path d="M385.473,409.433c.081-.025.262.339.4.811s.191.875.109.9-.262-.339-.4-.811-.19-.875-.109-.9" transform="translate(-148.548 -157.797)" fill="#455a64"/><path d="M383.8,403.866c.081-.025.262.339.4.811s.191.875.109.9-.262-.339-.4-.811-.19-.875-.109-.9" transform="translate(-147.905 -155.652)" fill="#455a64"/><path d="M382.134,398.3c.081-.025.262.339.4.811s.191.875.109.9-.262-.339-.4-.811-.191-.875-.109-.9" transform="translate(-147.262 -153.506)" fill="#455a64"/><path d="M380.465,392.732c.081-.025.262.339.4.811s.191.875.109.9-.262-.339-.4-.811-.191-.875-.109-.9" transform="translate(-146.618 -151.361)" fill="#455a64"/><path d="M378.8,387.164c.081-.025.262.339.4.811s.191.875.109.9-.262-.339-.4-.811-.191-.875-.109-.9" transform="translate(-145.975 -149.215)" fill="#455a64"/><path d="M377.126,381.6c.081-.025.262.339.4.811s.191.875.109.9-.262-.339-.4-.811-.191-.875-.109-.9" transform="translate(-145.331 -147.069)" fill="#455a64"/><path d="M375.456,376.03c.081-.025.262.339.4.811s.191.875.109.9-.262-.339-.4-.811-.191-.875-.109-.9" transform="translate(-144.688 -144.924)" fill="#455a64"/><path d="M373.786,370.463c.081-.025.262.339.4.811s.191.875.109.9-.262-.339-.4-.811-.191-.875-.109-.9" transform="translate(-144.044 -142.778)" fill="#455a64"/><path d="M372.117,364.9c.081-.025.262.339.4.811s.191.875.109.9-.262-.339-.4-.811-.191-.876-.109-.9" transform="translate(-143.401 -140.632)" fill="#455a64"/><path d="M370.448,359.328c.081-.025.262.339.4.811s.191.875.109.9-.262-.339-.4-.812-.19-.875-.109-.9" transform="translate(-142.758 -138.486)" fill="#455a64"/><path d="M368.778,353.761c.081-.025.262.339.4.811s.191.875.109.9-.262-.339-.4-.811-.191-.875-.109-.9" transform="translate(-142.114 -136.341)" fill="#455a64"/><path d="M367.109,348.194c.081-.025.262.339.4.811s.191.875.109.9-.262-.339-.4-.811-.19-.875-.109-.9" transform="translate(-141.471 -134.195)" fill="#455a64"/><path d="M365.439,342.627c.081-.025.262.339.4.811s.191.875.109.9-.262-.339-.4-.811-.191-.875-.109-.9" transform="translate(-140.827 -132.05)" fill="#455a64"/><path d="M363.769,337.06c.081-.025.262.339.4.811s.191.875.109.9-.262-.339-.4-.811-.19-.875-.109-.9" transform="translate(-140.183 -129.904)" fill="#455a64"/><path d="M362.1,331.492c.081-.025.262.339.4.811s.19.875.109.9-.262-.339-.4-.811-.191-.875-.109-.9" transform="translate(-139.54 -127.758)" fill="#455a64"/><path d="M360.431,325.925c.081-.025.262.339.4.811s.191.875.109.9-.261-.339-.4-.811-.191-.875-.109-.9" transform="translate(-138.897 -125.613)" fill="#455a64"/><path d="M358.761,320.358c.081-.025.262.339.4.811s.19.875.109.9-.262-.339-.4-.811-.191-.875-.109-.9" transform="translate(-138.253 -123.467)" fill="#455a64"/><path d="M357.091,314.791c.081-.025.262.339.4.811s.19.875.109.9-.262-.339-.4-.811-.191-.875-.109-.9" transform="translate(-137.61 -121.322)" fill="#455a64"/><path d="M355.422,309.224c.081-.025.262.339.4.811s.191.875.109.9-.262-.339-.4-.811-.19-.875-.109-.9" transform="translate(-136.967 -119.176)" fill="#455a64"/><path d="M353.752,303.657c.081-.025.262.339.4.811s.191.875.109.9-.262-.339-.4-.811-.19-.875-.109-.9" transform="translate(-136.323 -117.031)" fill="#455a64"/><path d="M352.083,298.089c.081-.025.262.339.4.811s.19.875.109.9-.262-.339-.4-.811-.191-.875-.109-.9" transform="translate(-135.68 -114.885)" fill="#455a64"/><path d="M350.413,292.522c.081-.025.262.339.4.811s.191.875.109.9-.262-.339-.4-.811-.191-.875-.109-.9" transform="translate(-135.036 -112.739)" fill="#455a64"/><path d="M348.744,286.955c.081-.025.262.339.4.811s.191.875.109.9-.262-.339-.4-.811-.191-.875-.109-.9" transform="translate(-134.393 -110.594)" fill="#455a64"/><path d="M347.075,281.388c.081-.025.262.339.4.811s.191.875.109.9-.262-.339-.4-.811-.191-.875-.109-.9" transform="translate(-133.75 -108.448)" fill="#455a64"/><path d="M345.405,275.821c.081-.025.262.339.4.811s.191.875.109.9-.262-.339-.4-.811-.191-.875-.109-.9" transform="translate(-133.106 -106.303)" fill="#455a64"/><path d="M344.14,271.658c.081-.025.2.146.274.38s.061.443-.02.468-.2-.146-.275-.38-.061-.443.02-.468" transform="translate(-132.607 -104.697)" fill="#455a64"/><path d="M326.819,438.353c.085,0,.163.19.176.434s-.046.445-.131.449-.164-.189-.176-.434.045-.445.13-.449" transform="translate(-125.907 -168.943)" fill="#455a64"/><path d="M326.589,432.641c.085,0,.168.387.187.872s-.036.879-.12.883-.168-.387-.186-.872.035-.88.12-.883" transform="translate(-125.821 -166.742)" fill="#455a64"/><path d="M326.408,426.928c.085,0,.165.388.179.873s-.043.88-.128.883-.165-.388-.179-.874.043-.879.128-.882" transform="translate(-125.749 -164.54)" fill="#455a64"/><path d="M326.26,421.213c.085,0,.164.39.175.875s-.047.879-.132.882-.163-.39-.175-.875.047-.879.132-.882" transform="translate(-125.691 -162.338)" fill="#455a64"/><path d="M326.124,415.5c.085,0,.163.39.175.875s-.048.88-.133.883-.163-.39-.175-.875.048-.88.133-.882" transform="translate(-125.638 -160.134)" fill="#455a64"/><path d="M325.978,409.777c.085,0,.164.389.178.875s-.046.881-.13.883-.164-.389-.177-.875.045-.88.13-.883" transform="translate(-125.583 -157.93)" fill="#455a64"/><path d="M325.792,404.061c.085,0,.168.387.185.873s-.037.881-.122.884-.168-.388-.185-.873.037-.88.122-.884" transform="translate(-125.514 -155.727)" fill="#455a64"/><path d="M325.555,398.349c.085,0,.17.387.191.871s-.032.881-.117.884-.17-.387-.191-.871.032-.881.117-.884" transform="translate(-125.424 -153.526)" fill="#455a64"/><path d="M325.331,392.636c.085,0,.168.387.187.872s-.035.88-.12.883-.168-.387-.187-.871.035-.881.12-.884" transform="translate(-125.336 -151.324)" fill="#455a64"/><path d="M325.129,386.923c.085,0,.167.388.183.873s-.039.88-.124.883-.167-.388-.184-.873.039-.88.124-.883" transform="translate(-125.258 -149.122)" fill="#455a64"/><path d="M324.953,381.2c.085,0,.165.388.179.873s-.043.88-.128.883-.165-.388-.179-.873.043-.88.128-.883" transform="translate(-125.188 -146.918)" fill="#455a64"/><path d="M324.8,375.49c.085,0,.163.39.176.874s-.047.88-.132.883-.163-.39-.175-.875.047-.88.132-.882" transform="translate(-125.129 -144.716)" fill="#455a64"/><path d="M324.675,369.774c.085,0,.162.39.172.875s-.051.88-.136.881-.161-.39-.171-.875.051-.879.136-.881" transform="translate(-125.079 -142.513)" fill="#455a64"/><path d="M324.577,364.058c.085,0,.16.391.167.876s-.055.879-.14.881-.16-.391-.168-.876.055-.879.14-.881" transform="translate(-125.039 -140.31)" fill="#455a64"/><path d="M324.506,358.342c.085,0,.158.392.163.876s-.059.879-.144.88-.158-.392-.163-.876.059-.879.144-.88" transform="translate(-125.011 -138.107)" fill="#455a64"/><path d="M324.462,352.626c.085,0,.156.392.159.877s-.063.879-.148.879-.156-.392-.159-.878.063-.878.148-.879" transform="translate(-124.992 -135.904)" fill="#455a64"/><path d="M324.447,346.909c.085,0,.154.393.154.878s-.068.878-.152.878-.154-.393-.155-.878.068-.878.153-.878" transform="translate(-124.985 -133.701)" fill="#455a64"/><path d="M324.46,341.193c.085,0,.152.394.15.879s-.073.878-.157.878-.152-.393-.15-.879.073-.878.157-.878" transform="translate(-124.988 -131.498)" fill="#455a64"/><path d="M324.5,335.476c.085,0,.15.395.146.879s-.077.878-.162.877-.15-.395-.146-.879.077-.878.162-.877" transform="translate(-125.003 -129.294)" fill="#455a64"/><path d="M324.574,329.76c.085,0,.148.4.141.881s-.082.877-.167.876-.148-.4-.141-.881.081-.877.166-.876" transform="translate(-125.028 -127.091)" fill="#455a64"/><path d="M324.673,324.046c.085,0,.146.4.136.881s-.085.877-.17.875-.146-.4-.137-.881.085-.877.17-.875" transform="translate(-125.065 -124.889)" fill="#455a64"/><path d="M324.8,318.326c.085,0,.144.4.132.883s-.09.877-.175.875-.144-.4-.132-.883.09-.878.175-.875" transform="translate(-125.111 -122.684)" fill="#455a64"/><path d="M324.99,312.607c.085,0,.138.4.119.884s-.1.875-.188.873-.138-.4-.119-.885.1-.876.188-.872" transform="translate(-125.179 -120.48)" fill="#455a64"/><path d="M325.3,306.9c.085.006.128.4.1.887s-.126.872-.211.867-.127-.4-.1-.887.126-.873.211-.867" transform="translate(-125.289 -118.28)" fill="#455a64"/><path d="M325.8,301.2c.084.01.113.408.064.889s-.157.866-.242.859-.113-.406-.064-.889.157-.868.242-.859" transform="translate(-125.462 -116.085)" fill="#455a64"/><path d="M326.377,296.955c.084.013.124.218.09.46s-.13.428-.214.416-.124-.217-.09-.46.131-.428.215-.416" transform="translate(-125.7 -114.448)" fill="#455a64"/><path d="M322.764,269.936a2.694,2.694,0,0,1,.1.644c.044.416.1,1.018.159,1.763.12,1.49.264,3.55.406,5.826.066,1.135.128,2.215.186,3.209a9.865,9.865,0,0,0,.305,2.563,2.177,2.177,0,0,0,1.068,1.269,3.147,3.147,0,0,0,.609.175c0,.009-.057.024-.17.027a1.354,1.354,0,0,1-.486-.092,2.222,2.222,0,0,1-1.224-1.3,9.3,9.3,0,0,1-.384-2.622c-.066-.994-.136-2.074-.211-3.208-.141-2.276-.251-4.338-.316-5.831-.033-.747-.053-1.351-.061-1.769a2.684,2.684,0,0,1,.02-.651" transform="translate(-124.386 -104.035)" fill="#455a64"/><path d="M325.181,272.133c.024.039-.133.144-.147.393a.476.476,0,0,0,.122.361.419.419,0,0,0,.669-.272.475.475,0,0,0-.163-.344c-.184-.168-.369-.134-.379-.179-.028-.029.2-.178.506,0a.66.66,0,0,1,.32.511.681.681,0,0,1-1.162.471.659.659,0,0,1-.127-.589c.1-.347.361-.4.361-.356" transform="translate(-125.179 -104.833)" fill="#455a64"/><path d="M344.8,274.115a3.043,3.043,0,0,1-1.314.5,5.564,5.564,0,0,1-5.9-2.635,3.04,3.04,0,0,1-.5-1.313c.05-.018.213.5.687,1.2a5.783,5.783,0,0,0,5.678,2.538c.838-.116,1.33-.337,1.35-.287" transform="translate(-129.913 -104.316)" fill="#455a64"/><path d="M303.608,269.937a2.238,2.238,0,0,1-.056,1.141,4.489,4.489,0,0,1-3.951,3.462,2.237,2.237,0,0,1-1.139-.095c0-.051.437,0,1.11-.12a4.712,4.712,0,0,0,3.77-3.3c.2-.651.214-1.087.265-1.085" transform="translate(-115.029 -104.035)" fill="#455a64"/><path d="M334.04,204.029l-9.964-10.044v0a17.749,17.749,0,0,0-6.88-4.454,14.2,14.2,0,0,0-4.311-.826,17.285,17.285,0,0,1-10.414.006c-1.43.179-10.057.327-13.007,3.264l-8.89,16.367,9.555,6.706,2.938-5.594-.472,10.476-1.575,18.5,30.874.32-.4-16.783-.023-12.142,4.455,4.337Z" transform="translate(-108.134 -72.729)" fill="#455a64"/><path d="M325.426,156.384H305.875a1.043,1.043,0,1,1,0-2.087h19.551a1.043,1.043,0,1,1,0,2.087" transform="translate(-117.483 -59.467)" fill="#f14141"/><path d="M325.831,148.125H307.616V146.69a9.108,9.108,0,0,1,18.215,0Z" transform="translate(-118.557 -53.025)" fill="#f14141"/><rect width="2.791" height="10.952" transform="translate(196.524 84.557)" fill="#f14141"/><path d="M298.26,189.089l-1.912,53.7,34.231-1.926L327.5,191.409s-5.56-3.667-8.537-3.012l-7.113,23.3L306.365,187.9Z" transform="translate(-114.214 -72.419)" fill="#f14141"/><path d="M330.285,251.994l-33.1-.138.11-3.1,32.768.283Z" transform="translate(-114.535 -95.872)" fill="#fff"/><path d="M330.4,263.645l-33.676-.14.111-3.1H330.2Z" transform="translate(-114.36 -100.361)" fill="#fff"/><path d="M341.979,223.644l3.174,2.777-22.76-2.2-2.675,7.209,29.223,5.193c3.4.458,8.832-1.764,9.431-6.206a8.2,8.2,0,0,0-2.237-6.8l-8.128-7.7" transform="translate(-123.221 -83.215)" fill="#ffc09d"/><path d="M319.534,147.965a31.909,31.909,0,0,1-.211-5.169,31.919,31.919,0,0,1,.211-5.171,31.925,31.925,0,0,1,.211,5.171,31.916,31.916,0,0,1-.211,5.169" transform="translate(-123.069 -53.041)" fill="#263238"/><path d="M324.1,147.965a31.909,31.909,0,0,1-.211-5.169,31.919,31.919,0,0,1,.211-5.171,31.925,31.925,0,0,1,.211,5.171,31.916,31.916,0,0,1-.211,5.169" transform="translate(-124.829 -53.041)" fill="#263238"/><path d="M326.062,154.127c0,.116-4.178.211-9.331.211s-9.332-.095-9.332-.211,4.177-.211,9.332-.211,9.331.095,9.331.211" transform="translate(-118.473 -59.32)" fill="#263238"/><g transform="translate(199.33 84.53)" opacity="0.2"><g clip-path="url(#g)"><path d="M324.327,137.537v10.341l1.388-9.949Z" transform="translate(-324.327 -137.537)"/></g></g><g transform="translate(189.723 86.244)" opacity="0.6"><g clip-path="url(#h)"><path d="M314.24,140.339a10.411,10.411,0,0,1-1.211.669,8.636,8.636,0,0,0-3.932,5.053,10.467,10.467,0,0,1-.352,1.339,3.035,3.035,0,0,1,.062-1.409,7.6,7.6,0,0,1,4.082-5.246,3.033,3.033,0,0,1,1.351-.406" transform="translate(-308.696 -140.327)" fill="#fff"/></g></g><path d="M318.314,170.334c.077.083-.36.606-1.071,1.032s-1.377.57-1.414.463.526-.418,1.2-.824,1.209-.76,1.288-.671" transform="translate(-121.722 -65.642)" fill="#263238"/><path d="M314.009,233.681a54.591,54.591,0,0,1-5.885.163c-2.746-.187-2.733-.434-2.656-.75.206-.849,4.843.148,3.971-.645s-5.814-.559-5.563-1.438c.327-1.145,5.163-.013,5.58.053s.525-.534.146-.573c-.545-.057-6.254-.787-5.943-1.915.172-.625,1.265-.211,1.265-.211s5.291,1.077,5.42.54-2.954-1.283-4.013-1.458-1.388-.741-.927-1.139c.315-.272,3.567.187,4.609.385s3.89.79,2.724-.645-1.522-2.977-1.329-3.461a.579.579,0,0,1,1.082.166,6.725,6.725,0,0,0,.88,1.643,4.393,4.393,0,0,0,1.031,1.083,19.138,19.138,0,0,0,1.875,1.235" transform="translate(-117.027 -85.665)" fill="#ffc09d"/><rect width="25.248" height="39.284" transform="translate(458.471 197.251) rotate(-41.7)" fill="#f14141"/><path d="M818.881,342.323a3.777,3.777,0,1,1,.307-5.332,3.777,3.777,0,0,1-.307,5.332" transform="translate(-313.177 -129.391)" fill="#455a64"/><path d="M816.937,339.171l-.132,2.158,3.388.141" transform="translate(-314.801 -130.718)" fill="none" stroke="#fff" stroke-miterlimit="10" stroke-width="1"/><path d="M775.337,344.174c-.078-.087,4.1-3.939,9.339-8.6s9.542-8.376,9.62-8.289-4.1,3.938-9.34,8.6-9.542,8.375-9.62,8.288" transform="translate(-298.819 -126.136)" fill="#263238"/><path d="M785.8,338.453c-.087.077-6.115-6.587-13.463-14.881S759.1,308.487,759.19,308.41s6.114,6.585,13.463,14.883,13.235,15.083,13.147,15.161" transform="translate(-292.595 -118.862)" fill="#fafafa"/><path d="M759.282,325.264c-.077-.087,4.089-3.9,9.3-8.523s9.508-8.3,9.585-8.208-4.088,3.9-9.3,8.523-9.507,8.295-9.584,8.207" transform="translate(-292.631 -118.91)" fill="#fafafa"/><path d="M781.82,351.1c-.077-.087,4.121-3.932,9.376-8.586s9.579-8.358,9.657-8.271-4.12,3.93-9.377,8.587-9.579,8.358-9.656,8.271" transform="translate(-301.317 -128.818)" fill="#fafafa"/><path d="M770.664,317.762a2.354,2.354,0,0,1-.521-.6,9.484,9.484,0,0,1-1.045-1.888,10.2,10.2,0,0,1-.76-3.118,3.944,3.944,0,0,1,.214-1.94,1.7,1.7,0,0,1,.741-.821,1.757,1.757,0,0,1,1.127-.155,2.351,2.351,0,0,1,1.667,1.313,4.918,4.918,0,0,1,.46,1.883,8.361,8.361,0,0,1-.39,3.192,7.851,7.851,0,0,1-.937,1.948,2.25,2.25,0,0,1-.508.607,13.982,13.982,0,0,0,1.159-2.642,8.53,8.53,0,0,0,.288-3.074,4.649,4.649,0,0,0-.439-1.726,1.949,1.949,0,0,0-1.375-1.088,1.238,1.238,0,0,0-1.417.733,3.651,3.651,0,0,0-.2,1.741,10.7,10.7,0,0,0,.651,3.037,21.221,21.221,0,0,0,1.288,2.592" transform="translate(-296.11 -119.173)" fill="#fafafa"/><path d="M771.806,323.1a1.934,1.934,0,0,1,.559-.451,8.211,8.211,0,0,1,1.76-.862,8.989,8.989,0,0,1,4.6-.35,2.254,2.254,0,0,1,.91.366,1.228,1.228,0,0,1,.526.942,1.249,1.249,0,0,1-.493.951,2.95,2.95,0,0,1-.828.478,6.357,6.357,0,0,1-1.686.454,6.676,6.676,0,0,1-2.911-.283,5.905,5.905,0,0,1-1.745-.9c-.369-.281-.532-.483-.518-.5a10.07,10.07,0,0,0,2.35,1.118,6.751,6.751,0,0,0,2.772.183,6.2,6.2,0,0,0,1.574-.449c.505-.2,1.065-.566,1.064-1.044a.822.822,0,0,0-.355-.611,1.886,1.886,0,0,0-.742-.3,9.162,9.162,0,0,0-1.645-.167,9.463,9.463,0,0,0-2.78.4,20.1,20.1,0,0,0-2.41,1.029" transform="translate(-297.458 -123.823)" fill="#fafafa"/><path d="M734.143,314.977l49.49,56.294,62.217,0V399.4H780.27l-58.854-67.419Z" transform="translate(-278.037 -121.394)" fill="#263238"/><path d="M652.025,243.666a2.252,2.252,0,0,1,.5.091,12.318,12.318,0,0,1,1.4.376,18.472,18.472,0,0,1,4.784,2.357,24.048,24.048,0,0,1,5.693,5.49,30.47,30.47,0,0,1,4.476,8.588,44.948,44.948,0,0,1,1.939,9.491,77,77,0,0,1,.354,7.9c0,2.249-.061,4.066-.111,5.322-.029.591-.052,1.07-.07,1.445a2.264,2.264,0,0,1-.053.5,2.338,2.338,0,0,1-.031-.505c0-.376-.005-.855-.009-1.446,0-1.256.011-3.073-.023-5.316s-.125-4.914-.443-7.858a46.057,46.057,0,0,0-1.953-9.4,30.746,30.746,0,0,0-4.388-8.487,24.4,24.4,0,0,0-5.551-5.477,19.745,19.745,0,0,0-4.668-2.447c-1.178-.417-1.857-.578-1.846-.621" transform="translate(-251.294 -93.909)" fill="#263238"/><path d="M675.326,281.639a2.765,2.765,0,0,1-.033-.554c0-.406-.007-.933-.013-1.588,0-1.379,0-3.374-.036-5.837s-.135-5.4-.454-8.632a56.839,56.839,0,0,0-1.94-10.371,37.97,37.97,0,0,0-4.347-9.574,29.813,29.813,0,0,0-5.587-6.513,24.515,24.515,0,0,0-4.791-3.264c-1.223-.624-1.934-.906-1.917-.946a2.709,2.709,0,0,1,.525.179,15.1,15.1,0,0,1,1.466.621,22.883,22.883,0,0,1,4.911,3.183,29.258,29.258,0,0,1,5.719,6.529,37.494,37.494,0,0,1,4.425,9.666,55.38,55.38,0,0,1,1.923,10.453c.3,3.256.363,6.2.365,8.666s-.052,4.464-.1,5.842c-.027.655-.048,1.181-.066,1.587a2.712,2.712,0,0,1-.052.553" transform="translate(-252.906 -90.322)" fill="#263238"/><path d="M551.918,169.281c.232.421-.165,38.321-.165,38.321l-3.088.034-1.039-38.351Z" transform="translate(-211.058 -65.242)" fill="#263238"/><path d="M546.281,223.268l3.557.186-.033,5.367,4.028,2.106-.025,3.528-2.631,3.642-.112-5.076-3.286-1.718-2.809,1.466.172,5.474-2.908-3.557.162-3.262,3.734-2.777Z" transform="translate(-208.98 -86.049)" fill="#263238"/><path d="M579.885,169.85l29.96,36.14A8.907,8.907,0,1,0,623.56,194.62L593.6,158.48a8.907,8.907,0,0,0-13.714,11.369" transform="translate(-222.701 -59.837)" fill="#455a64"/><path d="M548.245,171.673H574.9a5.59,5.59,0,1,0,0-11.18h-26.66a5.59,5.59,0,0,0,0,11.18" transform="translate(-209.142 -61.855)" fill="#455a64"/><path d="M627.437,290.658h6.011a9.506,9.506,0,0,0,9.507-9.507V221.424a9.506,9.506,0,0,0-9.507-9.507h-6.011a9.506,9.506,0,0,0-9.507,9.507v59.728a9.506,9.506,0,0,0,9.507,9.507" transform="translate(-238.153 -81.674)" fill="#455a64"/><path d="M627.835,316.723A6.168,6.168,0,1,0,634,310.555a6.168,6.168,0,0,0-6.168,6.168" transform="translate(-241.971 -119.689)" fill="#263238"/><path d="M628.252,225.63a6.168,6.168,0,1,0,6.168-6.168,6.168,6.168,0,0,0-6.168,6.168" transform="translate(-242.132 -84.582)" fill="#263238"/><path d="M588.881,164.6a3.742,3.742,0,1,0,5.292,0,3.742,3.742,0,0,0-5.292,0" transform="translate(-226.535 -63.014)" fill="#263238"/><path d="M547.421,166.2a2.542,2.542,0,1,0,3.6,0,2.542,2.542,0,0,0-3.6,0" transform="translate(-210.692 -63.766)" fill="#263238"/><path d="M617.979,225.33a1,1,0,0,1-.05-.332,7.55,7.55,0,0,1-.037-.964,11.717,11.717,0,0,1,.6-3.5,13.3,13.3,0,0,1,2.589-4.582,12.153,12.153,0,0,1,11.7-4.148,13.3,13.3,0,0,1,4.9,1.929,11.741,11.741,0,0,1,2.669,2.337,7.434,7.434,0,0,1,.578.772c.123.182.182.281.171.289a15.866,15.866,0,0,0-3.576-3.145,13.441,13.441,0,0,0-4.806-1.8,11.976,11.976,0,0,0-11.344,4.021,13.454,13.454,0,0,0-2.6,4.423,15.887,15.887,0,0,0-.8,4.7" transform="translate(-238.136 -81.551)" fill="#263238"/><path d="M580.537,159.171c.065.042-.378.712-.834,1.9a12.257,12.257,0,0,0,.429,9.647c.56,1.145,1.061,1.774,1,1.821-.022.018-.162-.125-.4-.4a7.785,7.785,0,0,1-.865-1.28,10.672,10.672,0,0,1-.892-2.118,11.512,11.512,0,0,1-.248-5.589,10.607,10.607,0,0,1,.7-2.189,7.707,7.707,0,0,1,.748-1.352c.21-.3.337-.454.361-.438" transform="translate(-222.956 -61.345)" fill="#263238"/><path d="M76.317,228.387c.012.045-.766.226-2.117.7a22.486,22.486,0,0,0-5.354,2.8,27.937,27.937,0,0,0-6.367,6.273,35.2,35.2,0,0,0-5.031,9.727,52.718,52.718,0,0,0-2.235,10.771c-.362,3.373-.462,6.433-.5,9s-.02,4.65-.017,6.088c0,.685,0,1.236,0,1.656a2.96,2.96,0,0,1-.03.578,3.012,3.012,0,0,1-.055-.577c-.019-.42-.044-.97-.074-1.655-.053-1.438-.116-3.519-.117-6.094a88.865,88.865,0,0,1,.412-9.039,51.59,51.59,0,0,1,2.222-10.863,34.92,34.92,0,0,1,5.12-9.827,27.579,27.579,0,0,1,6.509-6.286,21.256,21.256,0,0,1,5.471-2.705,14.275,14.275,0,0,1,1.6-.435,2.941,2.941,0,0,1,.568-.111" transform="translate(-20.971 -88.02)" fill="#263238"/><path d="M49.5,271.874a3.557,3.557,0,0,1-.053-.633c-.017-.455-.041-1.06-.069-1.818-.049-1.579-.106-3.864-.1-6.69s.08-6.2.424-9.922a63.512,63.512,0,0,1,2.2-11.965,43,43,0,0,1,5.062-11.062,33.583,33.583,0,0,1,6.541-7.477,26.294,26.294,0,0,1,5.615-3.651,17.7,17.7,0,0,1,1.675-.717,3.623,3.623,0,0,1,.6-.211,3.55,3.55,0,0,1-.566.289c-.369.192-.95.395-1.635.785a27.9,27.9,0,0,0-5.5,3.731,34.083,34.083,0,0,0-6.407,7.46A43.414,43.414,0,0,0,52.3,240.966a65.008,65.008,0,0,0-2.221,11.883c-.363,3.707-.47,7.067-.513,9.888s-.03,5.105-.031,6.685c0,.758-.007,1.363-.01,1.819a3.525,3.525,0,0,1-.031.635" transform="translate(-18.989 -83.913)" fill="#263238"/><path d="M201.027,142.343c-.253.489,1.258,28.37,1.258,28.37l3.536-.053.119-28.44Z" transform="translate(-77.466 -54.812)" fill="#263238"/><path d="M200.849,164.236l-8.375.659.41,12.653-9.368,5.215.278,8.317,6.431,8.425-.052-11.976,7.644-4.255,6.716,3.281-.066,12.918,6.635-8.568-.586-7.681-8.978-6.317Z" transform="translate(-70.728 -63.297)" fill="#263238"/><path d="M138.357,143.853l-34.31,41.387a10.2,10.2,0,0,1-15.706-13.02l34.31-41.387a10.2,10.2,0,1,1,15.705,13.02" transform="translate(-33.142 -49.002)" fill="#455a64"/><path d="M183.263,145.942H149.657a4.864,4.864,0,0,1-4.864-4.864V138a4.864,4.864,0,0,1,4.864-4.864h33.606A4.864,4.864,0,0,1,188.127,138v3.075a4.864,4.864,0,0,1-4.864,4.864" transform="translate(-55.804 -51.312)" fill="#455a64"/><path d="M96.8,282.2h0a14.329,14.329,0,0,1-14.329-14.329V206.358a14.329,14.329,0,1,1,28.657,0v61.517A14.329,14.329,0,0,1,96.8,282.2" transform="translate(-31.784 -74.009)" fill="#455a64"/><path d="M108.894,312.051a7.064,7.064,0,1,1-7.064-7.064,7.064,7.064,0,0,1,7.064,7.064" transform="translate(-36.523 -117.544)" fill="#263238"/><path d="M108.417,207.733a7.064,7.064,0,1,1-7.064-7.064,7.064,7.064,0,0,1,7.064,7.064" transform="translate(-36.339 -77.339)" fill="#263238"/><path d="M156.988,137.838a4.285,4.285,0,1,1-6.061,0,4.286,4.286,0,0,1,6.061,0" transform="translate(-57.685 -52.64)" fill="#263238"/><path d="M206.191,139.67a2.911,2.911,0,1,1-4.118,0,2.911,2.911,0,0,1,4.118,0" transform="translate(-77.551 -53.501)" fill="#263238"/><path d="M112.368,207.408a17.548,17.548,0,0,0-.892-5.384,15.408,15.408,0,0,0-2.977-5.077,13.724,13.724,0,0,0-13.018-4.613,15.392,15.392,0,0,0-5.51,2.069,17.548,17.548,0,0,0-4.083,3.621,1.3,1.3,0,0,1,.2-.328,8.877,8.877,0,0,1,.666-.879,13.51,13.51,0,0,1,3.058-2.665,15.256,15.256,0,0,1,5.6-2.2,13.9,13.9,0,0,1,13.377,4.741,15.241,15.241,0,0,1,2.966,5.235,13.512,13.512,0,0,1,.7,4,9.046,9.046,0,0,1-.037,1.1,1.322,1.322,0,0,1-.051.381" transform="translate(-33.102 -73.886)" fill="#263238"/><path d="M170.024,131.625c.024-.016.166.164.4.507a9.051,9.051,0,0,1,.847,1.551,12.311,12.311,0,0,1,.795,2.5,13.227,13.227,0,0,1-.285,6.387A12.275,12.275,0,0,1,170.771,145a9.075,9.075,0,0,1-.981,1.469c-.267.321-.425.487-.447.47-.063-.049.517-.765,1.164-2.076a13.83,13.83,0,0,0,.9-2.393,14,14,0,0,0,.276-6.209A13.768,13.768,0,0,0,171,133.8c-.528-1.364-1.042-2.128-.975-2.171" transform="translate(-65.264 -50.729)" fill="#263238"/><path d="M446.436,326.677H9.67A9.67,9.67,0,0,1,0,317.007v-6.114a9.67,9.67,0,0,1,9.669-9.671H446.436a9.671,9.671,0,0,1,9.671,9.671v6.114a9.671,9.671,0,0,1-9.671,9.671" transform="translate(0 -116.092)" fill="#455a64"/><path d="M637.444,319.2a6.326,6.326,0,1,1-6.326-6.326,6.326,6.326,0,0,1,6.326,6.326" transform="translate(-240.798 -120.582)" fill="#263238"/><path d="M721.9,317.567a6.326,6.326,0,1,1-6.327-6.326,6.326,6.326,0,0,1,6.327,6.326" transform="translate(-273.347 -119.954)" fill="#263238"/><path d="M543.737,319.2a6.326,6.326,0,1,1-6.326-6.326,6.326,6.326,0,0,1,6.326,6.326" transform="translate(-204.683 -120.582)" fill="#263238"/><path d="M450.03,319.2a6.326,6.326,0,1,1-6.326-6.326,6.326,6.326,0,0,1,6.326,6.326" transform="translate(-168.568 -120.582)" fill="#263238"/><path d="M356.322,319.2A6.326,6.326,0,1,1,350,312.87a6.326,6.326,0,0,1,6.326,6.326" transform="translate(-132.452 -120.582)" fill="#263238"/><path d="M262.615,319.2a6.326,6.326,0,1,1-6.326-6.326,6.326,6.326,0,0,1,6.326,6.326" transform="translate(-96.337 -120.582)" fill="#263238"/><path d="M168.908,319.2a6.326,6.326,0,1,1-6.326-6.326,6.326,6.326,0,0,1,6.326,6.326" transform="translate(-60.222 -120.582)" fill="#263238"/><path d="M41.146,319.2a6.326,6.326,0,1,1-6.326-6.326,6.326,6.326,0,0,1,6.326,6.326" transform="translate(-10.982 -120.582)" fill="#263238"/><path d="M119.721,411.135h-72.2l.956-68.495h72.2Z" transform="translate(-18.316 -132.055)" fill="#263238"/><path d="M640.385,410.947h-72.2l.561-68.307h72.2Z" transform="translate(-218.983 -132.055)" fill="#263238"/><path d="M111.764,301.09c0,.116-6.609.211-14.76.211s-14.761-.095-14.761-.211,6.608-.211,14.761-.211,14.76.095,14.76.211" transform="translate(-31.697 -115.96)" fill="#263238"/><path d="M443.354,325.226s.2-.017.6-.041a10.2,10.2,0,0,0,1.758-.251,11.311,11.311,0,0,0,2.729-1.032,11.012,11.012,0,0,0,3.1-2.563,10.9,10.9,0,0,0,2.207-4.575,10.763,10.763,0,0,0-.509-6.075,10.579,10.579,0,0,0-8.364-6.622,35.5,35.5,0,0,0-4.237-.116l-98.872.067-326.2.062a10.54,10.54,0,0,0-5.547,1.589,9.917,9.917,0,0,0-2.229,1.864,9.818,9.818,0,0,0-1.631,2.4,10.406,10.406,0,0,0,1.068,10.957,10.5,10.5,0,0,0,4.555,3.42,10.468,10.468,0,0,0,2.791.659c.949.069,1.937.045,2.912.049H29.162l45.814,0,86.609.012,146.65.045,98.867.067,26.879.039,6.99.021c1.575.007,2.382.022,2.382.022s-.807.015-2.382.022l-6.99.021-26.879.039-98.867.067-146.65.046-86.609.012-45.814,0H17.487c-.978-.006-1.946.022-2.95-.051a10.885,10.885,0,0,1-2.9-.685,10.351,10.351,0,0,1-2.613-1.45,10.294,10.294,0,0,1-2.125-2.107,10.83,10.83,0,0,1-1.112-11.4,10.22,10.22,0,0,1,1.7-2.495A10.338,10.338,0,0,1,9.8,305.311a10.964,10.964,0,0,1,5.769-1.652l326.2.061,98.872.067a35.488,35.488,0,0,1,4.259.127,10.716,10.716,0,0,1,8.459,6.729,10.7,10.7,0,0,1-1.75,10.749,11.031,11.031,0,0,1-3.132,2.565,11.25,11.25,0,0,1-2.75,1.017,9.727,9.727,0,0,1-1.766.23c-.4.017-.6.02-.6.02" transform="translate(-1.798 -117.032)" fill="#263238"/><rect width="41.654" height="26.771" transform="translate(319.851 158.358)" fill="#f14141"/><path d="M589.81,255.866a4,4,0,1,1-4-4,4,4,0,0,1,4,4" transform="translate(-224.229 -97.069)" fill="#455a64"/><path d="M584.968,257.232l1.615,1.626,2.5-2.583" transform="translate(-225.45 -98.77)" fill="none" stroke="#fff" stroke-miterlimit="10" stroke-width="1"/><path d="M567.783,284.948c-.116,0-.211-6.028-.211-13.462s.095-13.463.211-13.463.211,6.026.211,13.463-.095,13.462-.211,13.462" transform="translate(-218.745 -99.443)" fill="#263238"/><rect width="37.907" height="24.363" transform="translate(208.113 160.972)" fill="#f14141"/><path d="M376.4,286.259c-.116,0-.211-5.458-.211-12.188s.095-12.189.211-12.189.211,5.456.211,12.189-.095,12.188-.211,12.188" transform="translate(-144.986 -100.931)" fill="#263238"/><rect width="26.823" height="44.763" transform="translate(84.731 140.367)" fill="#f14141"/><path d="M171.881,273.184c-.116,0-.211-9.938-.211-22.194s.095-22.2.211-22.2.211,9.936.211,22.2-.095,22.194-.211,22.194" transform="translate(-66.163 -88.179)" fill="#263238"/><rect width="39.284" height="25.248" transform="translate(519.401 224.901) rotate(-0.167)" fill="#f14141"/><path d="M910.549,364.041a3.777,3.777,0,1,1-3.788-3.766,3.777,3.777,0,0,1,3.788,3.766" transform="translate(-348.019 -138.852)" fill="#455a64"/><path d="M905.981,365.343l1.527,1.53,2.353-2.443" transform="translate(-349.17 -140.453)" fill="none" stroke="#fff" stroke-miterlimit="10" stroke-width="1"/><path d="M889.862,391.536c-.116,0-.227-5.684-.248-12.7s.057-12.7.174-12.7.227,5.683.247,12.7-.057,12.7-.173,12.7" transform="translate(-342.861 -141.113)" fill="#263238"/><path d="M884.744,388.677c0,.116-8.985.211-20.066.211s-20.068-.095-20.068-.211,8.984-.211,20.068-.211,20.066.095,20.066.211" transform="translate(-325.517 -149.717)" fill="#fafafa"/><path d="M865.011,391.047c-.116,0-.211-5.649-.211-12.616s.095-12.618.211-12.618.211,5.648.211,12.618-.095,12.616-.211,12.616" transform="translate(-333.298 -140.987)" fill="#fafafa"/><path d="M899.355,391.24c-.116,0-.211-5.692-.211-12.712s.095-12.714.211-12.714.211,5.691.211,12.714-.095,12.712-.211,12.712" transform="translate(-346.535 -140.987)" fill="#fafafa"/><path d="M859.69,385.146a2.354,2.354,0,0,1-.791,0,9.495,9.495,0,0,1-2.106-.47,10.216,10.216,0,0,1-2.838-1.5,3.956,3.956,0,0,1-1.31-1.447,1.7,1.7,0,0,1-.123-1.1,1.756,1.756,0,0,1,.631-.946,2.353,2.353,0,0,1,2.088-.377,4.919,4.919,0,0,1,1.715.9,8.346,8.346,0,0,1,2.131,2.408,7.845,7.845,0,0,1,.837,1.993,2.255,2.255,0,0,1,.118.782,13.981,13.981,0,0,0-1.209-2.619,8.548,8.548,0,0,0-2.11-2.254,4.638,4.638,0,0,0-1.584-.815,1.949,1.949,0,0,0-1.726.307,1.239,1.239,0,0,0-.391,1.547,3.655,3.655,0,0,0,1.168,1.307,10.7,10.7,0,0,0,2.7,1.527,21.237,21.237,0,0,0,2.8.754" transform="translate(-328.55 -146.149)" fill="#fafafa"/><path d="M864.809,385.622a1.939,1.939,0,0,1,.033-.717,8.227,8.227,0,0,1,.522-1.889,8.986,8.986,0,0,1,2.788-3.676,2.262,2.262,0,0,1,.877-.439,1.23,1.23,0,0,1,1.053.232,1.249,1.249,0,0,1,.385,1,2.959,2.959,0,0,1-.192.937,6.368,6.368,0,0,1-.778,1.563,6.683,6.683,0,0,1-2.142,1.992,5.921,5.921,0,0,1-1.833.706,1.818,1.818,0,0,1-.717.058,10.111,10.111,0,0,0,2.394-1.018,6.76,6.76,0,0,0,1.975-1.954,6.2,6.2,0,0,0,.707-1.476c.184-.513.283-1.173-.077-1.489a.82.82,0,0,0-.693-.14,1.894,1.894,0,0,0-.715.359,9.071,9.071,0,0,0-1.214,1.121,9.43,9.43,0,0,0-1.547,2.344,19.977,19.977,0,0,0-.827,2.487" transform="translate(-333.295 -146.018)" fill="#fafafa"/></g></g></g></g></svg>