<svg xmlns="http://www.w3.org/2000/svg" xmlns:xlink="http://www.w3.org/1999/xlink" width="148" height="149" viewBox="0 0 148 149"><defs><filter id="a" x="0" y="0" width="148" height="149" filterUnits="userSpaceOnUse"><feOffset dy="3" input="SourceAlpha"/><feGaussianBlur stdDeviation="3" result="b"/><feFlood flood-opacity="0.161"/><feComposite operator="in" in2="b"/><feComposite in="SourceGraphic"/></filter></defs><g transform="translate(2939 2930)"><g transform="matrix(1, 0, 0, 1, -2939, -2930)" filter="url(#a)"><ellipse cx="65" cy="65.5" rx="65" ry="65.5" transform="translate(9 6)" fill="#fff"/></g><g transform="translate(-2902.73 -2899.695)"><g transform="translate(3.195 3.053)"><rect width="47.995" height="69.251" rx="4" transform="translate(21.432 0)" fill="#e9f1f2"/><path d="M68.783,63.923v3.584A4.778,4.778,0,0,1,64,72.285H25.778A4.778,4.778,0,0,1,21,67.507V7.778A4.778,4.778,0,0,1,25.778,3h2.389a2.335,2.335,0,0,0,.7,1.684,2.335,2.335,0,0,0,1.684.7H64a2.4,2.4,0,0,1,2.389,2.389V61.534A2.4,2.4,0,0,0,68.783,63.923Z" transform="translate(0.502 -2.858)" fill="#d0d8da"/><path d="M25,7H63.226V66.729H25Z" transform="translate(1.281 -2.08)" fill="#ade8f4"/><path d="M25,7V66.729H63.226V7ZM59.643,45.226A4.778,4.778,0,0,1,54.864,50H50.086A16.724,16.724,0,0,1,33.362,33.281V15.362a4.778,4.778,0,0,1,4.778-4.778H54.864a4.778,4.778,0,0,1,4.778,4.778Z" transform="translate(1.281 -2.08)" fill="#48cae4"/><circle cx="4.8" cy="4.8" r="4.8" transform="translate(32.402 15.77)" fill="#ff7373"/><circle cx="4.8" cy="4.8" r="4.8" transform="translate(32.402 30.169)" fill="#ff7373"/><g transform="translate(32.253 16.317)"><circle cx="4.8" cy="4.8" r="4.8" transform="translate(0.149 28.251)" fill="#ef5350"/><path d="M32.389,16.54v8.266a4.77,4.77,0,0,1,0-8.266Z" transform="translate(-29.999 -16.54)" fill="#ef5350"/><path d="M34.635,37.44a4.769,4.769,0,0,1-2.246-8.9v.55a16.539,16.539,0,0,0,2.246,8.35Z" transform="translate(-30 -14.205)" fill="#ef5350"/></g><path d="M3,19H19.724V35.724H3Z" transform="translate(-3 0.255)" fill="#ffd000"/><path d="M8,19h4.778v4.778H8Z" transform="translate(-2.027 0.255)" fill="#ffea00"/><path d="M19.724,32.14v3.584H3V19H6.584v3.584A9.557,9.557,0,0,0,16.14,32.14Z" transform="translate(-3 0.255)" fill="#ffb700"/><path d="M3,33H19.724V49.724H3Z" transform="translate(-3 2.979)" fill="#ffd000"/><path d="M8,33h4.778v4.778H8Z" transform="translate(-2.027 2.979)" fill="#ffea00"/><path d="M19.724,46.14v3.584H3V33H6.584v3.584A9.557,9.557,0,0,0,16.14,46.14Z" transform="translate(-3 2.979)" fill="#ffb700"/><path d="M3,47H19.724V63.724H3Z" transform="translate(-3 5.703)" fill="#ffd000"/><path d="M8,47h4.778v4.778H8Z" transform="translate(-2.027 5.703)" fill="#ffea00"/><path d="M19.724,60.14v3.584H3V47H6.584v3.584A9.557,9.557,0,0,0,16.14,60.14Z" transform="translate(-3 5.703)" fill="#ffb700"/><path d="M17,33H33.724V49.724H17Z" transform="translate(-0.276 2.979)" fill="#ffd000"/><path d="M22,33h4.778v4.778H22Z" transform="translate(0.697 2.979)" fill="#ffea00"/><path d="M33.724,46.14v3.584H17V33h3.584v3.584A9.557,9.557,0,0,0,30.14,46.14Z" transform="translate(-0.276 2.979)" fill="#ffb700"/><path d="M17,47H33.724V63.724H17Z" transform="translate(-0.276 5.703)" fill="#ffd000"/><path d="M22,47h4.778v4.778H22Z" transform="translate(0.697 5.703)" fill="#ffea00"/><path d="M33.724,60.14v3.584H17V47h3.584v3.584A9.557,9.557,0,0,0,30.14,60.14Z" transform="translate(-0.276 5.703)" fill="#ffb700"/><path d="M31,47H47.724V63.724H31Z" transform="translate(2.448 5.703)" fill="#ffd000"/><path d="M36,47h4.778v4.778H36Z" transform="translate(3.421 5.703)" fill="#ffea00"/><path d="M47.724,60.14v3.584H31V47h3.584v3.584A9.557,9.557,0,0,0,44.14,60.14Z" transform="translate(2.448 5.703)" fill="#ffb700"/></g><g transform="translate(2 2)"><path d="M72.48,35.448a1.2,1.2,0,0,0,1.195-1.195V7.973A5.98,5.98,0,0,0,67.7,2H29.475A5.98,5.98,0,0,0,23.5,7.973V37.837H21.113V22.308a1.2,1.2,0,0,0-1.195-1.195H3.195A1.2,1.2,0,0,0,2,22.308V45a1.195,1.195,0,1,0,2.389,0V40.226H7.973V43.81A1.2,1.2,0,0,0,9.167,45h4.778A1.2,1.2,0,0,0,15.14,43.81V40.226h3.584V50.978a1.195,1.195,0,1,0,2.389,0V40.226H24.7V43.81A1.2,1.2,0,0,0,25.892,45H30.67a1.2,1.2,0,0,0,1.195-1.195V40.226h3.584V54.561H4.389V49.783a1.195,1.195,0,0,0-2.389,0v22.7a1.2,1.2,0,0,0,1.195,1.195h22.7a1.195,1.195,0,0,0,0-2.389H21.113V56.95H24.7v3.584a1.2,1.2,0,0,0,1.195,1.195H30.67a1.2,1.2,0,0,0,1.195-1.195V56.95h3.584V71.285H30.67a1.195,1.195,0,0,0,0,2.389H67.7A5.98,5.98,0,0,0,73.675,67.7V39.032a1.195,1.195,0,0,0-2.389,0V67.7A3.584,3.584,0,0,1,67.7,71.285H54.561V68.9H67.7A1.2,1.2,0,0,0,68.9,67.7V17.529a1.195,1.195,0,0,0-2.389,0V66.507H54.561V56.95h7.167a1.195,1.195,0,1,0,0-2.389H45.687a5.883,5.883,0,0,0,.512-2.389,5.947,5.947,0,0,0-.447-2.248l2.3-1.536A1.195,1.195,0,1,0,46.731,46.4l-2.3,1.535a5.95,5.95,0,0,0-4.2-1.736,5.883,5.883,0,0,0-2.389.512V43.3a5.883,5.883,0,0,0,2.389.512,5.957,5.957,0,0,0,5.526-8.221l2.3-1.536a1.195,1.195,0,0,0-1.326-1.988l-2.3,1.535a5.914,5.914,0,0,0-8.146-.214l-.119-.088a1.195,1.195,0,0,0-1.433,1.911l.112.085a5.9,5.9,0,0,0-.589,2.543H25.892V7.973a3.584,3.584,0,0,1,3.584-3.584H67.7a3.584,3.584,0,0,1,3.584,3.584V34.254a1.2,1.2,0,0,0,1.195,1.195ZM12.751,56.95V59.34H10.362V56.95Zm-8.362,0H7.973v3.584a1.2,1.2,0,0,0,1.195,1.195h4.778a1.2,1.2,0,0,0,1.195-1.195V56.95h3.584V71.285H4.389ZM29.475,59.34H27.086V56.95h2.389Zm22.7-2.389V71.285H37.837V56.95h3.584v3.584a1.2,1.2,0,0,0,1.195,1.195h4.778a1.2,1.2,0,0,0,1.195-1.195V56.95ZM46.2,59.34H43.81V56.95H46.2ZM43.81,52.172a3.494,3.494,0,0,1-.964,2.389H37.837V51.874l1.672,1.254a1.2,1.2,0,0,0,1.38.038l2.8-1.867A3.509,3.509,0,0,1,43.81,52.172Zm-1.447-2.86-2.1,1.4-2-1.5a3.475,3.475,0,0,1,1.964-.618,3.546,3.546,0,0,1,2.137.724ZM40.226,34.254a3.546,3.546,0,0,1,2.137.724l-2.1,1.4-2.031-1.517A3.561,3.561,0,0,1,40.226,34.254Zm-3.406,2.523,2.689,2.016a1.2,1.2,0,0,0,1.38.038l2.8-1.867a3.508,3.508,0,0,1,.119.873,3.584,3.584,0,0,1-3.584,3.584,3.494,3.494,0,0,1-2.389-.964V39.032a1.2,1.2,0,0,0-1.195-1.195A3.545,3.545,0,0,1,36.821,36.776ZM12.751,23.5v2.389H10.362V23.5Zm-8.362,0H7.973v3.584a1.2,1.2,0,0,0,1.195,1.195h4.778a1.2,1.2,0,0,0,1.195-1.195V23.5h3.584V37.837H4.389Zm8.362,19.113H10.362V40.226h2.389Zm16.724-2.389v2.389H27.086V40.226Z" transform="translate(-2 -2)"/><path d="M63.421,13.167a1.2,1.2,0,0,0,1.195-1.195V7.195A1.2,1.2,0,0,0,63.421,6H25.195A1.2,1.2,0,0,0,24,7.195V33.475a1.195,1.195,0,1,0,2.389,0V8.389H62.226v3.584A1.2,1.2,0,0,0,63.421,13.167Z" transform="translate(2.281 -1.222)"/><path d="M43.134,15.532a1.2,1.2,0,0,0-1.657-.331l-2.3,1.535a5.914,5.914,0,0,0-8.146-.214l-.119-.088a1.195,1.195,0,0,0-1.433,1.911l.112.085A5.9,5.9,0,0,0,29,20.973a5.973,5.973,0,1,0,11.5-2.248l2.3-1.536A1.2,1.2,0,0,0,43.134,15.532Zm-8.161,1.858a3.545,3.545,0,0,1,2.137.724l-2.1,1.4-2.031-1.517a3.561,3.561,0,0,1,1.99-.6Zm3.584,3.584a3.584,3.584,0,1,1-7.167,0,3.545,3.545,0,0,1,.178-1.061l2.689,2.016a1.2,1.2,0,0,0,1.38.038l2.8-1.867a3.509,3.509,0,0,1,.119.873Z" transform="translate(3.253 0.529)"/><path d="M54.335,22H41.195a1.195,1.195,0,0,0,0,2.389h13.14a1.195,1.195,0,1,0,0-2.389Z" transform="translate(5.394 1.892)"/><path d="M55.529,35.195A1.2,1.2,0,0,0,54.335,34H41.195a1.195,1.195,0,0,0,0,2.389h13.14A1.2,1.2,0,0,0,55.529,35.195Z" transform="translate(5.394 4.226)"/><path d="M54.14,18H42.195a1.195,1.195,0,0,0,0,2.389H54.14a1.195,1.195,0,1,0,0-2.389Z" transform="translate(5.588 1.113)"/><path d="M53.946,30H43.195a1.195,1.195,0,1,0,0,2.389H53.946a1.195,1.195,0,0,0,0-2.389Z" transform="translate(5.783 3.448)"/><path d="M43.195,42a1.195,1.195,0,1,0,0,2.389h9.557a1.195,1.195,0,1,0,0-2.389Z" transform="translate(5.783 5.783)"/><path d="M53.335,12.389a1.195,1.195,0,1,0,0-2.389H40.195a1.195,1.195,0,1,0,0,2.389Z" transform="translate(5.199 -0.443)"/><path d="M36.778,12.389a1.195,1.195,0,1,0,0-2.389H33.195a1.195,1.195,0,1,0,0,2.389Z" transform="translate(3.837 -0.443)"/></g></g></g></svg>