<svg xmlns="http://www.w3.org/2000/svg" xmlns:xlink="http://www.w3.org/1999/xlink" width="148" height="149" viewBox="0 0 148 149"><defs><filter id="a" x="0" y="0" width="148" height="149" filterUnits="userSpaceOnUse"><feOffset dy="3" input="SourceAlpha"/><feGaussianBlur stdDeviation="3" result="b"/><feFlood flood-opacity="0.161"/><feComposite operator="in" in2="b"/><feComposite in="SourceGraphic"/></filter></defs><g transform="translate(2154 2930)"><g transform="matrix(1, 0, 0, 1, -2154, -2930)" filter="url(#a)"><ellipse cx="65" cy="65.5" rx="65" ry="65.5" transform="translate(9 6)" fill="#fff"/></g><g transform="translate(-2115.238 -2896.354)"><path d="M52.577,6.517v4.689L51.4,12.378H2.172L1,11.205V6.517A3.517,3.517,0,0,1,4.517,3H49.06A3.517,3.517,0,0,1,52.577,6.517Z" transform="translate(0.172 0.517)" fill="#ec5e69"/><path d="M52.577,10V39.305L38.511,53.372H4.517A3.517,3.517,0,0,1,1,49.855V10Z" transform="translate(0.172 1.722)" fill="#d9dde3"/><path d="M34.106,25.032h7.233v1.035a1.274,1.274,0,0,0,2.181.924l3.306-3.379a1.328,1.328,0,0,0,0-1.847L43.52,18.385a1.274,1.274,0,0,0-2.181.924v1.035H33.133a2.3,2.3,0,0,0-1.653.692L18.094,34.41H10.861V33.375a1.274,1.274,0,0,0-2.181-.924L5.374,35.831a1.328,1.328,0,0,0,0,1.847L8.68,41.058a1.274,1.274,0,0,0,2.181-.924V39.1h8.205a2.3,2.3,0,0,0,1.653-.692Z" transform="translate(0.861 3.101)" fill="#287dc9"/><path d="M43.108,41.443l3.716-3.763a1.323,1.323,0,0,0,0-1.852l-3.306-3.376a1.273,1.273,0,0,0-2.18.926V34.41H34.106L20.719,21.035a2.3,2.3,0,0,0-1.653-.692H10.861V19.309a1.274,1.274,0,0,0-2.181-.924L5.374,21.764a1.328,1.328,0,0,0,0,1.847L8.68,26.991a1.274,1.274,0,0,0,2.181-.924V25.032h7.233L31.48,38.407a2.3,2.3,0,0,0,1.653.692h8.205V40.13a1.282,1.282,0,0,0,1.243,1.313Z" transform="translate(0.861 3.101)" fill="#666"/><circle cx="14.067" cy="14.067" r="14.067" transform="translate(38.851 40.861)" fill="#4e98ec"/><circle cx="9.378" cy="9.378" r="9.378" transform="translate(43.539 45.55)" fill="#fff"/><g transform="translate(0 0)"><path d="M4.689,56.266H37.57A15.232,15.232,0,1,0,53.921,39.915V7.033a4.689,4.689,0,0,0-4.689-4.689H45.716V1.172a1.172,1.172,0,1,0-2.344,0V2.344H38.683V1.172a1.172,1.172,0,0,0-2.344,0V2.344H31.65V1.172a1.172,1.172,0,0,0-2.344,0V2.344H24.616V1.172a1.172,1.172,0,0,0-2.344,0V2.344H17.583V1.172a1.172,1.172,0,0,0-2.344,0V2.344H10.55V1.172a1.172,1.172,0,1,0-2.344,0V2.344H4.689A4.689,4.689,0,0,0,0,7.033v4.689a1.172,1.172,0,0,0,1.172,1.172h50.4V39.915a15.147,15.147,0,0,0-2.378.375,2.482,2.482,0,0,0-.675-2.18L45.214,34.73a2.426,2.426,0,0,0-2.66-.551,2.462,2.462,0,0,0-1.527,2.159H35.452l-3.517-3.517,3.517-3.517h5.575a2.469,2.469,0,0,0,1.533,2.163,2.421,2.421,0,0,0,2.655-.557l3.306-3.379a2.51,2.51,0,0,0,0-3.486l-3.3-3.378a2.417,2.417,0,0,0-2.656-.558,2.469,2.469,0,0,0-1.533,2.163H33.994a3.485,3.485,0,0,0-2.482,1.035l-4.552,4.549-4.543-4.539a3.494,3.494,0,0,0-2.49-1.046H12.894a2.469,2.469,0,0,0-1.533-2.163,2.419,2.419,0,0,0-2.655.557L5.392,24.045a2.51,2.51,0,0,0,0,3.486L8.7,30.91a2.421,2.421,0,0,0,2.656.558,2.469,2.469,0,0,0,1.541-2.163h5.579l3.517,3.517-3.517,3.517H12.894a2.469,2.469,0,0,0-1.533-2.163,2.417,2.417,0,0,0-2.655.557L5.392,38.112a2.51,2.51,0,0,0,0,3.486l3.3,3.378a2.418,2.418,0,0,0,2.656.558,2.469,2.469,0,0,0,1.541-2.163h7.033a3.485,3.485,0,0,0,2.482-1.035l4.552-4.549L31.5,42.326a3.494,3.494,0,0,0,2.49,1.046h7.033a2.49,2.49,0,0,0,.536,1.407,15.165,15.165,0,0,0-3.993,9.143H4.689a2.344,2.344,0,0,1-2.344-2.344V16.411a1.172,1.172,0,1,0-2.344,0V51.577a4.689,4.689,0,0,0,4.689,4.689ZM2.344,10.55V7.033A2.344,2.344,0,0,1,4.689,4.689H8.205V5.861a1.172,1.172,0,1,0,2.344,0V4.689h4.689V5.861a1.172,1.172,0,0,0,2.344,0V4.689h4.689V5.861a1.172,1.172,0,0,0,2.344,0V4.689h4.689V5.861a1.172,1.172,0,0,0,2.344,0V4.689h4.689V5.861a1.172,1.172,0,1,0,2.344,0V4.689h4.689V5.861a1.172,1.172,0,1,0,2.344,0V4.689h3.517a2.344,2.344,0,0,1,2.344,2.344V10.55Zm30.836,14.4a1.134,1.134,0,0,1,.814-.338H42.2a1.172,1.172,0,0,0,1.172-1.172V22.409c0-.032,0-.1.171-.1l3.306,3.379a.157.157,0,0,1,0,.209l-3.4,3.4a.117.117,0,0,1-.075-.129v-1.03A1.172,1.172,0,0,0,42.2,26.961H34.967a1.172,1.172,0,0,0-.829.343L30.27,31.172l-1.655-1.654ZM20.741,40.69a1.134,1.134,0,0,1-.814.338H11.722A1.172,1.172,0,0,0,10.55,42.2v1.035c0,.032,0,.1-.171.1L7.073,39.959a.157.157,0,0,1,0-.209l3.4-3.4a.117.117,0,0,1,.075.129v1.03a1.172,1.172,0,0,0,1.172,1.172h7.233a1.172,1.172,0,0,0,.829-.343l3.868-3.868L25.3,36.125Zm13.253.338a1.143,1.143,0,0,1-.821-.352L27.8,35.309l-.009-.014-.014-.009L19.787,27.3a1.172,1.172,0,0,0-.832-.34H11.722a1.172,1.172,0,0,0-1.172,1.172v1.035c0,.032,0,.1-.171.1L7.073,25.893a.157.157,0,0,1,0-.209l3.4-3.4a.117.117,0,0,1,.075.129v1.03a1.172,1.172,0,0,0,1.172,1.172h8.205a1.143,1.143,0,0,1,.821.352l5.371,5.366.009.014.014.009,7.992,7.985a1.172,1.172,0,0,0,.835.34H42.2a1.172,1.172,0,0,0,1.172-1.172V36.479c0-.05.008-.105.171-.107l3.3,3.376a.149.149,0,0,1,0,.213l-2.206,2.253a14.785,14.785,0,0,0-1.269.893V42.2A1.172,1.172,0,0,0,42.2,41.027ZM52.749,42.2A12.894,12.894,0,1,1,39.855,55.094,12.894,12.894,0,0,1,52.749,42.2Z" transform="translate(0 0)"/><path d="M39.09,56.01c.008.009.02.012.028.02a10.53,10.53,0,0,0,14.864,0c.008-.008.02-.011.028-.02s.012-.02.02-.028a10.53,10.53,0,0,0,0-14.864c-.008-.008-.011-.02-.02-.028s-.02-.012-.028-.02a10.53,10.53,0,0,0-14.864,0c-.008.008-.02.011-.028.02s-.012.02-.02.028a10.53,10.53,0,0,0,0,14.864C39.078,55.99,39.081,56,39.09,56.01Zm.427-8.632H38.438a8.143,8.143,0,0,1,1.547-3.732l.761.761A1.172,1.172,0,1,0,42.4,42.749l-.761-.761a8.143,8.143,0,0,1,3.735-1.55v1.078a1.172,1.172,0,0,0,2.344,0V40.438a8.143,8.143,0,0,1,3.732,1.547l-.761.761A1.172,1.172,0,1,0,52.351,44.4l.761-.761a8.143,8.143,0,0,1,1.55,3.735H53.583a1.172,1.172,0,1,0,0,2.344h1.078a8.143,8.143,0,0,1-1.547,3.732l-.761-.761A1.172,1.172,0,1,0,50.7,54.351l.761.761a8.143,8.143,0,0,1-3.735,1.55V55.583a1.172,1.172,0,1,0-2.344,0v1.078a8.144,8.144,0,0,1-3.732-1.547l.761-.761A1.172,1.172,0,1,0,40.749,52.7l-.761.761a8.143,8.143,0,0,1-1.55-3.735h1.078a1.172,1.172,0,1,0,0-2.344Z" transform="translate(6.199 6.544)"/><path d="M45.516,49.518a1.172,1.172,0,1,0,1.658-1.658l-.575-.574.795-1.59a1.173,1.173,0,0,0-2.1-1.048l-1.172,2.344a1.172,1.172,0,0,0,.22,1.353Z" transform="translate(7.577 7.577)"/></g></g></g></svg>