<svg xmlns="http://www.w3.org/2000/svg" xmlns:xlink="http://www.w3.org/1999/xlink" width="148" height="149" viewBox="0 0 148 149"><defs><filter id="a" x="0" y="0" width="148" height="149" filterUnits="userSpaceOnUse"><feOffset dy="3" input="SourceAlpha"/><feGaussianBlur stdDeviation="3" result="b"/><feFlood flood-opacity="0.161"/><feComposite operator="in" in2="b"/><feComposite in="SourceGraphic"/></filter></defs><g transform="translate(2541 2930)"><g transform="matrix(1, 0, 0, 1, -2541, -2930)" filter="url(#a)"><ellipse cx="65" cy="65.5" rx="65" ry="65.5" transform="translate(9 6)" fill="#fff"/></g><g transform="translate(-2556.723 -2896.354)"><g transform="translate(64.275 1.03)"><path d="M134.049,7.5h33.506V41.009H134.049Z" transform="translate(-125.353 -7.5)" fill="#ffc73b"/><path d="M167.555,7.5V41.009H134.049V37.3h29.8V7.5Z" transform="translate(-125.353 -7.5)" fill="#ffa73e"/><path d="M228.278,7.5h-10.5V20.626l5.251-4.8,5.251,4.8Z" transform="translate(-197.579 -7.5)" fill="#ff5a39"/><g transform="translate(0 33.135)"><path d="M139.778,471.074H151.71v4.592H139.778Z" transform="translate(-130.295 -440.528)" fill="#4c7889"/><path d="M139.778,487.787H151.71v2.3H139.778Z" transform="translate(-130.295 -454.945)" fill="#364c59"/><path d="M91.272,268.25l-7.4-7.761a3.4,3.4,0,0,0-4.805-.225,3.485,3.485,0,0,0-.224,4.872l-2.9-3.181a2.5,2.5,0,0,1-.651-1.681V252.72a4.011,4.011,0,0,0-4.01-4.01h-.532V262.5a7.361,7.361,0,0,0,1.952,4.993l5.066,5.487a9.229,9.229,0,0,1,2.464,6.278H92.164v-8.779A3.23,3.23,0,0,0,91.272,268.25Z" transform="translate(-70.749 -248.71)" fill="#ffd9c0"/><path d="M92.164,276.508v2.747H80.232a9.228,9.228,0,0,0-2.464-6.278L72.7,267.491a7.361,7.361,0,0,1-1.952-4.993V248.71h.532a3.966,3.966,0,0,1,1.819.437v12.585a4.6,4.6,0,0,0,1.224,3.129l5.463,6.253a11.931,11.931,0,0,1,2.875,5.395Z" transform="translate(-70.749 -248.71)" fill="#ffbca1"/></g><g transform="translate(29.482 33.135)"><path d="M0,0H11.932V4.592H0Z" transform="translate(11.932 35.138) rotate(180)" fill="#4c7889"/><path d="M0,0H11.932V2.3H0Z" transform="translate(11.932 35.138) rotate(180)" fill="#364c59"/><path d="M285.365,270.473v8.779H297.3a9.228,9.228,0,0,1,2.464-6.278l5.066-5.487a7.361,7.361,0,0,0,1.952-4.993V248.707h-.532a4.011,4.011,0,0,0-4.01,4.01v7.553a2.5,2.5,0,0,1-.651,1.681l-2.9,3.182a3.485,3.485,0,0,0-.224-4.872,3.4,3.4,0,0,0-4.805.225l-7.4,7.761A3.23,3.23,0,0,0,285.365,270.473Z" transform="translate(-285.365 -248.707)" fill="#ffd9c0"/><path d="M285.365,276.505v2.747H297.3a9.229,9.229,0,0,1,2.464-6.278l5.066-5.487a7.361,7.361,0,0,0,1.952-4.993V248.707h-.532a3.967,3.967,0,0,0-1.819.437v12.584a4.6,4.6,0,0,1-1.224,3.129l-5.463,6.253a11.931,11.931,0,0,0-2.875,5.395Z" transform="translate(-285.365 -248.707)" fill="#ffbca1"/></g></g><g transform="translate(63.244)"><path d="M78.146,253.311A4.412,4.412,0,0,0,70.6,255.2l-.373-.41a1.465,1.465,0,0,1-.383-.988v-7.552a5.046,5.046,0,0,0-5.041-5.041h-.532a1.03,1.03,0,0,0-1.03,1.03v3.724a1.03,1.03,0,0,0,2.061,0v-2.652a2.985,2.985,0,0,1,2.481,2.938V253.8a3.521,3.521,0,0,0,.92,2.376l7.072,7.631a1.03,1.03,0,0,0,1.5-1.41l-4.158-4.432a2.451,2.451,0,0,1,.16-3.411,2.371,2.371,0,0,1,3.35.156l.016.017,7.4,7.762A2.187,2.187,0,0,1,84.659,264v7.75H74.736A10.226,10.226,0,0,0,72.05,265.8l-5.066-5.486a6.312,6.312,0,0,1-1.68-4.295v-5.275a1.03,1.03,0,0,0-2.061,0v5.275a8.368,8.368,0,0,0,2.226,5.693l5.068,5.488a8.179,8.179,0,0,1,2.189,5.578v4.592a1.03,1.03,0,0,0,1.03,1.03H85.689a1.03,1.03,0,0,0,1.03-1.03V264a4.238,4.238,0,0,0-1.176-2.938Zm6.513,23.033H74.788v-2.531h9.871Z" transform="translate(-63.244 -208.072)"/><path d="M300.309,251.479a1.03,1.03,0,0,0,1.03-1.03v-8.211a1.03,1.03,0,0,0-1.03-1.03h-.532a5.046,5.046,0,0,0-5.041,5.041V253.8a1.465,1.465,0,0,1-.383.988l-.373.41a4.42,4.42,0,0,0-7.544-1.885l-7.4,7.754a4.238,4.238,0,0,0-1.176,2.938v13.372a1.03,1.03,0,0,0,1.03,1.03h11.932a1.03,1.03,0,0,0,1.03-1.03v-4.592a8.179,8.179,0,0,1,2.191-5.58l5.066-5.486a8.367,8.367,0,0,0,2.227-5.693v-.788a1.03,1.03,0,0,0-2.061,0v.788a6.313,6.313,0,0,1-1.68,4.295l-5.065,5.484a10.228,10.228,0,0,0-2.687,5.949h-9.922V264a2.187,2.187,0,0,1,.607-1.515l7.4-7.762.016-.017a2.371,2.371,0,0,1,3.35-.156,2.451,2.451,0,0,1,.16,3.411L287.3,262.4a1.03,1.03,0,1,0,1.5,1.41l7.072-7.631a3.521,3.521,0,0,0,.92-2.376v-7.552a2.985,2.985,0,0,1,2.481-2.938v7.139A1.03,1.03,0,0,0,300.309,251.479ZM289.8,273.815v2.531h-9.871v-2.531Z" transform="translate(-248.382 -208.073)"/><path d="M127.575,35.569h33.506a1.03,1.03,0,0,0,1.03-1.03V1.03A1.03,1.03,0,0,0,161.081,0H127.575a1.03,1.03,0,0,0-1.03,1.03V5.488a1.03,1.03,0,1,0,2.061,0V2.061h9.442v12.1a1.03,1.03,0,0,0,1.725.76l4.556-4.165,4.556,4.165a1.03,1.03,0,0,0,1.726-.76V2.061h9.442V33.508H128.606V10.255a1.03,1.03,0,1,0-2.061,0V34.538A1.03,1.03,0,0,0,127.575,35.569Zm20.974-23.75L145.023,8.6a1.03,1.03,0,0,0-1.39,0l-3.525,3.223V2.061h8.441v9.758Z" transform="translate(-117.849)"/><path d="M170.841,205.643a1.03,1.03,0,0,0,0-2.061H167.8a1.03,1.03,0,0,0,0,2.061Z" transform="translate(-152.548 -175.616)"/><path d="M231.555,205.643a1.03,1.03,0,0,0,0-2.061h-6.882a1.03,1.03,0,0,0,0,2.061Z" transform="translate(-201.609 -175.616)"/></g></g></g></svg>