<svg xmlns="http://www.w3.org/2000/svg" xmlns:xlink="http://www.w3.org/1999/xlink" width="1042.85" height="273.57" viewBox="0 0 1042.85 273.57"><defs><clipPath id="a"><rect width="1030" height="273.57" fill="none"/></clipPath></defs><g transform="translate(-285 -1457)"><path d="M11.32,14.667a4.673,4.673,0,0,1-.721,2.36,4.35,4.35,0,0,1-1.85,1.586,6.3,6.3,0,0,1-2.72.563,5.025,5.025,0,0,1-3.973-1.644,6.786,6.786,0,0,1-1.45-4.641v-.633a7.746,7.746,0,0,1,.655-3.292,4.961,4.961,0,0,1,1.885-2.18,5.26,5.26,0,0,1,2.848-.769A5.516,5.516,0,0,1,9.738,7.245a4.844,4.844,0,0,1,1.608,3.379H8.271a2.292,2.292,0,0,0-.589-1.679,2.422,2.422,0,0,0-1.687-.51A1.843,1.843,0,0,0,4.307,9.3a5.536,5.536,0,0,0-.562,2.751v.905a6.125,6.125,0,0,0,.514,2.927,1.882,1.882,0,0,0,1.771.879,2.369,2.369,0,0,0,1.626-.5,2.126,2.126,0,0,0,.6-1.591ZM18,19a3.344,3.344,0,0,1-.281-.853,2.754,2.754,0,0,1-2.285,1.028,3.374,3.374,0,0,1-2.285-.813,2.588,2.588,0,0,1-.94-2.043,2.66,2.66,0,0,1,1.143-2.338,5.821,5.821,0,0,1,3.322-.791h.914v-.5q0-1.316-1.134-1.316A.927.927,0,0,0,15.4,12.413H12.437a2.655,2.655,0,0,1,1.173-2.239,4.931,4.931,0,0,1,2.993-.86,4.323,4.323,0,0,1,2.874.888,3.086,3.086,0,0,1,1.081,2.435v4.21a4.311,4.311,0,0,0,.4,2V19Zm-1.854-1.934a1.652,1.652,0,0,0,.918-.237,1.487,1.487,0,0,0,.523-.536V14.772h-.861q-1.547,0-1.547,1.389a.848.848,0,0,0,.272.655A.986.986,0,0,0,16.146,17.066Zm14.88-2.751a5.735,5.735,0,0,1-1,3.538,3.2,3.2,0,0,1-2.694,1.323,2.742,2.742,0,0,1-2.153-.958v4.438H22.219V9.49h2.769l.088.879a2.742,2.742,0,0,1,2.241-1.055,3.224,3.224,0,0,1,2.733,1.3,5.805,5.805,0,0,1,.976,3.564Zm-2.962-.185q0-2.531-1.477-2.531a1.394,1.394,0,0,0-1.406.756V16.1a1.439,1.439,0,0,0,1.424.791q1.415,0,1.459-2.443ZM37.688,19a3.344,3.344,0,0,1-.281-.853,2.754,2.754,0,0,1-2.285,1.028,3.374,3.374,0,0,1-2.285-.813,2.588,2.588,0,0,1-.94-2.043,2.66,2.66,0,0,1,1.143-2.338,5.821,5.821,0,0,1,3.322-.791h.914v-.5q0-1.316-1.134-1.316a.927.927,0,0,0-1.055,1.042H32.124A2.655,2.655,0,0,1,33.3,10.175a4.931,4.931,0,0,1,2.993-.86,4.323,4.323,0,0,1,2.874.888,3.086,3.086,0,0,1,1.081,2.435v4.21a4.311,4.311,0,0,0,.4,2V19Zm-1.854-1.934a1.652,1.652,0,0,0,.918-.237,1.487,1.487,0,0,0,.523-.536V14.772h-.861q-1.547,0-1.547,1.389a.848.848,0,0,0,.272.655A.986.986,0,0,0,35.833,17.066Zm10.072-.176a1.317,1.317,0,0,0,.967-.338,1.241,1.241,0,0,0,.334-.945h2.777a3.288,3.288,0,0,1-1.121,2.566,4.168,4.168,0,0,1-2.887,1,4.22,4.22,0,0,1-3.27-1.3,5.125,5.125,0,0,1-1.2-3.6v-.123a5.792,5.792,0,0,1,.532-2.544,3.872,3.872,0,0,1,1.534-1.7,4.573,4.573,0,0,1,2.373-.593,4.116,4.116,0,0,1,2.944,1.028,3.647,3.647,0,0,1,1.09,2.786H47.206A1.626,1.626,0,0,0,46.846,12a1.244,1.244,0,0,0-.967-.4q-1.151,0-1.345,1.468a10.357,10.357,0,0,0-.062,1.283,4.068,4.068,0,0,0,.343,1.986A1.187,1.187,0,0,0,45.905,16.891ZM54.36,19H51.39V9.49H54.36ZM51.214,7.038A1.322,1.322,0,0,1,51.671,6a1.943,1.943,0,0,1,2.373,0A1.322,1.322,0,0,1,54.5,7.038a1.322,1.322,0,0,1-.457,1.037,1.943,1.943,0,0,1-2.373,0A1.322,1.322,0,0,1,51.214,7.038Zm4.6,7.137a5.809,5.809,0,0,1,.976-3.56,3.211,3.211,0,0,1,2.725-1.3,2.731,2.731,0,0,1,2.145,1V5.5h2.971V19H61.963l-.149-1.02a2.8,2.8,0,0,1-2.32,1.2,3.205,3.205,0,0,1-2.689-1.3A5.993,5.993,0,0,1,55.811,14.175Zm2.962.185q0,2.531,1.477,2.531a1.458,1.458,0,0,0,1.406-.826V12.443a1.419,1.419,0,0,0-1.389-.844q-1.371,0-1.485,2.215ZM71.666,19a3.344,3.344,0,0,1-.281-.853A2.754,2.754,0,0,1,69.1,19.176a3.374,3.374,0,0,1-2.285-.813,2.588,2.588,0,0,1-.94-2.043,2.66,2.66,0,0,1,1.143-2.338,5.821,5.821,0,0,1,3.322-.791h.914v-.5q0-1.316-1.134-1.316a.927.927,0,0,0-1.055,1.042H66.1a2.655,2.655,0,0,1,1.173-2.239,4.931,4.931,0,0,1,2.993-.86,4.323,4.323,0,0,1,2.874.888,3.086,3.086,0,0,1,1.081,2.435v4.21a4.311,4.311,0,0,0,.4,2V19Zm-1.854-1.934a1.652,1.652,0,0,0,.918-.237,1.487,1.487,0,0,0,.523-.536V14.772h-.861q-1.547,0-1.547,1.389a.848.848,0,0,0,.272.655A.986.986,0,0,0,69.812,17.066Zm5.678-2.892a5.809,5.809,0,0,1,.976-3.56,3.211,3.211,0,0,1,2.725-1.3,2.731,2.731,0,0,1,2.145,1V5.5H84.3V19H81.642l-.149-1.02a2.8,2.8,0,0,1-2.32,1.2,3.205,3.205,0,0,1-2.689-1.3A5.993,5.993,0,0,1,75.489,14.175Zm2.962.185q0,2.531,1.477,2.531a1.458,1.458,0,0,0,1.406-.826V12.443a1.419,1.419,0,0,0-1.389-.844q-1.371,0-1.485,2.215ZM99.3,14.315a5.735,5.735,0,0,1-1,3.538,3.2,3.2,0,0,1-2.694,1.323,2.742,2.742,0,0,1-2.153-.958v4.438H90.492V9.49h2.769l.088.879A2.742,2.742,0,0,1,95.59,9.314a3.224,3.224,0,0,1,2.733,1.3,5.805,5.805,0,0,1,.976,3.564Zm-2.962-.185q0-2.531-1.477-2.531a1.394,1.394,0,0,0-1.406.756V16.1a1.439,1.439,0,0,0,1.424.791q1.415,0,1.459-2.443Zm10.02-1.96-.976-.07a1.752,1.752,0,0,0-1.793.879V19h-2.962V9.49H103.4l.1,1.222a2.294,2.294,0,0,1,2.083-1.4,2.888,2.888,0,0,1,.826.105Zm.378,1.986a5.613,5.613,0,0,1,.554-2.536,3.96,3.96,0,0,1,1.591-1.709,4.791,4.791,0,0,1,2.435-.6,4.373,4.373,0,0,1,3.366,1.323,5.076,5.076,0,0,1,1.23,3.6v.105a4.925,4.925,0,0,1-1.235,3.529,4.384,4.384,0,0,1-3.344,1.305,4.434,4.434,0,0,1-3.261-1.217,4.761,4.761,0,0,1-1.327-3.3Zm2.962.185a3.538,3.538,0,0,0,.413,1.934,1.376,1.376,0,0,0,1.222.615q1.582,0,1.617-2.435v-.3q0-2.558-1.635-2.558-1.485,0-1.608,2.206Zm7.146-.167a5.809,5.809,0,0,1,.976-3.56,3.211,3.211,0,0,1,2.725-1.3,2.731,2.731,0,0,1,2.145,1V5.5h2.971V19h-2.663l-.149-1.02a2.8,2.8,0,0,1-2.32,1.2,3.205,3.205,0,0,1-2.689-1.3A5.993,5.993,0,0,1,116.842,14.175Zm2.962.185q0,2.531,1.477,2.531a1.458,1.458,0,0,0,1.406-.826V12.443A1.419,1.419,0,0,0,121.3,11.6q-1.371,0-1.485,2.215ZM133,17.972a3.054,3.054,0,0,1-2.54,1.2,3,3,0,0,1-2.369-.91,3.826,3.826,0,0,1-.8-2.615V9.49h2.962v6.179a1.065,1.065,0,0,0,1.187,1.222,1.548,1.548,0,0,0,1.45-.729V9.49h2.979V19h-2.777Zm8.508-1.081a1.317,1.317,0,0,0,.967-.338,1.241,1.241,0,0,0,.334-.945h2.777a3.288,3.288,0,0,1-1.121,2.566,4.168,4.168,0,0,1-2.887,1,4.22,4.22,0,0,1-3.27-1.3,5.125,5.125,0,0,1-1.2-3.6v-.123a5.792,5.792,0,0,1,.532-2.544,3.872,3.872,0,0,1,1.534-1.7,4.573,4.573,0,0,1,2.373-.593,4.116,4.116,0,0,1,2.944,1.028,3.647,3.647,0,0,1,1.09,2.786h-2.777a1.626,1.626,0,0,0-.36-1.134,1.244,1.244,0,0,0-.967-.4q-1.151,0-1.345,1.468a10.357,10.357,0,0,0-.062,1.283,4.068,4.068,0,0,0,.343,1.986A1.187,1.187,0,0,0,141.513,16.891Zm9.352,0a1.317,1.317,0,0,0,.967-.338,1.241,1.241,0,0,0,.334-.945h2.777a3.288,3.288,0,0,1-1.121,2.566,4.168,4.168,0,0,1-2.887,1,4.22,4.22,0,0,1-3.27-1.3,5.125,5.125,0,0,1-1.2-3.6v-.123A5.792,5.792,0,0,1,147,11.6a3.872,3.872,0,0,1,1.534-1.7,4.573,4.573,0,0,1,2.373-.593,4.116,4.116,0,0,1,2.944,1.028,3.647,3.647,0,0,1,1.09,2.786h-2.777A1.626,1.626,0,0,0,151.8,12a1.244,1.244,0,0,0-.967-.4q-1.151,0-1.345,1.468a10.357,10.357,0,0,0-.062,1.283,4.068,4.068,0,0,0,.343,1.986A1.187,1.187,0,0,0,150.864,16.891ZM159.319,19h-2.971V9.49h2.971ZM156.173,7.038A1.322,1.322,0,0,1,156.63,6,1.943,1.943,0,0,1,159,6a1.322,1.322,0,0,1,.457,1.037A1.322,1.322,0,0,1,159,8.075a1.943,1.943,0,0,1-2.373,0A1.322,1.322,0,0,1,156.173,7.038Zm4.6,7.119a5.613,5.613,0,0,1,.554-2.536,3.96,3.96,0,0,1,1.591-1.709,4.791,4.791,0,0,1,2.435-.6,4.373,4.373,0,0,1,3.366,1.323,5.076,5.076,0,0,1,1.23,3.6v.105a4.925,4.925,0,0,1-1.235,3.529,4.384,4.384,0,0,1-3.344,1.305,4.434,4.434,0,0,1-3.261-1.217,4.761,4.761,0,0,1-1.327-3.3Zm2.962.185a3.538,3.538,0,0,0,.413,1.934,1.376,1.376,0,0,0,1.222.615q1.582,0,1.617-2.435v-.3q0-2.558-1.635-2.558-1.485,0-1.608,2.206ZM165.753,5.5h3.129l-2.443,2.76-2.417,0Zm8.218,3.99.1,1.116a3.225,3.225,0,0,1,2.716-1.292A2.713,2.713,0,0,1,179,10.2a4.226,4.226,0,0,1,.76,2.672V19h-2.971V13a1.6,1.6,0,0,0-.29-1.059,1.342,1.342,0,0,0-1.055-.338,1.413,1.413,0,0,0-1.292.686V19h-2.962V9.49Z" transform="translate(285 1691)" fill="#12263f"/><path d="M11.32,14.667a4.673,4.673,0,0,1-.721,2.36,4.35,4.35,0,0,1-1.85,1.586,6.3,6.3,0,0,1-2.72.563,5.025,5.025,0,0,1-3.973-1.644,6.786,6.786,0,0,1-1.45-4.641v-.633a7.746,7.746,0,0,1,.655-3.292,4.961,4.961,0,0,1,1.885-2.18,5.26,5.26,0,0,1,2.848-.769A5.516,5.516,0,0,1,9.738,7.245a4.844,4.844,0,0,1,1.608,3.379H8.271a2.292,2.292,0,0,0-.589-1.679,2.422,2.422,0,0,0-1.687-.51A1.843,1.843,0,0,0,4.307,9.3a5.536,5.536,0,0,0-.562,2.751v.905a6.125,6.125,0,0,0,.514,2.927,1.882,1.882,0,0,0,1.771.879,2.369,2.369,0,0,0,1.626-.5,2.126,2.126,0,0,0,.6-1.591ZM18,19a3.344,3.344,0,0,1-.281-.853,2.754,2.754,0,0,1-2.285,1.028,3.374,3.374,0,0,1-2.285-.813,2.588,2.588,0,0,1-.94-2.043,2.66,2.66,0,0,1,1.143-2.338,5.821,5.821,0,0,1,3.322-.791h.914v-.5q0-1.316-1.134-1.316A.927.927,0,0,0,15.4,12.413H12.437a2.655,2.655,0,0,1,1.173-2.239,4.931,4.931,0,0,1,2.993-.86,4.323,4.323,0,0,1,2.874.888,3.086,3.086,0,0,1,1.081,2.435v4.21a4.311,4.311,0,0,0,.4,2V19Zm-1.854-1.934a1.652,1.652,0,0,0,.918-.237,1.487,1.487,0,0,0,.523-.536V14.772h-.861q-1.547,0-1.547,1.389a.848.848,0,0,0,.272.655A.986.986,0,0,0,16.146,17.066Zm11.8-4.9-.976-.07a1.752,1.752,0,0,0-1.793.879V19H22.219V9.49H25l.1,1.222a2.294,2.294,0,0,1,2.083-1.4A2.888,2.888,0,0,1,28,9.42Zm.721,2a6.421,6.421,0,0,1,.475-2.549,3.821,3.821,0,0,1,1.362-1.709,3.591,3.591,0,0,1,2.065-.6,2.855,2.855,0,0,1,2.32,1L35,9.49h2.689V18.64a4.009,4.009,0,0,1-.584,2.184,3.75,3.75,0,0,1-1.692,1.424,6.219,6.219,0,0,1-2.566.5,5.365,5.365,0,0,1-2.026-.4,3.657,3.657,0,0,1-1.5-1.028l1.239-1.74a2.716,2.716,0,0,0,2.18.976,1.764,1.764,0,0,0,1.969-2.021v-.3a2.781,2.781,0,0,1-2.153.94,3.437,3.437,0,0,1-2.812-1.332A5.517,5.517,0,0,1,28.67,14.28Zm2.971.185a3.383,3.383,0,0,0,.439,1.85,1.387,1.387,0,0,0,1.23.681,1.573,1.573,0,0,0,1.4-.642v-4a1.534,1.534,0,0,0-1.38-.65,1.4,1.4,0,0,0-1.239.708A3.858,3.858,0,0,0,31.641,14.359ZM44.728,19a3.344,3.344,0,0,1-.281-.853,2.754,2.754,0,0,1-2.285,1.028,3.374,3.374,0,0,1-2.285-.813,2.588,2.588,0,0,1-.94-2.043,2.66,2.66,0,0,1,1.143-2.338A5.821,5.821,0,0,1,43.4,13.19h.914v-.5q0-1.316-1.134-1.316a.927.927,0,0,0-1.055,1.042H39.164a2.655,2.655,0,0,1,1.173-2.239,4.931,4.931,0,0,1,2.993-.86A4.323,4.323,0,0,1,46.2,10.2a3.086,3.086,0,0,1,1.081,2.435v4.21a4.311,4.311,0,0,0,.4,2V19Zm-1.854-1.934a1.652,1.652,0,0,0,.918-.237,1.487,1.487,0,0,0,.523-.536V14.772h-.861q-1.547,0-1.547,1.389a.848.848,0,0,0,.272.655A.986.986,0,0,0,42.873,17.066Zm10.16-2.892a5.809,5.809,0,0,1,.976-3.56,3.211,3.211,0,0,1,2.725-1.3,2.731,2.731,0,0,1,2.145,1V5.5h2.971V19H59.186l-.149-1.02a2.8,2.8,0,0,1-2.32,1.2,3.205,3.205,0,0,1-2.689-1.3A5.993,5.993,0,0,1,53.033,14.175ZM56,14.359q0,2.531,1.477,2.531a1.458,1.458,0,0,0,1.406-.826V12.443a1.419,1.419,0,0,0-1.389-.844q-1.371,0-1.485,2.215Zm12.138,4.816a4.889,4.889,0,0,1-3.542-1.305,4.507,4.507,0,0,1-1.354-3.4v-.246a5.84,5.84,0,0,1,.541-2.575,3.955,3.955,0,0,1,1.578-1.727,4.763,4.763,0,0,1,2.461-.611,4.117,4.117,0,0,1,3.164,1.244,4.887,4.887,0,0,1,1.16,3.467v1.151H66.252a2.135,2.135,0,0,0,.694,1.257,2.066,2.066,0,0,0,1.389.457,2.662,2.662,0,0,0,2.2-.984l1.354,1.6a3.784,3.784,0,0,1-1.569,1.217A5.3,5.3,0,0,1,68.133,19.176ZM67.8,11.6q-1.3,0-1.547,1.723H69.24v-.229a1.467,1.467,0,0,0-.36-1.1A1.434,1.434,0,0,0,67.8,11.6ZM80.938,19H77.968V9.49h2.971ZM77.792,7.038A1.322,1.322,0,0,1,78.249,6a1.943,1.943,0,0,1,2.373,0,1.322,1.322,0,0,1,.457,1.037,1.322,1.322,0,0,1-.457,1.037,1.943,1.943,0,0,1-2.373,0A1.322,1.322,0,0,1,77.792,7.038Zm7.69,2.452.1,1.116a3.225,3.225,0,0,1,2.716-1.292,2.713,2.713,0,0,1,2.219.888,4.226,4.226,0,0,1,.76,2.672V19H88.3V13a1.6,1.6,0,0,0-.29-1.059,1.342,1.342,0,0,0-1.055-.338,1.413,1.413,0,0,0-1.292.686V19H82.705V9.49Zm12.41,6.838a.684.684,0,0,0-.4-.606,6.016,6.016,0,0,0-1.5-.475,6.853,6.853,0,0,1-1.828-.646,3.062,3.062,0,0,1-1.1-.971,2.319,2.319,0,0,1-.378-1.31,2.628,2.628,0,0,1,1.081-2.158,4.453,4.453,0,0,1,2.83-.848,4.934,4.934,0,0,1,3.023.853,2.666,2.666,0,0,1,1.143,2.241H97.8q0-1.143-1.2-1.143a1.194,1.194,0,0,0-.782.259.8.8,0,0,0-.316.646.737.737,0,0,0,.387.642,3.654,3.654,0,0,0,1.235.4,10.671,10.671,0,0,1,1.49.378,2.706,2.706,0,0,1,2.145,2.646,2.491,2.491,0,0,1-1.156,2.118,5.068,5.068,0,0,1-2.993.817,5.172,5.172,0,0,1-2.18-.439,3.645,3.645,0,0,1-1.494-1.2,2.707,2.707,0,0,1-.536-1.591h2.769a1.145,1.145,0,0,0,.439.962,1.808,1.808,0,0,0,1.081.3,1.422,1.422,0,0,0,.91-.246A.787.787,0,0,0,97.893,16.328Zm7.69-9.2V9.49h1.564v2.057h-1.564V15.9a1.111,1.111,0,0,0,.193.747,1.037,1.037,0,0,0,.765.211,4.345,4.345,0,0,0,.738-.053v2.118a5.466,5.466,0,0,1-1.67.255,3.1,3.1,0,0,1-2.259-.721,2.954,2.954,0,0,1-.729-2.188v-4.72h-1.213V9.49h1.213V7.126ZM113.669,19a3.344,3.344,0,0,1-.281-.853,2.754,2.754,0,0,1-2.285,1.028,3.374,3.374,0,0,1-2.285-.813,2.588,2.588,0,0,1-.94-2.043,2.66,2.66,0,0,1,1.143-2.338,5.821,5.821,0,0,1,3.322-.791h.914v-.5q0-1.316-1.134-1.316a.927.927,0,0,0-1.055,1.042h-2.962a2.655,2.655,0,0,1,1.173-2.239,4.931,4.931,0,0,1,2.993-.86,4.323,4.323,0,0,1,2.874.888,3.086,3.086,0,0,1,1.081,2.435v4.21a4.311,4.311,0,0,0,.4,2V19Zm-1.854-1.934a1.652,1.652,0,0,0,.918-.237,1.487,1.487,0,0,0,.523-.536V14.772h-.861q-1.547,0-1.547,1.389a.848.848,0,0,0,.272.655A.986.986,0,0,0,111.814,17.066ZM120.99,19H118.02V5.5h2.971Zm7.181,0a3.344,3.344,0,0,1-.281-.853,2.754,2.754,0,0,1-2.285,1.028,3.374,3.374,0,0,1-2.285-.813,2.588,2.588,0,0,1-.94-2.043,2.66,2.66,0,0,1,1.143-2.338,5.821,5.821,0,0,1,3.322-.791h.914v-.5q0-1.316-1.134-1.316a.927.927,0,0,0-1.055,1.042h-2.962a2.655,2.655,0,0,1,1.173-2.239,4.931,4.931,0,0,1,2.993-.86,4.323,4.323,0,0,1,2.874.888,3.086,3.086,0,0,1,1.081,2.435v4.21a4.311,4.311,0,0,0,.4,2V19Zm-1.854-1.934a1.652,1.652,0,0,0,.918-.237,1.487,1.487,0,0,0,.523-.536V14.772H126.9q-1.547,0-1.547,1.389a.848.848,0,0,0,.272.655A.986.986,0,0,0,126.316,17.066Zm10.072-.176a1.317,1.317,0,0,0,.967-.338,1.241,1.241,0,0,0,.334-.945h2.777a3.288,3.288,0,0,1-1.121,2.566,4.168,4.168,0,0,1-2.887,1,4.22,4.22,0,0,1-3.27-1.3,5.125,5.125,0,0,1-1.2-3.6v-.123a5.792,5.792,0,0,1,.532-2.544,3.872,3.872,0,0,1,1.534-1.7,4.573,4.573,0,0,1,2.373-.593,4.116,4.116,0,0,1,2.944,1.028,3.647,3.647,0,0,1,1.09,2.786h-2.777a1.626,1.626,0,0,0-.36-1.134,1.244,1.244,0,0,0-.967-.4q-1.151,0-1.345,1.468a10.357,10.357,0,0,0-.062,1.283,4.068,4.068,0,0,0,.343,1.986A1.187,1.187,0,0,0,136.389,16.891ZM144.844,19h-2.971V9.49h2.971ZM141.7,7.038A1.322,1.322,0,0,1,142.154,6a1.943,1.943,0,0,1,2.373,0,1.322,1.322,0,0,1,.457,1.037,1.322,1.322,0,0,1-.457,1.037,1.943,1.943,0,0,1-2.373,0A1.322,1.322,0,0,1,141.7,7.038Zm4.6,7.119a5.613,5.613,0,0,1,.554-2.536,3.96,3.96,0,0,1,1.591-1.709,4.791,4.791,0,0,1,2.435-.6,4.373,4.373,0,0,1,3.366,1.323,5.076,5.076,0,0,1,1.23,3.6v.105a4.925,4.925,0,0,1-1.235,3.529,4.384,4.384,0,0,1-3.344,1.305,4.434,4.434,0,0,1-3.261-1.217,4.761,4.761,0,0,1-1.327-3.3Zm2.962.185a3.538,3.538,0,0,0,.413,1.934,1.376,1.376,0,0,0,1.222.615q1.582,0,1.617-2.435v-.3q0-2.558-1.635-2.558-1.485,0-1.608,2.206ZM159.5,9.49l.1,1.116a3.225,3.225,0,0,1,2.716-1.292,2.713,2.713,0,0,1,2.219.888,4.226,4.226,0,0,1,.76,2.672V19h-2.971V13a1.6,1.6,0,0,0-.29-1.059,1.342,1.342,0,0,0-1.055-.338,1.413,1.413,0,0,0-1.292.686V19h-2.962V9.49Zm12.032,9.686a4.889,4.889,0,0,1-3.542-1.305,4.507,4.507,0,0,1-1.354-3.4v-.246a5.84,5.84,0,0,1,.541-2.575,3.955,3.955,0,0,1,1.578-1.727,4.763,4.763,0,0,1,2.461-.611,4.117,4.117,0,0,1,3.164,1.244,4.887,4.887,0,0,1,1.16,3.467v1.151h-5.889a2.135,2.135,0,0,0,.694,1.257,2.066,2.066,0,0,0,1.389.457,2.662,2.662,0,0,0,2.2-.984l1.354,1.6a3.784,3.784,0,0,1-1.569,1.217A5.3,5.3,0,0,1,171.527,19.176Zm-.334-7.576q-1.3,0-1.547,1.723h2.988v-.229a1.467,1.467,0,0,0-.36-1.1A1.434,1.434,0,0,0,171.193,11.6Zm10.512,4.729a.684.684,0,0,0-.4-.606,6.016,6.016,0,0,0-1.5-.475,6.853,6.853,0,0,1-1.828-.646,3.062,3.062,0,0,1-1.1-.971,2.319,2.319,0,0,1-.378-1.31,2.628,2.628,0,0,1,1.081-2.158,4.453,4.453,0,0,1,2.83-.848,4.934,4.934,0,0,1,3.023.853,2.666,2.666,0,0,1,1.143,2.241h-2.971q0-1.143-1.2-1.143a1.194,1.194,0,0,0-.782.259.8.8,0,0,0-.316.646.737.737,0,0,0,.387.642,3.654,3.654,0,0,0,1.235.4,10.671,10.671,0,0,1,1.49.378,2.706,2.706,0,0,1,2.145,2.646,2.491,2.491,0,0,1-1.156,2.118,5.068,5.068,0,0,1-2.993.817,5.172,5.172,0,0,1-2.18-.439,3.645,3.645,0,0,1-1.494-1.2,2.707,2.707,0,0,1-.536-1.591h2.769a1.145,1.145,0,0,0,.439.962,1.808,1.808,0,0,0,1.081.3,1.422,1.422,0,0,0,.91-.246A.787.787,0,0,0,181.705,16.328Z" transform="translate(502 1474)" fill="#12263f"/><path d="M11.654,19H8.587L4.052,11.037V19H.967V6.2H4.052l4.526,7.963V6.2h3.076Zm4.939,0H13.623V9.49h2.971ZM13.447,7.038A1.322,1.322,0,0,1,13.9,6a1.943,1.943,0,0,1,2.373,0,1.322,1.322,0,0,1,.457,1.037,1.322,1.322,0,0,1-.457,1.037,1.943,1.943,0,0,1-2.373,0A1.322,1.322,0,0,1,13.447,7.038Zm8.763,8.438,1.5-5.985h3.12L23.73,19H20.707L17.6,9.49h3.129Zm10.107,3.7a4.889,4.889,0,0,1-3.542-1.305,4.507,4.507,0,0,1-1.354-3.4v-.246a5.84,5.84,0,0,1,.541-2.575A3.955,3.955,0,0,1,29.54,9.925,4.763,4.763,0,0,1,32,9.314a4.117,4.117,0,0,1,3.164,1.244,4.887,4.887,0,0,1,1.16,3.467v1.151H30.437a2.135,2.135,0,0,0,.694,1.257,2.066,2.066,0,0,0,1.389.457,2.662,2.662,0,0,0,2.2-.984l1.354,1.6A3.784,3.784,0,0,1,34.5,18.723,5.3,5.3,0,0,1,32.317,19.176ZM31.983,11.6q-1.3,0-1.547,1.723h2.988v-.229a1.467,1.467,0,0,0-.36-1.1A1.434,1.434,0,0,0,31.983,11.6ZM40.641,19H37.67V5.5h2.971Zm6.425.176a4.889,4.889,0,0,1-3.542-1.305,4.507,4.507,0,0,1-1.354-3.4v-.246a5.84,5.84,0,0,1,.541-2.575,3.955,3.955,0,0,1,1.578-1.727,4.763,4.763,0,0,1,2.461-.611,4.117,4.117,0,0,1,3.164,1.244,4.887,4.887,0,0,1,1.16,3.467v1.151H45.185a2.135,2.135,0,0,0,.694,1.257,2.066,2.066,0,0,0,1.389.457,2.662,2.662,0,0,0,2.2-.984l1.354,1.6a3.784,3.784,0,0,1-1.569,1.217A5.3,5.3,0,0,1,47.065,19.176ZM46.731,11.6q-1.3,0-1.547,1.723h2.988v-.229a1.467,1.467,0,0,0-.36-1.1A1.434,1.434,0,0,0,46.731,11.6Zm10.512,4.729a.684.684,0,0,0-.4-.606,6.016,6.016,0,0,0-1.5-.475,6.853,6.853,0,0,1-1.828-.646,3.062,3.062,0,0,1-1.1-.971,2.319,2.319,0,0,1-.378-1.31,2.628,2.628,0,0,1,1.081-2.158,4.453,4.453,0,0,1,2.83-.848,4.934,4.934,0,0,1,3.023.853,2.666,2.666,0,0,1,1.143,2.241H57.146q0-1.143-1.2-1.143a1.194,1.194,0,0,0-.782.259.8.8,0,0,0-.316.646.737.737,0,0,0,.387.642,3.654,3.654,0,0,0,1.235.4,10.671,10.671,0,0,1,1.49.378A2.706,2.706,0,0,1,60.1,16.24a2.491,2.491,0,0,1-1.156,2.118,5.068,5.068,0,0,1-2.993.817,5.172,5.172,0,0,1-2.18-.439,3.645,3.645,0,0,1-1.494-1.2,2.707,2.707,0,0,1-.536-1.591H54.51a1.145,1.145,0,0,0,.439.962,1.808,1.808,0,0,0,1.081.3,1.422,1.422,0,0,0,.91-.246A.787.787,0,0,0,57.243,16.328Zm8.35-2.153a5.809,5.809,0,0,1,.976-3.56,3.211,3.211,0,0,1,2.725-1.3,2.731,2.731,0,0,1,2.145,1V5.5h2.971V19H71.745L71.6,17.98a2.8,2.8,0,0,1-2.32,1.2,3.205,3.205,0,0,1-2.689-1.3A5.993,5.993,0,0,1,65.593,14.175Zm2.962.185q0,2.531,1.477,2.531a1.458,1.458,0,0,0,1.406-.826V12.443a1.419,1.419,0,0,0-1.389-.844q-1.371,0-1.485,2.215Zm12.138,4.816a4.889,4.889,0,0,1-3.542-1.305,4.507,4.507,0,0,1-1.354-3.4v-.246a5.84,5.84,0,0,1,.541-2.575,3.955,3.955,0,0,1,1.578-1.727,4.763,4.763,0,0,1,2.461-.611,4.117,4.117,0,0,1,3.164,1.244,4.887,4.887,0,0,1,1.16,3.467v1.151H78.812a2.135,2.135,0,0,0,.694,1.257,2.066,2.066,0,0,0,1.389.457,2.662,2.662,0,0,0,2.2-.984l1.354,1.6a3.784,3.784,0,0,1-1.569,1.217A5.3,5.3,0,0,1,80.692,19.176ZM80.358,11.6q-1.3,0-1.547,1.723H81.8v-.229a1.467,1.467,0,0,0-.36-1.1A1.434,1.434,0,0,0,80.358,11.6ZM93.5,19H90.527V9.49H93.5ZM90.352,7.038A1.322,1.322,0,0,1,90.809,6a1.943,1.943,0,0,1,2.373,0,1.322,1.322,0,0,1,.457,1.037,1.322,1.322,0,0,1-.457,1.037,1.943,1.943,0,0,1-2.373,0A1.322,1.322,0,0,1,90.352,7.038Zm7.69,2.452.1,1.116a3.225,3.225,0,0,1,2.716-1.292,2.713,2.713,0,0,1,2.219.888,4.226,4.226,0,0,1,.76,2.672V19h-2.971V13a1.6,1.6,0,0,0-.29-1.059,1.342,1.342,0,0,0-1.055-.338,1.413,1.413,0,0,0-1.292.686V19H95.265V9.49Zm11.224,5.985,1.5-5.985h3.12l-3.1,9.51h-3.023l-3.1-9.51h3.129Zm10.107,3.7a4.889,4.889,0,0,1-3.542-1.305,4.507,4.507,0,0,1-1.354-3.4v-.246a5.84,5.84,0,0,1,.541-2.575A3.955,3.955,0,0,1,116.6,9.925a4.763,4.763,0,0,1,2.461-.611,4.117,4.117,0,0,1,3.164,1.244,4.887,4.887,0,0,1,1.16,3.467v1.151h-5.889a2.135,2.135,0,0,0,.694,1.257,2.066,2.066,0,0,0,1.389.457,2.662,2.662,0,0,0,2.2-.984l1.354,1.6a3.784,3.784,0,0,1-1.569,1.217A5.3,5.3,0,0,1,119.373,19.176Zm-.334-7.576q-1.3,0-1.547,1.723h2.988v-.229a1.467,1.467,0,0,0-.36-1.1A1.434,1.434,0,0,0,119.039,11.6Zm8.253-2.109.1,1.116A3.225,3.225,0,0,1,130.1,9.314a2.713,2.713,0,0,1,2.219.888,4.226,4.226,0,0,1,.76,2.672V19h-2.971V13a1.6,1.6,0,0,0-.29-1.059,1.342,1.342,0,0,0-1.055-.338,1.413,1.413,0,0,0-1.292.686V19h-2.962V9.49Zm10.881-2.364V9.49h1.564v2.057h-1.564V15.9a1.111,1.111,0,0,0,.193.747,1.037,1.037,0,0,0,.765.211,4.345,4.345,0,0,0,.738-.053v2.118a5.466,5.466,0,0,1-1.67.255,3.1,3.1,0,0,1-2.259-.721,2.954,2.954,0,0,1-.729-2.188v-4.72H134V9.49h1.213V7.126ZM146.259,19a3.344,3.344,0,0,1-.281-.853,2.754,2.754,0,0,1-2.285,1.028,3.374,3.374,0,0,1-2.285-.813,2.588,2.588,0,0,1-.94-2.043,2.66,2.66,0,0,1,1.143-2.338,5.821,5.821,0,0,1,3.322-.791h.914v-.5q0-1.316-1.134-1.316a.927.927,0,0,0-1.055,1.042H140.7a2.655,2.655,0,0,1,1.173-2.239,4.931,4.931,0,0,1,2.993-.86,4.323,4.323,0,0,1,2.874.888,3.086,3.086,0,0,1,1.081,2.435v4.21a4.311,4.311,0,0,0,.4,2V19ZM144.4,17.066a1.652,1.652,0,0,0,.918-.237,1.487,1.487,0,0,0,.523-.536V14.772h-.861q-1.547,0-1.547,1.389a.848.848,0,0,0,.272.655A.986.986,0,0,0,144.4,17.066Zm11.8-4.9-.976-.07a1.752,1.752,0,0,0-1.793.879V19h-2.962V9.49h2.777l.1,1.222a2.294,2.294,0,0,1,2.083-1.4,2.888,2.888,0,0,1,.826.105ZM160.4,19H157.43V9.49H160.4ZM157.254,7.038A1.322,1.322,0,0,1,157.711,6a1.943,1.943,0,0,1,2.373,0,1.322,1.322,0,0,1,.457,1.037,1.322,1.322,0,0,1-.457,1.037,1.943,1.943,0,0,1-2.373,0A1.322,1.322,0,0,1,157.254,7.038Zm4.6,7.119a5.613,5.613,0,0,1,.554-2.536A3.96,3.96,0,0,1,164,9.912a4.791,4.791,0,0,1,2.435-.6,4.373,4.373,0,0,1,3.366,1.323,5.076,5.076,0,0,1,1.23,3.6v.105a4.925,4.925,0,0,1-1.235,3.529,4.384,4.384,0,0,1-3.344,1.305,4.434,4.434,0,0,1-3.261-1.217,4.761,4.761,0,0,1-1.327-3.3Zm2.962.185a3.538,3.538,0,0,0,.413,1.934,1.376,1.376,0,0,0,1.222.615q1.582,0,1.617-2.435v-.3q0-2.558-1.635-2.558-1.485,0-1.608,2.206Z" transform="translate(712 1689)" fill="#12263f"/><path d="M4.052,14.658V19H.967V6.2H6.073a5.948,5.948,0,0,1,2.6.541,4.074,4.074,0,0,1,1.749,1.538,4.2,4.2,0,0,1,.62,2.263A3.7,3.7,0,0,1,9.7,13.538a5.561,5.561,0,0,1-3.678,1.121Zm0-2.382H6.073a1.906,1.906,0,0,0,1.367-.448,1.665,1.665,0,0,0,.47-1.266A2.059,2.059,0,0,0,7.427,9.13a1.712,1.712,0,0,0-1.318-.545H4.052Zm13.1,6.9a4.889,4.889,0,0,1-3.542-1.305,4.507,4.507,0,0,1-1.354-3.4v-.246a5.84,5.84,0,0,1,.541-2.575A3.955,3.955,0,0,1,14.37,9.925a4.763,4.763,0,0,1,2.461-.611A4.117,4.117,0,0,1,20,10.558a4.887,4.887,0,0,1,1.16,3.467v1.151H15.267a2.135,2.135,0,0,0,.694,1.257,2.066,2.066,0,0,0,1.389.457,2.662,2.662,0,0,0,2.2-.984l1.354,1.6a3.784,3.784,0,0,1-1.569,1.217A5.3,5.3,0,0,1,17.147,19.176ZM16.813,11.6q-1.3,0-1.547,1.723h2.988v-.229a1.467,1.467,0,0,0-.36-1.1A1.434,1.434,0,0,0,16.813,11.6Zm5.159,2.575a5.809,5.809,0,0,1,.976-3.56,3.211,3.211,0,0,1,2.725-1.3,2.731,2.731,0,0,1,2.145,1V5.5h2.971V19H28.125l-.149-1.02a2.8,2.8,0,0,1-2.32,1.2,3.205,3.205,0,0,1-2.689-1.3A5.993,5.993,0,0,1,21.973,14.175Zm2.962.185q0,2.531,1.477,2.531a1.458,1.458,0,0,0,1.406-.826V12.443a1.419,1.419,0,0,0-1.389-.844q-1.371,0-1.485,2.215ZM35.6,19H32.625V9.49H35.6ZM32.449,7.038A1.322,1.322,0,0,1,32.906,6a1.943,1.943,0,0,1,2.373,0,1.322,1.322,0,0,1,.457,1.037,1.322,1.322,0,0,1-.457,1.037,1.943,1.943,0,0,1-2.373,0A1.322,1.322,0,0,1,32.449,7.038Zm4.6,7.137a5.809,5.809,0,0,1,.976-3.56,3.211,3.211,0,0,1,2.725-1.3,2.731,2.731,0,0,1,2.145,1V5.5h2.971V19H43.2l-.149-1.02a2.8,2.8,0,0,1-2.32,1.2,3.205,3.205,0,0,1-2.689-1.3A5.993,5.993,0,0,1,37.046,14.175Zm2.962.185q0,2.531,1.477,2.531a1.458,1.458,0,0,0,1.406-.826V12.443A1.419,1.419,0,0,0,41.5,11.6q-1.371,0-1.485,2.215Zm7.163-.2a5.613,5.613,0,0,1,.554-2.536,3.96,3.96,0,0,1,1.591-1.709,4.791,4.791,0,0,1,2.435-.6,4.373,4.373,0,0,1,3.366,1.323,5.076,5.076,0,0,1,1.23,3.6v.105a4.925,4.925,0,0,1-1.235,3.529,4.384,4.384,0,0,1-3.344,1.305,4.434,4.434,0,0,1-3.261-1.217,4.761,4.761,0,0,1-1.327-3.3Zm2.962.185a3.538,3.538,0,0,0,.413,1.934,1.376,1.376,0,0,0,1.222.615q1.582,0,1.617-2.435v-.3q0-2.558-1.635-2.558-1.485,0-1.608,2.206Zm12.5,1.986a.684.684,0,0,0-.4-.606,6.016,6.016,0,0,0-1.5-.475A6.853,6.853,0,0,1,58.9,14.6a3.062,3.062,0,0,1-1.1-.971,2.319,2.319,0,0,1-.378-1.31,2.628,2.628,0,0,1,1.081-2.158,4.453,4.453,0,0,1,2.83-.848,4.934,4.934,0,0,1,3.023.853A2.666,2.666,0,0,1,65.5,12.408H62.534q0-1.143-1.2-1.143a1.194,1.194,0,0,0-.782.259.8.8,0,0,0-.316.646.737.737,0,0,0,.387.642,3.654,3.654,0,0,0,1.235.4,10.671,10.671,0,0,1,1.49.378,2.706,2.706,0,0,1,2.145,2.646,2.491,2.491,0,0,1-1.156,2.118,5.068,5.068,0,0,1-2.993.817,5.172,5.172,0,0,1-2.18-.439,3.645,3.645,0,0,1-1.494-1.2,2.707,2.707,0,0,1-.536-1.591H59.9a1.145,1.145,0,0,0,.439.962,1.808,1.808,0,0,0,1.081.3,1.422,1.422,0,0,0,.91-.246A.787.787,0,0,0,62.631,16.328Zm8.35-2.153a5.809,5.809,0,0,1,.976-3.56,3.211,3.211,0,0,1,2.725-1.3,2.731,2.731,0,0,1,2.145,1V5.5H79.8V19H77.133l-.149-1.02a2.8,2.8,0,0,1-2.32,1.2,3.205,3.205,0,0,1-2.689-1.3A5.993,5.993,0,0,1,70.98,14.175Zm2.962.185q0,2.531,1.477,2.531a1.458,1.458,0,0,0,1.406-.826V12.443a1.419,1.419,0,0,0-1.389-.844q-1.371,0-1.485,2.215ZM86.08,19.176a4.889,4.889,0,0,1-3.542-1.305,4.507,4.507,0,0,1-1.354-3.4v-.246a5.84,5.84,0,0,1,.541-2.575A3.955,3.955,0,0,1,83.3,9.925a4.763,4.763,0,0,1,2.461-.611,4.117,4.117,0,0,1,3.164,1.244,4.887,4.887,0,0,1,1.16,3.467v1.151H84.2a2.135,2.135,0,0,0,.694,1.257,2.066,2.066,0,0,0,1.389.457,2.662,2.662,0,0,0,2.2-.984l1.354,1.6a3.784,3.784,0,0,1-1.569,1.217A5.3,5.3,0,0,1,86.08,19.176ZM85.746,11.6q-1.3,0-1.547,1.723h2.988v-.229a1.467,1.467,0,0,0-.36-1.1A1.434,1.434,0,0,0,85.746,11.6Zm14.036,5.291a1.317,1.317,0,0,0,.967-.338,1.241,1.241,0,0,0,.334-.945h2.777a3.288,3.288,0,0,1-1.121,2.566,4.168,4.168,0,0,1-2.887,1,4.22,4.22,0,0,1-3.27-1.3,5.125,5.125,0,0,1-1.2-3.6v-.123a5.792,5.792,0,0,1,.532-2.544,3.872,3.872,0,0,1,1.534-1.7,4.573,4.573,0,0,1,2.373-.593,4.116,4.116,0,0,1,2.944,1.028,3.647,3.647,0,0,1,1.09,2.786h-2.777a1.626,1.626,0,0,0-.36-1.134,1.244,1.244,0,0,0-.967-.4q-1.151,0-1.345,1.468a10.357,10.357,0,0,0-.062,1.283,4.068,4.068,0,0,0,.343,1.986A1.187,1.187,0,0,0,99.782,16.891ZM108.237,19h-2.971V5.5h2.971Zm4.948,0h-2.971V9.49h2.971ZM110.039,7.038A1.322,1.322,0,0,1,110.5,6a1.943,1.943,0,0,1,2.373,0,1.322,1.322,0,0,1,.457,1.037,1.322,1.322,0,0,1-.457,1.037,1.943,1.943,0,0,1-2.373,0A1.322,1.322,0,0,1,110.039,7.038Zm9.571,12.138a4.889,4.889,0,0,1-3.542-1.305,4.507,4.507,0,0,1-1.354-3.4v-.246a5.84,5.84,0,0,1,.541-2.575,3.955,3.955,0,0,1,1.578-1.727,4.763,4.763,0,0,1,2.461-.611,4.117,4.117,0,0,1,3.164,1.244,4.887,4.887,0,0,1,1.16,3.467v1.151h-5.889a2.135,2.135,0,0,0,.694,1.257,2.066,2.066,0,0,0,1.389.457,2.662,2.662,0,0,0,2.2-.984l1.354,1.6a3.784,3.784,0,0,1-1.569,1.217A5.3,5.3,0,0,1,119.61,19.176Zm-.334-7.576q-1.3,0-1.547,1.723h2.988v-.229a1.467,1.467,0,0,0-.36-1.1A1.434,1.434,0,0,0,119.276,11.6Zm8.253-2.109.1,1.116a3.225,3.225,0,0,1,2.716-1.292,2.713,2.713,0,0,1,2.219.888,4.226,4.226,0,0,1,.76,2.672V19h-2.971V13a1.6,1.6,0,0,0-.29-1.059,1.342,1.342,0,0,0-1.055-.338,1.413,1.413,0,0,0-1.292.686V19h-2.962V9.49ZM138.41,7.126V9.49h1.564v2.057H138.41V15.9a1.111,1.111,0,0,0,.193.747,1.037,1.037,0,0,0,.765.211,4.345,4.345,0,0,0,.738-.053v2.118a5.466,5.466,0,0,1-1.67.255,3.1,3.1,0,0,1-2.259-.721,2.954,2.954,0,0,1-.729-2.188v-4.72h-1.213V9.49h1.213V7.126Zm7.33,12.05a4.889,4.889,0,0,1-3.542-1.305,4.507,4.507,0,0,1-1.354-3.4v-.246a5.84,5.84,0,0,1,.541-2.575,3.955,3.955,0,0,1,1.578-1.727,4.763,4.763,0,0,1,2.461-.611,4.117,4.117,0,0,1,3.164,1.244,4.887,4.887,0,0,1,1.16,3.467v1.151h-5.889a2.135,2.135,0,0,0,.694,1.257,2.066,2.066,0,0,0,1.389.457,2.662,2.662,0,0,0,2.2-.984l1.354,1.6a3.784,3.784,0,0,1-1.569,1.217A5.3,5.3,0,0,1,145.74,19.176Zm-.334-7.576q-1.3,0-1.547,1.723h2.988v-.229a1.467,1.467,0,0,0-.36-1.1A1.434,1.434,0,0,0,145.406,11.6Zm10.512,4.729a.684.684,0,0,0-.4-.606,6.016,6.016,0,0,0-1.5-.475,6.853,6.853,0,0,1-1.828-.646,3.062,3.062,0,0,1-1.1-.971,2.319,2.319,0,0,1-.378-1.31,2.628,2.628,0,0,1,1.081-2.158,4.453,4.453,0,0,1,2.83-.848,4.934,4.934,0,0,1,3.023.853,2.666,2.666,0,0,1,1.143,2.241h-2.971q0-1.143-1.2-1.143a1.194,1.194,0,0,0-.782.259.8.8,0,0,0-.316.646.737.737,0,0,0,.387.642,3.654,3.654,0,0,0,1.235.4,10.671,10.671,0,0,1,1.49.378,2.706,2.706,0,0,1,2.145,2.646,2.491,2.491,0,0,1-1.156,2.118,5.068,5.068,0,0,1-2.993.817,5.172,5.172,0,0,1-2.18-.439,3.645,3.645,0,0,1-1.494-1.2,2.707,2.707,0,0,1-.536-1.591h2.769a1.145,1.145,0,0,0,.439.962,1.808,1.808,0,0,0,1.081.3,1.422,1.422,0,0,0,.91-.246A.787.787,0,0,0,155.918,16.328Z" transform="translate(937 1480)" fill="#12263f"/><path d="M4.052,14.658V19H.967V6.2H6.073a5.948,5.948,0,0,1,2.6.541,4.074,4.074,0,0,1,1.749,1.538,4.2,4.2,0,0,1,.62,2.263A3.7,3.7,0,0,1,9.7,13.538a5.561,5.561,0,0,1-3.678,1.121Zm0-2.382H6.073a1.906,1.906,0,0,0,1.367-.448,1.665,1.665,0,0,0,.47-1.266A2.059,2.059,0,0,0,7.427,9.13a1.712,1.712,0,0,0-1.318-.545H4.052ZM18.3,12.171l-.976-.07a1.752,1.752,0,0,0-1.793.879V19H12.568V9.49h2.777l.1,1.222a2.294,2.294,0,0,1,2.083-1.4,2.888,2.888,0,0,1,.826.105Zm.378,1.986a5.613,5.613,0,0,1,.554-2.536,3.96,3.96,0,0,1,1.591-1.709,4.791,4.791,0,0,1,2.435-.6,4.373,4.373,0,0,1,3.366,1.323,5.076,5.076,0,0,1,1.23,3.6v.105a4.925,4.925,0,0,1-1.235,3.529,4.384,4.384,0,0,1-3.344,1.305,4.434,4.434,0,0,1-3.261-1.217,4.761,4.761,0,0,1-1.327-3.3Zm2.962.185a3.538,3.538,0,0,0,.413,1.934,1.376,1.376,0,0,0,1.222.615q1.582,0,1.617-2.435v-.3q0-2.558-1.635-2.558-1.485,0-1.608,2.206ZM31.878,9.49l.1,1.116A3.225,3.225,0,0,1,34.69,9.314a2.713,2.713,0,0,1,2.219.888,4.226,4.226,0,0,1,.76,2.672V19H34.7V13a1.6,1.6,0,0,0-.29-1.059,1.342,1.342,0,0,0-1.055-.338,1.413,1.413,0,0,0-1.292.686V19H29.1V9.49Zm7.058,4.667a5.613,5.613,0,0,1,.554-2.536A3.96,3.96,0,0,1,41.08,9.912a4.791,4.791,0,0,1,2.435-.6,4.373,4.373,0,0,1,3.366,1.323,5.076,5.076,0,0,1,1.23,3.6v.105a4.925,4.925,0,0,1-1.235,3.529,4.384,4.384,0,0,1-3.344,1.305,4.434,4.434,0,0,1-3.261-1.217,4.761,4.761,0,0,1-1.327-3.3Zm2.962.185a3.538,3.538,0,0,0,.413,1.934,1.376,1.376,0,0,0,1.222.615q1.582,0,1.617-2.435v-.3q0-2.558-1.635-2.558-1.485,0-1.608,2.206ZM43.919,5.5h3.129L44.6,8.26l-2.417,0ZM54.4,16.328a.684.684,0,0,0-.4-.606,6.016,6.016,0,0,0-1.5-.475,6.853,6.853,0,0,1-1.828-.646,3.062,3.062,0,0,1-1.1-.971,2.319,2.319,0,0,1-.378-1.31,2.628,2.628,0,0,1,1.081-2.158,4.453,4.453,0,0,1,2.83-.848,4.934,4.934,0,0,1,3.023.853,2.666,2.666,0,0,1,1.143,2.241H54.3q0-1.143-1.2-1.143a1.194,1.194,0,0,0-.782.259.8.8,0,0,0-.316.646.737.737,0,0,0,.387.642,3.654,3.654,0,0,0,1.235.4,10.671,10.671,0,0,1,1.49.378,2.706,2.706,0,0,1,2.145,2.646A2.491,2.491,0,0,1,56.1,18.358a5.068,5.068,0,0,1-2.993.817,5.172,5.172,0,0,1-2.18-.439,3.645,3.645,0,0,1-1.494-1.2,2.707,2.707,0,0,1-.536-1.591h2.769a1.145,1.145,0,0,0,.439.962,1.808,1.808,0,0,0,1.081.3,1.422,1.422,0,0,0,.91-.246A.787.787,0,0,0,54.4,16.328Zm7.69-9.2V9.49H63.65v2.057H62.086V15.9a1.111,1.111,0,0,0,.193.747,1.037,1.037,0,0,0,.765.211,4.345,4.345,0,0,0,.738-.053v2.118a5.466,5.466,0,0,1-1.67.255,3.1,3.1,0,0,1-2.259-.721,2.954,2.954,0,0,1-.729-2.188v-4.72H57.911V9.49h1.213V7.126ZM67.939,19H64.969V9.49h2.971ZM64.793,7.038A1.322,1.322,0,0,1,65.25,6a1.943,1.943,0,0,1,2.373,0,1.322,1.322,0,0,1,.457,1.037,1.322,1.322,0,0,1-.457,1.037,1.943,1.943,0,0,1-2.373,0A1.322,1.322,0,0,1,64.793,7.038Zm8.991,9.853a1.317,1.317,0,0,0,.967-.338,1.241,1.241,0,0,0,.334-.945h2.777a3.288,3.288,0,0,1-1.121,2.566,4.168,4.168,0,0,1-2.887,1,4.22,4.22,0,0,1-3.27-1.3,5.125,5.125,0,0,1-1.2-3.6v-.123a5.792,5.792,0,0,1,.532-2.544,3.872,3.872,0,0,1,1.534-1.7,4.573,4.573,0,0,1,2.373-.593,4.116,4.116,0,0,1,2.944,1.028,3.647,3.647,0,0,1,1.09,2.786H75.085A1.626,1.626,0,0,0,74.725,12a1.244,1.244,0,0,0-.967-.4q-1.151,0-1.345,1.468a10.357,10.357,0,0,0-.062,1.283,4.068,4.068,0,0,0,.343,1.986A1.187,1.187,0,0,0,73.784,16.891Zm4.957-2.733a5.613,5.613,0,0,1,.554-2.536,3.96,3.96,0,0,1,1.591-1.709,4.791,4.791,0,0,1,2.435-.6,4.373,4.373,0,0,1,3.366,1.323,5.076,5.076,0,0,1,1.23,3.6v.105a4.925,4.925,0,0,1-1.235,3.529,4.384,4.384,0,0,1-3.344,1.305,4.434,4.434,0,0,1-3.261-1.217,4.761,4.761,0,0,1-1.327-3.3Zm2.962.185a3.538,3.538,0,0,0,.413,1.934,1.376,1.376,0,0,0,1.222.615q1.582,0,1.617-2.435v-.3q0-2.558-1.635-2.558-1.485,0-1.608,2.206Zm11.628-.167a5.809,5.809,0,0,1,.976-3.56,3.211,3.211,0,0,1,2.725-1.3,2.731,2.731,0,0,1,2.145,1V5.5h2.971V19H99.483l-.149-1.02a2.8,2.8,0,0,1-2.32,1.2,3.205,3.205,0,0,1-2.689-1.3A5.993,5.993,0,0,1,93.331,14.175Zm2.962.185q0,2.531,1.477,2.531a1.458,1.458,0,0,0,1.406-.826V12.443a1.419,1.419,0,0,0-1.389-.844q-1.371,0-1.485,2.215Zm12.138,4.816a4.889,4.889,0,0,1-3.542-1.305,4.507,4.507,0,0,1-1.354-3.4v-.246a5.84,5.84,0,0,1,.541-2.575,3.955,3.955,0,0,1,1.578-1.727,4.763,4.763,0,0,1,2.461-.611,4.117,4.117,0,0,1,3.164,1.244,4.887,4.887,0,0,1,1.16,3.467v1.151H106.55a2.135,2.135,0,0,0,.694,1.257,2.066,2.066,0,0,0,1.389.457,2.662,2.662,0,0,0,2.2-.984l1.354,1.6a3.784,3.784,0,0,1-1.569,1.217A5.3,5.3,0,0,1,108.431,19.176ZM108.1,11.6q-1.3,0-1.547,1.723h2.988v-.229a1.467,1.467,0,0,0-.36-1.1A1.434,1.434,0,0,0,108.1,11.6Zm8.657,7.4h-2.971V5.5h2.971Zm9.105-9.51.1,1.116a3.27,3.27,0,0,1,2.716-1.292,2.407,2.407,0,0,1,2.435,1.433A3.165,3.165,0,0,1,133.9,9.314q2.892,0,2.971,3.5V19H133.9V13a1.813,1.813,0,0,0-.246-1.063,1.048,1.048,0,0,0-.9-.334,1.4,1.4,0,0,0-1.31.782l.009.123V19h-2.971V13.015a1.906,1.906,0,0,0-.237-1.081,1.045,1.045,0,0,0-.905-.334,1.42,1.42,0,0,0-1.3.782V19h-2.962V9.49Zm17.306,9.686a4.889,4.889,0,0,1-3.542-1.305,4.507,4.507,0,0,1-1.354-3.4v-.246a5.84,5.84,0,0,1,.541-2.575,3.955,3.955,0,0,1,1.578-1.727,4.763,4.763,0,0,1,2.461-.611,4.117,4.117,0,0,1,3.164,1.244,4.887,4.887,0,0,1,1.16,3.467v1.151h-5.889a2.135,2.135,0,0,0,.694,1.257,2.066,2.066,0,0,0,1.389.457,2.662,2.662,0,0,0,2.2-.984l1.354,1.6a3.784,3.784,0,0,1-1.569,1.217A5.3,5.3,0,0,1,143.165,19.176Zm-.334-7.576q-1.3,0-1.547,1.723h2.988v-.229a1.467,1.467,0,0,0-.36-1.1A1.434,1.434,0,0,0,142.831,11.6Zm11.285.571-.976-.07a1.752,1.752,0,0,0-1.793.879V19h-2.962V9.49h2.777l.1,1.222a2.294,2.294,0,0,1,2.083-1.4,2.888,2.888,0,0,1,.826.105Zm4.922,4.72a1.317,1.317,0,0,0,.967-.338,1.241,1.241,0,0,0,.334-.945h2.777A3.288,3.288,0,0,1,162,18.174a4.168,4.168,0,0,1-2.887,1,4.22,4.22,0,0,1-3.27-1.3,5.125,5.125,0,0,1-1.2-3.6v-.123a5.792,5.792,0,0,1,.532-2.544,3.872,3.872,0,0,1,1.534-1.7,4.573,4.573,0,0,1,2.373-.593,4.116,4.116,0,0,1,2.944,1.028,3.647,3.647,0,0,1,1.09,2.786h-2.777a1.626,1.626,0,0,0-.36-1.134,1.244,1.244,0,0,0-.967-.4q-1.151,0-1.345,1.468a10.357,10.357,0,0,0-.062,1.283,4.068,4.068,0,0,0,.343,1.986A1.187,1.187,0,0,0,159.038,16.891ZM169.726,19a3.344,3.344,0,0,1-.281-.853,2.754,2.754,0,0,1-2.285,1.028,3.374,3.374,0,0,1-2.285-.813,2.588,2.588,0,0,1-.94-2.043,2.66,2.66,0,0,1,1.143-2.338,5.821,5.821,0,0,1,3.322-.791h.914v-.5q0-1.316-1.134-1.316a.927.927,0,0,0-1.055,1.042h-2.962a2.655,2.655,0,0,1,1.173-2.239,4.931,4.931,0,0,1,2.993-.86,4.323,4.323,0,0,1,2.874.888,3.086,3.086,0,0,1,1.081,2.435v4.21a4.311,4.311,0,0,0,.4,2V19Zm-1.854-1.934a1.652,1.652,0,0,0,.918-.237,1.487,1.487,0,0,0,.523-.536V14.772h-.861q-1.547,0-1.547,1.389a.848.848,0,0,0,.272.655A.986.986,0,0,0,167.871,17.066Zm5.678-2.892a5.809,5.809,0,0,1,.976-3.56,3.211,3.211,0,0,1,2.725-1.3,2.731,2.731,0,0,1,2.145,1V5.5h2.971V19H179.7l-.149-1.02a2.8,2.8,0,0,1-2.32,1.2,3.205,3.205,0,0,1-2.689-1.3A5.993,5.993,0,0,1,173.549,14.175Zm2.962.185q0,2.531,1.477,2.531a1.458,1.458,0,0,0,1.406-.826V12.443A1.419,1.419,0,0,0,178,11.6q-1.371,0-1.485,2.215Zm7.163-.2a5.613,5.613,0,0,1,.554-2.536,3.96,3.96,0,0,1,1.591-1.709,4.791,4.791,0,0,1,2.435-.6,4.373,4.373,0,0,1,3.366,1.323,5.076,5.076,0,0,1,1.23,3.6v.105a4.925,4.925,0,0,1-1.235,3.529,4.384,4.384,0,0,1-3.344,1.305,4.434,4.434,0,0,1-3.261-1.217,4.761,4.761,0,0,1-1.327-3.3Zm2.962.185a3.538,3.538,0,0,0,.413,1.934,1.376,1.376,0,0,0,1.222.615q1.582,0,1.617-2.435v-.3q0-2.558-1.635-2.558-1.485,0-1.608,2.206Z" transform="translate(1135 1689)" fill="#12263f"/><g transform="translate(285 1457)"><g clip-path="url(#a)"><path d="M998.927,156.754c-15.249,13.836-35.9,21.555-58.06,21.555a88.8,88.8,0,0,1-60.093-23.359c-10.192-9.32-25.149-11.272-37.759-5.631l-4.736,2.118a35.826,35.826,0,0,0-21.194,32.7,89.242,89.242,0,0,1-52.369,81.478c-.066.031-.131.065-.2.1-1.209.546-2.439,1.055-3.675,1.549-.232.092-.458.193-.692.283-1.121.435-2.258.835-3.4,1.225-.363.124-.721.259-1.086.378-1.049.345-2.113.655-3.18.96-.471.135-.938.28-1.412.408-.99.266-1.992.5-3,.732-.567.132-1.128.271-1.7.392-.939.2-1.888.366-2.836.534-.65.115-1.3.237-1.952.338-.893.138-1.795.249-2.7.359-.724.09-1.449.182-2.181.254-.849.083-1.7.142-2.558.2-.8.055-1.6.11-2.4.145s-1.621.047-2.435.059c-.862.013-1.725.023-2.592.011-.774-.01-1.552-.039-2.33-.07-.919-.036-1.841-.079-2.766-.143-.3-.02-.6-.022-.9-.047-.561-.044-1.115-.116-1.673-.172-.458-.043-.911-.064-1.369-.115-.154-.017-.3-.054-.456-.072-1.979-.237-3.936-.55-5.875-.918-.706-.133-1.412-.267-2.113-.416q-2.473-.533-4.9-1.206-1.469-.4-2.916-.855c-1.186-.372-2.358-.773-3.523-1.194q-2.067-.742-4.081-1.58c-.121-.052-.242-.107-.361-.158a89.556,89.556,0,0,1-51.626-59.126c-.056-.208-.108-.418-.164-.626q-.792-3.061-1.37-6.193-.237-1.29-.437-2.591c-.115-.759-.287-1.5-.382-2.263a92.723,92.723,0,0,1-.689-9.367,39.654,39.654,0,0,0-65.711-29.676,89.583,89.583,0,0,1-13.58,9.623l-.021.012q-1.789,1.033-3.626,1.983l-.336.172q-1.7.868-3.431,1.665c-.168.078-.336.154-.5.23q-1.683.762-3.4,1.452c-.185.075-.369.152-.556.226q-1.739.686-3.517,1.3c-.164.057-.328.118-.494.175q-1.917.649-3.868,1.216c-.068.02-.134.042-.2.062a88.485,88.485,0,0,1-12.754,2.657c-.363.049-.729.082-1.094.125-1.045.125-2.094.242-3.152.331-.506.042-1.018.071-1.527.105-.921.061-1.843.115-2.769.149-.59.021-1.182.03-1.775.04-.484.008-.964.033-1.452.033-.36,0-.716-.021-1.077-.026q-1.047-.012-2.1-.05-1.138-.041-2.27-.109c-.425-.025-.845-.029-1.269-.061s-.813-.082-1.221-.117q-.657-.059-1.31-.127-1.511-.155-3-.36c-.342-.048-.682-.1-1.022-.147q-1.564-.234-3.113-.524-.489-.091-.976-.186-1.511-.3-3-.654c-.364-.086-.729-.17-1.092-.26-.908-.227-1.811-.47-2.71-.725-.456-.128-.911-.256-1.364-.391-.763-.23-1.52-.474-2.275-.723-.58-.192-1.161-.382-1.737-.586s-1.146-.42-1.717-.635c-.746-.28-1.489-.562-2.226-.862-.348-.143-.693-.293-1.039-.44-.94-.4-1.873-.8-2.794-1.228-.09-.041-.177-.085-.266-.127a89.437,89.437,0,0,1-22.505-15.019c-10.194-9.32-25.151-11.272-37.76-5.631l-4.735,2.118a35.823,35.823,0,0,0-21.2,32.748v.23a89.163,89.163,0,0,1-177.6,11.381,92.11,92.11,0,0,1-.688-9.367,40.111,40.111,0,0,0-23.473-36,39.367,39.367,0,0,0-41.9,6,88.821,88.821,0,0,1-65.12,21.636C39.054,174.88,3.746,139.819.289,96.425A89.251,89.251,0,0,1,96.378.286c43.5,3.444,78.615,38.884,81.7,82.407q.159,2.235.206,4.45a40.16,40.16,0,0,0,23.6,36.057l.659.294a38.244,38.244,0,0,0,40.836-6.112,88.974,88.974,0,0,1,118.8,1.238c10.194,9.32,25.151,11.272,37.758,5.631l4.737-2.118a35.826,35.826,0,0,0,21.194-32.706,88.745,88.745,0,0,1,21.882-58.716l.026-.031q1.393-1.6,2.862-3.13c.071-.073.14-.148.21-.222q1.4-1.455,2.874-2.844c.121-.116.243-.234.367-.349q1.42-1.331,2.9-2.6c.167-.144.333-.287.5-.43q1.439-1.219,2.932-2.376c.2-.16.409-.317.616-.473.977-.746,1.966-1.472,2.975-2.178.235-.165.474-.327.711-.49q1.5-1.024,3.03-1.992c.261-.165.529-.324.793-.487,1.017-.623,2.044-1.233,3.088-1.817.281-.158.569-.308.853-.463,1.044-.568,2.1-1.125,3.163-1.652.292-.146.591-.279.885-.421,1.073-.515,2.153-1.021,3.249-1.494.3-.129.6-.246.9-.371,1.108-.464,2.223-.921,3.354-1.34.27-.1.545-.187.817-.285,1.176-.423,2.355-.838,3.552-1.213.147-.046.3-.082.442-.127a88.334,88.334,0,0,1,12.016-2.785c.352-.057.7-.129,1.052-.182.866-.127,1.743-.215,2.615-.319.731-.086,1.458-.186,2.193-.255.769-.071,1.546-.107,2.32-.159.855-.058,1.71-.123,2.571-.156.719-.026,1.446-.024,2.168-.033.929-.013,1.854-.029,2.79-.013.691.012,1.386.05,2.081.078.722.028,1.439.034,2.166.08.282.018.56.054.844.074.183.013.362.013.544.028.424.033.841.09,1.263.129.713.067,1.427.135,2.137.219.674.08,1.34.175,2.009.27s1.31.186,1.958.293c.713.118,1.419.252,2.126.387.6.114,1.2.228,1.8.355.74.157,1.472.331,2.2.507.554.134,1.112.264,1.663.409.759.2,1.511.413,2.262.63.52.151,1.039.3,1.555.458.762.236,1.515.49,2.268.745.5.17,1,.336,1.491.514.754.271,1.5.559,2.242.85.486.19.972.376,1.453.575.728.3,1.449.616,2.167.935.491.218.981.431,1.466.657.687.319,1.365.655,2.042.99.508.252,1.017.5,1.519.762.632.331,1.258.675,1.882,1.02.534.293,1.069.586,1.6.89.569.329,1.127.671,1.688,1.012s1.146.694,1.71,1.054c.49.314.972.639,1.457.963.62.414,1.241.827,1.85,1.254.4.283.8.577,1.195.866.678.494,1.353.988,2.016,1.5.308.237.608.482.911.722.741.586,1.475,1.177,2.194,1.785.208.176.411.357.617.534.805.691,1.6,1.39,2.376,2.107.11.1.218.206.327.308q1.3,1.208,2.547,2.463c.015.014.028.028.042.042a88.719,88.719,0,0,1,25.663,55.66q.194,2.508.248,4.988a40.111,40.111,0,0,0,23.471,36,39.42,39.42,0,0,0,40.2-4.625c.466-.372.939-.737,1.391-1.134a89.659,89.659,0,0,1,10.554-7.936c.016-.012.034-.023.053-.034q1.731-1.115,3.515-2.15l.253-.146q1.7-.977,3.444-1.883l.363-.189q1.712-.879,3.467-1.682c.135-.062.267-.125.4-.187q1.789-.809,3.615-1.542c.1-.041.207-.086.313-.127q1.956-.777,3.958-1.464l.047-.017a88.377,88.377,0,0,1,12.683-3.307c.176-.032.355-.056.532-.087,1.217-.214,2.44-.409,3.673-.574.413-.055.829-.1,1.242-.145,1-.119,2.008-.231,3.022-.317.53-.046,1.065-.075,1.6-.111.9-.06,1.8-.113,2.709-.146.611-.023,1.224-.033,1.838-.042.477-.008.951-.033,1.43-.033.356,0,.709.021,1.067.025.7.008,1.406.026,2.112.051q1.134.039,2.258.108c.424.024.844.029,1.27.06s.82.083,1.233.119q.652.058,1.3.126,1.51.153,3,.36.514.071,1.027.147,1.569.235,3.117.525c.322.061.642.12.964.184q1.517.3,3.017.657c.358.084.719.168,1.077.257.915.228,1.823.472,2.725.728.449.127.9.253,1.346.386.769.231,1.529.476,2.287.727.579.191,1.156.38,1.73.583s1.153.423,1.728.639c.738.278,1.478.557,2.206.854.355.146.706.3,1.059.449.935.395,1.863.8,2.781,1.222.087.04.174.083.261.124a89.464,89.464,0,0,1,22.519,15.025c10.192,9.32,25.149,11.272,37.758,5.631l4.735-2.118a35.83,35.83,0,0,0,21.2-32.747l0-.231A89.252,89.252,0,0,1,946.667.184c43.869,2.792,79.719,38.14,83.085,81.968q.2,2.508.248,4.988s-.742,19.54-7.221,35.447c-6.888,16.912-19.656,30.359-23.852,34.167" transform="translate(0 0)" fill="#a6e0e9"/><path d="M88.886,23A65.883,65.883,0,1,1,23,88.887,65.883,65.883,0,0,1,88.886,23" transform="translate(0.268 0.268)" fill="#fff"/><line transform="translate(302.092 74.707)" fill="none" stroke="#2c2c2c" stroke-linecap="round" stroke-miterlimit="10" stroke-width="2"/><line y1="19.14" transform="translate(302.092 51.313)" fill="none" stroke="#2c2c2c" stroke-linecap="round" stroke-miterlimit="10" stroke-width="2" stroke-dasharray="0 4.204"/><line transform="translate(302.092 49.187)" fill="none" stroke="#2c2c2c" stroke-linecap="round" stroke-miterlimit="10" stroke-width="2"/><line transform="translate(727.966 74.707)" fill="none" stroke="#2c2c2c" stroke-linecap="round" stroke-miterlimit="10" stroke-width="2"/><line y1="19.14" transform="translate(727.966 51.313)" fill="none" stroke="#2c2c2c" stroke-linecap="round" stroke-miterlimit="10" stroke-width="2" stroke-dasharray="0 4.204"/><line transform="translate(727.966 49.187)" fill="none" stroke="#2c2c2c" stroke-linecap="round" stroke-miterlimit="10" stroke-width="2"/><line transform="translate(89.155 198.862)" fill="none" stroke="#2c2c2c" stroke-linecap="round" stroke-miterlimit="10" stroke-width="2"/><line y2="19.14" transform="translate(89.155 203.115)" fill="none" stroke="#2c2c2c" stroke-linecap="round" stroke-miterlimit="10" stroke-width="2" stroke-dasharray="0 4.204"/><line transform="translate(89.155 224.383)" fill="none" stroke="#2c2c2c" stroke-linecap="round" stroke-miterlimit="10" stroke-width="2"/><line transform="translate(515.029 198.862)" fill="none" stroke="#2c2c2c" stroke-linecap="round" stroke-miterlimit="10" stroke-width="2"/><line y2="19.14" transform="translate(515.029 203.115)" fill="none" stroke="#2c2c2c" stroke-linecap="round" stroke-miterlimit="10" stroke-width="2" stroke-dasharray="0 4.204"/><line transform="translate(515.029 224.383)" fill="none" stroke="#2c2c2c" stroke-linecap="round" stroke-miterlimit="10" stroke-width="2"/><line transform="translate(940.903 198.862)" fill="none" stroke="#2c2c2c" stroke-linecap="round" stroke-miterlimit="10" stroke-width="2"/><line y2="19.14" transform="translate(940.903 203.115)" fill="none" stroke="#2c2c2c" stroke-linecap="round" stroke-miterlimit="10" stroke-width="2" stroke-dasharray="0 4.204"/><line transform="translate(940.903 224.383)" fill="none" stroke="#2c2c2c" stroke-linecap="round" stroke-miterlimit="10" stroke-width="2"/><path d="M365.255,183.051a65.883,65.883,0,1,1-65.883-65.883,65.883,65.883,0,0,1,65.883,65.883" transform="translate(2.721 1.365)" fill="#fff"/><path d="M575.739,88.887A65.883,65.883,0,1,1,509.856,23a65.883,65.883,0,0,1,65.883,65.883" transform="translate(5.173 0.268)" fill="#fff"/><path d="M996.691,88.887A65.883,65.883,0,1,1,930.808,23a65.883,65.883,0,0,1,65.883,65.883" transform="translate(10.078 0.268)" fill="#fff"/><path d="M786.224,183.051a65.883,65.883,0,1,1-65.883-65.883,65.883,65.883,0,0,1,65.883,65.883" transform="translate(7.626 1.365)" fill="#fff"/></g></g><g transform="translate(338.362 1508.859)"><path d="M59.969,38.382v-7.8H51.745a18.077,18.077,0,0,0-2.456-5.9l5.82-5.82L49.6,13.359l-5.82,5.82a18.077,18.077,0,0,0-5.9-2.456V8.5h-7.8v8.224a18.077,18.077,0,0,0-5.9,2.456l-5.82-5.82-5.508,5.508,5.82,5.82a18.077,18.077,0,0,0-2.456,5.9H8v7.8h8.224a18.077,18.077,0,0,0,2.456,5.9l-5.82,5.82,5.508,5.508,5.82-5.82a18.077,18.077,0,0,0,5.9,2.456v8.224h7.8V52.245a18.077,18.077,0,0,0,5.9-2.456l5.82,5.82L55.11,50.1l-5.82-5.82a18.077,18.077,0,0,0,2.456-5.9Zm-25.984,5.2a9.088,9.088,0,1,1,6.433-2.662A9.094,9.094,0,0,1,33.984,43.579Zm0,0" transform="translate(-6.701 -6.701)" fill="#3e3d42"/><path d="M100.992,88.5a12.992,12.992,0,1,0,12.992,12.992A12.992,12.992,0,0,0,100.992,88.5Zm0,22.087a9.088,9.088,0,1,1,6.433-2.662A9.094,9.094,0,0,1,100.992,110.587Zm0,0" transform="translate(-73.709 -73.708)" fill="#d80027"/><path d="M13.2,376.5h67.56a5.2,5.2,0,0,1,5.2,5.2v2.6a5.2,5.2,0,0,1-5.2,5.2H13.2A5.2,5.2,0,0,1,8,384.3v-2.6A5.2,5.2,0,0,1,13.2,376.5Zm0,0" transform="translate(-6.701 -314.937)" fill="#787680"/><path d="M237.2,403.1a2.6,2.6,0,1,1-2.6-2.6A2.6,2.6,0,0,1,237.2,403.1Zm0,0" transform="translate(-194.323 -335.039)" fill="#acabb1"/><path d="M157.2,403.1a2.6,2.6,0,1,1-2.6-2.6A2.6,2.6,0,0,1,157.2,403.1Zm0,0" transform="translate(-127.315 -335.039)" fill="#acabb1"/><path d="M317.2,403.1a2.6,2.6,0,1,1-2.6-2.6A2.6,2.6,0,0,1,317.2,403.1Zm0,0" transform="translate(-261.33 -335.039)" fill="#acabb1"/><path d="M77.2,403.1a2.6,2.6,0,1,1-2.6-2.6A2.6,2.6,0,0,1,77.2,403.1Zm0,0" transform="translate(-60.307 -335.039)" fill="#acabb1"/><path d="M397.2,403.1a2.6,2.6,0,1,1-2.6-2.6A2.6,2.6,0,0,1,397.2,403.1Zm0,0" transform="translate(-328.338 -335.039)" fill="#acabb1"/><path d="M387.693,316.193H376V304.5h11.693Zm0,0" transform="translate(-314.937 -254.63)" fill="#ffd422"/><path d="M363.693,244.193H352V232.5h11.693Zm0,0" transform="translate(-294.834 -194.323)" fill="#ffcd00"/><path d="M315.693,316.193H304V304.5h11.693Zm0,0" transform="translate(-254.63 -254.63)" fill="#cca400"/><g transform="translate(0 0.5)"><path d="M1.3,32.981H8.507a19.348,19.348,0,0,0,1.83,4.4l-5.1,5.1a1.3,1.3,0,0,0,0,1.838l5.512,5.513a1.3,1.3,0,0,0,1.837,0l5.1-5.1a19.309,19.309,0,0,0,4.4,1.83v7.208a1.3,1.3,0,0,0,1.3,1.3h7.8a1.3,1.3,0,0,0,1.3-1.3V46.56a19.31,19.31,0,0,0,4.4-1.83l5.1,5.1a1.337,1.337,0,0,0,1.837,0l5.513-5.513a1.3,1.3,0,0,0,0-1.838l-5.1-5.1a19.347,19.347,0,0,0,1.83-4.4h7.208a1.3,1.3,0,0,0,1.3-1.3v-7.8a1.3,1.3,0,0,0-1.3-1.3H46.06a19.347,19.347,0,0,0-1.83-4.4l5.1-5.1a1.3,1.3,0,0,0,0-1.838L43.82,5.734a1.3,1.3,0,0,0-1.837,0l-5.1,5.1a19.378,19.378,0,0,0-4.4-1.83V1.8a1.3,1.3,0,0,0-1.3-1.3h-7.8a1.3,1.3,0,0,0-1.3,1.3V9.007a19.379,19.379,0,0,0-4.4,1.83l-5.1-5.1a1.337,1.337,0,0,0-1.837,0L5.234,11.247a1.3,1.3,0,0,0,0,1.838l5.1,5.1a19.347,19.347,0,0,0-1.83,4.4H1.3a1.3,1.3,0,0,0-1.3,1.3v7.8a1.3,1.3,0,0,0,1.3,1.3Zm1.3-7.8H9.523a1.3,1.3,0,0,0,1.269-1.021,16.712,16.712,0,0,1,2.276-5.475,1.3,1.3,0,0,0-.176-1.62l-4.9-4.9L11.666,8.49l4.9,4.9a1.3,1.3,0,0,0,1.621.176,16.746,16.746,0,0,1,5.475-2.276,1.3,1.3,0,0,0,1.021-1.269V3.1h5.2v6.925A1.3,1.3,0,0,0,30.9,11.293a16.745,16.745,0,0,1,5.475,2.276A1.3,1.3,0,0,0,38,13.393l4.9-4.9,3.674,3.676-4.9,4.9a1.3,1.3,0,0,0-.176,1.621,16.7,16.7,0,0,1,2.275,5.476,1.3,1.3,0,0,0,1.269,1.021h6.926v5.2H45.043A1.3,1.3,0,0,0,43.773,31.4,16.7,16.7,0,0,1,41.5,36.878a1.3,1.3,0,0,0,.176,1.62l4.9,4.9L42.9,47.077l-4.9-4.9A1.3,1.3,0,0,0,36.378,42,16.7,16.7,0,0,1,30.9,44.275a1.3,1.3,0,0,0-1.023,1.269v6.925h-5.2V45.544a1.3,1.3,0,0,0-1.023-1.269A16.7,16.7,0,0,1,18.189,42a1.3,1.3,0,0,0-1.621.176l-4.9,4.9L7.991,43.4l4.9-4.9a1.3,1.3,0,0,0,.176-1.621A16.719,16.719,0,0,1,10.793,31.4a1.3,1.3,0,0,0-1.269-1.02H2.6Zm0,0" transform="translate(0 -0.5)" fill="#231f20"/><path d="M114.394,125.288A10.394,10.394,0,1,0,104,114.894,10.393,10.393,0,0,0,114.394,125.288Zm0-18.189a7.8,7.8,0,1,1-7.8,7.8A7.8,7.8,0,0,1,114.394,107.1Zm0,0" transform="translate(-87.11 -87.61)" fill="#231f20"/><path d="M94.291,109.083A14.291,14.291,0,1,0,80,94.791,14.291,14.291,0,0,0,94.291,109.083Zm0-25.984A11.693,11.693,0,1,1,82.6,94.791,11.693,11.693,0,0,1,94.291,83.1Zm0,0" transform="translate(-67.008 -67.508)" fill="#231f20"/><path d="M74.056,247.886V237.492a1.3,1.3,0,0,0-1.3-1.3h-2.6V225.8a1.3,1.3,0,0,0-1.3-1.3H57.166a1.3,1.3,0,0,0-1.3,1.3v10.394h-6.5a1.3,1.3,0,0,0-1.3,1.3v10.394H6.5a6.5,6.5,0,0,0-6.5,6.5v2.6a6.5,6.5,0,0,0,6.5,6.5h67.56a6.5,6.5,0,0,0,6.5-6.5v-2.6A6.5,6.5,0,0,0,74.056,247.886Zm-2.6,0H62.363v-9.095h9.095ZM58.465,227.1H67.56v9.095H58.465Zm-7.8,11.693h9.095v9.095H50.67Zm27.284,18.189a3.9,3.9,0,0,1-3.9,3.9H6.5a3.9,3.9,0,0,1-3.9-3.9v-2.6a3.9,3.9,0,0,1,3.9-3.9h67.56a3.9,3.9,0,0,1,3.9,3.9Zm0,0" transform="translate(0 -188.122)" fill="#231f20"/><path d="M227.9,392.5a3.9,3.9,0,1,0,3.9,3.9A3.9,3.9,0,0,0,227.9,392.5Zm0,5.2a1.3,1.3,0,1,1,1.3-1.3A1.3,1.3,0,0,1,227.9,397.7Zm0,0" transform="translate(-187.622 -328.838)" fill="#231f20"/><path d="M147.9,392.5a3.9,3.9,0,1,0,3.9,3.9A3.9,3.9,0,0,0,147.9,392.5Zm0,5.2a1.3,1.3,0,1,1,1.3-1.3A1.3,1.3,0,0,1,147.9,397.7Zm0,0" transform="translate(-120.614 -328.838)" fill="#231f20"/><path d="M307.9,392.5a3.9,3.9,0,1,0,3.9,3.9A3.9,3.9,0,0,0,307.9,392.5Zm0,5.2a1.3,1.3,0,1,1,1.3-1.3A1.3,1.3,0,0,1,307.9,397.7Zm0,0" transform="translate(-254.63 -328.838)" fill="#231f20"/><path d="M67.9,392.5a3.9,3.9,0,1,0,3.9,3.9A3.9,3.9,0,0,0,67.9,392.5Zm0,5.2a1.3,1.3,0,1,1,1.3-1.3A1.3,1.3,0,0,1,67.9,397.7Zm0,0" transform="translate(-53.606 -328.838)" fill="#231f20"/><path d="M387.9,392.5a3.9,3.9,0,1,0,3.9,3.9A3.9,3.9,0,0,0,387.9,392.5Zm0,5.2a1.3,1.3,0,1,1,1.3-1.3A1.3,1.3,0,0,1,387.9,397.7Zm0,0" transform="translate(-321.637 -328.838)" fill="#231f20"/></g></g><g transform="translate(1192.918 1511.328)"><g transform="translate(1.39 8.936)"><path d="M10,353.115H70.881v4.116a4.175,4.175,0,0,1-4.175,4.175H14.175A4.175,4.175,0,0,1,10,357.231Z" transform="translate(-10 -312.918)" fill="#72d8ff"/><path d="M10,67.884a3.96,3.96,0,0,1,3.96-3.96H66.921a3.96,3.96,0,0,1,3.96,3.96v36.237H10Z" transform="translate(-10 -63.924)" fill="#fff"/><path d="M141.778,469.257h24.259V467.6a3.619,3.619,0,0,0-3.619-3.619H145.4a3.619,3.619,0,0,0-3.619,3.619Z" transform="translate(-123.461 -408.376)" fill="#72d8ff"/><rect width="8.896" height="7.12" transform="translate(25.998 48.487)" fill="#c9f3ff"/><rect width="7.919" height="8.868" transform="translate(13.488 24.501)" fill="#4dbaf6"/><rect width="7.919" height="13.27" transform="translate(26.357 20.098)" fill="#a0e557"/><rect width="7.919" height="19.221" transform="translate(39.226 14.148)" fill="#ff5d5d"/></g><g transform="translate(0 0.059)"><path d="M382.835,140.929,394.207,152.3a3.437,3.437,0,0,1,0,4.861h0a3.437,3.437,0,0,1-4.861,0L377.974,145.79Z" transform="translate(-325.437 -121.349)" fill="#2e9de3"/><circle cx="12.626" cy="12.626" r="12.626" transform="translate(34.339 1.39)" fill="#ffb954"/><path d="M219.447,371.858a1.389,1.389,0,1,0,.983-.407A1.4,1.4,0,0,0,219.447,371.858Z" transform="translate(-188.594 -319.829)"/><path d="M340.57,402.761a1.391,1.391,0,1,0,.983.407A1.4,1.4,0,0,0,340.57,402.761Z" transform="translate(-292.035 -346.787)"/><path d="M49.459,104.781a1.388,1.388,0,1,0-.983-.406A1.4,1.4,0,0,0,49.459,104.781Z" transform="translate(-41.388 -87.832)"/><path d="M89.459,104.776h1.246a1.39,1.39,0,1,0,0-2.78H89.459a1.39,1.39,0,0,0,0,2.78Z" transform="translate(-75.828 -87.827)"/><path d="M89.459,147.509h1.246a1.39,1.39,0,1,0,0-2.78H89.459a1.39,1.39,0,1,0,0,2.78Z" transform="translate(-75.828 -124.62)"/><path d="M89.459,190.24h1.246a1.39,1.39,0,0,0,0-2.78H89.459a1.39,1.39,0,0,0,0,2.78Z" transform="translate(-75.828 -161.412)"/><path d="M69.753,30.028,59.684,19.96A14.014,14.014,0,0,0,34.566,7.546H5.35A5.356,5.356,0,0,0,0,12.9V53.464a5.356,5.356,0,0,0,5.35,5.35H26v4.34H23.326a5.014,5.014,0,0,0-5.009,5.009v1.655a1.39,1.39,0,0,0,1.39,1.39H43.966a1.39,1.39,0,0,0,1.39-1.39V68.162a5.015,5.015,0,0,0-5.009-5.009H37.674v-4.34h5.3a1.39,1.39,0,1,0,0-2.78H5.35a2.573,2.573,0,0,1-2.57-2.57V50.523h58.1v2.941a2.573,2.573,0,0,1-2.57,2.57H54.1a1.39,1.39,0,0,0,0,2.78h4.216a5.356,5.356,0,0,0,5.35-5.35v-16a4.828,4.828,0,0,0,6.092-7.431ZM42.576,68.162v.265H21.1v-.265a2.231,2.231,0,0,1,2.229-2.229H40.347A2.231,2.231,0,0,1,42.576,68.162Zm-7.682-9.349v4.34H28.778v-4.34ZM46.966,2.839A11.236,11.236,0,1,1,35.73,14.075,11.249,11.249,0,0,1,46.966,2.839Zm-4.96,24.345a13.946,13.946,0,0,0,4.96.907l.18,0V40.915h-5.14ZM2.78,47.743V12.9a2.573,2.573,0,0,1,2.57-2.57h28.11a14.018,14.018,0,0,0,.877,9.826l-2.542,2.542-4.23-4.23a1.39,1.39,0,0,0-1.966,0l-5.308,5.308a1.39,1.39,0,1,0,1.966,1.966l4.325-4.325,4.23,4.23a1.39,1.39,0,0,0,1.966,0l3.059-3.058a14.133,14.133,0,0,0,3.39,3.17V40.915h-2.17V29.034a1.39,1.39,0,0,0-1.39-1.39H27.747a1.39,1.39,0,0,0-1.39,1.39v11.88h-2.17V33.437a1.39,1.39,0,0,0-1.39-1.39H14.878a1.39,1.39,0,0,0-1.39,1.39v7.478H9.462V21.178a1.39,1.39,0,1,0-2.78,0V42.3a1.39,1.39,0,0,0,1.39,1.39H55.589a1.39,1.39,0,1,0,0-2.78H49.925V27.775a13.9,13.9,0,0,0,2.935-.986l8.02,8.021V47.743Zm31.5-6.828h-5.14V30.424h5.14Zm-12.869,0h-5.14V34.827h5.14Zm46.38-6.026a2.047,2.047,0,0,1-2.9,0L55.323,25.32a14.138,14.138,0,0,0,2.894-2.9l9.57,9.57A2.05,2.05,0,0,1,67.787,34.889Z" transform="translate(0 -0.059)"/><path d="M310.706,55.344a1.491,1.491,0,0,1-1.608-1.331,1.39,1.39,0,1,0-2.78,0,4.152,4.152,0,0,0,3,3.9,1.388,1.388,0,0,0,2.775,0,4.151,4.151,0,0,0,3-3.9,4.261,4.261,0,0,0-4.388-4.111,1.355,1.355,0,1,1,1.608-1.331,1.39,1.39,0,1,0,2.78,0,4.151,4.151,0,0,0-3-3.9v-.059a1.39,1.39,0,0,0-2.78,0v.059a4.151,4.151,0,0,0-3,3.9,4.261,4.261,0,0,0,4.388,4.111,1.355,1.355,0,1,1,0,2.662Z" transform="translate(-263.741 -37.223)"/></g></g><g transform="translate(978 1605)"><path d="M2,2H47.806V61.548H2Z" transform="translate(0.145 0.145)" fill="#c7e2fb"/><path d="M2,50.082c.191,0,.38.015.573.015,21.82,0,39.508-17.945,39.508-40.081A40.88,40.88,0,0,0,41.289,2H2Z" transform="translate(0.145 0.145)" fill="#ebf7fe"/><path d="M36,28H58.9V46.323H36Z" transform="translate(5.081 3.919)" fill="#c18e5c"/><path d="M36,28V42.753a20.99,20.99,0,0,0,2.29.134A20.608,20.608,0,0,0,58.08,28Z" transform="translate(5.081 3.919)" fill="#cda57d"/><path d="M40,44H65.194V64.613H40Z" transform="translate(5.661 6.242)" fill="#c18e5c"/><path d="M40,61.112c10.171-.7,18.8-7.521,22.8-17.112H40Z" transform="translate(5.661 6.242)" fill="#cda57d"/><g transform="translate(6.726 6.726)"><path d="M6,6h9.161v9.161H6Z" transform="translate(-6 -6)" fill="#4472b0"/><path d="M6,18h9.161v9.161H6Z" transform="translate(-6 -4.258)" fill="#4472b0"/><path d="M6,30h9.161v9.161H6Z" transform="translate(-6 -2.516)" fill="#4472b0"/><path d="M6,42h9.161v9.161H6Z" transform="translate(-6 -0.774)" fill="#4472b0"/></g><path d="M48,44h6.871v6.871H48Z" transform="translate(6.823 6.242)" fill="#fff"/><path d="M18,44H43.194V64.613H18Z" transform="translate(2.468 6.242)" fill="#c18e5c"/><path d="M18,61.112c10.171-.7,18.8-7.521,22.8-17.112H18Z" transform="translate(2.468 6.242)" fill="#cda57d"/><path d="M26,44h6.871v6.871H26Z" transform="translate(3.629 6.242)" fill="#fff"/><path d="M44,28h4.581v6.871H44Z" transform="translate(6.242 3.919)" fill="#fff"/><g transform="translate(1 1)"><path d="M6.145,28.452h9.161a1.146,1.146,0,0,0,1.145-1.145V18.145A1.146,1.146,0,0,0,15.306,17H6.145A1.146,1.146,0,0,0,5,18.145v9.161A1.146,1.146,0,0,0,6.145,28.452ZM7.29,19.29h6.871v6.871H7.29Z" transform="translate(-0.419 1.323)"/><path d="M15.306,41H6.145A1.145,1.145,0,0,0,5,42.145v9.161a1.145,1.145,0,0,0,1.145,1.145h9.161a1.145,1.145,0,0,0,1.145-1.145V42.145A1.145,1.145,0,0,0,15.306,41Zm-1.145,9.161H7.29V43.29h6.871Z" transform="translate(-0.419 4.806)"/><path d="M17,7H42.194V9.29H17Z" transform="translate(1.323 -0.129)"/><path d="M17,11H42.194v2.29H17Z" transform="translate(1.323 0.452)"/><path d="M17,19H42.194v2.29H17Z" transform="translate(1.323 1.613)"/><path d="M17,23H42.194v2.29H17Z" transform="translate(1.323 2.194)"/><path d="M14.832,5.248H6.145A1.146,1.146,0,0,0,5,6.393v9.161A1.146,1.146,0,0,0,6.145,16.7h9.161a1.146,1.146,0,0,0,1.145-1.145V6.867l1.955-1.955L16.787,3.293Zm-2.29,2.29L7.29,12.79V7.538Zm1.619,6.871H8.91l5.252-5.252Z" transform="translate(-0.419 -0.667)"/><path d="M16.787,27.293l-1.955,1.955H6.145A1.146,1.146,0,0,0,5,30.393v9.161A1.145,1.145,0,0,0,6.145,40.7h9.161a1.145,1.145,0,0,0,1.145-1.145V30.867l1.955-1.955Zm-4.245,4.245L7.29,36.79V31.538Zm1.619,6.871H8.91l5.252-5.252Z" transform="translate(-0.419 2.817)"/><path d="M70.855,72A1.145,1.145,0,0,0,72,70.855V50.242A1.145,1.145,0,0,0,70.855,49.1H65.129V31.919a1.146,1.146,0,0,0-1.145-1.145H49.1V2.145A1.146,1.146,0,0,0,47.952,1H2.145A1.146,1.146,0,0,0,1,2.145V61.694a1.145,1.145,0,0,0,1.145,1.145H19.323v8.016A1.145,1.145,0,0,0,20.468,72ZM55.968,51.387h4.581v4.581H55.968ZM42.226,49.1V33.065H49.1V38.79a1.145,1.145,0,0,0,1.145,1.145h4.581a1.145,1.145,0,0,0,1.145-1.145V33.065h6.871V49.1Zm9.161-16.032h2.29v4.581h-2.29ZM19.323,50.242V60.548H3.29V3.29H46.806V30.774H41.081a1.146,1.146,0,0,0-1.145,1.145v3.435H19.323v2.29H39.935v2.29H19.323v2.29H39.935V49.1H20.468A1.145,1.145,0,0,0,19.323,50.242Zm11.452,1.145h4.581v4.581H30.774Zm-9.161,0h6.871v5.726a1.145,1.145,0,0,0,1.145,1.145H36.5a1.145,1.145,0,0,0,1.145-1.145V51.387h6.871V69.71h-22.9ZM69.71,69.71h-22.9V51.387h6.871v5.726a1.145,1.145,0,0,0,1.145,1.145h6.871a1.145,1.145,0,0,0,1.145-1.145V51.387H69.71Z" transform="translate(-1 -1)"/><path d="M55,57h4.581v2.29H55Z" transform="translate(6.839 7.129)"/><path d="M49,39h4.581v2.29H49Z" transform="translate(5.968 4.516)"/><path d="M55,53h4.581v2.29H55Z" transform="translate(6.839 6.548)"/><path d="M33,57h4.581v2.29H33Z" transform="translate(3.645 7.129)"/><path d="M33,53h4.581v2.29H33Z" transform="translate(3.645 6.548)"/></g></g><g transform="translate(763.502 1510.539)"><g transform="translate(2.145 2.145)"><g transform="translate(4.58 22.902)"><path d="M65.544,22v4.58H6V22H65.544Z" transform="translate(-6 -22)" fill="#aab2bd"/></g><g transform="translate(64.125 2.29)"><path d="M62.58,5.145v65.27H58V5.145A1.148,1.148,0,0,1,59.145,4h2.29A1.148,1.148,0,0,1,62.58,5.145Z" transform="translate(-58 -4)" fill="#aab2bd"/></g><g transform="translate(0 2.29)"><path d="M6.58,5.145v65.27H2V5.145A1.148,1.148,0,0,1,3.145,4h2.29A1.148,1.148,0,0,1,6.58,5.145Z" transform="translate(-2 -4)" fill="#aab2bd"/></g><g transform="translate(38.933 50.384)"><path d="M40.58,48.29V64.321H36V46h4.58Z" transform="translate(-36 -46)" fill="#ccd1d9"/></g><g transform="translate(25.192 50.384)"><path d="M37.741,46V64.321H28.58l-.218-2.176A10.242,10.242,0,0,0,24,54.726V46H37.741Z" transform="translate(-24 -46)" fill="#e6e9ed"/></g><g transform="translate(43.513 52.674)"><path d="M40,48H60.611V64.031H40Z" transform="translate(-40 -48)" fill="#d3a06c"/></g><g transform="translate(32.062 34.352)"><path d="M30,32V48.031H41.451v2.29H57.482V32Z" transform="translate(-30 -32)" fill="#d3a06c"/></g><g transform="translate(9.161)"><path d="M32.9,2v9.161h-6.87V24.9H10V2h6.87V6.58h9.161V2Z" transform="translate(-10 -2)" fill="#d3a06c"/></g><g transform="translate(36.643)"><path d="M56.9,2V24.9H40.87V11.161H34V2h6.87V6.58h9.161V2Z" transform="translate(-34 -2)" fill="#d3a06c"/></g><g transform="translate(25.192 9.161)"><path d="M24,10H42.321V23.741H24Z" transform="translate(-24 -10)" fill="#cf9e76"/></g><g transform="translate(32.062 9.161)"><path d="M30,10h4.58v4.58H30Z" transform="translate(-30 -10)" fill="#dfb28b"/></g><g transform="translate(50.384 52.674)"><path d="M46,48h6.87v6.87H46Z" transform="translate(-46 -48)" fill="#b27946"/></g><g transform="translate(41.223 34.352)"><path d="M38,32h9.161v4.58H38Z" transform="translate(-38 -32)" fill="#b27946"/></g><g transform="translate(43.513)"><path d="M40,2h9.161V6.58H40Z" transform="translate(-40 -2)" fill="#b27946"/></g><g transform="translate(16.031)"><path d="M16,2h9.161V6.58H16Z" transform="translate(-16 -2)" fill="#b27946"/></g><g transform="translate(0 57.254)"><path d="M24.9,63.451H2l.218-2.176A10.3,10.3,0,0,1,12.466,52h8.84a10.342,10.342,0,0,1,5.886,1.844v.011a10.242,10.242,0,0,1,4.363,7.42l.218,2.176Z" transform="translate(-2 -52)" fill="#b4dd7f"/></g><g transform="translate(4.58 27.482)"><path d="M7.065,38.768A7.832,7.832,0,0,1,6,34.817,8.823,8.823,0,0,1,14.817,26H25.466a1.148,1.148,0,0,1,1.145,1.145v2.29a5.631,5.631,0,0,1-1.821,4.157,6.044,6.044,0,0,1-4.145,1.569H17.577a2.484,2.484,0,0,1-1.523-.5l-.011.011-.882,5.073a2.3,2.3,0,0,0-2.29,2.29,2.756,2.756,0,0,0,.813,1.958l1.477,1.477v.87a4.138,4.138,0,0,1-2.29,3.71l-3.16-1.58a6.7,6.7,0,0,1-3-9Z" transform="translate(-6 -26)" fill="#656d78"/></g><g transform="translate(11.451 35.074)"><path d="M15.183,33.695a2.484,2.484,0,0,0,1.523.5h3.069A6.044,6.044,0,0,0,23.92,32.63l.011.011a34.446,34.446,0,0,1,4.1,9.573l-2.29,1.145V44.5a5.728,5.728,0,0,1-5.725,5.725H18.87v4.58H12V49.085a4.138,4.138,0,0,0,2.29-3.71V44.5l-1.477-1.477A2.756,2.756,0,0,1,12,41.069a2.3,2.3,0,0,1,2.29-2.29l.882-5.073Z" transform="translate(-12 -32.63)" fill="#f0d0b4"/></g></g><g transform="translate(1 1)"><path d="M69.7,3.29h-2.29a2.292,2.292,0,0,0-2.29,2.29V23.9h-2.29V1H37.643v9.161h-2.29V1H10.161V23.9H7.87V5.58A2.292,2.292,0,0,0,5.58,3.29H3.29A2.292,2.292,0,0,0,1,5.58V72H72V5.58A2.292,2.292,0,0,0,69.7,3.29Zm-22.9,0h2.29V5.58H46.8Zm4.58,0h2.29V5.58h-2.29Zm-11.451,0h4.58V7.87H55.964V3.29h4.58V23.9H46.8V10.161h-6.87Zm0,9.161h4.58V23.9H28.482V12.451h4.58v4.58h6.87Zm-2.29,0v2.29h-2.29v-2.29ZM19.321,3.29h2.29V5.58h-2.29Zm4.58,0h2.29V5.58H23.9Zm-11.451,0h4.58V7.87H28.482V3.29h4.58v6.87h-6.87V23.9H12.451Zm52.674,22.9v2.29H7.87v-2.29ZM23.9,67.415V69.7H10.161v-2.29H7.87V69.7H3.41l.092-.911a9.131,9.131,0,0,1,9.115-8.249h8.829a9.131,9.131,0,0,1,9.115,8.249l.092.911h-4.46v-2.29ZM7.87,30.772H9.2A10.067,10.067,0,0,0,7.87,32.1Zm.172,13.97,1.2,1.6,1.832-1.374L9.221,42.5a6.786,6.786,0,0,1-1.35-4.051,7.672,7.672,0,0,1,7.674-7.673H26.192v2.29a4.656,4.656,0,0,1-4.821,4.58H18.3a1.233,1.233,0,0,1-1.206-.758,1.166,1.166,0,0,1,.161-1.066,1.134,1.134,0,0,1,.922-.466h1.145v-2.29H18.176A3.442,3.442,0,0,0,14.9,37.557a3.166,3.166,0,0,0,.638,1.128L14.9,42.367a3.443,3.443,0,0,0-2.447,3.291A3.885,3.885,0,0,0,13.6,48.422l1.145,1.145v.4a2.982,2.982,0,0,1-1.2,2.4l-2.6-1.3a5.535,5.535,0,0,1-2.9-6.325Zm13.569,13.52v-2.3a6.835,6.835,0,0,0,4.58-1.763v5.085A11.449,11.449,0,0,0,21.611,58.262Zm4.58-9.169a4.585,4.585,0,0,1-4.58,4.58h-2.29v4.58h-4.58v-3.93a5.256,5.256,0,0,0,2.29-4.357V48.618L15.216,46.8a1.607,1.607,0,0,1-.475-1.145,1.146,1.146,0,0,1,1.145-1.145h.963l.81-4.64a3.683,3.683,0,0,0,.639.06H21.37a7.341,7.341,0,0,0,3.809-1.045,33.026,33.026,0,0,1,3.1,7.309l-2.087,1.044ZM32.84,68.566a11.465,11.465,0,0,0-.176-1.151h4.979v-2.29h-5.7a11.381,11.381,0,0,0-3.456-4.461v-6.99H39.933V69.7H32.954Zm9.383-14.892h2.29V69.7h-2.29Zm-6.87-2.29V37.643h6.87v4.58H53.674v-4.58h6.87V53.674H46.8v-2.29ZM51.384,37.643v2.29h-2.29v-2.29Zm-4.58,2.29h-2.29v-2.29H46.8Zm6.87,16.031h4.58v4.58h-4.58ZM33.062,35.352V51.384H28.081a6.814,6.814,0,0,0,.4-2.29v-.437l2.479-1.239-.222-.891a35.127,35.127,0,0,0-3.793-9.157,6.739,6.739,0,0,0,1.536-4.307v-2.29H65.125v22.9h-2.29V35.352ZM5.58,5.58V38.445a9.067,9.067,0,0,0,.928,3.943l-.1.2a7.849,7.849,0,0,0,3.51,10.531l2.532,1.265v3.881a11.4,11.4,0,0,0-9.161,4.8V5.58ZM46.8,69.7V55.964h4.58v6.87h9.161v-6.87h4.58V69.7Zm22.9,0h-2.29V5.58H69.7Z" transform="translate(-1 -1)"/><path d="M27,49h6.87v2.29H27Z" transform="translate(2.772 5.964)"/><path d="M27,53h6.87v2.29H27Z" transform="translate(2.772 6.544)"/></g></g><g transform="translate(535 1581.454)"><path d="M77.355,46.551,50.678,32,24,46.551v54.568H77.355Z" transform="translate(-6.787 -6.787)" fill="#e6e6e6"/><path d="M376,128h16.977v54.568H376Z" transform="translate(-305.432 -88.236)" fill="#b3b3b3"/><path d="M56,152H99.654v50.93H56Z" transform="translate(-33.937 -108.598)" fill="#b3b3b3"/><path d="M243.654,46.551,216.977,32H200l26.678,14.551Z" transform="translate(-156.11 -6.787)" fill="#ccc"/><path d="M88,424h9.7v9.7H88Z" transform="translate(-61.087 -339.369)" fill="#fc7"/><path d="M152,424h7.276v9.7H152Z" transform="translate(-115.386 -339.369)" fill="#fcb73f"/><path d="M88,360h9.7v9.7H88Z" transform="translate(-61.087 -285.07)" fill="#ff6f35"/><path d="M152,360h7.276v9.7H152Z" transform="translate(-115.386 -285.07)" fill="#e05e1d"/><path d="M88,296h9.7v9.7H88Z" transform="translate(-61.087 -230.771)" fill="#fc7"/><path d="M152,296h7.276v9.7H152Z" transform="translate(-115.386 -230.771)" fill="#fcb73f"/><g transform="translate(49.733 89.593)"><circle cx="2.5" cy="2.5" r="2.5" transform="translate(0.267 -0.047)" fill="gray"/><circle cx="2.5" cy="2.5" r="2.5" transform="translate(10.267 -0.047)" fill="gray"/><circle cx="2.5" cy="2.5" r="2.5" transform="translate(22.267 -0.047)" fill="gray"/></g><path d="M352,392h7.276v9.7H352Z" transform="translate(-285.07 -312.22)" fill="#e05e1d"/><path d="M240,392h9.7v9.7H240Z" transform="translate(-190.047 -312.22)" fill="#fc7"/><path d="M304,392h7.276v9.7H304Z" transform="translate(-244.346 -312.22)" fill="#fcb73f"/><path d="M386.425,424a2.425,2.425,0,0,1,2.425,2.425v2.425H384v-2.425A2.425,2.425,0,0,1,386.425,424Z" transform="translate(-312.22 -339.369)" fill="#2b7cd4"/><path d="M288,328h9.7v9.7H288Z" transform="translate(-230.771 -257.921)" fill="#fc7"/><path d="M352,328h7.276v9.7H352Z" transform="translate(-285.07 -257.921)" fill="#fcb73f"/><path d="M56,152H99.654v4.85H56Z" transform="translate(-33.937 -108.598)" fill="#3ea7ff"/><path d="M56,184H99.654v4.85H56Z" transform="translate(-33.937 -135.748)" fill="#2b7cd4"/><path d="M56,216H99.654v4.85H56Z" transform="translate(-33.937 -162.897)" fill="#104f91"/><path d="M88.119,38.7,61.447,24.148A1.214,1.214,0,0,0,60.867,24H43.89a1.21,1.21,0,0,0-.581.148h0L16.632,38.7A1.213,1.213,0,0,0,16,39.764V94.332a1.213,1.213,0,0,0,1.213,1.213h29.1V93.119H45.1V65.229a1.213,1.213,0,0,0-1.213-1.213H26.913A1.213,1.213,0,0,0,25.7,65.229v27.89H23.276V59.166H64.5v7.276H66.93V43.4a1.213,1.213,0,0,0-1.213-1.213H22.063A1.213,1.213,0,0,0,20.85,43.4V93.119H18.425V40.484L43.89,26.594l25.465,13.89V61.591H71.78V40.977H86.332V93.119H80.269v2.425h7.276a1.213,1.213,0,0,0,1.213-1.213V39.764a1.213,1.213,0,0,0-.638-1.068ZM23.276,56.741V54.315H64.5v2.425Zm0-4.85V49.465H64.5V51.89ZM64.5,44.614V47.04H23.276V44.614ZM37.827,76.142h4.85v7.276h-4.85ZM35.4,83.418H28.126V76.142H35.4Zm2.425,9.7V85.843h4.85v7.276Zm4.85-19.4h-4.85V66.442h4.85ZM35.4,66.442v7.276H28.126V66.442Zm-7.276,19.4H35.4v7.276H28.126ZM70.877,38.551,48.646,26.425H60.558L82.789,38.551Z" transform="translate(0)"/><path d="M254.315,311.04a3.644,3.644,0,0,0-2.425-3.429v-8.241l6.429-7.347A2.425,2.425,0,0,0,256.494,288h-6.478a2.425,2.425,0,0,0-1.825.828l-3.52,4.022H233.7a1.213,1.213,0,0,0-1.213,1.213v8.488h-6.063a1.213,1.213,0,0,0-1.213,1.213v8.488H224v2.425h1.421a3.638,3.638,0,1,0,6.859,0h2.842a3.638,3.638,0,1,0,6.859,0h5.268a3.638,3.638,0,1,0,6.859,0h1.421v-2.425h-1.213Zm-4.85,1.213V311.04a1.213,1.213,0,0,1,2.425,0v1.213Zm-12.126,0v-7.276h4.85v7.276Zm12.126-16.977v7.276h-4.85v-7.276Zm-4.85,9.7h4.85v2.634a3.644,3.644,0,0,0-2.425,3.429v1.213h-2.425Zm5.4-14.551h6.478l-4.6,5.26v-1.623a1.213,1.213,0,0,0-1.213-1.213h-2.784Zm-15.1,4.85h7.276v7.276h-7.276Zm-4.85,20.614a1.213,1.213,0,1,1-1.213-1.213A1.213,1.213,0,0,1,230.063,315.89Zm-2.425-3.638v-7.276h7.276v7.276Zm12.126,3.638a1.213,1.213,0,1,1-1.213-1.213A1.213,1.213,0,0,1,239.764,315.89Zm10.914,1.213a1.213,1.213,0,1,1,1.213-1.213A1.213,1.213,0,0,1,250.678,317.1Z" transform="translate(-176.472 -223.984)"/></g></g></svg>