<svg xmlns="http://www.w3.org/2000/svg" xmlns:xlink="http://www.w3.org/1999/xlink" width="383.012" height="324.224" viewBox="0 0 383.012 324.224"><defs><clipPath id="a"><rect width="383.012" height="324.224" fill="none"/></clipPath><clipPath id="c"><rect width="78.411" height="68.512" fill="none"/></clipPath><clipPath id="d"><rect width="72.249" height="60.802" fill="none"/></clipPath><clipPath id="f"><path d="M748.055,241.752h-61a5.626,5.626,0,0,1-5.626-5.626v-49.55a5.626,5.626,0,0,1,5.626-5.626h61a5.626,5.626,0,0,1,5.626,5.626v49.55a5.626,5.626,0,0,1-5.626,5.626" transform="translate(-681.432 -180.95)" fill="none"/></clipPath><linearGradient id="g" x1="-4.067" y1="4.049" x2="-4.061" y2="4.049" gradientUnits="objectBoundingBox"><stop offset="0" stop-color="#f6fdfe"/><stop offset="1" stop-color="#faf8ff"/></linearGradient><clipPath id="i"><path d="M747.374,240.9h-61a5.626,5.626,0,0,1-5.626-5.626v-49.55a5.626,5.626,0,0,1,5.626-5.626h61A5.626,5.626,0,0,1,753,185.724v49.55a5.626,5.626,0,0,1-5.626,5.626" transform="translate(-680.751 -180.098)" fill="none"/></clipPath><linearGradient id="j" x1="-4.063" y1="4.055" x2="-4.057" y2="4.055" gradientUnits="objectBoundingBox"><stop offset="0" stop-color="#eefcfe"/><stop offset="1" stop-color="#f5f1ff"/></linearGradient><clipPath id="l"><path d="M746.694,240.049h-61a5.626,5.626,0,0,1-5.626-5.626v-49.55a5.626,5.626,0,0,1,5.626-5.626h61a5.626,5.626,0,0,1,5.626,5.626v49.55a5.626,5.626,0,0,1-5.626,5.626" transform="translate(-680.071 -179.247)" fill="none"/></clipPath><linearGradient id="m" x1="-4.059" y1="4.061" x2="-4.053" y2="4.061" gradientUnits="objectBoundingBox"><stop offset="0" stop-color="#e5fafd"/><stop offset="1" stop-color="#f0ebff"/></linearGradient><clipPath id="o"><path d="M746.013,239.2h-61a5.626,5.626,0,0,1-5.626-5.626v-49.55a5.626,5.626,0,0,1,5.626-5.626h61a5.626,5.626,0,0,1,5.626,5.626v49.55a5.626,5.626,0,0,1-5.626,5.626" transform="translate(-679.39 -178.395)" fill="none"/></clipPath><linearGradient id="p" x1="-4.054" y1="4.067" x2="-4.049" y2="4.067" gradientUnits="objectBoundingBox"><stop offset="0" stop-color="#ddf9fd"/><stop offset="1" stop-color="#ebe4ff"/></linearGradient><clipPath id="r"><path d="M745.333,238.346h-61a5.626,5.626,0,0,1-5.626-5.626V183.17a5.626,5.626,0,0,1,5.626-5.626h61a5.626,5.626,0,0,1,5.626,5.626v49.55a5.626,5.626,0,0,1-5.626,5.626" transform="translate(-678.71 -177.544)" fill="none"/></clipPath><linearGradient id="s" x1="-4.05" y1="4.073" x2="-4.044" y2="4.073" gradientUnits="objectBoundingBox"><stop offset="0" stop-color="#d4f7fc"/><stop offset="1" stop-color="#e6ddff"/></linearGradient><clipPath id="u"><path d="M744.652,237.494h-61a5.626,5.626,0,0,1-5.626-5.626v-49.55a5.626,5.626,0,0,1,5.626-5.626h61a5.626,5.626,0,0,1,5.626,5.626v49.55a5.626,5.626,0,0,1-5.626,5.626" transform="translate(-678.029 -176.692)" fill="none"/></clipPath><linearGradient id="v" x1="-4.046" y1="4.079" x2="-4.04" y2="4.079" gradientUnits="objectBoundingBox"><stop offset="0" stop-color="#ccf6fc"/><stop offset="1" stop-color="#e1d6fe"/></linearGradient><clipPath id="x"><path d="M743.972,236.643h-61a5.626,5.626,0,0,1-5.626-5.626v-49.55a5.626,5.626,0,0,1,5.626-5.626h61a5.626,5.626,0,0,1,5.626,5.626v49.55a5.626,5.626,0,0,1-5.626,5.626" transform="translate(-677.349 -175.841)" fill="none"/></clipPath><linearGradient id="y" x1="-4.042" y1="4.086" x2="-4.036" y2="4.086" gradientUnits="objectBoundingBox"><stop offset="0" stop-color="#c3f4fb"/><stop offset="1" stop-color="#dcd0fe"/></linearGradient><clipPath id="aa"><path d="M743.291,235.791h-61a5.626,5.626,0,0,1-5.626-5.626v-49.55a5.626,5.626,0,0,1,5.626-5.626h61a5.626,5.626,0,0,1,5.626,5.626v49.55a5.626,5.626,0,0,1-5.626,5.626" transform="translate(-676.668 -174.989)" fill="none"/></clipPath><linearGradient id="ab" x1="-4.038" y1="4.092" x2="-4.032" y2="4.092" gradientUnits="objectBoundingBox"><stop offset="0" stop-color="#baf3fa"/><stop offset="1" stop-color="#d7c9fe"/></linearGradient><clipPath id="ad"><path d="M742.611,234.94h-61a5.626,5.626,0,0,1-5.626-5.626v-49.55a5.626,5.626,0,0,1,5.626-5.626h61a5.626,5.626,0,0,1,5.626,5.626v49.55a5.626,5.626,0,0,1-5.626,5.626" transform="translate(-675.988 -174.138)" fill="none"/></clipPath><linearGradient id="ae" x1="-4.034" y1="4.098" x2="-4.028" y2="4.098" gradientUnits="objectBoundingBox"><stop offset="0" stop-color="#b2f1fa"/><stop offset="1" stop-color="#d2c2fe"/></linearGradient><clipPath id="ag"><path d="M741.93,234.088h-61a5.626,5.626,0,0,1-5.626-5.626v-49.55a5.626,5.626,0,0,1,5.626-5.626h61a5.626,5.626,0,0,1,5.626,5.626v49.55a5.626,5.626,0,0,1-5.626,5.626" transform="translate(-675.307 -173.286)" fill="none"/></clipPath><linearGradient id="ah" x1="-4.03" y1="4.104" x2="-4.024" y2="4.104" gradientUnits="objectBoundingBox"><stop offset="0" stop-color="#a9f0f9"/><stop offset="1" stop-color="#cdbbfe"/></linearGradient><clipPath id="aj"><path d="M741.25,233.237h-61a5.626,5.626,0,0,1-5.626-5.626v-49.55a5.626,5.626,0,0,1,5.626-5.626h61a5.626,5.626,0,0,1,5.626,5.626v49.55a5.626,5.626,0,0,1-5.626,5.626" transform="translate(-674.627 -172.435)" fill="none"/></clipPath><linearGradient id="ak" x1="-4.026" y1="4.11" x2="-4.02" y2="4.11" gradientUnits="objectBoundingBox"><stop offset="0" stop-color="#a1eef9"/><stop offset="1" stop-color="#c9b5fe"/></linearGradient><clipPath id="am"><path d="M740.569,232.385h-61a5.626,5.626,0,0,1-5.626-5.626v-49.55a5.626,5.626,0,0,1,5.626-5.626h61a5.626,5.626,0,0,1,5.626,5.626v49.55a5.626,5.626,0,0,1-5.626,5.626" transform="translate(-673.946 -171.583)" fill="none"/></clipPath><linearGradient id="an" x1="-4.022" y1="4.116" x2="-4.016" y2="4.116" gradientUnits="objectBoundingBox"><stop offset="0" stop-color="#98edf8"/><stop offset="1" stop-color="#c4aefe"/></linearGradient><clipPath id="ap"><path d="M739.889,231.534h-61a5.626,5.626,0,0,1-5.626-5.626v-49.55a5.626,5.626,0,0,1,5.626-5.626h61a5.626,5.626,0,0,1,5.626,5.626v49.55a5.626,5.626,0,0,1-5.626,5.626" transform="translate(-673.266 -170.732)" fill="none"/></clipPath><linearGradient id="aq" x1="-4.018" y1="4.122" x2="-4.012" y2="4.122" gradientUnits="objectBoundingBox"><stop offset="0" stop-color="#90ebf8"/><stop offset="1" stop-color="#bfa7fe"/></linearGradient><clipPath id="as"><path d="M739.209,230.682h-61a5.626,5.626,0,0,1-5.626-5.626v-49.55a5.626,5.626,0,0,1,5.626-5.626h61a5.626,5.626,0,0,1,5.626,5.626v49.55a5.626,5.626,0,0,1-5.626,5.626" transform="translate(-672.586 -169.88)" fill="none"/></clipPath><linearGradient id="at" x1="-4.014" y1="4.128" x2="-4.008" y2="4.128" gradientUnits="objectBoundingBox"><stop offset="0" stop-color="#87eaf7"/><stop offset="1" stop-color="#baa0fe"/></linearGradient><clipPath id="av"><path d="M738.528,229.831h-61a5.626,5.626,0,0,1-5.626-5.626v-49.55a5.626,5.626,0,0,1,5.626-5.626h61a5.626,5.626,0,0,1,5.626,5.626V224.2a5.626,5.626,0,0,1-5.626,5.626" transform="translate(-671.905 -169.029)" fill="none"/></clipPath><linearGradient id="aw" x1="-4.01" y1="4.134" x2="-4.004" y2="4.134" gradientUnits="objectBoundingBox"><stop offset="0" stop-color="#7ee8f6"/><stop offset="1" stop-color="#b59afe"/></linearGradient><clipPath id="ay"><path d="M737.848,228.979h-61a5.626,5.626,0,0,1-5.626-5.626V173.8a5.626,5.626,0,0,1,5.626-5.626h61a5.626,5.626,0,0,1,5.626,5.626v49.55a5.626,5.626,0,0,1-5.626,5.626" transform="translate(-671.225 -168.177)" fill="none"/></clipPath><linearGradient id="az" x1="-4.006" y1="4.14" x2="-4" y2="4.14" gradientUnits="objectBoundingBox"><stop offset="0" stop-color="#76e7f6"/><stop offset="1" stop-color="#b093fd"/></linearGradient><clipPath id="bb"><path d="M737.167,228.128h-61a5.626,5.626,0,0,1-5.626-5.626v-49.55a5.626,5.626,0,0,1,5.626-5.626h61a5.626,5.626,0,0,1,5.626,5.626V222.5a5.626,5.626,0,0,1-5.626,5.626" transform="translate(-670.544 -167.326)" fill="none"/></clipPath><linearGradient id="bc" x1="-4.002" y1="4.146" x2="-3.996" y2="4.146" gradientUnits="objectBoundingBox"><stop offset="0" stop-color="#6de5f5"/><stop offset="1" stop-color="#ab8cfd"/></linearGradient><clipPath id="be"><path d="M736.487,227.276h-61a5.626,5.626,0,0,1-5.626-5.626V172.1a5.626,5.626,0,0,1,5.626-5.626h61a5.626,5.626,0,0,1,5.626,5.626v49.55a5.626,5.626,0,0,1-5.626,5.626" transform="translate(-669.864 -166.474)" fill="none"/></clipPath><linearGradient id="bf" x1="-3.998" y1="4.152" x2="-3.992" y2="4.152" gradientUnits="objectBoundingBox"><stop offset="0" stop-color="#65e4f5"/><stop offset="1" stop-color="#a685fd"/></linearGradient><clipPath id="bh"><path d="M735.806,226.425h-61a5.626,5.626,0,0,1-5.626-5.626v-49.55a5.626,5.626,0,0,1,5.626-5.626h61a5.626,5.626,0,0,1,5.626,5.626V220.8a5.626,5.626,0,0,1-5.626,5.626" transform="translate(-669.183 -165.623)" fill="none"/></clipPath><linearGradient id="bi" x1="-3.994" y1="4.158" x2="-3.988" y2="4.158" gradientUnits="objectBoundingBox"><stop offset="0" stop-color="#5ce2f4"/><stop offset="1" stop-color="#a17ffd"/></linearGradient><clipPath id="bk"><path d="M735.126,225.573h-61a5.626,5.626,0,0,1-5.626-5.626V170.4a5.626,5.626,0,0,1,5.626-5.626h61a5.626,5.626,0,0,1,5.626,5.626v49.55a5.626,5.626,0,0,1-5.626,5.626" transform="translate(-668.503 -164.771)" fill="none"/></clipPath><linearGradient id="bl" x1="-3.99" y1="4.164" x2="-3.984" y2="4.164" gradientUnits="objectBoundingBox"><stop offset="0" stop-color="#54e1f4"/><stop offset="1" stop-color="#9c78fd"/></linearGradient><clipPath id="bn"><path d="M734.445,224.722h-61a5.626,5.626,0,0,1-5.626-5.626v-49.55a5.626,5.626,0,0,1,5.626-5.626h61a5.626,5.626,0,0,1,5.626,5.626V219.1a5.626,5.626,0,0,1-5.626,5.626" transform="translate(-667.822 -163.92)" fill="none"/></clipPath><linearGradient id="bo" x1="-3.985" y1="4.17" x2="-3.979" y2="4.17" gradientUnits="objectBoundingBox"><stop offset="0" stop-color="#4bdff3"/><stop offset="1" stop-color="#9771fd"/></linearGradient><clipPath id="bp"><path d="M755.887,192.318,772.5,177.664a22.1,22.1,0,0,0-16.613-7.5Z" transform="translate(-755.887 -170.164)" fill="none"/></clipPath><linearGradient id="bq" x1="-19.618" y1="11.323" x2="-19.592" y2="11.323" gradientUnits="objectBoundingBox"><stop offset="0" stop-color="#febf00"/><stop offset="0.001" stop-color="#febf00"/><stop offset="0.984" stop-color="#ffdf00"/><stop offset="1" stop-color="#ffdf00"/></linearGradient><clipPath id="bs"><rect width="78.389" height="68.493" fill="none"/></clipPath><clipPath id="bt"><rect width="72.229" height="60.785" fill="none"/></clipPath><clipPath id="bv"><path d="M535.295,77.81h-60.98a5.625,5.625,0,0,1-5.625-5.625V22.65a5.625,5.625,0,0,1,5.625-5.625h60.98a5.625,5.625,0,0,1,5.625,5.625V72.186a5.625,5.625,0,0,1-5.625,5.625" transform="translate(-468.69 -17.025)" fill="none"/></clipPath><linearGradient id="bw" x1="-2.798" y1="5.213" x2="-2.792" y2="5.213" gradientUnits="objectBoundingBox"><stop offset="0" stop-color="#f9feff"/><stop offset="1" stop-color="#fbfaff"/></linearGradient><clipPath id="by"><path d="M534.615,76.959H473.634a5.624,5.624,0,0,1-5.624-5.624V21.8a5.624,5.624,0,0,1,5.624-5.625h60.981a5.624,5.624,0,0,1,5.624,5.625V71.335a5.624,5.624,0,0,1-5.624,5.624" transform="translate(-468.01 -16.174)" fill="none"/></clipPath><linearGradient id="bz" x1="-2.794" y1="5.219" x2="-2.788" y2="5.219" gradientUnits="objectBoundingBox"><stop offset="0" stop-color="#f3fdfe"/><stop offset="1" stop-color="#f8f5ff"/></linearGradient><clipPath id="cb"><path d="M533.934,76.108h-60.98a5.624,5.624,0,0,1-5.624-5.625V20.947a5.624,5.624,0,0,1,5.624-5.624h60.98a5.624,5.624,0,0,1,5.625,5.624V70.483a5.624,5.624,0,0,1-5.625,5.625" transform="translate(-467.33 -15.323)" fill="none"/></clipPath><linearGradient id="cc" x1="-2.79" y1="5.225" x2="-2.784" y2="5.225" gradientUnits="objectBoundingBox"><stop offset="0" stop-color="#edfcfe"/><stop offset="1" stop-color="#f4f1ff"/></linearGradient><clipPath id="ce"><path d="M533.254,75.256h-60.98a5.625,5.625,0,0,1-5.625-5.625V20.1a5.625,5.625,0,0,1,5.625-5.625h60.98a5.625,5.625,0,0,1,5.625,5.625V69.632a5.625,5.625,0,0,1-5.625,5.625" transform="translate(-466.649 -14.471)" fill="none"/></clipPath><linearGradient id="cf" x1="-2.786" y1="5.231" x2="-2.78" y2="5.231" gradientUnits="objectBoundingBox"><stop offset="0" stop-color="#e6fbfd"/><stop offset="1" stop-color="#f1ecff"/></linearGradient><clipPath id="ch"><path d="M532.574,74.405h-60.98a5.625,5.625,0,0,1-5.625-5.625V19.245a5.624,5.624,0,0,1,5.625-5.625h60.98a5.624,5.624,0,0,1,5.624,5.625V68.781a5.625,5.625,0,0,1-5.624,5.625" transform="translate(-465.969 -13.62)" fill="none"/></clipPath><linearGradient id="ci" x1="-2.782" y1="5.237" x2="-2.776" y2="5.237" gradientUnits="objectBoundingBox"><stop offset="0" stop-color="#e0fafd"/><stop offset="1" stop-color="#ede7ff"/></linearGradient><clipPath id="ck"><path d="M531.894,73.554H470.913a5.624,5.624,0,0,1-5.624-5.624V18.394a5.624,5.624,0,0,1,5.624-5.625h60.981a5.624,5.624,0,0,1,5.624,5.625V67.93a5.624,5.624,0,0,1-5.624,5.624" transform="translate(-465.289 -12.769)" fill="none"/></clipPath><linearGradient id="cl" x1="-2.778" y1="5.243" x2="-2.772" y2="5.243" gradientUnits="objectBoundingBox"><stop offset="0" stop-color="#daf8fc"/><stop offset="1" stop-color="#eae2ff"/></linearGradient><clipPath id="cn"><path d="M531.213,72.7h-60.98a5.625,5.625,0,0,1-5.625-5.625V17.542a5.625,5.625,0,0,1,5.625-5.624h60.98a5.624,5.624,0,0,1,5.625,5.624V67.078a5.624,5.624,0,0,1-5.625,5.625" transform="translate(-464.608 -11.918)" fill="none"/></clipPath><linearGradient id="co" x1="-2.773" y1="5.249" x2="-2.767" y2="5.249" xlink:href="#s"/><clipPath id="cq"><path d="M530.533,71.851h-60.98a5.625,5.625,0,0,1-5.625-5.625V16.691a5.625,5.625,0,0,1,5.625-5.625h60.98a5.625,5.625,0,0,1,5.625,5.625V66.227a5.625,5.625,0,0,1-5.625,5.625" transform="translate(-463.928 -11.066)" fill="none"/></clipPath><linearGradient id="cr" x1="-2.769" y1="5.255" x2="-2.763" y2="5.255" gradientUnits="objectBoundingBox"><stop offset="0" stop-color="#cef6fc"/><stop offset="1" stop-color="#e3d9ff"/></linearGradient><clipPath id="ct"><path d="M529.853,71H468.872a5.625,5.625,0,0,1-5.624-5.625V15.84a5.624,5.624,0,0,1,5.624-5.625h60.981a5.624,5.624,0,0,1,5.624,5.625V65.376A5.625,5.625,0,0,1,529.853,71" transform="translate(-463.248 -10.215)" fill="none"/></clipPath><linearGradient id="cu" x1="-2.765" y1="5.261" x2="-2.759" y2="5.261" gradientUnits="objectBoundingBox"><stop offset="0" stop-color="#c8f5fb"/><stop offset="1" stop-color="#dfd4ff"/></linearGradient><clipPath id="cw"><path d="M529.172,70.149h-60.98a5.624,5.624,0,0,1-5.624-5.624V14.988a5.624,5.624,0,0,1,5.624-5.624h60.98a5.624,5.624,0,0,1,5.625,5.624V64.525a5.624,5.624,0,0,1-5.625,5.624" transform="translate(-462.568 -9.364)" fill="none"/></clipPath><linearGradient id="cx" x1="-2.761" y1="5.268" x2="-2.755" y2="5.268" gradientUnits="objectBoundingBox"><stop offset="0" stop-color="#c2f4fb"/><stop offset="1" stop-color="#dccfff"/></linearGradient><clipPath id="cz"><path d="M528.492,69.3h-60.98a5.625,5.625,0,0,1-5.625-5.625V14.137a5.625,5.625,0,0,1,5.625-5.624h60.98a5.625,5.625,0,0,1,5.625,5.624V63.673a5.625,5.625,0,0,1-5.625,5.625" transform="translate(-461.887 -8.513)" fill="none"/></clipPath><linearGradient id="da" x1="-2.757" y1="5.274" x2="-2.751" y2="5.274" gradientUnits="objectBoundingBox"><stop offset="0" stop-color="#bbf3fa"/><stop offset="1" stop-color="#d8cafe"/></linearGradient><clipPath id="dc"><path d="M527.812,68.446h-60.98a5.625,5.625,0,0,1-5.625-5.625V13.286a5.625,5.625,0,0,1,5.625-5.625h60.98a5.625,5.625,0,0,1,5.624,5.625V62.822a5.625,5.625,0,0,1-5.624,5.625" transform="translate(-461.207 -7.661)" fill="none"/></clipPath><linearGradient id="dd" x1="-2.753" y1="5.28" x2="-2.747" y2="5.28" gradientUnits="objectBoundingBox"><stop offset="0" stop-color="#b5f2fa"/><stop offset="1" stop-color="#d5c5fe"/></linearGradient><clipPath id="df"><path d="M527.131,67.595h-60.98a5.624,5.624,0,0,1-5.624-5.624V12.435a5.624,5.624,0,0,1,5.624-5.625h60.98a5.624,5.624,0,0,1,5.625,5.625V61.971a5.624,5.624,0,0,1-5.625,5.624" transform="translate(-460.527 -6.81)" fill="none"/></clipPath><linearGradient id="dg" x1="-2.749" y1="5.286" x2="-2.743" y2="5.286" gradientUnits="objectBoundingBox"><stop offset="0" stop-color="#aff1f9"/><stop offset="1" stop-color="#d1c0fe"/></linearGradient><clipPath id="di"><path d="M526.451,66.744h-60.98a5.625,5.625,0,0,1-5.625-5.624V11.583a5.625,5.625,0,0,1,5.625-5.624h60.98a5.624,5.624,0,0,1,5.625,5.624V61.12a5.624,5.624,0,0,1-5.625,5.624" transform="translate(-459.846 -5.959)" fill="none"/></clipPath><linearGradient id="dj" x1="-2.745" y1="5.292" x2="-2.739" y2="5.292" gradientUnits="objectBoundingBox"><stop offset="0" stop-color="#a9f0f9"/><stop offset="1" stop-color="#cebcfe"/></linearGradient><clipPath id="dl"><path d="M525.771,65.893h-60.98a5.624,5.624,0,0,1-5.625-5.625V10.732a5.624,5.624,0,0,1,5.625-5.624h60.98a5.625,5.625,0,0,1,5.625,5.624V60.268a5.625,5.625,0,0,1-5.625,5.625" transform="translate(-459.166 -5.108)" fill="none"/></clipPath><linearGradient id="dm" x1="-2.741" y1="5.298" x2="-2.735" y2="5.298" gradientUnits="objectBoundingBox"><stop offset="0" stop-color="#a3eff9"/><stop offset="1" stop-color="#cab7fe"/></linearGradient><clipPath id="do"><path d="M525.091,65.041H464.11a5.625,5.625,0,0,1-5.624-5.625V9.881a5.625,5.625,0,0,1,5.624-5.625h60.981a5.624,5.624,0,0,1,5.624,5.625V59.417a5.624,5.624,0,0,1-5.624,5.625" transform="translate(-458.486 -4.256)" fill="none"/></clipPath><linearGradient id="dp" x1="-2.737" y1="5.304" x2="-2.731" y2="5.304" gradientUnits="objectBoundingBox"><stop offset="0" stop-color="#9dedf8"/><stop offset="1" stop-color="#c7b2fe"/></linearGradient><clipPath id="dr"><path d="M524.41,64.19H463.43a5.624,5.624,0,0,1-5.624-5.624V9.03a5.624,5.624,0,0,1,5.624-5.625h60.98a5.624,5.624,0,0,1,5.625,5.625V58.566a5.624,5.624,0,0,1-5.625,5.624" transform="translate(-457.806 -3.405)" fill="none"/></clipPath><linearGradient id="ds" x1="-2.733" y1="5.31" x2="-2.727" y2="5.31" gradientUnits="objectBoundingBox"><stop offset="0" stop-color="#97ecf8"/><stop offset="1" stop-color="#c3adfe"/></linearGradient><clipPath id="du"><path d="M523.73,63.339H462.75a5.625,5.625,0,0,1-5.625-5.625V8.178a5.625,5.625,0,0,1,5.625-5.624h60.98a5.625,5.625,0,0,1,5.625,5.624V57.714a5.625,5.625,0,0,1-5.625,5.625" transform="translate(-457.125 -2.554)" fill="none"/></clipPath><linearGradient id="dv" x1="-2.729" y1="5.316" x2="-2.723" y2="5.316" gradientUnits="objectBoundingBox"><stop offset="0" stop-color="#90ebf7"/><stop offset="1" stop-color="#c0a8fe"/></linearGradient><clipPath id="dx"><path d="M523.05,62.487H462.07a5.624,5.624,0,0,1-5.625-5.625V7.327A5.625,5.625,0,0,1,462.07,1.7h60.98a5.625,5.625,0,0,1,5.624,5.625V56.863a5.624,5.624,0,0,1-5.624,5.625" transform="translate(-456.445 -1.702)" fill="none"/></clipPath><linearGradient id="dy" x1="-2.725" y1="5.322" x2="-2.719" y2="5.322" gradientUnits="objectBoundingBox"><stop offset="0" stop-color="#8aeaf7"/><stop offset="1" stop-color="#bca4fe"/></linearGradient><clipPath id="ea"><path d="M522.37,61.636H461.389a5.625,5.625,0,0,1-5.624-5.625V6.476A5.624,5.624,0,0,1,461.389.851H522.37a5.624,5.624,0,0,1,5.624,5.625V56.012a5.625,5.625,0,0,1-5.624,5.625" transform="translate(-455.765 -0.851)" fill="none"/></clipPath><linearGradient id="eb" x1="-2.721" y1="5.328" x2="-2.715" y2="5.328" gradientUnits="objectBoundingBox"><stop offset="0" stop-color="#84e9f6"/><stop offset="1" stop-color="#b99ffe"/></linearGradient><clipPath id="ed"><path d="M521.689,60.785h-60.98a5.625,5.625,0,0,1-5.625-5.624V5.624A5.625,5.625,0,0,1,460.709,0h60.98a5.624,5.624,0,0,1,5.625,5.624V55.161a5.624,5.624,0,0,1-5.625,5.624" transform="translate(-455.084)" fill="none"/></clipPath><linearGradient id="ee" x1="-2.717" y1="5.334" x2="-2.711" y2="5.334" xlink:href="#aw"/><clipPath id="ef"><rect width="8.301" height="42.047" fill="none"/></clipPath><linearGradient id="eg" x1="-28.439" y1="7.442" x2="-28.387" y2="7.442" gradientUnits="objectBoundingBox"><stop offset="0" stop-color="#c7e9f9"/><stop offset="0.999" stop-color="#f1f9fe"/><stop offset="1" stop-color="#f1f9fe"/></linearGradient><linearGradient id="ei" x1="-26.539" y1="7.442" x2="-26.487" y2="7.442" xlink:href="#eg"/><linearGradient id="ek" x1="-30.339" y1="7.442" x2="-30.287" y2="7.442" xlink:href="#eg"/><linearGradient id="em" x1="-24.639" y1="7.442" x2="-24.587" y2="7.442" xlink:href="#eg"/><clipPath id="er"><path d="M265.993,149.174h-60.98a5.625,5.625,0,0,1-5.625-5.625V94.014a5.625,5.625,0,0,1,5.625-5.625h60.98a5.625,5.625,0,0,1,5.625,5.625V143.55a5.625,5.625,0,0,1-5.625,5.625" transform="translate(-199.388 -88.389)" fill="none"/></clipPath><linearGradient id="es" x1="-1.19" y1="4.707" x2="-1.184" y2="4.707" xlink:href="#bw"/><clipPath id="eu"><path d="M265.313,148.323h-60.98a5.625,5.625,0,0,1-5.625-5.625V93.163a5.624,5.624,0,0,1,5.625-5.625h60.98a5.625,5.625,0,0,1,5.625,5.625V142.7a5.625,5.625,0,0,1-5.625,5.625" transform="translate(-198.708 -87.538)" fill="none"/></clipPath><linearGradient id="ev" x1="-1.186" y1="4.713" x2="-1.18" y2="4.713" xlink:href="#bz"/><clipPath id="ex"><path d="M264.633,147.472H203.652a5.624,5.624,0,0,1-5.624-5.624V92.312a5.624,5.624,0,0,1,5.624-5.625h60.981a5.624,5.624,0,0,1,5.624,5.625v49.536a5.624,5.624,0,0,1-5.624,5.624" transform="translate(-198.028 -86.687)" fill="none"/></clipPath><linearGradient id="ey" x1="-1.182" y1="4.719" x2="-1.176" y2="4.719" xlink:href="#cc"/><clipPath id="fa"><path d="M263.952,146.621h-60.98A5.625,5.625,0,0,1,197.347,141V91.46a5.625,5.625,0,0,1,5.625-5.624h60.98a5.624,5.624,0,0,1,5.625,5.624V141a5.624,5.624,0,0,1-5.625,5.625" transform="translate(-197.347 -85.836)" fill="none"/></clipPath><linearGradient id="fb" x1="-1.178" y1="4.725" x2="-1.172" y2="4.725" xlink:href="#cf"/><clipPath id="fd"><path d="M263.272,145.769h-60.98a5.625,5.625,0,0,1-5.625-5.625V90.609a5.625,5.625,0,0,1,5.625-5.625h60.98a5.625,5.625,0,0,1,5.625,5.625v49.536a5.625,5.625,0,0,1-5.625,5.625" transform="translate(-196.667 -84.984)" fill="none"/></clipPath><linearGradient id="fe" x1="-1.174" y1="4.731" x2="-1.168" y2="4.731" xlink:href="#ci"/><clipPath id="fg"><path d="M262.592,144.918H201.611a5.624,5.624,0,0,1-5.624-5.624V89.758a5.624,5.624,0,0,1,5.624-5.625h60.981a5.624,5.624,0,0,1,5.624,5.625v49.536a5.624,5.624,0,0,1-5.624,5.624" transform="translate(-195.987 -84.133)" fill="none"/></clipPath><linearGradient id="fh" x1="-1.17" y1="4.737" x2="-1.164" y2="4.737" xlink:href="#cl"/><clipPath id="fj"><path d="M261.911,144.067h-60.98a5.624,5.624,0,0,1-5.624-5.624V88.906a5.624,5.624,0,0,1,5.624-5.624h60.98a5.624,5.624,0,0,1,5.625,5.624v49.536a5.624,5.624,0,0,1-5.625,5.624" transform="translate(-195.307 -83.282)" fill="none"/></clipPath><linearGradient id="fk" x1="-1.166" y1="4.743" x2="-1.16" y2="4.743" xlink:href="#s"/><clipPath id="fm"><path d="M261.231,143.216h-60.98a5.625,5.625,0,0,1-5.625-5.625V88.055a5.625,5.625,0,0,1,5.625-5.624h60.98a5.625,5.625,0,0,1,5.625,5.624v49.536a5.625,5.625,0,0,1-5.625,5.625" transform="translate(-194.626 -82.431)" fill="none"/></clipPath><linearGradient id="fn" x1="-1.162" y1="4.749" x2="-1.156" y2="4.749" xlink:href="#cr"/><clipPath id="fp"><path d="M260.551,142.364h-60.98a5.625,5.625,0,0,1-5.625-5.625V87.2a5.625,5.625,0,0,1,5.625-5.625h60.98a5.625,5.625,0,0,1,5.624,5.625V136.74a5.625,5.625,0,0,1-5.624,5.625" transform="translate(-193.946 -81.579)" fill="none"/></clipPath><linearGradient id="fq" x1="-1.158" y1="4.755" x2="-1.152" y2="4.755" xlink:href="#cu"/><clipPath id="fs"><path d="M259.871,141.513H198.89a5.624,5.624,0,0,1-5.624-5.624V86.353a5.624,5.624,0,0,1,5.624-5.625h60.981a5.624,5.624,0,0,1,5.624,5.625v49.536a5.624,5.624,0,0,1-5.624,5.624" transform="translate(-193.266 -80.728)" fill="none"/></clipPath><linearGradient id="ft" x1="-1.154" y1="4.761" x2="-1.148" y2="4.761" xlink:href="#cx"/><clipPath id="fv"><path d="M259.19,140.662H198.21a5.625,5.625,0,0,1-5.625-5.624V85.5a5.625,5.625,0,0,1,5.625-5.624h60.98a5.624,5.624,0,0,1,5.625,5.624v49.536a5.624,5.624,0,0,1-5.625,5.624" transform="translate(-192.585 -79.877)" fill="none"/></clipPath><linearGradient id="fw" x1="-1.15" y1="4.767" x2="-1.144" y2="4.767" xlink:href="#da"/><clipPath id="fy"><path d="M258.51,139.81H197.53a5.624,5.624,0,0,1-5.625-5.625V84.65a5.625,5.625,0,0,1,5.625-5.625h60.98a5.625,5.625,0,0,1,5.625,5.625v49.536a5.625,5.625,0,0,1-5.625,5.625" transform="translate(-191.905 -79.025)" fill="none"/></clipPath><linearGradient id="fz" x1="-1.146" y1="4.773" x2="-1.14" y2="4.773" xlink:href="#dd"/><clipPath id="gb"><path d="M257.83,138.959H196.849a5.625,5.625,0,0,1-5.624-5.625V83.8a5.624,5.624,0,0,1,5.624-5.625H257.83a5.624,5.624,0,0,1,5.624,5.625v49.536a5.625,5.625,0,0,1-5.624,5.625" transform="translate(-191.225 -78.174)" fill="none"/></clipPath><linearGradient id="gc" x1="-1.142" y1="4.779" x2="-1.136" y2="4.779" xlink:href="#dg"/><clipPath id="ge"><path d="M257.149,138.108h-60.98a5.624,5.624,0,0,1-5.624-5.624V82.948a5.624,5.624,0,0,1,5.624-5.625h60.98a5.624,5.624,0,0,1,5.625,5.625v49.536a5.624,5.624,0,0,1-5.625,5.624" transform="translate(-190.545 -77.323)" fill="none"/></clipPath><linearGradient id="gf" x1="-1.137" y1="4.785" x2="-1.131" y2="4.785" xlink:href="#dj"/><clipPath id="gh"><path d="M256.469,137.257h-60.98a5.625,5.625,0,0,1-5.625-5.625V82.1a5.625,5.625,0,0,1,5.625-5.624h60.98a5.625,5.625,0,0,1,5.625,5.624v49.536a5.625,5.625,0,0,1-5.625,5.625" transform="translate(-189.864 -76.472)" fill="none"/></clipPath><linearGradient id="gi" x1="-1.133" y1="4.792" x2="-1.127" y2="4.792" xlink:href="#dm"/><clipPath id="gk"><path d="M255.789,136.405h-60.98a5.625,5.625,0,0,1-5.625-5.625V81.245a5.625,5.625,0,0,1,5.625-5.625h60.98a5.625,5.625,0,0,1,5.624,5.625v49.536a5.625,5.625,0,0,1-5.624,5.625" transform="translate(-189.184 -75.62)" fill="none"/></clipPath><linearGradient id="gl" x1="-1.129" y1="4.798" x2="-1.123" y2="4.798" xlink:href="#dp"/><clipPath id="gn"><path d="M255.109,135.554H194.128a5.624,5.624,0,0,1-5.624-5.624V80.394a5.624,5.624,0,0,1,5.624-5.625h60.981a5.624,5.624,0,0,1,5.624,5.625V129.93a5.624,5.624,0,0,1-5.624,5.624" transform="translate(-188.504 -74.769)" fill="none"/></clipPath><linearGradient id="go" x1="-1.125" y1="4.804" x2="-1.119" y2="4.804" xlink:href="#ds"/><clipPath id="gq"><path d="M254.428,134.7h-60.98a5.625,5.625,0,0,1-5.625-5.624V79.543a5.625,5.625,0,0,1,5.625-5.625h60.98a5.624,5.624,0,0,1,5.625,5.625v49.536a5.624,5.624,0,0,1-5.625,5.624" transform="translate(-187.823 -73.918)" fill="none"/></clipPath><linearGradient id="gr" x1="-1.121" y1="4.81" x2="-1.115" y2="4.81" xlink:href="#dv"/><clipPath id="gt"><path d="M253.748,133.852h-60.98a5.624,5.624,0,0,1-5.625-5.625V78.691a5.624,5.624,0,0,1,5.625-5.624h60.98a5.625,5.625,0,0,1,5.625,5.624v49.536a5.625,5.625,0,0,1-5.625,5.625" transform="translate(-187.143 -73.067)" fill="none"/></clipPath><linearGradient id="gu" x1="-1.117" y1="4.816" x2="-1.111" y2="4.816" xlink:href="#dy"/><clipPath id="gw"><path d="M253.068,133H192.087a5.625,5.625,0,0,1-5.624-5.625V77.84a5.625,5.625,0,0,1,5.624-5.625h60.981a5.625,5.625,0,0,1,5.624,5.625v49.536A5.625,5.625,0,0,1,253.068,133" transform="translate(-186.463 -72.215)" fill="none"/></clipPath><linearGradient id="gx" x1="-1.113" y1="4.822" x2="-1.107" y2="4.822" xlink:href="#eb"/><clipPath id="gz"><path d="M252.387,132.149h-60.98a5.624,5.624,0,0,1-5.624-5.624V76.989a5.624,5.624,0,0,1,5.624-5.625h60.98a5.624,5.624,0,0,1,5.625,5.625v49.536a5.624,5.624,0,0,1-5.625,5.624" transform="translate(-185.783 -71.364)" fill="none"/></clipPath><linearGradient id="ha" x1="-1.109" y1="4.828" x2="-1.103" y2="4.828" xlink:href="#aw"/><clipPath id="hb"><path d="M5.356,0H51.828a5.355,5.355,0,0,1,5.355,5.355V36.691a5.356,5.356,0,0,1-5.356,5.356H5.355A5.355,5.355,0,0,1,0,36.692V5.356A5.356,5.356,0,0,1,5.356,0Z" fill="none"/></clipPath><linearGradient id="hc" x1="-1.52" y1="6.756" x2="-1.513" y2="6.756" gradientUnits="objectBoundingBox"><stop offset="0" stop-color="#c7e9f9"/><stop offset="0.458" stop-color="#f1f9fe"/><stop offset="1" stop-color="#f1f9fe"/></linearGradient><clipPath id="hd"><path d="M249.116,116.456c-3.665,3.177-6.17,7.573-8.182,11.1l-.026.046c-1.542,2.708-3.136,5.508-5.467,7.455-2.486,2.078-5.619,2.776-7.983,1.777a12.5,12.5,0,0,1-1.936-1.117,10.827,10.827,0,0,0-3.089-1.574,7.739,7.739,0,0,0-5.415.73,20.926,20.926,0,0,0-4.135,2.96l-4.276,3.63,1.305,1.538,4.277-3.63a19.356,19.356,0,0,1,3.727-2.691,5.741,5.741,0,0,1,3.988-.589,9.186,9.186,0,0,1,2.511,1.313,14.213,14.213,0,0,0,2.256,1.288c3.052,1.29,7,.471,10.063-2.087,2.609-2.181,4.295-5.141,5.926-8l.026-.046c1.936-3.4,4.345-7.628,7.75-10.579.666-.577,2.982-2.395,4.785-1.526l.876-1.817a4.4,4.4,0,0,0-1.93-.431,8.006,8.006,0,0,0-5.053,2.25" transform="translate(-208.608 -114.206)" fill="none"/></clipPath><linearGradient id="he" x1="-1.894" y1="9.548" x2="-1.885" y2="9.548" gradientUnits="objectBoundingBox"><stop offset="0" stop-color="#3393eb"/><stop offset="0.998" stop-color="#37bedf"/><stop offset="1" stop-color="#37bedf"/></linearGradient><clipPath id="hf"><path d="M308.1,110.951a3.091,3.091,0,1,0,3.092-3.091,3.092,3.092,0,0,0-3.092,3.091" transform="translate(-308.095 -107.859)" fill="none"/></clipPath><linearGradient id="hg" x1="-21.485" y1="44.916" x2="-21.415" y2="44.916" xlink:href="#he"/><clipPath id="hi"><rect width="78.937" height="73.487" fill="none"/></clipPath><clipPath id="hj"><rect width="72.735" height="65.217" fill="none"/></clipPath><clipPath id="hl"><path d="M94.293,352.359H32.886a5.858,5.858,0,0,1-5.664-6.035V293.176a5.858,5.858,0,0,1,5.664-6.034H94.293a5.858,5.858,0,0,1,5.664,6.034v53.148a5.858,5.858,0,0,1-5.664,6.035" transform="translate(-27.222 -287.142)" fill="none"/></clipPath><linearGradient id="hm" x1="-0.161" y1="3.073" x2="-0.155" y2="3.073" xlink:href="#g"/><clipPath id="ho"><path d="M93.608,351.445H32.2a5.858,5.858,0,0,1-5.664-6.034V292.263a5.858,5.858,0,0,1,5.664-6.035H93.608a5.858,5.858,0,0,1,5.664,6.035v53.148a5.858,5.858,0,0,1-5.664,6.034" transform="translate(-26.537 -286.228)" fill="none"/></clipPath><linearGradient id="hp" x1="-0.157" y1="3.079" x2="-0.151" y2="3.079" xlink:href="#j"/><clipPath id="hr"><path d="M92.923,350.532H31.516a5.858,5.858,0,0,1-5.664-6.035V291.35a5.858,5.858,0,0,1,5.664-6.035H92.923a5.858,5.858,0,0,1,5.664,6.035V344.5a5.858,5.858,0,0,1-5.664,6.035" transform="translate(-25.852 -285.315)" fill="none"/></clipPath><linearGradient id="hs" x1="-0.153" y1="3.085" x2="-0.147" y2="3.085" xlink:href="#m"/><clipPath id="hu"><path d="M92.238,349.619H30.831a5.858,5.858,0,0,1-5.664-6.035V290.436a5.858,5.858,0,0,1,5.664-6.034H92.238a5.858,5.858,0,0,1,5.664,6.034v53.148a5.858,5.858,0,0,1-5.664,6.035" transform="translate(-25.167 -284.402)" fill="none"/></clipPath><linearGradient id="hv" x1="-0.149" y1="3.091" x2="-0.143" y2="3.091" xlink:href="#p"/><clipPath id="hx"><path d="M91.553,348.7H30.146a5.858,5.858,0,0,1-5.664-6.034V289.523a5.858,5.858,0,0,1,5.664-6.035H91.553a5.858,5.858,0,0,1,5.664,6.035v53.148a5.858,5.858,0,0,1-5.664,6.034" transform="translate(-24.482 -283.488)" fill="none"/></clipPath><linearGradient id="hy" x1="-0.145" y1="3.097" x2="-0.139" y2="3.097" xlink:href="#s"/><clipPath id="ia"><path d="M90.868,347.792H29.461a5.858,5.858,0,0,1-5.664-6.035V288.61a5.858,5.858,0,0,1,5.664-6.035H90.868a5.858,5.858,0,0,1,5.664,6.035v53.148a5.858,5.858,0,0,1-5.664,6.035" transform="translate(-23.797 -282.575)" fill="none"/></clipPath><linearGradient id="ib" x1="-0.141" y1="3.103" x2="-0.135" y2="3.103" xlink:href="#v"/><clipPath id="id"><path d="M90.183,346.879H28.776a5.858,5.858,0,0,1-5.664-6.035V287.7a5.858,5.858,0,0,1,5.664-6.034H90.183a5.858,5.858,0,0,1,5.664,6.034v53.148a5.858,5.858,0,0,1-5.664,6.035" transform="translate(-23.112 -281.662)" fill="none"/></clipPath><linearGradient id="ie" x1="-0.137" y1="3.109" x2="-0.131" y2="3.109" xlink:href="#y"/><clipPath id="ig"><path d="M89.5,345.965H28.091a5.858,5.858,0,0,1-5.664-6.034V286.783a5.858,5.858,0,0,1,5.664-6.035H89.5a5.858,5.858,0,0,1,5.664,6.035v53.148a5.858,5.858,0,0,1-5.664,6.034" transform="translate(-22.427 -280.748)" fill="none"/></clipPath><linearGradient id="ih" x1="-0.133" y1="3.115" x2="-0.127" y2="3.115" xlink:href="#ab"/><clipPath id="ij"><path d="M88.813,345.052H27.406a5.858,5.858,0,0,1-5.664-6.035V285.87a5.858,5.858,0,0,1,5.664-6.035H88.813a5.858,5.858,0,0,1,5.664,6.035v53.147a5.858,5.858,0,0,1-5.664,6.035" transform="translate(-21.742 -279.835)" fill="none"/></clipPath><linearGradient id="ik" x1="-0.129" y1="3.121" x2="-0.123" y2="3.121" xlink:href="#ae"/><clipPath id="im"><path d="M88.128,344.139H26.721a5.858,5.858,0,0,1-5.664-6.035V284.956a5.858,5.858,0,0,1,5.664-6.034H88.128a5.858,5.858,0,0,1,5.664,6.034V338.1a5.858,5.858,0,0,1-5.664,6.035" transform="translate(-21.057 -278.922)" fill="none"/></clipPath><linearGradient id="in" x1="-0.125" y1="3.127" x2="-0.119" y2="3.127" xlink:href="#ah"/><clipPath id="ip"><path d="M87.443,343.225H26.036a5.858,5.858,0,0,1-5.664-6.034V284.043a5.858,5.858,0,0,1,5.664-6.035H87.443a5.858,5.858,0,0,1,5.664,6.035v53.148a5.858,5.858,0,0,1-5.664,6.034" transform="translate(-20.372 -278.008)" fill="none"/></clipPath><linearGradient id="iq" x1="-0.121" y1="3.133" x2="-0.115" y2="3.133" xlink:href="#ak"/><clipPath id="is"><path d="M86.758,342.312H25.351a5.858,5.858,0,0,1-5.664-6.035V283.13a5.858,5.858,0,0,1,5.664-6.035H86.758a5.858,5.858,0,0,1,5.664,6.035v53.147a5.858,5.858,0,0,1-5.664,6.035" transform="translate(-19.687 -277.095)" fill="none"/></clipPath><linearGradient id="it" x1="-0.117" y1="3.139" x2="-0.111" y2="3.139" xlink:href="#an"/><clipPath id="iv"><path d="M86.073,341.4H24.666A5.858,5.858,0,0,1,19,335.364V282.216a5.858,5.858,0,0,1,5.664-6.034H86.073a5.858,5.858,0,0,1,5.664,6.034v53.148a5.858,5.858,0,0,1-5.664,6.035" transform="translate(-19.002 -276.182)" fill="none"/></clipPath><linearGradient id="iw" x1="-0.113" y1="3.146" x2="-0.107" y2="3.146" xlink:href="#aq"/><clipPath id="ix"><rect width="72.734" height="65.217" fill="none"/></clipPath><clipPath id="iy"><path d="M85.388,340.485H23.981a5.858,5.858,0,0,1-5.664-6.034V281.3a5.858,5.858,0,0,1,5.664-6.035H85.388a5.858,5.858,0,0,1,5.663,6.035v53.148a5.858,5.858,0,0,1-5.663,6.034" transform="translate(-18.317 -275.268)" fill="none"/></clipPath><linearGradient id="iz" x1="-0.109" y1="3.152" x2="-0.103" y2="3.152" xlink:href="#at"/><clipPath id="jb"><path d="M84.7,339.572H23.3a5.858,5.858,0,0,1-5.664-6.035V280.39a5.858,5.858,0,0,1,5.664-6.035H84.7a5.858,5.858,0,0,1,5.664,6.035v53.147a5.858,5.858,0,0,1-5.664,6.035" transform="translate(-17.632 -274.355)" fill="none"/></clipPath><linearGradient id="jc" x1="-0.105" y1="3.158" x2="-0.099" y2="3.158" xlink:href="#aw"/><clipPath id="je"><path d="M84.017,338.659H22.61a5.858,5.858,0,0,1-5.663-6.035V279.476a5.858,5.858,0,0,1,5.663-6.034H84.017a5.858,5.858,0,0,1,5.664,6.034v53.148a5.858,5.858,0,0,1-5.664,6.035" transform="translate(-16.947 -273.442)" fill="none"/></clipPath><linearGradient id="jf" x1="-0.1" y1="3.164" x2="-0.095" y2="3.164" xlink:href="#az"/><clipPath id="jh"><path d="M83.332,337.745H21.925a5.858,5.858,0,0,1-5.664-6.034V278.563a5.858,5.858,0,0,1,5.664-6.035H83.332A5.858,5.858,0,0,1,89,278.563v53.148a5.858,5.858,0,0,1-5.664,6.034" transform="translate(-16.261 -272.528)" fill="none"/></clipPath><linearGradient id="ji" x1="-0.096" y1="3.17" x2="-0.09" y2="3.17" xlink:href="#bc"/><clipPath id="jk"><path d="M82.647,336.832H21.24a5.858,5.858,0,0,1-5.664-6.035V277.65a5.858,5.858,0,0,1,5.664-6.035H82.647a5.858,5.858,0,0,1,5.664,6.035V330.8a5.858,5.858,0,0,1-5.664,6.035" transform="translate(-15.576 -271.615)" fill="none"/></clipPath><linearGradient id="jl" x1="-0.092" y1="3.176" x2="-0.086" y2="3.176" xlink:href="#bf"/><clipPath id="jn"><path d="M81.962,335.919H20.555a5.858,5.858,0,0,1-5.664-6.035V276.736a5.858,5.858,0,0,1,5.664-6.034H81.962a5.858,5.858,0,0,1,5.664,6.034v53.148a5.858,5.858,0,0,1-5.664,6.035" transform="translate(-14.891 -270.702)" fill="none"/></clipPath><linearGradient id="jo" x1="-0.088" y1="3.182" x2="-0.082" y2="3.182" xlink:href="#bi"/><clipPath id="jq"><path d="M81.277,335H19.87a5.858,5.858,0,0,1-5.664-6.034V275.823a5.858,5.858,0,0,1,5.664-6.035H81.277a5.858,5.858,0,0,1,5.664,6.035v53.148A5.858,5.858,0,0,1,81.277,335" transform="translate(-14.206 -269.788)" fill="none"/></clipPath><linearGradient id="jr" x1="-0.084" y1="3.188" x2="-0.078" y2="3.188" xlink:href="#bl"/><clipPath id="jt"><path d="M80.592,334.092H19.185a5.858,5.858,0,0,1-5.664-6.035V274.91a5.858,5.858,0,0,1,5.664-6.035H80.592a5.858,5.858,0,0,1,5.664,6.035v53.148a5.858,5.858,0,0,1-5.664,6.035" transform="translate(-13.521 -268.875)" fill="none"/></clipPath><linearGradient id="ju" x1="-0.08" y1="3.194" x2="-0.074" y2="3.194" xlink:href="#bo"/><clipPath id="jv"><rect width="21.207" height="20.793" fill="none"/></clipPath><linearGradient id="jw" x1="-0.338" y1="5.908" x2="-0.317" y2="5.908" xlink:href="#eg"/><clipPath id="jx"><path d="M104.234,488.9h0Z" transform="translate(-104.234 -488.903)" fill="none"/></clipPath><clipPath id="jy"><path d="M0,488.9H0Z" transform="translate(0 -488.903)" fill="none"/></clipPath><linearGradient id="jz" y1="0.5" x2="1000" y2="0.5" gradientUnits="objectBoundingBox"><stop offset="0" stop-color="#fb7db7"/><stop offset="1" stop-color="#fdacaf"/></linearGradient><clipPath id="kb"><rect width="150.408" height="21.487" fill="none"/></clipPath><linearGradient id="kc" x1="-0.924" y1="1.124" x2="-0.92" y2="1.124" gradientUnits="objectBoundingBox"><stop offset="0" stop-color="#a2ed94"/><stop offset="1" stop-color="#69c7b3"/></linearGradient><clipPath id="ke"><rect width="150.408" height="21.708" fill="none"/></clipPath><linearGradient id="kf" x1="-0.986" y1="0.946" x2="-0.982" y2="0.946" xlink:href="#kc"/><clipPath id="kh"><rect width="150.224" height="2.769" fill="none"/></clipPath><linearGradient id="kj" x1="-0.918" y1="0.767" x2="-0.914" y2="0.767" xlink:href="#kc"/><clipPath id="kl"><rect width="150.224" height="2.768" fill="none"/></clipPath><linearGradient id="kn" x1="-0.918" y1="0.589" x2="-0.914" y2="0.589" xlink:href="#kc"/><clipPath id="kq"><rect width="13.281" height="110.492" fill="none"/></clipPath><clipPath id="kr"><path d="M9.317,0H80.925a9.317,9.317,0,0,1,9.317,9.317V104.89a9.318,9.318,0,0,1-9.318,9.318H9.318A9.318,9.318,0,0,1,0,104.89V9.317A9.317,9.317,0,0,1,9.317,0Z" fill="none"/></clipPath><linearGradient id="ks" x1="-2.735" y1="1.026" x2="-2.73" y2="1.026" xlink:href="#eg"/><clipPath id="ku"><rect width="83.002" height="30.846" fill="none"/></clipPath><clipPath id="kv"><path d="M6.519,0H76.483A6.519,6.519,0,0,1,83,6.519v17.81a6.518,6.518,0,0,1-6.518,6.518H6.519A6.519,6.519,0,0,1,0,24.328V6.519A6.519,6.519,0,0,1,6.519,0Z" fill="none"/></clipPath><linearGradient id="kw" x1="-3.015" y1="3.712" x2="-3.01" y2="3.712" xlink:href="#bo"/><clipPath id="ky"><rect width="80.485" height="67.938" fill="none"/></clipPath><clipPath id="kz"><path d="M4.636,0H11.8a4.636,4.636,0,0,1,4.636,4.636V6.513A4.637,4.637,0,0,1,11.8,11.15H4.637A4.637,4.637,0,0,1,0,6.513V4.636A4.636,4.636,0,0,1,4.636,0Z" fill="none"/></clipPath><linearGradient id="la" x1="-19.208" y1="4.359" x2="-19.182" y2="4.359" gradientUnits="objectBoundingBox"><stop offset="0" stop-color="#5e6398"/><stop offset="0.999" stop-color="#292e6f"/><stop offset="1" stop-color="#292e6f"/></linearGradient><clipPath id="lb"><rect width="16.437" height="11.15" rx="4.637" fill="none"/></clipPath><linearGradient id="lc" x1="-19.208" y1="5.632" x2="-19.182" y2="5.632" xlink:href="#la"/><clipPath id="ld"><path d="M4.636,0H11.8a4.637,4.637,0,0,1,4.637,4.637V6.513A4.637,4.637,0,0,1,11.8,11.15H4.637A4.637,4.637,0,0,1,0,6.513V4.636A4.636,4.636,0,0,1,4.636,0Z" fill="none"/></clipPath><linearGradient id="le" x1="-19.208" y1="6.905" x2="-19.182" y2="6.905" gradientUnits="objectBoundingBox"><stop offset="0" stop-color="#ffb682"/><stop offset="1" stop-color="#ee5379"/></linearGradient><clipPath id="lg"><rect width="129.77" height="128.472" fill="none"/></clipPath><clipPath id="li"><rect width="57.103" height="13.748" fill="none"/></clipPath><clipPath id="lj"><rect width="50.678" height="5.86" fill="none"/></clipPath><clipPath id="lm"><rect width="42.956" height="42.527" fill="none"/></clipPath><clipPath id="lo"><path d="M77.88,603.632H68.145a1.411,1.411,0,0,0-1.212,1.548v2.111a1.411,1.411,0,0,0,1.212,1.548H87.372a1.411,1.411,0,0,0,1.212-1.548V605.18a1.411,1.411,0,0,0-1.212-1.548Z" transform="translate(-66.933 -603.632)" fill="none"/></clipPath><linearGradient id="lp" x1="-1.333" y1="12.282" x2="-1.313" y2="12.282" xlink:href="#bq"/><clipPath id="lr"><rect width="21.651" height="5.208" fill="none"/></clipPath><clipPath id="ls"><path d="M77.88,603.632H68.145a1.25,1.25,0,0,0-1.212,1.285v1.752a1.25,1.25,0,0,0,1.212,1.285H87.372a1.25,1.25,0,0,0,1.212-1.285v-1.752a1.25,1.25,0,0,0-1.212-1.285Z" transform="translate(-66.933 -603.632)" fill="none"/></clipPath><linearGradient id="lt" x1="-1.333" y1="14.796" x2="-1.313" y2="14.796" xlink:href="#bq"/></defs><g transform="translate(-975.994 -1249.52)"><g transform="translate(975.994 1249.52)"><g clip-path="url(#a)"><g clip-path="url(#a)"><g transform="translate(287.946 70.678)" opacity="0.3" style="mix-blend-mode:multiply;isolation:isolate"><g clip-path="url(#c)"><g transform="translate(6.161 7.71)"><g clip-path="url(#d)"><path d="M748.735,242.6h-61a5.626,5.626,0,0,1-5.626-5.626v-49.55a5.626,5.626,0,0,1,5.626-5.626h61a5.626,5.626,0,0,1,5.626,5.626v49.55a5.626,5.626,0,0,1-5.626,5.626" transform="translate(-682.112 -181.801)" fill="#fff"/></g></g><g transform="translate(5.868 7.343)"><g clip-path="url(#d)"><g transform="translate(0 0)"><g clip-path="url(#f)"><rect width="72.249" height="60.802" transform="translate(0 0)" fill="url(#g)"/></g></g></g></g><g transform="translate(5.575 6.975)"><g clip-path="url(#d)"><g transform="translate(0 0)"><g clip-path="url(#i)"><rect width="72.249" height="60.802" transform="translate(0 0)" fill="url(#j)"/></g></g></g></g><g transform="translate(5.281 6.609)"><g clip-path="url(#d)"><g transform="translate(0 0)"><g clip-path="url(#l)"><rect width="72.249" height="60.802" transform="translate(0 0)" fill="url(#m)"/></g></g></g></g><g transform="translate(4.988 6.241)"><g clip-path="url(#d)"><g transform="translate(0 0)"><g clip-path="url(#o)"><rect width="72.249" height="60.802" transform="translate(0 0)" fill="url(#p)"/></g></g></g></g><g transform="translate(4.695 5.874)"><g clip-path="url(#d)"><g clip-path="url(#r)"><rect width="72.249" height="60.802" fill="url(#s)"/></g></g></g><g transform="translate(4.401 5.507)"><g clip-path="url(#d)"><g transform="translate(0 0)"><g clip-path="url(#u)"><rect width="72.249" height="60.802" transform="translate(0 0)" fill="url(#v)"/></g></g></g></g><g transform="translate(4.108 5.14)"><g clip-path="url(#d)"><g clip-path="url(#x)"><rect width="72.249" height="60.802" transform="translate(0 0)" fill="url(#y)"/></g></g></g><g transform="translate(3.814 4.773)"><g clip-path="url(#d)"><g transform="translate(0 0)"><g clip-path="url(#aa)"><rect width="72.249" height="60.802" transform="translate(0 0)" fill="url(#ab)"/></g></g></g></g><g transform="translate(3.521 4.406)"><g clip-path="url(#d)"><g clip-path="url(#ad)"><rect width="72.249" height="60.802" transform="translate(0)" fill="url(#ae)"/></g></g></g><g transform="translate(3.227 4.038)"><g clip-path="url(#d)"><g transform="translate(0 0)"><g clip-path="url(#ag)"><rect width="72.249" height="60.802" transform="translate(0 0)" fill="url(#ah)"/></g></g></g></g><g transform="translate(2.934 3.671)"><g clip-path="url(#d)"><g clip-path="url(#aj)"><rect width="72.249" height="60.802" transform="translate(0 0)" fill="url(#ak)"/></g></g></g><g transform="translate(2.64 3.304)"><g clip-path="url(#d)"><g transform="translate(0 0)"><g clip-path="url(#am)"><rect width="72.249" height="60.802" transform="translate(0 0)" fill="url(#an)"/></g></g></g></g><g transform="translate(2.347 2.937)"><g clip-path="url(#d)"><g clip-path="url(#ap)"><rect width="72.249" height="60.802" transform="translate(0 0)" fill="url(#aq)"/></g></g></g><g transform="translate(2.054 2.57)"><g clip-path="url(#d)"><g clip-path="url(#as)"><rect width="72.249" height="60.802" transform="translate(0)" fill="url(#at)"/></g></g></g><g transform="translate(1.76 2.203)"><g clip-path="url(#d)"><g transform="translate(0 0)"><g clip-path="url(#av)"><rect width="72.249" height="60.802" transform="translate(0 0)" fill="url(#aw)"/></g></g></g></g><g transform="translate(1.467 1.835)"><g clip-path="url(#d)"><g clip-path="url(#ay)"><rect width="72.249" height="60.802" transform="translate(0 0)" fill="url(#az)"/></g></g></g><g transform="translate(1.174 1.469)"><g clip-path="url(#d)"><g transform="translate(0 0)"><g clip-path="url(#bb)"><rect width="72.249" height="60.802" transform="translate(0 0)" fill="url(#bc)"/></g></g></g></g><g transform="translate(0.88 1.101)"><g clip-path="url(#d)"><g clip-path="url(#be)"><rect width="72.249" height="60.802" transform="translate(0)" fill="url(#bf)"/></g></g></g><g transform="translate(0.587 0.734)"><g clip-path="url(#d)"><g transform="translate(0 0)"><g clip-path="url(#bh)"><rect width="72.249" height="60.802" transform="translate(0 0)" fill="url(#bi)"/></g></g></g></g><g transform="translate(0.294 0.367)"><g clip-path="url(#d)"><g clip-path="url(#bk)"><rect width="72.249" height="60.802" transform="translate(0 0)" fill="url(#bl)"/></g></g></g><g clip-path="url(#d)"><g transform="translate(0 0)"><g clip-path="url(#bn)"><rect width="72.249" height="60.802" transform="translate(0 0)" fill="url(#bo)"/></g></g></g></g></g><path d="M734.445,224.721h-61a5.626,5.626,0,0,1-5.626-5.626v-49.55a5.626,5.626,0,0,1,5.626-5.626h61a5.626,5.626,0,0,1,5.626,5.626V219.1a5.626,5.626,0,0,1-5.626,5.626" transform="translate(-379.876 -93.242)" fill="#fff"/></g><g transform="translate(325.917 73.37)"><g clip-path="url(#bp)"><rect width="16.613" height="22.154" transform="translate(0 0)" fill="url(#bq)"/></g></g><g clip-path="url(#a)"><path d="M718.65,174.644a24.98,24.98,0,0,0,0,49.96v-49.96Z" transform="translate(-394.579 -99.342)" fill="#b4c3e0"/><path d="M776.585,210.781a24.884,24.884,0,0,0-6.248-16.524l-18.732,16.524v24.98a24.98,24.98,0,0,0,24.98-24.98" transform="translate(-427.534 -110.499)" fill="#2953a7"/><g transform="translate(196.219)" opacity="0.3" style="mix-blend-mode:multiply;isolation:isolate"><g clip-path="url(#bs)"><g transform="translate(6.16 7.708)"><g clip-path="url(#bt)"><path d="M535.975,78.662h-60.98a5.624,5.624,0,0,1-5.625-5.625V23.5a5.624,5.624,0,0,1,5.625-5.624h60.98A5.625,5.625,0,0,1,541.6,23.5V73.037a5.625,5.625,0,0,1-5.625,5.625" transform="translate(-469.37 -17.877)" fill="#fff"/></g></g><g transform="translate(5.867 7.341)"><g clip-path="url(#bt)"><g transform="translate(0 0)"><g clip-path="url(#bv)"><rect width="72.229" height="60.785" transform="translate(0 0)" fill="url(#bw)"/></g></g></g></g><g transform="translate(5.573 6.974)"><g clip-path="url(#bt)"><g transform="translate(0 0)"><g clip-path="url(#by)"><rect width="72.229" height="60.785" transform="translate(0 0)" fill="url(#bz)"/></g></g></g></g><g transform="translate(5.28 6.607)"><g clip-path="url(#bt)"><g transform="translate(0 0)"><g clip-path="url(#cb)"><rect width="72.229" height="60.785" transform="translate(0 0)" fill="url(#cc)"/></g></g></g></g><g transform="translate(4.986 6.239)"><g clip-path="url(#bt)"><g transform="translate(0 0)"><g clip-path="url(#ce)"><rect width="72.229" height="60.785" transform="translate(0 0)" fill="url(#cf)"/></g></g></g></g><g transform="translate(4.693 5.873)"><g clip-path="url(#bt)"><g transform="translate(0 0)"><g clip-path="url(#ch)"><rect width="72.229" height="60.785" transform="translate(0 0)" fill="url(#ci)"/></g></g></g></g><g transform="translate(4.4 5.506)"><g clip-path="url(#bt)"><g transform="translate(0 0)"><g clip-path="url(#ck)"><rect width="72.229" height="60.785" transform="translate(0 0)" fill="url(#cl)"/></g></g></g></g><g transform="translate(4.106 5.139)"><g clip-path="url(#bt)"><g transform="translate(0 0)"><g clip-path="url(#cn)"><rect width="72.229" height="60.785" transform="translate(0 0)" fill="url(#co)"/></g></g></g></g><g transform="translate(3.813 4.771)"><g clip-path="url(#bt)"><g transform="translate(0 0)"><g clip-path="url(#cq)"><rect width="72.229" height="60.785" transform="translate(0 0)" fill="url(#cr)"/></g></g></g></g><g transform="translate(3.52 4.404)"><g clip-path="url(#bt)"><g transform="translate(0 0)"><g clip-path="url(#ct)"><rect width="72.229" height="60.785" transform="translate(0 0)" fill="url(#cu)"/></g></g></g></g><g transform="translate(3.227 4.037)"><g clip-path="url(#bt)"><g transform="translate(0 0)"><g clip-path="url(#cw)"><rect width="72.229" height="60.785" transform="translate(0 0)" fill="url(#cx)"/></g></g></g></g><g transform="translate(2.933 3.671)"><g clip-path="url(#bt)"><g transform="translate(0 0)"><g clip-path="url(#cz)"><rect width="72.229" height="60.785" transform="translate(0 0)" fill="url(#da)"/></g></g></g></g><g transform="translate(2.64 3.303)"><g clip-path="url(#bt)"><g transform="translate(0 0)"><g clip-path="url(#dc)"><rect width="72.229" height="60.785" transform="translate(0 0)" fill="url(#dd)"/></g></g></g></g><g transform="translate(2.347 2.936)"><g clip-path="url(#bt)"><g transform="translate(0 0)"><g clip-path="url(#df)"><rect width="72.229" height="60.785" transform="translate(0 0)" fill="url(#dg)"/></g></g></g></g><g transform="translate(2.053 2.569)"><g clip-path="url(#bt)"><g transform="translate(0 0)"><g clip-path="url(#di)"><rect width="72.229" height="60.785" transform="translate(0 0)" fill="url(#dj)"/></g></g></g></g><g transform="translate(1.76 2.202)"><g clip-path="url(#bt)"><g transform="translate(0 0)"><g clip-path="url(#dl)"><rect width="72.229" height="60.785" transform="translate(0 0)" fill="url(#dm)"/></g></g></g></g><g transform="translate(1.467 1.835)"><g clip-path="url(#bt)"><g transform="translate(0 0)"><g clip-path="url(#do)"><rect width="72.229" height="60.785" transform="translate(0 0)" fill="url(#dp)"/></g></g></g></g><g transform="translate(1.174 1.468)"><g clip-path="url(#bt)"><g transform="translate(0 0)"><g clip-path="url(#dr)"><rect width="72.229" height="60.785" transform="translate(0 0)" fill="url(#ds)"/></g></g></g></g><g transform="translate(0.88 1.101)"><g clip-path="url(#bt)"><g transform="translate(0 0)"><g clip-path="url(#du)"><rect width="72.229" height="60.785" transform="translate(0 0)" fill="url(#dv)"/></g></g></g></g><g transform="translate(0.587 0.734)"><g clip-path="url(#bt)"><g transform="translate(0 0)"><g clip-path="url(#dx)"><rect width="72.229" height="60.785" transform="translate(0 0)" fill="url(#dy)"/></g></g></g></g><g transform="translate(0.294 0.367)"><g clip-path="url(#bt)"><g transform="translate(0 0)"><g clip-path="url(#ea)"><rect width="72.229" height="60.785" transform="translate(0 0)" fill="url(#eb)"/></g></g></g></g><g clip-path="url(#bt)"><g clip-path="url(#ed)"><rect width="72.229" height="60.785" transform="translate(0 0)" fill="url(#ee)"/></g></g></g></g><path d="M521.689,60.785h-60.98a5.624,5.624,0,0,1-5.625-5.625V5.624A5.624,5.624,0,0,1,460.709,0h60.98a5.625,5.625,0,0,1,5.625,5.624V55.16a5.625,5.625,0,0,1-5.625,5.625" transform="translate(-258.865)" fill="#fff"/></g><g transform="translate(236.069 11.307)"><g clip-path="url(#ef)"><rect width="8.301" height="42.047" fill="url(#eg)"/></g></g><g transform="translate(220.298 11.307)"><g clip-path="url(#ef)"><rect width="8.301" height="42.047" fill="url(#ei)"/></g></g><g transform="translate(251.84 11.307)"><g clip-path="url(#ef)"><rect width="8.301" height="42.047" fill="url(#ek)"/></g></g><g transform="translate(204.527 11.307)"><g clip-path="url(#ef)"><rect width="8.301" height="42.047" fill="url(#em)"/></g></g><g clip-path="url(#a)"><rect width="8.301" height="33.534" transform="translate(236.069 19.82)" fill="#f14141"/><rect width="8.301" height="27.627" transform="translate(220.298 25.726)" fill="#f14141"/><rect width="8.301" height="21.023" transform="translate(204.527 32.33)" fill="#f14141"/><rect width="8.301" height="42.047" transform="translate(251.84 11.307)" fill="#f14141"/><g transform="translate(80.104 30.77)" opacity="0.3" style="mix-blend-mode:multiply;isolation:isolate"><g clip-path="url(#bs)"><g transform="translate(6.16 7.708)"><g clip-path="url(#bt)"><path d="M266.673,150.026h-60.98a5.624,5.624,0,0,1-5.625-5.625V94.865a5.624,5.624,0,0,1,5.625-5.624h60.98a5.625,5.625,0,0,1,5.625,5.624V144.4a5.625,5.625,0,0,1-5.625,5.625" transform="translate(-200.068 -89.241)" fill="#fff"/></g></g><g transform="translate(5.866 7.341)"><g clip-path="url(#bt)"><g transform="translate(0 0)"><g clip-path="url(#er)"><rect width="72.229" height="60.785" transform="translate(0 0)" fill="url(#es)"/></g></g></g></g><g transform="translate(5.573 6.974)"><g clip-path="url(#bt)"><g transform="translate(0 0)"><g clip-path="url(#eu)"><rect width="72.229" height="60.785" transform="translate(0 0)" fill="url(#ev)"/></g></g></g></g><g transform="translate(5.28 6.607)"><g clip-path="url(#bt)"><g transform="translate(0 0)"><g clip-path="url(#ex)"><rect width="72.229" height="60.785" transform="translate(0 0)" fill="url(#ey)"/></g></g></g></g><g transform="translate(4.986 6.24)"><g clip-path="url(#bt)"><g clip-path="url(#fa)"><rect width="72.229" height="60.785" transform="translate(0)" fill="url(#fb)"/></g></g></g><g transform="translate(4.693 5.873)"><g clip-path="url(#bt)"><g transform="translate(0 0)"><g clip-path="url(#fd)"><rect width="72.229" height="60.785" transform="translate(0 0)" fill="url(#fe)"/></g></g></g></g><g transform="translate(4.4 5.506)"><g clip-path="url(#bt)"><g transform="translate(0 0)"><g clip-path="url(#fg)"><rect width="72.229" height="60.785" transform="translate(0 0)" fill="url(#fh)"/></g></g></g></g><g transform="translate(4.106 5.139)"><g clip-path="url(#bt)"><g transform="translate(0 0)"><g clip-path="url(#fj)"><rect width="72.229" height="60.785" transform="translate(0 0)" fill="url(#fk)"/></g></g></g></g><g transform="translate(3.813 4.772)"><g clip-path="url(#bt)"><g transform="translate(0 0)"><g clip-path="url(#fm)"><rect width="72.229" height="60.785" transform="translate(0 0)" fill="url(#fn)"/></g></g></g></g><g transform="translate(3.52 4.404)"><g clip-path="url(#bt)"><g transform="translate(0 0)"><g clip-path="url(#fp)"><rect width="72.229" height="60.785" transform="translate(0 0)" fill="url(#fq)"/></g></g></g></g><g transform="translate(3.226 4.037)"><g clip-path="url(#bt)"><g transform="translate(0 0)"><g clip-path="url(#fs)"><rect width="72.229" height="60.785" transform="translate(0 0)" fill="url(#ft)"/></g></g></g></g><g transform="translate(2.933 3.671)"><g clip-path="url(#bt)"><g transform="translate(0 0)"><g clip-path="url(#fv)"><rect width="72.229" height="60.785" transform="translate(0 0)" fill="url(#fw)"/></g></g></g></g><g transform="translate(2.64 3.303)"><g clip-path="url(#bt)"><g transform="translate(0 0)"><g clip-path="url(#fy)"><rect width="72.229" height="60.785" transform="translate(0 0)" fill="url(#fz)"/></g></g></g></g><g transform="translate(2.346 2.936)"><g clip-path="url(#bt)"><g transform="translate(0 0)"><g clip-path="url(#gb)"><rect width="72.229" height="60.785" transform="translate(0 0)" fill="url(#gc)"/></g></g></g></g><g transform="translate(2.053 2.569)"><g clip-path="url(#bt)"><g clip-path="url(#ge)"><rect width="72.229" height="60.785" fill="url(#gf)"/></g></g></g><g transform="translate(1.76 2.202)"><g clip-path="url(#bt)"><g transform="translate(0 0)"><g clip-path="url(#gh)"><rect width="72.229" height="60.785" transform="translate(0 0)" fill="url(#gi)"/></g></g></g></g><g transform="translate(1.466 1.835)"><g clip-path="url(#bt)"><g transform="translate(0 0)"><g clip-path="url(#gk)"><rect width="72.229" height="60.785" transform="translate(0 0)" fill="url(#gl)"/></g></g></g></g><g transform="translate(1.173 1.468)"><g clip-path="url(#bt)"><g transform="translate(0 0)"><g clip-path="url(#gn)"><rect width="72.229" height="60.785" transform="translate(0 0)" fill="url(#go)"/></g></g></g></g><g transform="translate(0.88 1.101)"><g clip-path="url(#bt)"><g transform="translate(0 0)"><g clip-path="url(#gq)"><rect width="72.229" height="60.785" transform="translate(0 0)" fill="url(#gr)"/></g></g></g></g><g transform="translate(0.586 0.734)"><g clip-path="url(#bt)"><g transform="translate(0 0)"><g clip-path="url(#gt)"><rect width="72.229" height="60.785" transform="translate(0 0)" fill="url(#gu)"/></g></g></g></g><g transform="translate(0.293 0.367)"><g clip-path="url(#bt)"><g transform="translate(0 0)"><g clip-path="url(#gw)"><rect width="72.229" height="60.785" transform="translate(0 0)" fill="url(#gx)"/></g></g></g></g><g clip-path="url(#bt)"><g transform="translate(0 0)"><g clip-path="url(#gz)"><rect width="72.229" height="60.785" transform="translate(0 0)" fill="url(#ha)"/></g></g></g></g></g><path d="M252.387,132.149h-60.98a5.624,5.624,0,0,1-5.625-5.625V76.988a5.624,5.624,0,0,1,5.625-5.624h60.98a5.625,5.625,0,0,1,5.625,5.624v49.536a5.625,5.625,0,0,1-5.625,5.625" transform="translate(-105.678 -40.594)" fill="#fff"/></g><g transform="translate(86.944 40.139)"><g clip-path="url(#hb)"><rect width="57.183" height="42.047" fill="url(#hc)"/></g></g><g transform="translate(89.946 49.242)"><g clip-path="url(#hd)"><rect width="47.49" height="28.8" transform="translate(0 0)" fill="url(#he)"/></g></g><g transform="translate(132.842 46.506)"><g clip-path="url(#hf)"><rect width="6.183" height="6.183" transform="translate(0 0)" fill="url(#hg)"/></g></g><g clip-path="url(#a)"><path d="M314.951,113.734a.982.982,0,1,1-.981-.981.981.981,0,0,1,.981.981" transform="translate(-178.037 -64.137)" fill="#fff"/><g transform="translate(5.83 115.931)" opacity="0.3" style="mix-blend-mode:multiply;isolation:isolate"><g clip-path="url(#hi)"><g transform="translate(6.203 8.27)"><g clip-path="url(#hj)"><path d="M94.978,353.272H33.571a5.858,5.858,0,0,1-5.664-6.035V294.089a5.858,5.858,0,0,1,5.664-6.034H94.978a5.858,5.858,0,0,1,5.664,6.034v53.148a5.858,5.858,0,0,1-5.664,6.035" transform="translate(-27.907 -288.055)" fill="#fff"/></g></g><g transform="translate(5.907 7.876)"><g clip-path="url(#hj)"><g transform="translate(0 0)"><g clip-path="url(#hl)"><rect width="72.735" height="65.217" transform="translate(0 0)" fill="url(#hm)"/></g></g></g></g><g transform="translate(5.612 7.482)"><g clip-path="url(#hj)"><g transform="translate(0 0)"><g clip-path="url(#ho)"><rect width="72.735" height="65.217" transform="translate(0 0)" fill="url(#hp)"/></g></g></g></g><g transform="translate(5.317 7.088)"><g clip-path="url(#hj)"><g transform="translate(0 0)"><g clip-path="url(#hr)"><rect width="72.735" height="65.217" transform="translate(0 0)" fill="url(#hs)"/></g></g></g></g><g transform="translate(5.021 6.695)"><g clip-path="url(#hj)"><g transform="translate(0)"><g clip-path="url(#hu)"><rect width="72.735" height="65.217" transform="translate(0 0)" fill="url(#hv)"/></g></g></g></g><g transform="translate(4.726 6.301)"><g clip-path="url(#hj)"><g transform="translate(0 0)"><g clip-path="url(#hx)"><rect width="72.735" height="65.217" transform="translate(0)" fill="url(#hy)"/></g></g></g></g><g transform="translate(4.431 5.907)"><g clip-path="url(#hj)"><g clip-path="url(#ia)"><rect width="72.735" height="65.217" transform="translate(0)" fill="url(#ib)"/></g></g></g><g transform="translate(4.135 5.513)"><g clip-path="url(#hj)"><g transform="translate(0 0)"><g clip-path="url(#id)"><rect width="72.735" height="65.217" transform="translate(0 0)" fill="url(#ie)"/></g></g></g></g><g transform="translate(3.84 5.119)"><g clip-path="url(#hj)"><g transform="translate(0 0)"><g clip-path="url(#ig)"><rect width="72.735" height="65.217" transform="translate(0 0)" fill="url(#ih)"/></g></g></g></g><g transform="translate(3.544 4.726)"><g clip-path="url(#hj)"><g transform="translate(0 0)"><g clip-path="url(#ij)"><rect width="72.735" height="65.217" transform="translate(0 0)" fill="url(#ik)"/></g></g></g></g><g transform="translate(3.249 4.332)"><g clip-path="url(#hj)"><g transform="translate(0 0)"><g clip-path="url(#im)"><rect width="72.735" height="65.217" transform="translate(0 0)" fill="url(#in)"/></g></g></g></g><g transform="translate(2.954 3.938)"><g clip-path="url(#hj)"><g transform="translate(0 0)"><g clip-path="url(#ip)"><rect width="72.735" height="65.217" transform="translate(0 0)" fill="url(#iq)"/></g></g></g></g><g transform="translate(2.658 3.544)"><g clip-path="url(#hj)"><g transform="translate(0 0)"><g clip-path="url(#is)"><rect width="72.735" height="65.217" transform="translate(0 0)" fill="url(#it)"/></g></g></g></g><g transform="translate(2.363 3.151)"><g clip-path="url(#hj)"><g transform="translate(0)"><g clip-path="url(#iv)"><rect width="72.735" height="65.217" transform="translate(0 0)" fill="url(#iw)"/></g></g></g></g><g transform="translate(2.068 2.756)"><g clip-path="url(#ix)"><g transform="translate(0 0)"><g clip-path="url(#iy)"><rect width="72.734" height="65.217" transform="translate(0 0)" fill="url(#iz)"/></g></g></g></g><g transform="translate(1.772 2.363)"><g clip-path="url(#ix)"><g transform="translate(0)"><g clip-path="url(#jb)"><rect width="72.734" height="65.217" transform="translate(0)" fill="url(#jc)"/></g></g></g></g><g transform="translate(1.477 1.969)"><g clip-path="url(#hj)"><g transform="translate(0 0)"><g clip-path="url(#je)"><rect width="72.734" height="65.217" transform="translate(0 0)" fill="url(#jf)"/></g></g></g></g><g transform="translate(1.181 1.575)"><g clip-path="url(#hj)"><g transform="translate(0)"><g clip-path="url(#jh)"><rect width="72.735" height="65.217" transform="translate(0 0)" fill="url(#ji)"/></g></g></g></g><g transform="translate(0.886 1.181)"><g clip-path="url(#hj)"><g transform="translate(0 0)"><g clip-path="url(#jk)"><rect width="72.735" height="65.217" transform="translate(0 0)" fill="url(#jl)"/></g></g></g></g><g transform="translate(0.591 0.788)"><g clip-path="url(#hj)"><g transform="translate(0 0)"><g clip-path="url(#jn)"><rect width="72.735" height="65.217" transform="translate(0 0)" fill="url(#jo)"/></g></g></g></g><g transform="translate(0.295 0.394)"><g clip-path="url(#hj)"><g transform="translate(0 0)"><g clip-path="url(#jq)"><rect width="72.735" height="65.217" transform="translate(0 0)" fill="url(#jr)"/></g></g></g></g><g clip-path="url(#hj)"><g transform="translate(0 0)"><g clip-path="url(#jt)"><rect width="72.735" height="65.217" transform="translate(0 0)" fill="url(#ju)"/></g></g></g></g></g><path d="M80.592,334.092H19.185a5.858,5.858,0,0,1-5.664-6.035V274.91a5.858,5.858,0,0,1,5.664-6.035H80.592a5.858,5.858,0,0,1,5.664,6.035v53.148a5.858,5.858,0,0,1-5.664,6.035" transform="translate(-7.691 -152.944)" fill="#fff"/><path d="M87.45,288.055l-11.214,3.2,2.378,2.534-16.12,17.175H52.816l-17.929,19.1,3.389,3.611L54.8,316.071H64.48L82,297.4l2.443,2.6Z" transform="translate(-19.845 -163.854)" fill="#c03434"/><path d="M836.7,372.207H833.8a1.926,1.926,0,0,1-1.82-1.336,12.785,12.785,0,0,0-.719-1.726,1.9,1.9,0,0,1,.335-2.212l2.189-2.189a1.735,1.735,0,0,0,0-2.453l-1.252-1.253a1.916,1.916,0,0,0-2.71,0l-2.061,2.061a1.9,1.9,0,0,1-2.211.334,12.708,12.708,0,0,0-1.725-.718,1.926,1.926,0,0,1-1.337-1.821V358a1.917,1.917,0,0,0-1.917-1.917h-1.589A1.916,1.916,0,0,0,817.067,358v2.894a1.926,1.926,0,0,1-1.337,1.82,12.8,12.8,0,0,0-1.726.719,1.9,1.9,0,0,1-2.211-.334l-2.061-2.061a1.917,1.917,0,0,0-2.71,0l-1.253,1.253a1.734,1.734,0,0,0,0,2.453l2.19,2.19a1.9,1.9,0,0,1,.334,2.212,12.832,12.832,0,0,0-.719,1.725,1.927,1.927,0,0,1-1.82,1.337H802.86a1.916,1.916,0,0,0-1.917,1.917v1.589a1.916,1.916,0,0,0,1.917,1.917h2.894a1.927,1.927,0,0,1,1.82,1.337,12.833,12.833,0,0,0,.719,1.725,1.9,1.9,0,0,1-.334,2.212l-2.19,2.19a1.734,1.734,0,0,0,0,2.453l1.253,1.253a1.917,1.917,0,0,0,2.71,0l2.061-2.061a1.9,1.9,0,0,1,2.212-.334,12.767,12.767,0,0,0,1.725.719,1.926,1.926,0,0,1,1.336,1.82v2.893a1.917,1.917,0,0,0,1.917,1.917h1.589a1.917,1.917,0,0,0,1.917-1.917v-2.893a1.927,1.927,0,0,1,1.336-1.821,12.729,12.729,0,0,0,1.726-.719,1.9,1.9,0,0,1,2.211.334l2.062,2.061a1.916,1.916,0,0,0,2.71,0l1.252-1.253a1.735,1.735,0,0,0,0-2.453L831.6,382.9a1.9,1.9,0,0,1-.335-2.212,12.785,12.785,0,0,0,.719-1.726,1.926,1.926,0,0,1,1.82-1.336H836.7a1.917,1.917,0,0,0,1.917-1.917v-1.589a1.917,1.917,0,0,0-1.917-1.917m-10.275,3.25a6.664,6.664,0,1,1-7.186-7.181,6.687,6.687,0,0,1,7.186,7.181" transform="translate(-455.6 -202.551)" fill="#062a72"/><path d="M20.17,458.674,3.519,469.212,20.17,480.43l16.651-11.218Z" transform="translate(-2.002 -260.907)" fill="#204285"/></g><g transform="translate(7.161 201.38)"><g clip-path="url(#jv)"><rect width="21.207" height="20.793" transform="translate(0)" fill="url(#jw)"/></g></g><g transform="translate(44.943 210.801)"><g clip-path="url(#jx)"><path d="M104.234,488.9Z" transform="translate(-104.234 -488.903)" fill="#fff"/></g></g><g transform="translate(0 210.801)"><g clip-path="url(#jy)"><rect fill="url(#jz)"/></g></g><g clip-path="url(#a)"><path d="M18.168,497.724,0,485.484v20.925a2.558,2.558,0,0,0,2.583,2.532H33.754a2.558,2.558,0,0,0,2.583-2.532V485.484Z" transform="translate(0 -276.157)" fill="#083898"/></g><g transform="translate(97.847 237.617)"><g clip-path="url(#kb)"><rect width="121.548" height="121.548" transform="translate(-10.743 10.743) rotate(-45)" fill="url(#kc)"/></g></g><g clip-path="url(#a)"><rect width="55.783" height="21.49" transform="translate(145.159 237.615)" fill="#fbae17"/><rect width="51.905" height="21.49" transform="translate(147.099 237.615)" fill="#f2f2f2"/></g><g transform="translate(105.634 259.107)"><g clip-path="url(#ke)"><rect width="121.704" height="121.704" transform="translate(-10.854 10.854) rotate(-45)" fill="url(#kf)"/></g></g><g clip-path="url(#a)"><rect width="55.783" height="21.711" transform="translate(152.947 259.105)" fill="#fbae17"/><rect width="51.905" height="21.711" transform="translate(154.886 259.105)" fill="#f2f2f2"/><g transform="translate(105.726 259.09)" opacity="0.3" style="mix-blend-mode:multiply;isolation:isolate"><g clip-path="url(#kh)"><rect width="150.224" height="2.769" fill="#999"/></g></g></g><g transform="translate(97.349 280.82)"><g clip-path="url(#ke)"><rect width="121.705" height="121.705" transform="translate(-10.854 10.854) rotate(-45)" fill="url(#kj)"/></g></g><g clip-path="url(#a)"><rect width="55.783" height="21.711" transform="translate(144.661 280.819)" fill="#fbae17"/><rect width="51.905" height="21.711" transform="translate(146.6 280.819)" fill="#f2f2f2"/><g transform="translate(97.441 280.803)" opacity="0.3" style="mix-blend-mode:multiply;isolation:isolate"><g clip-path="url(#kl)"><rect width="150.224" height="2.769" transform="translate(0 0)" fill="#999"/></g></g></g><g transform="translate(97.349 302.514)"><g clip-path="url(#ke)"><rect width="121.704" height="121.704" transform="translate(-10.854 10.854) rotate(-45)" fill="url(#kn)"/></g></g><g clip-path="url(#a)"><rect width="55.783" height="21.711" transform="translate(144.661 302.513)" fill="#fbae17"/><rect width="51.905" height="21.711" transform="translate(146.6 302.513)" fill="#f2f2f2"/><g transform="translate(97.441 302.497)" opacity="0.3" style="mix-blend-mode:multiply;isolation:isolate"><g clip-path="url(#kl)"><rect width="150.224" height="2.769" transform="translate(0 0)" fill="#999"/></g></g><g transform="translate(337.401 210.496)" opacity="0.3" style="mix-blend-mode:multiply;isolation:isolate"><g clip-path="url(#kq)"><path d="M784.615,488.2,795.8,598.688s-10.731-.246-12.967-.412c-1.284-.1,1.779-110.08,1.779-110.08" transform="translate(-782.522 -488.196)" fill="#606060"/></g></g><path d="M655.415,593.418H573.17a6.447,6.447,0,0,1-6.447-6.447V479.69a6.447,6.447,0,0,1,6.447-6.447h82.245a6.447,6.447,0,0,1,6.447,6.447v107.28a6.447,6.447,0,0,1-6.447,6.447" transform="translate(-322.368 -269.194)" fill="#062a72"/></g><g transform="translate(246.804 207.032)"><g clip-path="url(#kr)"><rect width="90.242" height="114.208" transform="translate(0 0)" fill="url(#ks)"/></g></g><g clip-path="url(#a)"><g transform="translate(251.682 211.265)" opacity="0.3" style="mix-blend-mode:multiply;isolation:isolate"><g clip-path="url(#ku)"><path d="M663.908,520.826H586.527a2.811,2.811,0,0,1-2.81-2.811V492.789a2.81,2.81,0,0,1,2.81-2.81h77.381a2.811,2.811,0,0,1,2.811,2.81v25.225a2.811,2.811,0,0,1-2.811,2.811" transform="translate(-583.717 -489.979)" fill="#606060"/></g></g></g><g transform="translate(250.256 209.71)"><g clip-path="url(#kv)"><rect width="83.002" height="30.847" transform="translate(0)" fill="url(#kw)"/></g></g><g clip-path="url(#a)"><g transform="translate(253.365 247.959)" opacity="0.3" style="mix-blend-mode:multiply;isolation:isolate"><g clip-path="url(#ky)"><path d="M652.829,575.082H640.39a2,2,0,0,0-2,2v7.151a2,2,0,0,0,2,2h12.439a2,2,0,0,0,2-2v-7.151a2,2,0,0,0-2-2" transform="translate(-616.5 -575.082)"/><path d="M602.058,575.082H589.619a2,2,0,0,0-2,2v7.151a2,2,0,0,0,2,2h12.439a2,2,0,0,0,2-2v-7.151a2,2,0,0,0-2-2" transform="translate(-587.62 -575.082)"/><path d="M703.6,575.082H691.161a2,2,0,0,0-2,2v7.151a2,2,0,0,0,2,2H703.6a2,2,0,0,0,2-2v-7.151a2,2,0,0,0-2-2" transform="translate(-645.38 -575.082)"/><path d="M750.6,640.935H738.163a2,2,0,0,0-2,2v7.151a2,2,0,0,0,2,2H750.6a2,2,0,0,0,2-2v-7.151a2,2,0,0,0-2-2" transform="translate(-672.116 -612.541)"/><path d="M750.6,608.008H738.163a2,2,0,0,0-2,2v7.151a2,2,0,0,0,2,2H750.6a2,2,0,0,0,2-2v-7.151a2,2,0,0,0-2-2" transform="translate(-672.116 -593.811)"/><path d="M750.6,575.082H738.163a2,2,0,0,0-2,2v7.151a2,2,0,0,0,2,2H750.6a2,2,0,0,0,2-2v-7.151a2,2,0,0,0-2-2" transform="translate(-672.116 -575.082)"/><path d="M652.829,608.008H640.39a2,2,0,0,0-2,2v7.151a2,2,0,0,0,2,2h12.439a2,2,0,0,0,2-2v-7.151a2,2,0,0,0-2-2" transform="translate(-616.5 -593.811)"/><path d="M602.058,608.008H589.619a2,2,0,0,0-2,2v7.151a2,2,0,0,0,2,2h12.439a2,2,0,0,0,2-2v-7.151a2,2,0,0,0-2-2" transform="translate(-587.62 -593.811)"/><path d="M703.6,608.008H691.161a2,2,0,0,0-2,2v7.151a2,2,0,0,0,2,2H703.6a2,2,0,0,0,2-2v-7.151a2,2,0,0,0-2-2" transform="translate(-645.38 -593.811)"/><path d="M652.829,640.935H640.39a2,2,0,0,0-2,2v7.151a2,2,0,0,0,2,2h12.439a2,2,0,0,0,2-2v-7.151a2,2,0,0,0-2-2" transform="translate(-616.5 -612.541)"/><path d="M602.058,640.935H589.619a2,2,0,0,0-2,2v7.151a2,2,0,0,0,2,2h12.439a2,2,0,0,0,2-2v-7.151a2,2,0,0,0-2-2" transform="translate(-587.62 -612.541)"/><path d="M703.6,640.935H691.161a2,2,0,0,0-2,2v7.151a2,2,0,0,0,2,2H703.6a2,2,0,0,0,2-2v-7.151a2,2,0,0,0-2-2" transform="translate(-645.38 -612.541)"/><path d="M652.829,673.862H640.39a2,2,0,0,0-2,2v7.151a2,2,0,0,0,2,2h12.439a2,2,0,0,0,2-2v-7.151a2,2,0,0,0-2-2" transform="translate(-616.5 -631.271)"/><path d="M602.058,673.862H589.619a2,2,0,0,0-2,2v7.151a2,2,0,0,0,2,2h12.439a2,2,0,0,0,2-2v-7.151a2,2,0,0,0-2-2" transform="translate(-587.62 -631.271)"/><path d="M703.6,673.862H691.161a2,2,0,0,0-2,2v7.151a2,2,0,0,0,2,2H703.6a2,2,0,0,0,2-2v-7.151a2,2,0,0,0-2-2" transform="translate(-645.38 -631.271)"/><path d="M652.829,706.788H640.39a2,2,0,0,0-2,2v7.151a2,2,0,0,0,2,2h12.439a2,2,0,0,0,2-2v-7.151a2,2,0,0,0-2-2" transform="translate(-616.5 -650)"/><path d="M602.058,706.788H589.619a2,2,0,0,0-2,2v7.151a2,2,0,0,0,2,2h12.439a2,2,0,0,0,2-2v-7.151a2,2,0,0,0-2-2" transform="translate(-587.62 -650)"/><path d="M703.6,706.788H691.161a2,2,0,0,0-2,2v7.151a2,2,0,0,0,2,2H703.6a2,2,0,0,0,2-2v-7.151a2,2,0,0,0-2-2" transform="translate(-645.38 -650)"/><path d="M750.745,699.811H737.631a1.467,1.467,0,0,1-1.467-1.467V676.388a1.467,1.467,0,0,1,1.467-1.467h13.114a1.467,1.467,0,0,1,1.467,1.467v21.956a1.467,1.467,0,0,1-1.467,1.467" transform="translate(-672.116 -631.873)"/></g></g><path d="M648.925,573.392H636.486a2,2,0,0,0-2,2v7.151a2,2,0,0,0,2,2h12.439a2,2,0,0,0,2-2v-7.151a2,2,0,0,0-2-2" transform="translate(-360.914 -326.162)" fill="#062a72"/><path d="M598.155,573.392H585.716a2,2,0,0,0-2,2v7.151a2,2,0,0,0,2,2h12.439a2,2,0,0,0,2-2v-7.151a2,2,0,0,0-2-2" transform="translate(-332.035 -326.162)" fill="#062a72"/><path d="M699.7,573.392H687.257a2,2,0,0,0-2,2v7.151a2,2,0,0,0,2,2H699.7a2,2,0,0,0,2-2v-7.151a2,2,0,0,0-2-2" transform="translate(-389.794 -326.162)" fill="#062a72"/></g><g transform="translate(315.73 275.624)"><g clip-path="url(#kz)"><rect width="16.437" height="11.15" fill="url(#la)"/></g></g><g transform="translate(315.73 261.427)"><g clip-path="url(#lb)"><rect width="16.437" height="11.15" fill="url(#lc)"/></g></g><g transform="translate(315.73 247.23)"><g clip-path="url(#ld)"><rect width="16.437" height="11.15" transform="translate(0)" fill="url(#le)"/></g></g><g clip-path="url(#a)"><path d="M648.925,606.319H636.486a2,2,0,0,0-2,2v7.152a2,2,0,0,0,2,2h12.439a2,2,0,0,0,2-2v-7.152a2,2,0,0,0-2-2" transform="translate(-360.914 -344.892)" fill="#062a72"/><path d="M598.155,606.319H585.716a2,2,0,0,0-2,2v7.152a2,2,0,0,0,2,2h12.439a2,2,0,0,0,2-2v-7.152a2,2,0,0,0-2-2" transform="translate(-332.035 -344.892)" fill="#062a72"/><path d="M699.7,606.319H687.257a2,2,0,0,0-2,2v7.152a2,2,0,0,0,2,2H699.7a2,2,0,0,0,2-2v-7.152a2,2,0,0,0-2-2" transform="translate(-389.794 -344.892)" fill="#062a72"/><path d="M648.925,639.245H636.486a2,2,0,0,0-2,2V648.4a2,2,0,0,0,2,2h12.439a2,2,0,0,0,2-2v-7.151a2,2,0,0,0-2-2" transform="translate(-360.914 -363.621)" fill="#062a72"/><path d="M598.155,639.245H585.716a2,2,0,0,0-2,2V648.4a2,2,0,0,0,2,2h12.439a2,2,0,0,0,2-2v-7.151a2,2,0,0,0-2-2" transform="translate(-332.035 -363.621)" fill="#062a72"/><path d="M699.7,639.245H687.257a2,2,0,0,0-2,2V648.4a2,2,0,0,0,2,2H699.7a2,2,0,0,0,2-2v-7.151a2,2,0,0,0-2-2" transform="translate(-389.794 -363.621)" fill="#062a72"/><path d="M648.925,672.172H636.486a2,2,0,0,0-2,2v7.151a2,2,0,0,0,2,2h12.439a2,2,0,0,0,2-2v-7.151a2,2,0,0,0-2-2" transform="translate(-360.914 -382.351)" fill="#062a72"/><path d="M598.155,672.172H585.716a2,2,0,0,0-2,2v7.151a2,2,0,0,0,2,2h12.439a2,2,0,0,0,2-2v-7.151a2,2,0,0,0-2-2" transform="translate(-332.035 -382.351)" fill="#062a72"/><path d="M699.7,672.172H687.257a2,2,0,0,0-2,2v7.151a2,2,0,0,0,2,2H699.7a2,2,0,0,0,2-2v-7.151a2,2,0,0,0-2-2" transform="translate(-389.794 -382.351)" fill="#062a72"/><path d="M648.925,705.1H636.486a2,2,0,0,0-2,2v7.151a2,2,0,0,0,2,2h12.439a2,2,0,0,0,2-2V707.1a2,2,0,0,0-2-2" transform="translate(-360.914 -401.08)" fill="#062a72"/><path d="M598.155,705.1H585.716a2,2,0,0,0-2,2v7.151a2,2,0,0,0,2,2h12.439a2,2,0,0,0,2-2V707.1a2,2,0,0,0-2-2" transform="translate(-332.035 -401.08)" fill="#062a72"/><path d="M699.7,705.1H687.257a2,2,0,0,0-2,2v7.151a2,2,0,0,0,2,2H699.7a2,2,0,0,0,2-2V707.1a2,2,0,0,0-2-2" transform="translate(-389.794 -401.08)" fill="#062a72"/><path d="M746.842,698.122H733.728a1.467,1.467,0,0,1-1.467-1.467V674.7a1.467,1.467,0,0,1,1.467-1.467h13.114a1.467,1.467,0,0,1,1.467,1.467v21.956a1.467,1.467,0,0,1-1.467,1.467" transform="translate(-416.531 -382.953)" fill="#062a72"/><path d="M414.512,292.2c.022,42.241-34.549,76.5-77.216,76.522s-77.273-34.2-77.3-76.444,34.549-76.5,77.216-76.522,77.274,34.2,77.3,76.444" transform="translate(-147.895 -122.726)" fill="#febf00"/><path d="M418.462,308.36c.018,35.477-29.017,64.251-64.852,64.269s-64.9-28.727-64.918-64.2,29.017-64.251,64.852-64.269,64.9,28.727,64.918,64.2" transform="translate(-164.216 -138.883)" fill="#febf00"/><g transform="translate(124.476 105.274)" opacity="0.1" style="mix-blend-mode:multiply;isolation:isolate"><g clip-path="url(#lg)"><path d="M418.462,308.36c.018,35.477-29.017,64.251-64.852,64.269s-64.9-28.727-64.918-64.2,29.017-64.251,64.852-64.269,64.9,28.727,64.918,64.2" transform="translate(-288.692 -244.156)"/></g></g><path d="M419.626,313.126c.017,33.483-27.386,60.639-61.207,60.656s-61.252-27.112-61.269-60.595,27.386-60.639,61.207-60.656,61.252,27.112,61.269,60.594" transform="translate(-169.027 -143.647)" fill="#fcd721"/></g><text transform="translate(165.728 200.766) rotate(-4.583)" fill="#fea600" font-size="101" font-family="Calibri-Bold, Calibri" font-weight="700"><tspan x="0" y="0">$</tspan></text><g clip-path="url(#a)"><path d="M543.111,226.524c-.363-1.391-.871-2.737-1.319-4.1-.239-.677-.441-1.368-.713-2.033l-.714-1.815-.843-2.135-.944-2.092A96.01,96.01,0,0,0,451.055,157.8v8.263a87.882,87.882,0,0,1,79.992,51.683l.865,1.91.768,1.951.654,1.657c.249.608.43,1.239.649,1.857.407,1.247.878,2.474,1.205,3.746-3.035-.311-6.148-.479-9.187-.549a74.192,74.192,0,0,1,9.426,11.53,87.828,87.828,0,0,1,7.514,13.967,94.486,94.486,0,0,0,5.035-16.028,93.176,93.176,0,0,0,2.1-17.659c-2.27,2.234-4.548,4.351-6.969,6.392" transform="translate(-256.573 -89.763)" fill="#c03434"/><path d="M227.534,450.12a87.957,87.957,0,0,1-17.072-28.648l-.714-1.971-.614-2-.523-1.7c-.2-.625-.332-1.269-.5-1.9-.309-1.275-.682-2.535-.909-3.828,3,.547,6.092.956,9.116,1.263a74.191,74.191,0,0,1-8.5-12.23,87.8,87.8,0,0,1-6.4-14.511,94.474,94.474,0,0,0-6.269,15.587,93.207,93.207,0,0,0-3.474,17.44c2.437-2.05,4.872-3.983,7.446-5.829.254,1.415.655,2.8,1,4.192.186.694.333,1.4.552,2.083l.571,1.865.674,2.194.778,2.159a96.008,96.008,0,0,0,82.848,63.194l.644-8.237a87.587,87.587,0,0,1-58.648-29.113" transform="translate(-109.029 -218.762)" fill="#c03434"/><path d="M744.4,410.345l-3.665,1.925,3.79,2.152,2.152,3.79,1.925-3.665,3.665-1.925-3.79-2.152-2.152-3.79Z" transform="translate(-421.351 -231.331)" fill="#fff"/><path d="M760.921,442.076l-2.307,1.212L761,444.642l1.355,2.385,1.211-2.307,2.307-1.212-2.385-1.355-1.355-2.385Z" transform="translate(-431.521 -250.153)" fill="#fff"/><path d="M727.625,432.574l-3.514,1.845,3.633,2.064,2.064,3.633,1.845-3.514,3.514-1.845-3.633-2.064-2.064-3.633Z" transform="translate(-411.895 -244.061)" fill="#fff"/><path d="M212.251,277.448l-3.665,1.925,3.79,2.152,2.152,3.79,1.925-3.665,3.665-1.925-3.79-2.152-2.152-3.79Z" transform="translate(-118.649 -155.735)" fill="#fff"/><path d="M228.771,309.178l-2.307,1.212,2.385,1.355,1.355,2.385,1.212-2.307,2.307-1.212-2.385-1.355-1.355-2.385Z" transform="translate(-128.819 -174.557)" fill="#fff"/><path d="M195.475,299.676l-3.514,1.845,3.633,2.064,2.064,3.633L199.5,303.7l3.514-1.845-3.633-2.064-2.064-3.633Z" transform="translate(-109.193 -168.465)" fill="#fff"/><path d="M173.026,720.075c0,.947-.7,1.851-1.954,2.684a12.127,12.127,0,0,1-1.461.82q-.351.168-.733.331a29.738,29.738,0,0,1-3.912,1.305A56.1,56.1,0,0,1,159.2,726.4c-.477.075-.966.145-1.461.213-.243.033-.486.066-.733.1-1.255.16-2.562.3-3.912.407-1.848.152-3.777.257-5.767.308q-.726.019-1.461.028c-.243,0-.489,0-.733.005-.217,0-.433,0-.651,0q-1.655,0-3.261-.048c-1.992-.057-3.921-.169-5.767-.326q-.74-.063-1.461-.137c-.245-.025-.492-.049-.733-.076q-2.044-.225-3.912-.528a54.017,54.017,0,0,1-5.767-1.228q-.764-.211-1.461-.439c-.251-.081-.5-.164-.733-.248a14.9,14.9,0,0,1-3.912-1.94,3.183,3.183,0,0,1-1.547-2.392l0,6.394h0a3.211,3.211,0,0,0,1.539,2.35,14.879,14.879,0,0,0,3.912,1.942q.356.127.733.249c.466.151.952.3,1.461.44a53.971,53.971,0,0,0,5.767,1.229q1.866.3,3.912.528c.242.027.488.052.733.077q.721.074,1.461.137c1.846.158,3.775.269,5.767.326q1.607.047,3.264.048c.217,0,.432,0,.648,0,.245,0,.49,0,.733-.005q.735-.009,1.461-.028c1.99-.052,3.918-.157,5.767-.309,1.35-.111,2.657-.247,3.912-.407q.37-.047.733-.1c.495-.067.984-.137,1.461-.212a56.219,56.219,0,0,0,5.767-1.19,29.735,29.735,0,0,0,3.912-1.306c.256-.109.5-.219.733-.331a12.23,12.23,0,0,0,1.461-.819c1.24-.821,1.936-1.713,1.953-2.646h0Z" transform="translate(-65.942 -409.599)" fill="#febf00"/><g transform="translate(49.984 310.476)" opacity="0.3" style="mix-blend-mode:multiply;isolation:isolate"><g clip-path="url(#li)"><path d="M173.026,720.075c0,.947-.7,1.851-1.954,2.684a12.127,12.127,0,0,1-1.461.82q-.351.168-.733.331a29.738,29.738,0,0,1-3.912,1.305A56.1,56.1,0,0,1,159.2,726.4c-.477.075-.966.145-1.461.213-.243.033-.486.066-.733.1-1.255.16-2.562.3-3.912.407-1.848.152-3.777.257-5.767.308q-.726.019-1.461.028c-.243,0-.489,0-.733.005-.217,0-.433,0-.651,0q-1.655,0-3.261-.048c-1.992-.057-3.921-.169-5.767-.326q-.74-.063-1.461-.137c-.245-.025-.492-.049-.733-.076q-2.044-.225-3.912-.528a54.017,54.017,0,0,1-5.767-1.228q-.764-.211-1.461-.439c-.251-.081-.5-.164-.733-.248a14.9,14.9,0,0,1-3.912-1.94,3.183,3.183,0,0,1-1.547-2.392l0,6.394h0a3.211,3.211,0,0,0,1.539,2.35,14.879,14.879,0,0,0,3.912,1.942q.356.127.733.249c.466.151.952.3,1.461.44a53.971,53.971,0,0,0,5.767,1.229q1.866.3,3.912.528c.242.027.488.052.733.077q.721.074,1.461.137c1.846.158,3.775.269,5.767.326q1.607.047,3.264.048c.217,0,.432,0,.648,0,.245,0,.49,0,.733-.005q.735-.009,1.461-.028c1.99-.052,3.918-.157,5.767-.309,1.35-.111,2.657-.247,3.912-.407q.37-.047.733-.1c.495-.067.984-.137,1.461-.212a56.219,56.219,0,0,0,5.767-1.19,29.735,29.735,0,0,0,3.912-1.306c.256-.109.5-.219.733-.331a12.23,12.23,0,0,0,1.461-.819c1.24-.821,1.936-1.713,1.953-2.646h0Z" transform="translate(-115.926 -720.075)"/></g></g><path d="M173.03,708.493c0,4.075-12.779,7.384-28.546,7.392s-28.552-3.289-28.553-7.363,12.778-7.384,28.546-7.392,28.552,3.289,28.554,7.363" transform="translate(-65.944 -398.823)" fill="#febf00"/><path d="M148.713,706.533c13.305-.006,24.208,2.178,25.252,4.961a1.247,1.247,0,0,0,.09-.438c0-2.988-11.347-5.4-25.342-5.4s-25.338,2.435-25.336,5.423a1.24,1.24,0,0,0,.09.437c1.044-2.784,11.943-4.978,25.246-4.985" transform="translate(-70.18 -401.398)" fill="#febf00"/><g transform="translate(53.197 304.26)" opacity="0.1" style="mix-blend-mode:multiply;isolation:isolate"><g clip-path="url(#lj)"><path d="M148.713,706.533c13.305-.006,24.208,2.178,25.252,4.961a1.247,1.247,0,0,0,.09-.438c0-2.988-11.347-5.4-25.342-5.4s-25.338,2.435-25.336,5.423a1.24,1.24,0,0,0,.09.437c1.044-2.784,11.943-4.978,25.246-4.985" transform="translate(-123.377 -705.658)"/></g></g><path d="M148.837,717.633c13.3-.006,24.2-2.2,25.246-4.985-1.044-2.783-11.947-4.968-25.252-4.961s-24.2,2.2-25.246,4.985c1.044,2.783,11.947,4.968,25.252,4.961" transform="translate(-70.299 -402.553)" fill="#fcd721"/><path d="M115.926,718.308l0,6.394h0a3.213,3.213,0,0,0,1.539,2.35V720.7a3.182,3.182,0,0,1-1.546-2.393" transform="translate(-65.942 -408.594)" fill="#febf00"/><path d="M183.66,741.723c.244,0,.49,0,.733-.005v-6.356c-.243,0-.489,0-.733.005Z" transform="translate(-104.471 -418.295)" fill="#febf00"/><path d="M156.122,740.379c.242.027.488.051.733.076V734.1c-.245-.025-.492-.05-.733-.076Z" transform="translate(-88.807 -417.534)" fill="#febf00"/><path d="M128.585,734.71q.356.126.733.249V728.6q-.376-.122-.733-.248Z" transform="translate(-73.143 -414.31)" fill="#febf00"/><path d="M245.779,718.24c0,.947-.7,1.852-1.954,2.684v6.356c1.24-.821,1.936-1.713,1.953-2.646h0Z" transform="translate(-138.695 -408.555)" fill="#febf00"/><path d="M238.735,733.052c.256-.109.5-.219.733-.332v-6.355q-.351.168-.733.331Z" transform="translate(-135.799 -413.177)" fill="#febf00"/><path d="M199.162,731.562c-.243.033-.486.066-.733.1-1.255.16-2.562.3-3.912.407-1.848.152-3.777.257-5.767.309v6.356c1.99-.052,3.919-.157,5.767-.309,1.35-.111,2.657-.247,3.912-.407.247-.031.491-.064.733-.1.495-.068.984-.138,1.461-.212a56.225,56.225,0,0,0,5.767-1.19v-6.356a56.226,56.226,0,0,1-5.767,1.189c-.477.075-.966.144-1.461.212" transform="translate(-107.366 -415.336)" fill="#febf00"/><path d="M131.747,729.37q-.764-.211-1.461-.438v6.354c.466.151.951.3,1.461.44a53.973,53.973,0,0,0,5.767,1.228q1.865.3,3.912.528v-6.355q-2.044-.225-3.912-.528a53.967,53.967,0,0,1-5.767-1.228" transform="translate(-74.11 -414.637)" fill="#ffdf00"/><path d="M119.512,730.207a14.879,14.879,0,0,0,3.912,1.942V725.8a14.914,14.914,0,0,1-3.912-1.94Z" transform="translate(-67.982 -411.75)" fill="#ffdf00"/><path d="M165.051,734.663c-1.992-.058-3.921-.169-5.767-.326q-.74-.064-1.461-.137v6.355q.721.074,1.461.137c1.846.158,3.775.269,5.767.327q1.608.047,3.264.048c.217,0,.432,0,.648,0v-6.356c-.217,0-.432,0-.651,0q-1.654,0-3.261-.048" transform="translate(-89.774 -417.634)" fill="#ffdf00"/><path d="M185.361,741.68q.735-.01,1.461-.028V735.3q-.725.019-1.461.028Z" transform="translate(-105.439 -418.257)" fill="#ffdf00"/><path d="M229.663,734.794a29.763,29.763,0,0,0,3.912-1.305v-6.356a29.752,29.752,0,0,1-3.912,1.306Z" transform="translate(-130.639 -413.614)" fill="#ffdf00"/><path d="M240.436,725.284v6.355a12.136,12.136,0,0,0,1.461-.818v-6.357a12.084,12.084,0,0,1-1.461.82" transform="translate(-136.767 -412.096)" fill="#ffdf00"/><path d="M173.026,694.183c0,.947-.7,1.852-1.954,2.684a12.119,12.119,0,0,1-1.461.82q-.351.168-.733.331a29.783,29.783,0,0,1-3.912,1.305,56.13,56.13,0,0,1-5.767,1.189c-.477.075-.966.145-1.461.213-.243.033-.486.066-.733.1-1.255.16-2.562.3-3.912.407-1.848.152-3.777.257-5.767.308q-.726.019-1.461.028c-.243,0-.489,0-.733.005-.217,0-.433,0-.651,0q-1.655,0-3.261-.048c-1.992-.057-3.921-.169-5.767-.326q-.74-.064-1.461-.137c-.245-.025-.492-.049-.733-.076q-2.044-.225-3.912-.528a54.032,54.032,0,0,1-5.767-1.229q-.764-.212-1.461-.438c-.251-.082-.5-.164-.733-.248a14.912,14.912,0,0,1-3.912-1.94,3.183,3.183,0,0,1-1.547-2.393l0,6.394h0a3.211,3.211,0,0,0,1.539,2.35,14.885,14.885,0,0,0,3.912,1.942q.356.127.733.249c.466.151.952.3,1.461.44a53.973,53.973,0,0,0,5.767,1.228q1.866.3,3.912.528c.242.027.488.052.733.076q.721.074,1.461.137c1.846.158,3.775.269,5.767.326q1.607.047,3.264.048c.217,0,.432,0,.648,0,.245,0,.49,0,.733-.005q.735-.009,1.461-.028c1.99-.052,3.918-.157,5.767-.309,1.35-.111,2.657-.248,3.912-.407.247-.031.491-.064.733-.1.495-.067.984-.138,1.461-.212a56.116,56.116,0,0,0,5.767-1.19,29.7,29.7,0,0,0,3.912-1.305c.256-.109.5-.22.733-.332a12.2,12.2,0,0,0,1.461-.819c1.24-.821,1.936-1.713,1.953-2.646h0Z" transform="translate(-65.942 -394.871)" fill="#febf00"/><g transform="translate(49.984 299.312)" opacity="0.3" style="mix-blend-mode:multiply;isolation:isolate"><g clip-path="url(#li)"><path d="M173.026,694.183c0,.947-.7,1.852-1.954,2.684a12.119,12.119,0,0,1-1.461.82q-.351.168-.733.331a29.783,29.783,0,0,1-3.912,1.305,56.13,56.13,0,0,1-5.767,1.189c-.477.075-.966.145-1.461.213-.243.033-.486.066-.733.1-1.255.16-2.562.3-3.912.407-1.848.152-3.777.257-5.767.308q-.726.019-1.461.028c-.243,0-.489,0-.733.005-.217,0-.433,0-.651,0q-1.655,0-3.261-.048c-1.992-.057-3.921-.169-5.767-.326q-.74-.064-1.461-.137c-.245-.025-.492-.049-.733-.076q-2.044-.225-3.912-.528a54.032,54.032,0,0,1-5.767-1.229q-.764-.212-1.461-.438c-.251-.082-.5-.164-.733-.248a14.912,14.912,0,0,1-3.912-1.94,3.183,3.183,0,0,1-1.547-2.393l0,6.394h0a3.211,3.211,0,0,0,1.539,2.35,14.885,14.885,0,0,0,3.912,1.942q.356.127.733.249c.466.151.952.3,1.461.44a53.973,53.973,0,0,0,5.767,1.228q1.866.3,3.912.528c.242.027.488.052.733.076q.721.074,1.461.137c1.846.158,3.775.269,5.767.326q1.607.047,3.264.048c.217,0,.432,0,.648,0,.245,0,.49,0,.733-.005q.735-.009,1.461-.028c1.99-.052,3.918-.157,5.767-.309,1.35-.111,2.657-.248,3.912-.407.247-.031.491-.064.733-.1.495-.067.984-.138,1.461-.212a56.116,56.116,0,0,0,5.767-1.19,29.7,29.7,0,0,0,3.912-1.305c.256-.109.5-.22.733-.332a12.2,12.2,0,0,0,1.461-.819c1.24-.821,1.936-1.713,1.953-2.646h0Z" transform="translate(-115.926 -694.183)"/></g></g><path d="M173.03,682.6c0,4.075-12.779,7.384-28.546,7.392s-28.552-3.289-28.553-7.363,12.778-7.384,28.546-7.392,28.552,3.289,28.554,7.363" transform="translate(-65.944 -384.094)" fill="#febf00"/><path d="M148.713,680.641c13.305-.006,24.208,2.178,25.252,4.961a1.248,1.248,0,0,0,.09-.438c0-2.988-11.347-5.4-25.342-5.4s-25.338,2.435-25.336,5.423a1.239,1.239,0,0,0,.09.437c1.044-2.784,11.943-4.978,25.246-4.985" transform="translate(-70.18 -386.67)" fill="#febf00"/><g transform="translate(53.197 293.096)" opacity="0.1" style="mix-blend-mode:multiply;isolation:isolate"><g clip-path="url(#lj)"><path d="M148.713,680.641c13.305-.006,24.208,2.178,25.252,4.961a1.248,1.248,0,0,0,.09-.438c0-2.988-11.347-5.4-25.342-5.4s-25.338,2.435-25.336,5.423a1.239,1.239,0,0,0,.09.437c1.044-2.784,11.943-4.978,25.246-4.985" transform="translate(-123.377 -679.766)"/></g></g><path d="M148.837,691.741c13.3-.006,24.2-2.2,25.246-4.985-1.044-2.783-11.947-4.968-25.252-4.961s-24.2,2.2-25.246,4.985c1.044,2.783,11.947,4.968,25.252,4.961" transform="translate(-70.299 -387.824)" fill="#fcd721"/><path d="M115.926,692.415l0,6.394h0a3.213,3.213,0,0,0,1.539,2.35v-6.351a3.182,3.182,0,0,1-1.546-2.393" transform="translate(-65.942 -393.865)" fill="#febf00"/><path d="M183.66,715.83c.244,0,.49,0,.733-.005v-6.356c-.243,0-.489,0-.733.005Z" transform="translate(-104.471 -403.566)" fill="#febf00"/><path d="M156.122,714.486c.242.027.488.051.733.076v-6.356c-.245-.025-.492-.049-.733-.076Z" transform="translate(-88.807 -402.805)" fill="#febf00"/><path d="M128.585,708.817q.356.126.733.249v-6.354q-.376-.122-.733-.248Z" transform="translate(-73.143 -399.582)" fill="#febf00"/><path d="M245.779,692.348c0,.947-.7,1.851-1.954,2.684v6.356c1.24-.821,1.936-1.713,1.953-2.646h0Z" transform="translate(-138.695 -393.827)" fill="#febf00"/><path d="M238.735,707.16c.256-.109.5-.219.733-.332v-6.356q-.351.168-.733.331Z" transform="translate(-135.799 -398.449)" fill="#febf00"/><path d="M199.162,705.669c-.243.033-.486.066-.733.1-1.255.16-2.562.3-3.912.407-1.848.152-3.777.257-5.767.309v6.356c1.99-.052,3.919-.157,5.767-.309,1.35-.111,2.657-.247,3.912-.407q.37-.047.733-.1c.495-.068.984-.138,1.461-.212a56.192,56.192,0,0,0,5.767-1.19v-6.356a56.226,56.226,0,0,1-5.767,1.189c-.477.075-.966.144-1.461.212" transform="translate(-107.366 -400.608)" fill="#febf00"/><path d="M131.747,703.478q-.764-.211-1.461-.438v6.354c.466.151.951.3,1.461.44a54.017,54.017,0,0,0,5.767,1.228q1.865.3,3.912.528v-6.355q-2.044-.225-3.912-.528a54.026,54.026,0,0,1-5.767-1.228" transform="translate(-74.11 -399.909)" fill="#ffdf00"/><path d="M119.512,704.315a14.881,14.881,0,0,0,3.912,1.943V699.9a14.913,14.913,0,0,1-3.912-1.94Z" transform="translate(-67.982 -397.022)" fill="#ffdf00"/><path d="M165.051,708.77c-1.992-.058-3.921-.169-5.767-.326q-.74-.063-1.461-.137v6.355q.721.073,1.461.137c1.846.158,3.775.269,5.767.327q1.608.047,3.264.048c.217,0,.432,0,.648,0v-6.356c-.217,0-.432,0-.651,0q-1.654,0-3.261-.048" transform="translate(-89.774 -402.905)" fill="#ffdf00"/><path d="M185.361,715.787q.735-.01,1.461-.028V709.4q-.725.019-1.461.029Z" transform="translate(-105.439 -403.529)" fill="#ffdf00"/><path d="M229.663,708.9a29.763,29.763,0,0,0,3.912-1.305V701.24a29.742,29.742,0,0,1-3.912,1.306Z" transform="translate(-130.639 -398.885)" fill="#ffdf00"/><path d="M240.436,699.391v6.355a12.17,12.17,0,0,0,1.461-.818v-6.357a12.093,12.093,0,0,1-1.461.82" transform="translate(-136.767 -397.367)" fill="#ffdf00"/><path d="M172.111,604.5a25.574,25.574,0,1,1-25.586-25.3,25.445,25.445,0,0,1,25.586,25.3" transform="translate(-68.808 -329.463)" fill="#febf00"/><path d="M173.418,609.848A21.479,21.479,0,1,1,151.929,588.6a21.371,21.371,0,0,1,21.489,21.253" transform="translate(-74.211 -334.81)" fill="#febf00"/><g transform="translate(56.251 253.786)" opacity="0.1" style="mix-blend-mode:multiply;isolation:isolate"><g clip-path="url(#lm)"><path d="M173.418,609.848A21.479,21.479,0,1,1,151.929,588.6a21.371,21.371,0,0,1,21.489,21.253" transform="translate(-130.462 -588.596)"/></g></g><path d="M173.8,611.427a20.272,20.272,0,1,1-20.281-20.058A20.17,20.17,0,0,1,173.8,611.427" transform="translate(-75.803 -336.388)" fill="#fcd721"/></g><text transform="translate(69.746 283.376) rotate(-4.583)" fill="#fea600" font-size="31" font-family="Calibri-Bold, Calibri" font-weight="700"><tspan x="0" y="0">$</tspan></text><g clip-path="url(#a)"><path d="M57.522,576.121c-1.114-.392-2.045-.461-2.7.452C53.018,579.1,60.7,588.1,60.7,588.1s6.777.937,12.441,1.2c-4.721-.553-8.426-1.15-8.426-1.15a78.969,78.969,0,0,1-7.189-12.023" transform="translate(-31.029 -327.558)" fill="#363868"/><path d="M84.616,585.748c.194-2.6,5.677-10.12,3.419-13.212s-6.645,3.444-10.129.141-5.29,1.054-9.354,2.46c-2.6.9-5.14-.812-7.109-1.506a78.955,78.955,0,0,0,7.189,12.023s3.705.6,8.426,1.15c4.019.183,7.477.024,7.558-1.055" transform="translate(-34.951 -325.067)" fill="#43457b"/><path d="M93.248,662.143c-1.234-11.5-9.694-36.025-16.122-43.958l-.073.208H55.777s-8.935,27.032-10.539,35.458c-1.576,8.277.492,18.151,6.5,20.3,4.281,1.529,20.408.747,29.33,1.56a15.31,15.31,0,0,0,3.092-.772c3.983-1.453,9.927-4.954,9.086-12.793" transform="translate(-25.443 -351.642)" fill="#43457b"/><path d="M34.946,650.9c1.235-6.487,6.815-24,9.318-31.718a5.313,5.313,0,0,1,5.019-3.74H66.761l.073-.208c-.085-.1-.169-.208-.254-.307-1.763-2.072-10.038-1.958-11.613-1.917-.088,0-.171,0-.259,0-.472-.013-1.552-.031-2.878,0-3.084.083-7.5.462-8.738,1.912-6.457,7.588-15.126,32.608-16.376,44.264-.84,7.839,5.1,11.341,9.087,12.793a15.372,15.372,0,0,0,5.279.929H68.59a15.533,15.533,0,0,0,2.187-.157c-8.923-.812-25.05-.031-29.33-1.56-6.008-2.146-8.077-12.019-6.5-20.3" transform="translate(-15.152 -348.687)" fill="#363868"/></g><g transform="translate(28.86 260.269)"><g clip-path="url(#lo)"><rect width="21.651" height="5.207" transform="translate(0)" fill="url(#lp)"/></g></g><g clip-path="url(#a)"><g transform="translate(28.86 260.268)" opacity="0.3" style="mix-blend-mode:multiply;isolation:isolate"><g clip-path="url(#lr)"><path d="M87.372,603.631H68.145a1.411,1.411,0,0,0-1.212,1.548v2.111a1.411,1.411,0,0,0,1.212,1.548H87.372a1.411,1.411,0,0,0,1.211-1.548v-2.111a1.411,1.411,0,0,0-1.211-1.548" transform="translate(-66.933 -603.631)"/></g></g></g><g transform="translate(28.86 260.269)"><g clip-path="url(#ls)"><rect width="21.651" height="4.323" transform="translate(0)" fill="url(#lt)"/></g></g><g clip-path="url(#a)"><text transform="matrix(0.999, -0.038, 0.038, 0.999, 33.012, 302.597)" fill="#fea600" font-size="34" font-family="Calibri-Bold, Calibri" font-weight="700"><tspan x="0" y="0">$</tspan></text></g></g></g></g></svg>