<svg xmlns="http://www.w3.org/2000/svg" width="92.695" height="92.695" viewBox="0 0 92.695 92.695"><g transform="translate(1.495 1.495)"><g transform="translate(71.764 5.98)"><path d="M49,5h5.98V19.951H49Z" transform="translate(-49 -5)" fill="#ff826e"/></g><g transform="translate(83.725)"><path d="M57,1h5.98V21.931H57Z" transform="translate(-57 -1)" fill="#ff826e"/></g><g transform="translate(59.803 11.961)"><path d="M41,9h5.98v8.971H41Z" transform="translate(-41 -9)" fill="#ff826e"/></g><path d="M24.921,12.961A11.961,11.961,0,1,1,12.961,1,11.876,11.876,0,0,1,24.921,12.961Z" transform="translate(-1 -1)" fill="#ff826e"/><g transform="translate(0 50.833)"><path d="M1,60.416V36.5A1.5,1.5,0,0,1,2.5,35H17.446a1.5,1.5,0,0,1,1.5,1.5V60.416a1.5,1.5,0,0,1-1.5,1.5H2.5A1.5,1.5,0,0,1,1,60.416Z" transform="translate(-1 -35)" fill="#e6e9ed"/></g><g transform="translate(77.744 83.725)"><path d="M53,59.99V57h5.98v2.99a3.012,3.012,0,0,1-2.99,2.99A3,3,0,0,1,53,59.99Z" transform="translate(-53 -57)" fill="#aab2bd"/></g><g transform="translate(71.764 65.784)"><path d="M57.971,62.941H54.98l-3.5-3.5A8.457,8.457,0,0,1,57.462,45h1.017a8.457,8.457,0,0,1,5.98,14.443l-3.5,3.5Z" transform="translate(-49 -45)" fill="#ffeaa7"/></g><g transform="translate(32.892 32.892)"><path d="M46.921,31.971v5.98H43.408c-.179.419-.179.449-.359.867L45.531,41.3,41.3,45.531l-2.482-2.482c-.419.179-.449.179-.867.359v3.513h-5.98V43.408c-.419-.179-.449-.194-.867-.359l-2.482,2.482L24.39,41.3l2.482-2.482c-.164-.419-.179-.449-.359-.867H23v-5.98h3.513c.179-.419.179-.449.359-.867L24.39,28.622l4.231-4.231L31.1,26.872c.419-.179.449-.179.867-.359V23h5.98v3.513c.419.179.449.179.867.359L41.3,24.39l4.231,4.231L43.049,31.1c.179.419.179.449.359.867Zm-8.971,2.99a2.99,2.99,0,1,0-2.99,2.99A3,3,0,0,0,37.951,34.961Z" transform="translate(-23 -23)" fill="#fcd770"/></g></g><path d="M13.456,26.912a13.451,13.451,0,0,0,11.18-5.98H56.813v-2.99H26.127a13.447,13.447,0,1,0-12.671,8.971Zm0-23.921A10.466,10.466,0,1,1,2.99,13.456,10.478,10.478,0,0,1,13.456,2.99Z"/><path d="M18.368,7.407,16.254,5.293,8.34,13.206,6.407,11.273,4.293,13.387,8.34,17.435Z" transform="translate(2.125 2.62)"/><path d="M63.921,0V20.931h-2.99V5.98H51.961V20.931h-2.99V11.961H40V23.921H72.892V0ZM45.98,20.931H42.99v-5.98h2.99ZM54.951,8.971h2.99V20.931h-2.99ZM69.9,20.931h-2.99V2.99H69.9Z" transform="translate(19.803)"/><path d="M32.485,28a4.485,4.485,0,1,0,4.485,4.485A4.491,4.491,0,0,0,32.485,28Zm0,5.98a1.5,1.5,0,1,1,1.5-1.5A1.5,1.5,0,0,1,32.485,33.98Z" transform="translate(13.862 13.862)"/><path d="M41.8,22.77l-1.858,1.858V22H30.971v2.628L29.112,22.77,22.77,29.114l1.857,1.857H22v8.971h2.627L22.77,41.8l6.342,6.344,1.858-1.857v2.627h8.971V46.283L41.8,48.142,48.143,41.8l-1.858-1.857h2.627V30.971H46.285l1.857-1.857Zm4.122,14.181H42.9L41.78,39.664,43.913,41.8,41.8,43.913l-2.133-2.135L36.951,42.9v3.017h-2.99V42.9l-2.714-1.126-2.135,2.135L27,41.8l2.135-2.136-1.124-2.711H24.99v-2.99h3.017l1.124-2.714L27,29.114,29.112,27l2.133,2.135,2.715-1.126V24.99h2.99v3.017l2.714,1.126L41.8,27l2.116,2.116L41.78,31.247,42.9,33.961h3.017Z" transform="translate(10.892 10.892)"/><path d="M53.961,34.446a1.5,1.5,0,0,1-1.5,1.5H42v2.99H52.466a4.491,4.491,0,0,0,4.485-4.485V18h-2.99Z" transform="translate(20.794 8.912)"/><path d="M58.978,44H57.951a9.952,9.952,0,0,0-7.036,16.99l3.065,3.065v2.371a4.485,4.485,0,1,0,8.971,0V64.055l3.066-3.065A9.953,9.953,0,0,0,58.978,44Zm-.513,23.921a1.5,1.5,0,0,1-1.5-1.5v-1.5h2.99v1.5A1.5,1.5,0,0,1,58.466,67.921ZM63.9,58.876l-3.065,3.065h-.876v-5.98h2.99v-2.99H53.98v2.99h2.99v5.98h-.876l-3.065-3.065A6.963,6.963,0,0,1,57.953,46.99H58.98A6.963,6.963,0,0,1,63.9,58.876Z" transform="translate(23.764 21.784)"/><path d="M54,38h2.99v5.98H54Z" transform="translate(26.735 18.813)"/><path d="M0,0H2.99V5.982H0Z" transform="translate(73.439 58.842) rotate(-22.514)"/><path d="M0,0H5.982V2.99H0Z" transform="translate(86.035 63.261) rotate(-67.486)"/><path d="M11.961,67.377v-1.5h5.98a2.993,2.993,0,0,0,2.99-2.99V38.971a2.993,2.993,0,0,0-2.99-2.99h-5.98v-1.5a1.5,1.5,0,0,1,1.5-1.5H29.9V30H13.456a4.491,4.491,0,0,0-4.485,4.485v1.5H2.99A2.993,2.993,0,0,0,0,38.971V62.892a2.993,2.993,0,0,0,2.99,2.99h5.98v1.5a4.491,4.491,0,0,0,4.485,4.485H71.764v-2.99H13.456A1.5,1.5,0,0,1,11.961,67.377ZM2.99,38.971H17.941V62.892H2.99Z" transform="translate(0 14.853)"/><path d="M4,38h8.971v2.99H4Z" transform="translate(1.98 18.813)"/><path d="M4,42h8.971v2.99H4Z" transform="translate(1.98 20.794)"/><path d="M4,46h8.971v2.99H4Z" transform="translate(1.98 22.774)"/></svg>