<svg xmlns="http://www.w3.org/2000/svg" width="104.535" height="104.535" viewBox="0 0 104.535 104.535"><g transform="translate(-2 -2)"><g transform="translate(3.742 3.742)"><rect width="70" height="101" rx="4" transform="translate(31.258 -0.207)" fill="#e9f1f2"/><path d="M90.69,91.855v5.227a6.969,6.969,0,0,1-6.969,6.969H27.969A6.969,6.969,0,0,1,21,97.082V9.969A6.969,6.969,0,0,1,27.969,3h3.485a3.406,3.406,0,0,0,1.028,2.457,3.406,3.406,0,0,0,2.457,1.028H83.721a3.5,3.5,0,0,1,3.485,3.485v78.4A3.5,3.5,0,0,0,90.69,91.855Z" transform="translate(10.361 -3)" fill="#d0d8da"/><path d="M25,7H80.752V94.113H25Z" transform="translate(13.33 -0.031)" fill="#ade8f4"/><path d="M25,7V94.113H80.752V7ZM75.525,62.752a6.969,6.969,0,0,1-6.969,6.969H61.587A24.392,24.392,0,0,1,37.2,45.33V19.2a6.969,6.969,0,0,1,6.969-6.969H68.556A6.969,6.969,0,0,1,75.525,19.2Z" transform="translate(13.33 -0.031)" fill="#48cae4"/><circle cx="7" cy="7" r="7" transform="translate(47.258 22.793)" fill="#ff7373"/><circle cx="7" cy="7" r="7" transform="translate(47.258 43.793)" fill="#ff7373"/><g transform="translate(47.04 23.59)"><circle cx="7" cy="7" r="7" transform="translate(0.218 41.203)" fill="#ef5350"/><path d="M33.484,16.54V28.6a6.957,6.957,0,0,1,0-12.056Z" transform="translate(-29.999 -16.54)" fill="#ef5350"/><path d="M36.76,41.52a6.955,6.955,0,0,1-3.275-12.98v.8A24.121,24.121,0,0,0,36.76,41.52Z" transform="translate(-30 -7.633)" fill="#ef5350"/></g><path d="M3,19H27.392V43.392H3Z" transform="translate(-3 8.876)" fill="#ffd000"/><path d="M8,19h6.969v6.969H8Z" transform="translate(0.711 8.876)" fill="#ffea00"/><path d="M27.392,38.165v5.227H3V19H8.227v5.227A13.938,13.938,0,0,0,22.165,38.165Z" transform="translate(-3 8.876)" fill="#ffb700"/><path d="M3,33H27.392V57.392H3Z" transform="translate(-3 19.268)" fill="#ffd000"/><path d="M8,33h6.969v6.969H8Z" transform="translate(0.711 19.268)" fill="#ffea00"/><path d="M27.392,52.165v5.227H3V33H8.227v5.227A13.938,13.938,0,0,0,22.165,52.165Z" transform="translate(-3 19.268)" fill="#ffb700"/><path d="M3,47H27.392V71.392H3Z" transform="translate(-3 29.659)" fill="#ffd000"/><path d="M8,47h6.969v6.969H8Z" transform="translate(0.711 29.659)" fill="#ffea00"/><path d="M27.392,66.165v5.227H3V47H8.227v5.227A13.938,13.938,0,0,0,22.165,66.165Z" transform="translate(-3 29.659)" fill="#ffb700"/><path d="M17,33H41.392V57.392H17Z" transform="translate(7.392 19.268)" fill="#ffd000"/><path d="M22,33h6.969v6.969H22Z" transform="translate(11.103 19.268)" fill="#ffea00"/><path d="M41.392,52.165v5.227H17V33h5.227v5.227A13.938,13.938,0,0,0,36.165,52.165Z" transform="translate(7.392 19.268)" fill="#ffb700"/><path d="M17,47H41.392V71.392H17Z" transform="translate(7.392 29.659)" fill="#ffd000"/><path d="M22,47h6.969v6.969H22Z" transform="translate(11.103 29.659)" fill="#ffea00"/><path d="M41.392,66.165v5.227H17V47h5.227v5.227A13.938,13.938,0,0,0,36.165,66.165Z" transform="translate(7.392 29.659)" fill="#ffb700"/><path d="M31,47H55.392V71.392H31Z" transform="translate(17.783 29.659)" fill="#ffd000"/><path d="M36,47h6.969v6.969H36Z" transform="translate(21.494 29.659)" fill="#ffea00"/><path d="M55.392,66.165v5.227H31V47h5.227v5.227A13.938,13.938,0,0,0,50.165,66.165Z" transform="translate(17.783 29.659)" fill="#ffb700"/></g><g transform="translate(2 2)"><path d="M104.793,50.783a1.742,1.742,0,0,0,1.742-1.742V10.711A8.722,8.722,0,0,0,97.824,2H42.072a8.722,8.722,0,0,0-8.711,8.711V54.268H29.876V31.618a1.742,1.742,0,0,0-1.742-1.742H3.742A1.742,1.742,0,0,0,2,31.618v33.1a1.742,1.742,0,0,0,3.485,0V57.752h5.227v5.227a1.742,1.742,0,0,0,1.742,1.742h6.969a1.742,1.742,0,0,0,1.742-1.742V57.752h5.227v15.68a1.742,1.742,0,1,0,3.485,0V57.752H35.1v5.227a1.742,1.742,0,0,0,1.742,1.742h6.969a1.742,1.742,0,0,0,1.742-1.742V57.752h5.227V78.659H5.485V71.69A1.742,1.742,0,0,0,2,71.69v33.1a1.742,1.742,0,0,0,1.742,1.742h33.1a1.742,1.742,0,0,0,0-3.485H29.876V82.144H35.1V87.37a1.742,1.742,0,0,0,1.742,1.742h6.969a1.742,1.742,0,0,0,1.742-1.742V82.144h5.227v20.907H43.814a1.742,1.742,0,0,0,0,3.485h54.01a8.722,8.722,0,0,0,8.711-8.711V56.01a1.742,1.742,0,0,0-3.485,0V97.824a5.227,5.227,0,0,1-5.227,5.227H78.659V99.566H97.824a1.742,1.742,0,0,0,1.742-1.742V24.649a1.742,1.742,0,1,0-3.485,0V96.082H78.659V82.144H89.113a1.742,1.742,0,1,0,0-3.485h-23.4a8.58,8.58,0,0,0,.747-3.485,8.673,8.673,0,0,0-.652-3.279l3.361-2.241a1.742,1.742,0,1,0-1.934-2.9l-3.357,2.239a8.678,8.678,0,0,0-6.129-2.531,8.581,8.581,0,0,0-3.485.747V62.231a8.581,8.581,0,0,0,3.485.747,8.689,8.689,0,0,0,8.06-11.99l3.361-2.241a1.742,1.742,0,1,0-1.934-2.9l-3.357,2.239A8.626,8.626,0,0,0,52,47.776l-.174-.129a1.742,1.742,0,1,0-2.091,2.788l.164.124a8.609,8.609,0,0,0-.859,3.709h-12.2V10.711a5.227,5.227,0,0,1,5.227-5.227H97.824a5.227,5.227,0,0,1,5.227,5.227v38.33a1.742,1.742,0,0,0,1.742,1.742ZM17.68,82.144v3.485H14.2V82.144Zm-12.2,0h5.227V87.37a1.742,1.742,0,0,0,1.742,1.742h6.969a1.742,1.742,0,0,0,1.742-1.742V82.144h5.227v20.907H5.485Zm36.587,3.485H38.587V82.144h3.485Zm33.1-3.485v20.907H54.268V82.144h5.227V87.37a1.742,1.742,0,0,0,1.742,1.742h6.969a1.742,1.742,0,0,0,1.742-1.742V82.144Zm-8.711,3.485H62.979V82.144h3.485ZM62.979,75.175a5.1,5.1,0,0,1-1.406,3.485H54.268v-3.92l2.439,1.829a1.742,1.742,0,0,0,2.012.056L62.8,73.9A5.117,5.117,0,0,1,62.979,75.175ZM60.869,71,57.811,73.04l-2.924-2.192a5.068,5.068,0,0,1,2.864-.9A5.171,5.171,0,0,1,60.869,71ZM57.752,49.041A5.171,5.171,0,0,1,60.869,50.1l-3.058,2.037L54.85,49.921A5.194,5.194,0,0,1,57.752,49.041Zm-4.967,3.68,3.922,2.941a1.742,1.742,0,0,0,2.012.056L62.8,52.994a5.117,5.117,0,0,1,.174,1.274,5.227,5.227,0,0,1-5.227,5.227,5.1,5.1,0,0,1-3.485-1.406V56.01a1.742,1.742,0,0,0-1.742-1.742A5.171,5.171,0,0,1,52.785,52.72Zm-35.1-19.36v3.485H14.2V33.361Zm-12.2,0h5.227v5.227a1.742,1.742,0,0,0,1.742,1.742h6.969a1.742,1.742,0,0,0,1.742-1.742V33.361h5.227V54.268H5.485Zm12.2,27.876H14.2V57.752H17.68Zm24.392-3.485v3.485H38.587V57.752Z" transform="translate(-2 -2)"/><path d="M81.494,16.454a1.742,1.742,0,0,0,1.742-1.742V7.742A1.742,1.742,0,0,0,81.494,6H25.742A1.742,1.742,0,0,0,24,7.742v38.33a1.742,1.742,0,0,0,3.485,0V9.485H79.752v5.227A1.742,1.742,0,0,0,81.494,16.454Z" transform="translate(14.33 0.969)"/><path d="M49.615,15.776a1.742,1.742,0,0,0-2.417-.483l-3.357,2.239a8.626,8.626,0,0,0-11.88-.312l-.174-.129A1.742,1.742,0,0,0,29.7,19.879L29.86,20A8.608,8.608,0,0,0,29,23.711a8.711,8.711,0,1,0,16.771-3.279l3.361-2.241a1.742,1.742,0,0,0,.483-2.417Zm-11.9,2.709a5.171,5.171,0,0,1,3.117,1.056l-3.058,2.037-2.962-2.213a5.194,5.194,0,0,1,2.9-.88Zm5.227,5.227a5.227,5.227,0,0,1-10.454,0,5.171,5.171,0,0,1,.26-1.547l3.922,2.941a1.742,1.742,0,0,0,2.012.056l4.086-2.723a5.117,5.117,0,0,1,.174,1.274Z" transform="translate(18.04 7.649)"/><path d="M60.907,22H41.742a1.742,1.742,0,1,0,0,3.485H60.907a1.742,1.742,0,1,0,0-3.485Z" transform="translate(26.206 12.845)"/><path d="M62.649,35.742A1.742,1.742,0,0,0,60.907,34H41.742a1.742,1.742,0,1,0,0,3.485H60.907A1.742,1.742,0,0,0,62.649,35.742Z" transform="translate(26.206 21.752)"/><path d="M60.165,18H42.742a1.742,1.742,0,0,0,0,3.485H60.165a1.742,1.742,0,1,0,0-3.485Z" transform="translate(26.948 9.876)"/><path d="M59.423,30H43.742a1.742,1.742,0,1,0,0,3.485h15.68a1.742,1.742,0,1,0,0-3.485Z" transform="translate(27.69 18.783)"/><path d="M43.742,42a1.742,1.742,0,0,0,0,3.485H57.68a1.742,1.742,0,0,0,0-3.485Z" transform="translate(27.69 27.69)"/><path d="M59.907,13.485a1.742,1.742,0,1,0,0-3.485H40.742a1.742,1.742,0,1,0,0,3.485Z" transform="translate(25.463 3.938)"/><path d="M38.969,13.485a1.742,1.742,0,1,0,0-3.485H33.742a1.742,1.742,0,1,0,0,3.485Z" transform="translate(20.268 3.938)"/></g></g></svg>