<svg xmlns="http://www.w3.org/2000/svg" width="109.393" height="109.393" viewBox="0 0 109.393 109.393"><g transform="translate(-2 -2)"><g transform="translate(3.675 3.823)"><path d="M6,3H24.232v7.293H6Z" transform="translate(-0.382 -3)" fill="#f9e109"/><path d="M8,7H18.939v5.47A5.47,5.47,0,0,1,8,12.47Z" transform="translate(1.264 0.293)" fill="#f8664f"/><rect width="106" height="22" rx="4" transform="translate(-0.282 84.177)" fill="#e9f1f2"/><path d="M108.746,61.671v1.914a7.293,7.293,0,0,1-7.293,7.293H10.293A7.293,7.293,0,0,1,3,63.586V56.293A7.293,7.293,0,0,1,10.293,49h16.5a4.558,4.558,0,0,0,4.467,3.646h69.282A4.558,4.558,0,0,1,105.1,57.2a4.54,4.54,0,0,0,3.646,4.467Z" transform="translate(-2.852 34.868)" fill="#d0d8da"/><path d="M9,53H92.868v7.293H9Z" transform="translate(2.087 38.16)" fill="#656b76"/><g transform="translate(7.538 69.282)"><circle cx="3.5" cy="3.5" r="3.5" transform="translate(0.179 21.895)" fill="#f9e109"/><circle cx="3.5" cy="3.5" r="3.5" transform="translate(20.179 21.895)" fill="#f9e109"/><circle cx="3.5" cy="3.5" r="3.5" transform="translate(42.179 21.895)" fill="#f9e109"/><ellipse cx="4" cy="3.5" rx="4" ry="3.5" transform="translate(63.179 21.895)" fill="#f9e109"/><circle cx="3.5" cy="3.5" r="3.5" transform="translate(84.179 21.895)" fill="#f9e109"/><path d="M48,41H62.586V55.586H48Z" transform="translate(26.654 -41)" fill="#f9e109"/><path d="M28,41H42.586V55.586H28Z" transform="translate(10.19 -41)" fill="#f9e109"/><path d="M8,41H22.586V55.586H8Z" transform="translate(-6.274 -41)" fill="#f9e109"/></g><path d="M62.586,50.116v5.47H48V41h3.646v1.823a7.293,7.293,0,0,0,7.293,7.293Z" transform="translate(34.192 28.282)" fill="#fcbc04"/><path d="M42.586,50.116v5.47H28V41h3.646v1.823a7.293,7.293,0,0,0,7.293,7.293Z" transform="translate(17.728 28.282)" fill="#fcbc04"/><path d="M22.586,50.116v5.47H8V41h3.646v1.823a7.293,7.293,0,0,0,7.293,7.293Z" transform="translate(1.264 28.282)" fill="#fcbc04"/><path d="M59.971,57.993a3.646,3.646,0,1,1-4.813-4.813,3.448,3.448,0,0,0-.328,1.5,3.657,3.657,0,0,0,3.646,3.646,3.448,3.448,0,0,0,1.5-.328Z" transform="translate(38.302 38.309)" fill="#fcbc04"/><path d="M48.971,57.993a3.646,3.646,0,1,1-4.813-4.813,3.448,3.448,0,0,0-.328,1.5,3.657,3.657,0,0,0,3.646,3.646,3.448,3.448,0,0,0,1.5-.328Z" transform="translate(29.247 38.309)" fill="#fcbc04"/><path d="M36.971,57.993a3.646,3.646,0,1,1-4.813-4.813,3.448,3.448,0,0,0-.328,1.5,3.657,3.657,0,0,0,3.646,3.646A3.448,3.448,0,0,0,36.971,57.993Z" transform="translate(19.368 38.309)" fill="#fcbc04"/><path d="M24.971,57.993a3.646,3.646,0,1,1-4.813-4.813,3.448,3.448,0,0,0-.328,1.5,3.657,3.657,0,0,0,3.646,3.646,3.448,3.448,0,0,0,1.5-.328Z" transform="translate(9.49 38.309)" fill="#fcbc04"/><path d="M13.971,57.993A3.646,3.646,0,1,1,9.158,53.18a3.448,3.448,0,0,0-.328,1.5,3.657,3.657,0,0,0,3.646,3.646,3.448,3.448,0,0,0,1.5-.328Z" transform="translate(0.435 38.309)" fill="#fcbc04"/><path d="M61.055,33.409,41,24.293,44.646,17,64.7,27.939Z" transform="translate(28.43 8.525)" fill="#f9e109"/><path d="M64.7,27.939l-3.646,5.47L41,24.293,44.646,17l4.9,2.68a7.125,7.125,0,0,1,.565,2.79,7.734,7.734,0,0,1-.255,1.841A5.47,5.47,0,0,0,55.7,23.035Z" transform="translate(28.43 8.525)" fill="#fcbc04"/><path d="M37,7l1.823,18.232H49.762L51.586,7Z" transform="translate(25.137 0.293)" fill="#f9e109"/><path d="M43.545,11.722a3.579,3.579,0,0,0-1.061,2.893,3.783,3.783,0,0,0,3.836,3.324,3.776,3.776,0,0,1,3.756,4.151l-.314,3.141H38.823L37,7H51.586l-.365,3.646h-5.1a3.564,3.564,0,0,0-2.571,1.076Z" transform="translate(25.137 0.293)" fill="#fcbc04"/><path d="M35,3H56.879v7.293H35Z" transform="translate(23.491 -3)" fill="#f8664f"/><circle cx="7.5" cy="7.5" r="7.5" transform="translate(61.718 20.177)" fill="#f8664f"/><path d="M57.293,36.47l-3.646,1.823L50,36.47V31h7.293Z" transform="translate(35.839 20.05)" fill="#f8664f"/><circle cx="5.5" cy="5.5" r="5.5" transform="translate(83.718 33.177)" fill="#f8664f"/><path d="M56.879,3V6.519H41.545A3.634,3.634,0,0,0,37.9,10.165v.128H35V3Z" transform="translate(23.491 -3)" fill="#cc5144"/><path d="M50.93,23.987A7.284,7.284,0,1,1,41.3,14.36a7.167,7.167,0,0,0-.656,2.99,7.293,7.293,0,0,0,7.293,7.293,7.167,7.167,0,0,0,2.99-.656Z" transform="translate(25.137 6.352)" fill="#cc5144"/><path d="M59.456,28.49a5.47,5.47,0,1,1-7.22-7.22,5.382,5.382,0,0,0-.492,2.243,5.47,5.47,0,0,0,5.47,5.47,5.382,5.382,0,0,0,2.243-.492Z" transform="translate(35.006 12.04)" fill="#cc5144"/><path d="M57.293,36.47l-3.646,1.823L50,36.47V31h1.823v1.823A3.657,3.657,0,0,0,55.47,36.47Z" transform="translate(35.839 20.05)" fill="#cc5144"/><path d="M24.232,3V6.519H12.545A3.634,3.634,0,0,0,8.9,10.165v.128H6V3Z" transform="translate(-0.382 -3)" fill="#fcbc04"/><path d="M18.939,7v3.646H17.116a5.47,5.47,0,0,0-5.47,5.47,5.652,5.652,0,0,0,.237,1.586A5.437,5.437,0,0,1,8,12.47V7Z" transform="translate(1.264 0.293)" fill="#cc5144"/></g><g transform="translate(2 2)"><ellipse cx="1.5" cy="2" rx="1.5" ry="2" transform="translate(69.392 27)" fill="#010101"/><path d="M10,17.823V54.287a1.823,1.823,0,1,0,3.646,0V17.823a1.823,1.823,0,1,0-3.646,0Z" transform="translate(4.586 9.525)" fill="#010101"/><path d="M21.155,18.225a1.823,1.823,0,0,0,2.578,0,7.293,7.293,0,0,0,0-10.312,1.823,1.823,0,1,0-2.578,2.578,3.646,3.646,0,0,1,0,5.156,1.823,1.823,0,0,0,0,2.578Z" transform="translate(13.329 2.428)" fill="#010101"/><path d="M23.984,23.134a1.823,1.823,0,1,0,2.578,2.578,14.6,14.6,0,0,0,0-20.628,1.823,1.823,0,1,0-2.578,2.578A10.954,10.954,0,0,1,23.984,23.134Z" transform="translate(15.658 0.099)" fill="#010101"/><circle cx="1.823" cy="1.823" r="1.823" transform="translate(28.26 13.674)" fill="#010101"/><path d="M27.823,5.646H62.464V9.293H42.409a1.823,1.823,0,0,0,0,3.646h2.006L45.74,26.19A9.034,9.034,0,0,0,56.008,39.848L66.6,44.663a7.293,7.293,0,0,0,4.983,4.481V53.05H69.757a1.823,1.823,0,0,0-1.823,1.823H58.818A1.823,1.823,0,0,0,56.995,56.7V67.636a1.823,1.823,0,0,0,1.823,1.823h3.646a1.823,1.823,0,0,0,0-3.646H60.641V58.519h7.293v1.823a1.823,1.823,0,0,0,1.008,1.641l3.646,1.823a1.823,1.823,0,0,0,1.63,0l3.646-1.823a1.823,1.823,0,0,0,1.008-1.641V58.519h7.293v7.293H84.343a1.823,1.823,0,1,0,0,3.646h3.646a1.823,1.823,0,0,0,1.823-1.823V56.7a1.823,1.823,0,0,0-1.823-1.823H78.873A1.823,1.823,0,0,0,77.05,53.05H75.227V49.145a7.293,7.293,0,0,0,5.47-7.034,2.215,2.215,0,0,0-.033-.387,1.826,1.826,0,0,0-3.646.2.5.5,0,0,0,.033.184,3.646,3.646,0,1,1-3.738-3.646c.051,0,.224.026.275.027a1.789,1.789,0,0,0,1.854-1.652,1.878,1.878,0,0,0-1.624-1.987c-.084-.013-.33-.035-.414-.035a7.189,7.189,0,0,0-2.006.314L62.36,30.209a9.023,9.023,0,0,0-1.4-4.011l1.331-13.258h2a1.823,1.823,0,0,0,1.823-1.823V5.646h23.7a1.823,1.823,0,1,0,0-3.646H27.823a1.823,1.823,0,0,0,0,3.646Zm47.4,53.57-1.823.912-1.823-.912V56.7h3.646ZM47.879,31.171a5.47,5.47,0,1,1,5.47,5.47A5.47,5.47,0,0,1,47.879,31.171Zm14.055,2.946L67.9,37.37a7.236,7.236,0,0,0-1.61,3.154L59.815,37.58A9.116,9.116,0,0,0,61.934,34.118ZM57.6,23.16a8.751,8.751,0,0,0-8.511,0L48.061,12.939H58.635Z" transform="translate(17.757 -2)" fill="#010101"/><path d="M3.823,5.646H7.47v5.47a1.823,1.823,0,0,0,1.823,1.823h1.823v3.646a7.293,7.293,0,1,0,14.586,0V12.939h1.823a1.823,1.823,0,0,0,1.823-1.823V5.646h9.116a1.823,1.823,0,0,0,0-3.646H3.823a1.823,1.823,0,1,0,0,3.646ZM22.055,16.586a3.646,3.646,0,0,1-7.293,0V12.939h7.293ZM25.7,5.646V9.293H11.116V5.646Z" transform="translate(-2 -2)" fill="#010101"/><path d="M87.459,54.586V41.823A1.823,1.823,0,0,0,85.636,40H71.05a1.823,1.823,0,0,0-1.823,1.823V54.586h-5.47a1.823,1.823,0,1,0,0,3.646h23.7a5.47,5.47,0,0,1,5.47,5.47v7.293a5.47,5.47,0,0,1-5.47,5.47H21.823a1.823,1.823,0,0,0,0,3.646H87.459a9.127,9.127,0,0,0,9.116-9.116V63.7a9.127,9.127,0,0,0-9.116-9.116Zm-14.586,0V43.646h3.646V45.47a1.823,1.823,0,1,0,3.646,0V43.646h3.646V54.586Z" transform="translate(12.818 29.282)" fill="#010101"/><path d="M29.348,76.464H11.116a5.47,5.47,0,0,1-5.47-5.47V63.7a5.47,5.47,0,0,1,5.47-5.47H71.282a1.823,1.823,0,1,0,0-3.646h-5.47V41.823A1.823,1.823,0,0,0,63.989,40H49.4a1.823,1.823,0,0,0-1.823,1.823V54.586H29.348V41.823A1.823,1.823,0,0,0,27.525,40H12.939a1.823,1.823,0,0,0-1.823,1.823V54.586A9.127,9.127,0,0,0,2,63.7v7.293a9.127,9.127,0,0,0,9.116,9.116H29.348a1.823,1.823,0,0,0,0-3.646ZM51.227,43.646h3.646V45.47a1.823,1.823,0,0,0,3.646,0V43.646h3.646V54.586H51.227Zm-36.464,0h3.646V45.47a1.823,1.823,0,0,0,3.646,0V43.646H25.7V54.586H14.762Z" transform="translate(-2 29.282)" fill="#010101"/><path d="M75.282,62.939H95.337a5.47,5.47,0,1,0,0-10.939H11.47a5.47,5.47,0,1,0,0,10.939H64.343a1.823,1.823,0,0,0,0-3.646H58.538a5.121,5.121,0,0,0,0-3.646h11.61a5.407,5.407,0,0,0-.335,1.823,5.47,5.47,0,0,0,5.47,5.47Zm1.823-5.47a1.823,1.823,0,1,1-1.823-1.823A1.823,1.823,0,0,1,77.105,57.47Zm3.311-1.823H90.2a5.121,5.121,0,0,0,0,3.646H80.416A5.122,5.122,0,0,0,80.416,55.646Zm14.921,3.646A1.823,1.823,0,1,1,97.16,57.47,1.823,1.823,0,0,1,95.337,59.293ZM29.7,57.47a1.823,1.823,0,1,1,1.823,1.823A1.823,1.823,0,0,1,29.7,57.47Zm-3.311,1.823H16.6a5.121,5.121,0,0,0,0-3.646h9.787a5.121,5.121,0,0,0,0,3.646Zm10.268-3.646h11.61a5.121,5.121,0,0,0,0,3.646H36.659a5.121,5.121,0,0,0,0-3.646Zm-25.189,0A1.823,1.823,0,1,1,9.646,57.47,1.823,1.823,0,0,1,11.47,55.646ZM55.227,57.47A1.823,1.823,0,1,1,53.4,55.646,1.823,1.823,0,0,1,55.227,57.47Z" transform="translate(1.293 39.16)" fill="#010101"/></g></g></svg>