<svg xmlns="http://www.w3.org/2000/svg" xmlns:xlink="http://www.w3.org/1999/xlink" width="168" height="156" viewBox="0 0 168 156"><defs><filter id="a" x="0" y="0" width="168" height="156" filterUnits="userSpaceOnUse"><feOffset dy="3" input="SourceAlpha"/><feGaussianBlur stdDeviation="3" result="b"/><feFlood flood-opacity="0.161"/><feComposite operator="in" in2="b"/><feComposite in="SourceGraphic"/></filter></defs><g transform="translate(-402 -3436)"><g transform="translate(78.695 -895.382)"><g transform="matrix(1, 0, 0, 1, 323.3, 4331.38)" filter="url(#a)"><rect width="150" height="138" rx="17" transform="translate(9 6)" fill="#fff"/></g><g transform="translate(159.305 955.382)"><g transform="translate(209 3413.011)"><g transform="translate(2.195 2.099)"><g transform="translate(33.458 19.119)"><path d="M63.458,17.9H34.78A4.778,4.778,0,0,0,30,22.684V65.7a4.778,4.778,0,0,0,4.78,4.78H63.458a4.778,4.778,0,0,0,4.78-4.78V22.684A4.778,4.778,0,0,0,63.458,17.9Z" transform="translate(-30 -17.904)" fill="#969faa"/></g><g transform="translate(38.238 23.899)"><path d="M62.678,23.1v7.17a1.2,1.2,0,0,1-1.195,1.195H35.195A1.2,1.2,0,0,1,34,30.269V23.1A1.2,1.2,0,0,1,35.195,21.9h2.45a14.354,14.354,0,0,0,21.389,0h2.45A1.2,1.2,0,0,1,62.678,23.1Z" transform="translate(-34 -21.904)" fill="#69d6f4"/></g><g transform="translate(38.238 52.577)"><path d="M34,45.9H48.339V60.243H34Z" transform="translate(-34 -45.904)" fill="#ff826e"/></g><g transform="translate(52.577 38.238)"><path d="M46,33.9H60.339V48.243H46Z" transform="translate(-46 -33.904)" fill="#ff826e"/></g><g transform="translate(38.238 38.238)"><path d="M34,33.9H48.339V48.243H34Z" transform="translate(-34 -33.904)" fill="#ff826e"/></g><g transform="translate(52.577 52.577)"><path d="M46,45.9H60.339V60.243H46Z" transform="translate(-46 -45.904)" fill="#ff826e"/></g><g transform="translate(0 57.357)"><path d="M11.559,49.9h7.17a2.4,2.4,0,0,1,2.39,2.39v2.39a2.4,2.4,0,0,1-2.39,2.39H4.39A2.4,2.4,0,0,1,2,54.684v-2.39A2.4,2.4,0,0,1,4.39,49.9h7.17Z" transform="translate(-2 -49.904)" fill="#ffc729"/></g><g transform="translate(16.729 64.526)"><path d="M27.949,55.9h2.39a2.4,2.4,0,0,1,2.39,2.39v2.39a2.4,2.4,0,0,1-2.39,2.39H16a2.4,2.4,0,0,0,2.39-2.39v-2.39A2.4,2.4,0,0,0,16,55.9H27.949Z" transform="translate(-16 -55.904)" fill="#ffc729"/></g><g transform="translate(16.729 50.187)"><path d="M30.339,43.9a2.4,2.4,0,0,1,2.39,2.39v2.39a2.4,2.4,0,0,1-2.39,2.39H16a2.4,2.4,0,0,0,2.39-2.39v-2.39A2.4,2.4,0,0,0,16,43.9H30.339Z" transform="translate(-16 -43.904)" fill="#ffc729"/></g><g transform="translate(14.339 35.848)"><path d="M28.339,31.9h2.39a2.4,2.4,0,0,1,2.39,2.39v2.39a2.4,2.4,0,0,1-2.39,2.39H16.39A2.4,2.4,0,0,1,14,36.684v-2.39a2.4,2.4,0,0,1,2.39-2.39H28.339Z" transform="translate(-14 -31.904)" fill="#ffc729"/></g><g transform="translate(14.339 43.017)"><path d="M30.729,37.9a2.4,2.4,0,0,1,2.39,2.39v2.39a2.4,2.4,0,0,1-2.39,2.39H16.39A2.4,2.4,0,0,1,14,42.684v-2.39a2.4,2.4,0,0,1,2.39-2.39H30.729Z" transform="translate(-14 -37.904)" fill="#fcd770"/></g><g transform="translate(16.729 57.357)"><path d="M27.949,49.9h2.39a2.4,2.4,0,0,1,2.39,2.39v2.39a2.4,2.4,0,0,1-2.39,2.39H16a2.4,2.4,0,0,0,2.39-2.39v-2.39A2.4,2.4,0,0,0,16,49.9H27.949Z" transform="translate(-16 -49.904)" fill="#fcd770"/></g><g transform="translate(0 64.526)"><path d="M11.559,55.9h7.17a2.4,2.4,0,0,1,2.39,2.39v2.39a2.4,2.4,0,0,1-2.39,2.39H4.39A2.4,2.4,0,0,1,2,60.684v-2.39A2.4,2.4,0,0,1,4.39,55.9h7.17Z" transform="translate(-2 -55.904)" fill="#fcd770"/></g><g transform="translate(0 50.187)"><path d="M11.559,43.9h7.17a2.4,2.4,0,0,1,2.39,2.39v2.39a2.4,2.4,0,0,1-2.39,2.39H4.39A2.4,2.4,0,0,1,2,48.684v-2.39A2.4,2.4,0,0,1,4.39,43.9h7.17Z" transform="translate(-2 -43.904)" fill="#fcd770"/></g><g transform="translate(38.238)"><path d="M61.854,21.023A14.339,14.339,0,0,1,34,16.243a14.339,14.339,0,0,1,28.678,0A14.1,14.1,0,0,1,61.854,21.023Z" transform="translate(-34 -1.904)" fill="#fcd770"/></g><g transform="translate(25.094 10.754)"><path d="M26.585,10.9A3.581,3.581,0,1,1,23,14.489,3.58,3.58,0,0,1,26.585,10.9Z" transform="translate(-23 -10.904)" fill="#fcd770"/></g><g transform="translate(15.534 21.509)"><path d="M20.963,20.812a3.581,3.581,0,1,1-5.58,4.278,3.579,3.579,0,0,1,5.58-4.278Z" transform="translate(-15 -19.904)" fill="#fcd770"/></g><g transform="translate(3.585 27.483)"><path d="M12.17,28.489a3.6,3.6,0,1,1-.382-1.6A3.58,3.58,0,0,1,12.17,28.489Z" transform="translate(-5 -24.904)" fill="#fcd770"/></g></g><g transform="translate(1 0.904)"><path d="M33,63.972H64.068V32.9H33ZM49.729,35.294H61.678V47.243H49.729Zm0,14.339H61.678V61.582H49.729ZM35.39,35.294H47.339V47.243H35.39Zm0,14.339H47.339V61.582H35.39Z" transform="translate(5.238 5.334)"/><path d="M49,38.9h7.17v2.39H49Z" transform="translate(8.357 6.503)"/><path d="M49,52.9h7.17v2.39H49Z" transform="translate(8.357 9.232)"/><path d="M49,48.9h7.17v2.39H49Z" transform="translate(8.357 8.453)"/><path d="M41.78,36.9H39.39v2.39H37v2.39h2.39v2.39h2.39v-2.39h2.39v-2.39H41.78Z" transform="translate(6.017 6.113)"/><path d="M42.073,49.2l-1.545,1.545L38.983,49.2l-1.69,1.69,1.545,1.545-1.545,1.545,1.69,1.69,1.545-1.545,1.545,1.545,1.69-1.69-1.545-1.545,1.545-1.545Z" transform="translate(6.075 8.51)"/><path d="M69.852,20.1A15.52,15.52,0,1,0,39.3,15.243H35.483A4.771,4.771,0,1,0,26.907,19.1L23.48,22.956a4.719,4.719,0,0,0-2.166-.544,4.766,4.766,0,0,0-4.671,5.779l-3.694,1.847a4.712,4.712,0,1,0,1.086,2.129l3.694-1.847a4.767,4.767,0,0,0,7.551-5.792l3.427-3.855a4.719,4.719,0,0,0,2.166.544,4.776,4.776,0,0,0,4.61-3.585H39.3a15.388,15.388,0,0,0,.393,2.465A5.964,5.964,0,0,0,34.458,26V36.972a3.544,3.544,0,0,0-1.195-.22H18.924a3.589,3.589,0,0,0-3.585,3.585v2.39a3.562,3.562,0,0,0,.932,2.39,3.556,3.556,0,0,0-.932,2.39V49.9a3.544,3.544,0,0,0,.22,1.195H4.585A3.589,3.589,0,0,0,1,54.676v2.39a3.562,3.562,0,0,0,.932,2.39A3.556,3.556,0,0,0,1,61.845v2.39a3.562,3.562,0,0,0,.932,2.39A3.556,3.556,0,0,0,1,69.015V71.4A3.589,3.589,0,0,0,4.585,74.99H33.263A3.576,3.576,0,0,0,36.291,73.3a5.946,5.946,0,0,0,4.142,1.685H69.111a5.981,5.981,0,0,0,5.975-5.975V26A5.964,5.964,0,0,0,69.852,20.1ZM9.365,35.557a2.39,2.39,0,1,1,2.39-2.39A2.392,2.392,0,0,1,9.365,35.557Zm11.949-5.975a2.39,2.39,0,1,1,2.39-2.39A2.392,2.392,0,0,1,21.314,29.582Zm9.559-10.754a2.39,2.39,0,1,1,2.39-2.39A2.392,2.392,0,0,1,30.873,18.828ZM20.119,71.4A1.2,1.2,0,0,1,18.924,72.6H4.585A1.2,1.2,0,0,1,3.39,71.4v-2.39A1.2,1.2,0,0,1,4.585,67.82H5.78v2.39H8.17V67.82h2.39v2.39h2.39V67.82h2.39v2.39h2.39V67.82h1.195a1.2,1.2,0,0,1,1.195,1.195Zm0-7.17a1.2,1.2,0,0,1-1.195,1.195H4.585A1.2,1.2,0,0,1,3.39,64.235v-2.39A1.2,1.2,0,0,1,4.585,60.65H5.78v2.39H8.17V60.65h2.39v2.39h2.39V60.65h2.39v2.39h2.39V60.65h1.195a1.2,1.2,0,0,1,1.195,1.195Zm0-7.17a1.2,1.2,0,0,1-1.195,1.195H4.585A1.2,1.2,0,0,1,3.39,57.066v-2.39a1.2,1.2,0,0,1,1.195-1.195H5.78v2.39H8.17v-2.39h2.39v2.39h2.39v-2.39h2.39v2.39h2.39v-2.39h1.195a1.2,1.2,0,0,1,1.195,1.195ZM34.458,71.4A1.2,1.2,0,0,1,33.263,72.6H22.289a3.544,3.544,0,0,0,.22-1.195v-2.39a3.544,3.544,0,0,0-.22-1.195H24.9v2.39h2.39V67.82h2.39v2.39h2.39V67.82h1.195a1.2,1.2,0,0,1,1.195,1.195Zm0-7.17a1.2,1.2,0,0,1-1.195,1.195H22.289a3.544,3.544,0,0,0,.22-1.195v-2.39a3.544,3.544,0,0,0-.22-1.195H24.9v2.39h2.39V60.65h2.39v2.39h2.39V60.65h1.195a1.2,1.2,0,0,1,1.195,1.195Zm0-7.17a1.2,1.2,0,0,1-1.195,1.195H22.289a3.544,3.544,0,0,0,.22-1.195v-2.39a3.544,3.544,0,0,0-.22-1.195H24.9v2.39h2.39v-2.39h2.39v2.39h2.39v-2.39h1.195a1.2,1.2,0,0,1,1.195,1.195Zm0-7.17a1.2,1.2,0,0,1-1.195,1.195H18.924A1.2,1.2,0,0,1,17.729,49.9v-2.39a1.2,1.2,0,0,1,1.195-1.195h1.195V48.7h2.39v-2.39H24.9V48.7h2.39v-2.39h2.39V48.7h2.39v-2.39h1.195a1.2,1.2,0,0,1,1.195,1.195Zm0-7.17a1.2,1.2,0,0,1-1.195,1.195H18.924a1.2,1.2,0,0,1-1.195-1.195v-2.39a1.2,1.2,0,0,1,1.195-1.195h1.195v2.39h2.39v-2.39H24.9v2.39h2.39v-2.39h2.39v2.39h2.39v-2.39h1.195a1.2,1.2,0,0,1,1.195,1.195ZM54.772,3.294A13.144,13.144,0,1,1,41.628,16.438,13.16,13.16,0,0,1,54.772,3.294Zm11.183,23.9h1.961v7.17H41.628v-7.17h1.961a15.473,15.473,0,0,0,22.367,0ZM72.7,69.015A3.589,3.589,0,0,1,69.111,72.6H40.433a3.589,3.589,0,0,1-3.585-3.585V26a3.589,3.589,0,0,1,3.585-3.585h0A15.369,15.369,0,0,0,41.7,24.8h-.075a2.392,2.392,0,0,0-2.39,2.39v7.17a2.392,2.392,0,0,0,2.39,2.39H67.916a2.392,2.392,0,0,0,2.39-2.39v-7.17a2.392,2.392,0,0,0-2.39-2.39h-.075a15.369,15.369,0,0,0,1.267-2.39h0A3.589,3.589,0,0,1,72.7,26Z" transform="translate(-1 -0.904)"/><path d="M45.78,24.023v2.39h2.39v-2.39a4.78,4.78,0,0,0,0-9.559H45.78a2.39,2.39,0,1,1,0-4.78h2.39a2.392,2.392,0,0,1,2.39,2.39h2.39a4.785,4.785,0,0,0-4.78-4.78V4.9H45.78v2.39a4.78,4.78,0,1,0,0,9.559h2.39a2.39,2.39,0,1,1,0,4.78H45.78a2.392,2.392,0,0,1-2.39-2.39V18.048H41v1.195A4.785,4.785,0,0,0,45.78,24.023Z" transform="translate(6.797 -0.124)"/></g></g></g></g></g></svg>