<svg xmlns="http://www.w3.org/2000/svg" width="124.947" height="83.24" viewBox="0 0 124.947 83.24"><g transform="translate(0 -85.453)"><g transform="translate(1.829 92.842)"><path d="M152.858,189.755H71.277a2.476,2.476,0,0,1-2.468-2.282l-5.625-71.737h86.547l5.6,71.35a2.476,2.476,0,0,1-2.468,2.669Z" transform="translate(-49.594 -115.735)" fill="#31a7fb"/><path d="M155.246,186.057H83.126a7.45,7.45,0,0,1-7.16-5.452L65.223,141.7l-2.037-25.971h86.546Z" transform="translate(-49.595 -115.732)" fill="#1c96f9"/><path d="M27.713,189.272,16.681,182.8l-7.022-.89a2.476,2.476,0,0,1-2.109-2.975l13.535-63.2Z" transform="translate(-7.494 -115.734)" fill="#1785f8"/><path d="M49.544,115.735l6.629,73.537L45.141,182.8Z" transform="translate(-35.954 -115.734)" fill="#1576f7"/><g transform="translate(13.59 0)"><path d="M170.789,177.972,154.1,117.553a2.476,2.476,0,0,0-2.386-1.817H63.184l17.553,63.555a2.476,2.476,0,0,0,2.386,1.817H168.4A2.476,2.476,0,0,0,170.789,177.972Z" transform="translate(-63.184 -115.735)" fill="#eaf6ff"/><path d="M414.551,181.105H405.48a2.477,2.477,0,0,0,2.387-3.137L391.18,117.549a2.478,2.478,0,0,0-2.387-1.817h9.071a2.478,2.478,0,0,1,2.387,1.817l16.687,60.419A2.477,2.477,0,0,1,414.551,181.105Z" transform="translate(-309.332 -115.732)" fill="#d9ecfd"/><path d="M158.072,131.924,154.1,117.552a2.476,2.476,0,0,0-2.386-1.817H63.184l4.471,16.189Z" transform="translate(-63.184 -115.734)" fill="#f14141"/><path d="M391.18,117.549l3.969,14.372h9.071l-3.97-14.372a2.478,2.478,0,0,0-2.387-1.817h-9.071A2.478,2.478,0,0,1,391.18,117.549Z" transform="translate(-309.332 -115.732)" fill="#fb3a82"/></g></g><path d="M151.793,229.039l-3.152-9.827a2.476,2.476,0,0,0-2.357-1.72h-7.256a2.476,2.476,0,0,0-2.357,3.232l3.152,9.827a2.476,2.476,0,0,0,2.357,1.72h7.256a2.476,2.476,0,0,0,2.357-3.232Z" transform="translate(-103.227 -99.817)" fill="#31a7fb"/><g transform="translate(0 85.453)"><path d="M124.789,154.592l-16.1-58.3A7.385,7.385,0,0,0,96.6,87.982a7.374,7.374,0,0,0-11.118,0,7.374,7.374,0,0,0-11.118,0,7.374,7.374,0,0,0-11.118,0,7.374,7.374,0,0,0-11.118,0,7.374,7.374,0,0,0-11.118,0,7.374,7.374,0,0,0-11.118,0,7.383,7.383,0,0,0-12.728,3.07H15.8a1.831,1.831,0,0,0-2.173,1.407L3.89,137.944a1.83,1.83,0,1,0,3.579.766L11.947,117.8l-2.63,40.049L4.225,157.2a.646.646,0,0,1-.55-.776l1.96-9.152a1.83,1.83,0,1,0-3.579-.766L.1,155.661a4.307,4.307,0,0,0,3.669,5.174l6.65.843,10.708,6.281.019.009a4.269,4.269,0,0,0,2.373.725h81.58a4.306,4.306,0,0,0,4.293-4.643l-.314-4.005h11.566a4.306,4.306,0,0,0,4.151-5.452ZM17.824,94.673h9.748a3.73,3.73,0,0,1-3.245,1.9,1.83,1.83,0,0,0,0,3.661,7.4,7.4,0,0,0,7.16-5.558h7.2a3.73,3.73,0,0,1-3.245,1.9,1.83,1.83,0,0,0,0,3.661,7.4,7.4,0,0,0,7.16-5.558h7.2a3.73,3.73,0,0,1-3.245,1.9,1.83,1.83,0,0,0,0,3.661,7.4,7.4,0,0,0,7.16-5.558h7.2a3.73,3.73,0,0,1-3.245,1.9,1.83,1.83,0,1,0,0,3.661,7.4,7.4,0,0,0,7.16-5.558h7.2a3.73,3.73,0,0,1-3.245,1.9,1.83,1.83,0,0,0,0,3.661,7.4,7.4,0,0,0,7.16-5.558h7.2a3.73,3.73,0,0,1-3.245,1.9,1.83,1.83,0,0,0,0,3.661,7.4,7.4,0,0,0,7.16-5.558h7.2a3.73,3.73,0,0,1-3.245,1.9,1.83,1.83,0,1,0,0,3.661,7.4,7.4,0,0,0,7.16-5.558h5.753a.647.647,0,0,1,.622.474l.117.423a3.711,3.711,0,0,1-2.534,1,1.83,1.83,0,1,0,0,3.661,7.345,7.345,0,0,0,3.567-.921l2.179,7.89H21.284Zm84.333-5.56a3.732,3.732,0,0,1,3.406,2.217,4.275,4.275,0,0,0-1.611-.318l-5.042,0A3.73,3.73,0,0,1,102.157,89.113Zm-11.119,0a3.73,3.73,0,0,1,3.248,1.9l-6.5,0A3.73,3.73,0,0,1,91.038,89.113Zm-11.118,0a3.73,3.73,0,0,1,3.252,1.909l-6.5,0A3.73,3.73,0,0,1,79.92,89.113Zm-11.119,0a3.73,3.73,0,0,1,3.254,1.914l-6.511,0A3.731,3.731,0,0,1,68.8,89.113Zm-11.118,0a3.73,3.73,0,0,1,3.258,1.919l-6.517,0A3.731,3.731,0,0,1,57.683,89.113Zm-11.119,0a3.73,3.73,0,0,1,3.261,1.924l-6.523,0A3.731,3.731,0,0,1,46.564,89.113Zm-11.118,0a3.731,3.731,0,0,1,3.264,1.929l-6.53,0A3.731,3.731,0,0,1,35.446,89.113Zm-11.119,0a3.731,3.731,0,0,1,3.267,1.935l-6.536,0A3.731,3.731,0,0,1,24.327,89.113Zm-8.746,29.2,3.465,44.18-6.129-3.6Zm105.571,37.812a.634.634,0,0,1-.514.255H95.912a1.83,1.83,0,1,0,0,3.661H105.4l.337,4.292a.646.646,0,0,1-.644.7H23.513a.649.649,0,0,1-.644-.595l-4.133-52.711,6.246,22.614a1.83,1.83,0,0,0,3.529-.975l-6.215-22.5h86.619l12.347,44.7A.634.634,0,0,1,121.152,156.129Z" transform="translate(0 -85.453)"/><path d="M171.558,326.829H119.772a.647.647,0,0,1-.622-.474l-3.892-14.091a1.83,1.83,0,0,0-3.529.975l3.892,14.091a4.318,4.318,0,0,0,4.151,3.16h51.786a1.83,1.83,0,0,0,0-3.661Z" transform="translate(-84.413 -255.898)"/><path d="M132.4,225.441a4.293,4.293,0,0,0,4.1,2.991h7.256a4.306,4.306,0,0,0,4.1-5.621l-3.152-9.827a4.293,4.293,0,0,0-4.1-2.991h-7.256a4.306,4.306,0,0,0-4.1,5.621Zm.427-11.522a.633.633,0,0,1,.521-.265h7.256a.644.644,0,0,1,.615.449l3.152,9.827a.645.645,0,0,1-.615.842H136.5a.644.644,0,0,1-.615-.448l-3.152-9.827A.633.633,0,0,1,132.829,213.919Z" transform="translate(-97.55 -179.601)"/><path d="M218.523,216.7H221.9a1.83,1.83,0,0,0,0-3.661h-3.379a1.83,1.83,0,1,0,0,3.661Z" transform="translate(-163.812 -181.902)"/><path d="M265.343,216.7h3.379a1.83,1.83,0,0,0,0-3.661h-3.379a1.83,1.83,0,0,0,0,3.661Z" transform="translate(-199.206 -181.902)"/><path d="M312.162,216.7h3.379a1.83,1.83,0,0,0,0-3.661h-3.379a1.83,1.83,0,0,0,0,3.661Z" transform="translate(-234.6 -181.902)"/><path d="M358.981,216.7h3.379a1.83,1.83,0,1,0,0-3.661h-3.379a1.83,1.83,0,1,0,0,3.661Z" transform="translate(-269.993 -181.902)"/><path d="M405.8,216.7h3.379a1.83,1.83,0,0,0,0-3.661H405.8a1.83,1.83,0,0,0,0,3.661Z" transform="translate(-305.387 -181.902)"/><path d="M226.66,255.755a1.83,1.83,0,0,0,1.83,1.83h3.379a1.83,1.83,0,1,0,0-3.661H228.49A1.83,1.83,0,0,0,226.66,255.755Z" transform="translate(-171.347 -212.812)"/><path d="M273.479,255.755a1.83,1.83,0,0,0,1.83,1.83h3.379a1.83,1.83,0,1,0,0-3.661h-3.379A1.83,1.83,0,0,0,273.479,255.755Z" transform="translate(-206.74 -212.812)"/><path d="M320.3,255.755a1.83,1.83,0,0,0,1.83,1.83h3.379a1.83,1.83,0,1,0,0-3.661h-3.379A1.83,1.83,0,0,0,320.3,255.755Z" transform="translate(-242.133 -212.812)"/><path d="M374.156,255.755a1.83,1.83,0,0,0-1.83-1.83h-3.379a1.83,1.83,0,0,0,0,3.661h3.379A1.83,1.83,0,0,0,374.156,255.755Z" transform="translate(-277.527 -212.812)"/><path d="M420.974,255.755a1.83,1.83,0,0,0-1.83-1.83h-3.379a1.83,1.83,0,1,0,0,3.661h3.379A1.83,1.83,0,0,0,420.974,255.755Z" transform="translate(-312.92 -212.812)"/><path d="M236.626,296.644a1.83,1.83,0,0,0,1.83,1.83h3.379a1.83,1.83,0,1,0,0-3.661h-3.379A1.83,1.83,0,0,0,236.626,296.644Z" transform="translate(-178.881 -243.722)"/><path d="M283.444,296.644a1.83,1.83,0,0,0,1.83,1.83h3.379a1.83,1.83,0,1,0,0-3.661h-3.379A1.83,1.83,0,0,0,283.444,296.644Z" transform="translate(-214.273 -243.722)"/><path d="M330.264,296.644a1.83,1.83,0,0,0,1.83,1.83h3.379a1.83,1.83,0,1,0,0-3.661h-3.379A1.83,1.83,0,0,0,330.264,296.644Z" transform="translate(-249.667 -243.722)"/><path d="M382.291,298.475a1.83,1.83,0,1,0,0-3.661h-3.379a1.83,1.83,0,1,0,0,3.661Z" transform="translate(-285.06 -243.722)"/><path d="M429.11,298.475a1.83,1.83,0,0,0,0-3.661h-3.379a1.83,1.83,0,0,0,0,3.661Z" transform="translate(-320.454 -243.722)"/><path d="M248.757,335.7h-3.379a1.83,1.83,0,1,0,0,3.661h3.379a1.83,1.83,0,1,0,0-3.661Z" transform="translate(-184.113 -274.631)"/><path d="M295.576,335.7H292.2a1.83,1.83,0,0,0,0,3.661h3.379a1.83,1.83,0,1,0,0-3.661Z" transform="translate(-219.507 -274.631)"/><path d="M342.395,335.7h-3.379a1.83,1.83,0,1,0,0,3.661h3.379a1.83,1.83,0,0,0,0-3.661Z" transform="translate(-254.9 -274.631)"/><path d="M389.214,335.7h-3.379a1.83,1.83,0,1,0,0,3.661h3.379a1.83,1.83,0,1,0,0-3.661Z" transform="translate(-290.294 -274.631)"/><path d="M436.033,335.7h-3.379a1.83,1.83,0,0,0,0,3.661h3.379a1.83,1.83,0,0,0,0-3.661Z" transform="translate(-325.687 -274.631)"/><path d="M165.053,302.912a1.831,1.831,0,0,0-1.277,2.252l2.258,8.175a1.83,1.83,0,1,0,3.529-.975l-2.258-8.175A1.83,1.83,0,0,0,165.053,302.912Z" transform="translate(-123.759 -249.794)"/><path d="M195.2,319.661a1.831,1.831,0,0,0-1.277,2.252L195.052,326a1.83,1.83,0,1,0,3.529-.975l-1.129-4.088A1.83,1.83,0,0,0,195.2,319.661Z" transform="translate(-146.549 -262.455)"/></g></g></svg>