<svg xmlns="http://www.w3.org/2000/svg" width="108.796" height="108.796" viewBox="0 0 108.796 108.796"><g transform="translate(-1 -1)"><path d="M38,72.191V9.019h7.019V2H66.076V9.019H73.1V72.191Z" transform="translate(27.927 0.755)" fill="#e0e0e0"/><path d="M38,10H73.1V66.153H38Z" transform="translate(27.927 6.793)" fill="#c7e2fb"/><path d="M42,10h7.019V66.153H42Z" transform="translate(30.946 6.793)" fill="#ebf7fe"/><path d="M30,24H65.1V90.682H30Z" transform="translate(21.889 17.36)" fill="#4596ec"/><path d="M40,38V52.038h7.019a5.264,5.264,0,0,0,5.264-5.264V38Z" transform="translate(29.436 27.927)" fill="#6aabf0"/><path d="M30,38V52.038h7.019a5.264,5.264,0,0,0,5.264-5.264V38Z" transform="translate(21.889 27.927)" fill="#6aabf0"/><path d="M40,24V38.038h7.019a5.264,5.264,0,0,0,5.264-5.264V24Z" transform="translate(29.436 17.36)" fill="#6aabf0"/><path d="M30,34H65.1v7.019H30Z" transform="translate(21.889 24.908)" fill="#b3bec4"/><path d="M30,48H65.1v7.019H30Z" transform="translate(21.889 35.475)" fill="#b3bec4"/><path d="M4,24H42.605V90.682H4Z" transform="translate(2.264 17.36)" fill="#b3bec4"/><path d="M4,24V74.889H32.076a5.264,5.264,0,0,0,5.264-5.264V24Z" transform="translate(2.264 17.36)" fill="#c2cbd0"/><path d="M17,44H48.586V75.586H17Z" transform="translate(12.076 32.456)" fill="#b3bec4"/><path d="M17,44H48.586V68.567H17Z" transform="translate(12.076 32.456)" fill="#e0e0e0"/><path d="M17,44V65.057H41.567a3.51,3.51,0,0,0,3.51-3.51V44Z" transform="translate(12.076 32.456)" fill="#f5f5f5"/><path d="M45,42H71.322V77.1H45Z" transform="translate(33.21 30.946)" fill="#b3bec4"/><path d="M45,42V73.586H62.548a5.264,5.264,0,0,0,5.264-5.264V42Z" transform="translate(33.21 30.946)" fill="#c2cbd0"/><g transform="translate(15.038 48.379)"><path d="M9,36h7.019v7.019H9Z" transform="translate(-9 -21.962)" fill="#4596ec"/><path d="M17,36h7.019v7.019H17Z" transform="translate(-2.962 -21.962)" fill="#4596ec"/><path d="M9,28h7.019v7.019H9Z" transform="translate(-9 -28)" fill="#4596ec"/><path d="M17,28h7.019v7.019H17Z" transform="translate(-2.962 -28)" fill="#4596ec"/><path d="M9,44h7.019v7.019H9Z" transform="translate(-9 -15.924)" fill="#4596ec"/><path d="M9,52h7.019v7.019H9Z" transform="translate(-9 -9.885)" fill="#4596ec"/></g><path d="M50,10h7.019V66.153H50Z" transform="translate(36.984 6.793)" fill="#ebf7fe"/><path d="M21,48H38.548V58.529H21Z" transform="translate(15.096 35.475)" fill="#c7e2fb"/><path d="M25,48h3.51V58.529H25Z" transform="translate(18.115 35.475)" fill="#ebf7fe"/><circle cx="3.5" cy="3.5" r="3.5" transform="translate(8 22)" fill="#4596ec"/><ellipse cx="3" cy="3.5" rx="3" ry="3.5" transform="translate(35 20)" fill="#4596ec"/><circle cx="3.5" cy="3.5" r="3.5" transform="translate(52 3)" fill="#4596ec"/><circle cx="3.5" cy="3.5" r="3.5" transform="translate(22 8)" fill="#4596ec"/><path d="M30,24V38.038h7.019a5.264,5.264,0,0,0,5.264-5.264V24Z" transform="translate(21.889 17.36)" fill="#6aabf0"/><path d="M106.287,106.287V72.946a1.755,1.755,0,0,0-1.755-1.755h-1.755V9.774a1.755,1.755,0,0,0-1.755-1.755H95.758V2.755A1.755,1.755,0,0,0,94,1H72.946a1.755,1.755,0,0,0-1.755,1.755V8.019H65.927a1.755,1.755,0,0,0-1.755,1.755V39.605H51.889a1.755,1.755,0,0,0-1.755,1.755V74.7h-3.51V41.36a1.755,1.755,0,0,0-1.755-1.755H6.264A1.755,1.755,0,0,0,4.51,41.36v64.927H1v3.51H109.8v-3.51ZM58.908,99.268H30.831V78.21H58.908Zm-28.076,3.51H58.908v3.51H30.831ZM62.417,85.229H76.456v3.51H62.417ZM78.21,18.548V39.605H74.7V18.548ZM88.739,71.191V18.548h3.51V71.191Zm-3.51-31.586H81.72V18.548h3.51Zm0,3.51V57.153H71.191V43.115Zm0,17.548v3.51H53.643v-3.51Zm0,7.019v3.51H78.21a1.755,1.755,0,0,0-1.755,1.755V81.72H71.191V67.682ZM62.417,92.249H76.456v14.038H62.417ZM79.965,74.7h22.812v31.586H79.965Zm15.793-3.51V18.548h3.51V71.191ZM72.946,11.529A1.755,1.755,0,0,0,74.7,9.774V4.51H92.249V9.774A1.755,1.755,0,0,0,94,11.529h5.264v3.51H67.682v-3.51Zm-5.264,7.019h3.51V39.605h-3.51Zm0,24.567V57.153H53.643V43.115ZM53.643,67.682H67.682V81.72H62.417V76.456A1.755,1.755,0,0,0,60.663,74.7H53.643ZM8.019,43.115h35.1V74.7H29.076a1.755,1.755,0,0,0-1.755,1.755v29.831H8.019Z"/><path d="M16.774,35H9.755A1.755,1.755,0,0,0,8,36.755v7.019a1.755,1.755,0,0,0,1.755,1.755h7.019a1.755,1.755,0,0,0,1.755-1.755V36.755A1.755,1.755,0,0,0,16.774,35Zm-1.755,7.019H11.51V38.51h3.51Z" transform="translate(5.283 25.663)"/><path d="M17.755,45.529h7.019a1.755,1.755,0,0,0,1.755-1.755V36.755A1.755,1.755,0,0,0,24.774,35H17.755A1.755,1.755,0,0,0,16,36.755v7.019A1.755,1.755,0,0,0,17.755,45.529ZM19.51,38.51h3.51v3.51H19.51Z" transform="translate(11.322 25.663)"/><path d="M16.774,27H9.755A1.755,1.755,0,0,0,8,28.755v7.019a1.755,1.755,0,0,0,1.755,1.755h7.019a1.755,1.755,0,0,0,1.755-1.755V28.755A1.755,1.755,0,0,0,16.774,27Zm-1.755,7.019H11.51V30.51h3.51Z" transform="translate(5.283 19.624)"/><path d="M17.755,37.529h7.019a1.755,1.755,0,0,0,1.755-1.755V28.755A1.755,1.755,0,0,0,24.774,27H17.755A1.755,1.755,0,0,0,16,28.755v7.019A1.755,1.755,0,0,0,17.755,37.529ZM19.51,30.51h3.51v3.51H19.51Z" transform="translate(11.322 19.624)"/><path d="M16.774,43H9.755A1.755,1.755,0,0,0,8,44.755v7.019a1.755,1.755,0,0,0,1.755,1.755h7.019a1.755,1.755,0,0,0,1.755-1.755V44.755A1.755,1.755,0,0,0,16.774,43Zm-1.755,7.019H11.51V46.51h3.51Z" transform="translate(5.283 31.701)"/><path d="M16.774,51H9.755A1.755,1.755,0,0,0,8,52.755v7.019a1.755,1.755,0,0,0,1.755,1.755h7.019a1.755,1.755,0,0,0,1.755-1.755V52.755A1.755,1.755,0,0,0,16.774,51Zm-1.755,7.019H11.51V54.51h3.51Z" transform="translate(5.283 37.739)"/><path d="M48,47H63.793v3.51H48Z" transform="translate(35.475 34.72)"/><path d="M48,51H63.793v3.51H48Z" transform="translate(35.475 37.739)"/><path d="M48,55H63.793v3.51H48Z" transform="translate(35.475 40.758)"/><path d="M21.755,61.038H39.3a1.755,1.755,0,0,0,1.755-1.755V48.755A1.755,1.755,0,0,0,39.3,47H21.755A1.755,1.755,0,0,0,20,48.755V59.283A1.755,1.755,0,0,0,21.755,61.038Zm15.793-3.51H32.283V50.51h5.264ZM23.51,50.51h5.264v7.019H23.51Z" transform="translate(14.341 34.72)"/><path d="M9.264,30.831a5.264,5.264,0,0,0,5.264-5.264A5.178,5.178,0,0,0,14,23.312l7.045-7.045a5.077,5.077,0,0,0,4.51,0l5.291,5.291a5.178,5.178,0,0,0-.526,2.255,5.264,5.264,0,0,0,10.529,0,5.179,5.179,0,0,0-.526-2.255L50.879,11a5.178,5.178,0,0,0,2.255.526A5.264,5.264,0,1,0,47.87,6.264,5.178,5.178,0,0,0,48.4,8.519L37.841,19.074a5.077,5.077,0,0,0-4.51,0L28.04,13.784a5.178,5.178,0,0,0,.526-2.255,5.264,5.264,0,1,0-10.529,0,5.178,5.178,0,0,0,.526,2.255l-7.045,7.045A5.178,5.178,0,0,0,9.264,20.3a5.264,5.264,0,0,0,0,10.529ZM53.134,4.51a1.755,1.755,0,1,1-1.755,1.755A1.755,1.755,0,0,1,53.134,4.51Zm-15.793,19.3a1.755,1.755,0,1,1-1.755-1.755A1.755,1.755,0,0,1,37.341,23.812ZM23.3,9.774a1.755,1.755,0,1,1-1.755,1.755A1.755,1.755,0,0,1,23.3,9.774ZM9.264,23.812A1.755,1.755,0,1,1,7.51,25.567,1.755,1.755,0,0,1,9.264,23.812Z" transform="translate(2.264 0)"/></g></svg>