<svg xmlns="http://www.w3.org/2000/svg" width="105.944" height="105.935" viewBox="0 0 105.944 105.935"><g transform="translate(29.897 29.848)"><g transform="translate(-29.897 -29.848)"><g transform="translate(0 0)"><circle cx="43.515" cy="43.515" r="43.515" transform="translate(7.409 7.4)" fill="#ffe27a"/><path d="M51.516,263.333A43.514,43.514,0,0,1,8.039,221.577c-.023.584-.038,1.17-.038,1.76a43.515,43.515,0,1,0,87.031,0c0-.59-.015-1.176-.038-1.76a43.515,43.515,0,0,1-43.477,41.756Z" transform="translate(-0.592 -172.422)" fill="#f9cf58"/><circle cx="36.008" cy="36.008" r="36.008" transform="translate(0 50.915) rotate(-45)" fill="#f9f6f6"/><path d="M82.409,255.825a36.008,36.008,0,0,1-35.964-34.248q-.042.875-.043,1.76a36.008,36.008,0,0,0,72.015,0q0-.885-.043-1.76A36.009,36.009,0,0,1,82.409,255.825Z" transform="translate(-31.485 -172.422)" fill="#ecdaec"/><path d="M122.469,85.746,100.345,107.87A36.008,36.008,0,1,0,125.806,46.4V77.689" transform="translate(-74.882 -31.494)" fill="#ff4755"/><circle cx="4.72" cy="4.72" r="4.72" transform="translate(46.205 46.195)" fill="#ffe27a"/><path d="M211.156,224.537a4.72,4.72,0,0,1-4.379-2.96,4.72,4.72,0,1,0,8.758,0A4.719,4.719,0,0,1,211.156,224.537Z" transform="translate(-160.231 -172.422)" fill="#f9cf58"/><path d="M125.806,255.825a35.868,35.868,0,0,1-23.64-8.848l-1.821,1.821a36.008,36.008,0,0,0,61.469-25.461q0-.885-.043-1.76A36.008,36.008,0,0,1,125.806,255.825Z" transform="translate(-74.882 -172.422)" fill="#fc2b3a"/></g><path d="M282.656,254.054l-4.518-.679a21.078,21.078,0,0,0-3.323-8.018l2.716-3.676a1.617,1.617,0,0,0-.157-2.1l-2.339-2.339a1.617,1.617,0,0,0-2.1-.157l-3.676,2.716a21.079,21.079,0,0,0-8.019-3.323l-.679-4.518a1.617,1.617,0,0,0-1.6-1.376h-3.307a1.617,1.617,0,0,0-1.6,1.376l-.679,4.518a21.077,21.077,0,0,0-8.019,3.323l-3.677-2.716a1.617,1.617,0,0,0-2.1.157l-2.339,2.338a1.616,1.616,0,0,0-.157,2.1l2.716,3.676a21.08,21.08,0,0,0-3.323,8.019l-4.518.679a1.617,1.617,0,0,0-1.376,1.6v3.307a1.617,1.617,0,0,0,1.376,1.6l4.518.679a21.08,21.08,0,0,0,3.323,8.019l-2.716,3.676a1.617,1.617,0,0,0,.157,2.1l2.339,2.339a1.617,1.617,0,0,0,2.1.157l3.677-2.716a21.078,21.078,0,0,0,8.019,3.323l.679,4.518a1.617,1.617,0,0,0,1.6,1.376h3.308a1.617,1.617,0,0,0,1.6-1.376l.679-4.518a21.079,21.079,0,0,0,8.019-3.323l3.676,2.716a1.617,1.617,0,0,0,2.1-.157l2.339-2.339a1.617,1.617,0,0,0,.157-2.1l-2.716-3.676a21.079,21.079,0,0,0,3.323-8.019l4.518-.679a1.617,1.617,0,0,0,1.376-1.6v-3.307A1.617,1.617,0,0,0,282.656,254.054ZM257.3,270.847a13.541,13.541,0,1,1,13.541-13.541A13.541,13.541,0,0,1,257.3,270.847Z" transform="translate(-179.652 -179.663)" fill="#4a80aa"/><circle cx="13.541" cy="13.541" r="13.541" transform="translate(64.111 64.101)" fill="#ffe27a"/><path d="M311.568,391.589a13.522,13.522,0,0,0,13.424-15.3,13.538,13.538,0,0,1-26.847,0,13.522,13.522,0,0,0,13.423,15.3Z" transform="translate(-233.916 -296.886)" fill="#407093"/><path d="M311.567,370.07a13.541,13.541,0,0,1-13.424-11.782,13.541,13.541,0,1,0,26.848,0A13.541,13.541,0,0,1,311.567,370.07Z" transform="translate(-233.915 -282.405)" fill="#f9cf58"/></g><g transform="translate(-24.052 -24.012)"><path d="M305.63,290.593a15.037,15.037,0,1,0,5.512,29.031,1.469,1.469,0,0,0-1.077-2.734,12.113,12.113,0,1,1,4.348-2.939,1.469,1.469,0,0,0,2.133,2.022,15.037,15.037,0,0,0-10.915-25.38Z" transform="translate(-233.78 -233.78)"/><path d="M97.47,67.138l-3.52-.529a22.417,22.417,0,0,0-2.768-6.68L93.3,57.066a3.07,3.07,0,0,0-.3-4.02L90.654,50.7a3.121,3.121,0,0,0-.8-.577,45.511,45.511,0,0,0,.285-5.056A45.071,45.071,0,0,0,16.025,10.606a1.469,1.469,0,1,0,1.895,2.246A42.132,42.132,0,0,1,87.2,45.07a42.6,42.6,0,0,1-.318,5.167c-.085.051-.168.106-.249.166L83.77,52.518q-.839-.519-1.715-.959a37.874,37.874,0,0,0,.562-6.49,37.377,37.377,0,0,0-6.276-20.789A1.469,1.469,0,1,0,73.9,25.91a34.449,34.449,0,0,1,5.783,19.16,34.968,34.968,0,0,1-.407,5.316,22.518,22.518,0,0,0-2.181-.636l-.529-3.52a3.07,3.07,0,0,0-3.055-2.63H70.193a3.071,3.071,0,0,0-3.055,2.63l-.529,3.519a22.414,22.414,0,0,0-6.68,2.768L57.066,50.4a3.071,3.071,0,0,0-4.02.3L50.7,53.046a3.07,3.07,0,0,0-.3,4.02l2.116,2.864a22.412,22.412,0,0,0-2.768,6.68l-3.52.529a3.071,3.071,0,0,0-2.63,3.055v3.314a3.07,3.07,0,0,0,2.63,3.055l3.52.529a22.518,22.518,0,0,0,.636,2.181,34.967,34.967,0,0,1-5.316.407,34.476,34.476,0,0,1-23.4-9.133L41.852,50.365a6.2,6.2,0,1,0,4.687-11.316V10.494A34.485,34.485,0,0,1,70.4,21.486a1.469,1.469,0,0,0,2.15-2,37.547,37.547,0,1,0-27.48,63.134,37.87,37.87,0,0,0,6.49-.562q.441.875.959,1.715L50.4,86.634c-.06.081-.115.164-.166.249a42.61,42.61,0,0,1-5.167.317A42.131,42.131,0,0,1,13.828,16.8,1.469,1.469,0,0,0,11.65,14.83,45.07,45.07,0,0,0,45.07,90.139a45.513,45.513,0,0,0,5.056-.285,3.119,3.119,0,0,0,.577.8L53.046,93a3.071,3.071,0,0,0,4.02.3l2.864-2.116a22.414,22.414,0,0,0,6.68,2.768l.529,3.52a3.071,3.071,0,0,0,3.055,2.63h3.314a3.07,3.07,0,0,0,3.055-2.63l.529-3.52a22.409,22.409,0,0,0,6.679-2.768L86.634,93.3a3.07,3.07,0,0,0,4.02-.3L93,90.654a3.071,3.071,0,0,0,.3-4.02L91.182,83.77a22.41,22.41,0,0,0,2.768-6.679l3.52-.529a3.07,3.07,0,0,0,2.63-3.055V70.193a3.07,3.07,0,0,0-2.629-3.055ZM48.329,45.07a3.26,3.26,0,1,1-3.26-3.26A3.263,3.263,0,0,1,48.329,45.07ZM10.494,46.539h5.321a1.469,1.469,0,0,0,0-2.938H10.494a34.477,34.477,0,0,1,9.1-21.93l3.752,3.752a1.469,1.469,0,0,0,2.078-2.078l-3.752-3.752a34.476,34.476,0,0,1,21.929-9.1V39.049a6.194,6.194,0,0,0-3.826,9.238L19.593,68.468a34.477,34.477,0,0,1-9.1-21.929ZM97.161,73.507a.15.15,0,0,1-.128.149l-4.527.681a1.469,1.469,0,0,0-1.225,1.182,19.55,19.55,0,0,1-3.1,7.476,1.469,1.469,0,0,0,.031,1.7l2.721,3.684a.15.15,0,0,1-.015.2l-2.343,2.343a.149.149,0,0,1-.2.014L84.7,88.212a1.47,1.47,0,0,0-1.7-.031,19.546,19.546,0,0,1-7.476,3.1A1.469,1.469,0,0,0,74.337,92.5l-.681,4.527a.15.15,0,0,1-.149.128H70.194a.149.149,0,0,1-.149-.128l-.68-4.527a1.469,1.469,0,0,0-1.182-1.226,19.552,19.552,0,0,1-7.476-3.1,1.469,1.469,0,0,0-1.7.031L55.32,90.933a.152.152,0,0,1-.2-.014l-2.343-2.344a.15.15,0,0,1-.015-.2L55.488,84.7a1.469,1.469,0,0,0,.031-1.7,19.551,19.551,0,0,1-3.1-7.476A1.469,1.469,0,0,0,51.2,74.336l-4.527-.681a.152.152,0,0,1-.128-.149V70.193a.15.15,0,0,1,.128-.149l4.527-.68a1.469,1.469,0,0,0,1.226-1.182,19.55,19.55,0,0,1,3.1-7.476,1.469,1.469,0,0,0-.031-1.7L52.767,55.32a.151.151,0,0,1,.015-.2l2.343-2.343a.151.151,0,0,1,.2-.015L59,55.487a1.469,1.469,0,0,0,1.7.031,19.55,19.55,0,0,1,7.476-3.1,1.469,1.469,0,0,0,1.182-1.226l.68-4.527a.15.15,0,0,1,.149-.128h3.314a.15.15,0,0,1,.149.128l.681,4.527a1.469,1.469,0,0,0,1.182,1.225,19.551,19.551,0,0,1,7.476,3.1,1.469,1.469,0,0,0,1.7-.031l3.684-2.721a.15.15,0,0,1,.2.015l2.343,2.343a.151.151,0,0,1,.014.2L88.213,59a1.469,1.469,0,0,0-.031,1.7,19.549,19.549,0,0,1,3.1,7.476,1.469,1.469,0,0,0,1.226,1.182l4.527.68a.15.15,0,0,1,.128.149v3.314Z" transform="translate(0)"/><path d="M344.919,343.355l-5.488,5.628-2.382-2.316A1.469,1.469,0,1,0,335,348.773l3.434,3.339a1.469,1.469,0,0,0,2.076-.028l6.513-6.678a1.469,1.469,0,0,0-2.1-2.051Z" transform="translate(-269.147 -275.87)"/></g></g></svg>