<svg xmlns="http://www.w3.org/2000/svg" xmlns:xlink="http://www.w3.org/1999/xlink" width="295" height="251.81" viewBox="0 0 295 251.81"><defs><clipPath id="a"><rect width="295" height="251.81" fill="none"/></clipPath><clipPath id="c"><rect width="10.859" height="16.937" fill="none"/></clipPath><clipPath id="d"><rect width="23.213" height="12.862" fill="none"/></clipPath></defs><g transform="translate(-285 -6203.092)"><g transform="translate(285 6203.092)"><g clip-path="url(#a)"><g clip-path="url(#a)"><path d="M329.432,322.776c0,.412-.142,12.944-.142,12.944h-3.8v2.473h3.8v15.249h71.105V339.566h-5.267v-3.023h5.267v-4.533h2.341V329.95h-2.78l.142-7.174Z" transform="translate(-107.781 -106.884)" fill="#f5f5f5"/><path d="M409.392,322.842l-.142,30.345h18.883V339.312h-5.267v-2.768l5.267.094V332.1l2.386,0-.045-2.342-2.78-.068.141-6.921Z" transform="translate(-135.519 -106.884)" fill="#e0e0e0"/><path d="M382.808,345.21c0,.139-12.867.252-28.735.252s-28.738-.113-28.738-.252,12.864-.253,28.738-.253,28.735.114,28.735.253" transform="translate(-107.732 -114.229)" fill="#e0e0e0"/><path d="M382.808,341.75c0,.14-12.867.253-28.735.253s-28.738-.113-28.738-.253,12.864-.252,28.738-.252,28.735.113,28.735.252" transform="translate(-107.732 -113.084)" fill="#e0e0e0"/><path d="M388.326,332.438c0,.14-12.867.253-28.735.253s-28.738-.113-28.738-.253,12.864-.252,28.738-.252,28.735.113,28.735.252" transform="translate(-109.559 -110)" fill="#e0e0e0"/><path d="M388.857,357.814c0,.14-12.867.253-28.735.253s-28.738-.113-28.738-.253,12.864-.252,28.738-.252,28.735.113,28.735.252" transform="translate(-109.735 -118.403)" fill="#e0e0e0"/><path d="M332.221,15.045A17.617,17.617,0,1,1,312.259.186a17.6,17.6,0,0,1,19.961,14.859" transform="translate(-98.405 0)" fill="#f5f5f5"/><path d="M330.149,17.718A13.425,13.425,0,1,1,314.937,6.394a13.41,13.41,0,0,1,15.212,11.324" transform="translate(-100.48 -2.07)" fill="#ebebeb"/><path d="M329.964,17.05a7.894,7.894,0,0,1-.583-1.546,14.241,14.241,0,0,0-2.124-3.849,13.717,13.717,0,0,0-2.11-2.159,13.487,13.487,0,0,0-2.934-1.813,13.131,13.131,0,0,0-3.65-1.05,13,13,0,0,0-2.008-.118,13.139,13.139,0,0,0-4.067.722,13.113,13.113,0,0,0-1.845.8,13.112,13.112,0,0,0-3.065,2.243,13.422,13.422,0,0,0-2.13,2.712,13.751,13.751,0,0,0-1.237,2.753,14.257,14.257,0,0,0-.668,4.344,7.838,7.838,0,0,1-.015,1.653,3.952,3.952,0,0,1-.385-1.631,12.422,12.422,0,0,1,.37-4.57,13.453,13.453,0,0,1,3.394-5.929,13.037,13.037,0,0,1,1.5-1.326,13.176,13.176,0,0,1,1.759-1.136,13.677,13.677,0,0,1,1.985-.88,13.78,13.78,0,0,1,4.387-.779,13.78,13.78,0,0,1,2.166.142,13.735,13.735,0,0,1,3.91,1.189,13.461,13.461,0,0,1,5.228,4.4,12.435,12.435,0,0,1,1.922,4.163,3.935,3.935,0,0,1,.2,1.663" transform="translate(-100.359 -1.819)" fill="#e0e0e0"/><path d="M323.212,29.351l.37,2.309-2.061.33-.36-2.247a9.9,9.9,0,0,1-5.4-.827l.731-2.7a8.435,8.435,0,0,0,4.234.824l-.551-3.443c-2.378-.19-5.056-.544-5.528-3.492-.35-2.185.937-4.315,4.135-5.208l-.367-2.289,2.062-.33.36,2.248a9.428,9.428,0,0,1,4.386.587l-.624,2.7a8.555,8.555,0,0,0-3.326-.567l.561,3.5c2.374.169,5.012.53,5.477,3.437.343,2.144-.927,4.251-4.1,5.161m-3.52-8.783-.47-2.928c-1.053.422-1.39,1.09-1.281,1.77.116.721.8,1.014,1.75,1.157m4.342,4.4c-.116-.722-.776-1.017-1.712-1.185l.455,2.845c.995-.392,1.362-1,1.257-1.66" transform="translate(-104.174 -4.066)" fill="#e0e0e0"/><path d="M345.634,127.126a11.119,11.119,0,1,1-12.6-9.379,11.108,11.108,0,0,1,12.6,9.379" transform="translate(-107.127 -38.952)" fill="#f5f5f5"/><path d="M344.326,128.813a8.474,8.474,0,1,1-9.6-7.147,8.464,8.464,0,0,1,9.6,7.147" transform="translate(-108.437 -40.259)" fill="#ebebeb"/><path d="M344.21,128.392a4.981,4.981,0,0,1-.368-.977,9.023,9.023,0,0,0-1.341-2.429,8.672,8.672,0,0,0-1.332-1.362,8.487,8.487,0,0,0-1.851-1.144,7.9,7.9,0,0,0-1.1-.409,7.994,7.994,0,0,0-1.2-.255,8.259,8.259,0,0,0-1.267-.074,8.263,8.263,0,0,0-2.568.455,8.257,8.257,0,0,0-1.164.506,8.31,8.31,0,0,0-1.935,1.415,8.505,8.505,0,0,0-1.344,1.712,8.671,8.671,0,0,0-.781,1.738,9,9,0,0,0-.422,2.742,4.885,4.885,0,0,1-.009,1.043,2.5,2.5,0,0,1-.243-1.029,7.836,7.836,0,0,1,.233-2.884,8.487,8.487,0,0,1,2.142-3.742,8.211,8.211,0,0,1,.948-.837,8.326,8.326,0,0,1,1.11-.717,8.629,8.629,0,0,1,1.253-.554,8.645,8.645,0,0,1,2.769-.492,8.709,8.709,0,0,1,1.368.09,8.335,8.335,0,0,1,1.288.291,8.244,8.244,0,0,1,1.179.46,8.493,8.493,0,0,1,3.3,2.776,7.854,7.854,0,0,1,1.213,2.627,2.486,2.486,0,0,1,.126,1.051" transform="translate(-108.361 -40.1)" fill="#e0e0e0"/><path d="M339.948,136.155l.233,1.457-1.3.208-.227-1.418a6.249,6.249,0,0,1-3.406-.522l.461-1.7a5.33,5.33,0,0,0,2.673.52l-.348-2.174c-1.5-.119-3.191-.342-3.489-2.2-.221-1.379.591-2.724,2.61-3.287l-.231-1.445,1.3-.209.227,1.419a5.955,5.955,0,0,1,2.768.371l-.394,1.7a5.386,5.386,0,0,0-2.1-.359l.354,2.213c1.5.107,3.163.334,3.457,2.169.217,1.353-.585,2.683-2.588,3.257m-2.222-5.544-.3-1.848c-.665.267-.878.688-.809,1.118.073.455.5.64,1.1.73m2.74,2.778c-.073-.455-.49-.642-1.081-.748l.288,1.8c.628-.247.859-.631.793-1.047" transform="translate(-110.769 -41.518)" fill="#e0e0e0"/><path d="M104.775,120.207a16.187,16.187,0,1,1-18.341-13.653,16.17,16.17,0,0,1,18.341,13.653" transform="translate(-24.03 -35.228)" fill="#f5f5f5"/><path d="M102.871,122.663a12.336,12.336,0,1,1-13.977-10.405,12.322,12.322,0,0,1,13.977,10.405" transform="translate(-25.937 -37.13)" fill="#ebebeb"/><path d="M102.7,122.05a7.316,7.316,0,0,1-.536-1.421,13.09,13.09,0,0,0-1.952-3.537,12.665,12.665,0,0,0-1.938-1.983,12.343,12.343,0,0,0-2.7-1.666,12.054,12.054,0,0,0-3.354-.965,12,12,0,0,0-1.845-.108,12.047,12.047,0,0,0-3.738.663,12.032,12.032,0,0,0-1.7.736,12.073,12.073,0,0,0-2.817,2.061,12.335,12.335,0,0,0-1.956,2.492,12.654,12.654,0,0,0-1.138,2.53,13.091,13.091,0,0,0-.613,3.992,7.229,7.229,0,0,1-.014,1.518,3.623,3.623,0,0,1-.353-1.5,11.4,11.4,0,0,1,.339-4.2,12.355,12.355,0,0,1,3.118-5.447A11.925,11.925,0,0,1,82.893,114a12.136,12.136,0,0,1,1.617-1.043,12.582,12.582,0,0,1,1.824-.808,12.648,12.648,0,0,1,4.031-.715,12.526,12.526,0,0,1,1.991.13,12.551,12.551,0,0,1,3.592,1.093,12.347,12.347,0,0,1,4.8,4.041,11.415,11.415,0,0,1,1.766,3.825,3.621,3.621,0,0,1,.184,1.529" transform="translate(-25.826 -36.899)" fill="#e0e0e0"/><path d="M96.5,133.351l.34,2.122-1.895.3-.33-2.065a9.087,9.087,0,0,1-4.959-.76l.671-2.478a7.754,7.754,0,0,0,3.891.757l-.507-3.164c-2.184-.174-4.645-.5-5.079-3.209-.322-2.008.861-3.965,3.8-4.785l-.336-2.1,1.894-.3.33,2.065a8.67,8.67,0,0,1,4.031.539l-.574,2.482a7.862,7.862,0,0,0-3.056-.522l.516,3.221c2.181.155,4.605.487,5.033,3.158.315,1.97-.851,3.905-3.768,4.742m-3.235-8.07-.431-2.69c-.968.388-1.278,1-1.177,1.627.106.663.732.932,1.608,1.063m3.99,4.044c-.106-.664-.713-.935-1.574-1.09l.419,2.615c.914-.36,1.252-.919,1.155-1.525" transform="translate(-29.331 -38.964)" fill="#e0e0e0"/><path d="M65.529,299.472a11.37,11.37,0,1,1-12.884-9.591,11.358,11.358,0,0,1,12.884,9.591" transform="translate(-14.208 -95.952)" fill="#f5f5f5"/><path d="M64.191,301.2a8.665,8.665,0,1,1-9.818-7.309,8.656,8.656,0,0,1,9.818,7.309" transform="translate(-15.547 -97.288)" fill="#ebebeb"/><path d="M64.072,300.767a5.14,5.14,0,0,1-.377-1,9.187,9.187,0,0,0-1.371-2.485,8.855,8.855,0,0,0-1.362-1.393,8.693,8.693,0,0,0-1.893-1.171,8.507,8.507,0,0,0-2.356-.678,8.464,8.464,0,0,0-1.3-.076,8.466,8.466,0,0,0-2.625.466,8.448,8.448,0,0,0-1.191.517,8.486,8.486,0,0,0-1.978,1.447,8.673,8.673,0,0,0-1.375,1.751,8.875,8.875,0,0,0-.8,1.777,9.192,9.192,0,0,0-.431,2.8,5.046,5.046,0,0,1-.009,1.066,2.547,2.547,0,0,1-.249-1.053A8.032,8.032,0,0,1,47,299.794a8.684,8.684,0,0,1,2.191-3.827,8.4,8.4,0,0,1,.969-.857,8.562,8.562,0,0,1,1.135-.732,8.8,8.8,0,0,1,1.282-.568,8.888,8.888,0,0,1,2.832-.5,8.779,8.779,0,0,1,1.4.092,8.468,8.468,0,0,1,1.318.3,8.349,8.349,0,0,1,1.205.47,8.682,8.682,0,0,1,3.374,2.839,8.016,8.016,0,0,1,1.241,2.687,2.547,2.547,0,0,1,.129,1.074" transform="translate(-15.469 -97.126)" fill="#e0e0e0"/><path d="M59.714,308.706l.239,1.49-1.33.213-.232-1.45a6.39,6.39,0,0,1-3.484-.534l.472-1.741a5.443,5.443,0,0,0,2.734.532l-.356-2.223c-1.534-.122-3.263-.35-3.568-2.253-.226-1.411.6-2.786,2.669-3.362l-.237-1.477,1.331-.213.232,1.451a6.085,6.085,0,0,1,2.831.379l-.4,1.743a5.531,5.531,0,0,0-2.147-.367l.363,2.263c1.532.109,3.235.342,3.535,2.218.222,1.385-.6,2.744-2.647,3.331m-2.272-5.669-.3-1.89c-.68.273-.9.7-.827,1.142.075.466.514.655,1.13.747m2.8,2.841c-.075-.466-.5-.657-1.106-.765l.294,1.837c.642-.253.88-.645.811-1.072" transform="translate(-17.932 -98.576)" fill="#e0e0e0"/><path d="M294.07,369.011c0,.193-65.835.348-147.027.348C65.821,369.36,0,369.2,0,369.011s65.821-.348,147.042-.348c81.192,0,147.027.156,147.027.348" transform="translate(0 -122.079)" fill="#263238"/><path d="M405.267,265.1a15.117,15.117,0,1,1-13.332-16.681A15.1,15.1,0,0,1,405.267,265.1" transform="translate(-124.22 -82.231)" fill="#f14141"/><g transform="translate(260.463 173.214)" opacity="0.3"><g clip-path="url(#c)"><path d="M395.5,273.909l-.2,2-1.783-.175.191-1.944a8.488,8.488,0,0,1-4.3-1.862l1.194-2.079a7.247,7.247,0,0,0,3.336,1.606l.292-2.978c-1.932-.675-4.078-1.552-3.828-4.1.186-1.89,1.718-3.378,4.566-3.422l.195-1.98,1.783.175-.191,1.944a8.1,8.1,0,0,1,3.513,1.443l-1.106,2.106a7.345,7.345,0,0,0-2.637-1.2l-.3,3.032c1.934.657,4.045,1.532,3.8,4.045-.182,1.855-1.695,3.326-4.528,3.39m-1.009-8.057.248-2.532c-.966.121-1.391.6-1.449,1.191-.062.623.44,1.015,1.2,1.341m2.645,4.6c.061-.625-.423-1.013-1.163-1.357l-.241,2.461c.911-.108,1.348-.533,1.4-1.1" transform="translate(-389.413 -258.969)"/></g></g><g transform="translate(254.497 168.313)" opacity="0.3"><g clip-path="url(#d)"><path d="M403.509,264.5a6.781,6.781,0,0,1-.147-1.411,12.235,12.235,0,0,0-.925-3.658,11.785,11.785,0,0,0-1.282-2.251,11.531,11.531,0,0,0-2.039-2.144,11.332,11.332,0,0,0-2.8-1.667,11.161,11.161,0,0,0-1.641-.534,11.243,11.243,0,0,0-3.534-.287,11.293,11.293,0,0,0-1.706.263,11.28,11.28,0,0,0-3.033,1.195,11.537,11.537,0,0,0-2.358,1.788,11.82,11.82,0,0,0-1.627,2.015,12.239,12.239,0,0,0-1.5,3.461,6.723,6.723,0,0,1-.373,1.368,3.384,3.384,0,0,1,.036-1.437,10.635,10.635,0,0,1,1.3-3.712,11.659,11.659,0,0,1,1.638-2.205,11.783,11.783,0,0,1,2.47-1.977,11.713,11.713,0,0,1,3.243-1.333,11.663,11.663,0,0,1,1.839-.3,11.816,11.816,0,0,1,3.811.309,11.753,11.753,0,0,1,1.767.59,11.281,11.281,0,0,1,1.595.827,11.151,11.151,0,0,1,1.391,1.011,11.533,11.533,0,0,1,3.381,4.789,10.662,10.662,0,0,1,.688,3.873,3.385,3.385,0,0,1-.2,1.425" transform="translate(-380.494 -251.641)"/></g></g><path d="M403.443,265.989a.93.93,0,0,1,0-.189c0-.14.011-.322.02-.552a5.961,5.961,0,0,0,0-.9,8.719,8.719,0,0,0-.106-1.215,11.343,11.343,0,0,0-.915-3.2,11.523,11.523,0,0,0-2.512-3.6,11.224,11.224,0,0,0-10.595-2.868,10.268,10.268,0,0,0-3.047,1.26,10.878,10.878,0,0,0-2.657,2.182,11.418,11.418,0,0,0-1.954,2.978,11.658,11.658,0,0,0-.813,7.2,11.426,11.426,0,0,0,1.243,3.339,10.877,10.877,0,0,0,2.1,2.72,12.364,12.364,0,0,0,1.284,1.073,12.111,12.111,0,0,0,1.407.834,11.223,11.223,0,0,0,10.968-.437,11.528,11.528,0,0,0,3.251-2.95,11.337,11.337,0,0,0,1.6-2.918,8.881,8.881,0,0,0,.374-1.161,5.816,5.816,0,0,0,.2-.872c.043-.226.078-.405.1-.542a.943.943,0,0,1,.045-.184.846.846,0,0,1-.015.188c-.019.138-.044.32-.075.548a5.612,5.612,0,0,1-.175.884,8.439,8.439,0,0,1-.352,1.179,11.2,11.2,0,0,1-1.58,2.975,11.6,11.6,0,0,1-3.273,3.029,11.417,11.417,0,0,1-11.2.5,12.446,12.446,0,0,1-1.443-.85,12.628,12.628,0,0,1-1.318-1.095,11.145,11.145,0,0,1-2.162-2.782,11.7,11.7,0,0,1-1.278-3.42,11.921,11.921,0,0,1,.833-7.38,11.68,11.68,0,0,1,2.007-3.049,11.155,11.155,0,0,1,2.726-2.23,12.755,12.755,0,0,1,1.528-.775,12.5,12.5,0,0,1,1.6-.507,11.534,11.534,0,0,1,13.32,6.663,11.224,11.224,0,0,1,.878,3.253,8.482,8.482,0,0,1,.08,1.228,5.581,5.581,0,0,1-.026.9c-.02.23-.037.412-.049.552a.864.864,0,0,1-.027.187" transform="translate(-125.945 -83.735)" fill="#263238"/><path d="M385.645,286.76a1.449,1.449,0,0,1-.449-.125,9.245,9.245,0,0,1-1.162-.508,13.169,13.169,0,0,1-5.786-5.889,9.288,9.288,0,0,1-.487-1.171,1.448,1.448,0,0,1-.117-.451c.048-.018.281.6.786,1.527a14.812,14.812,0,0,0,5.7,5.8c.919.521,1.532.766,1.514.813" transform="translate(-125.052 -92.261)" fill="#fff"/><path d="M392.563,291.916c-.024.076-.326.051-.676-.058s-.613-.258-.59-.335.326-.05.676.058.614.259.59.335" transform="translate(-129.574 -96.52)" fill="#fff"/><path d="M83.554,236.986l-3.837.735A.9.9,0,0,1,78.66,237l-.734-3.837a.9.9,0,0,1,.716-1.055l3.837-.735a.9.9,0,0,1,1.055.716l.735,3.837a.9.9,0,0,1-.716,1.056" transform="translate(-25.799 -76.612)" fill="#fff"/><path d="M271.157,307.908l3.809,40.1H182.345s2.512-42.781,5.41-42.781,83.4,2.685,83.4,2.685" transform="translate(-60.382 -101.072)" fill="#263238"/><path d="M182.067,40.547a18.008,18.008,0,0,1,2.47-6.814,8.433,8.433,0,0,1,5.908-3.875,5.575,5.575,0,0,1,5.818,3.433l1.86.155c-2.858,2.8-3.864,6.961-4.353,10.931s.379,7.4-1.2,11.081c-2.442-1.943-5.279-3.954-6.23-6.925a8.75,8.75,0,0,0,.675,6.137,8.755,8.755,0,0,1-4.987-6.05,18.477,18.477,0,0,1,.036-8.074" transform="translate(-60.134 -9.878)" fill="#263238"/><path d="M199.083,24.457c-.448-8.454,9.511-12.3,16.118-13.886s13.674.11,19.481,3.477,10.5,8.288,14.688,13.472l-4.578,1.911a3.164,3.164,0,0,1,3.693,1.244,8.46,8.46,0,0,1,1.218,3.941,63.1,63.1,0,0,1,.638,9.944c-.248,8.7-3.194,17.119-6.108,25.375-2.918-5.932-3.482-12.708-3.789-19.315-.109-2.344-.241-4.839-1.631-6.733a9.23,9.23,0,0,0-5.422-3.139c-2.086-.5-4.253-.647-6.335-1.165a17.768,17.768,0,0,1-11.075-8.369Z" transform="translate(-65.919 -3.302)" fill="#263238"/><path d="M239.037,40.775l10.094,48.411c1.717,8.232,2.556,20.676-10.583,22.8-11.539.98-16.629-9.129-18.222-16.814-.756-3.645-1.395-6.683-1.5-7.052,0,0-12.565,1.411-16-10.6-1.659-5.805-4.1-18.039-6.186-29.133a23.27,23.27,0,0,1,16.762-26.734l1.163-.317c12.739-2.685,22.136,6.635,24.467,19.444" transform="translate(-64.984 -6.91)" fill="#ffc09d"/><path d="M230.012,116.995a30.178,30.178,0,0,0,14.428-8.916s-1.429,9.847-13.752,12.039Z" transform="translate(-76.166 -35.789)" fill="#ff9b6c"/><path d="M223.478,78.411a12.719,12.719,0,0,0-3.156.277c-.486.08-.959.108-1.127-.193a2.5,2.5,0,0,1-.066-1.488q.2-1.9.417-3.982c.545-5.657.8-10.256.574-10.276s-.855,4.549-1.4,10.206q-.185,2.088-.352,3.988a2.841,2.841,0,0,0,.261,1.924,1.228,1.228,0,0,0,.966.479,3.337,3.337,0,0,0,.834-.107,12.467,12.467,0,0,0,3.05-.827" transform="translate(-72.294 -20.778)" fill="#263238"/><path d="M262.388,63.691c.181-.145,7.614-4.706,9.6,3.605s-6.772,8.587-6.842,8.353-2.754-11.958-2.754-11.958" transform="translate(-86.887 -20.634)" fill="#ffc09d"/><path d="M268.77,73.178c.031-.035.169.067.441.12a1.488,1.488,0,0,0,1.088-.235c.8-.532,1.208-2.1.891-3.61a4.921,4.921,0,0,0-.9-1.976,1.72,1.72,0,0,0-1.354-.851.757.757,0,0,0-.759.6c-.056.259.036.412,0,.437-.018.026-.211-.1-.226-.455a.945.945,0,0,1,.2-.6,1.124,1.124,0,0,1,.75-.4,2.093,2.093,0,0,1,1.82.928,5.05,5.05,0,0,1,1.055,2.2c.346,1.688-.138,3.459-1.257,4.093a1.592,1.592,0,0,1-1.376.1c-.307-.144-.4-.32-.37-.341" transform="translate(-88.727 -21.918)" fill="#ff9b6c"/><path d="M199.923,29.8c-2.716-4.653.772-8.111,4.291-12.19a13.389,13.389,0,0,1,14.716-3.585c2.619,1.049,4.818,2.912,7.252,4.339s5.382,2.432,8.06,1.541a10.1,10.1,0,0,1-10.459,4.762,25.331,25.331,0,0,0,13.843,4.516A9.18,9.18,0,0,1,225.975,30.6a25.629,25.629,0,0,0,8.756,8.778c.607.365,1.312.845,1.289,1.552s-.795,1.158-1.48,1.385a11.819,11.819,0,0,1-11.682-2.677c-3.244-3.145-5.792-6.731-8.869-10.04-1.465-1.574-5.413-3.942-7.887-3.346-2.063.5-5.766,2.261-6.217,4.335" transform="translate(-65.881 -4.354)" fill="#263238"/><path d="M226.347,22.616a2.52,2.52,0,0,1,1.5-1.434c4.321-2.019,9.658-.531,13.3,2.545s5.9,7.466,7.773,11.854c1.52,3.562,2.871,7.342,2.621,11.207l-1.4,3.542c-.435,1.044-.116,2.229-.086,3.36s-.479,2.5-1.6,2.641a2.278,2.278,0,0,1-2.023-1.245c-1.353-2.124-1.1-5-2.53-7.07-.958-1.39-2.524-2.206-3.843-3.259-2.332-1.862-3.908-4.487-5.432-7.053l-7.7-12.954a2.887,2.887,0,0,1-.591-2.135" transform="translate(-74.935 -6.708)" fill="#263238"/><path d="M199.923,29.8c-2.716-4.653.772-8.111,4.291-12.19a13.389,13.389,0,0,1,14.716-3.585c2.619,1.049,4.818,2.912,7.252,4.339s5.382,2.432,8.06,1.541a10.1,10.1,0,0,1-10.459,4.762,25.331,25.331,0,0,0,13.843,4.516A9.18,9.18,0,0,1,225.975,30.6a25.629,25.629,0,0,0,8.756,8.778c.607.365,1.312.845,1.289,1.552s-.795,1.158-1.48,1.385a11.819,11.819,0,0,1-11.682-2.677c-3.244-3.145-5.792-6.731-8.869-10.04-1.465-1.574-5.413-3.942-7.887-3.346-2.063.5-5.766,2.261-6.217,4.335" transform="translate(-65.881 -4.354)" fill="#263238"/><path d="M226.288,23.173c0-.046-.44-.014-1.211-.112a10.774,10.774,0,0,1-3.122-.985c-1.269-.577-2.663-1.494-4.32-2.381a14.117,14.117,0,0,0-2.74-1.139,8.135,8.135,0,0,0-3.206-.252,10.462,10.462,0,0,0-5.539,2.6,15.35,15.35,0,0,0-3.11,3.907,23.821,23.821,0,0,0-1.451,3.021A4.945,4.945,0,0,0,201.2,29c.094.044.715-1.6,2.161-3.992a15.863,15.863,0,0,1,3.108-3.728,10.2,10.2,0,0,1,5.281-2.439,9.619,9.619,0,0,1,5.657,1.3c1.635.845,3.073,1.743,4.392,2.289a9.692,9.692,0,0,0,3.257.847,3.157,3.157,0,0,0,1.231-.095" transform="translate(-66.624 -6.041)" fill="#455a64"/><path d="M222.285,34.946c.044-.071-1.088-.832-2.686-2.356-.811-.748-1.749-1.678-2.9-2.61a11.635,11.635,0,0,0-4.245-2.307,9.6,9.6,0,0,0-4.84-.037,9.216,9.216,0,0,0-3.526,1.783,8.647,8.647,0,0,0-1.789,1.96,2.567,2.567,0,0,0-.443.865,14.909,14.909,0,0,1,2.465-2.528,9.326,9.326,0,0,1,3.412-1.6,9.43,9.43,0,0,1,4.583.076,11.636,11.636,0,0,1,4.079,2.177c1.142.889,2.107,1.789,2.954,2.506a20.636,20.636,0,0,0,2.087,1.609,2.949,2.949,0,0,0,.851.465" transform="translate(-66.841 -9.055)" fill="#455a64"/><path d="M190.118,43.945a14.174,14.174,0,0,0,.365-1.974,12,12,0,0,1,1.7-4.4,8.061,8.061,0,0,1,3.57-2.961c1.124-.458,1.907-.466,1.9-.559a3.508,3.508,0,0,0-2.03.2,7.627,7.627,0,0,0-3.885,3.019,10.577,10.577,0,0,0-1.633,4.639,5.258,5.258,0,0,0,.009,2.031" transform="translate(-62.928 -11.255)" fill="#455a64"/><path d="M230.757,41.762a1.523,1.523,0,0,0,.372-.009,8.47,8.47,0,0,0,1.072-.164,10.51,10.51,0,0,0,3.782-1.643,5.408,5.408,0,0,0,2.033-2.189,1.684,1.684,0,0,0-.223-1.741,2.525,2.525,0,0,0-1.734-.74c-.638-.069-1.288-.025-1.932-.064A11.59,11.59,0,0,1,228.2,33.2l-.176.4a6.916,6.916,0,0,0,7.42-3.222l.173-.3-.342-.066a15.536,15.536,0,0,1-6.767-3.134l-.191.463a9.491,9.491,0,0,0,8.628-4.029l.218-.326.247-.369-.452-.037a8.927,8.927,0,0,1-4.184-1.635,30.566,30.566,0,0,1-3.446-2.89,23.841,23.841,0,0,0-3.451-2.76,18.317,18.317,0,0,0-25.358,5.466,12.657,12.657,0,0,0-1.594,3.215,28.058,28.058,0,0,1,1.766-3.1,18.811,18.811,0,0,1,7.254-6.274,17.439,17.439,0,0,1,6.409-1.726,18.522,18.522,0,0,1,7.537,1.031,19.245,19.245,0,0,1,7.083,4.534,30.628,30.628,0,0,0,3.5,2.945,9.432,9.432,0,0,0,4.437,1.727l-.205-.407-.205.306a8.987,8.987,0,0,1-8.132,3.81l-.882-.09.692.554a15.966,15.966,0,0,0,7,3.213l-.17-.365a6.467,6.467,0,0,1-6.886,3.034l-1.2-.292,1.023.69a11.928,11.928,0,0,0,6.157,2.031c.678.031,1.314-.019,1.915.039a2.209,2.209,0,0,1,1.515.6,1.36,1.36,0,0,1,.189,1.413,5.21,5.21,0,0,1-1.891,2.092,10.933,10.933,0,0,1-3.666,1.721c-.912.236-1.418.269-1.413.3" transform="translate(-65.872 -4.098)" fill="#455a64"/><path d="M206.724,75.263a1.783,1.783,0,0,0,2.043,1.421,1.706,1.706,0,0,0,1.481-1.941,1.783,1.783,0,0,0-2.041-1.422,1.706,1.706,0,0,0-1.482,1.942" transform="translate(-68.447 -24.273)" fill="#263238"/><path d="M202.692,66.132c.263.184,1.387-1.065,3.268-1.441,1.873-.4,3.45.283,3.607.011.08-.122-.225-.489-.914-.8a4.891,4.891,0,0,0-2.945-.29,4.7,4.7,0,0,0-2.544,1.431c-.488.561-.6,1.013-.472,1.094" transform="translate(-67.103 -21.028)" fill="#263238"/><path d="M231.067,71.355a1.782,1.782,0,0,0,2.043,1.42,1.7,1.7,0,0,0,1.481-1.941,1.783,1.783,0,0,0-2.041-1.421,1.707,1.707,0,0,0-1.482,1.942" transform="translate(-76.508 -22.979)" fill="#263238"/><path d="M230.376,61.185c.264.184,1.39-1.064,3.269-1.441,1.873-.4,3.449.283,3.606.011.079-.122-.223-.488-.915-.8a4.887,4.887,0,0,0-2.944-.292,4.707,4.707,0,0,0-2.544,1.432c-.486.561-.6,1.013-.473,1.093" transform="translate(-76.271 -19.39)" fill="#263238"/><path d="M235.95,50.553c-.215-.511-2.116-.167-4.377-.324-2.265-.111-4.111-.678-4.385-.2-.122.231.219.7.978,1.172a7.633,7.633,0,0,0,6.675.4c.808-.375,1.2-.805,1.109-1.048" transform="translate(-75.223 -16.505)" fill="#263238"/><path d="M200.86,57.811c.472.354,1.924-.378,3.766-.746,1.831-.421,3.463-.352,3.739-.868.116-.247-.21-.63-.969-.907a6.049,6.049,0,0,0-3.2-.126,5.95,5.95,0,0,0-2.848,1.426c-.569.562-.7,1.043-.489,1.22" transform="translate(-66.481 -18.217)" fill="#263238"/><path d="M228.581,94.126c.289.057.559-1.886,2.411-3.036s3.89-.653,3.943-.922c.043-.118-.409-.441-1.281-.585a4.883,4.883,0,0,0-3.276.66,4.255,4.255,0,0,0-1.9,2.562c-.185.8-.035,1.314.1,1.32" transform="translate(-75.631 -29.645)" fill="#263238"/><path d="M153.885,97.933c-.436.581-11.568,19.82-11.568,19.82s-10.767,20.052-12.551,25.405c-2.605,7.817-3.417,19.5,4.489,24.163,4.66,2.747,8.836,3.047,19.008-.876a62.551,62.551,0,0,0,17.514-10.579l.067-33.916-12.758,11.721,7.823-30.6Z" transform="translate(-42.367 -32.43)" fill="#ffc09d"/><path d="M159.534,87.265l4.82-9.814s11.287-20.277,11.97-21.091,4.318-9.278,4.318-9.278L185.727,41s2.385.357.87,3.444l-2.158,4.111,7.927-7.957s2.348.272,1.433,2.765a22.229,22.229,0,0,1-3.1,4.722l7.115-6.176s2.96.456,1.54,3.561c-.923,2.019-9.216,11.185-9.216,11.185s4.137-2.556,5.444-3.4,2.657-2.693,3.623-2.518,2.65,1.667.136,4.521-9.585,7.4-10.615,7.965l-1.03.565a14.594,14.594,0,0,1-2.952,4.7s-2.838,8.993-4.269,11.469a12.339,12.339,0,0,1-4.105,4.121l-3.217,12.586" transform="translate(-52.828 -13.445)" fill="#ffc09d"/><path d="M173.153,96.58s.01-.074.042-.215l.149-.631.6-2.454,2.335-9.309.009-.035.035-.021a11.866,11.866,0,0,0,5.031-6.213c1.124-2.808,2.178-5.95,3.261-9.337l.011-.033.027-.026a13.416,13.416,0,0,0,2.908-4.657l.021-.05.043-.023a33.687,33.687,0,0,0,2.951-1.772q1.471-.965,2.958-2.022c.991-.7,1.985-1.443,2.962-2.229a22.361,22.361,0,0,0,2.795-2.576,5.7,5.7,0,0,0,1.013-1.6,2,2,0,0,0-.045-1.776,1.728,1.728,0,0,0-.652-.627,1.5,1.5,0,0,0-.423-.16.8.8,0,0,0-.411.05,5.913,5.913,0,0,0-1.574,1.171,11.939,11.939,0,0,1-1.613,1.325l-1.769,1.108-3.594,2.25-1.015.636.8-.893c2.04-2.273,4.113-4.625,6.156-7.08a36.845,36.845,0,0,0,2.9-3.829,3.073,3.073,0,0,0,.421-2.215,2.111,2.111,0,0,0-1.7-1.337l.14-.04-2.027,1.76-5.088,4.416-.246-.243a25.331,25.331,0,0,0,2.682-3.827,5.523,5.523,0,0,0,.448-1.039,2.282,2.282,0,0,0,.114-1.065,1.363,1.363,0,0,0-.5-.868,2.164,2.164,0,0,0-.963-.4l.141-.049-7.931,7.953-.775.778.511-.972,2.092-3.978a4,4,0,0,0,.542-2.011,1.456,1.456,0,0,0-1.223-1.332l.146-.056-5.091,6.072.023-.037q-1.013,2.344-2.017,4.574c-.678,1.484-1.32,2.936-2.067,4.314-.862,1.3-1.587,2.615-2.331,3.887l-2.123,3.718L165.2,76.031l-.71,1.264c-.219.413-.415.828-.613,1.223l-1.106,2.228-1.75,3.514-1.094,2.174-.286.555c-.066.124-.1.185-.1.185s.024-.068.082-.2l.264-.565,1.053-2.2c.467-.962,1.039-2.146,1.712-3.534l1.088-2.239c.2-.4.388-.811.605-1.23l.7-1.271,6.984-12.524q1.023-1.807,2.111-3.726c.735-1.267,1.469-2.607,2.318-3.894.728-1.352,1.372-2.815,2.043-4.3s1.332-3.012,2-4.574l.009-.021.014-.017,5.079-6.082.06-.072.086.017a1.936,1.936,0,0,1,1.029.545,1.7,1.7,0,0,1,.468,1.074,4.3,4.3,0,0,1-.573,2.187l-2.089,3.985-.264-.195,7.923-7.961.062-.062.08.013a2.487,2.487,0,0,1,1.137.476,1.709,1.709,0,0,1,.629,1.082,2.626,2.626,0,0,1-.124,1.222,5.8,5.8,0,0,1-.473,1.1,25.493,25.493,0,0,1-2.722,3.89l-.246-.243,5.087-4.417,2.027-1.759.064-.056.076.015a3.021,3.021,0,0,1,1.205.512,2.053,2.053,0,0,1,.773,1.07,2.456,2.456,0,0,1,.007,1.3,3.3,3.3,0,0,1-.189.607,3.039,3.039,0,0,1-.268.574,36.816,36.816,0,0,1-2.936,3.883c-2.049,2.46-4.125,4.812-6.17,7.087l-.214-.257,3.592-2.244,1.768-1.1a11.565,11.565,0,0,0,1.571-1.29,6.1,6.1,0,0,1,1.688-1.235,1.121,1.121,0,0,1,.58-.062,1.815,1.815,0,0,1,.517.195,2.039,2.039,0,0,1,.774.747,2.319,2.319,0,0,1,.066,2.053,6,6,0,0,1-1.071,1.694,22.572,22.572,0,0,1-2.842,2.612c-.986.789-1.985,1.528-2.98,2.233s-1.988,1.379-2.973,2.021a33.772,33.772,0,0,1-2.976,1.776l.064-.072a18.892,18.892,0,0,1-1.292,2.593,9.587,9.587,0,0,1-1.7,2.16l.038-.059c-1.1,3.39-2.162,6.527-3.3,9.344a20.4,20.4,0,0,1-.937,2.026A10.541,10.541,0,0,1,179.4,81.55a12.709,12.709,0,0,1-2.982,2.522l.043-.056c-1.04,3.994-1.857,7.133-2.418,9.287l-.649,2.443-.172.625c-.04.14-.066.209-.066.209" transform="translate(-52.828 -13.355)" fill="#ff9b6c"/><path d="M201.224,49.858a4.65,4.65,0,0,1-.436.553c-.292.346-.722.841-1.263,1.444-1.086,1.2-2.619,2.836-4.424,4.529a49.772,49.772,0,0,1-3.992,3.392l-.013.009-.014,0a8.24,8.24,0,0,0-2.416,1.136c-.529.365-.8.617-.81.6a1.025,1.025,0,0,1,.179-.195,6.705,6.705,0,0,1,.576-.483,7.766,7.766,0,0,1,2.425-1.219l-.027.014c1.148-.895,2.526-2.071,3.953-3.411,1.8-1.687,3.346-3.3,4.457-4.477l1.31-1.4a4.6,4.6,0,0,1,.5-.5" transform="translate(-62.206 -16.51)" fill="#ff9b6c"/><path d="M201.138,49.857s-.244.288-.7.81-1.134,1.276-2.026,2.174l-3.145,3.212a51.722,51.722,0,0,1-4.237,3.725l-.181-.286.027-.014.126.315a7.777,7.777,0,0,0-1.645.715,7.091,7.091,0,0,0-1.433,1.1.131.131,0,0,0,.02-.054.175.175,0,0,0-.093-.187.165.165,0,0,0-.131-.007.086.086,0,0,0-.021.009l.014-.01.043-.033.093-.074.19-.148.389-.284a8.416,8.416,0,0,1,.813-.5,8.329,8.329,0,0,1,1.726-.7l-.056.028a64.231,64.231,0,0,0,7.479-6.812c.88-.913,1.55-1.673,2.025-2.185l.727-.8a3.708,3.708,0,0,1-.637.873c-.447.536-1.094,1.323-1.954,2.258a57.8,57.8,0,0,1-7.435,6.933l-.025.019-.032.009a8.032,8.032,0,0,0-1.653.675,8.31,8.31,0,0,0-.78.483l-.375.276-.185.144-.094.075-.052.039-.035.025a.284.284,0,0,1-.047.023.183.183,0,0,1-.138-.007.188.188,0,0,1-.053-.037.182.182,0,0,1-.044-.153.179.179,0,0,1,.027-.067,7.454,7.454,0,0,1,3.275-1.959l.126.316L191,59.8l-.181-.286a55.586,55.586,0,0,0,4.242-3.671l3.19-3.15c1.814-1.758,2.823-2.9,2.889-2.831" transform="translate(-62.12 -16.508)" fill="#ff9b6c"/><path d="M194.593,51.78a6.59,6.59,0,0,1-.747.939c-.485.561-1.175,1.317-1.955,2.133l-2.009,2.079a7.542,7.542,0,0,1-.861.835,6.489,6.489,0,0,1,.755-.933c.489-.556,1.186-1.306,1.966-2.122l2-2.089a7.4,7.4,0,0,1,.854-.842" transform="translate(-62.592 -17.146)" fill="#ff9b6c"/><path d="M194.507,51.777s-.59.7-1.592,1.792l-1.759,1.916-1.035,1.131c-.181.2-.365.394-.54.6l-.265.316-.128.16-.06.08-.025.036-.007.012,0-.011.007-.031a.171.171,0,0,0-.216-.185l-.019.007a.068.068,0,0,0-.011.006l.01-.008.034-.029.073-.068.148-.144.292-.293.568-.581,1.075-1.1c.7-.692,1.286-1.342,1.8-1.873s.934-.96,1.209-1.269.437-.469.437-.469a7.6,7.6,0,0,1-1.463,1.9c-.492.554-1.07,1.228-1.752,1.931l-1.061,1.113-.565.586-.294.3-.154.15-.082.076-.047.039-.031.024-.034.019a.121.121,0,0,1-.031.013.193.193,0,0,1-.169-.032.19.19,0,0,1-.062-.165.188.188,0,0,1,.011-.043l.017-.035.02-.034.035-.05.068-.09.134-.167.271-.32c.179-.212.365-.41.548-.6l1.055-1.123c.67-.719,1.294-1.34,1.816-1.867a9.667,9.667,0,0,1,1.77-1.621" transform="translate(-62.506 -17.144)" fill="#ff9b6c"/><path d="M192.81,68.589a35.442,35.442,0,0,0,8.535-4.152" transform="translate(-63.847 -21.338)" fill="#ffc09d"/><path d="M201.343,64.435a4.922,4.922,0,0,1-1.112.853,26.92,26.92,0,0,1-6.065,2.951,4.922,4.922,0,0,1-1.358.348c-.032-.1,1.98-.8,4.331-1.946s4.146-2.294,4.2-2.207" transform="translate(-63.847 -21.335)" fill="#ff9b6c"/><path d="M201.344,64.436a1.33,1.33,0,0,1-.292.238c-.195.143-.484.339-.847.572a29.756,29.756,0,0,1-6.056,2.947c-.408.142-.74.248-.973.313a1.313,1.313,0,0,1-.367.082,12.352,12.352,0,0,1,1.29-.531c.8-.317,1.894-.777,3.073-1.35s2.216-1.151,2.958-1.584a12.451,12.451,0,0,1,1.214-.687" transform="translate(-63.847 -21.337)" fill="#ff9b6c"/><path d="M201.258,64.432a22.076,22.076,0,0,1-2.384,1.453,26.3,26.3,0,0,1-2.7,1.393l-1.639.731c-.284.129-.575.255-.874.369l-.449.177-.225.091-.107.046-.043.021c-.011.005,0,0,.006-.007a.17.17,0,0,0,.053-.145.186.186,0,0,0-.076-.12c-.062-.032-.035-.016-.058-.025-.039-.006-.031,0-.033,0a24.873,24.873,0,0,0,3.432-1.233c1.041-.451,1.952-.916,2.706-1.327s1.346-.776,1.752-1.031.637-.39.637-.39c.031.027-.169.22-.56.5a17.812,17.812,0,0,1-1.708,1.134,27.324,27.324,0,0,1-2.7,1.407,21.876,21.876,0,0,1-3.535,1.287.212.212,0,0,1-.065,0c-.025-.009,0,.007-.065-.027a.173.173,0,0,1-.077-.125.2.2,0,0,1,.061-.158.325.325,0,0,1,.058-.039l.068-.033.118-.051.229-.092.451-.177c.3-.112.59-.236.871-.362l1.635-.707c1.06-.416,1.944-.937,2.714-1.318a21.526,21.526,0,0,1,2.5-1.237" transform="translate(-63.76 -21.333)" fill="#ff9b6c"/><path d="M317.654,137.512s10.68,5.313,14.579,23.035c2.45,11.136,6.839,29.218,6.839,29.218l-27.889,4.4s-4.388-26.4-3.88-26.938,10.351-29.714,10.351-29.714" transform="translate(-101.747 -45.536)" fill="#f14141"/><path d="M183.6,129.807l26.177-4.567s2.136,13.126,16.191,10.7c14.459-2.493,13.3-14.286,13.3-14.286s24.11,6.88,28.778,8.968a20.805,20.805,0,0,1,7.235,5.318s-8.569,33.25-8.835,33.668c-.217.34-.958,50.183-1.224,68.614a18.406,18.406,0,0,1,1.715,11.377l-81.365,1.726L182.936,167.6l-10.866,5.55-5.608-15.97,5.045-18.728Z" transform="translate(-55.122 -40.285)" fill="#f14141"/><path d="M217.82,216.215a.617.617,0,0,1,.11-.063l.333-.165,1.288-.619,4.745-2.263c4-1.916,9.515-4.6,15.554-7.662s11.464-5.926,15.375-8.024l4.629-2.491,1.26-.674.33-.171a.568.568,0,0,1,.116-.052.557.557,0,0,1-.106.07l-.32.189-1.242.708c-1.08.612-2.65,1.484-4.6,2.548-3.894,2.131-9.308,5.014-15.351,8.079s-11.566,5.727-15.586,7.611c-2.009.942-3.641,1.694-4.772,2.2l-1.3.584-.342.147a.624.624,0,0,1-.119.044" transform="translate(-72.129 -64.252)" fill="#263238"/><path d="M316.145,173.923a1.158,1.158,0,0,1-.017.28c-.025.211-.058.476-.1.8-.1.738-.243,1.754-.419,3.02-.387,2.623-.927,6.277-1.562,10.571l0-.025c.021,3.03.043,6.387.068,9.919.017,6.816.032,12.986.044,17.5-.011,2.211-.02,4.012-.027,5.3-.01.6-.019,1.078-.025,1.441a2.759,2.759,0,0,1-.033.5,2.788,2.788,0,0,1-.037-.5c-.01-.363-.023-.843-.041-1.441-.02-1.29-.049-3.091-.084-5.3-.037-4.51-.089-10.679-.146-17.5-.014-3.531-.027-6.889-.039-9.918v-.025c.686-4.287,1.269-7.934,1.687-10.552.213-1.261.385-2.271.508-3.006l.148-.8a1.136,1.136,0,0,1,.068-.272" transform="translate(-103.889 -57.593)" fill="#263238"/><path d="M187.71,153.239a6.937,6.937,0,0,1,.282,1.09c.162.706.37,1.732.6,3,.471,2.545,1.011,6.084,1.4,10.016s.531,7.511.559,10.1c.015,1.294.008,2.341-.015,3.065a7.009,7.009,0,0,1-.067,1.123,6.925,6.925,0,0,1-.069-1.123c-.024-.781-.057-1.813-.1-3.059-.091-2.582-.28-6.147-.66-10.072s-.884-7.457-1.292-10.009l-.494-3.021a6.967,6.967,0,0,1-.149-1.115" transform="translate(-62.157 -50.744)" fill="#263238"/><path d="M171.431,141.19c.092.026-1.722,6.769-4.053,15.059s-4.3,14.991-4.388,14.965,1.722-6.767,4.053-15.059,4.3-14.99,4.388-14.964" transform="translate(-53.972 -46.754)" fill="#ff9b6c"/><path d="M161.018,265.377s5.742-17.987,25.948-5.207c20.709,13.1,34.432,71.4,34.432,71.4H168.108c0-17.6-18.717-64.671-24.587-66.325Z" transform="translate(-47.526 -84.634)" fill="#e0e0e0"/><path d="M155.854,255.266l-39.306-.639s-17.188.231-17.188,22.436c0,28.759,10.077,38.579-16.684,55l43.19,3.554s20.435-1.287,20.414-25.245c-.01-10.935-.912-31.868-1.826-41.219-.665-6.813,4.827-13.418,11.4-13.883" transform="translate(-27.378 -84.317)" fill="#fff"/><path d="M155.589,255.209l-.455.068a9.656,9.656,0,0,0-1.37.27,12.239,12.239,0,0,0-4.727,2.443,14.635,14.635,0,0,0-2.6,2.894,13.2,13.2,0,0,0-1.867,4.25c-.112.4-.153.832-.234,1.259-.065.429-.066.873-.1,1.32,0,.448.034.9.05,1.367q.064.7.131,1.418.255,2.881.466,6.109c.555,8.6,1.059,18.961,1.257,30.7a48.98,48.98,0,0,1-.453,9.054,28.116,28.116,0,0,1-1.175,4.578,21.973,21.973,0,0,1-2.061,4.384,21.115,21.115,0,0,1-7.033,7.031,23.445,23.445,0,0,1-4.667,2.2,22.207,22.207,0,0,1-5.133,1.164h-.024L85.841,332.46l-3.444-.284-.52-.043.444-.279c1.956-1.231,3.9-2.465,5.723-3.829a45.726,45.726,0,0,0,5.2-4.347,28.012,28.012,0,0,0,4.22-5.135,20.728,20.728,0,0,0,2.556-5.989c1.056-4.214.818-8.548.486-12.7-.356-4.168-.839-8.242-1.134-12.231s-.463-7.889-.4-11.682c0-.95.1-1.89.167-2.823.122-.928.221-1.853.415-2.755a24.591,24.591,0,0,1,1.585-5.2,17.825,17.825,0,0,1,6.524-7.843,18.269,18.269,0,0,1,4.392-2.076,15.388,15.388,0,0,1,4.58-.793l38.956.755-38.958-.512a15.186,15.186,0,0,0-4.5.793,18.03,18.03,0,0,0-4.324,2.055,17.556,17.556,0,0,0-6.407,7.736,24.269,24.269,0,0,0-1.558,5.14c-.191.893-.287,1.81-.407,2.729-.065.926-.161,1.857-.161,2.8-.058,3.773.1,7.67.414,11.649s.785,8.051,1.146,12.229c.336,4.16.584,8.526-.486,12.81a21.065,21.065,0,0,1-2.595,6.088,28.384,28.384,0,0,1-4.269,5.2,46.1,46.1,0,0,1-5.234,4.38c-1.837,1.372-3.784,2.611-5.746,3.846l-.077-.322,3.443.284,39.746,3.278h-.024a21.918,21.918,0,0,0,5.048-1.142,23.143,23.143,0,0,0,4.605-2.169,20.8,20.8,0,0,0,6.935-6.918,21.669,21.669,0,0,0,2.039-4.322,27.886,27.886,0,0,0,1.169-4.527,48.8,48.8,0,0,0,.463-9c-.177-11.733-.655-22.1-1.181-30.692q-.2-3.224-.443-6.105-.063-.719-.125-1.417c-.014-.47-.049-.934-.044-1.389.039-.453.043-.9.11-1.339.085-.432.129-.865.244-1.274a13.289,13.289,0,0,1,1.911-4.289,14.645,14.645,0,0,1,2.645-2.9,12.13,12.13,0,0,1,4.784-2.413,7.132,7.132,0,0,1,1.359-.228l.48-.054" transform="translate(-27.113 -84.26)" fill="#263238"/><path d="M54.443,354.628s-1.1,13.3,15.463,14.1,46.607,0,46.607,0S106.08,366.847,106.08,355.5Z" transform="translate(-18.023 -117.432)" fill="#e0e0e0"/><path d="M54.432,354.625a1.807,1.807,0,0,1,.243-.007h.734l2.863.026,10.745.134,37.054.55.165,0v.166a12.8,12.8,0,0,0,10.3,13.056l1.33.311-1.356.035-.1,0c-9.673.233-18.889.346-27.271.336-4.192-.009-8.175-.041-11.9-.128-1.863-.051-3.663-.089-5.392-.171a40.871,40.871,0,0,1-4.97-.4,16.508,16.508,0,0,1-7.856-3.276,12.217,12.217,0,0,1-3.742-5.223,13.785,13.785,0,0,1-.857-3.991,10.513,10.513,0,0,1-.018-1.063,2.936,2.936,0,0,1,.031-.361s0,.121,0,.361.013.594.053,1.057a14.175,14.175,0,0,0,.914,3.948,12.146,12.146,0,0,0,3.738,5.121,16.362,16.362,0,0,0,7.773,3.184,40.746,40.746,0,0,0,4.942.374c1.727.075,3.526.106,5.388.15,3.725.075,7.706.1,11.9.1,8.379-.007,17.594-.13,27.262-.363l.1,0-.027.345a14.439,14.439,0,0,1-4.425-1.819,12.614,12.614,0,0,1-3.485-3.124A13.837,13.837,0,0,1,105.9,355.5l.165.168-36.941-.7-10.781-.229-2.9-.071-.753-.023c-.171-.007-.262-.015-.262-.015" transform="translate(-18.012 -117.428)" fill="#263238"/><path d="M154.15,279.416c0,.193-3.754.348-8.385.348s-8.385-.156-8.385-.348,3.754-.348,8.385-.348,8.385.157,8.385.348" transform="translate(-45.492 -92.411)" fill="#263238"/><path d="M119.1,279.5c0-.193,1.047-.348,2.34-.348s2.339.156,2.339.348-1.047.348-2.339.348-2.34-.156-2.34-.348" transform="translate(-39.439 -92.437)" fill="#263238"/><path d="M155.7,270.266c0,.193-3.754.348-8.385.348s-8.385-.156-8.385-.348,3.754-.348,8.385-.348,8.385.157,8.385.348" transform="translate(-46.005 -89.381)" fill="#263238"/><path d="M120.651,270.346c0-.193,1.047-.348,2.34-.348s2.34.156,2.34.348-1.047.348-2.34.348-2.34-.156-2.34-.348" transform="translate(-39.952 -89.407)" fill="#263238"/><path d="M160.747,262c0,.193-3.754.348-8.385.348s-8.385-.156-8.385-.348,3.753-.348,8.385-.348,8.385.156,8.385.348" transform="translate(-47.677 -86.644)" fill="#263238"/><path d="M125.7,262.081c0-.193,1.047-.348,2.34-.348s2.34.156,2.34.348-1.047.348-2.34.348-2.34-.157-2.34-.348" transform="translate(-41.624 -86.67)" fill="#263238"/><path d="M154.15,289.408c0,.193-3.754.348-8.385.348s-8.385-.156-8.385-.348,3.754-.348,8.385-.348,8.385.156,8.385.348" transform="translate(-45.492 -95.719)" fill="#263238"/><path d="M119.1,289.488c0-.193,1.047-.348,2.34-.348s2.339.156,2.339.348-1.047.348-2.339.348-2.34-.156-2.34-.348" transform="translate(-39.439 -95.746)" fill="#263238"/><path d="M155.415,299.206c0,.193-3.754.349-8.385.349s-8.385-.156-8.385-.349,3.754-.348,8.385-.348,8.385.157,8.385.348" transform="translate(-45.911 -98.964)" fill="#263238"/><path d="M120.366,299.286c0-.193,1.047-.348,2.34-.348s2.34.156,2.34.348-1.047.348-2.34.348-2.34-.157-2.34-.348" transform="translate(-39.858 -98.99)" fill="#263238"/><path d="M155.813,307.668c0,.193-3.754.348-8.385.348s-8.385-.156-8.385-.348,3.754-.348,8.385-.348,8.385.156,8.385.348" transform="translate(-46.043 -101.766)" fill="#263238"/><path d="M120.764,307.748c0-.193,1.047-.348,2.34-.348s2.34.156,2.34.348-1.047.348-2.34.348-2.34-.156-2.34-.348" transform="translate(-39.99 -101.792)" fill="#263238"/><path d="M156.212,316.13c0,.193-3.754.348-8.385.348s-8.385-.156-8.385-.348,3.754-.348,8.385-.348,8.385.156,8.385.348" transform="translate(-46.175 -104.568)" fill="#263238"/><path d="M121.162,316.21c0-.193,1.047-.348,2.34-.348s2.339.156,2.339.348-1.047.348-2.339.348-2.34-.156-2.34-.348" transform="translate(-40.122 -104.595)" fill="#263238"/><path d="M156.61,324.592c0,.193-3.754.348-8.385.348s-8.385-.156-8.385-.348,3.753-.349,8.385-.349,8.385.156,8.385.349" transform="translate(-46.307 -107.37)" fill="#263238"/><path d="M121.561,324.671c0-.193,1.047-.348,2.34-.348s2.339.156,2.339.348-1.047.348-2.339.348-2.34-.156-2.34-.348" transform="translate(-40.254 -107.396)" fill="#263238"/><path d="M156.754,332.819c0,.193-3.754.348-8.385.348s-8.385-.156-8.385-.348,3.753-.348,8.385-.348,8.385.156,8.385.348" transform="translate(-46.354 -110.094)" fill="#263238"/><path d="M121.705,332.9c0-.193,1.047-.348,2.34-.348s2.339.156,2.339.348-1.047.348-2.339.348-2.34-.156-2.34-.348" transform="translate(-40.301 -110.121)" fill="#263238"/><path d="M155.415,341.007c0,.193-3.754.348-8.385.348s-8.385-.156-8.385-.348,3.754-.348,8.385-.348,8.385.157,8.385.348" transform="translate(-45.911 -112.806)" fill="#263238"/><path d="M120.366,341.087c0-.193,1.047-.348,2.34-.348s2.34.156,2.34.348-1.047.348-2.34.348-2.34-.157-2.34-.348" transform="translate(-39.858 -112.832)" fill="#263238"/><path d="M152.2,349.7c0,.193-3.754.348-8.385.348s-8.385-.156-8.385-.348,3.754-.348,8.385-.348,8.385.156,8.385.348" transform="translate(-44.846 -115.685)" fill="#263238"/><path d="M117.15,349.781c0-.193,1.047-.348,2.34-.348s2.34.156,2.34.348-1.047.348-2.34.348-2.34-.156-2.34-.348" transform="translate(-38.793 -115.711)" fill="#263238"/><path d="M149.776,357.62c0,.193-3.754.348-8.385.348s-8.385-.156-8.385-.348,3.753-.349,8.385-.349,8.385.156,8.385.349" transform="translate(-44.044 -118.307)" fill="#263238"/><path d="M266.108,251.146l32.2-13.732-.092-17.012,23.052-3.653s.982,32.422-3.116,38c-5.14,7-47.39,7.854-47.39,7.854Z" transform="translate(-88.119 -71.774)" fill="#ffc09d"/><path d="M313.827,247.945a18.075,18.075,0,0,1,10.617,3.98" transform="translate(-103.921 -82.105)" fill="#ffc09d"/><path d="M324.444,251.9a22.151,22.151,0,0,0-10.617-3.98,5.846,5.846,0,0,1,1.7.025,16.4,16.4,0,0,1,7.624,2.857,5.855,5.855,0,0,1,1.3,1.1" transform="translate(-103.921 -82.084)" fill="#ff9b6c"/><path d="M239.63,268.176c-.464.155-10.963.464-14.206.772s-11.433,3.619-11.433,3.619l1.828,2.7s-1.2.735-5.373.632c-4.788-.118-10.5-.154-9.882,3.552,0,0-3.026,1.235-.045,3.552l2.825.926s.463,2.007,5.4,3.088c0,0-1.7,1.081,3.552,2.162s12.971,2.625,19.456.926,18.375-10.585,18.375-10.585l-6.176-11.341Z" transform="translate(-65.965 -88.804)" fill="#ffc09d"/><path d="M234.164,275.867a9.92,9.92,0,0,1-1.692.261c-1.045.134-2.484.34-4.061.644s-2.988.653-4.008.919a9.953,9.953,0,0,1-1.667.39,7.254,7.254,0,0,1,1.6-.626,35.27,35.27,0,0,1,8.113-1.573,7.213,7.213,0,0,1,1.716-.015" transform="translate(-73.757 -91.339)" fill="#ff9b6c"/><path d="M224.15,285.068a4.59,4.59,0,0,1-.9.177c-.583.094-1.43.2-2.479.317-2.1.228-5.011.436-8.234.461s-6.14-.146-8.241-.346c-1.051-.1-1.9-.2-2.483-.282a4.623,4.623,0,0,1-.9-.164,4.648,4.648,0,0,1,.918.029l2.488.171c2.1.136,5.008.264,8.22.243s6.115-.193,8.214-.358l2.486-.206a4.649,4.649,0,0,1,.917-.042" transform="translate(-66.529 -94.394)" fill="#ff9b6c"/><path d="M226.56,291.972a3.966,3.966,0,0,1-.832.181c-.539.1-1.324.207-2.3.318a59.923,59.923,0,0,1-15.261-.267c-.969-.145-1.748-.283-2.283-.4a4.017,4.017,0,0,1-.825-.209,3.925,3.925,0,0,1,.848.076l2.293.288c1.936.228,4.622.464,7.6.518s5.665-.092,7.609-.252l2.3-.207a3.989,3.989,0,0,1,.85-.046" transform="translate(-67.904 -96.556)" fill="#ff9b6c"/><path d="M228.139,296.62a2.014,2.014,0,0,1-.589.137c-.383.068-.94.14-1.63.209a37.645,37.645,0,0,1-10.806-.533c-.681-.136-1.228-.264-1.6-.369a2.033,2.033,0,0,1-.573-.194,19.771,19.771,0,0,1,2.217.32,50.621,50.621,0,0,0,10.745.53,20.063,20.063,0,0,1,2.238-.1" transform="translate(-70.513 -97.971)" fill="#ff9b6c"/></g></g></g></g></svg>