<svg xmlns="http://www.w3.org/2000/svg" xmlns:xlink="http://www.w3.org/1999/xlink" width="168" height="156" viewBox="0 0 168 156"><defs><filter id="a" x="0" y="0" width="168" height="156" filterUnits="userSpaceOnUse"><feOffset dy="3" input="SourceAlpha"/><feGaussianBlur stdDeviation="3" result="b"/><feFlood flood-opacity="0.161"/><feComposite operator="in" in2="b"/><feComposite in="SourceGraphic"/></filter></defs><g transform="translate(2677 8266)"><g transform="matrix(1, 0, 0, 1, -2677, -8266)" filter="url(#a)"><rect width="150" height="138" rx="17" transform="translate(9 6)" fill="#fff"/></g><g transform="translate(-2631.58 -8229.561)"><path d="M80.873,43.913A36.456,36.456,0,1,1,44.418,7.457,36.456,36.456,0,0,1,80.873,43.913Zm0,0" transform="translate(-6.337 -6.334)" fill="#ff8b00"/><path d="M249.988,7.457V80.369a36.456,36.456,0,1,0,0-72.911Zm0,0" transform="translate(-211.908 -6.334)" fill="#ed500a"/><path d="M13.622,119.9a36.459,36.459,0,1,0,61.613,39Zm0,0" transform="translate(-6.336 -101.841)" fill="#727070"/><path d="M44.426,139.4l-30.8-19.5a36.471,36.471,0,0,0,.424,39.687Zm0,0" transform="translate(-6.337 -101.842)" fill="#ffa300"/><path d="M13.622,119.9a36.532,36.532,0,0,0-4.848,27.2l35.659-7.7Zm0,0" transform="translate(-6.336 -101.841)" fill="#ffe3dc"/><path d="M13.622,119.9A36.282,36.282,0,0,0,7.961,139.42h36.5Zm0,0" transform="translate(-6.336 -101.841)" fill="#ffc50d"/><path d="M253.432,8.539a36.465,36.465,0,0,1-3.443,70.939v1.809a36.456,36.456,0,0,0,3.443-72.748Zm0,0" transform="translate(-211.909 -7.253)" fill="#db3317"/><path d="M219.192,356.563a36.449,36.449,0,0,1-32.069,19.1c-1.162,0-2.309-.057-3.443-.163a36.511,36.511,0,0,0,40.806-15.591Zm0,0" transform="translate(-155.587 -302.855)" fill="#5c5c5c"/><g transform="translate(28.489 55.284)"><path d="M199.431,475.342h-11.8a1.317,1.317,0,0,1-1.317-1.317v-3.861h14.432v3.861A1.317,1.317,0,0,1,199.431,475.342Zm0,0" transform="translate(-186.316 -454.628)" fill="#ffc50d"/><path d="M186.313,435.785h14.432v5.178H186.313Zm0,0" transform="translate(-186.313 -425.428)" fill="#ffc50d"/><path d="M186.313,401.4h14.432v5.179H186.313Zm0,0" transform="translate(-186.313 -396.224)" fill="#ffc50d"/><path d="M200.745,372.2H186.313V368.34a1.318,1.318,0,0,1,1.318-1.317h11.8a1.318,1.318,0,0,1,1.318,1.317Zm0,0" transform="translate(-186.313 -367.023)" fill="#ffc50d"/></g><path d="M196.84,470.164v2.207a1.359,1.359,0,0,1-1.359,1.359h-9.169v.128a1.486,1.486,0,0,0,1.486,1.486H199.26a1.485,1.485,0,0,0,1.485-1.486v-3.693Zm0,0" transform="translate(-157.823 -399.345)" fill="#ffa300"/><path d="M196.84,435.785v2.207a1.359,1.359,0,0,1-1.359,1.359h-9.169v1.613h14.432v-5.178Zm0,0" transform="translate(-157.823 -370.144)" fill="#ffa300"/><path d="M196.84,401.4v2.208a1.358,1.358,0,0,1-1.359,1.358h-9.169v1.613h14.432V401.4H196.84Zm0,0" transform="translate(-157.823 -340.94)" fill="#ffa300"/><path d="M391.056,475.342h-11.8a1.317,1.317,0,0,1-1.317-1.317v-3.861h14.432v3.861A1.317,1.317,0,0,1,391.056,475.342Zm0,0" transform="translate(-320.588 -399.345)" fill="#ffc50d"/><path d="M377.941,435.785h14.432v5.178H377.941Zm0,0" transform="translate(-320.588 -370.144)" fill="#ffc50d"/><path d="M388.468,470.164v2.207a1.358,1.358,0,0,1-1.359,1.359h-9.168v.128a1.486,1.486,0,0,0,1.485,1.486h11.462a1.485,1.485,0,0,0,1.485-1.486v-3.693Zm0,0" transform="translate(-320.588 -399.345)" fill="#ffa300"/><path d="M388.468,435.785v2.207a1.358,1.358,0,0,1-1.359,1.359h-9.168v1.613h14.432v-5.178Zm0,0" transform="translate(-320.588 -370.144)" fill="#ffa300"/><path d="M199.26,367.023h-2.42v2.208a1.359,1.359,0,0,1-1.359,1.358h-9.169V372.2h14.432v-3.693A1.485,1.485,0,0,0,199.26,367.023Zm0,0" transform="translate(-157.824 -311.739)" fill="#ffa300"/><path d="M392.373,406.581H377.941V402.72a1.317,1.317,0,0,1,1.317-1.317h11.8a1.317,1.317,0,0,1,1.317,1.317Zm0,0" transform="translate(-320.588 -340.94)" fill="#ffc50d"/><path d="M390.889,401.4h-2.42v2.208a1.358,1.358,0,0,1-1.359,1.358h-9.168v1.613h14.432v-3.693A1.485,1.485,0,0,0,390.889,401.4Zm0,0" transform="translate(-320.588 -340.94)" fill="#ffa300"/><path d="M295.243,475.342h-11.8a1.317,1.317,0,0,1-1.317-1.317v-3.861H296.56v3.861A1.317,1.317,0,0,1,295.243,475.342Zm0,0" transform="translate(-239.207 -399.345)" fill="#ffc50d"/><path d="M282.129,435.785h14.432v5.178H282.129Zm0,0" transform="translate(-239.207 -370.144)" fill="#ffc50d"/><path d="M282.129,401.4h14.432v5.179H282.129Zm0,0" transform="translate(-239.207 -340.94)" fill="#ffc50d"/><path d="M292.656,470.164v2.207a1.359,1.359,0,0,1-1.359,1.359h-9.168v.128a1.486,1.486,0,0,0,1.485,1.486h11.462a1.485,1.485,0,0,0,1.485-1.486v-3.693Zm0,0" transform="translate(-239.208 -399.345)" fill="#ffa300"/><path d="M292.656,435.785v2.207a1.359,1.359,0,0,1-1.359,1.359h-9.168v1.613h14.432v-5.178Zm0,0" transform="translate(-239.208 -370.144)" fill="#ffa300"/><path d="M292.656,401.4v2.208a1.358,1.358,0,0,1-1.359,1.358h-9.168v1.613h14.432V401.4h-3.905Zm0,0" transform="translate(-239.208 -340.94)" fill="#ffa300"/><path d="M282.129,367.023h14.432V372.2H282.129Zm0,0" transform="translate(-239.207 -311.739)" fill="#ffc50d"/><path d="M292.656,367.023v2.208a1.359,1.359,0,0,1-1.359,1.358h-9.168V372.2h14.432v-5.179Zm0,0" transform="translate(-239.208 -311.739)" fill="#ffa300"/><path d="M282.129,332.645h14.432v5.178H282.129Zm0,0" transform="translate(-239.207 -282.54)" fill="#ffc50d"/><path d="M296.56,303.441H282.129V299.58a1.318,1.318,0,0,1,1.317-1.318h11.8a1.318,1.318,0,0,1,1.317,1.318Zm0,0" transform="translate(-239.207 -253.336)" fill="#ffc50d"/><path d="M292.656,332.645v2.207a1.359,1.359,0,0,1-1.359,1.359h-9.168v1.613h14.432v-5.178Zm0,0" transform="translate(-239.208 -282.54)" fill="#ffa300"/><path d="M295.076,298.262h-2.42v2.208a1.358,1.358,0,0,1-1.359,1.358h-9.168v1.613h14.432v-3.693A1.486,1.486,0,0,0,295.076,298.262Zm0,0" transform="translate(-239.207 -253.336)" fill="#ffa300"/><path d="M70.476,59.339H68.718c-.485.684.887-1.219,1.171-1.755a37.577,37.577,0,0,0-5.237-46.578A37.583,37.583,0,0,0,15.5,7.538a1.123,1.123,0,1,0,1.351,1.795A34.994,34.994,0,0,1,36.957,2.266V35.512L8.848,17.72a35.7,35.7,0,0,1,4.262-5.137,1.123,1.123,0,1,0-1.587-1.589A37.292,37.292,0,0,0,.655,34.176a37.711,37.711,0,0,0-.051,6.2,37.162,37.162,0,0,0,7.7,20.135,37.848,37.848,0,0,0,19.061,13.1v1.081A2.436,2.436,0,0,0,29.8,77.121H41.612a2.419,2.419,0,0,0,1.31-.386,2.416,2.416,0,0,0,1.31.386H56.043a2.419,2.419,0,0,0,1.31-.386,2.416,2.416,0,0,0,1.31.386H70.476a2.435,2.435,0,0,0,2.432-2.433V61.772a2.434,2.434,0,0,0-2.432-2.432Zm-36.03,0H29.612V56.593a.187.187,0,0,1,.187-.187H41.612a.187.187,0,0,1,.187.187v2.746h-2.56a1.123,1.123,0,1,0,0,2.246H41.8v2.933H29.612V61.585h4.834a1.123,1.123,0,1,0,0-2.246Zm9.6-2.746v-.187H56.23v2.932H44.044ZM56.23,54.16H44.044V51.229H56.23ZM44.044,61.585H56.23v2.933H44.044Zm12.186-12.6H44.044V46.237a.187.187,0,0,1,.187-.187H56.043a.187.187,0,0,1,.187.187ZM29.612,66.764H41.8V69.7H29.612Zm14.432,0H56.23V69.7H44.044Zm14.432,0H70.662V69.7H58.477Zm12.185-4.992v2.746H58.477V61.772a.187.187,0,0,1,.187-.187H70.476a.187.187,0,0,1,.187.187Zm-12-2.432c-.063,0-.125,0-.187.009V51.791L67.332,57.4q-.673.994-1.416,1.943ZM2.818,39.8c-.024-.368-.039-.734-.051-1.1H27.494L3.325,43.919A35.13,35.13,0,0,1,2.818,39.8Zm.982,6.31,28.71-6.2L8.057,56.169A35.42,35.42,0,0,1,3.8,46.114Zm3.848-26.5,26.6,16.837H2.767q.03-.988.116-1.973A35.181,35.181,0,0,1,7.648,19.619ZM9.3,58.04,38.1,38.9l4.452,2.818a1.123,1.123,0,1,0,1.2-1.9L39.2,36.934V2.266A35.33,35.33,0,0,1,68.531,55.5L58.477,49.133v-2.9A2.435,2.435,0,0,0,56.044,43.8H44.231A2.436,2.436,0,0,0,41.8,46.237V54.17c-.062,0-.124-.009-.187-.009H29.8a2.436,2.436,0,0,0-2.433,2.433V71.257A35.284,35.284,0,0,1,9.3,58.04ZM41.612,74.875H29.8a.187.187,0,0,1-.187-.187V71.943H41.8v2.745a.187.187,0,0,1-.187.187Zm14.431,0H44.231a.187.187,0,0,1-.187-.187V71.943H56.23v2.745a.187.187,0,0,1-.187.187Zm14.619-.187a.187.187,0,0,1-.187.187H58.663a.187.187,0,0,1-.187-.187V71.943H70.662Zm0,0" transform="translate(0 0)"/></g></g></svg>