<svg xmlns="http://www.w3.org/2000/svg" xmlns:xlink="http://www.w3.org/1999/xlink" width="507.633" height="440.508" viewBox="0 0 507.633 440.508"><defs><clipPath id="a"><rect width="507.633" height="440.508" fill="none"/></clipPath><clipPath id="c"><rect width="38.647" height="69.959" transform="translate(0 100.034)" fill="none"/></clipPath><clipPath id="d"><rect width="34.311" height="46.864" transform="translate(60.402 27.229)" fill="none"/></clipPath><clipPath id="e"><rect width="72.88" height="49.881" transform="translate(358.91 0.188)" fill="none"/></clipPath><clipPath id="f"><rect width="90.927" height="90.927" transform="translate(370.643 13.375)" fill="none"/></clipPath><clipPath id="g"><rect width="89.705" height="89.706" transform="translate(372.612 16.294)" fill="none"/></clipPath><clipPath id="h"><rect width="36.996" height="53.746" transform="translate(397.541 32.642)" fill="none"/></clipPath><clipPath id="i"><rect width="223.489" height="72.017" transform="translate(128.33 335.827)" fill="none"/></clipPath><clipPath id="j"><rect width="5.79" height="22.691" transform="translate(306.743 35.113)" fill="none"/></clipPath><clipPath id="k"><rect width="51.523" height="36.108" transform="translate(362.507 327.098)" fill="none"/></clipPath><clipPath id="l"><rect width="49.795" height="27.47" transform="translate(358.222 259.682)" fill="none"/></clipPath><clipPath id="m"><rect width="2.962" height="3.025" transform="translate(302.703 385.713)" fill="none"/></clipPath><clipPath id="n"><rect width="33.285" height="24.381" transform="translate(272.127 371.734)" fill="none"/></clipPath><clipPath id="o"><rect width="20.159" height="24.957" transform="translate(346.69 415.551)" fill="none"/></clipPath><clipPath id="p"><rect width="3.193" height="3.156" transform="translate(362.561 412.105)" fill="none"/></clipPath></defs><g transform="translate(-915 -5059.833)"><g transform="translate(915 5059.833)"><g clip-path="url(#a)"><g clip-path="url(#a)"><path d="M430.579,141.333c-4.769,0-8.089-3.506-8.089-9.146s3.32-9.145,8.089-9.145,8.134,3.555,8.134,9.145-3.366,9.146-8.134,9.146m0-3.886c2.009,0,3.412-1.753,3.412-5.26s-1.4-5.26-3.412-5.26c-2.058,0-3.414,1.707-3.414,5.26s1.356,5.26,3.414,5.26m2.852,19.143h-5.564l-22.348-33.169h5.564Zm-25.06.379c-4.768,0-8.136-3.554-8.136-9.144s3.368-9.146,8.136-9.146c4.722,0,8.088,3.554,8.088,9.146s-3.366,9.144-8.088,9.144m0-3.885c2.01,0,3.412-1.705,3.412-5.259s-1.4-5.26-3.412-5.26c-2.057,0-3.413,1.752-3.413,5.26s1.356,5.259,3.413,5.259" fill="#e0e0e0"/><path d="M94.3,116.9a50.885,50.885,0,1,1-69.958-16.865A50.885,50.885,0,0,1,94.3,116.9" fill="#ebebeb"/><g opacity="0.1"><g clip-path="url(#c)"><path d="M24.346,100.034A50.884,50.884,0,0,0,7.481,169.993S38.82,152.7,38.646,135.931s-14.3-35.9-14.3-35.9" fill="#fff"/></g></g><path d="M82.786,123A38.683,38.683,0,1,1,29.6,110.177,38.682,38.682,0,0,1,82.786,123" fill="#e0e0e0"/><path d="M84.559,123.8a38.164,38.164,0,1,1-52.468-12.648A38.165,38.165,0,0,1,84.559,123.8" fill="#f5f5f5"/><path d="M51.571,140.1l-5.093-8.329.04-.025a20,20,0,0,1,5.133-1.554,16.311,16.311,0,0,1,2.874.04l-.047-.325-.549-3.785-.126-.87-2.438-.652-.518.759a18.259,18.259,0,0,0-7.1,1.948l-2.8-4.582-2.129-.277.7,1.15-1.958,1.2,2.852,4.663c-6.06,4.556-6.868,10.1-4.293,14.307,3.507,5.736,9.327,4.219,14.59,2.532l5.047,8.254a18.583,18.583,0,0,1-10.172,1.911l.692,5.3c3.281.545,8.01-.532,12.206-2.758l2.115,3.459-1.594,1.013,2.28.109,3.384-2.069-2.826-4.623c6.075-4.622,6.95-10.147,4.376-14.357-3.509-5.736-9.386-4.127-14.648-2.44m-3.914,1.2c-2.823.762-5.153.94-6.364-1.042-1.111-1.815-.781-4.058,1.872-6.3Zm-1.184-9.54h0M59.092,152.4l-4.467-7.3c2.9-.813,5.3-.974,6.538,1.048,1.085,1.775.664,3.96-2.071,6.257" fill="#e0e0e0"/><path d="M59.752,156.619l2.827,4.624-3.385,2.07-2.8-4.582c-4.2,2.225-8.926,3.3-12.209,2.757l-.691-5.3a18.58,18.58,0,0,0,10.173-1.912l-5.048-8.255c-5.263,1.688-11.084,3.205-14.592-2.532-2.575-4.211-1.767-9.752,4.293-14.309l-2.852-4.664,3.385-2.07,2.8,4.582a20.746,20.746,0,0,1,9.919-2.607l.857,5.2a20.036,20.036,0,0,0-8.05,1.86l5.1,8.338c5.264-1.687,11.142-3.3,14.651,2.441,2.575,4.21,1.7,9.736-4.377,14.359m-14.188-15.6-4.493-7.348c-2.653,2.246-2.982,4.489-1.872,6.306,1.211,1.981,3.542,1.8,6.365,1.042m13.508,4.84c-1.237-2.023-3.633-1.861-6.539-1.048L57,152.121c2.736-2.3,3.157-4.483,2.071-6.258" fill="#ebebeb"/><path d="M26.377,186.42a2.071,2.071,0,0,1-.407-.212l-1.132-.672a20.659,20.659,0,0,1-1.746-1.136c-.662-.471-1.441-.974-2.228-1.629l-1.258-1c-.435-.35-.855-.753-1.308-1.149-.918-.781-1.809-1.709-2.766-2.668A50.446,50.446,0,0,1,5.8,163.368c-.518-1.251-1.033-2.431-1.4-3.579-.192-.57-.4-1.112-.559-1.649s-.3-1.051-.44-1.545c-.3-.978-.468-1.891-.649-2.682a20.677,20.677,0,0,1-.378-2.049c-.077-.533-.138-.965-.187-1.3a2.1,2.1,0,0,1-.039-.458,2.124,2.124,0,0,1,.115.446c.066.334.151.761.256,1.288.1.562.232,1.245.44,2.028s.382,1.688.7,2.656q.22.733.461,1.53c.163.53.379,1.067.576,1.632.38,1.136.9,2.3,1.425,3.542a52.164,52.164,0,0,0,9.667,14.488c.943.958,1.82,1.889,2.723,2.675.446.4.858.8,1.286,1.159l1.235,1.012c.772.666,1.537,1.181,2.184,1.667s1.224.878,1.7,1.185l1.091.731a2.117,2.117,0,0,1,.368.277" fill="#fff"/><path d="M38.958,145.212a3.194,3.194,0,0,1-1.541-.366,5.987,5.987,0,0,1-3.554-6.307,3.215,3.215,0,0,1,.485-1.507c.062.021-.154.587-.218,1.534a6.2,6.2,0,0,0,3.4,6.038c.844.436,1.44.544,1.426.608" fill="#fff"/><path d="M38.6,128.066c-.089.056-.533-.508-.992-1.257s-.757-1.4-.668-1.456.533.508.992,1.258.757,1.4.668,1.455" fill="#fff"/><path d="M32.068,107.5a7.88,7.88,0,0,1-1.086.607c-.357.179-.791.4-1.277.7s-1.062.586-1.654.984c-.6.379-1.263.8-1.936,1.3-.695.468-1.389,1.035-2.131,1.614a39.862,39.862,0,0,0-8.171,9.064c-.5.8-.992,1.546-1.387,2.286-.425.723-.774,1.421-1.089,2.06-.334.631-.573,1.231-.808,1.747s-.418.968-.56,1.341a7.789,7.789,0,0,1-.491,1.143,7.8,7.8,0,0,1,.353-1.194c.121-.383.28-.847.5-1.372s.441-1.137.762-1.78c.3-.651.639-1.362,1.056-2.1.386-.752.872-1.513,1.369-2.323a37.763,37.763,0,0,1,8.244-9.145c.755-.578,1.462-1.14,2.17-1.6.688-.491,1.361-.9,1.978-1.267.6-.386,1.189-.671,1.692-.942s.944-.482,1.313-.642a7.745,7.745,0,0,1,1.151-.474" fill="#fff"/><path d="M81.354,181.379a4.413,4.413,0,0,1-.646.683c-.428.427-1.085,1.007-1.925,1.688a36.78,36.78,0,0,1-15.139,7.241c-1.057.227-1.921.373-2.522.44a4.341,4.341,0,0,1-.937.073,4.6,4.6,0,0,1,.913-.219c.591-.111,1.443-.3,2.485-.555a41.164,41.164,0,0,0,15.035-7.191c.855-.649,1.535-1.2,1.992-1.587a4.481,4.481,0,0,1,.744-.573" fill="#fff"/><path d="M138.865,57.995A39.641,39.641,0,1,1,92,27.228a39.641,39.641,0,0,1,46.863,30.767" fill="#ebebeb"/><g opacity="0.1"><g clip-path="url(#d)"><path d="M92,27.229A39.64,39.64,0,0,0,61.235,74.093s27.528-4.436,31.812-16.78S92,27.229,92,27.229" fill="#fff"/></g></g><path d="M128.815,59.438A30.135,30.135,0,1,1,93.189,36.049a30.134,30.134,0,0,1,35.626,23.389" fill="#e0e0e0"/><path d="M129.9,60.495A29.731,29.731,0,1,1,94.756,37.42,29.73,29.73,0,0,1,129.9,60.495" fill="#f5f5f5"/><path d="M101.429,63.768,99.885,56.32l.036-.008a15.579,15.579,0,0,1,4.172.211,12.75,12.75,0,0,1,2.1.785l.051-.251.593-2.92.137-.671-1.617-1.119-.579.42a14.233,14.233,0,0,0-5.718-.439l-.85-4.1-1.488-.763.213,1.028-1.75.362.864,4.17c-5.642,1.747-7.691,5.6-6.911,9.362,1.064,5.129,5.731,5.547,10.033,5.694l1.531,7.38a14.477,14.477,0,0,1-7.962-1.274l-.888,4.071c2.263,1.263,6.014,1.717,9.676,1.189l.641,3.092-1.435.324,1.643.679,3.026-.627-.857-4.133c5.671-1.792,7.765-5.613,6.985-9.377-1.064-5.129-5.8-5.495-10.1-5.641m-3.187-.148c-2.27-.184-4.025-.666-4.393-2.438-.336-1.623.5-3.181,3.031-4.13Zm1.641-7.307h0Zm3.826,18.451-1.354-6.531c2.344.168,4.143.68,4.518,2.488.329,1.587-.555,3.078-3.164,4.043" fill="#e0e0e0"/><path d="M103.081,78.033l.858,4.134-3.027.628-.849-4.1c-3.663.528-7.414.074-9.678-1.189l.888-4.071a14.484,14.484,0,0,0,7.963,1.274l-1.53-7.382c-4.3-.146-8.971-.565-10.034-5.694-.781-3.765,1.269-7.616,6.911-9.363l-.864-4.17,3.026-.628.849,4.1a16.164,16.164,0,0,1,7.96.7l-.741,4.041a15.606,15.606,0,0,0-6.392-.753l1.546,7.455c4.3.147,9.037.513,10.1,5.643.781,3.765-1.315,7.586-6.987,9.378m-6.3-15.168L95.417,56.3c-2.535.949-3.367,2.507-3.031,4.131.368,1.772,2.123,2.254,4.394,2.438m8.632,7.1c-.375-1.809-2.175-2.32-4.519-2.489l1.354,6.533c2.611-.965,3.494-2.457,3.165-4.044" fill="#ebebeb"/><path d="M70.771,91.108a1.6,1.6,0,0,1-.243-.262l-.653-.791c-.286-.342-.625-.769-.982-1.292s-.8-1.093-1.2-1.781q-.317-.509-.659-1.063c-.227-.372-.43-.778-.657-1.188-.468-.814-.878-1.729-1.327-2.683a39.316,39.316,0,0,1-3.3-13.256c-.051-1.053-.118-2.054-.087-2.992.009-.469,0-.922.024-1.357s.057-.85.084-1.248c.035-.8.154-1.51.229-2.138a16.151,16.151,0,0,1,.262-1.6c.084-.411.152-.744.206-1a1.622,1.622,0,0,1,.091-.346,1.669,1.669,0,0,1-.033.357c-.039.263-.089.6-.151,1.013-.075.437-.157.974-.211,1.6s-.163,1.338-.185,2.132q-.03.6-.064,1.243c-.02.432,0,.882-.007,1.348-.02.933.056,1.926.113,2.972A44.566,44.566,0,0,0,63.1,75.494a44.611,44.611,0,0,0,2.192,6.445c.44.95.838,1.864,1.294,2.677.222.41.418.816.638,1.188s.435.727.64,1.068c.391.691.815,1.27,1.162,1.8s.667.965.938,1.317l.608.823a1.587,1.587,0,0,1,.2.3" fill="#fff"/><path d="M90.834,64.2a2.487,2.487,0,0,1-1.034-.674,4.663,4.663,0,0,1-.947-5.559,2.505,2.505,0,0,1,.752-.978c.04.032-.267.39-.563,1.068a4.829,4.829,0,0,0,.906,5.322c.5.542.913.778.886.821" fill="#fff"/><path d="M95.081,51.533a2.73,2.73,0,0,1-.4-1.184,2.723,2.723,0,0,1-.107-1.243,2.722,2.722,0,0,1,.4,1.183,2.727,2.727,0,0,1,.107,1.244" fill="#fff"/><path d="M95.7,34.737a6.121,6.121,0,0,1-.956.159c-.309.038-.686.089-1.119.175s-.932.151-1.472.286-1.135.254-1.761.441c-.632.161-1.29.394-1.986.624a31.053,31.053,0,0,0-8.376,4.5c-.577.454-1.134.873-1.618,1.312-.5.418-.941.838-1.341,1.224s-.744.752-1.052,1.068-.561.6-.763.837a6.175,6.175,0,0,1-.661.709,6.01,6.01,0,0,1,.573-.783c.189-.249.428-.547.729-.874s.623-.718,1.027-1.1.827-.831,1.326-1.26c.481-.45,1.037-.881,1.615-1.344a29.493,29.493,0,0,1,8.451-4.538c.7-.225,1.371-.451,2.012-.6.634-.179,1.234-.3,1.783-.409.546-.123,1.05-.179,1.489-.246s.819-.105,1.131-.125a6.168,6.168,0,0,1,.969-.045" fill="#fff"/><path d="M112.41,101.871a3.471,3.471,0,0,1-.653.331c-.427.2-1.061.453-1.856.731a28.639,28.639,0,0,1-13,1.328c-.836-.111-1.508-.231-1.966-.341a3.459,3.459,0,0,1-.706-.192,3.465,3.465,0,0,1,.727.079c.463.075,1.136.162,1.969.247a32.058,32.058,0,0,0,12.915-1.319c.8-.251,1.44-.473,1.879-.64a3.45,3.45,0,0,1,.7-.224" fill="#fff"/><path d="M456.191,146.432s-9.869-.71-8.961,21.429,3.168,33.932,3.168,33.932-.29,4.909-4.093,3.946-10.953-5.741-14.486-2.17c-3.663,3.7-2.361,9.385,2.5,16.076s14.967,21.742,15.876,23.106c.892,1.34,1.25,3.851-1.445,3.61s-20.886-6.407-23.295,2.4,14.191,25.224,15.972,27.053,1.876,2.985,1.154,4.091-6.642-1.542-11.887-3.083-11.6-2.41-12.563,2.788,6.347,20.408,33.729,36.4l13.172,6.577,12.468-7.953c25.645-18.645,31.4-34.511,29.919-39.586s-7.713-3.576-12.778-1.518-10.69,5.286-11.519,4.257-.849-2.187.739-4.186,16.463-19.993,13.185-28.515-20.76-.568-23.418-.058-2.553-2.024-1.8-3.447c.768-1.448,9.32-17.434,13.486-24.578s4.893-12.926.878-16.245c-3.872-3.2-10.51,2.269-14.2,3.608s-4.466-3.517-4.466-3.517,1.068-11.959-.243-34.078-11.3-20.334-11.3-20.334" fill="#ebebeb"/><path d="M456.971,166.261s.026.156.053.462c.025.328.06.779.105,1.359.083,1.219.2,2.976.354,5.228.3,4.541.691,11.114,1.14,19.239.9,16.248,1.958,38.7,3.041,63.508s2.083,47.271,2.895,63.523c.412,8.108.747,14.677.979,19.244.112,2.255.2,4.014.26,5.233.023.581.042,1.034.055,1.362.009.307,0,.465,0,.465s-.026-.156-.053-.462c-.025-.327-.06-.779-.1-1.359-.082-1.218-.2-2.975-.354-5.227-.3-4.54-.691-11.113-1.139-19.238-.9-16.248-1.959-38.706-3.042-63.519s-2.083-47.26-2.894-63.512c-.413-8.108-.747-14.678-.98-19.246-.112-2.254-.2-4.013-.26-5.233-.023-.581-.041-1.033-.055-1.362-.009-.307,0-.465,0-.465" fill="#e0e0e0"/><path d="M441.555,210.655a4.3,4.3,0,0,1,.82.682c.506.46,1.218,1.149,2.089,2.008,1.739,1.722,4.076,4.163,6.605,6.906l6.443,7.049q1.154,1.251,1.961,2.126a4.388,4.388,0,0,1,.686.815,4.327,4.327,0,0,1-.825-.676c-.505-.462-1.218-1.15-2.08-2.019-1.722-1.74-4.027-4.211-6.555-6.953l-6.491-7-1.972-2.117a4.3,4.3,0,0,1-.681-.821" fill="#e0e0e0"/><path d="M461.466,229.807c-.1-.1,4.718-5.143,10.759-11.267s11.019-11.011,11.118-10.913-4.717,5.141-10.759,11.268-11.019,11.01-11.118,10.912" fill="#e0e0e0"/><path d="M461.412,267.979a4.49,4.49,0,0,1,.918-.584l2.577-1.446c2.174-1.222,5.17-2.919,8.41-4.911s6.12-3.88,8.192-5.268l2.458-1.639a4.462,4.462,0,0,1,.937-.554,4.612,4.612,0,0,1-.822.713c-.549.433-1.356,1.043-2.369,1.773-2.024,1.465-4.877,3.415-8.133,5.406s-6.283,3.651-8.5,4.794c-1.113.567-2.019,1.016-2.655,1.306a4.479,4.479,0,0,1-1.008.41" fill="#e0e0e0"/><path d="M439.589,254.62a3.892,3.892,0,0,1,.911.427c.57.3,1.386.758,2.388,1.328,2.005,1.139,4.758,2.743,7.782,4.542s5.749,3.451,7.708,4.669c.979.609,1.767,1.109,2.306,1.465a3.825,3.825,0,0,1,.81.6,3.9,3.9,0,0,1-.91-.427c-.57-.3-1.386-.757-2.389-1.327-2.005-1.14-4.758-2.744-7.783-4.543s-5.747-3.451-7.706-4.669c-.979-.609-1.768-1.109-2.306-1.465a3.855,3.855,0,0,1-.811-.6" fill="#e0e0e0"/><path d="M435.26,288.313a6.33,6.33,0,0,1,1.159.561l3.066,1.691c2.577,1.447,6.121,3.476,10.018,5.744s7.415,4.346,9.946,5.872l2.985,1.83a6.2,6.2,0,0,1,1.06.73,6.305,6.305,0,0,1-1.158-.561l-3.066-1.691c-2.578-1.447-6.121-3.476-10.02-5.745s-7.413-4.345-9.945-5.871l-2.985-1.83a6.325,6.325,0,0,1-1.06-.73" fill="#e0e0e0"/><path d="M462.93,304.158a7.279,7.279,0,0,1,1.145-.767l3.2-1.95c2.7-1.646,6.427-3.933,10.469-6.57s7.65-5.109,10.246-6.918l3.079-2.138a7.135,7.135,0,0,1,1.164-.738,7.206,7.206,0,0,1-1.048.9c-.694.55-1.712,1.329-2.987,2.27-2.546,1.886-6.123,4.413-10.178,7.051s-7.812,4.885-10.564,6.455c-1.378.781-2.5,1.4-3.285,1.812a7.268,7.268,0,0,1-1.243.6" fill="#e0e0e0"/><path d="M482.728,326.891H446.286l11.894,90.036h12.654Z" fill="#e0e0e0"/><path d="M448.177,337.959c-.014.009.039.127.194.321a2.307,2.307,0,0,0,.879.629,4.412,4.412,0,0,0,3.849-.473c1.471-.812,2.754-2.406,4.725-3.111a10.356,10.356,0,0,1,6.7.133,28.775,28.775,0,0,1,6.241,3.024,43.191,43.191,0,0,0,5.073,2.723,14.057,14.057,0,0,0,3.742,1.082,6.86,6.86,0,0,0,1.059.071c.242,0,.368-.01.369-.03a19.061,19.061,0,0,1-5-1.507,50.048,50.048,0,0,1-4.964-2.808,27.612,27.612,0,0,0-6.346-3.122,10.69,10.69,0,0,0-7.073-.077,9.315,9.315,0,0,0-2.662,1.646,20.85,20.85,0,0,1-2.085,1.616,4.279,4.279,0,0,1-3.55.616,3.62,3.62,0,0,1-1.155-.733" fill="#f5f5f5"/><path d="M449.506,354.542c.048.03.289-.371.859-.966a8.087,8.087,0,0,1,2.91-1.846,12.973,12.973,0,0,1,5.068-.763,53.4,53.4,0,0,1,6.341.863,21.8,21.8,0,0,0,6.493.27,17.9,17.9,0,0,0,5.109-1.459,16.208,16.208,0,0,0,3.072-1.826,4.342,4.342,0,0,0,.973-.876,32.593,32.593,0,0,1-4.213,2.316,18.649,18.649,0,0,1-5.006,1.3,22.376,22.376,0,0,1-6.334-.313,47.786,47.786,0,0,0-6.419-.824,12.845,12.845,0,0,0-5.242.921,7.661,7.661,0,0,0-2.924,2.08,5.243,5.243,0,0,0-.551.808c-.107.2-.154.3-.136.314" fill="#f5f5f5"/><path d="M478.6,363.419a3.075,3.075,0,0,0-1-.522,10.778,10.778,0,0,0-3.02-.647,19.241,19.241,0,0,0-4.566.261c-1.7.275-3.521.745-5.435,1.151a22.947,22.947,0,0,1-5.427.613,11.859,11.859,0,0,1-4.308-.932,9.939,9.939,0,0,1-3.268-2.433,2.79,2.79,0,0,0,.617.952,7.692,7.692,0,0,0,2.474,1.862,11.6,11.6,0,0,0,4.461,1.1,21.942,21.942,0,0,0,5.574-.578c1.934-.411,3.742-.894,5.4-1.193a20.834,20.834,0,0,1,4.449-.381,16.693,16.693,0,0,1,4.048.749" fill="#f5f5f5"/><path d="M452.726,375.906a5.906,5.906,0,0,1,3.538-.357,17.15,17.15,0,0,1,3.7,1.38,14.055,14.055,0,0,0,4.8,1.324,14.406,14.406,0,0,0,8.718-2.02,12.427,12.427,0,0,0,2.169-1.668c.443-.472.671-.744.642-.772a31.731,31.731,0,0,1-3.022,2.076,14.924,14.924,0,0,1-8.454,1.792c-3.45-.2-6.1-2.255-8.491-2.527a5.429,5.429,0,0,0-2.748.238,1.8,1.8,0,0,0-.859.534" fill="#f5f5f5"/><path d="M454.756,393.187a6.993,6.993,0,0,0,3.039-.6c1.831-.612,4.1-2.016,6.747-3.068a10.977,10.977,0,0,1,3.872-.811,7.127,7.127,0,0,1,3.114.71,6.9,6.9,0,0,1,2.251,1.943,1.659,1.659,0,0,0-.346-.768,4.988,4.988,0,0,0-1.707-1.546,7.143,7.143,0,0,0-3.3-.887,10.864,10.864,0,0,0-4.092.8c-2.744,1.094-4.939,2.539-6.689,3.233-1.728.746-2.9.9-2.885,1" fill="#f5f5f5"/><path d="M456.543,401.228a8.477,8.477,0,0,0,2.308.749,42.341,42.341,0,0,0,11.615,1.142,8.51,8.51,0,0,0,2.409-.286c-.01-.18-3.693-.022-8.2-.475-4.506-.432-8.089-1.3-8.133-1.13" fill="#f5f5f5"/><path d="M442.785,416.839c0,.144-92.3.26-206.127.26-113.868,0-206.147-.116-206.147-.26s92.279-.26,206.147-.26c113.829,0,206.127.116,206.127.26" fill="#263238"/><path d="M474.661,75A59.789,59.789,0,1,1,431.79,2.117,59.789,59.789,0,0,1,474.661,75" fill="#fc6363"/><g opacity="0.1"><g clip-path="url(#e)"><path d="M431.79,2.117a59.787,59.787,0,0,0-72.88,42.872s40.2,12.362,54.226-1.479S431.79,2.117,431.79,2.117" fill="#fff"/></g></g><path d="M460.1,70.245a45.452,45.452,0,1,1-32.591-55.4,45.45,45.45,0,0,1,32.591,55.4" fill="#ff725e"/><g opacity="0.2"><g clip-path="url(#f)"><path d="M460.1,70.245a45.452,45.452,0,1,1-32.591-55.4,45.45,45.45,0,0,1,32.591,55.4"/></g></g><path d="M460.871,72.4a44.841,44.841,0,1,1-32.153-54.66A44.841,44.841,0,0,1,460.871,72.4" fill="#fc6363"/><g opacity="0.2"><g clip-path="url(#g)"><path d="M460.871,72.4a44.841,44.841,0,1,1-32.153-54.66A44.841,44.841,0,0,1,460.871,72.4" fill="#fff"/></g></g><path d="M420.169,57.832l2.879-11.1c.018,0,.036.009.054.013a23.523,23.523,0,0,1,5.5,3.069,19.157,19.157,0,0,1,2.312,2.461l.236-.306L433.9,48.41l.632-.817L433.1,45l-1.064.182a21.461,21.461,0,0,0-7.442-4.408l1.583-6.108-1.505-2.025-.4,1.532-2.61-.676-1.611,6.217c-8.8-1.4-14.139,2.441-15.594,8.054-1.983,7.648,4.052,11.326,9.774,14.4l-2.853,11a21.84,21.84,0,0,1-9.921-7.034l-3.916,4.915c2.219,3.218,6.99,6.333,12.3,8.062l-1.2,4.611-2.158-.519,1.77,2.015,4.512,1.17,1.6-6.163c8.867,1.359,14.248-2.413,15.7-8.025,1.983-7.648-4.175-11.3-9.9-14.368m-4.212-2.326c-2.949-1.763-5-3.586-4.317-6.228.628-2.42,2.792-3.973,6.856-3.565Zm7.093-8.789h0m-7.132,27.511,2.525-9.739c3.059,1.792,5.151,3.684,4.452,6.38-.613,2.366-2.8,3.794-6.977,3.359" fill="#ff725e"/><g opacity="0.3"><g clip-path="url(#h)"><path d="M420.169,57.832l2.879-11.1c.018,0,.036.009.054.013a23.523,23.523,0,0,1,5.5,3.069,19.157,19.157,0,0,1,2.312,2.461l.236-.306L433.9,48.41l.632-.817L433.1,45l-1.064.182a21.461,21.461,0,0,0-7.442-4.408l1.583-6.108-1.505-2.025-.4,1.532-2.61-.676-1.611,6.217c-8.8-1.4-14.139,2.441-15.594,8.054-1.983,7.648,4.052,11.326,9.774,14.4l-2.853,11a21.84,21.84,0,0,1-9.921-7.034l-3.916,4.915c2.219,3.218,6.99,6.333,12.3,8.062l-1.2,4.611-2.158-.519,1.77,2.015,4.512,1.17,1.6-6.163c8.867,1.359,14.248-2.413,15.7-8.025,1.983-7.648-4.175-11.3-9.9-14.368m-4.212-2.326c-2.949-1.763-5-3.586-4.317-6.228.628-2.42,2.792-3.973,6.856-3.565Zm7.093-8.789h0m-7.132,27.511,2.525-9.739c3.059,1.792,5.151,3.684,4.452,6.38-.613,2.366-2.8,3.794-6.977,3.359"/></g></g><path d="M412.888,78.234l-1.6,6.164-4.513-1.17,1.584-6.108c-5.307-1.729-10.079-4.845-12.3-8.064l3.917-4.915a21.839,21.839,0,0,0,9.922,7.035l2.853-11.006c-5.723-3.069-11.758-6.748-9.775-14.4,1.455-5.613,6.8-9.456,15.6-8.055l1.612-6.218,4.512,1.169-1.583,6.108a24.366,24.366,0,0,1,10.3,6.254L429.722,50a23.531,23.531,0,0,0-8.145-5.282L418.7,55.836c5.724,3.07,11.883,6.723,9.9,14.371-1.455,5.614-6.839,9.386-15.707,8.027m1.594-24.723,2.539-9.8c-4.063-.408-6.227,1.146-6.855,3.567-.685,2.641,1.367,4.465,4.316,6.228m6.94,15.366c.7-2.7-1.394-4.589-4.453-6.381l-2.525,9.74c4.174.437,6.365-.992,6.978-3.359" fill="#ff725e"/><path d="M405.3,104.774a2.425,2.425,0,0,1,.367.053l1.067.2,1.729.335a17.019,17.019,0,0,0,2.37.371l2.993.29a12.327,12.327,0,0,0,1.715.058l1.856,0c.641-.02,1.307.042,1.987-.045l2.108-.211c.721-.087,1.471-.113,2.225-.255l2.316-.461a47.724,47.724,0,0,0,9.993-3.295l2.559-1.345c.431-.232.876-.448,1.306-.7l1.258-.823c.837-.563,1.721-1.086,2.553-1.705l2.464-1.969.626-.5c.2-.176.388-.371.584-.556l1.167-1.133,1.181-1.145c.408-.372.729-.83,1.1-1.245.711-.858,1.472-1.692,2.164-2.593l1.96-2.833a48.591,48.591,0,0,0,5.746-13.08,48.6,48.6,0,0,0,1.335-14.23q-.17-1.729-.337-3.428c-.166-1.124-.426-2.223-.631-3.319-.124-.543-.182-1.1-.358-1.623q-.24-.792-.476-1.575t-.47-1.558c-.081-.257-.149-.518-.239-.77l-.3-.741-1.2-2.919c-.427-.945-.946-1.832-1.4-2.732q-.352-.669-.7-1.33c-.255-.426-.538-.831-.8-1.243q-.8-1.23-1.584-2.419a47.676,47.676,0,0,0-7.134-7.735l-1.8-1.529c-.59-.49-1.233-.878-1.821-1.3l-1.739-1.208c-.553-.406-1.165-.676-1.715-1l-1.62-.9a12.359,12.359,0,0,0-1.528-.783l-2.756-1.2a17.309,17.309,0,0,0-2.252-.827l-1.674-.547-1.027-.345a2.3,2.3,0,0,1-.347-.133,2.343,2.343,0,0,1,.358.089l1.042.3,1.69.508a16.392,16.392,0,0,1,2.273.791l2.783,1.17a12.193,12.193,0,0,1,1.544.77l1.638.893a19.883,19.883,0,0,1,1.733,1l1.759,1.2c.6.424,1.246.81,1.843,1.3l1.822,1.527a47.649,47.649,0,0,1,7.228,7.757l1.606,2.432c.268.414.555.822.814,1.251l.711,1.339c.465.905.99,1.8,1.424,2.751q.6,1.452,1.216,2.942l.309.747c.092.254.161.517.244.776q.237.78.478,1.571l.483,1.589c.179.528.239,1.09.365,1.637.21,1.106.474,2.215.643,3.35l.345,3.461a48.818,48.818,0,0,1-1.338,14.369A48.816,48.816,0,0,1,455.318,85.5l-1.983,2.857c-.7.909-1.469,1.75-2.189,2.614a16.707,16.707,0,0,1-1.115,1.254l-1.194,1.154-1.181,1.14c-.2.187-.386.383-.59.56l-.633.5-2.492,1.98c-.841.622-1.734,1.147-2.58,1.713l-1.272.824c-.435.249-.884.467-1.319.7q-1.314.684-2.586,1.345A47.642,47.642,0,0,1,426.1,105.41l-2.334.449c-.76.138-1.516.159-2.242.241l-2.122.195c-.685.081-1.355.014-2,.028l-1.866-.014a12.232,12.232,0,0,1-1.724-.078l-3-.329a16.574,16.574,0,0,1-2.372-.413l-1.724-.377-1.058-.241a2.351,2.351,0,0,1-.356-.1" fill="#263238"/><path d="M360.459,74.367a2.484,2.484,0,0,1-.154-.517c-.092-.39-.21-.889-.356-1.5-.159-.654-.332-1.457-.466-2.4s-.353-2.013-.442-3.213q-.087-.9-.183-1.879c-.059-.654-.062-1.337-.1-2.043-.089-1.414-.033-2.925,0-4.516a64.549,64.549,0,0,1,1.308-10.256,64.607,64.607,0,0,1,3.07-9.876c.634-1.459,1.211-2.858,1.879-4.106.325-.628.612-1.249.937-1.819L366.9,30.6c.579-1.054,1.216-1.939,1.737-2.739a24.434,24.434,0,0,1,1.422-1.992L371,24.648a2.389,2.389,0,0,1,.355-.406,2.527,2.527,0,0,1-.283.461l-.88,1.268c-.393.542-.862,1.213-1.354,2.027s-1.114,1.7-1.672,2.761l-.916,1.638c-.316.571-.593,1.192-.909,1.82-.65,1.247-1.209,2.642-1.83,4.1a67.389,67.389,0,0,0-3.015,9.817,67.171,67.171,0,0,0-1.333,10.181c-.039,1.579-.11,3.08-.036,4.485.026.7.021,1.382.07,2.033s.105,1.273.153,1.87c.069,1.195.257,2.263.375,3.206s.258,1.75.39,2.407c.112.622.2,1.125.274,1.519a2.458,2.458,0,0,1,.066.537" fill="#fff"/><path d="M405.549,51.35a3.762,3.762,0,0,1-.949-1.6,7.032,7.032,0,0,1,2.427-8.152,3.757,3.757,0,0,1,1.67-.821c.033.069-.622.349-1.475,1.068a7.285,7.285,0,0,0-2.323,7.8c.32,1.069.716,1.661.65,1.7" fill="#fff"/><path d="M419.743,37.049A4.111,4.111,0,0,1,420,35.184c.259-1,.566-1.785.685-1.754a4.116,4.116,0,0,1-.253,1.866c-.259,1-.566,1.784-.685,1.753" fill="#fff"/><path d="M431.783,14.739a9.251,9.251,0,0,1-1.4-.422c-.443-.155-.986-.337-1.63-.511s-1.362-.417-2.182-.593c-.813-.2-1.705-.415-2.676-.579-.963-.2-2.008-.328-3.1-.481a46.808,46.808,0,0,0-14.33.5c-1.082.228-2.116.424-3.064.695-.958.23-1.832.506-2.63.762-.8.233-1.507.52-2.135.743s-1.16.437-1.591.622a9.026,9.026,0,0,1-1.367.518,9.4,9.4,0,0,1,1.3-.676c.422-.211.945-.455,1.57-.7s1.321-.556,2.126-.81c.8-.277,1.673-.572,2.635-.82.951-.288,1.991-.5,3.081-.741a44.5,44.5,0,0,1,14.458-.5c1.1.166,2.156.305,3.125.526.976.181,1.87.415,2.685.636.82.2,1.539.459,2.177.661s1.178.4,1.614.586a9.277,9.277,0,0,1,1.341.585" fill="#fff"/><path d="M409.606,116.7a5.162,5.162,0,0,1-1.1.012c-.711-.014-1.737-.094-3-.249a43.183,43.183,0,0,1-18.478-6.878c-1.056-.709-1.885-1.319-2.432-1.773a5.238,5.238,0,0,1-.827-.731,5.265,5.265,0,0,1,.931.592c.576.41,1.429.977,2.5,1.647a48.327,48.327,0,0,0,18.352,6.831c1.247.193,2.263.321,2.967.388a5.3,5.3,0,0,1,1.092.161" fill="#fff"/><path d="M474.661,75s.059-.324.2-.95c.122-.63.383-1.549.586-2.783A60.307,60.307,0,0,0,476.493,60.4a59.319,59.319,0,0,0-.5-7.875,57.723,57.723,0,0,0-1.919-9.181,60.409,60.409,0,0,0-10.43-20.211A59.51,59.51,0,0,0,442.137,6.055,60.614,60.614,0,0,0,419.458.46a63.549,63.549,0,0,0-8.282.2,59.751,59.751,0,0,0-32.027,13.163,58.579,58.579,0,0,0-6.664,6.35A55.634,55.634,0,0,0,366.8,27.6a59.581,59.581,0,0,0-9.443,36.408c.083,1.572.293,3.126.485,4.675.264,1.539.511,3.075.878,4.581a58.689,58.689,0,0,0,2.739,8.791,59.755,59.755,0,0,0,21.6,27.072,63.561,63.561,0,0,0,7.143,4.2,60.552,60.552,0,0,0,22.542,6.128,59.521,59.521,0,0,0,27.1-4.474,60.414,60.414,0,0,0,18.934-12.6,57.7,57.7,0,0,0,6.138-7.092,59.376,59.376,0,0,0,4.258-6.642,60.413,60.413,0,0,0,4.363-10.007c.422-1.177.64-2.108.84-2.717.184-.614.289-.926.289-.926s-.3,1.282-1.044,3.671a58.318,58.318,0,0,1-8.535,16.746,57.638,57.638,0,0,1-6.134,7.144,60.518,60.518,0,0,1-18.986,12.712,59.757,59.757,0,0,1-27.246,4.553,60.91,60.91,0,0,1-22.7-6.137,63.877,63.877,0,0,1-7.2-4.222,60.117,60.117,0,0,1-21.773-27.248,59.048,59.048,0,0,1-2.763-8.854c-.371-1.517-.62-3.065-.886-4.615-.194-1.561-.407-3.126-.49-4.71a59.966,59.966,0,0,1,9.513-36.679,55.949,55.949,0,0,1,5.733-7.478,59.01,59.01,0,0,1,6.715-6.395A60.13,60.13,0,0,1,411.137.252a64.074,64.074,0,0,1,8.34-.194A60.935,60.935,0,0,1,442.293,5.72a59.757,59.757,0,0,1,21.6,17.214A60.5,60.5,0,0,1,474.317,43.27a57.632,57.632,0,0,1,1.891,9.224,58.385,58.385,0,0,1-.676,18.787c-.507,2.451-.871,3.716-.871,3.716" fill="#263238"/><path d="M300.592,405.984H117.463V54.944H362.686v288.27" fill="#fff"/><path d="M362.686,343.214s-.013-.455-.019-1.35-.01-2.232-.018-3.989c-.008-3.524-.02-8.741-.035-15.538-.015-13.605-.037-33.527-.065-58.818-.023-50.592-.055-122.658-.094-208.574l.231.231-245.224.029.261-.26v.312c-.025,134.946-.048,258.181-.065,350.727l-.2-.2,133.877.086,36.506.053,9.506.027c2.142.01,3.241.029,3.241.029s-1.1.02-3.241.029l-9.506.028-36.506.052-133.877.087h-.195v-.2c-.017-92.546-.04-215.781-.065-350.727v-.573h.26l245.224.03h.231v.231c-.039,85.916-.071,157.982-.094,208.574-.028,25.291-.05,45.213-.065,58.818-.015,6.8-.027,12.015-.035,15.538-.008,1.757-.014,3.09-.018,3.989s-.019,1.35-.019,1.35" fill="#263238"/><rect width="107.105" height="57.737" transform="translate(132.969 76.718)" fill="#ff725e"/><path d="M343.154,90.052c0,.145-19.257.261-43.007.261s-43.011-.116-43.011-.261,19.253-.259,43.011-.259,43.007.116,43.007.259" fill="#263238"/><path d="M343.154,100.408c0,.144-19.257.26-43.007.26s-43.011-.116-43.011-.26,19.253-.26,43.011-.26,43.007.116,43.007.26" fill="#263238"/><path d="M343.154,110.764c0,.144-19.257.26-43.007.26s-43.011-.116-43.011-.26,19.253-.26,43.011-.26,43.007.116,43.007.26" fill="#263238"/><path d="M308.927,121.12c0,.144-11.6.26-25.894.26s-25.9-.116-25.9-.26,11.592-.26,25.9-.26,25.894.116,25.894.26" fill="#263238"/><path d="M346.436,146.137c0,.144-47.525.26-106.136.26-58.632,0-106.146-.116-106.146-.26s47.514-.26,106.146-.26c58.611,0,106.136.116,106.136.26" fill="#263238"/><path d="M346.436,152.517c0,.144-47.005.26-104.976.26-57.991,0-104.986-.116-104.986-.26s46.995-.26,104.986-.26c57.971,0,104.976.116,104.976.26" fill="#263238"/><rect width="212.282" height="12.318" transform="translate(134.154 162.81)" fill="#e0e0e0"/><rect width="212.282" height="12.318" transform="translate(131.869 275.72)" fill="#e0e0e0"/><rect width="84.663" height="12.318" transform="translate(134.154 215.049)" fill="#e0e0e0"/><rect width="105.849" height="12.318" transform="translate(238.302 215.049)" fill="#e0e0e0"/><path d="M256.811,186.013c0,.144-27.242.26-60.84.26s-60.846-.116-60.846-.26,27.237-.26,60.846-.26,60.84.116,60.84.26" fill="#263238"/><path d="M345.252,195.705c0,.144-47.093.26-105.173.26-58.1,0-105.183-.116-105.183-.26s47.084-.26,105.183-.26c58.08,0,105.173.116,105.173.26" fill="#263238"/><path d="M345.252,204.887c0,.144-47.093.26-105.173.26-58.1,0-105.183-.116-105.183-.26s47.084-.26,105.183-.26c58.08,0,105.173.116,105.173.26" fill="#263238"/><path d="M218.08,234.883c0,.144-18.939.26-42.295.26s-42.3-.116-42.3-.26,18.934-.26,42.3-.26,42.295.116,42.295.26" fill="#263238"/><path d="M218.08,244.344c0,.144-18.624.26-41.593.26s-41.6-.116-41.6-.26,18.62-.26,41.6-.26,41.593.116,41.593.26" fill="#263238"/><path d="M217.735,253.961c0,.144-18.784.26-41.95.26s-41.953-.116-41.953-.26,18.779-.26,41.953-.26,41.95.116,41.95.26" fill="#263238"/><path d="M217.735,263.3c0,.144-18.784.26-41.95.26s-41.953-.116-41.953-.26,18.779-.26,41.953-.26,41.95.116,41.95.26" fill="#263238"/><path d="M342.523,237.1c0,.144-19.616.26-43.807.26s-43.812-.116-43.812-.26,19.612-.26,43.812-.26,43.807.116,43.807.26" fill="#263238"/><path d="M248.177,240.119a14.364,14.364,0,0,1-.11-1.731c-.042-1.064-.093-2.542-.115-4.3l.225.225-6.033.035.26-.259h0v.819q0,.406,0,.806,0,.8-.007,1.56c-.009,1-.018,1.956-.026,2.846l-.225-.225c1.76.022,3.238.073,4.3.115a14.621,14.621,0,0,1,1.731.11,9.487,9.487,0,0,1-1.588.11c-1.048.042-2.586.093-4.445.115l-.223,0,0-.228c-.009-.89-.017-1.842-.026-2.846q0-.762-.007-1.56c0-.266,0-.535,0-.806v-.819h0l.261-.262,6.033.036h.228l0,.224c-.022,1.859-.073,3.4-.115,4.445a9.487,9.487,0,0,1-.11,1.588" fill="#263238"/><path d="M342.523,248.691c0,.144-19.616.26-43.807.26s-43.812-.116-43.812-.26,19.612-.26,43.812-.26,43.807.116,43.807.26" fill="#263238"/><path d="M248.177,251.707a14.364,14.364,0,0,1-.11-1.731c-.042-1.064-.093-2.542-.115-4.3l.225.225-6.033.035.26-.259h0v.819q0,.407,0,.806,0,.8-.007,1.56c-.009,1-.018,1.956-.026,2.846l-.225-.225c1.76.022,3.238.073,4.3.115a14.621,14.621,0,0,1,1.731.11,9.487,9.487,0,0,1-1.588.11c-1.048.043-2.586.093-4.445.115l-.223,0,0-.228c-.009-.89-.017-1.842-.026-2.846q0-.762-.007-1.56c0-.266,0-.535,0-.806v-.819h0l.261-.262,6.033.036h.228l0,.224c-.022,1.859-.073,3.4-.115,4.445a9.487,9.487,0,0,1-.11,1.588" fill="#263238"/><path d="M342.523,260.279c0,.144-19.616.26-43.807.26s-43.812-.116-43.812-.26,19.612-.26,43.812-.26,43.807.116,43.807.26" fill="#263238"/><path d="M248.177,263.3a14.364,14.364,0,0,1-.11-1.731c-.042-1.064-.093-2.542-.115-4.3l.225.225-6.033.035.26-.259h0v.819q0,.406,0,.807,0,.8-.007,1.559c-.009,1-.018,1.956-.026,2.846l-.225-.225c1.76.022,3.238.073,4.3.115a14.627,14.627,0,0,1,1.731.11,9.485,9.485,0,0,1-1.588.11c-1.048.042-2.586.093-4.445.115l-.223,0,0-.228c-.009-.89-.017-1.842-.026-2.846q0-.762-.007-1.559c0-.267,0-.536,0-.807v-.819h0l.261-.262,6.033.036h.228l0,.224c-.022,1.859-.073,3.4-.115,4.445a9.486,9.486,0,0,1-.11,1.588" fill="#263238"/><path d="M342.523,356.1s-.011-.339-.016-.988-.009-1.619-.017-2.885c-.009-2.544-.022-6.3-.039-11.178-.02-9.754-.05-24-.088-42.013l.16.16-209.013.1H133.5l.26-.26c0,19.634,0,38.772-.006,57.064l-.254-.254,149.28.115,43.847.073,11.792.033,3.057.017c.69.005,1.05.016,1.05.016s-.338.011-1.017.016l-3.027.017-11.736.033-43.789.072-149.457.116h-.255V356.1c0-18.292,0-37.43-.006-57.064v-.261h.274l209.013.1h.16v.16c-.038,18.054-.068,32.332-.088,42.109-.017,4.864-.03,8.606-.039,11.142q-.01,1.879-.017,2.856c-.005.64-.016.957-.016.957" fill="#263238"/><path d="M342.523,313.4c0,.144-46.665.26-104.216.26-57.571,0-104.226-.116-104.226-.26s46.655-.26,104.226-.26c57.551,0,104.216.116,104.216.26" fill="#263238"/><path d="M342.523,327.566c0,.144-46.665.261-104.216.261-57.571,0-104.226-.117-104.226-.261s46.655-.26,104.226-.26c57.551,0,104.216.116,104.216.26" fill="#263238"/><path d="M342.523,341.891c0,.144-46.665.261-104.216.261-57.571,0-104.226-.117-104.226-.261s46.655-.26,104.226-.26c57.551,0,104.216.116,104.216.26" fill="#263238"/><path d="M157.793,356.6c-.144,0-.26-12.908-.26-28.826s.116-28.829.26-28.829.26,12.9.26,28.829-.116,28.826-.26,28.826" fill="#263238"/><path d="M228.477,354.863c-.144,0-.26-12.325-.26-27.526s.116-27.528.26-27.528.26,12.322.26,27.528-.116,27.526-.26,27.526" fill="#263238"/><path d="M302.956,357.464c-.144,0-.26-12.714-.26-28.393s.116-28.4.26-28.4.26,12.71.26,28.4-.116,28.393-.26,28.393" fill="#263238"/><path d="M300.592,405.984l62.094-62.77H300.592Z" fill="#e0e0e0"/><path d="M300.592,405.984c-.008-2.1-.1-25.949-.237-62.77v-.237h.238l43.8-.023,18.29,0h.617l-.434.437-44.481,44.755-17.8,17.835,17.822-18.171,44.09-44.78.182.437-18.29,0-43.8-.023.237-.237c-.139,36.821-.229,60.674-.237,62.77" fill="#263238"/><path d="M297.522,368.888c0,.144-36.5.26-81.512.26-45.029,0-81.52-.116-81.52-.26s36.491-.26,81.52-.26c45.013,0,81.512.116,81.512.26" fill="#263238"/><path d="M297.522,377.136c0,.144-36.5.26-81.512.26-45.029,0-81.52-.116-81.52-.26s36.491-.26,81.52-.26c45.013,0,81.512.116,81.512.26" fill="#263238"/><path d="M208.678,385.384c0,.144-16.609.26-37.092.26s-37.1-.116-37.1-.26,16.606-.26,37.1-.26,37.092.116,37.092.26" fill="#263238"/><path d="M157.557,97.291h-9.371V92.848h23.992v4.443h-9.371v23.83h-5.25Z" fill="#fff"/><path d="M193.058,114.578H178.921l-2.786,6.543h-5.413l12.723-28.273h5.17l12.763,28.273h-5.493Zm-1.737-4.12L185.99,98.1,180.7,110.458Z" fill="#fff"/><path d="M221.368,121.121l-7.674-10.744L206.1,121.121h-5.978l10.5-14.42-9.936-13.853h5.937l7.23,10.057L221,92.848h5.7L216.8,106.5l10.622,14.621Z" fill="#fff"/><path d="M348.389,67.169c0,.144-48.21.26-107.667.26-59.477,0-107.677-.116-107.677-.26s48.2-.26,107.677-.26c59.457,0,107.667.116,107.667.26" fill="#e0e0e0"/><path d="M241.455,71.084c0,.144-24.271.26-54.2.26s-54.207-.116-54.207-.26,24.265-.26,54.207-.26,54.2.116,54.2.26" fill="#e0e0e0"/><path d="M363.2,416.479H115.718A10.877,10.877,0,0,1,104.841,405.6V45.209a10.877,10.877,0,0,1,10.877-10.877H363.2A10.877,10.877,0,0,1,374.08,45.209V405.6A10.877,10.877,0,0,1,363.2,416.479" fill="#e0e0e0"/><path d="M363.2,416.479s.28-.023.833-.055a11.721,11.721,0,0,0,2.424-.471,11.216,11.216,0,0,0,3.558-1.93,10.924,10.924,0,0,0,3.265-4.5,10.345,10.345,0,0,0,.706-3.288c.062-1.187.014-2.451.026-3.768q-.006-3.96-.012-8.653c-.007-6.254-.015-13.468-.024-21.59-.02-32.494-.048-79.507-.083-137.6-.01-29.047-.02-60.863-.032-95.018q-.006-25.617-.013-52.934,0-13.646-.006-27.682-.009-7.012-.019-14.119a10.6,10.6,0,0,0-8.268-10.033,14.933,14.933,0,0,0-3.532-.27H351.142l-14.664,0-29.829,0-61.524.006-129.376.006a10.616,10.616,0,0,0-10.621,10.092c-.054,5.481-.015,10.991-.027,16.458q0,16.417,0,32.611,0,32.381,0,63.758c0,41.8-.011,82.121-.015,120.53s-.017,74.908-.024,109.066q0,6.4,0,12.7c.01,2.094-.025,4.2.022,6.256a10.568,10.568,0,0,0,1.93,5.683,10.8,10.8,0,0,0,4.648,3.72,11.438,11.438,0,0,0,2.893.74c.985.087,2,.067,3.014.068l12.01,0,45.594.017,137.589.083,37.407.049,9.729.025c2.191.009,3.314.027,3.314.027s-1.123.018-3.314.027l-9.729.025-37.407.049-137.589.083-45.594.017-12.01,0c-1.009,0-2.02.021-3.059-.069a11.881,11.881,0,0,1-3.006-.767,11.2,11.2,0,0,1-4.831-3.862,11,11,0,0,1-2.01-5.9c-.048-2.1-.014-4.172-.026-6.274q0-6.294,0-12.7c-.008-34.158-.016-70.656-.024-109.066s-.01-78.729-.015-120.53q0-31.35,0-63.758,0-16.191,0-32.611c.012-5.478-.028-10.951.027-16.483a11.137,11.137,0,0,1,11.141-10.588l129.376.005,61.524.006,29.829.005,14.664,0h10.884a15.425,15.425,0,0,1,3.638.283A11.074,11.074,0,0,1,374.3,44.861q.008,7.113.015,14.134,0,14.034-.006,27.682-.006,27.291-.013,52.934c-.011,34.155-.022,65.971-.032,95.018-.035,58.09-.063,105.1-.083,137.6-.009,8.122-.017,15.336-.024,21.59q-.006,4.69-.012,8.653c-.016,1.32.028,2.575-.038,3.775a10.482,10.482,0,0,1-.726,3.32,10.988,10.988,0,0,1-3.313,4.521A11.2,11.2,0,0,1,366.476,416a11.353,11.353,0,0,1-2.438.446c-.555.024-.835.029-.835.029" fill="#263238"/><g opacity="0.3"><g clip-path="url(#i)"><path d="M128.33,407.844H308.464l43.355-47V335.827L128.33,370.748Z"/></g></g><g opacity="0.3"><g clip-path="url(#j)"><path d="M307.4,35.113l5.135,15.229V57.8h-5.79Z"/></g></g><path d="M299.978,400.684H116.849V49.645H362.072V337.914" fill="#fff"/><path d="M362.072,337.913s-.013-.455-.019-1.35-.01-2.232-.018-3.989c-.008-3.523-.02-8.741-.035-15.538-.015-13.605-.037-33.527-.065-58.818-.023-50.592-.055-122.658-.094-208.574l.231.231L116.849,49.9l.26-.26v.312c-.025,134.946-.048,258.181-.065,350.727l-.195-.2,133.876.086,36.506.052,9.506.028c2.142.01,3.241.029,3.241.029s-1.1.02-3.241.029l-9.506.028-36.506.053-133.876.086h-.2v-.2c-.017-92.546-.04-215.781-.065-350.727v-.573h.261l245.223.03h.231v.231c-.039,85.916-.071,157.982-.094,208.574-.028,25.291-.05,45.213-.065,58.818-.015,6.8-.027,12.015-.035,15.538-.008,1.757-.014,3.09-.018,3.989s-.019,1.35-.019,1.35" fill="#263238"/><rect width="107.105" height="57.737" transform="translate(132.355 71.417)" fill="#f14141"/><path d="M342.54,84.752c0,.144-19.257.26-43.007.26s-43.011-.116-43.011-.26,19.253-.26,43.011-.26,43.007.116,43.007.26" fill="#263238"/><path d="M342.54,95.108c0,.144-19.257.26-43.007.26s-43.011-.116-43.011-.26,19.253-.26,43.011-.26,43.007.116,43.007.26" fill="#263238"/><path d="M342.54,105.464c0,.144-19.257.26-43.007.26s-43.011-.116-43.011-.26,19.253-.26,43.011-.26,43.007.116,43.007.26" fill="#263238"/><path d="M308.313,115.82c0,.144-11.6.26-25.894.26s-25.9-.116-25.9-.26,11.592-.26,25.9-.26,25.894.116,25.894.26" fill="#263238"/><path d="M345.822,140.836c0,.144-47.525.26-106.136.26-58.631,0-106.146-.116-106.146-.26s47.515-.26,106.146-.26c58.611,0,106.136.116,106.136.26" fill="#263238"/><path d="M345.822,147.216c0,.144-47.005.26-104.976.26-57.991,0-104.986-.116-104.986-.26s46.995-.26,104.986-.26c57.971,0,104.976.116,104.976.26" fill="#263238"/><rect width="212.282" height="12.318" transform="translate(133.54 157.51)" fill="#e0e0e0"/><rect width="212.282" height="12.318" transform="translate(131.254 270.42)" fill="#e0e0e0"/><rect width="84.663" height="12.318" transform="translate(133.54 209.749)" fill="#e0e0e0"/><rect width="105.849" height="12.318" transform="translate(237.687 209.749)" fill="#e0e0e0"/><path d="M256.2,180.712c0,.144-27.242.26-60.84.26s-60.846-.116-60.846-.26,27.237-.26,60.846-.26,60.84.116,60.84.26" fill="#263238"/><path d="M344.638,190.4c0,.144-47.094.26-105.173.26-58.1,0-105.183-.116-105.183-.26s47.083-.26,105.183-.26c58.079,0,105.173.116,105.173.26" fill="#263238"/><path d="M344.638,199.586c0,.144-47.094.261-105.173.261-58.1,0-105.183-.117-105.183-.261s47.083-.26,105.183-.26c58.079,0,105.173.116,105.173.26" fill="#263238"/><path d="M217.466,229.583c0,.144-18.939.26-42.295.26s-42.3-.116-42.3-.26,18.934-.26,42.3-.26,42.295.116,42.295.26" fill="#263238"/><path d="M217.466,239.044c0,.144-18.624.26-41.593.26s-41.6-.116-41.6-.26,18.62-.26,41.6-.26,41.593.116,41.593.26" fill="#263238"/><path d="M217.12,248.66c0,.144-18.784.26-41.95.26s-41.953-.116-41.953-.26,18.779-.26,41.953-.26,41.95.116,41.95.26" fill="#263238"/><path d="M217.12,258c0,.144-18.784.26-41.95.26s-41.953-.116-41.953-.26,18.779-.26,41.953-.26,41.95.116,41.95.26" fill="#263238"/><path d="M341.909,231.8c0,.144-19.617.26-43.807.26s-43.812-.116-43.812-.26,19.611-.26,43.812-.26,43.807.116,43.807.26" fill="#263238"/><path d="M247.562,234.818a14.469,14.469,0,0,1-.111-1.731c-.041-1.064-.092-2.542-.114-4.3l.225.225-6.033.035.26-.259h0v.819q0,.406,0,.806,0,.8-.007,1.56c-.009,1-.018,1.956-.026,2.846l-.225-.225c1.76.022,3.238.073,4.3.115a14.629,14.629,0,0,1,1.731.11,9.478,9.478,0,0,1-1.587.11c-1.049.043-2.587.093-4.446.115l-.223,0,0-.228c-.009-.89-.017-1.842-.027-2.846q0-.762-.006-1.56c0-.266,0-.535,0-.806v-.819h0l.261-.262,6.033.036h.228l0,.224c-.022,1.859-.073,3.4-.115,4.445a9.629,9.629,0,0,1-.11,1.588" fill="#263238"/><path d="M341.909,243.39c0,.144-19.617.26-43.807.26s-43.812-.116-43.812-.26,19.611-.26,43.812-.26,43.807.116,43.807.26" fill="#263238"/><path d="M247.562,246.407a14.469,14.469,0,0,1-.111-1.731c-.041-1.064-.092-2.542-.114-4.3l.225.225-6.033.035.26-.259h0v.819q0,.406,0,.806,0,.8-.007,1.56c-.009,1-.018,1.956-.026,2.846l-.225-.225c1.76.022,3.238.073,4.3.115a14.621,14.621,0,0,1,1.731.11,9.48,9.48,0,0,1-1.587.11c-1.049.043-2.587.093-4.446.115l-.223,0,0-.228c-.009-.89-.017-1.842-.027-2.846q0-.762-.006-1.56c0-.266,0-.535,0-.806v-.819h0l.261-.262,6.033.036h.228l0,.224c-.022,1.859-.073,3.4-.115,4.445a9.63,9.63,0,0,1-.11,1.588" fill="#263238"/><path d="M341.909,254.979c0,.144-19.617.26-43.807.26s-43.812-.116-43.812-.26,19.611-.26,43.812-.26,43.807.116,43.807.26" fill="#263238"/><path d="M247.562,258a14.47,14.47,0,0,1-.111-1.731c-.041-1.064-.092-2.542-.114-4.3l.225.225-6.033.035.26-.259h0v.819q0,.406,0,.807,0,.8-.007,1.559c-.009,1-.018,1.956-.026,2.846l-.225-.225c1.76.022,3.238.073,4.3.115a14.623,14.623,0,0,1,1.731.11,9.481,9.481,0,0,1-1.587.11c-1.049.043-2.587.093-4.446.115l-.223,0,0-.228c-.009-.89-.017-1.842-.027-2.846q0-.762-.006-1.559c0-.267,0-.536,0-.807v-.819h0l.261-.262,6.033.036h.228l0,.224c-.022,1.859-.073,3.4-.115,4.445a9.63,9.63,0,0,1-.11,1.588" fill="#263238"/><path d="M341.909,350.8s-.011-.339-.016-.988-.01-1.619-.017-2.885c-.009-2.544-.022-6.3-.039-11.178-.02-9.754-.05-24-.088-42.013l.16.16-209.014.1h-.012l.26-.26c0,19.634,0,38.772-.006,57.064l-.254-.254,149.28.115,43.847.073,11.792.033,3.057.016c.69.006,1.05.017,1.05.017s-.338.011-1.017.016l-3.027.017-11.736.033-43.789.072-149.457.116h-.255V350.8c0-18.292,0-37.43-.006-57.064v-.261h.273l209.014.1h.16v.16c-.038,18.054-.068,32.333-.088,42.109-.017,4.864-.03,8.606-.039,11.142q-.012,1.88-.017,2.856c0,.64-.016.957-.016.957" fill="#263238"/><path d="M341.909,308.1c0,.144-46.666.26-104.216.26-57.571,0-104.226-.116-104.226-.26s46.655-.26,104.226-.26c57.55,0,104.216.116,104.216.26" fill="#263238"/><path d="M341.909,322.266c0,.144-46.666.26-104.216.26-57.571,0-104.226-.116-104.226-.26s46.655-.26,104.226-.26c57.55,0,104.216.116,104.216.26" fill="#263238"/><path d="M341.909,336.591c0,.144-46.666.26-104.216.26-57.571,0-104.226-.116-104.226-.26s46.655-.26,104.226-.26c57.55,0,104.216.116,104.216.26" fill="#263238"/><path d="M157.179,351.3c-.144,0-.26-12.908-.26-28.826s.116-28.829.26-28.829.26,12.9.26,28.829-.116,28.826-.26,28.826" fill="#263238"/><path d="M227.863,349.563c-.144,0-.26-12.325-.26-27.526s.116-27.528.26-27.528.26,12.322.26,27.528-.116,27.526-.26,27.526" fill="#263238"/><path d="M302.341,352.164c-.144,0-.26-12.714-.26-28.393s.116-28.395.26-28.395.26,12.71.26,28.395-.116,28.393-.26,28.393" fill="#263238"/><path d="M299.978,400.684l62.094-62.77H299.978Z" fill="#e0e0e0"/><path d="M299.978,400.684c-.008-2.1-.1-25.949-.237-62.77v-.237h.238l43.8-.023,18.29,0h.617l-.435.437-44.48,44.755-17.8,17.835L317.8,382.513l44.09-44.78.182.437-18.29,0-43.8-.023.237-.237c-.139,36.821-.229,60.674-.237,62.77" fill="#263238"/><path d="M296.908,363.588c0,.144-36.5.26-81.512.26-45.029,0-81.52-.116-81.52-.26s36.491-.26,81.52-.26c45.013,0,81.512.116,81.512.26" fill="#263238"/><path d="M296.908,371.836c0,.144-36.5.26-81.512.26-45.029,0-81.52-.116-81.52-.26s36.491-.26,81.52-.26c45.013,0,81.512.116,81.512.26" fill="#263238"/><path d="M208.064,380.084c0,.144-16.609.26-37.092.26s-37.1-.116-37.1-.26,16.606-.26,37.1-.26,37.092.116,37.092.26" fill="#263238"/><path d="M347.774,61.868c0,.144-48.21.26-107.667.26-59.477,0-107.677-.116-107.677-.26s48.2-.26,107.677-.26c59.457,0,107.667.116,107.667.26" fill="#e0e0e0"/><path d="M240.841,65.784c0,.144-24.27.26-54.2.26s-54.207-.116-54.207-.26,24.265-.26,54.207-.26,54.2.116,54.2.26" fill="#e0e0e0"/><path d="M307.4,60.8H183.322V31.14a6.325,6.325,0,0,1,6.325-6.325H301.072A6.325,6.325,0,0,1,307.4,31.14Z" fill="#263238"/><path d="M261.149,11.281h-31.58l3.691,27.068h23.788Z" fill="#263238"/><path d="M299.427,24.815c0,.144-24.209.26-54.065.26s-54.07-.116-54.07-.26,24.2-.26,54.07-.26,54.065.116,54.065.26" fill="#455a64"/><path d="M186.1,55c-.144,0-.26-5.09-.26-11.369s.116-11.369.26-11.369.26,5.089.26,11.369S186.242,55,186.1,55" fill="#455a64"/><path d="M303.381,52.3a102.5,102.5,0,0,1-.26-10.321,102.517,102.517,0,0,1,.26-10.322,102.534,102.534,0,0,1,.26,10.322,102.521,102.521,0,0,1-.26,10.321" fill="#455a64"/><path d="M297.4,57.09c0,.144-24.85.26-55.5.26s-55.5-.116-55.5-.26,24.845-.259,55.5-.259,55.5.116,55.5.259" fill="#455a64"/><path d="M153.315,416.67l-97.021-.058a21.133,21.133,0,0,1-21.122-21.137l.048-243.234a21.134,21.134,0,0,1,21.146-21.13l97.022.057a21.134,21.134,0,0,1,21.121,21.138l-.048,243.234a21.134,21.134,0,0,1-21.146,21.13" fill="#263238"/><path d="M153.284,139.77l-18.811-.011a4.673,4.673,0,0,0-4.568,4.772v3.413a4.672,4.672,0,0,1-4.568,4.772l-36.667-.022a4.677,4.677,0,0,1-4.567-4.777V144.5a4.676,4.676,0,0,0-4.567-4.777l-6.615,0-16.464-.01a14.8,14.8,0,0,0-14.81,14.8L41.6,391.925A14.8,14.8,0,0,0,56.393,406.73l96.827.057a14.8,14.8,0,0,0,14.81-14.8l.046-237.414a14.8,14.8,0,0,0-14.792-14.8" fill="#fff"/><path d="M155.347,406.787H54.33A12.729,12.729,0,0,1,41.6,394.058V238H168.076V394.058a12.729,12.729,0,0,1-12.729,12.729" fill="#f5f5f5"/><rect width="95.53" height="35.251" transform="translate(41.601 237.689)" fill="#e0e0e0"/><path d="M156.814,406.787a11.263,11.263,0,0,0,11.262-11.263V238H137.13V406.787Z" fill="#f14141"/><path d="M165.174,273.25c0,.144-28,.26-62.542.26s-62.549-.116-62.549-.26,28-.26,62.549-.26,62.542.116,62.542.26" fill="#263238"/><path d="M165.174,307.546c0,.144-28,.26-62.542.26s-62.549-.116-62.549-.26,28-.26,62.549-.26,62.542.116,62.542.26" fill="#263238"/><path d="M165.174,343.861c0,.144-28,.26-62.542.26s-62.549-.116-62.549-.26,28-.26,62.549-.26,62.542.116,62.542.26" fill="#263238"/><path d="M165.174,378.157c0,.144-28,.26-62.542.26s-62.549-.116-62.549-.26,28-.26,62.549-.26,62.542.116,62.542.26" fill="#263238"/><path d="M72.547,378.157c-.144,0-.26-31.27-.26-69.833,0-38.578.116-69.84.26-69.84s.26,31.262.26,69.84c0,38.563-.116,69.833-.26,69.833" fill="#263238"/><path d="M104.839,406.852c-.144,0-.26-37.694-.26-84.18,0-46.5.116-84.188.26-84.188s.26,37.685.26,84.188c0,46.486-.116,84.18-.26,84.18" fill="#263238"/><path d="M137.131,406.787c-.144,0-.26-37.679-.26-84.148,0-46.484.116-84.155.26-84.155s.26,37.671.26,84.155c0,46.469-.116,84.148-.26,84.148" fill="#263238"/><path d="M61.371,285.727v1.144L56.612,297.5H54.83l4.658-10.308H54.107v2.1H52.493v-3.564Z" fill="#263238"/><path d="M93.763,294.169c0,2.134-1.817,3.463-4.692,3.463-2.859,0-4.658-1.329-4.658-3.463a2.917,2.917,0,0,1,2.068-2.842,2.661,2.661,0,0,1-1.648-2.539c0-1.968,1.7-3.2,4.238-3.2,2.556,0,4.271,1.228,4.271,3.2a2.677,2.677,0,0,1-1.665,2.539,2.928,2.928,0,0,1,2.086,2.842m-1.682-.051c0-1.3-1.144-2.1-3.01-2.1s-2.976.807-2.976,2.1c0,1.328,1.11,2.152,2.976,2.152s3.01-.824,3.01-2.152M86.5,288.855c0,1.16.958,1.883,2.573,1.883,1.631,0,2.623-.723,2.623-1.883,0-1.178-1.042-1.9-2.623-1.9s-2.573.722-2.573,1.9" fill="#263238"/><path d="M125.582,291.46c0,4.02-2.27,6.172-5.566,6.172a5.67,5.67,0,0,1-2.925-.689l.639-1.312a4.136,4.136,0,0,0,2.27.555c2.387,0,3.9-1.5,3.9-4.439v-.42a3.93,3.93,0,0,1-3.4,1.546c-2.337,0-4.019-1.395-4.019-3.565,0-2.27,1.816-3.716,4.153-3.716,3.162,0,4.944,2.119,4.944,5.868m-2.068-2.236c0-1.21-.975-2.27-2.808-2.27a2.316,2.316,0,0,0-2.59,2.288c0,1.378,1.026,2.269,2.674,2.269a2.448,2.448,0,0,0,2.724-2.287" fill="#263238"/><path d="M115.858,253.549a2.508,2.508,0,1,1,2.5,2.774,2.5,2.5,0,0,1-2.5-2.774m3.55,0c0-1.078-.417-1.6-1.049-1.6s-1.049.532-1.049,1.6.431,1.6,1.049,1.6,1.049-.518,1.049-1.6m4.945-2.659h1.71l-6.87,10.061h-1.711Zm-1.653,7.4a2.508,2.508,0,1,1,2.487,2.775,2.5,2.5,0,0,1-2.487-2.775m3.536,0c0-1.063-.417-1.6-1.049-1.6s-1.05.518-1.05,1.6.432,1.6,1.05,1.6,1.049-.532,1.049-1.6" fill="#263238"/><path d="M52.875,255.894a5.116,5.116,0,0,1,5.361-5.173A5,5,0,0,1,62.08,252.3l-.94.91a3.746,3.746,0,0,0-2.847-1.2,3.888,3.888,0,1,0,0,7.774,3.763,3.763,0,0,0,2.847-1.213l.94.91a5.022,5.022,0,0,1-3.859,1.589,5.112,5.112,0,0,1-5.346-5.173" fill="#263238"/><path d="M63.035,330.08H60.8v2.893H59.168V330.08H52.627V328.9l6.019-7.7h1.817L54.7,328.635h4.523v-2.557H60.8v2.557h2.236Z" fill="#263238"/><path d="M92.737,329.442c0,2.035-1.446,3.666-4.456,3.666a6.739,6.739,0,0,1-4.322-1.43l.774-1.328a5.286,5.286,0,0,0,3.531,1.261c1.783,0,2.791-.823,2.791-2.1,0-1.328-.841-2.152-3.565-2.152H84.817l.622-6.154h6.642v1.463H86.852l-.32,3.228h1.312c3.514,0,4.893,1.463,4.893,3.548" fill="#263238"/><path d="M125.936,329.391c0,2.27-1.833,3.716-4.17,3.716-3.162,0-4.944-2.119-4.944-5.869,0-4.018,2.27-6.171,5.566-6.171a5.667,5.667,0,0,1,2.926.69l-.639,1.311a4.085,4.085,0,0,0-2.253-.554c-2.388,0-3.918,1.5-3.918,4.439a3.837,3.837,0,0,0,.016.42,3.918,3.918,0,0,1,3.38-1.547c2.338,0,4.036,1.4,4.036,3.565m-1.631.067c0-1.379-1.042-2.27-2.69-2.27a2.443,2.443,0,0,0-2.708,2.287c0,1.21.976,2.27,2.791,2.27a2.33,2.33,0,0,0,2.607-2.287" fill="#263238"/><path d="M56.444,356v11.77H54.779V357.458H52.122V356Z" fill="#263238"/><path d="M92.754,366.3v1.463H84.3v-1.144L89.088,362c1.245-1.211,1.48-1.95,1.48-2.69,0-1.211-.858-1.95-2.5-1.95a3.7,3.7,0,0,0-3.01,1.277l-1.144-.992a5.43,5.43,0,0,1,4.305-1.782c2.455,0,4.036,1.261,4.036,3.279,0,1.143-.337,2.169-1.934,3.7l-3.6,3.464Z" fill="#263238"/><path d="M124.876,364.3c0,1.984-1.463,3.6-4.456,3.6a6.671,6.671,0,0,1-4.322-1.43l.774-1.328a5.3,5.3,0,0,0,3.548,1.261c1.766,0,2.774-.807,2.774-2.085,0-1.244-.891-2.052-2.909-2.052h-.941V361.09l2.959-3.632h-5.667v-1.463H124.4v1.144l-3.077,3.8c2.354.218,3.548,1.547,3.548,3.363" fill="#263238"/><path d="M66.815,392.417c0-3.833,2.051-6.02,4.809-6.02,2.741,0,4.793,2.187,4.793,6.02s-2.052,6.021-4.793,6.021c-2.758,0-4.809-2.187-4.809-6.021m7.92,0c0-3.01-1.278-4.522-3.111-4.522-1.849,0-3.127,1.512-3.127,4.522s1.278,4.523,3.127,4.523c1.833,0,3.111-1.512,3.111-4.523" fill="#263238"/><path d="M122.323,392.941a3.39,3.39,0,0,1-.286,1.211l-.79,2.337h-1.06l.622-2.505a1.069,1.069,0,0,1-.706-1.043,1.1,1.1,0,0,1,1.127-1.144,1.084,1.084,0,0,1,1.093,1.144" fill="#263238"/><rect width="11.482" height="1.208" transform="translate(147.302 389.469)" fill="#263238"/><rect width="11.482" height="1.209" transform="translate(147.302 393.111)" fill="#263238"/><rect width="8.597" height="0.905" transform="translate(148.744 360.793)" fill="#263238"/><path d="M157.784,362.141H148.3v-1.79h9.482Zm-8.6-.885,7.712-.021Z" fill="#263238"/><rect width="0.905" height="8.597" transform="translate(152.59 356.947)" fill="#263238"/><path d="M153.938,365.987h-1.789v-9.482h1.789Zm-.9-.885h.02l-.02-7.713Z" fill="#263238"/><path d="M157.028,288.244l-1.265-1.265-2.72,2.719-2.719-2.719-1.266,1.266,2.719,2.719-2.719,2.72,1.265,1.265,2.72-2.719,2.719,2.719,1.266-1.266-2.72-2.72Z" fill="#263238"/><rect width="8.597" height="0.905" transform="translate(148.744 326.753)" fill="#263238"/><path d="M157.784,328.1H148.3v-1.79h9.482Zm-8.6-.885,7.712-.021Z" fill="#263238"/><rect width="8.597" height="0.905" transform="translate(148.744 256.034)" fill="#263238"/><path d="M157.784,257.382H148.3v-1.79h9.482Zm-8.6-.885,7.712-.021Z" fill="#263238"/><path d="M154.485,251.757a1.442,1.442,0,1,1-1.442-1.442,1.443,1.443,0,0,1,1.442,1.442" fill="#263238"/><path d="M154.485,260.951a1.442,1.442,0,1,1-1.442-1.442,1.442,1.442,0,0,1,1.442,1.442" fill="#263238"/><path d="M93.145,253.976l-.767-.767-1.648,1.649-1.649-1.649-.767.767,1.648,1.649-1.648,1.648.767.767,1.648-1.648,1.649,1.648.767-.767L91.5,255.624Z" fill="#263238"/><path d="M95.15,260.279H86.9a1.467,1.467,0,0,1-1.073-.474l-2.9-3.15a1.529,1.529,0,0,1,0-2.061l2.9-3.149a1.46,1.46,0,0,1,1.073-.474H95.15a1.49,1.49,0,0,1,1.472,1.5v6.3a1.49,1.49,0,0,1-1.472,1.5M86.9,251.971a.454.454,0,0,0-.336.15l-2.9,3.151a.53.53,0,0,0,0,.705l2.9,3.15a.459.459,0,0,0,.337.152H95.15a.489.489,0,0,0,.472-.5v-6.3a.489.489,0,0,0-.472-.5Z" fill="#263238"/><path d="M100.05,201.684v20.924H98.525V203.059H93.414v-1.375Z" fill="#263238"/><path d="M119.717,201.684v1.076l-9,19.848h-1.673l8.907-19.549H106.206v4.005h-1.5v-5.38Z" fill="#263238"/><path d="M135.886,216.72c0,3.468-2.511,6.038-7.323,6.038-3.079,0-5.919-1.136-7.383-2.809l.777-1.166a8.921,8.921,0,0,0,6.606,2.57c3.766,0,5.769-1.793,5.769-4.633,0-2.81-1.913-4.634-6.1-4.634h-1.315v-1.1l6.187-7.922H121.957v-1.375h13.122v1.076L128.8,210.8c4.753.12,7.084,2.511,7.084,5.919" fill="#263238"/><path d="M154.835,216.87c0,3.646-3.019,5.889-7.951,5.889s-7.892-2.243-7.892-5.889c0-2.631,1.615-4.454,4.455-5.2a4.783,4.783,0,0,1-3.707-4.724c0-3.347,2.81-5.41,7.144-5.41s7.2,2.063,7.2,5.41c0,2.3-1.345,3.946-3.766,4.724,2.869.747,4.513,2.6,4.513,5.2m-1.524,0c0-2.781-2.392-4.544-6.427-4.544s-6.367,1.763-6.367,4.544c0,2.809,2.331,4.573,6.367,4.573s6.427-1.764,6.427-4.573m-6.427-5.8c3.557,0,5.679-1.585,5.679-4.066,0-2.57-2.212-4.155-5.679-4.155s-5.62,1.585-5.62,4.126c0,2.51,2.063,4.1,5.62,4.1" fill="#263238"/><path d="M295.26,300.193v41.026h9.348Z" fill="#263238"/><rect width="47.693" height="42.535" transform="translate(247.567 300.193)" fill="#fff"/><rect width="6.522" height="6.868" transform="translate(277.724 318.454)" fill="#f14141"/><path d="M251.855,339.217a3.382,3.382,0,0,1-.023-.469c-.006-.348-.013-.817-.023-1.415-.013-1.287-.031-3.123-.054-5.458-.026-4.789-.064-11.616-.11-19.914v-.209h.211l39.552-.051c-.053-.058.5.494.264.264v1.812q0,.907,0,1.808,0,1.8,0,3.575,0,3.547,0,6.974c-.006,4.562-.012,8.943-.017,13.083v.239h-.238l-28.609-.118-8.1-.063-2.132-.029-.541-.014a.728.728,0,0,1-.174-.014,1.261,1.261,0,0,1,.2-.014l.567-.014,2.18-.029,8.153-.063,28.453-.118-.237.238c-.006-4.14-.011-8.521-.017-13.083q0-3.423,0-6.974,0-1.775,0-3.575v-3.62c-.232-.235.317.312.257.257l-39.552-.051.209-.21c-.045,8.244-.083,15.026-.109,19.783-.023,2.355-.041,4.207-.054,5.505-.01.615-.018,1.1-.023,1.455a4.729,4.729,0,0,1-.023.513" fill="#263238"/><rect width="47.693" height="8.203" transform="translate(247.567 300.193)" fill="#f14141"/><path d="M247.567,342.728s-.016-.248-.025-.754q-.009-.8-.025-2.247c-.013-2.007-.033-4.91-.057-8.6-.028-7.474-.067-18.125-.114-30.937v-.221h.222l47.689-.039c-.052-.059.5.5.264.267v5.746q0,2.856,0,5.659,0,5.605-.006,10.967c-.008,7.137-.015,13.9-.023,20.156v.23h-.229l-34.6-.115-9.691-.061-2.543-.027-.645-.013a1.169,1.169,0,0,1-.21-.013,1.787,1.787,0,0,1,.236-.013l.67-.013,2.588-.027,9.743-.06,34.456-.116-.229.229c-.007-6.253-.015-13.019-.023-20.156q0-5.354-.006-10.967,0-2.8,0-5.659V300.2c-.233-.236.318.308.256.253l-47.689-.039.221-.221c-.047,12.754-.086,23.357-.114,30.8-.024,3.709-.044,6.628-.057,8.647q-.017,1.476-.026,2.289c-.008.521-.024.8-.024.8" fill="#263238"/><path d="M291.3,318.455c0,.144-8.8.26-19.655.26s-19.656-.116-19.656-.26,8.8-.26,19.656-.26,19.655.116,19.655.26" fill="#263238"/><path d="M291.3,325.322c0,.144-8.8.26-19.655.26s-19.656-.116-19.656-.26,8.8-.259,19.656-.259,19.655.115,19.655.259" fill="#263238"/><path d="M291.3,332.19c0,.144-8.8.26-19.655.26s-19.656-.116-19.656-.26,8.8-.26,19.656-.26,19.655.116,19.655.26" fill="#263238"/><path d="M258.293,339.147c-.144,0-.26-6.07-.26-13.557s.116-13.558.26-13.558.26,6.069.26,13.558-.116,13.557-.26,13.557" fill="#263238"/><path d="M264.748,339.147c-.144,0-.26-6.07-.26-13.557s.116-13.558.26-13.558.26,6.069.26,13.558-.116,13.557-.26,13.557" fill="#263238"/><path d="M271.27,339.147c-.144,0-.26-6.07-.26-13.557s.116-13.558.26-13.558.26,6.069.26,13.558-.116,13.557-.26,13.557" fill="#263238"/><path d="M277.725,339.147c-.144,0-.26-6.07-.26-13.557s.116-13.558.26-13.558.26,6.069.26,13.558-.116,13.557-.26,13.557" fill="#263238"/><path d="M284.246,339.147c-.144,0-.26-6.07-.26-13.557s.116-13.558.26-13.558.26,6.069.26,13.558-.116,13.557-.26,13.557" fill="#263238"/><rect width="3.529" height="1.609" transform="translate(287.179 312.608)" fill="#e0e0e0"/><rect width="3.529" height="1.609" transform="translate(287.231 319.563)" fill="#e0e0e0"/><rect width="3.529" height="1.609" transform="translate(287.231 326.517)" fill="#e0e0e0"/><rect width="3.529" height="1.609" transform="translate(287.309 333.471)" fill="#e0e0e0"/><rect width="3.529" height="1.609" transform="translate(273.322 312.608)" fill="#e0e0e0"/><rect width="3.529" height="1.609" transform="translate(273.374 319.563)" fill="#e0e0e0"/><rect width="3.529" height="1.609" transform="translate(273.374 326.517)" fill="#e0e0e0"/><rect width="3.529" height="1.609" transform="translate(273.452 333.471)" fill="#e0e0e0"/><rect width="3.529" height="1.609" transform="translate(260.4 312.608)" fill="#e0e0e0"/><rect width="3.529" height="1.609" transform="translate(260.452 319.563)" fill="#e0e0e0"/><rect width="3.529" height="1.609" transform="translate(260.452 326.517)" fill="#e0e0e0"/><rect width="3.529" height="1.609" transform="translate(260.53 333.471)" fill="#e0e0e0"/><rect width="3.529" height="1.609" transform="translate(267.147 312.608)" fill="#e0e0e0"/><rect width="3.529" height="1.609" transform="translate(267.198 319.563)" fill="#e0e0e0"/><rect width="3.529" height="1.609" transform="translate(267.198 326.517)" fill="#e0e0e0"/><rect width="3.529" height="1.609" transform="translate(267.276 333.471)" fill="#e0e0e0"/><rect width="3.529" height="1.609" transform="translate(254.068 312.608)" fill="#e0e0e0"/><rect width="3.529" height="1.609" transform="translate(254.12 319.563)" fill="#e0e0e0"/><rect width="3.529" height="1.609" transform="translate(254.12 326.517)" fill="#e0e0e0"/><rect width="3.529" height="1.609" transform="translate(254.198 333.471)" fill="#e0e0e0"/><rect width="3.529" height="1.609" transform="translate(279.732 312.608)" fill="#e0e0e0"/><rect width="3.529" height="1.609" transform="translate(279.784 326.517)" fill="#e0e0e0"/><rect width="3.529" height="1.609" transform="translate(279.784 333.471)" fill="#e0e0e0"/><path d="M277.376,318a125.21,125.21,0,0,1,6.986-7.044A29.4,29.4,0,0,1,277.376,318" fill="#f14141"/><path d="M285.833,318.643a70.3,70.3,0,0,1-9.037-8.056,70.519,70.519,0,0,1,9.037,8.056" fill="#f14141"/><path d="M253.5,303.909h0a.882.882,0,0,1-.882-.882v-5.162a.882.882,0,1,1,1.764,0v5.162a.882.882,0,0,1-.882.882" fill="#263238"/><path d="M259.252,303.909h0a.882.882,0,0,1-.882-.882v-5.162a.882.882,0,1,1,1.764,0v5.162a.882.882,0,0,1-.882.882" fill="#263238"/><path d="M265.026,303.909h0a.882.882,0,0,1-.882-.882v-5.162a.882.882,0,1,1,1.764,0v5.162a.882.882,0,0,1-.882.882" fill="#263238"/><path d="M270.8,303.909h0a.882.882,0,0,1-.882-.882v-5.162a.882.882,0,1,1,1.764,0v5.162a.882.882,0,0,1-.882.882" fill="#263238"/><path d="M276.573,303.909h0a.882.882,0,0,1-.882-.882v-5.162a.882.882,0,1,1,1.764,0v5.162a.882.882,0,0,1-.882.882" fill="#263238"/><path d="M282.347,303.909h0a.882.882,0,0,1-.882-.882v-5.162a.882.882,0,1,1,1.764,0v5.162a.882.882,0,0,1-.882.882" fill="#263238"/><path d="M288.12,303.909h0a.882.882,0,0,1-.882-.882v-5.162a.882.882,0,1,1,1.764,0v5.162a.882.882,0,0,1-.882.882" fill="#263238"/><rect width="131.97" height="10.727" transform="translate(178.285 341.22)" fill="#455a64"/><rect width="120.47" height="31.383" transform="translate(183.068 349.364)" fill="#455a64"/><rect width="10.435" height="68.435" transform="translate(183.068 348.404)" fill="#455a64"/><rect width="10.435" height="68.435" transform="translate(293.103 348.404)" fill="#455a64"/><path d="M310.414,351.947c0,.144-29.616.26-66.14.26s-66.147-.116-66.147-.26,29.609-.26,66.147-.26,66.14.116,66.14.26" fill="#263238"/><path d="M193.65,352.282c.144,0,.228,14.453.187,32.278s-.189,32.28-.333,32.28-.228-14.451-.187-32.281.189-32.277.333-32.277" fill="#263238"/><path d="M293.521,352.282c.143,0,.259,13.538.259,30.234s-.116,30.237-.259,30.237-.261-13.535-.261-30.237.116-30.234.261-30.234" fill="#263238"/><path d="M289.5,377.181s-.01-.135-.015-.385c0-.266-.009-.631-.016-1.1-.008-.987-.021-2.416-.037-4.265-.019-3.725-.048-9.14-.084-15.986l.152.152-92.345.108h-.006l.261-.26c0,7.447,0,14.728-.005,21.741l-.256-.256,65.825.115,19.438.074,5.246.034,1.367.016c.309.006.475.017.475.017s-.144.011-.442.017l-1.335.016-5.191.034-19.379.073-66,.116h-.255v-.256c0-7.013,0-14.294,0-21.741v-.261h.266l92.345.108h.153v.152c-.036,6.885-.065,12.33-.084,16.076-.016,1.835-.029,3.252-.037,4.231-.007.462-.012.818-.016,1.079-.005.24-.015.355-.015.355" fill="#263238"/><path d="M245,366.831c-.045,0-.055-.254-.187-.672a2.86,2.86,0,0,0-1.052-1.45,2.682,2.682,0,0,0-2.5-.332,2.62,2.62,0,0,0,0,4.908,2.679,2.679,0,0,0,2.505-.333,2.857,2.857,0,0,0,1.051-1.449c.132-.418.142-.673.187-.672a1.23,1.23,0,0,1,.009.721,2.839,2.839,0,0,1-1.024,1.693,3.021,3.021,0,0,1-2.892.491,3.078,3.078,0,0,1,0-5.81,3.022,3.022,0,0,1,2.892.491,2.84,2.84,0,0,1,1.024,1.693,1.23,1.23,0,0,1-.009.721" fill="#263238"/><path d="M256.061,323.39,266.5,333.429H245.87Z" fill="#e0e0e0"/><path d="M245.871,333.43l10.191-10.039H235.884Z" fill="#f5f5f5"/><path d="M197.15,333.43l8.89-12.236h28.692L225.9,333.43Z" fill="#f5f5f5"/><path d="M234.731,321.193l11.139,12.236H225.9Z" fill="#e0e0e0"/><path d="M266.5,333.43a5.905,5.905,0,0,1-.794-.67l-2.157-1.99-7.639-7.22h.31l-10.164,10.066-.192.191-.183-.2-.96-1.054-10.153-11.206.348-.02-6.48,8.817q-1.147,1.523-1.845,2.449a6.375,6.375,0,0,1-.692.839,6.471,6.471,0,0,1,.579-.92l1.744-2.522c1.567-2.211,3.739-5.272,6.329-8.926l.161-.226.189.206L245.1,332.2l.96,1.054-.375-.01L255.9,323.232l.156-.152.154.151,7.51,7.353,2.072,2.078a6.063,6.063,0,0,1,.7.768" fill="#263238"/><path d="M197.15,333.43a5.881,5.881,0,0,1,.593-.965l1.781-2.6,6.288-8.893.073-.1h.129l6.662-.012c6.03,0,11.488.029,15.439.076l4.679.083a10.841,10.841,0,0,1,1.715.1,10.838,10.838,0,0,1-1.715.1l-4.679.083c-3.951.047-9.409.076-15.439.076l-6.662-.012.2-.1-6.44,8.784-1.9,2.512a5.867,5.867,0,0,1-.728.869" fill="#263238"/><path d="M255.823,323.39a87.8,87.8,0,0,1-9.549.26,87.8,87.8,0,0,1-9.55-.26,87.782,87.782,0,0,1,9.55-.26,87.786,87.786,0,0,1,9.549.26" fill="#263238"/><path d="M222.613,329.659a81.238,81.238,0,0,1-9.185.26,81.209,81.209,0,0,1-9.185-.26,81.218,81.218,0,0,1,9.185-.26,81.247,81.247,0,0,1,9.185.26" fill="#263238"/><path d="M225.083,327.189a81.238,81.238,0,0,1-9.185.26,81.209,81.209,0,0,1-9.185-.26,81.218,81.218,0,0,1,9.185-.26,81.246,81.246,0,0,1,9.185.26" fill="#263238"/><path d="M227.553,324.719a81.238,81.238,0,0,1-9.185.26,81.209,81.209,0,0,1-9.185-.26,81.222,81.222,0,0,1,9.185-.26,81.251,81.251,0,0,1,9.185.26" fill="#263238"/><rect width="71.382" height="7.79" transform="translate(191.47 333.43)" fill="#f5f5f5"/><rect width="47.785" height="7.79" transform="translate(215.067 333.43)" fill="#e0e0e0"/><path d="M191.471,341.22a2.459,2.459,0,0,1-.042-.524c-.011-.389-.024-.892-.041-1.522-.017-1.384-.041-3.319-.071-5.744l0-.153h.156c7.1-.065,18.662-.106,31.7-.106l27.928.076,8.464.083,2.3.049a4.556,4.556,0,0,1,.8.052,4.681,4.681,0,0,1-.8.052l-2.3.049-8.464.083-27.928.076c-13.039,0-24.6-.041-31.7-.106l.154-.154c-.03,2.425-.054,4.36-.071,5.744-.017.63-.03,1.133-.041,1.522a2.457,2.457,0,0,1-.042.524" fill="#263238"/><rect width="9.166" height="59.696" transform="translate(353.588 357.798)" fill="#455a64"/><rect width="9.166" height="59.023" transform="translate(406.779 357.799)" fill="#455a64"/><rect width="48.607" height="8.125" transform="translate(359.797 379.005)" fill="#455a64"/><path d="M415.945,357.8a1.8,1.8,0,0,1,.019.3c0,.215.011.506.018.879.009.793.02,1.93.035,3.388.014,2.964.035,7.229.06,12.513.016,10.612.037,25.313.061,41.754v.19h-9.552v-.19c.065-16.331.123-30.911.164-41.429.039-5.237.069-9.462.091-12.4.018-1.443.033-2.569.043-3.354.009-.369.015-.658.02-.871a1.817,1.817,0,0,1,.02-.3,1.867,1.867,0,0,1,.018.3c0,.213.009.5.016.871.006.785.015,1.911.027,3.354.007,2.936.016,7.161.029,12.4-.011,10.518-.026,25.1-.042,41.429l-.193-.19h9.166l-.193.19c.024-16.441.046-31.142.061-41.754.025-5.284.046-9.549.06-12.513.015-1.458.026-2.6.035-3.388.008-.373.014-.664.018-.879a1.8,1.8,0,0,1,.019-.3" fill="#263238"/><path d="M353.689,360.329a1.783,1.783,0,0,1,.018.289c0,.209.01.491.017.851.007.768.016,1.868.029,3.279.009,2.872.021,7,.038,12.13,0,10.3-.006,24.58-.01,40.617l-.192-.193h9.166l-.193.193c.024-16.557.045-31.39.06-42.1.025-5.335.046-9.644.06-12.64.015-1.473.027-2.623.035-3.425.008-.377.014-.671.019-.889a1.7,1.7,0,0,1,.019-.3,1.841,1.841,0,0,1,.019.3c.005.218.011.512.018.889.009.8.02,1.952.036,3.425.014,3,.034,7.3.06,12.64.015,10.715.036,25.548.06,42.1v.192H353.4v-.193c.053-16.036.1-30.32.134-40.617.034-5.125.061-9.257.08-12.129.017-1.411.031-2.511.04-3.279.009-.36.015-.642.02-.851a1.693,1.693,0,0,1,.019-.289" fill="#263238"/><path d="M420.806,358.416H350.013a9.233,9.233,0,0,1-9.233-9.233v-9.737a9.233,9.233,0,0,1,9.233-9.233h70.793a9.233,9.233,0,0,1,9.233,9.233v9.737a9.233,9.233,0,0,1-9.233,9.233" fill="#455a64"/><path d="M356.9,358.416c0-.107,14.812-.193,33.08-.193s33.084.086,33.084.193-14.81.193-33.084.193-33.08-.086-33.08-.193" fill="#263238"/><g opacity="0.3"><g clip-path="url(#k)"><path d="M414.017,328.381l-37.1-1.258c-2.183-.074-4.579-.079-6.265,1.309-1.581,1.3-2.089,3.469-2.5,5.474q-2.82,13.639-5.639,27.278l1.181,2.022a35.177,35.177,0,0,0,15.226-20.049c.637-2.218,1.344-4.848,3.508-5.65a6.726,6.726,0,0,1,3.008-.154l8.768.881c4.205.423,8.566.829,12.56-.552s7.518-5.083,7.26-9.3"/></g></g><path d="M389.951,149.513a5.14,5.14,0,0,1,4.34-1.433,2.942,2.942,0,0,0,1.888-.012,4.139,4.139,0,0,0,.924-1.014,2.6,2.6,0,0,1,3.747-.01,3.072,3.072,0,0,0,.719.745c1.23.682,2.659-1.618,3.881-.924a2.946,2.946,0,0,0-1.411,1.056,1.338,1.338,0,0,0,.111,1.647c1.138,1.05,3.107-1.189,4.382-.31.687.474.755,1.664,1.561,1.88a2.84,2.84,0,0,0,.961-.047,2.144,2.144,0,0,1,2.232,1.9c.071.924-.422,2.04.255,2.674a2.005,2.005,0,0,0,1.641.274,5.57,5.57,0,0,1-.664,2.43,3.358,3.358,0,0,1,1.016,4.543,7.181,7.181,0,0,1,1.887,2.028,2.494,2.494,0,0,1-.046,2.637,2.259,2.259,0,0,0-.366.515,1.244,1.244,0,0,0-.018.677,11.51,11.51,0,0,1,.466,2.6c-.047.881-.725,1.832-1.6,1.734-.205-.022-.429-.1-.6.012a.585.585,0,0,0-.221.4,5.973,5.973,0,0,0,.08,1.892,2.534,2.534,0,0,1-.328,1.826,1.084,1.084,0,0,1-1.637.157l.681,2.963a1.8,1.8,0,0,1-.2,1.712c-.57.546-1.565.08-1.971-.6s-.5-1.51-.922-2.176a4.725,4.725,0,0,1-.514-.817c-.09-.238-.115-.522-.308-.689-.387-.335-1.009.2-.968.712a2.705,2.705,0,0,0,.749,1.314,1.3,1.3,0,0,1,.287,1.413c-.131.21-.363.343-.488.556-.435.737.643,1.491.751,2.34a2.067,2.067,0,0,1-.848,1.616c-.561.531-1.629.946-1.956.246a7.008,7.008,0,0,1-.148-.787,1.949,1.949,0,0,0-.591-.719,4.011,4.011,0,0,1-1.14-2c.631.82,1.29,1.9.806,2.812a4.319,4.319,0,0,1-.878.946c-.6.6-.988,1.383-1.583,1.988a1.979,1.979,0,0,1-2.288.571,1.909,1.909,0,0,1-3.242,1.818,1.643,1.643,0,0,0-.509-.475,1.357,1.357,0,0,0-.745,0,4.13,4.13,0,0,1-3.955-1.7l.765-.248a9.614,9.614,0,0,1-4.247-1.363,3.294,3.294,0,0,1-1.3-3.925c.294-.581.843-1.17.616-1.78a1.612,1.612,0,0,0-1.041-.783l-5.264-2a4.97,4.97,0,0,1-2.3-1.4,1.714,1.714,0,0,1,.194-2.419,4.88,4.88,0,0,0-1.792-2.035c-.869-.552-1.893-.815-2.786-1.327a2.784,2.784,0,0,1-1.608-2.44c.09-1.026,1.527-1.786,2.216-1.021-.1-1.55-2.858-1.714-3.057-3.255-.162-1.253,1.45-1.862,2.3-2.8-.157-.437-.593-.725-.763-1.158-.357-.907.6-1.782,1.488-2.18s1.974-.8,2.21-1.743c.243-.968-.566-2.088-.027-2.928a1.1,1.1,0,0,1,1.459-.325c.752-1.767,4.077-.342,5.1-1.969a.7.7,0,0,0,.125-.43.738.738,0,0,0-.163-.353,7.769,7.769,0,0,0-1.45-1.169,1.508,1.508,0,0,1-.645-1.619c.237-.577,1.341-.53,1.313.092a1.372,1.372,0,0,1,2.084.578,1.481,1.481,0,0,1,1.859-.124,4.321,4.321,0,0,1,1.287,1.543" fill="#263238"/><path d="M389.731,149.842c-.02.013-.187-.3-.6-.833a2.55,2.55,0,0,0-.951-.772,1.362,1.362,0,0,0-1.53.243l-.105.118-.045-.148a1.278,1.278,0,0,0-1.928-.521l-.2.166.022-.255c.027-.31-.418-.451-.749-.333a.667.667,0,0,0-.346.9,2.01,2.01,0,0,0,.795.985,7.308,7.308,0,0,1,1.187.907.878.878,0,0,1,.3.822.99.99,0,0,1-.213.393,1.256,1.256,0,0,1-.3.312,3.1,3.1,0,0,1-1.627.533c-.57.061-1.15.068-1.714.164a1.593,1.593,0,0,0-1.325.836l-.083.2-.18-.114a.934.934,0,0,0-1.037.088,1.13,1.13,0,0,0-.3,1.09c.06.438.215.9.243,1.417a1.779,1.779,0,0,1-.608,1.458c-.8.74-1.909.867-2.614,1.537a1.363,1.363,0,0,0-.56,1.179c.042.435.559.717.816,1.338l.051.121-.1.1a19.134,19.134,0,0,1-1.563,1.325,1.364,1.364,0,0,0-.593,1.556c.224.547.881.886,1.489,1.251a5.479,5.479,0,0,1,.931.647,1.656,1.656,0,0,1,.576,1.11l.037.73-.464-.55c-.478-.567-1.631.013-1.763.771a2.333,2.333,0,0,0,1.241,2.162c.784.516,1.772.777,2.708,1.282a5.149,5.149,0,0,1,2.21,2.33l.1.218-.2.124a1.459,1.459,0,0,0-.114,2.032,4.881,4.881,0,0,0,2.233,1.323l5.377,2.035a2.4,2.4,0,0,1,.717.417,1.15,1.15,0,0,1,.394.857,3.228,3.228,0,0,1-.624,1.485,2.536,2.536,0,0,0,.136,2.573,4.114,4.114,0,0,0,2.182,1.748,14.013,14.013,0,0,0,2.944.679l1.226.189-1.18.385-.764.249.152-.45a3.813,3.813,0,0,0,1.98,1.435,3.7,3.7,0,0,0,1.25.176,4.518,4.518,0,0,0,.651-.073,1.138,1.138,0,0,1,.885.165,6.8,6.8,0,0,1,.507.523,1.571,1.571,0,0,0,.5.3,1.7,1.7,0,0,0,1.169.026,1.651,1.651,0,0,0,.978-1.948l-.222-.749.665.4a1.387,1.387,0,0,0,1.354-.1,3.585,3.585,0,0,0,1.152-1.149,8.184,8.184,0,0,1,1.184-1.445c.481-.4.8-.773.768-1.293a3.746,3.746,0,0,0-.907-1.891l.534-.251a3.725,3.725,0,0,0,.713,1.477,5.134,5.134,0,0,0,.6.611,1.814,1.814,0,0,1,.332.417,1.355,1.355,0,0,1,.149.541c.017.324.068.47.194.546a.792.792,0,0,0,.605-.026,2.728,2.728,0,0,0,1.216-.975,1.077,1.077,0,0,0,.116-1.316c-.121-.235-.289-.472-.44-.745a1.418,1.418,0,0,1-.208-1.049c.107-.425.475-.635.572-.783a.59.59,0,0,0,.058-.555c-.12-.459-.57-.805-.9-1.379a1.3,1.3,0,0,1-.147-1.066,1.079,1.079,0,0,1,.878-.718.741.741,0,0,1,.622.28,1.383,1.383,0,0,1,.223.49,1.648,1.648,0,0,0,.332.66c.79.962.745,2.315,1.486,2.885.361.3.881.421,1.147.173.3-.23.293-.76.188-1.261l-.72-3.161-.319-1.4.826,1.16a.686.686,0,0,0,.809.122,1.04,1.04,0,0,0,.6-.741,7.675,7.675,0,0,0-.08-2.358,3.39,3.39,0,0,1,.035-.664.9.9,0,0,1,.426-.723,1.337,1.337,0,0,1,.743-.02.837.837,0,0,0,.444-.079,1.777,1.777,0,0,0,.832-1.754c-.047-.733-.341-1.463-.471-2.274a1.407,1.407,0,0,1,.045-.708,1.948,1.948,0,0,1,.372-.547,1.7,1.7,0,0,0,.369-.909,2.772,2.772,0,0,0-.587-1.935,8.784,8.784,0,0,0-1.537-1.507l-.179-.148.128-.193a3.111,3.111,0,0,0-.929-4.189l-.2-.12.112-.208a5.334,5.334,0,0,0,.641-2.322l.27.248a2.765,2.765,0,0,1-1.5-.118,1.423,1.423,0,0,1-.761-1.339c.013-.974.324-1.82-.154-2.49a1.9,1.9,0,0,0-1.988-.884,2.021,2.021,0,0,1-.7.019,1.214,1.214,0,0,1-.642-.382,6.918,6.918,0,0,1-.651-1.084,1.135,1.135,0,0,0-.773-.618,2.108,2.108,0,0,0-1.048.147,5.848,5.848,0,0,1-2.263.606,1.257,1.257,0,0,1-.995-.737,1.608,1.608,0,0,1,.01-1.19,2.813,2.813,0,0,1,1.639-1.4l-.019.314c-.521-.3-1.162.087-1.7.409a2.733,2.733,0,0,1-1.883.612,1.494,1.494,0,0,1-.8-.59,2.71,2.71,0,0,0-.578-.607,2.539,2.539,0,0,0-2.876,0,6.629,6.629,0,0,0-.939,1.048,1.508,1.508,0,0,1-1.28.451c-.43-.029-.813-.139-1.176-.18a5.151,5.151,0,0,0-3.237.673,8.8,8.8,0,0,0-.946.684,3.572,3.572,0,0,1,.9-.766,5.145,5.145,0,0,1,3.309-.778c.38.037.765.138,1.166.158a1.286,1.286,0,0,0,1.1-.4,6.565,6.565,0,0,1,.957-1.093,2.716,2.716,0,0,1,1.528-.513,2.745,2.745,0,0,1,1.669.483c.534.343.754,1.027,1.28,1.131.523.123,1.088-.268,1.635-.593a5,5,0,0,1,.913-.474,1.335,1.335,0,0,1,1.133.045l.3.178-.319.137a2.475,2.475,0,0,0-1.431,1.211,1.236,1.236,0,0,0-.006.907.867.867,0,0,0,.7.5,5.8,5.8,0,0,0,2.082-.6,2.485,2.485,0,0,1,1.255-.17,1.558,1.558,0,0,1,1.058.806,7.129,7.129,0,0,0,.609,1.014.9.9,0,0,0,.958.219,2.353,2.353,0,0,1,2.436,1.075,2.248,2.248,0,0,1,.342,1.4c-.023.467-.113.91-.1,1.325a.946.946,0,0,0,.5.922,2.361,2.361,0,0,0,1.24.068l.281-.036-.01.284a5.813,5.813,0,0,1-.688,2.538l-.089-.328a3.6,3.6,0,0,1,1.1,4.9l-.05-.342a9.271,9.271,0,0,1,1.632,1.6,3.3,3.3,0,0,1,.693,2.3,2.233,2.233,0,0,1-.482,1.189c-.294.327-.36.459-.3.837.112.722.419,1.468.483,2.317a2.309,2.309,0,0,1-1.143,2.292c-.417.267-1.134.038-1.179.1-.026,0-.094.122-.117.31a2.866,2.866,0,0,0-.027.552,7.761,7.761,0,0,1,.066,2.535,1.445,1.445,0,0,1-2.409.813l.507-.238q.363,1.575.731,3.177a3.185,3.185,0,0,1,.069.9,1.336,1.336,0,0,1-.449.917,1.209,1.209,0,0,1-1.017.251,1.967,1.967,0,0,1-.875-.413,3.179,3.179,0,0,1-.915-1.562,4.29,4.29,0,0,0-.682-1.433,2.287,2.287,0,0,1-.422-.842c-.073-.283-.158-.353-.236-.342a.52.52,0,0,0-.36.331.734.734,0,0,0,.11.573,7.13,7.13,0,0,1,.953,1.5,1.186,1.186,0,0,1-.156,1.091c-.252.3-.445.406-.468.574-.1.323.314.826.6,1.361a1.749,1.749,0,0,1,.236,1.007,1.944,1.944,0,0,1-.4.943,3.318,3.318,0,0,1-1.5,1.188,1.342,1.342,0,0,1-1.11-.023,1.164,1.164,0,0,1-.489-1.007.786.786,0,0,0-.3-.585,5.712,5.712,0,0,1-.646-.666,4.329,4.329,0,0,1-.83-1.72l-.323-1.411.858,1.16a4.257,4.257,0,0,1,1.033,2.237,1.781,1.781,0,0,1-.288,1.048,3.931,3.931,0,0,1-.678.715,7.541,7.541,0,0,0-1.1,1.35,4.163,4.163,0,0,1-1.353,1.325,1.979,1.979,0,0,1-1.951.085l.443-.343a2.246,2.246,0,0,1-1.355,2.682,2.3,2.3,0,0,1-1.588-.032,2.166,2.166,0,0,1-.687-.424c-.209-.194-.336-.4-.455-.482-.147-.172-.659.02-1.163.023a4.248,4.248,0,0,1-1.447-.205,4.4,4.4,0,0,1-2.289-1.667l-.228-.327.381-.123.764-.248.046.574a14.544,14.544,0,0,1-3.068-.717,4.706,4.706,0,0,1-2.471-2,3.116,3.116,0,0,1-.134-3.147,2.965,2.965,0,0,0,.553-1.2c.015-.34-.319-.581-.753-.751l-5.359-2.044a5.362,5.362,0,0,1-2.468-1.507,2.285,2.285,0,0,1-.462-1.452,1.641,1.641,0,0,1,.721-1.37l-.1.341a4.625,4.625,0,0,0-1.977-2.1c-.856-.473-1.854-.734-2.74-1.315a2.815,2.815,0,0,1-1.448-2.692,1.83,1.83,0,0,1,1.033-1.234,1.339,1.339,0,0,1,1.588.236l-.427.18c-.025-.613-.665-1.022-1.263-1.377a3.646,3.646,0,0,1-1.678-1.487,1.515,1.515,0,0,1,.022-1.2,2.7,2.7,0,0,1,.7-.877,19.7,19.7,0,0,0,1.536-1.281l-.045.225c-.125-.412-.708-.74-.827-1.414a1.781,1.781,0,0,1,.706-1.571c.852-.762,1.958-.883,2.626-1.519a1.373,1.373,0,0,0,.486-1.143c-.017-.444-.164-.9-.229-1.383a1.5,1.5,0,0,1,.447-1.431,1.3,1.3,0,0,1,1.464-.1l-.262.082a1.939,1.939,0,0,1,1.6-1.035c.605-.1,1.187-.1,1.739-.15a2.809,2.809,0,0,0,1.468-.452,1.188,1.188,0,0,0,.417-.538c.064-.181-.062-.363-.224-.546a7.271,7.271,0,0,0-1.132-.881,2.273,2.273,0,0,1-.879-1.133,1.149,1.149,0,0,1,0-.717.778.778,0,0,1,.516-.49,1.009,1.009,0,0,1,.671.018.568.568,0,0,1,.375.553l-.183-.089a1.469,1.469,0,0,1,2.239.634l-.15-.03a1.507,1.507,0,0,1,1.716-.251,2.58,2.58,0,0,1,.969.84,5.053,5.053,0,0,1,.528.888" fill="#455a64"/><path d="M397.922,169.421c-.55-2.562-2.437-4.639-4.52-6.228a6.7,6.7,0,0,0-2.917-1.459,2.813,2.813,0,0,0-2.874,1.16l.148,1.833c-.234,2.911,2.012,5.361,3.08,8.079.465,1.182.843,2.6,2.009,3.107a2.734,2.734,0,0,0,1.953-.017c2.477-.855,3.672-3.913,3.121-6.475" fill="#ff725e"/><path d="M398.175,182.884a5.859,5.859,0,0,0-.625-7.485c1.052-1.36.639-3.429-.468-4.744a11.462,11.462,0,0,0-4.3-2.756,7.886,7.886,0,0,0-9.269-5.629c-2.081-2.969-6.433-3.379-9.9-2.316a9.268,9.268,0,0,1-2.578.6,15.238,15.238,0,0,1-1.932-.24c-3.548-.427-7.028,2.115-8.363,5.43a6.511,6.511,0,0,1-.731,1.544,8.88,8.88,0,0,1-1.73,1.423,5.657,5.657,0,0,0-2.108,4.212c-.039,1.376.42,2.83-.142,4.087a20.642,20.642,0,0,0-1.016,1.8c-.628,1.9,1.493,3.8,1.132,5.768-.073.4-.248.776-.354,1.17a3.489,3.489,0,0,0,.247,2.437,5.016,5.016,0,0,1,.792,1.743,5.6,5.6,0,0,1-.266,1.435c-.223,1.174,2.368,5.655,3.388,6.277l30.242-.152a5.652,5.652,0,0,0,4.3-4.926,2.066,2.066,0,0,1,.266-1.116,2.417,2.417,0,0,1,.818-.548c1.932-1.073,2.13-3.749,1.894-5.947a2.7,2.7,0,0,1,0-.923,3.369,3.369,0,0,1,.7-1.143" fill="#263238"/><path d="M389.38,182.9a16.192,16.192,0,0,0-8.78-14,20,20,0,0,0-7.753-1.758,12.252,12.252,0,0,0-7.111,1.6c-1.661.415-7.69,6.093-7.923,12.166-.258,6.746-.307,14.993.616,20,1.854,10.067,9.632,11.162,9.632,11.162,0-.016-.03,5.638-.03,5.638l21.252.641Z" fill="#ffc09d"/><path d="M361.616,188.63a1.3,1.3,0,0,0,1.282,1.277,1.239,1.239,0,0,0,1.307-1.2,1.3,1.3,0,0,0-1.28-1.277,1.24,1.24,0,0,0-1.309,1.2" fill="#263238"/><path d="M360.362,184.876c.164.165,1.129-.586,2.523-.617,1.394-.05,2.434.642,2.581.467.073-.077-.1-.378-.552-.692a3.569,3.569,0,0,0-2.072-.583,3.418,3.418,0,0,0-2,.7c-.422.34-.56.649-.478.723" fill="#263238"/><path d="M368.794,195.689a9.249,9.249,0,0,0-2.275-.353c-.357-.028-.7-.09-.762-.332a1.807,1.807,0,0,1,.211-1.061q.471-1.3.987-2.738c1.367-3.9,2.347-7.1,2.19-7.152s-1.394,3.061-2.761,6.959c-.328.961-.643,1.876-.941,2.753a2.06,2.06,0,0,0-.151,1.4.9.9,0,0,0,.6.507,2.453,2.453,0,0,0,.607.069,9.093,9.093,0,0,0,2.3-.054" fill="#263238"/><path d="M368.014,212.068a25.723,25.723,0,0,0,13.446-3.945s-3.308,7.114-13.447,6.418Z" fill="#ff9b6c"/><path d="M360.8,179.636c.243.335,1.305.081,2.556.154,1.252.032,2.292.376,2.559.062.118-.153-.026-.481-.467-.813a3.966,3.966,0,0,0-4.121-.174c-.465.293-.633.609-.527.771" fill="#263238"/><path d="M376.924,188.615a1.3,1.3,0,0,1-1.267,1.292,1.239,1.239,0,0,1-1.321-1.186,1.3,1.3,0,0,1,1.265-1.292,1.24,1.24,0,0,1,1.323,1.186" fill="#263238"/><path d="M379.458,184.952c-.163.168-1.136-.571-2.531-.586-1.393-.034-2.427.671-2.576.5-.073-.076.1-.379.544-.7a3.562,3.562,0,0,1,2.065-.608,3.416,3.416,0,0,1,2.012.678c.425.335.566.642.486.716" fill="#263238"/><path d="M379.738,180.267c-.279.313-1.351-.029-2.645-.061-1.293-.073-2.393.182-2.641-.152-.109-.163.068-.478.551-.772a3.994,3.994,0,0,1,2.157-.491,3.944,3.944,0,0,1,2.1.663c.453.332.6.66.476.813" fill="#263238"/><path d="M388.121,192.667c-.017-.753.809-2.549,1.55-2.683,1.977-.359,5.559-.288,5.716,4.753.216,6.889-6.746,5.684-6.764,5.487-.014-.154-.444-4.958-.5-7.557" fill="#ffc09d"/><path d="M390.445,197.648c.029-.023.123.08.328.167a1.2,1.2,0,0,0,.9-.01,2.97,2.97,0,0,0,1.291-2.707,3.957,3.957,0,0,0-.39-1.708,1.384,1.384,0,0,0-.932-.893.611.611,0,0,0-.7.351c-.086.195-.038.332-.074.344-.019.018-.151-.11-.105-.4a.764.764,0,0,1,.258-.441.912.912,0,0,1,.658-.2,1.686,1.686,0,0,1,1.287,1.029,4.069,4.069,0,0,1,.476,1.907,3.117,3.117,0,0,1-1.658,3.031,1.284,1.284,0,0,1-1.1-.149c-.219-.163-.259-.316-.236-.329" fill="#ff9b6c"/><path d="M356.419,181.188a4.009,4.009,0,0,0,2.1-3.746c.93.252,1.839-.959,2.358-1.771s1.169-1.23,1.105-2.192a1.084,1.084,0,0,1,.056-.561c.133-.267.459-.362.742-.457a4.62,4.62,0,0,0,2.963-3.281,9.774,9.774,0,0,0,4.741.666,3.733,3.733,0,0,0,6.309-.427,3.344,3.344,0,0,0,2.279,1.6,9.934,9.934,0,0,0,2.862.087,3.953,3.953,0,0,0,2.708,4.413c.247.069.532.137.651.364a1,1,0,0,1-.088.771,3.111,3.111,0,0,0,2.178,3.91,2.32,2.32,0,0,0,.3,3.629c.254.146.586.32.554.611a.658.658,0,0,1-.144.3,4.51,4.51,0,0,0-1.032,2.3,1.665,1.665,0,0,0,1.409,1.81,2.2,2.2,0,0,0-.839,1.531c0,.6.624,1.194,1.178.965.235-.1,3.65-.855,3.8-1.063,1.887-2.694-.636-5.559-.908-8.837a21.359,21.359,0,0,0-3.2-9.237,15.623,15.623,0,0,0-2.526-3.262,20.894,20.894,0,0,0-3.856-2.7,19.012,19.012,0,0,0-5.591-2.5c-3.739-.788-7.571.655-11,2.341a16.2,16.2,0,0,0-3.69,2.3,14.675,14.675,0,0,0-3.055,4.194,18.273,18.273,0,0,0-2.325,7.114" fill="#263238"/><path d="M355.01,178.809a2.63,2.63,0,0,1,.354-.748c.141-.233.341-.5.528-.851a3.2,3.2,0,0,0,.357-1.3,10.056,10.056,0,0,0-.069-1.7,7.588,7.588,0,0,1,.007-2.047,5.729,5.729,0,0,1,.857-2.191,5.577,5.577,0,0,1,.825-.995,8.436,8.436,0,0,1,1.07-.835,4.267,4.267,0,0,0,1.026-.927,5.573,5.573,0,0,0,.624-1.312,9.252,9.252,0,0,1,4.236-4.817,8.222,8.222,0,0,1,1.645-.661,7.386,7.386,0,0,1,1.806-.247,8.8,8.8,0,0,1,.93.053c.31.041.615.1.921.146a4.453,4.453,0,0,0,1.842-.039c.614-.136,1.213-.372,1.847-.545a12.13,12.13,0,0,1,3.964-.454,10.474,10.474,0,0,1,2.03.327,6.8,6.8,0,0,1,3.521,2.211l.263.334-.111-.041a8,8,0,0,1,9.391,5.707l-.056-.068a21.76,21.76,0,0,1,2.445,1.22,7.279,7.279,0,0,1,2.011,1.72,4.733,4.733,0,0,1,.951,2.359,3.255,3.255,0,0,1-.607,2.344l-.008-.115a5.713,5.713,0,0,1,1.666,3.5,5.844,5.844,0,0,1-.641,3.441,5.619,5.619,0,0,1-.442.692,7.648,7.648,0,0,0-.461.626,1.467,1.467,0,0,0-.23.681,4.171,4.171,0,0,0,.036.715,11.374,11.374,0,0,1-.015,2.617,5.472,5.472,0,0,1-.634,2.006,3.379,3.379,0,0,1-1.047,1.142c-.35.243-.663.341-.835.472a1.653,1.653,0,0,0-.246.214.805.805,0,0,1,.231-.235c.171-.141.483-.249.821-.494a3.361,3.361,0,0,0,1.01-1.137,5.445,5.445,0,0,0,.6-1.981,11.344,11.344,0,0,0-.006-2.592,4.307,4.307,0,0,1-.041-.736,1.6,1.6,0,0,1,.244-.739,7.453,7.453,0,0,1,.464-.641,5.478,5.478,0,0,0,.427-.676,5.71,5.71,0,0,0,.607-3.357,5.552,5.552,0,0,0-1.628-3.395l-.057-.054.048-.061a3.079,3.079,0,0,0,.563-2.221,4.538,4.538,0,0,0-.919-2.262,7.1,7.1,0,0,0-1.963-1.67,21.9,21.9,0,0,0-2.425-1.205l-.045-.02-.011-.048a7.8,7.8,0,0,0-9.147-5.55l-.066.016-.045-.057-.254-.322a6.6,6.6,0,0,0-3.415-2.143,10.3,10.3,0,0,0-1.986-.321,11.96,11.96,0,0,0-3.9.442c-.622.169-1.226.406-1.859.545a4.727,4.727,0,0,1-.962.122,5.649,5.649,0,0,1-.953-.083c-.31-.048-.614-.107-.916-.147a8.347,8.347,0,0,0-.9-.053,7.211,7.211,0,0,0-1.758.235,8.067,8.067,0,0,0-1.608.642,9.092,9.092,0,0,0-4.173,4.714,5.682,5.682,0,0,1-.649,1.345,4.4,4.4,0,0,1-1.065.956,8.354,8.354,0,0,0-1.059.816,5.522,5.522,0,0,0-.811.966,5.629,5.629,0,0,0-.852,2.139,7.537,7.537,0,0,0-.024,2.019,9.872,9.872,0,0,1,.051,1.719,3.248,3.248,0,0,1-.382,1.319c-.2.349-.4.616-.547.844a3.965,3.965,0,0,0-.3.533c-.059.126-.081.194-.086.192" fill="#455a64"/><path d="M380.24,160.828c-.01.016-.184-.1-.523-.257a4.644,4.644,0,0,0-1.512-.406,4.356,4.356,0,0,0-2.258.38,4.5,4.5,0,0,0-2.02,1.912,3.885,3.885,0,0,0-.326.788.865.865,0,0,0,.066.724l.174.231-.28-.073a2.85,2.85,0,0,0-2.125.3,2.747,2.747,0,0,0-1.141,1.3,3,3,0,0,0-.244,1.141c0,.276.021.427.006.43s-.018-.036-.034-.108a1.883,1.883,0,0,1-.042-.321,2.81,2.81,0,0,1,.194-1.191,2.839,2.839,0,0,1,1.171-1.4,3,3,0,0,1,2.266-.345l-.107.158a1.05,1.05,0,0,1-.1-.9,3.9,3.9,0,0,1,.342-.835,4.617,4.617,0,0,1,2.123-1.988,4.406,4.406,0,0,1,2.354-.352,4.322,4.322,0,0,1,1.532.479,3.031,3.031,0,0,1,.371.231c.08.059.12.093.116.1" fill="#455a64"/><path d="M391.6,168.494c.008.009-.071.1-.235.251a4.435,4.435,0,0,1-.768.559,3.308,3.308,0,0,1-1.366.443,2.468,2.468,0,0,1-1.722-.48l.152-.027-.2.288c-.072.094-.152.183-.229.276a4.161,4.161,0,0,1-1.7,1.109,4.277,4.277,0,0,1-1.638.242,3.793,3.793,0,0,1-1.091-.223,1.375,1.375,0,0,1-.364-.185,5.927,5.927,0,0,0,1.46.261,4.342,4.342,0,0,0,1.567-.275,4.1,4.1,0,0,0,1.61-1.069c.073-.088.149-.172.217-.261l.186-.27.066-.1.087.069a2.315,2.315,0,0,0,1.581.458,3.3,3.3,0,0,0,1.312-.38c.7-.371,1.046-.719,1.069-.69" fill="#455a64"/><path d="M395.376,174.8c.007,0,0,.044-.014.127a1.18,1.18,0,0,1-.146.337,1.838,1.838,0,0,1-1.094.762,3.5,3.5,0,0,1-1.973-.17,11.447,11.447,0,0,1-1.1-.4,1.892,1.892,0,0,1-.97-.847c-.016-.037-.031-.075-.046-.11l.164.046a7.911,7.911,0,0,1-2.017,1.272,3.546,3.546,0,0,1-1.931.242,2.554,2.554,0,0,1-1.2-.516,1.553,1.553,0,0,1-.255-.249c-.051-.064-.075-.1-.069-.1s.125.117.372.289a2.669,2.669,0,0,0,1.177.436,3.5,3.5,0,0,0,1.838-.274,8.091,8.091,0,0,0,1.958-1.257l.108-.088.055.134.038.092a1.706,1.706,0,0,0,.869.749c.354.163.725.288,1.07.408a3.466,3.466,0,0,0,1.878.21,1.835,1.835,0,0,0,1.063-.665,3,3,0,0,0,.227-.419" fill="#455a64"/><path d="M402.215,150.035c0,.014-.12.007-.327.065a1.566,1.566,0,0,0-.756.514,2.146,2.146,0,0,0-.491,1.328,6.305,6.305,0,0,0,.3,1.873l.03.111-.116,0a3.928,3.928,0,0,0-2.367.782,3.051,3.051,0,0,0-1.253,2.441,2.827,2.827,0,0,0,1.054,2.274l.235.177-.294,0a3.558,3.558,0,0,0-2.588,1.206,3.415,3.415,0,0,0-.834,2.135,3.709,3.709,0,0,0,.266,1.517c.138.337.25.5.236.513s-.036-.037-.09-.116a2.569,2.569,0,0,1-.209-.37,3.561,3.561,0,0,1-.33-1.547,3.509,3.509,0,0,1,.832-2.245,3.707,3.707,0,0,1,2.715-1.294l-.059.181a3.012,3.012,0,0,1-1.141-2.435,3.1,3.1,0,0,1,.374-1.494,3.473,3.473,0,0,1,.966-1.106,4.068,4.068,0,0,1,2.49-.8l-.086.109a6.248,6.248,0,0,1-.272-1.925,2.234,2.234,0,0,1,.556-1.387,1.56,1.56,0,0,1,.82-.5,1,1,0,0,1,.253-.024c.057,0,.087.005.087.01" fill="#455a64"/><path d="M414.843,164.7s-.035.028-.111.069a3.4,3.4,0,0,1-.341.165,4.861,4.861,0,0,1-1.38.346,5.432,5.432,0,0,1-2.171-.212,5.222,5.222,0,0,1-2.358-1.469l.156-.016a4.387,4.387,0,0,1-3.055,2.195,3.326,3.326,0,0,1-3.472-1.749l.178-.011a2.75,2.75,0,0,1-.8,1.188,3.659,3.659,0,0,1-1.115.665,5.066,5.066,0,0,1-2.094.267,9.927,9.927,0,0,1-1.358-.189,2.458,2.458,0,0,1-.475-.119,3.283,3.283,0,0,1,.486.058,12.807,12.807,0,0,0,1.353.133,5.1,5.1,0,0,0,2.029-.3,2.988,2.988,0,0,0,1.794-1.762l.077-.233.1.222a3.145,3.145,0,0,0,3.268,1.624,4.222,4.222,0,0,0,2.917-2.086l.067-.115.09.1a5.109,5.109,0,0,0,2.262,1.442,5.472,5.472,0,0,0,2.111.249,6.43,6.43,0,0,0,1.843-.461" fill="#455a64"/><path d="M407.841,174.936s-.009.054-.078.127a.712.712,0,0,1-.387.183,3.178,3.178,0,0,1-1.527-.22,3.726,3.726,0,0,1-1.786-1.425,3.834,3.834,0,0,1-.57-2.729l0-.022.151.111a4.482,4.482,0,0,1-2.752.442,5,5,0,0,1-2.115-.857,5.583,5.583,0,0,1-1.125-1.043,2.1,2.1,0,0,1-.319-.464,8.261,8.261,0,0,0,1.527,1.385,4.994,4.994,0,0,0,2.059.79,4.358,4.358,0,0,0,2.627-.437l.184-.1-.031.207,0,.021a3.694,3.694,0,0,0,.526,2.589,3.655,3.655,0,0,0,1.678,1.393,3.334,3.334,0,0,0,1.463.276.718.718,0,0,0,.476-.23" fill="#455a64"/><path d="M387.157,150.62a5.878,5.878,0,0,0-.264,2.125,4.64,4.64,0,0,0,2.855,3.966,4.677,4.677,0,0,0,1.584.372l.127.007-.035.122a6.044,6.044,0,0,0-.2,2.232,6.157,6.157,0,0,0,.431,1.738,4.41,4.41,0,0,0,.3.61.521.521,0,0,0,.371.272.354.354,0,0,0,.275-.09c.047-.051.055-.091.063-.089s.009.046-.035.111a.37.37,0,0,1-.306.138.585.585,0,0,1-.452-.285,4.108,4.108,0,0,1-.331-.615,6.007,6.007,0,0,1-.3-4.078l.092.129a4.847,4.847,0,0,1-1.656-.383,4.9,4.9,0,0,1-2.216-1.877,4.831,4.831,0,0,1-.7-2.271,4.634,4.634,0,0,1,.185-1.591,3.55,3.55,0,0,1,.153-.409c.042-.09.066-.137.073-.134" fill="#455a64"/><path d="M368.212,217.135s-1.005,11.9,8.283,12.807,12.955-7.51,12.965-11.445l-4.432-2.764Z" fill="#ffc09d"/><path d="M369.153,199.314c.119.167,0,.052.167.176a5.663,5.663,0,0,0,1.953,1.068,1.81,1.81,0,0,0,1.942-.569,1.559,1.559,0,0,0-.186-1.777,2.954,2.954,0,0,0-1.771-1.005c-.065-.012-.128-.024-.189-.033a1.716,1.716,0,0,0-2.019,1.839.675.675,0,0,0,.1.3" fill="#ff9b6c"/><path d="M374.094,197.715a18.517,18.517,0,0,1-5.736,2.346,18.648,18.648,0,0,1,5.736-2.346" fill="#263238"/><path d="M354.9,220.467l12.946-4.314c3.807,9.321,16.2,7.975,21.531-.739l15.417,5.242L413.468,238l-6.515,36.623,11.916,23.593-31.918,5.993-27.883-12.938-2.378-1.8-4.741-62.41Z" fill="#f14141"/><path d="M354.9,220.467s-10.275,4.266-11.349,15.633c-.414,4.386-3.511,24.948-3.511,24.948l-14.531-1.728L322,270.908s16.248,8.473,21.264,9.572c8.663,1.9,12.851-3,12.851-3Z" fill="#f14141"/><path d="M352.152,234.33a3.138,3.138,0,0,1,.009.565c-.013.406-.029.942-.05,1.613-.035.7-.059,1.556-.049,2.551s-.024,2.127.031,3.378c.029,1.252.074,2.622.174,4.091.067,1.471.212,3.038.343,4.688.305,3.3.713,6.916,1.208,10.707,1,7.583,1.966,14.448,2.409,19.447.127,1.248.207,2.381.275,3.375s.125,1.85.144,2.552c.022.671.039,1.208.052,1.614a2.96,2.96,0,0,1-.008.564,3.08,3.08,0,0,1-.069-.56c-.032-.4-.073-.94-.125-1.609-.042-.7-.113-1.553-.21-2.544s-.186-2.12-.331-3.364c-.512-4.985-1.515-11.837-2.52-19.425-.495-3.795-.894-7.421-1.18-10.726-.121-1.655-.254-3.226-.308-4.7-.086-1.473-.115-2.847-.127-4.1-.037-1.255.006-2.39.026-3.387s.057-1.854.115-2.554c.051-.67.091-1.206.122-1.612a3.193,3.193,0,0,1,.069-.559" fill="#263238"/><path d="M324.852,236.5s4.421-4.291,6.112-3.771a9.26,9.26,0,0,1,3.12,1.864s1.691-1,2.6,0a15.38,15.38,0,0,1,1.821,2.817s1.61-.23,2.86,1.846,4.321,9.077,5.477,10.247a10.4,10.4,0,0,0,4.188,2.41c1.648.581,15.454,5.248,15.454,5.248L361.4,269.826s-20.3-11.871-21.075-12.652-6.892-4.811-7.8-7.282-7.672-10.012-7.672-10.012Z" fill="#ffc09d"/><path d="M338.279,241.523c.018.009-.038.193-.241.483a2.854,2.854,0,0,1-1.178.946l.077-.13a4.117,4.117,0,0,1-.628,2.776,3.618,3.618,0,0,1-.562.681,1.532,1.532,0,0,1-.888.435.993.993,0,0,1-.932-.527,2.707,2.707,0,0,1-.293-.978c-.153-1.157-.3-2.238-.415-3.255a2,2,0,0,1,.366-1.467,2.918,2.918,0,0,1,1.05-.765,9.853,9.853,0,0,0,1.591-.8c.335-.243.463-.445.493-.425s-.071.245-.4.542a7.642,7.642,0,0,1-1.561.926,2.757,2.757,0,0,0-.921.716,1.681,1.681,0,0,0-.265,1.243c.138,1.006.286,2.091.442,3.231.065.606.317,1.233.818,1.183a1.91,1.91,0,0,0,1.184-.933,4,4,0,0,0,.671-2.554l-.009-.1.086-.032a3.026,3.026,0,0,0,1.167-.8c.226-.25.322-.411.346-.4" fill="#ff9b6c"/><path d="M339.566,245.285c-.039.094-.708-.167-1.182-.872s-.474-1.42-.372-1.422.268.591.692,1.205.918.992.862,1.089" fill="#ff9b6c"/><path d="M339.064,253.44c-.117,0-.07-1.284-.553-2.75-.464-1.472-1.249-2.484-1.157-2.555a5.87,5.87,0,0,1,1.71,5.305" fill="#ff9b6c"/><path d="M333.743,242.861a1.814,1.814,0,0,1-.188.613,3.08,3.08,0,0,1-1.049,1.427,1.768,1.768,0,0,1-1.236.319,1.738,1.738,0,0,1-1.192-.858,4.953,4.953,0,0,1-.557-1.467,11.737,11.737,0,0,1-.3-1.626,4.833,4.833,0,0,1,.769-3.111,7.874,7.874,0,0,1,1.765-1.921,15.023,15.023,0,0,1,1.423-1.005,2.073,2.073,0,0,1,.564-.3c.041.054-.713.57-1.81,1.516a8.2,8.2,0,0,0-1.638,1.9,4.587,4.587,0,0,0-.689,2.89,12.435,12.435,0,0,0,.281,1.576,4.722,4.722,0,0,0,.492,1.365,1.416,1.416,0,0,0,.94.729,1.506,1.506,0,0,0,1.036-.233,3.216,3.216,0,0,0,1.061-1.261,2.371,2.371,0,0,1,.324-.549" fill="#ff9b6c"/><g opacity="0.3"><g clip-path="url(#l)"><path d="M394.2,275.97c-1.263,1.252-2.665,2.536-4.419,2.826a9.012,9.012,0,0,1-4.58-.872l-24.958-9.5-2.018,2.759c8.589,6.97,19.32,13.073,29.919,15.636a12.661,12.661,0,0,0,10.186-2.021c2.224-1.62,3.584-4.153,4.7-6.669a62.566,62.566,0,0,0,4.989-18.451A124.717,124.717,0,0,1,394.2,275.97"/></g></g><path d="M400.634,228.582c-.627.664-15.147,31.653-15.147,31.653l-28.167-6.3-3.177,15.511s25.536,11.328,32.214,13.342c4.267,1.287,7.206,1.02,11.383-2.963s14.77-29.644,15.954-34.807c1.125-4.913,5.175-17.954-8.9-24.363Z" fill="#f14141"/><path d="M334.786,250.944a1.606,1.606,0,0,0,.811-2.363l-16.7-28.076a1.263,1.263,0,0,0-1.422-.628l-15.943,4.406c-1.264.246-1.613,2.345-1.078,3.232l16.816,26.774a3.354,3.354,0,0,0,3.054,1.162" fill="#263238"/><path d="M335.325,250.492a3.285,3.285,0,0,1-.312-.455q-.318-.5-.846-1.348l-3.061-5c-2.577-4.272-6.106-10.121-10-16.583-.975-1.6-1.92-3.25-2.842-4.7a1.737,1.737,0,0,0-.933-.59,1.883,1.883,0,0,0-1.061.091l-2.147.589-7.431,2.018-5.016,1.328-1.367.342a2.307,2.307,0,0,1-.482.093,2.471,2.471,0,0,1,.467-.169l1.354-.413,4.994-1.447,7.416-2.1,2.145-.6a2.135,2.135,0,0,1,1.186-.1,2.033,2.033,0,0,1,1.094.688c.992,1.537,1.891,3.115,2.88,4.739l9.928,16.649,2.979,5.073.8,1.391a3.556,3.556,0,0,1,.26.5" fill="#455a64"/><path d="M311.984,228.619a.881.881,0,1,1-.88-.9.892.892,0,0,1,.88.9" fill="#fff"/><path d="M312.491,234.42c-.09.544-3.688,11.462-4.228,12.525s0,3.133,0,3.133-1.259,2.608.72,4.407c0,0,.144,2.339,1.2,2.789a5.409,5.409,0,0,1,1.861,1.529s5.937,8.1,6.567,8.906a44.979,44.979,0,0,0,3.391,3.2s8.384-3.054,3.936-11.043l-2.523-1.6.864-6.462s2.069-1.63,1.619-2.712a.965.965,0,0,0-1.35-.632s.793-2.249-1.133-2.609L316,249.43s5.49-5.535,4.68-7.064-1.169-1.282-1.169-1.282L312.4,247.1s1.767-6.62,2.249-8.734c.9-3.943-2.159-3.943-2.159-3.943" fill="#ffc09d"/><path d="M324.445,248.806a7.662,7.662,0,0,1-1.336,1.449,25.273,25.273,0,0,1-8.034,5.03,7.7,7.7,0,0,1-1.888.569,14.115,14.115,0,0,1,1.783-.821,33.4,33.4,0,0,0,7.958-4.982,14.345,14.345,0,0,1,1.517-1.245" fill="#ff9b6c"/><path d="M319.508,241.085a6.829,6.829,0,0,1-1.235,1.392c-.823.8-2.022,1.842-3.4,2.926a26.959,26.959,0,0,1-5.241,3.551,15.9,15.9,0,0,1,1.465-1.133c.912-.686,2.167-1.644,3.537-2.721s2.585-2.08,3.449-2.825a12.791,12.791,0,0,1,1.42-1.19" fill="#ff9b6c"/><path d="M323.337,250.547c-.016-.008.131-.162.454-.1a1.067,1.067,0,0,1,.766,1,2.67,2.67,0,0,1-.827,1.662c-.436.519-.932,1.074-1.473,1.638a30.826,30.826,0,0,1-2.946,2.707,6.107,6.107,0,0,1-1.362.947c-.071-.09,1.887-1.681,4.029-3.921.537-.559,1.036-1.1,1.482-1.6a2.533,2.533,0,0,0,.824-1.433.927.927,0,0,0-.537-.854c-.242-.1-.4-.013-.41-.047" fill="#ff9b6c"/><path d="M322.657,257.994c-.092.061-.47-.364-1-.794s-1.02-.722-.978-.825.641.048,1.222.526.846,1.041.758,1.093" fill="#ff9b6c"/><path d="M322.861,262.55c.043.006.045.383-.2.932a3.447,3.447,0,0,1-3.888,1.941c-.584-.135-.885-.362-.863-.4a6.541,6.541,0,0,1,.907.133,3.65,3.65,0,0,0,3.6-1.8c.285-.474.38-.819.44-.805" fill="#ff9b6c"/><path d="M323.526,245.914a8.964,8.964,0,0,1-1.654.966c-1.048.548-2.514,1.266-4.159,2s-3.157,1.357-4.262,1.776a8.99,8.99,0,0,1-1.822.594,9.963,9.963,0,0,1,1.717-.846l4.209-1.877,4.2-1.9a9.9,9.9,0,0,1,1.773-.721" fill="#ff9b6c"/><path d="M397.843,234.33s-.061.164-.2.473l-.626,1.365c-.567,1.209-1.388,2.963-2.439,5.207L385.624,260.3l-.052.108-.117-.026-28.175-6.263.224-.145c-1.015,4.965-2.078,10.166-3.171,15.511l-.111-.215,2.217.978c9.594,4.187,18.737,8.19,27.206,11.415a21.73,21.73,0,0,0,6.338,1.637,8.832,8.832,0,0,0,5.694-1.94,15.012,15.012,0,0,0,2.209-1.938,8.53,8.53,0,0,0,.883-1.115c.259-.4.549-.766.777-1.174.477-.8.946-1.586,1.358-2.382.432-.785.826-1.568,1.207-2.335,3.026-6.15,5.119-11.3,6.6-14.836l1.665-4.091.434-1.064c.1-.239.159-.358.159-.358s-.035.129-.122.372c-.1.258-.227.616-.4,1.078-.354.946-.892,2.336-1.6,4.12-1.437,3.556-3.491,8.721-6.492,14.9-.378.771-.769,1.558-1.2,2.348-.409.8-.878,1.594-1.356,2.4-.228.411-.522.791-.783,1.194a8.82,8.82,0,0,1-.907,1.152,15.219,15.219,0,0,1-2.244,1.983,11.114,11.114,0,0,1-2.717,1.514,8.194,8.194,0,0,1-3.178.507A21.953,21.953,0,0,1,383.522,282c-8.5-3.215-17.64-7.207-27.238-11.4l-2.218-.978-.142-.063.031-.152c1.1-5.344,2.163-10.545,3.182-15.509l.038-.187.186.041,28.159,6.335-.169.082c3.8-7.9,6.908-14.366,9.073-18.868l2.511-5.173c.288-.579.509-1.028.667-1.346.152-.3.241-.453.241-.453" fill="#263238"/><path d="M408.827,281.265a4.358,4.358,0,0,1-.7.631c-.461.392-1.161.92-2.052,1.534a37.478,37.478,0,0,1-15.638,6.124c-1.071.154-1.944.242-2.548.267a4.33,4.33,0,0,1-.941.01,4.424,4.424,0,0,1,.926-.16c.6-.071,1.461-.2,2.519-.387a42.154,42.154,0,0,0,15.531-6.081c.9-.581,1.624-1.073,2.112-1.426a4.38,4.38,0,0,1,.788-.512" fill="#263238"/><path d="M346.158,275.52c-.073-.013.116-.954.11-2.484a15.785,15.785,0,0,0-.247-2.667,15.847,15.847,0,0,0-2.441-6.037,15.881,15.881,0,0,0-1.675-2.09c-1.059-1.1-1.85-1.649-1.806-1.709a2.25,2.25,0,0,1,.58.345,5.6,5.6,0,0,1,.633.476,9.432,9.432,0,0,1,.786.7,14,14,0,0,1,1.776,2.081,14.95,14.95,0,0,1,2.5,6.178,14.012,14.012,0,0,1,.169,2.731,9.1,9.1,0,0,1-.082,1.047,5.523,5.523,0,0,1-.124.782,2.26,2.26,0,0,1-.177.651" fill="#263238"/><path d="M349.056,271.68c-.066.01-.186-.739-.557-1.893a15.491,15.491,0,0,0-5.361-7.594c-.962-.734-1.628-1.1-1.6-1.157.013-.024.188.047.5.2a9.4,9.4,0,0,1,1.256.74,13.765,13.765,0,0,1,5.464,7.739,9.322,9.322,0,0,1,.276,1.432,1.515,1.515,0,0,1,.018.537" fill="#263238"/><path d="M408.646,284.26c.018.02-.139.192-.438.488s-.747.708-1.315,1.2a45.5,45.5,0,0,1-9.815,6.415c-.679.324-1.236.57-1.627.723a2.136,2.136,0,0,1-.623.2,20.259,20.259,0,0,1,2.126-1.172c1.319-.7,3.118-1.723,5.028-2.97s3.562-2.487,4.737-3.412a20.017,20.017,0,0,1,1.927-1.477" fill="#263238"/><path d="M312.4,347.744l-17.75,28.865,14.044,10.573,22.116-27.038Z" fill="#ffc09d"/><path d="M295.892,374.321l-.712.929s-20.612-5.634-23.052-2.764l31.5,23.629,7.435-10.8a22.526,22.526,0,0,1-15.167-10.992" fill="#f14141"/><g opacity="0.6"><g clip-path="url(#m)"><path d="M305.355,386.271a1.607,1.607,0,0,1-.212,2.135,1.546,1.546,0,0,1-2.118-.191,1.7,1.7,0,0,1,.236-2.26,1.6,1.6,0,0,1,2.181.443" fill="#fff"/></g></g><g opacity="0.6"><g clip-path="url(#n)"><path d="M303.624,396.115l1.788-2.6-30.842-21.7s-1.86-.442-2.443.664Z" fill="#fff"/></g></g><path d="M295.005,375.256c-.111.158.606.8.992,1.867.414,1.052.3,2.01.491,2.056.164.076.625-1.015.135-2.293s-1.546-1.8-1.618-1.63" fill="#263238"/><path d="M290.676,374.143c-.147.123.323.884.357,1.926.065,1.042-.331,1.844-.173,1.952.127.133.909-.688.842-1.984s-.913-2.038-1.026-1.894" fill="#263238"/><path d="M285.834,376.69c.115.138.906-.47,1.142-1.609s-.23-2.013-.392-1.934c-.181.061-.053.864-.262,1.8-.187.936-.63,1.617-.488,1.747" fill="#263238"/><path d="M348.991,373.648l.528,43.757,14.762-4.922,5.191-39.393Z" fill="#ffc09d"/><path d="M364.36,409.863s-9.651,8.056-15.2,2.347l-1.032,3.105-3.92,21.807a2.844,2.844,0,0,0,1.959,3.265,2.9,2.9,0,0,0,2.946-.831c3.879-4.31,18.067-20.233,17.737-22.188l-.536-5.218a2.669,2.669,0,0,0-1.958-2.287" fill="#f14141"/><g opacity="0.6"><g clip-path="url(#o)"><path d="M346.69,440.486,366.7,415.551l.1,1.141a3.152,3.152,0,0,1-.818,2.613c-1.573,2.511-6.043,8.212-16.777,20.246a2.892,2.892,0,0,1-2.511.935" fill="#fff"/></g></g><g opacity="0.6"><g clip-path="url(#p)"><path d="M363.151,412.446a1.65,1.65,0,0,0-.28,2.222,1.682,1.682,0,0,0,2.257.279,1.6,1.6,0,1,0-2.1-2.391" fill="#fff"/></g></g><path d="M351.99,428.165a8.578,8.578,0,0,0-2.607-1.885,8.914,8.914,0,0,0-3.236-.316c-.03-.064.3-.3.942-.449a4.539,4.539,0,0,1,2.516.211,4.393,4.393,0,0,1,2,1.491c.371.526.449.92.382.948" fill="#263238"/><path d="M350.333,431.944a23.378,23.378,0,0,0-2.551-.945,23.661,23.661,0,0,0-2.73-.1c-.092-.131,1.19-.818,2.855-.478,1.669.322,2.564,1.442,2.426,1.527" fill="#263238"/><path d="M355.256,423.222c-.118.139-1.594-1.1-3.834-1.718-2.229-.656-4.162-.4-4.183-.575a6.456,6.456,0,0,1,4.358,0c2.4.674,3.786,2.2,3.659,2.289" fill="#263238"/><path d="M355.158,416.7c-.061.168-1.643-.321-3.637-.218-2,.076-3.531.706-3.6.544a7.224,7.224,0,0,1,7.241-.326" fill="#263238"/><path d="M350.384,416.528a2.269,2.269,0,0,1,.064-1.022,7.038,7.038,0,0,1,1.1-2.593,3.223,3.223,0,0,1,1.53-1.375,1.16,1.16,0,0,1,1.258.362,1.771,1.771,0,0,1,.315,1.256,4.009,4.009,0,0,1-3.866,3.293,4.638,4.638,0,0,1-4.323-2.776,1.54,1.54,0,0,1,.054-1.313,1.141,1.141,0,0,1,1.225-.471,3.973,3.973,0,0,1,1.729,1.086,7.92,7.92,0,0,1,1.677,2.262,2.37,2.37,0,0,1,.332.969,12.567,12.567,0,0,0-2.3-2.922,3.722,3.722,0,0,0-1.531-.911.608.608,0,0,0-.669.253,1.06,1.06,0,0,0,.016.865,4.144,4.144,0,0,0,3.777,2.364,3.482,3.482,0,0,0,3.323-2.75,1.282,1.282,0,0,0-.182-.885.627.627,0,0,0-.691-.21,2.916,2.916,0,0,0-1.317,1.141,10.409,10.409,0,0,0-1.514,3.377" fill="#263238"/><path d="M359.841,286.592s-6.566-2.852-14.172,1.694c-5.833,3.485-43.254,64.013-43.254,64.013l24.2,16.611,33.224-49.27,13.6,11.716s28.157,5.708,36.569,2.1,12.994-13.159,12.318-21.331a41.5,41.5,0,0,0-3.461-13.91c-9.706,1.482-16.284,5.013-29.586-1.346Z" fill="#263238"/><path d="M351.454,318.2s15.608-6.635,20.392,5.417c1.611,4.057.6,21.792-.208,38.385-.791,16.32-1.355,31.535-1.355,31.535l-25.567-.711-.977-43.711s.29-16.1,2.813-21.287,4.9-9.628,4.9-9.628" fill="#263238"/><path d="M335.708,300.937s-.047.089-.153.255l-.475.735-1.87,2.832-7.006,10.6c-5.961,9.076-14.326,21.892-23.631,37.033l-.053-.248,21.451,14.712,2.755,1.891-.269.051,33.273-49.237.012-.018.018-.013a11.689,11.689,0,0,0,3.285-4.167,16.194,16.194,0,0,0,1.389-4.56,13.818,13.818,0,0,0-3.4-11.566c-.375-.4-.674-.7-.885-.89s-.309-.3-.309-.3a9.9,9.9,0,0,1,1.249,1.135,13.474,13.474,0,0,1,2.643,4.058,13.809,13.809,0,0,1,.913,7.591,16.4,16.4,0,0,1-1.381,4.634,11.937,11.937,0,0,1-3.339,4.274l.029-.031-33.175,49.3-.109.162-.161-.111-2.755-1.891-21.441-14.726-.144-.1.092-.149c9.329-15.134,17.737-27.926,23.752-36.967l7.1-10.546,1.919-2.8.5-.718c.114-.16.179-.237.179-.237" fill="#455a64"/><path d="M406.811,317.087a15.712,15.712,0,0,0-.26-4.258,17.141,17.141,0,0,0-5.25-8.681,36.629,36.629,0,0,0-8.7-5.561l-2.845-1.358a6.7,6.7,0,0,1-1.029-.536,6.781,6.781,0,0,1,1.09.4c.691.28,1.686.7,2.9,1.25a34.042,34.042,0,0,1,8.839,5.523,16.833,16.833,0,0,1,5.257,8.91,11.256,11.256,0,0,1,.185,3.168,6.917,6.917,0,0,1-.119.854.889.889,0,0,1-.074.292" fill="#455a64"/><path d="M370.283,393.537a5.107,5.107,0,0,1-.023-.84q.018-.9.048-2.4c.072-2.14.174-5.147.3-8.841.306-7.507.724-17.794,1.187-29.157.24-5.692.468-11.113.676-16.052.105-4.908.8-9.46-.664-12.917a9.873,9.873,0,0,0-2.928-3.936,9.068,9.068,0,0,0-3.3-1.725,13.572,13.572,0,0,0-2.337-.484c-.544-.064-.833-.072-.833-.093a.651.651,0,0,1,.214-.023c.141,0,.352,0,.628.012a11.777,11.777,0,0,1,2.384.393,9.809,9.809,0,0,1,6.514,5.717,15.475,15.475,0,0,1,1.012,6.061c-.043,2.2-.122,4.545-.209,7.013-.2,4.94-.41,10.362-.636,16.056-.522,11.361-.994,21.646-1.339,29.151-.194,3.691-.351,6.7-.463,8.833q-.091,1.508-.146,2.4a5.04,5.04,0,0,1-.082.836" fill="#455a64"/></g><text transform="translate(146.913 116.081)" fill="#fff" font-size="44.649" font-family="Roboto-Bold, Roboto" font-weight="700"><tspan x="0" y="0">$$$</tspan></text></g></g></g></svg>