<svg xmlns="http://www.w3.org/2000/svg" width="135" height="135" viewBox="0 0 135 135"><g transform="translate(-180 -13291.418)"><g transform="translate(180 13291.418)" fill="#fff" stroke="#f14141" stroke-width="3"><circle cx="67.5" cy="67.5" r="67.5" stroke="none"/><circle cx="67.5" cy="67.5" r="66" fill="none"/></g><g transform="translate(206.159 13316.418)"><g transform="translate(2.191 16.483)"><g transform="translate(2.382 33.348)"><path d="M4,42h9.528V65.82H4Z" transform="translate(-4 -42)" fill="#ff826e"/></g><g transform="translate(16.674 35.73)"><path d="M16,44h9.528V65.438H16Z" transform="translate(-16 -44)" fill="#ff826e"/></g><g transform="translate(45.258 11.91)"><path d="M55.483,69.258H40V24h9.528V35.91h-.2a3.369,3.369,0,0,0-2.382,5.752l3.775,3.775L46.4,52.357a10.647,10.647,0,0,0-1.632,5.681v.5A10.72,10.72,0,0,0,55.483,69.258Z" transform="translate(-40 -24)" fill="#ff826e"/></g><g transform="translate(30.966 21.438)"><path d="M28,32h9.528V67.73H28Z" transform="translate(-28 -32)" fill="#ff826e"/></g><g transform="translate(51.213 21.438)"><path d="M52.241,34.382A3.129,3.129,0,0,1,55.278,32h3.263a3.131,3.131,0,0,1,3.132,3.132,2.926,2.926,0,0,1-.119.858l-2.263,7.92H49.764l-3.775-3.775a3.369,3.369,0,0,1,2.382-5.752h3.871Z" transform="translate(-45 -32)" fill="#a0d468"/></g><g transform="translate(50.022 33.348)"><path d="M49.955,42h9.528l4.323,6.92A10.647,10.647,0,0,1,65.438,54.6v.5A10.719,10.719,0,1,1,44,55.1v-.5a10.647,10.647,0,0,1,1.632-5.681Z" transform="translate(-44 -42)" fill="#b4dd7f"/></g><g transform="translate(46.449)"><path d="M47.1,15.048A3.571,3.571,0,1,1,44.573,14,3.564,3.564,0,0,1,47.1,15.048Z" transform="translate(-41 -14)" fill="#fcd770"/></g><g transform="translate(29.775 9.528)"><path d="M33.681,23.81a3.506,3.506,0,0,1,.464,1.763,3.573,3.573,0,0,1-7.1.584A3.13,3.13,0,0,1,27,25.573a3.573,3.573,0,0,1,6.681-1.763Z" transform="translate(-27 -22)" fill="#fcd770"/></g><g transform="translate(0 4.764)"><path d="M25.653,27.957a11.681,11.681,0,0,1,.167,1.953,11.946,11.946,0,1,1-.167-1.953Z" transform="translate(-2 -18)" fill="#fcd770"/></g></g><g transform="translate(1 1)"><path d="M11.382,35.119v2.555h2.382V35.119a3.387,3.387,0,0,0,.5-6.267l-2.322-1.16a1.018,1.018,0,0,1,.455-1.928h.348a1.018,1.018,0,0,1,1.017,1.017v.174h2.382v-.174a3.393,3.393,0,0,0-2.382-3.226V21H11.382v2.555a3.387,3.387,0,0,0-.5,6.267l2.322,1.16a1.018,1.018,0,0,1-.455,1.928H12.4a1.018,1.018,0,0,1-1.017-1.017V30.528H9v1.365A3.393,3.393,0,0,0,11.382,35.119Z" transform="translate(0.528 2.82)"/><path d="M14.1,46.258a13.116,13.116,0,0,0,13.1-13.1c0-.326-.025-.647-.049-.968l4.04-.674a4.745,4.745,0,0,0,8.924-3.175l8.688-4.965a4.745,4.745,0,0,0,7.5-5.723L68.886,5.066v6.653h2.382V1H60.549V3.382H67.2L54.617,15.967a4.7,4.7,0,0,0-2.4-.675,4.769,4.769,0,0,0-4.764,4.764,4.721,4.721,0,0,0,.186,1.245l-8.688,4.965a4.738,4.738,0,0,0-8.128,2.9l-4.058.676A13.094,13.094,0,1,0,14.1,46.258ZM52.213,17.674a2.382,2.382,0,1,1-2.382,2.382A2.384,2.384,0,0,1,52.213,17.674ZM35.539,27.2a2.382,2.382,0,1,1-2.382,2.382A2.384,2.384,0,0,1,35.539,27.2ZM14.1,22.438A10.719,10.719,0,1,1,3.382,33.157,10.732,10.732,0,0,1,14.1,22.438Z" transform="translate(-1 -1)"/><path d="M3,67.2H14.91V41H3Zm2.382-23.82h7.146V64.82H5.382Z" transform="translate(-0.618 6.64)"/><path d="M15,66.82H26.91V43H15Zm2.382-21.438h7.146V64.438H17.382Z" transform="translate(1.674 7.022)"/><path d="M27,69.112H38.91V31H27Zm2.382-35.73h7.146V66.73H29.382Z" transform="translate(3.966 4.73)"/><path d="M54.764,47.555V45H52.382v2.555a3.387,3.387,0,0,0-.5,6.267L54.2,54.983a1.017,1.017,0,0,1-.455,1.927H53.4a1.019,1.019,0,0,1-1.017-1.017V54.528H50v1.365a3.391,3.391,0,0,0,2.382,3.226v2.555h2.382V59.119a3.387,3.387,0,0,0,.5-6.267l-2.322-1.161a1.017,1.017,0,0,1,.455-1.927h.348a1.019,1.019,0,0,1,1.017,1.017v.174h2.382v-.174A3.393,3.393,0,0,0,54.764,47.555Z" transform="translate(8.358 7.404)"/><path d="M65.773,51.918l-4.045-6.472,2.116-7.407a4.327,4.327,0,0,0-4.159-5.512h-3.26a4.313,4.313,0,0,0-3.842,2.382H50.91V23H39V70.64H55.674a11.923,11.923,0,0,0,11.91-11.91v-.5a11.9,11.9,0,0,0-1.81-6.312ZM54.483,36.854a1.945,1.945,0,0,1,1.943-1.944h3.26a1.943,1.943,0,0,1,1.869,2.477L59.54,44.438H51.4l-3.429-3.429a2.178,2.178,0,0,1,1.541-3.717H52.1v2.382h2.382Zm-13.1,31.4V25.382h7.146v9.642a4.553,4.553,0,0,0-2.237,7.669L49.4,45.8l-3.823,6.118a11.89,11.89,0,0,0-1.811,6.312v.5a11.886,11.886,0,0,0,4.795,9.528ZM65.2,58.73a9.528,9.528,0,1,1-19.056,0v-.5a9.506,9.506,0,0,1,1.448-5.049L51.57,46.82h8.208l3.976,6.362A9.506,9.506,0,0,1,65.2,58.231Z" transform="translate(6.258 3.202)"/></g></g></g></svg>