<svg xmlns="http://www.w3.org/2000/svg" width="135" height="135" viewBox="0 0 135 135"><g transform="translate(-810 -13084.418)"><g transform="translate(810 13084.418)" fill="#fff" stroke="#f14141" stroke-width="3"><circle cx="67.5" cy="67.5" r="67.5" stroke="none"/><circle cx="67.5" cy="67.5" r="66" fill="none"/></g><g transform="translate(820.89 13090.418)"><path d="M80,32h56.728v71.855H80Z" transform="translate(-53.92 -6.739)" fill="#ebebeb"/><circle cx="9.957" cy="9.957" r="9.957" transform="translate(31.926 30.665)" fill="#fdb62f"/><path d="M0,0H7.564V31.515H0Z" transform="translate(21.324 52.864) rotate(-19.268)" fill="#cdcdcd"/><path d="M2.521,0H5.042A2.521,2.521,0,0,1,7.564,2.521V7.564H0V2.521A2.521,2.521,0,0,1,2.521,0Z" transform="translate(18.828 45.724) rotate(-19.268)" fill="#4298d1"/><path d="M19.477,198.328a1.262,1.262,0,0,1-1.19-.844l-2.08-5.95a3.782,3.782,0,0,1,2.323-4.818l9.52-3.329a1.261,1.261,0,0,1,.832,2.381l-9.52,3.329a1.26,1.26,0,0,0-.774,1.605l2.08,5.95a1.26,1.26,0,0,1-1.19,1.677Z" transform="translate(0 -134.211)" fill="#a8a8a8"/><path d="M0,0H7.564V10.085H0Z" transform="translate(28.396 73.095) rotate(-19.268)" fill="#4298d1"/><path d="M77.408,286.506a1.261,1.261,0,0,1-.416-2.451l7.138-2.5a1.261,1.261,0,0,1,.832,2.381l-7.138,2.5A1.262,1.262,0,0,1,77.408,286.506Z" transform="translate(-50.674 -216.913)" fill="#a8a8a8"/><path d="M157.516,87.022l-2.342-1.172a1.174,1.174,0,0,1-.654-1.056,1.27,1.27,0,0,1,.425-.914,1.185,1.185,0,0,1,1.672,0l.794.794a1.261,1.261,0,1,0,1.783-1.783L158.4,82.1a3.632,3.632,0,0,0-1.358-.851V80h-2.521v1.265a3.918,3.918,0,0,0-1.437.91A3.728,3.728,0,0,0,152,84.794a3.683,3.683,0,0,0,2.047,3.312l2.342,1.172a1.174,1.174,0,0,1,.654,1.056,1.27,1.27,0,0,1-.425.915,1.184,1.184,0,0,1-1.672,0l-.794-.794a1.261,1.261,0,1,0-1.783,1.783l.794.794a3.629,3.629,0,0,0,1.358.849v1.248h2.521V93.862a3.919,3.919,0,0,0,1.437-.91,3.728,3.728,0,0,0,1.085-2.618A3.683,3.683,0,0,0,157.516,87.022Z" transform="translate(-114.575 -47.176)" fill="#dc9315"/><path d="M200,224h11.345v41.6H200Z" transform="translate(-155.011 -168.485)" fill="#6a9876"/><path d="M232,256h6.3v31.515H232Z" transform="translate(-181.969 -195.442)" fill="#8bc89c"/><path d="M200,224h11.345A11.345,11.345,0,0,1,200,235.345h0Z" transform="translate(-155.011 -168.485)" fill="#6a9876"/><path d="M200,416a11.345,11.345,0,0,1,11.345,11.345H200Z" transform="translate(-155.011 -330.23)" fill="#6a9876"/><path d="M232,325.042a5.042,5.042,0,0,0,5.042,5.043V320A5.042,5.042,0,0,0,232,325.042Z" transform="translate(-181.969 -249.357)" fill="#6a9876"/><g transform="translate(38.686 32.824)"><path d="M336,80h10.085v2.521H336Z" transform="translate(-308.267 -80)" fill="#b9b9b9"/><path d="M336,112h10.085v2.521H336Z" transform="translate(-308.267 -106.958)" fill="#b9b9b9"/><path d="M160,224h2.521v2.521H160Z" transform="translate(-160 -201.309)" fill="#b9b9b9"/><path d="M160,256h2.521v2.521H160Z" transform="translate(-160 -228.267)" fill="#b9b9b9"/><path d="M160,288h2.521v5.042H160Z" transform="translate(-160 -255.224)" fill="#b9b9b9"/><path d="M304,112h2.521v2.521H304Z" transform="translate(-281.309 -106.958)" fill="#b9b9b9"/><path d="M304,80h2.521v2.521H304Z" transform="translate(-281.309 -80)" fill="#b9b9b9"/></g><path d="M264,168h32.776v50.424H264Z" transform="translate(-208.926 -121.309)" fill="#ff9201"/><path d="M296,192h2.521v2.521H296Z" transform="translate(-235.884 -141.527)" fill="#dd7f04"/><path d="M328,192h2.521v2.521H328Z" transform="translate(-262.841 -141.527)" fill="#dd7f04"/><path d="M360,192h2.521v2.521H360Z" transform="translate(-289.799 -141.527)" fill="#dd7f04"/><path d="M296,312h22.691v22.691H296Z" transform="translate(-235.884 -242.618)" fill="#fdb62f"/><path d="M344,408h15.127v7.564H344Z" transform="translate(-276.32 -323.491)" fill="#fdb62f"/><path d="M392,192h8.824v2.521H392Z" transform="translate(-316.756 -141.527)" fill="#dd7f04"/><path d="M296,232h22.691v7.564H296Z" transform="translate(-235.884 -175.224)" fill="#b1e4e9"/><path d="M296,232h21.43v6.3H296Z" transform="translate(-235.884 -175.224)" fill="#bef5fa"/><path d="M336.005,312h1.26v22.691h-1.26Z" transform="translate(-269.585 -242.618)" fill="#ec9e15"/><path d="M384.005,312h1.26v15.127h-1.26Z" transform="translate(-310.021 -242.618)" fill="#ec9e15"/><path d="M296,352h22.691v1.261H296Z" transform="translate(-235.884 -276.315)" fill="#ec9e15"/><path d="M296,400h22.691v1.261H296Z" transform="translate(-235.884 -316.751)" fill="#ec9e15"/><path d="M148.485,430.417a1.262,1.262,0,0,1-1.19-.844l-.893-2.553a1.261,1.261,0,1,1,2.381-.832l.893,2.553a1.26,1.26,0,0,1-1.19,1.677Z" transform="translate(-109.799 -338.1)" fill="#a8a8a8"/><path d="M115.838,382.609l4.876,6.308,2.38-.832-.117-7.972Z" transform="translate(-84.111 -299.998)" fill="#cdcdcd"/><path d="M289.261,329.212h22.691a1.261,1.261,0,0,0,1.261-1.261V305.261A1.261,1.261,0,0,0,311.952,304H289.261A1.261,1.261,0,0,0,288,305.261v22.691A1.261,1.261,0,0,0,289.261,329.212Zm1.261-7.564h5.042v5.042h-5.042Zm12.606-2.521h-5.042v-5.043h5.042Zm2.521-5.043h5.042v5.043h-5.042Zm-10.085,5.043h-5.042v-5.043h5.042Zm2.521,7.564v-5.042h12.606v5.042Zm12.606-20.17v5.042h-5.042v-5.042Zm-7.564,0v5.042h-5.042v-5.042Zm-7.564,0v5.042h-5.042v-5.042Z" transform="translate(-229.144 -235.879)"/><path d="M289.261,234.085h22.691a1.261,1.261,0,0,0,1.261-1.261v-7.564A1.261,1.261,0,0,0,311.952,224H289.261A1.261,1.261,0,0,0,288,225.261v7.564A1.261,1.261,0,0,0,289.261,234.085Zm1.261-7.564h20.17v5.042h-20.17Z" transform="translate(-229.144 -168.485)"/><path d="M87.86,45.43H84.078V25.261A1.261,1.261,0,0,0,82.818,24H26.09a1.261,1.261,0,0,0-1.261,1.261V42.678a3.758,3.758,0,0,0-1.647.19L20.8,43.7a3.782,3.782,0,0,0-2.322,4.819l1.248,3.57-1.19.416a3.786,3.786,0,0,0-2.322,4.818l2.08,5.95a1.26,1.26,0,1,0,2.38-.832L18.6,56.49a1.262,1.262,0,0,1,.774-1.605l1.19-.416L24.83,66.675V97.115a1.261,1.261,0,0,0,1.261,1.261H87.86a1.261,1.261,0,0,0,1.261-1.261V46.691A1.261,1.261,0,0,0,87.86,45.43ZM37.642,81.882,37.72,87.2l-.665.232L33.8,83.224Zm-5.131-.877-2.5-7.14,4.76-1.664,2.5,7.14Zm1.431-11.184-4.76,1.664-.832-2.379,4.76-1.664Zm-6.424-3.1-4.577-13.09,4.76-1.664,4.577,13.09Zm-6.657-19.04a1.261,1.261,0,0,1,.774-1.606l2.379-.832a1.261,1.261,0,0,1,1.606.774l1.248,3.57L22.11,51.256Zm6.49,26.2,3.2,9.143a1.261,1.261,0,0,0,.194.354l4.876,6.308a1.261,1.261,0,0,0,1.413.419l.476,1.363a1.26,1.26,0,1,0,2.38-.832l-.477-1.362a1.261,1.261,0,0,0,.844-1.208L40.138,80.1h0a1.254,1.254,0,0,0-.069-.4L35.074,65.42,29.665,49.951,28,45.19a3.763,3.763,0,0,0-.65-1.156V26.521H81.557V45.43H55.084a1.261,1.261,0,0,0-1.261,1.261v7.564H45a1.261,1.261,0,0,0-1.261,1.261v40.34H27.351ZM53.824,79.25a3.782,3.782,0,0,1,0-7.13Zm0-9.741A6.278,6.278,0,0,0,51.3,70.646V66.429a12.293,12.293,0,0,0,2.521-1.922ZM51.3,80.724a6.278,6.278,0,0,0,2.521,1.137v6.263A12.293,12.293,0,0,0,51.3,86.2ZM46.26,85.77V56.776h7.564v3.609a9.448,9.448,0,0,1-1.691,2.249l-.013.013a9.914,9.914,0,0,1-2.641,1.9,1.261,1.261,0,0,0-.7,1.127V86.955a1.261,1.261,0,0,0,.7,1.127,9.914,9.914,0,0,1,2.641,1.9l.013.013a9.448,9.448,0,0,1,1.691,2.249v3.609H46.26ZM86.6,95.855H56.345v-47.9H86.6Z" transform="translate(-0.01 0)"/><path d="M296,192h2.521v2.521H296Z" transform="translate(-235.884 -141.527)"/><path d="M328,192h2.521v2.521H328Z" transform="translate(-262.841 -141.527)"/><path d="M360,192h2.521v2.521H360Z" transform="translate(-289.799 -141.527)"/><path d="M392,192h8.824v2.521H392Z" transform="translate(-316.756 -141.527)"/><path d="M157.042,95.127V93.89a3.674,3.674,0,0,0,1.358-.859l.079-.079a3.7,3.7,0,0,0-.962-5.931l-2.342-1.171a1.182,1.182,0,0,1-.307-1.893l.079-.079a1.182,1.182,0,0,1,1.671,0l.794.794a1.261,1.261,0,0,0,1.783-1.783L158.4,82.1a3.673,3.673,0,0,0-1.358-.859V80h-2.521v1.238a3.673,3.673,0,0,0-1.358.859l-.079.079a3.7,3.7,0,0,0,.962,5.931l2.342,1.171a1.182,1.182,0,0,1,.307,1.893l-.079.079a1.182,1.182,0,0,1-1.671,0l-.794-.794a1.261,1.261,0,0,0-1.783,1.783l.794.794a3.673,3.673,0,0,0,1.358.859v1.238Z" transform="translate(-114.574 -47.176)"/><path d="M126.691,67.346a11.345,11.345,0,1,0-11.345,11.346A11.345,11.345,0,0,0,126.691,67.346Zm-20.17,0a8.824,8.824,0,1,1,8.824,8.824A8.824,8.824,0,0,1,106.521,67.346Z" transform="translate(-74.138 -26.958)"/><path d="M336,80h10.085v2.521H336Z" transform="translate(-269.581 -47.176)"/><path d="M336,112h10.085v2.521H336Z" transform="translate(-269.581 -74.133)"/><path d="M160,224h2.521v2.521H160Z" transform="translate(-121.314 -168.485)"/><path d="M160,256h2.521v2.521H160Z" transform="translate(-121.314 -195.442)"/><path d="M160,288h2.521v5.042H160Z" transform="translate(-121.314 -222.4)"/><path d="M304,112h2.521v2.521H304Z" transform="translate(-242.623 -74.133)"/><path d="M304,80h2.521v2.521H304Z" transform="translate(-242.623 -47.176)"/></g></g></svg>