<svg xmlns="http://www.w3.org/2000/svg" width="135" height="135" viewBox="0 0 135 135"><g transform="translate(-180 -13084.418)"><g transform="translate(180 13084.418)" fill="#fff" stroke="#f14141" stroke-width="3"><circle cx="67.5" cy="67.5" r="67.5" stroke="none"/><circle cx="67.5" cy="67.5" r="66" fill="none"/></g><g transform="translate(209 13113.418)"><path d="M38,49.779v-43h4.778V2H57.112V6.778H61.89v43Z" transform="translate(7.196 0.194)" fill="#e0e0e0"/><path d="M38,10H61.89V48.224H38Z" transform="translate(7.196 1.75)" fill="#c7e2fb"/><path d="M42,10h4.778V48.224H42Z" transform="translate(7.974 1.75)" fill="#ebf7fe"/><path d="M30,24H53.89V69.39H30Z" transform="translate(5.64 4.473)" fill="#4596ec"/><path d="M40,38v9.556h4.778a3.583,3.583,0,0,0,3.583-3.583V38Z" transform="translate(7.585 7.196)" fill="#6aabf0"/><path d="M30,38v9.556h4.778a3.583,3.583,0,0,0,3.583-3.583V38Z" transform="translate(5.64 7.196)" fill="#6aabf0"/><path d="M40,24v9.556h4.778a3.583,3.583,0,0,0,3.583-3.583V24Z" transform="translate(7.585 4.473)" fill="#6aabf0"/><path d="M30,34H53.89v4.778H30Z" transform="translate(5.64 6.418)" fill="#b3bec4"/><path d="M30,48H53.89v4.778H30Z" transform="translate(5.64 9.141)" fill="#b3bec4"/><path d="M4,24H30.279V69.39H4Z" transform="translate(0.583 4.473)" fill="#b3bec4"/><path d="M4,24V58.64H23.112A3.583,3.583,0,0,0,26.7,55.057V24Z" transform="translate(0.583 4.473)" fill="#c2cbd0"/><path d="M17,44H38.5V65.5H17Z" transform="translate(3.112 8.363)" fill="#b3bec4"/><path d="M17,44H38.5V60.723H17Z" transform="translate(3.112 8.363)" fill="#e0e0e0"/><path d="M17,44V58.334H33.723a2.389,2.389,0,0,0,2.389-2.389V44Z" transform="translate(3.112 8.363)" fill="#f5f5f5"/><path d="M45,42H62.917V65.89H45Z" transform="translate(8.557 7.974)" fill="#b3bec4"/><path d="M45,42V63.5H56.945a3.583,3.583,0,0,0,3.583-3.583V42Z" transform="translate(8.557 7.974)" fill="#c2cbd0"/><g transform="translate(10.556 33.251)"><path d="M9,36h4.778v4.778H9Z" transform="translate(-9 -26.444)" fill="#4596ec"/><path d="M17,36h4.778v4.778H17Z" transform="translate(-7.444 -26.444)" fill="#4596ec"/><path d="M9,28h4.778v4.778H9Z" transform="translate(-9 -28)" fill="#4596ec"/><path d="M17,28h4.778v4.778H17Z" transform="translate(-7.444 -28)" fill="#4596ec"/><path d="M9,44h4.778v4.778H9Z" transform="translate(-9 -24.888)" fill="#4596ec"/><path d="M9,52h4.778v4.778H9Z" transform="translate(-9 -23.332)" fill="#4596ec"/></g><path d="M50,10h4.778V48.224H50Z" transform="translate(9.53 1.75)" fill="#ebf7fe"/><path d="M21,48H32.945v7.167H21Z" transform="translate(3.89 9.141)" fill="#c7e2fb"/><path d="M25,48h2.389v7.167H25Z" transform="translate(4.668 9.141)" fill="#ebf7fe"/><circle cx="2.382" cy="2.382" r="2.382" transform="translate(5.765 15.295)" fill="#4596ec"/><ellipse cx="2.042" cy="2.382" rx="2.042" ry="2.382" transform="translate(24.144 13.933)" fill="#4596ec"/><circle cx="2.382" cy="2.382" r="2.382" transform="translate(35.716 2.361)" fill="#4596ec"/><circle cx="2.382" cy="2.382" r="2.382" transform="translate(15.295 5.765)" fill="#4596ec"/><path d="M30,24v9.556h4.778a3.583,3.583,0,0,0,3.583-3.583V24Z" transform="translate(5.64 4.473)" fill="#6aabf0"/><path d="M72.669,72.669v-22.7a1.194,1.194,0,0,0-1.194-1.194H70.28V6.972a1.194,1.194,0,0,0-1.194-1.194H65.5V2.194A1.194,1.194,0,0,0,64.308,1H49.974a1.194,1.194,0,0,0-1.194,1.194V5.778H45.2A1.194,1.194,0,0,0,44,6.972V27.279H35.64a1.194,1.194,0,0,0-1.194,1.194v22.7H32.057v-22.7a1.194,1.194,0,0,0-1.194-1.194H4.583a1.194,1.194,0,0,0-1.194,1.194v44.2H1v2.389H75.058V72.669ZM40.418,67.891H21.306V53.557H40.418ZM21.306,70.28H40.418v2.389H21.306Zm21.5-11.945h9.556v2.389H42.807Zm10.75-45.39V27.279H51.168V12.945Zm7.167,35.835V12.945h2.389V48.779Zm-2.389-21.5H55.946V12.945h2.389Zm0,2.389v9.556H48.779V29.668Zm0,11.945V44h-21.5V41.613Zm0,4.778v2.389H53.557a1.194,1.194,0,0,0-1.194,1.194v5.972H48.779V46.39ZM42.807,63.113h9.556v9.556H42.807ZM54.752,51.168H70.28v21.5H54.752ZM65.5,48.779V12.945h2.389V48.779ZM49.974,8.167a1.194,1.194,0,0,0,1.194-1.194V3.389H63.113V6.972a1.194,1.194,0,0,0,1.194,1.194h3.583v2.389H46.39V8.167ZM46.39,12.945h2.389V27.279H46.39Zm0,16.723v9.556H36.835V29.668ZM36.835,46.39H46.39v9.556H42.807V52.363a1.194,1.194,0,0,0-1.194-1.194H36.835ZM5.778,29.668h23.89v21.5H20.112a1.194,1.194,0,0,0-1.194,1.194V72.669H5.778Z"/><path d="M13.972,35H9.194A1.194,1.194,0,0,0,8,36.194v4.778a1.194,1.194,0,0,0,1.194,1.194h4.778a1.194,1.194,0,0,0,1.194-1.194V36.194A1.194,1.194,0,0,0,13.972,35Zm-1.194,4.778H10.389V37.389h2.389Z" transform="translate(1.361 6.613)"/><path d="M17.194,42.167h4.778a1.194,1.194,0,0,0,1.194-1.194V36.194A1.194,1.194,0,0,0,21.972,35H17.194A1.194,1.194,0,0,0,16,36.194v4.778A1.194,1.194,0,0,0,17.194,42.167Zm1.194-4.778h2.389v2.389H18.389Z" transform="translate(2.917 6.613)"/><path d="M13.972,27H9.194A1.194,1.194,0,0,0,8,28.194v4.778a1.194,1.194,0,0,0,1.194,1.194h4.778a1.194,1.194,0,0,0,1.194-1.194V28.194A1.194,1.194,0,0,0,13.972,27Zm-1.194,4.778H10.389V29.389h2.389Z" transform="translate(1.361 5.057)"/><path d="M17.194,34.167h4.778a1.194,1.194,0,0,0,1.194-1.194V28.194A1.194,1.194,0,0,0,21.972,27H17.194A1.194,1.194,0,0,0,16,28.194v4.778A1.194,1.194,0,0,0,17.194,34.167Zm1.194-4.778h2.389v2.389H18.389Z" transform="translate(2.917 5.057)"/><path d="M13.972,43H9.194A1.194,1.194,0,0,0,8,44.194v4.778a1.194,1.194,0,0,0,1.194,1.194h4.778a1.194,1.194,0,0,0,1.194-1.194V44.194A1.194,1.194,0,0,0,13.972,43Zm-1.194,4.778H10.389V45.389h2.389Z" transform="translate(1.361 8.168)"/><path d="M13.972,51H9.194A1.194,1.194,0,0,0,8,52.194v4.778a1.194,1.194,0,0,0,1.194,1.194h4.778a1.194,1.194,0,0,0,1.194-1.194V52.194A1.194,1.194,0,0,0,13.972,51Zm-1.194,4.778H10.389V53.389h2.389Z" transform="translate(1.361 9.724)"/><path d="M48,47H58.75v2.389H48Z" transform="translate(9.141 8.946)"/><path d="M48,51H58.75v2.389H48Z" transform="translate(9.141 9.724)"/><path d="M48,55H58.75v2.389H48Z" transform="translate(9.141 10.502)"/><path d="M21.194,56.556H33.139a1.194,1.194,0,0,0,1.194-1.194V48.194A1.194,1.194,0,0,0,33.139,47H21.194A1.194,1.194,0,0,0,20,48.194v7.167A1.194,1.194,0,0,0,21.194,56.556Zm10.75-2.389H28.361V49.389h3.583Zm-9.556-4.778h3.583v4.778H22.389Z" transform="translate(3.695 8.946)"/><path d="M7.583,21.306a3.583,3.583,0,0,0,3.583-3.583,3.525,3.525,0,0,0-.358-1.535l4.8-4.8a3.456,3.456,0,0,0,3.07,0l3.6,3.6a3.525,3.525,0,0,0-.358,1.535,3.583,3.583,0,0,0,7.167,0,3.525,3.525,0,0,0-.358-1.535l7.185-7.185a3.525,3.525,0,0,0,1.535.358,3.583,3.583,0,1,0-3.583-3.583,3.525,3.525,0,0,0,.358,1.535L27.036,13.3a3.456,3.456,0,0,0-3.07,0l-3.6-3.6a3.525,3.525,0,0,0,.358-1.535,3.583,3.583,0,1,0-7.167,0A3.525,3.525,0,0,0,13.914,9.7l-4.8,4.8a3.525,3.525,0,0,0-1.535-.358,3.583,3.583,0,1,0,0,7.167ZM37.446,3.389a1.194,1.194,0,1,1-1.194,1.194A1.194,1.194,0,0,1,37.446,3.389ZM26.7,16.528A1.194,1.194,0,1,1,25.5,15.334,1.194,1.194,0,0,1,26.7,16.528ZM17.139,6.972a1.194,1.194,0,1,1-1.194,1.194A1.194,1.194,0,0,1,17.139,6.972ZM7.583,16.528a1.194,1.194,0,1,1-1.194,1.194A1.194,1.194,0,0,1,7.583,16.528Z" transform="translate(0.583 0)"/></g></g></svg>