<svg xmlns="http://www.w3.org/2000/svg" width="135" height="135" viewBox="0 0 135 135"><g transform="translate(-810 -13291.418)"><g transform="translate(810 13291.418)" fill="#fff" stroke="#f14141" stroke-width="3"><circle cx="67.5" cy="67.5" r="67.5" stroke="none"/><circle cx="67.5" cy="67.5" r="66" fill="none"/></g><g transform="translate(841 13321.73)"><g transform="translate(1.941 1.2)"><g transform="translate(17.994 38.388)"><path d="M47.808,33H19.017a2.406,2.406,0,0,0-2.4,2.4V64.19a2.406,2.406,0,0,0,2.4,2.4H47.808a2.406,2.406,0,0,0,2.4-2.4V35.4A2.406,2.406,0,0,0,47.808,33Z" transform="translate(-16.618 -33)" fill="#d3a06c"/></g><g transform="translate(27.591 38.388)"><path d="M29.416,40.2h-4.8V33h14.4v7.2h-9.6Z" transform="translate(-24.618 -33)" fill="#b27946"/></g><g transform="translate(57.581 28.791)"><path d="M61.614,58.589l-4.259,8.529a1.951,1.951,0,0,1-3.479,0l-4.259-8.529h3.6V25h4.8V58.589Z" transform="translate(-49.618 -25)" fill="#ffeaa7"/></g><g transform="translate(0 7.198)"><path d="M9.356,8.068,13.614,16.6h-3.6V50.186h-4.8V16.6h-3.6L5.877,8.068a1.951,1.951,0,0,1,3.479,0Z" transform="translate(-1.618 -7)" fill="#ffeaa7"/></g><g transform="translate(17.994)"><path d="M33.413,1A16.795,16.795,0,1,1,16.618,17.795,16.8,16.8,0,0,1,33.413,1Z" transform="translate(-16.618 -1)" fill="#ffc729"/></g><g transform="translate(22.793 4.798)"><circle cx="11.996" cy="11.996" r="11.996" fill="#fcd770"/></g></g><path d="M30.217,12.8h2.4a1.2,1.2,0,0,1,1.2,1.2h2.4a3.6,3.6,0,0,0-3.6-3.6V8h-2.4v2.4a3.6,3.6,0,1,0,0,7.2h2.4a1.2,1.2,0,0,1,0,2.4h-2.4a1.2,1.2,0,0,1-1.2-1.2h-2.4a3.6,3.6,0,0,0,3.6,3.6v2.4h2.4V22.4a3.6,3.6,0,1,0,0-7.2h-2.4a1.2,1.2,0,1,1,0-2.4Z" transform="translate(5.313 1.597)"/><path d="M33.612,0A17.994,17.994,0,1,0,51.606,17.994,18.015,18.015,0,0,0,33.612,0Zm0,28.791a10.8,10.8,0,1,1,10.8-10.8A10.808,10.808,0,0,1,33.612,28.791ZM42.05,7.86a13.128,13.128,0,0,0-7.238-3V2.46a15.506,15.506,0,0,1,8.934,3.7Zm-9.638-3a13.14,13.14,0,0,0-7.238,3l-1.7-1.7a15.509,15.509,0,0,1,8.934-3.7Zm-8.935,4.7a13.14,13.14,0,0,0-3,7.238h-2.4a15.506,15.506,0,0,1,3.7-8.934Zm-3,9.638a13.14,13.14,0,0,0,3,7.238l-1.7,1.7a15.509,15.509,0,0,1-3.7-8.934Zm4.7,8.935a13.128,13.128,0,0,0,7.238,3v2.4a15.506,15.506,0,0,1-8.934-3.7Zm9.638,3a13.14,13.14,0,0,0,7.238-3l1.7,1.7a15.509,15.509,0,0,1-8.934,3.7Zm8.935-4.7a13.128,13.128,0,0,0,3-7.238h2.4a15.506,15.506,0,0,1-3.7,8.934Zm3-9.638a13.14,13.14,0,0,0-3-7.238l1.7-1.7a15.509,15.509,0,0,1,3.7,8.934Z" transform="translate(3.118)"/><path d="M59.538,56.591V29h-2.4V58.99H60L56.6,65.777a.767.767,0,0,1-1.326,0L51.882,58.99h2.857V31.4h-2.4V56.591H48l5.13,10.261a3.142,3.142,0,0,0,5.619,0l5.13-10.26Z" transform="translate(9.581 5.789)"/><path d="M48.008,32H19.217a3.6,3.6,0,0,0-3.6,3.6V64.39a3.6,3.6,0,0,0,3.6,3.6H48.008a3.6,3.6,0,0,0,3.6-3.6V35.6A3.6,3.6,0,0,0,48.008,32Zm-13.2,4.8v2.4h-2.4V36.8h-2.4v2.4h-2.4V34.4h12v4.8h-2.4V36.8Zm14.4,27.591a1.2,1.2,0,0,1-1.2,1.2H19.217a1.2,1.2,0,0,1-1.2-1.2V35.6a1.2,1.2,0,0,1,1.2-1.2h6v7.2H42.009V34.4h6a1.2,1.2,0,0,1,1.2,1.2Z" transform="translate(3.118 6.388)"/><path d="M19.618,56h9.6v2.4h-9.6Z" transform="translate(3.916 11.178)"/><path d="M19.618,52h9.6v2.4h-9.6Z" transform="translate(3.916 10.38)"/><path d="M55.618,25h2.4v2.4h-2.4Z" transform="translate(11.102 4.99)"/><path d="M7.939,6A3.129,3.129,0,0,0,5.13,7.736L0,18H4.34V45.587h2.4V15.6H3.882L7.276,8.811a.768.768,0,0,1,1.327,0L12,15.6H9.139V43.188h2.4V18h4.34L10.749,7.735A3.129,3.129,0,0,0,7.939,6Z" transform="translate(0 1.198)"/><path d="M3.618,41h2.4v2.4h-2.4Z" transform="translate(0.722 8.184)"/></g></g></svg>