<svg xmlns="http://www.w3.org/2000/svg" width="122.385" height="122.068" viewBox="0 0 122.385 122.068"><g transform="translate(-741.339 -12096.418)"><g transform="translate(741.339 12096.414)"><g transform="translate(1.778 2.119)"><path d="M57.97,10.129l43.3,25a4.342,4.342,0,0,1,2.223,3.851v50a4.343,4.343,0,0,1-2.223,3.851l-43.3,25a4.342,4.342,0,0,1-4.446,0l-43.3-25A4.343,4.343,0,0,1,8,88.982v-50a4.342,4.342,0,0,1,2.223-3.851l43.3-25a4.342,4.342,0,0,1,4.446,0Z" transform="translate(-7.998 -9.517)" fill="#f2d1a5" fill-rule="evenodd"/><path d="M269.941,132.007a4.427,4.427,0,0,1,.581,2.223v50.018a4.342,4.342,0,0,1-2.223,3.842l-43.3,25a4.429,4.429,0,0,1-2.223.612V159.24Z" transform="translate(-175.025 -104.775)" fill="#e3a76f" fill-rule="evenodd"/><path d="M60,10.129l43.3,25a4.427,4.427,0,0,1,1.642,1.619L57.782,63.982,10.614,36.749a4.427,4.427,0,0,1,1.642-1.619l43.3-25a4.342,4.342,0,0,1,4.446,0Z" transform="translate(-10.032 -9.517)" fill="#c48958" fill-rule="evenodd"/><path d="M84.244,78.085,98.091,86.08,145.84,58.512l-13.847-7.995Z" transform="translate(-67.293 -41.402)" fill="#d1d1d6" fill-rule="evenodd"/><path d="M96.424,203.261l-11.068-6.39a2.171,2.171,0,0,1-1.112-1.925V174.518l13.847,7.995V202.3a1.112,1.112,0,0,1-1.667.963Z" transform="translate(-67.293 -137.835)" fill="#eceff1" fill-rule="evenodd"/></g><circle cx="25.011" cy="25.011" r="25.011" transform="translate(51.654 86.707) rotate(-45)" fill="#ffd064"/><circle cx="19.099" cy="19.099" r="19.099" transform="translate(60.014 86.707) rotate(-45)" fill="#ffe177"/><path d="M94.9,91.3a5.421,5.421,0,0,1-1.272,4.313,8.052,8.052,0,0,1-4.808,2.452v1.063a1.779,1.779,0,0,1-3.557,0V98.039a7.455,7.455,0,0,1-6.074-5.429,1.779,1.779,0,0,1,3.452-.86c.551,2.208,2.831,2.948,4.608,2.9a5.241,5.241,0,0,0,3.691-1.363,1.881,1.881,0,0,0,.431-1.558c-.13-1.065-.769-2.37-4.6-3-5.582-.918-6.885-3.819-7-6.094-.153-3.144,2.027-5.776,5.425-6.548l.063-.011V74.958a1.779,1.779,0,0,1,3.557,0v1.105A7.409,7.409,0,0,1,94.3,80.554a1.778,1.778,0,1,1-3.28,1.376,4.244,4.244,0,0,0-5.037-2.37c-1.338.3-2.741,1.225-2.659,2.906.028.576.1,2.11,4.019,2.755,4.614.756,7.155,2.8,7.553,6.081Zm-7.859,13.063A17.321,17.321,0,1,0,69.72,87.044,17.321,17.321,0,0,0,87.038,104.364Zm0-38.2a20.878,20.878,0,1,0,20.876,20.877A20.879,20.879,0,0,0,87.038,66.165Zm0,44.111A23.232,23.232,0,1,0,63.806,87.043a23.232,23.232,0,0,0,23.232,23.233Zm-35.732-1.3L64.429,101.4A26.787,26.787,0,0,1,95.5,61.623V32.433L51.306,57.946v51.027ZM3.557,32.433l13.394,7.732V60.849a1.779,1.779,0,0,0,.889,1.541l13.847,7.994a1.779,1.779,0,0,0,2.668-1.54V50.214l13.394,7.732v51.027L3.557,83.459ZM49.527,3.838,62.921,11.57,18.73,37.083,5.336,29.351ZM30.8,48.159l-10.29-5.94v17.6l10.29,5.94Zm-8.511-9.022L66.478,13.624l10.29,5.94L32.577,45.078ZM49.527,54.865,36.134,47.132,80.324,21.619l13.394,7.732ZM99.055,63.1V29.351a1.779,1.779,0,0,0-.89-1.541L50.417.243a1.773,1.773,0,0,0-1.779,0L.889,27.81A1.779,1.779,0,0,0,0,29.351V84.486a1.779,1.779,0,0,0,.89,1.541l47.748,27.568a1.78,1.78,0,0,0,1.779,0l16.132-9.313A26.783,26.783,0,1,0,99.055,63.1Z" transform="translate(0 0)" fill-rule="evenodd"/></g></g></svg>