<svg xmlns="http://www.w3.org/2000/svg" width="293.708" height="164.271" viewBox="0 0 293.708 164.271">
  <g id="Grupo_148903" data-name="Grupo 148903" transform="translate(-360.292 -12134.058)">
    <g id="Grupo_148834" data-name="Grupo 148834" transform="translate(535.5 12205.345)">
      <line id="Línea_262" data-name="Línea 262" x1="106" transform="translate(11.5 5.5)" fill="none" stroke="#f14141" stroke-linecap="round" stroke-width="2" stroke-dasharray="3"/>
      <circle id="Elipse_4896" data-name="Elipse 4896" cx="5.5" cy="5.5" r="5.5" transform="translate(0 0)" fill="#f14141"/>
    </g>
    <g id="Grupo_148902" data-name="Grupo 148902" transform="translate(-7019.808 10640.678)">
      <path id="Trazado_211306" data-name="Trazado 211306" d="M7512.81,1598.724c0,8.2-23.094,14.848-51.582,14.848s-51.581-6.647-51.581-14.848,23.093-14.847,51.581-14.847S7512.81,1590.524,7512.81,1598.724Z" transform="translate(14.389 44.079)" fill="#b1b1b1" style="mix-blend-mode: multiply;isolation: isolate"/>
      <g id="Grupo_148901" data-name="Grupo 148901" transform="translate(7380.1 1493.38)">
        <g id="Grupo_148875" data-name="Grupo 148875" transform="translate(61.464)">
          <path id="Trazado_211307" data-name="Trazado 211307" d="M7423.653,1513.376v75.6a2.833,2.833,0,0,0,2.833,2.831h70.8a2.831,2.831,0,0,0,2.831-2.831v-75.6Z" transform="translate(-7420.349 -1483.641)" fill="#323841"/>
          <path id="Trazado_211308" data-name="Trazado 211308" d="M7433.407,1520.247c.405,2,.774,4.018,1.281,5.993a64.252,64.252,0,0,0,5,13.036c1.24,2.452,2.59,4.852,4.053,7.179a40.653,40.653,0,0,0,4.267,5.952,35.482,35.482,0,0,0,10.879,7.84,51.908,51.908,0,0,0,24.283,5.251,55.277,55.277,0,0,0,8.864-1.094v-49.048h-59.153A18.04,18.04,0,0,0,7433.407,1520.247Z" transform="translate(-7415.87 -1482.677)" fill="#fff" opacity="0.5" style="mix-blend-mode: soft-light;isolation: isolate"/>
          <path id="Trazado_211309" data-name="Trazado 211309" d="M7458.739,1571.05a49.085,49.085,0,0,1-14.128-9.293c-4.445-4.342-7.71-9.9-10.668-15.315a88.307,88.307,0,0,1-7.979-19.151c-.813-3.017-1.425-6.1-2.016-9.172-.1-.528-.2-1.063-.295-1.6v70.935a2.833,2.833,0,0,0,2.833,2.831h70.8a2.831,2.831,0,0,0,2.831-2.831V1575.9A68.346,68.346,0,0,1,7458.739,1571.05Z" transform="translate(-7420.349 -1482.112)" fill="#b1b1b1" style="mix-blend-mode: multiply;isolation: isolate"/>
          <path id="Trazado_211310" data-name="Trazado 211310" d="M7501.368,1523.115l3.364-26.711a3.057,3.057,0,0,0-3.087-3.025h-77.128a3.054,3.054,0,0,0-3.085,3.025l3.371,26.711Z" transform="translate(-7421.433 -1493.38)" fill="#323841"/>
          <path id="Trazado_211311" data-name="Trazado 211311" d="M7481.838,1497.806c-7.2-.763-14.479-.026-21.645.752a39.126,39.126,0,0,0-15.18,4.523,34.6,34.6,0,0,0-11.092,9.844,39.912,39.912,0,0,0-4.531,8.189h68.1l2.083-16.559C7493.951,1501.527,7488.234,1498.484,7481.838,1497.806Z" transform="translate(-7417.555 -1491.38)" fill="#fff" opacity="0.5" style="mix-blend-mode: soft-light;isolation: isolate"/>
          <path id="Trazado_211312" data-name="Trazado 211312" d="M7443.273,1507.015a36.91,36.91,0,0,1,13.314-6.687c5.295-1.411,10.946-1.77,16.4-2.127,5.781-.379,11.872-.58,17.527.909,4.6,1.21,8.909,3.5,13.148,5.8l1.07-8.5a3.057,3.057,0,0,0-3.087-3.025h-77.128a3.054,3.054,0,0,0-3.085,3.025l3.371,26.711h6.821A38.229,38.229,0,0,1,7443.273,1507.015Z" transform="translate(-7421.433 -1493.38)" fill="#b1b1b1" style="mix-blend-mode: multiply;isolation: isolate"/>
          <path id="Trazado_211313" data-name="Trazado 211313" d="M7492.08,1514.958a2.831,2.831,0,0,1-2.832,2.831h-57.857a2.832,2.832,0,0,1-2.83-2.831l-1.895-16.049a2.832,2.832,0,0,1,2.833-2.83h62.067a2.831,2.831,0,0,1,2.831,2.83Z" transform="translate(-7418.883 -1492.066)" fill="#d9d9d9"/>
          <path id="Trazado_211314" data-name="Trazado 211314" d="M7489.014,1513.015a2.139,2.139,0,0,1-2.141,2.138h-54.75a2.14,2.14,0,0,1-2.14-2.138l-1.429-13.462a2.14,2.14,0,0,1,2.139-2.14h57.931a2.14,2.14,0,0,1,2.141,2.14Z" transform="translate(-7417.964 -1491.416)" fill="#4f4f4e"/>
          <path id="Trazado_211315" data-name="Trazado 211315" d="M7488.265,1512.77a2.077,2.077,0,0,1-2.077,2.08h-53.762a2.079,2.079,0,0,1-2.078-2.08l-1.391-12.655a2.079,2.079,0,0,1,2.08-2.079h56.851a2.08,2.08,0,0,1,2.08,2.079Z" transform="translate(-7417.767 -1491.112)" fill="#7f9f8e"/>
          <g id="Grupo_148835" data-name="Grupo 148835" transform="translate(15.66 10.613)" style="mix-blend-mode: multiply;isolation: isolate">
            <path id="Trazado_211316" data-name="Trazado 211316" d="M7433.026,1501.848v2.526l-.8.8-.265-.268v-3.458Zm-1.063,7.313V1505.7l.265-.266.8.8v2.526Zm4.651.932h-3.985a.854.854,0,0,1-.666-.666l1.063-.4h3.191Zm-.4-8.512h-3.179l-1.063-.4a.851.851,0,0,1,.664-.666h3.975Zm.266,2.793v-2.793l.4-1.065a.856.856,0,0,1,.665.666v3.722l-.266.268Zm.8,1.063.266.266v3.724a.858.858,0,0,1-.665.666l-.4-1.065v-2.793Z" transform="translate(-7431.963 -1500.517)" fill="#d9d9d9"/>
            <path id="Trazado_211317" data-name="Trazado 211317" d="M7436.7,1505.173l-.265-.268v-3.057l.663-.665.4.4v2.793Zm.8,1.063v2.793l-.4.4-.663-.665V1505.7l.265-.266Zm3.191-4.655h-2.926l-.533-.532.533-.532h2.926l.532.532Zm.532,7.98-.532.532h-2.926l-.533-.532.533-.532h2.926Zm-.265-5.187v-2.793l.4-.4.664.665v3.057l-.265.268Zm.8,1.063.265.266v3.059l-.664.665-.4-.4v-2.793Z" transform="translate(-7429.784 -1500.517)" fill="#d9d9d9"/>
            <path id="Trazado_211318" data-name="Trazado 211318" d="M7441.172,1505.173l-.268-.268v-3.057l.665-.665.4.4v2.793Zm.8,1.063v2.793l-.4.4-.665-.665V1505.7l.268-.266Zm3.192-4.655h-2.927l-.532-.532.532-.532h2.927l.532.532Zm.532,7.98-.532.532h-2.927l-.532-.532.532-.532h2.927Zm-.267-5.187v-2.793l.4-.4.666.665v3.057l-.265.268Zm.8,1.063.265.266v3.059l-.666.665-.4-.4v-2.793Z" transform="translate(-7427.607 -1500.517)" fill="#d9d9d9"/>
            <path id="Trazado_211319" data-name="Trazado 211319" d="M7446.442,1501.848v2.526l-.8.8-.267-.268v-3.458Zm-1.065,7.313V1505.7l.267-.266.8.8v2.526Zm4.655.932h-3.988a.859.859,0,0,1-.667-.666l1.065-.4h3.191Zm-.4-8.512h-3.179l-1.063-.4a.855.855,0,0,1,.663-.666h3.978Zm.266,2.793v-2.793l.4-1.065a.858.858,0,0,1,.664.666v3.722l-.266.268Zm.8,1.063.266.266v3.724a.86.86,0,0,1-.664.666l-.4-1.065v-2.793Z" transform="translate(-7425.43 -1500.517)" fill="#d9d9d9"/>
            <path id="Trazado_211320" data-name="Trazado 211320" d="M7450.911,1501.848v2.526l-.795.8-.268-.268v-3.458Zm-1.062,7.313V1505.7l.268-.266.795.8v2.526Zm4.654.932h-3.99a.859.859,0,0,1-.664-.666l1.063-.4h3.193Zm-.4-8.512h-3.18l-1.062-.4a.855.855,0,0,1,.665-.666h3.976Zm.266,2.793v-2.793l.4-1.065a.856.856,0,0,1,.664.666v3.722l-.265.268Zm.8,1.063.265.266v3.724a.859.859,0,0,1-.664.666l-.4-1.065v-2.793Z" transform="translate(-7423.252 -1500.517)" fill="#d9d9d9"/>
            <path id="Trazado_211321" data-name="Trazado 211321" d="M7455.385,1501.848v2.526l-.8.8-.266-.268v-3.458Zm-1.064,7.313V1505.7l.266-.266.8.8v2.526Zm4.653.932h-3.989a.855.855,0,0,1-.664-.666l1.064-.4h3.189Zm-.4-8.512H7455.4l-1.063-.4a.855.855,0,0,1,.664-.666h3.977Zm.267,2.793v-2.793l.4-1.065a.854.854,0,0,1,.665.666v3.722l-.266.268Zm.8,1.063.266.266v3.724a.856.856,0,0,1-.665.666l-.4-1.065v-2.793Z" transform="translate(-7421.074 -1500.517)" fill="#d9d9d9"/>
            <path id="Trazado_211322" data-name="Trazado 211322" d="M7459.856,1501.848v2.526l-.8.8-.269-.268v-3.458Zm-1.066,7.313V1505.7l.269-.266.8.8v2.526Zm4.657.932h-3.989a.865.865,0,0,1-.668-.666l1.066-.4h3.193Zm-.4-8.512h-3.18l-1.066-.4a.86.86,0,0,1,.666-.666h3.978Zm.265,2.793v-2.793l.4-1.065a.859.859,0,0,1,.664.666v3.722l-.266.268Zm.8,1.063.266.266v3.724a.861.861,0,0,1-.664.666l-.4-1.065v-2.793Z" transform="translate(-7418.896 -1500.517)" fill="#d9d9d9"/>
            <path id="Trazado_211323" data-name="Trazado 211323" d="M7464.328,1501.848v2.526l-.8.8-.266-.268v-3.458Zm-1.064,7.313V1505.7l.266-.266.8.8v2.526Zm4.654.932h-3.99a.857.857,0,0,1-.664-.666l1.064-.4h3.191Zm-.4-8.512h-3.178l-1.064-.4a.852.852,0,0,1,.666-.666h3.975Zm.265,2.793v-2.793l.4-1.065a.854.854,0,0,1,.662.666v3.722l-.267.268Zm.8,1.063.267.266v3.724a.856.856,0,0,1-.662.666l-.4-1.065v-2.793Z" transform="translate(-7416.718 -1500.517)" fill="#d9d9d9"/>
          </g>
          <g id="Grupo_148837" data-name="Grupo 148837" transform="translate(10.591 30.444)">
            <rect id="Rectángulo_39931" data-name="Rectángulo 39931" width="25.484" height="8.024" fill="#1d1d1b"/>
            <g id="Grupo_148836" data-name="Grupo 148836" transform="translate(5.919)">
              <rect id="Rectángulo_39932" data-name="Rectángulo 39932" width="0.473" height="8.024" fill="#3c3c3b"/>
              <rect id="Rectángulo_39933" data-name="Rectángulo 39933" width="0.472" height="8.024" transform="translate(6.587)" fill="#3c3c3b"/>
              <rect id="Rectángulo_39934" data-name="Rectángulo 39934" width="0.472" height="8.024" transform="translate(13.173)" fill="#3c3c3b"/>
            </g>
          </g>
          <g id="Grupo_148842" data-name="Grupo 148842" transform="translate(10.591 45.016)">
            <g id="Grupo_148838" data-name="Grupo 148838">
              <path id="Rectángulo_39935" data-name="Rectángulo 39935" d="M.436,0H11.909a.436.436,0,0,1,.436.436V8.649a.436.436,0,0,1-.436.436H.437A.437.437,0,0,1,0,8.649V.436A.436.436,0,0,1,.436,0Z" transform="translate(1.18 1.062)" fill="#9c9b9b" style="mix-blend-mode: multiply;isolation: isolate"/>
              <path id="Rectángulo_39936" data-name="Rectángulo 39936" d="M.436,0H11.909a.436.436,0,0,1,.436.436V8.649a.437.437,0,0,1-.437.437H.437A.437.437,0,0,1,0,8.649V.436A.436.436,0,0,1,.436,0Z" fill="#c6c6c5"/>
            </g>
            <g id="Grupo_148839" data-name="Grupo 148839" transform="translate(17.579)">
              <path id="Rectángulo_39937" data-name="Rectángulo 39937" d="M.436,0H11.909a.437.437,0,0,1,.437.437V8.649a.436.436,0,0,1-.436.436H.437A.437.437,0,0,1,0,8.649V.436A.436.436,0,0,1,.436,0Z" transform="translate(1.18 1.062)" fill="#9c9b9b" style="mix-blend-mode: multiply;isolation: isolate"/>
              <path id="Rectángulo_39938" data-name="Rectángulo 39938" d="M.438,0H11.91a.436.436,0,0,1,.436.436V8.649a.437.437,0,0,1-.437.437H.438A.438.438,0,0,1,0,8.648V.438A.438.438,0,0,1,.438,0Z" fill="#c6c6c5"/>
            </g>
            <g id="Grupo_148840" data-name="Grupo 148840" transform="translate(33.627)">
              <path id="Rectángulo_39939" data-name="Rectángulo 39939" d="M.437,0H11.909a.436.436,0,0,1,.436.436V8.649a.436.436,0,0,1-.436.436H.437A.437.437,0,0,1,0,8.649V.437A.437.437,0,0,1,.437,0Z" transform="translate(1.181 1.062)" fill="#9c9b9b" style="mix-blend-mode: multiply;isolation: isolate"/>
              <path id="Rectángulo_39940" data-name="Rectángulo 39940" d="M.436,0H11.908a.437.437,0,0,1,.437.437V8.649a.437.437,0,0,1-.437.437H.437A.437.437,0,0,1,0,8.649V.436A.436.436,0,0,1,.436,0Z" fill="#c6c6c5"/>
            </g>
            <g id="Grupo_148841" data-name="Grupo 148841" transform="translate(49.749)">
              <path id="Rectángulo_39941" data-name="Rectángulo 39941" d="M.436,0H11.909a.436.436,0,0,1,.436.436V8.649a.436.436,0,0,1-.436.436H.437A.437.437,0,0,1,0,8.649V.436A.436.436,0,0,1,.436,0Z" transform="translate(1.18 1.062)" fill="#9c9b9b" style="mix-blend-mode: multiply;isolation: isolate"/>
              <path id="Rectángulo_39942" data-name="Rectángulo 39942" d="M.437,0H11.909a.438.438,0,0,1,.438.438V8.649a.437.437,0,0,1-.437.437H.437A.437.437,0,0,1,0,8.649V.437A.437.437,0,0,1,.437,0Z" fill="#e64645"/>
            </g>
          </g>
          <g id="Grupo_148847" data-name="Grupo 148847" transform="translate(10.591 59.094)">
            <g id="Grupo_148843" data-name="Grupo 148843">
              <path id="Rectángulo_39943" data-name="Rectángulo 39943" d="M.436,0H11.908a.437.437,0,0,1,.437.437v8.21a.437.437,0,0,1-.437.437H.437A.437.437,0,0,1,0,8.648V.436A.436.436,0,0,1,.436,0Z" transform="translate(1.18 1.062)" fill="#9c9b9b" style="mix-blend-mode: multiply;isolation: isolate"/>
              <rect id="Rectángulo_39944" data-name="Rectángulo 39944" width="12.346" height="9.086" rx="0.437" fill="#c6c6c5"/>
            </g>
            <g id="Grupo_148844" data-name="Grupo 148844" transform="translate(17.579)">
              <path id="Rectángulo_39945" data-name="Rectángulo 39945" d="M.436,0H11.909a.436.436,0,0,1,.436.436V8.648a.437.437,0,0,1-.437.437H.437A.437.437,0,0,1,0,8.648V.436A.436.436,0,0,1,.436,0Z" transform="translate(1.18 1.062)" fill="#9c9b9b" style="mix-blend-mode: multiply;isolation: isolate"/>
              <path id="Rectángulo_39946" data-name="Rectángulo 39946" d="M.437,0H11.91a.437.437,0,0,1,.437.437V8.649a.437.437,0,0,1-.437.437H.438A.438.438,0,0,1,0,8.648V.437A.437.437,0,0,1,.437,0Z" fill="#c6c6c5"/>
            </g>
            <g id="Grupo_148845" data-name="Grupo 148845" transform="translate(33.627)">
              <path id="Rectángulo_39947" data-name="Rectángulo 39947" d="M.436,0H11.909a.436.436,0,0,1,.436.436V8.648a.437.437,0,0,1-.437.437H.437A.437.437,0,0,1,0,8.648V.436A.436.436,0,0,1,.436,0Z" transform="translate(1.181 1.062)" fill="#9c9b9b" style="mix-blend-mode: multiply;isolation: isolate"/>
              <rect id="Rectángulo_39948" data-name="Rectángulo 39948" width="12.345" height="9.086" rx="0.437" fill="#c6c6c5"/>
            </g>
            <g id="Grupo_148846" data-name="Grupo 148846" transform="translate(49.749)">
              <path id="Rectángulo_39949" data-name="Rectángulo 39949" d="M.436,0H11.909a.436.436,0,0,1,.436.436V8.648a.437.437,0,0,1-.437.437H.437A.437.437,0,0,1,0,8.648V.436A.436.436,0,0,1,.436,0Z" transform="translate(1.18 1.062)" fill="#9c9b9b" style="mix-blend-mode: multiply;isolation: isolate"/>
              <path id="Rectángulo_39950" data-name="Rectángulo 39950" d="M.437,0H11.909a.438.438,0,0,1,.438.438V8.649a.437.437,0,0,1-.437.437H.437A.437.437,0,0,1,0,8.649V.437A.437.437,0,0,1,.437,0Z" fill="#667183"/>
            </g>
          </g>
          <g id="Grupo_148852" data-name="Grupo 148852" transform="translate(10.591 73.17)">
            <g id="Grupo_148848" data-name="Grupo 148848">
              <path id="Rectángulo_39951" data-name="Rectángulo 39951" d="M.438,0H11.908a.437.437,0,0,1,.437.437V8.65a.436.436,0,0,1-.436.436H.437A.437.437,0,0,1,0,8.65V.438A.438.438,0,0,1,.438,0Z" transform="translate(1.18 1.063)" fill="#9c9b9b" style="mix-blend-mode: multiply;isolation: isolate"/>
              <path id="Rectángulo_39952" data-name="Rectángulo 39952" d="M.436,0H11.909a.436.436,0,0,1,.436.436V8.648a.438.438,0,0,1-.438.438H.437A.437.437,0,0,1,0,8.649V.436A.436.436,0,0,1,.436,0Z" fill="#c6c6c5"/>
            </g>
            <g id="Grupo_148849" data-name="Grupo 148849" transform="translate(17.579)">
              <path id="Rectángulo_39953" data-name="Rectángulo 39953" d="M.438,0H11.909a.437.437,0,0,1,.437.437V8.65a.436.436,0,0,1-.436.436H.437A.437.437,0,0,1,0,8.649V.438A.438.438,0,0,1,.438,0Z" transform="translate(1.18 1.063)" fill="#9c9b9b" style="mix-blend-mode: multiply;isolation: isolate"/>
              <path id="Rectángulo_39954" data-name="Rectángulo 39954" d="M.438,0H11.91a.437.437,0,0,1,.437.437V8.648a.438.438,0,0,1-.438.438H.438A.438.438,0,0,1,0,8.648V.438A.438.438,0,0,1,.438,0Z" fill="#c6c6c5"/>
            </g>
            <g id="Grupo_148850" data-name="Grupo 148850" transform="translate(33.627)">
              <path id="Rectángulo_39955" data-name="Rectángulo 39955" d="M.438,0H11.909a.436.436,0,0,1,.436.436V8.65a.436.436,0,0,1-.436.436H.437A.437.437,0,0,1,0,8.649V.438A.438.438,0,0,1,.438,0Z" transform="translate(1.181 1.063)" fill="#9c9b9b" style="mix-blend-mode: multiply;isolation: isolate"/>
              <path id="Rectángulo_39956" data-name="Rectángulo 39956" d="M.437,0H11.908a.437.437,0,0,1,.437.437V8.648a.438.438,0,0,1-.438.438H.437A.437.437,0,0,1,0,8.649V.437A.437.437,0,0,1,.437,0Z" fill="#c6c6c5"/>
            </g>
            <g id="Grupo_148851" data-name="Grupo 148851" transform="translate(49.749)">
              <path id="Rectángulo_39957" data-name="Rectángulo 39957" d="M.438,0H11.909a.436.436,0,0,1,.436.436V8.65a.436.436,0,0,1-.436.436H.437A.437.437,0,0,1,0,8.649V.438A.438.438,0,0,1,.438,0Z" transform="translate(1.18 1.063)" fill="#9c9b9b" style="mix-blend-mode: multiply;isolation: isolate"/>
              <path id="Rectángulo_39958" data-name="Rectángulo 39958" d="M.437,0H11.909a.438.438,0,0,1,.438.438v8.21a.438.438,0,0,1-.438.438H.437A.437.437,0,0,1,0,8.649V.437A.437.437,0,0,1,.437,0Z" fill="#667183"/>
            </g>
          </g>
          <g id="Grupo_148857" data-name="Grupo 148857" transform="translate(10.591 87.248)">
            <g id="Grupo_148853" data-name="Grupo 148853">
              <path id="Rectángulo_39959" data-name="Rectángulo 39959" d="M.437,0H11.908a.437.437,0,0,1,.437.437V8.649a.437.437,0,0,1-.437.437H.436A.436.436,0,0,1,0,8.65V.437A.437.437,0,0,1,.437,0Z" transform="translate(1.18 1.063)" fill="#9c9b9b" style="mix-blend-mode: multiply;isolation: isolate"/>
              <path id="Rectángulo_39960" data-name="Rectángulo 39960" d="M.437,0H11.909a.437.437,0,0,1,.437.437V8.65a.436.436,0,0,1-.436.436H.437A.437.437,0,0,1,0,8.649V.437A.437.437,0,0,1,.437,0Z" fill="#c6c6c5"/>
            </g>
            <g id="Grupo_148854" data-name="Grupo 148854" transform="translate(17.579)">
              <path id="Rectángulo_39961" data-name="Rectángulo 39961" d="M.437,0H11.909a.437.437,0,0,1,.437.437V8.65a.436.436,0,0,1-.436.436H.437A.437.437,0,0,1,0,8.649V.437A.437.437,0,0,1,.437,0Z" transform="translate(1.18 1.063)" fill="#9c9b9b" style="mix-blend-mode: multiply;isolation: isolate"/>
              <path id="Rectángulo_39962" data-name="Rectángulo 39962" d="M.438,0H11.909a.438.438,0,0,1,.438.438V8.649a.437.437,0,0,1-.437.437H.438A.438.438,0,0,1,0,8.649V.438A.438.438,0,0,1,.438,0Z" fill="#c6c6c5"/>
            </g>
            <g id="Grupo_148855" data-name="Grupo 148855" transform="translate(33.627)">
              <path id="Rectángulo_39963" data-name="Rectángulo 39963" d="M.437,0H11.909a.437.437,0,0,1,.437.437V8.65a.436.436,0,0,1-.436.436H.437A.437.437,0,0,1,0,8.649V.437A.437.437,0,0,1,.437,0Z" transform="translate(1.181 1.063)" fill="#9c9b9b" style="mix-blend-mode: multiply;isolation: isolate"/>
              <rect id="Rectángulo_39964" data-name="Rectángulo 39964" width="12.345" height="9.086" rx="0.437" fill="#667183"/>
            </g>
            <g id="Grupo_148856" data-name="Grupo 148856" transform="translate(49.749)">
              <path id="Rectángulo_39965" data-name="Rectángulo 39965" d="M.437,0H11.909a.436.436,0,0,1,.436.436V8.65a.436.436,0,0,1-.436.436H.437A.437.437,0,0,1,0,8.649V.437A.437.437,0,0,1,.437,0Z" transform="translate(1.18 1.063)" fill="#9c9b9b" style="mix-blend-mode: multiply;isolation: isolate"/>
              <path id="Rectángulo_39966" data-name="Rectángulo 39966" d="M.438,0H11.909a.438.438,0,0,1,.438.438V8.65a.436.436,0,0,1-.436.436H.436A.436.436,0,0,1,0,8.65V.438A.438.438,0,0,1,.438,0Z" fill="#667183"/>
            </g>
          </g>
          <g id="Grupo_148858" data-name="Grupo 148858" transform="translate(15.171 46.835)">
            <path id="Trazado_211324" data-name="Trazado 211324" d="M7434.458,1524.875v1.291l-.944,4.632h-1.469l1.052-4.858h-1.464v-1.065Z" transform="translate(-7431.633 -1524.875)" fill="#1d1d1b"/>
          </g>
          <g id="Grupo_148859" data-name="Grupo 148859" transform="translate(32.655 46.429)">
            <path id="Trazado_211325" data-name="Trazado 211325" d="M7446.233,1527.277a1.069,1.069,0,0,1,.5.393,2.725,2.725,0,0,1,.175,1.246,3,3,0,0,1-.138,1.057,1.137,1.137,0,0,1-.543.559,2.281,2.281,0,0,1-1.078.217,2.207,2.207,0,0,1-1.043-.208,1.265,1.265,0,0,1-.55-.553,2.827,2.827,0,0,1-.167-1.145,4.663,4.663,0,0,1,.082-.934.936.936,0,0,1,.519-.632.853.853,0,0,1-.412-.419,1.7,1.7,0,0,1-.138-.729,1.46,1.46,0,0,1,.426-1.147,1.84,1.84,0,0,1,1.268-.381,1.794,1.794,0,0,1,1.351.4,1.651,1.651,0,0,1,.374,1.158,1.446,1.446,0,0,1-.124.692A1.272,1.272,0,0,1,7446.233,1527.277Zm-.8,1.19a.983.983,0,0,0-.069-.452.239.239,0,0,0-.22-.111.228.228,0,0,0-.21.109,1.028,1.028,0,0,0-.064.455v.769a1.063,1.063,0,0,0,.072.494.25.25,0,0,0,.225.11.215.215,0,0,0,.213-.112,1.458,1.458,0,0,0,.054-.5Zm-.028-2.461a.94.94,0,0,0-.054-.4.208.208,0,0,0-.2-.1.2.2,0,0,0-.2.1,1.019,1.019,0,0,0-.051.39v.449a.788.788,0,0,0,.06.37.207.207,0,0,0,.2.1.2.2,0,0,0,.2-.1,1.048,1.048,0,0,0,.053-.415Z" transform="translate(-7443.391 -1524.602)" fill="#1d1d1b"/>
          </g>
          <g id="Grupo_148860" data-name="Grupo 148860" transform="translate(48.723 46.429)">
            <path id="Trazado_211326" data-name="Trazado 211326" d="M7454.2,1529.063h1.479c0,.276,0,.449.012.522a.272.272,0,0,0,.09.181.305.305,0,0,0,.214.073.26.26,0,0,0,.269-.25c.006-.073.01-.22.01-.442v-.944a.753.753,0,0,1-.33.357,1.135,1.135,0,0,1-.544.119,1.2,1.2,0,0,1-.717-.22.951.951,0,0,1-.4-.526,3.229,3.229,0,0,1-.085-.83v-.473a5.934,5.934,0,0,1,.052-.925,1.191,1.191,0,0,1,.254-.562,1.32,1.32,0,0,1,.566-.4,2.291,2.291,0,0,1,.843-.141,2.46,2.46,0,0,1,.972.164,1.327,1.327,0,0,1,.589.474,1.4,1.4,0,0,1,.241.648q.032.341.033,1.318v.822q0,1.057-.029,1.414a1.354,1.354,0,0,1-.254.675,1.388,1.388,0,0,1-.61.477,2.311,2.311,0,0,1-.889.159,2.244,2.244,0,0,1-1.021-.2,1.216,1.216,0,0,1-.571-.567A2.144,2.144,0,0,1,7454.2,1529.063Zm1.479-1.847c0,.248.032.4.1.461a.3.3,0,0,0,.2.088.251.251,0,0,0,.227-.111.9.9,0,0,0,.071-.437v-1.072a1.21,1.21,0,0,0-.069-.511.235.235,0,0,0-.224-.12.308.308,0,0,0-.2.092c-.067.062-.1.23-.1.5Z" transform="translate(-7454.197 -1524.602)" fill="#1d1d1b"/>
          </g>
          <g id="Grupo_148861" data-name="Grupo 148861" transform="translate(15.171 60.854)">
            <path id="Trazado_211327" data-name="Trazado 211327" d="M7434.869,1534.3v3.87h.419v1.01h-.419v1.043h-1.479v-1.043h-1.757v-1.01l1.278-3.87Zm-1.479,3.87v-2.521l-.653,2.521Z" transform="translate(-7431.633 -1534.302)" fill="#1d1d1b"/>
          </g>
          <g id="Grupo_148862" data-name="Grupo 148862" transform="translate(15.171 74.92)">
            <path id="Trazado_211328" data-name="Trazado 211328" d="M7434.132,1543.761v5.922h-1.479v-3.175a5.533,5.533,0,0,0-.032-.827.307.307,0,0,0-.181-.211,1.908,1.908,0,0,0-.659-.071h-.148v-.69a2.689,2.689,0,0,0,1.63-.947Z" transform="translate(-7431.633 -1543.761)" fill="#1d1d1b"/>
          </g>
          <g id="Grupo_148863" data-name="Grupo 148863" transform="translate(15.391 88.731)">
            <path id="Trazado_211329" data-name="Trazado 211329" d="M7435.268,1555.166v1.975a4.833,4.833,0,0,1-.072.98,1.351,1.351,0,0,1-.3.574,1.3,1.3,0,0,1-.556.384,2.126,2.126,0,0,1-.728.117,2.747,2.747,0,0,1-.882-.122,1.21,1.21,0,0,1-.56-.382,1.628,1.628,0,0,1-.3-.547,3.38,3.38,0,0,1-.087-.913v-2.065a4.021,4.021,0,0,1,.139-1.223,1.216,1.216,0,0,1,.561-.651,1.973,1.973,0,0,1,1.014-.244,2.13,2.13,0,0,1,.873.169,1.453,1.453,0,0,1,.573.415,1.373,1.373,0,0,1,.258.552A5,5,0,0,1,7435.268,1555.166Zm-1.478-.5a2.165,2.165,0,0,0-.046-.59.2.2,0,0,0-.214-.119.212.212,0,0,0-.218.126,1.939,1.939,0,0,0-.052.583v2.89a2.1,2.1,0,0,0,.049.622.258.258,0,0,0,.43-.018,1.925,1.925,0,0,0,.051-.559Z" transform="translate(-7431.783 -1553.048)" fill="#1d1d1b"/>
          </g>
          <g id="Grupo_148864" data-name="Grupo 148864" transform="translate(30.688 88.731)">
            <path id="Trazado_211330" data-name="Trazado 211330" d="M7445.555,1555.166v1.975a4.625,4.625,0,0,1-.072.98,1.351,1.351,0,0,1-.3.574,1.294,1.294,0,0,1-.555.384,2.124,2.124,0,0,1-.729.117,2.751,2.751,0,0,1-.882-.122,1.22,1.22,0,0,1-.56-.382,1.628,1.628,0,0,1-.3-.547,3.371,3.371,0,0,1-.088-.913v-2.065a4.009,4.009,0,0,1,.141-1.223,1.207,1.207,0,0,1,.561-.651,1.973,1.973,0,0,1,1.016-.244,2.122,2.122,0,0,1,.87.169,1.446,1.446,0,0,1,.573.415,1.373,1.373,0,0,1,.258.552A5,5,0,0,1,7445.555,1555.166Zm-1.478-.5a2.165,2.165,0,0,0-.046-.59.2.2,0,0,0-.214-.119.212.212,0,0,0-.218.126,1.973,1.973,0,0,0-.052.583v2.89a2.178,2.178,0,0,0,.049.622.211.211,0,0,0,.215.107.208.208,0,0,0,.215-.125,1.822,1.822,0,0,0,.051-.559Z" transform="translate(-7442.069 -1553.048)" fill="#1d1d1b"/>
            <path id="Trazado_211331" data-name="Trazado 211331" d="M7448.255,1555.166v1.975a4.692,4.692,0,0,1-.072.98,1.349,1.349,0,0,1-.3.574,1.3,1.3,0,0,1-.558.384,2.109,2.109,0,0,1-.727.117,2.751,2.751,0,0,1-.882-.122,1.22,1.22,0,0,1-.56-.382,1.608,1.608,0,0,1-.295-.547,3.371,3.371,0,0,1-.088-.913v-2.065a3.984,3.984,0,0,1,.14-1.223,1.2,1.2,0,0,1,.561-.651,1.968,1.968,0,0,1,1.014-.244,2.128,2.128,0,0,1,.872.169,1.45,1.45,0,0,1,.574.415,1.358,1.358,0,0,1,.257.552A5,5,0,0,1,7448.255,1555.166Zm-1.478-.5a2.181,2.181,0,0,0-.045-.59.2.2,0,0,0-.215-.119.213.213,0,0,0-.218.126,1.961,1.961,0,0,0-.053.583v2.89a2.039,2.039,0,0,0,.051.622.258.258,0,0,0,.43-.018,1.937,1.937,0,0,0,.05-.559Z" transform="translate(-7440.753 -1553.048)" fill="#1d1d1b"/>
          </g>
          <g id="Grupo_148865" data-name="Grupo 148865" transform="translate(48.801 88.731)">
            <path id="Trazado_211332" data-name="Trazado 211332" d="M7457.121,1553.048l-1.752,6.147h-1.12l1.765-6.147Z" transform="translate(-7454.249 -1553.048)" fill="#fff"/>
          </g>
          <g id="Grupo_148866" data-name="Grupo 148866" transform="translate(63.351 90.386)">
            <path id="Trazado_211333" data-name="Trazado 211333" d="M7464.034,1554.161h6.326v1.185h-6.326Zm0,1.854h6.326v1.184h-6.326Z" transform="translate(-7464.034 -1554.161)" fill="#fff"/>
          </g>
          <g id="Grupo_148867" data-name="Grupo 148867" transform="translate(64.617 74.804)">
            <path id="Trazado_211334" data-name="Trazado 211334" d="M7468.858,1543.683l-.733,2.885.887,3.153h-1.786c-.179-.8-.312-1.481-.4-2.058-.124.72-.256,1.4-.4,2.058h-1.537l.793-3.153-.793-2.885h1.537c.248,1.234.38,1.935.4,2.1q.265-1.543.4-2.1Z" transform="translate(-7464.884 -1543.683)" fill="#fff"/>
          </g>
          <g id="Grupo_148868" data-name="Grupo 148868" transform="translate(63.706 46.59)">
            <path id="Trazado_211335" data-name="Trazado 211335" d="M7464.272,1526.933h2.218v-2.223h1.5v2.223h2.229v1.506H7468v2.21h-1.5v-2.21h-2.218Z" transform="translate(-7464.272 -1524.71)" fill="#fff"/>
          </g>
          <g id="Grupo_148869" data-name="Grupo 148869" transform="translate(63.822 62.893)">
            <path id="Trazado_211336" data-name="Trazado 211336" d="M7469.736,1535.673v1.594h-5.386v-1.594Z" transform="translate(-7464.351 -1535.673)" fill="#fff"/>
          </g>
          <g id="Grupo_148870" data-name="Grupo 148870" transform="translate(32.61 74.807)">
            <path id="Trazado_211337" data-name="Trazado 211337" d="M7446.614,1548.71v1.01h-3.253l0-.845q1.446-2.365,1.718-2.925a2.206,2.206,0,0,0,.271-.876.638.638,0,0,0-.081-.36.287.287,0,0,0-.252-.119.272.272,0,0,0-.25.131,1.1,1.1,0,0,0-.083.524v.564h-1.325v-.216a4.8,4.8,0,0,1,.052-.785,1.393,1.393,0,0,1,.253-.565,1.275,1.275,0,0,1,.522-.421,1.9,1.9,0,0,1,.772-.141,1.846,1.846,0,0,1,1.333.436,1.476,1.476,0,0,1,.452,1.107,2.634,2.634,0,0,1-.254,1.077,22.082,22.082,0,0,1-1.5,2.406Z" transform="translate(-7443.361 -1543.685)" fill="#1d1d1b"/>
          </g>
          <g id="Grupo_148871" data-name="Grupo 148871" transform="translate(48.975 74.803)">
            <path id="Trazado_211338" data-name="Trazado 211338" d="M7457.187,1546.365a.915.915,0,0,1,.5.372,2.75,2.75,0,0,1,.164,1.209,2.953,2.953,0,0,1-.162,1.1,1.141,1.141,0,0,1-.556.593,2.21,2.21,0,0,1-1.013.2,2.175,2.175,0,0,1-1.1-.237,1.145,1.145,0,0,1-.525-.578,3.81,3.81,0,0,1-.127-1.187v-.468h1.478v.962a1.531,1.531,0,0,0,.047.489.2.2,0,0,0,.2.1.224.224,0,0,0,.229-.132,2.434,2.434,0,0,0,.055-.687v-.411a1.2,1.2,0,0,0-.077-.5.376.376,0,0,0-.228-.207,2.254,2.254,0,0,0-.581-.057v-.86a2.991,2.991,0,0,0,.65-.04.29.29,0,0,0,.181-.177,1.189,1.189,0,0,0,.055-.424v-.329a.852.852,0,0,0-.065-.41.258.258,0,0,0-.409.006,1.116,1.116,0,0,0-.057.445v.486h-1.478v-.506a1.383,1.383,0,0,1,.388-1.147,2.042,2.042,0,0,1,1.233-.3,1.909,1.909,0,0,1,1.433.413,1.634,1.634,0,0,1,.377,1.146,1.426,1.426,0,0,1-.136.718A1.19,1.19,0,0,1,7457.187,1546.365Z" transform="translate(-7454.366 -1543.682)" fill="#1d1d1b"/>
          </g>
          <g id="Grupo_148872" data-name="Grupo 148872" transform="translate(32.655 60.854)">
            <path id="Trazado_211339" data-name="Trazado 211339" d="M7446.64,1534.3v.947h-1.833v1.005a1.105,1.105,0,0,1,.885-.406,1.19,1.19,0,0,1,.924.342,2.009,2.009,0,0,1,.313,1.314v.845a5.2,5.2,0,0,1-.061.925,1.292,1.292,0,0,1-.258.544,1.243,1.243,0,0,1-.551.384,2.449,2.449,0,0,1-.861.134,2.387,2.387,0,0,1-1-.2,1.206,1.206,0,0,1-.62-.595,3.082,3.082,0,0,1-.183-1.221V1538h1.478v.37a5.685,5.685,0,0,0,.041.815.256.256,0,0,0,.277.243.236.236,0,0,0,.178-.07.239.239,0,0,0,.073-.15c0-.053.007-.287.013-.7v-1.173a1.01,1.01,0,0,0-.069-.453.244.244,0,0,0-.23-.122.247.247,0,0,0-.172.063.271.271,0,0,0-.09.134,1.582,1.582,0,0,0-.021.332h-1.463l.063-2.985Z" transform="translate(-7443.391 -1534.302)" fill="#1d1d1b"/>
          </g>
          <g id="Grupo_148873" data-name="Grupo 148873" transform="translate(40.117 10.615)">
            <path id="Trazado_211340" data-name="Trazado 211340" d="M7448.409,1504.374v-2.793l.4-1.063a.854.854,0,0,1,.664.665v3.724l-.266.266Zm.8,1.065.266.266v3.724a.857.857,0,0,1-.664.665l-.4-1.065v-2.793Z" transform="translate(-7448.409 -1500.518)" fill="#1d1d1b"/>
            <path id="Trazado_211341" data-name="Trazado 211341" d="M7452.425,1507.306h-1.064v-1.065h1.064Z" transform="translate(-7446.972 -1497.731)" fill="#1d1d1b"/>
            <path id="Trazado_211342" data-name="Trazado 211342" d="M7455.375,1501.449v2.925l-.8.8-.266-.266v-3.858Zm3.458,3.325.533.531-.533.532h-3.458l-.532-.532.532-.531Zm0-.4v-2.793l.4-1.063a.854.854,0,0,1,.664.665v3.724l-.266.266Zm.8,1.065.266.266v3.724a.857.857,0,0,1-.664.665l-.4-1.065v-2.793Z" transform="translate(-7445.535 -1500.518)" fill="#1d1d1b"/>
            <path id="Trazado_211343" data-name="Trazado 211343" d="M7458.784,1509.163v-3.458l.266-.266.8.8v2.526Zm5.055.931h-4.391a.857.857,0,0,1-.664-.665l1.064-.4h3.592Zm-.8-8.512h-3.178l-1.064-.4a.853.853,0,0,1,.664-.665h3.979Zm.266,3.193.533.531-.533.532h-3.457l-.532-.532.532-.531Zm0-.4v-2.793l.4-1.063a.853.853,0,0,1,.666.665v3.724l-.266.266Z" transform="translate(-7443.357 -1500.518)" fill="#1d1d1b"/>
            <path id="Trazado_211344" data-name="Trazado 211344" d="M7464.319,1501.848v2.526l-.8.8-.267-.266v-3.457Zm3.591,8.246h-3.99a.857.857,0,0,1-.664-.665l1.063-.4h3.192Zm0-8.512h-3.577l-1.063-.4a.853.853,0,0,1,.664-.665h4.377Zm-.133,3.193.533.531-.533.532h-3.458l-.531-.532.531-.531Zm.8.665.267.266v3.724a.86.86,0,0,1-.666.665l-.4-1.065v-2.793Z" transform="translate(-7441.179 -1500.518)" fill="#1d1d1b"/>
          </g>
          <g id="Grupo_148874" data-name="Grupo 148874" transform="translate(48.723 60.737)">
            <path id="Trazado_211345" data-name="Trazado 211345" d="M7457.747,1535.912h-1.478c0-.275,0-.449-.01-.52a.268.268,0,0,0-.088-.182.3.3,0,0,0-.213-.073.258.258,0,0,0-.188.07.274.274,0,0,0-.083.178c-.007.073-.012.222-.012.443v.943a.778.778,0,0,1,.333-.355,1.115,1.115,0,0,1,.542-.119,1.215,1.215,0,0,1,.717.219.962.962,0,0,1,.395.526,3.285,3.285,0,0,1,.085.831v.472a6.552,6.552,0,0,1-.049.925,1.163,1.163,0,0,1-.254.562,1.335,1.335,0,0,1-.566.4,2.27,2.27,0,0,1-.839.143,2.49,2.49,0,0,1-.977-.164,1.318,1.318,0,0,1-.589-.474,1.407,1.407,0,0,1-.239-.65q-.037-.339-.037-1.321v-.819c0-.7.012-1.175.031-1.413a1.391,1.391,0,0,1,.255-.675,1.346,1.346,0,0,1,.61-.477,2.319,2.319,0,0,1,.891-.159,2.261,2.261,0,0,1,1.02.2,1.206,1.206,0,0,1,.57.567A2.149,2.149,0,0,1,7457.747,1535.912Zm-1.478,1.847a.919.919,0,0,0-.07-.431.243.243,0,0,0-.228-.116.246.246,0,0,0-.225.111.9.9,0,0,0-.071.436v1.072a1.262,1.262,0,0,0,.067.513.239.239,0,0,0,.227.121.3.3,0,0,0,.2-.094c.068-.062.1-.23.1-.5Z" transform="translate(-7454.197 -1534.223)" fill="#1d1d1b"/>
          </g>
        </g>
        <g id="Grupo_148883" data-name="Grupo 148883" transform="translate(0 29.792)">
          <path id="Trazado_211346" data-name="Trazado 211346" d="M7404.558,1519.911l-3.783-2.73-1.969,2.73Z" transform="translate(-7370.99 -1511.579)" fill="#b1b1b1" style="mix-blend-mode: multiply;isolation: isolate"/>
          <path id="Trazado_211347" data-name="Trazado 211347" d="M7484.483,1553.842H7380.1V1602.3h92.395v-27.936l13.117-18.187-1.852-1.336Z" transform="translate(-7380.099 -1493.723)" fill="#b1b1b1" style="mix-blend-mode: multiply;isolation: isolate"/>
          <g id="Grupo_148882" data-name="Grupo 148882" transform="translate(4.02)">
            <rect id="Rectángulo_39967" data-name="Rectángulo 39967" width="92.392" height="48.697" transform="translate(0 54.282)" fill="#9cb364"/>
            <rect id="Rectángulo_39968" data-name="Rectángulo 39968" width="92.392" height="48.697" transform="translate(0 54.282)" fill="#87a960"/>
            <path id="Trazado_211348" data-name="Trazado 211348" d="M7463.07,1591.174a3.88,3.88,0,0,1,3.937-4.274c.056,0,.105.006.16.009v-28.6l-.352.034a4.082,4.082,0,0,1-2.061-.558c-.272-.213-.55-.425-.824-.638a4.1,4.1,0,0,1-1.2-2.885,4.258,4.258,0,0,1,.046-.58h-71.829a3.861,3.861,0,0,1-3.946,4.08c-.046,0-.089-.006-.134-.006v28.564a4.12,4.12,0,0,1,4.021,4.078,3.967,3.967,0,0,1-.078.773Z" transform="translate(-7380.821 -1493.799)" fill="#e4dba6"/>
            <path id="Trazado_211349" data-name="Trazado 211349" d="M7440.549,1573.133a20.1,20.1,0,1,1-20.1-20.1A20.1,20.1,0,0,1,7440.549,1573.133Z" transform="translate(-7374.254 -1494.116)" fill="#87a960"/>
            <g id="Grupo_148876" data-name="Grupo 148876" transform="translate(27.595 60.415)">
              <path id="Trazado_211350" data-name="Trazado 211350" d="M7419.962,1591.245a18.6,18.6,0,1,1,18.6-18.6A18.623,18.623,0,0,1,7419.962,1591.245Zm0-36.044a17.442,17.442,0,1,0,17.44,17.442A17.461,17.461,0,0,0,7419.962,1555.2Z" transform="translate(-7401.36 -1554.041)" fill="#f4e2b9"/>
            </g>
            <g id="Grupo_148877" data-name="Grupo 148877" transform="translate(40.787 64.862)" style="mix-blend-mode: multiply;isolation: isolate">
              <path id="Trazado_211351" data-name="Trazado 211351" d="M7424.482,1566.055h-5.965v-.989a6.4,6.4,0,0,0-.209-2.067.857.857,0,0,0-.886-.488.915.915,0,0,0-.819.419,2.359,2.359,0,0,0-.271,1.264,2.739,2.739,0,0,0,.56,1.963,21.621,21.621,0,0,0,3.22,2.186,23.769,23.769,0,0,1,3.1,2.106,5.641,5.641,0,0,1,1.4,2.067,8.558,8.558,0,0,1,.568,3.328,7.513,7.513,0,0,1-1.537,5.009,7.046,7.046,0,0,1-4.606,2.244v2.245h-2.748v-2.32a7.132,7.132,0,0,1-4.177-1.838q-1.79-1.6-1.788-5.59v-1.166h5.965v1.462a13.8,13.8,0,0,0,.185,2.99.832.832,0,0,0,.895.584,1.043,1.043,0,0,0,.9-.407,2.045,2.045,0,0,0,.295-1.2,10.345,10.345,0,0,0-.28-2.871,4.237,4.237,0,0,0-1.921-1.882,41.565,41.565,0,0,1-3.713-2.519,6.634,6.634,0,0,1-1.7-2.266,7.435,7.435,0,0,1-.716-3.309,5.675,5.675,0,0,1,1.514-4.192,7.43,7.43,0,0,1,4.54-1.877v-1.905h2.748v1.905a6.536,6.536,0,0,1,4.137,1.854,5.9,5.9,0,0,1,1.371,4.141C7424.541,1565.179,7424.521,1565.552,7424.482,1566.055Z" transform="translate(-7410.231 -1557.031)" fill="#c6c6c5"/>
            </g>
            <g id="Grupo_148878" data-name="Grupo 148878" transform="translate(38.856 64.309)">
              <path id="Trazado_211352" data-name="Trazado 211352" d="M7423.183,1565.683h-5.966v-.989a6.456,6.456,0,0,0-.207-2.067.857.857,0,0,0-.887-.488.915.915,0,0,0-.819.421,2.349,2.349,0,0,0-.273,1.262,2.738,2.738,0,0,0,.561,1.963,21.673,21.673,0,0,0,3.222,2.186,23.881,23.881,0,0,1,3.1,2.106,5.674,5.674,0,0,1,1.395,2.067,8.532,8.532,0,0,1,.569,3.331,7.512,7.512,0,0,1-1.536,5.005,7.038,7.038,0,0,1-4.606,2.244v2.246h-2.748v-2.319a7.151,7.151,0,0,1-4.179-1.839q-1.787-1.6-1.788-5.59v-1.166h5.967v1.462a13.664,13.664,0,0,0,.185,2.991.83.83,0,0,0,.894.584,1.038,1.038,0,0,0,.9-.408,2.026,2.026,0,0,0,.3-1.2,10.293,10.293,0,0,0-.283-2.873,4.236,4.236,0,0,0-1.918-1.883,41.535,41.535,0,0,1-3.716-2.518,6.656,6.656,0,0,1-1.7-2.266,7.416,7.416,0,0,1-.717-3.309,5.681,5.681,0,0,1,1.514-4.193,7.427,7.427,0,0,1,4.541-1.875v-1.906h2.748v1.906a6.511,6.511,0,0,1,4.133,1.853,5.9,5.9,0,0,1,1.374,4.141C7423.242,1564.807,7423.221,1565.18,7423.183,1565.683Z" transform="translate(-7408.932 -1556.659)" fill="#f4e2b9"/>
            </g>
            <path id="Trazado_211353" data-name="Trazado 211353" d="M7422.991,1553.037c-12.51.04-22.638,9.021-22.638,20.095s10.128,20.055,22.638,20.095Z" transform="translate(-7374.254 -1494.115)" fill="#c6c6c5" style="mix-blend-mode: multiply;isolation: isolate"/>
            <path id="Trazado_211354" data-name="Trazado 211354" d="M7474.419,1581.366a75.706,75.706,0,0,1-27.687,2.949c-10.667-.818-21.5-2.922-30.981-8.083A61.522,61.522,0,0,1,7392.5,1553.1q-.91-1.573-1.741-3.182H7382.8v48.7H7475.2v-17.492C7474.938,1581.2,7474.679,1581.287,7474.419,1581.366Z" transform="translate(-7382.804 -1495.635)" fill="#c6c6c5" style="mix-blend-mode: multiply;isolation: isolate"/>
            <rect id="Rectángulo_39969" data-name="Rectángulo 39969" width="48.697" height="92.393" transform="translate(2.088 42.304) rotate(-54.199)" fill="#9c9b9b" style="mix-blend-mode: multiply;isolation: isolate"/>
            <rect id="Rectángulo_39970" data-name="Rectángulo 39970" width="48.697" height="92.394" transform="matrix(0.585, -0.811, 0.811, 0.585, 1.299, 39.497)" fill="#9cb364"/>
            <rect id="Rectángulo_39971" data-name="Rectángulo 39971" width="48.697" height="92.394" transform="matrix(0.585, -0.811, 0.811, 0.585, 1.299, 39.497)" fill="#87a960"/>
            <path id="Trazado_211355" data-name="Trazado 211355" d="M7450.052,1593.047a3.884,3.884,0,0,1,5.7-1.161c.042.031.08.067.121.1l16.729-23.194-.3-.177a4.065,4.065,0,0,1-1.344-1.656l-.3-1a4.1,4.1,0,0,1,.718-3.04,3.688,3.688,0,0,1,.378-.442l-58.26-42.017a3.861,3.861,0,0,1-5.587,1c-.037-.027-.069-.055-.1-.083l-16.711,23.167a4.119,4.119,0,0,1,.878,5.66,4.166,4.166,0,0,1-.516.583Z" transform="translate(-7378.768 -1509.984)" fill="#e4dba6"/>
            <path id="Trazado_211356" data-name="Trazado 211356" d="M7441.182,1563.417a20.1,20.1,0,1,1-4.543-28.057A20.095,20.095,0,0,1,7441.182,1563.417Z" transform="translate(-7372.099 -1504.575)" fill="#87a960"/>
            <g id="Grupo_148879" data-name="Grupo 148879" transform="translate(34.189 28.492)">
              <path id="Trazado_211357" data-name="Trazado 211357" d="M7413.508,1566.255a18.6,18.6,0,1,1,25.969-4.207A18.622,18.622,0,0,1,7413.508,1566.255Zm21.084-29.233a17.442,17.442,0,1,0,3.942,24.349A17.46,17.46,0,0,0,7434.592,1537.022Z" transform="translate(-7405.794 -1532.574)" fill="#f4e2b9"/>
            </g>
            <g id="Grupo_148880" data-name="Grupo 148880" transform="translate(43.978 35.983)" style="mix-blend-mode: multiply;isolation: isolate">
              <path id="Trazado_211358" data-name="Trazado 211358" d="M7431.354,1549.723l-4.838-3.49.58-.8a6.533,6.533,0,0,0,1.042-1.8.859.859,0,0,0-.435-.913.909.909,0,0,0-.911-.138,2.339,2.339,0,0,0-.96.864,2.743,2.743,0,0,0-.694,1.921,22.029,22.029,0,0,0,1.333,3.655,24.025,24.025,0,0,1,1.284,3.521,5.682,5.682,0,0,1-.077,2.494,8.533,8.533,0,0,1-1.487,3.032,7.512,7.512,0,0,1-4.175,3.163,7.046,7.046,0,0,1-5.05-.874l-1.312,1.82-2.229-1.607,1.357-1.88a7.158,7.158,0,0,1-2.315-3.936q-.511-2.344,1.82-5.578l.685-.947,4.837,3.49-.856,1.187a13.781,13.781,0,0,0-1.6,2.532.829.829,0,0,0,.384,1,1.038,1.038,0,0,0,.967.2,2.022,2.022,0,0,0,.943-.8,10.32,10.32,0,0,0,1.455-2.494,4.25,4.25,0,0,0-.457-2.648,41.69,41.69,0,0,1-1.539-4.216,6.651,6.651,0,0,1-.051-2.831,7.4,7.4,0,0,1,1.353-3.1,5.69,5.69,0,0,1,3.681-2.516,7.425,7.425,0,0,1,4.781,1.136l1.113-1.547,2.229,1.608-1.114,1.545a6.527,6.527,0,0,1,2.271,3.922,5.9,5.9,0,0,1-1.31,4.164C7431.916,1549.048,7431.682,1549.34,7431.354,1549.723Z" transform="translate(-7412.376 -1537.611)" fill="#c6c6c5"/>
            </g>
            <g id="Grupo_148881" data-name="Grupo 148881" transform="translate(42.733 34.403)">
              <path id="Trazado_211359" data-name="Trazado 211359" d="M7430.519,1548.663l-4.837-3.489.578-.8a6.415,6.415,0,0,0,1.041-1.8.858.858,0,0,0-.432-.915.918.918,0,0,0-.912-.138,2.362,2.362,0,0,0-.962.864,2.745,2.745,0,0,0-.692,1.923,21.741,21.741,0,0,0,1.333,3.655,23.9,23.9,0,0,1,1.284,3.521,5.661,5.661,0,0,1-.077,2.492,8.571,8.571,0,0,1-1.486,3.034,7.53,7.53,0,0,1-4.175,3.163,7.049,7.049,0,0,1-5.051-.876l-1.312,1.82-2.229-1.6,1.357-1.883a7.161,7.161,0,0,1-2.316-3.936q-.511-2.342,1.82-5.576l.683-.947,4.84,3.49-.856,1.185a13.684,13.684,0,0,0-1.6,2.534.827.827,0,0,0,.383,1,1.038,1.038,0,0,0,.967.2,2.032,2.032,0,0,0,.944-.8,10.272,10.272,0,0,0,1.452-2.494,4.225,4.225,0,0,0-.456-2.65,41.95,41.95,0,0,1-1.54-4.214,6.639,6.639,0,0,1-.049-2.832,7.391,7.391,0,0,1,1.353-3.1,5.7,5.7,0,0,1,3.682-2.518,7.429,7.429,0,0,1,4.779,1.135l1.114-1.545,2.229,1.608-1.114,1.547a6.537,6.537,0,0,1,2.271,3.921,5.9,5.9,0,0,1-1.312,4.162C7431.081,1547.988,7430.846,1548.278,7430.519,1548.663Z" transform="translate(-7411.54 -1536.549)" fill="#f4e2b9"/>
            </g>
            <path id="Trazado_211360" data-name="Trazado 211360" d="M7436.577,1535.318a20.1,20.1,0,0,0-23.512,32.6Z" transform="translate(-7372.098 -1504.574)" fill="#c6c6c5" style="mix-blend-mode: multiply;isolation: isolate"/>
            <path id="Trazado_211361" data-name="Trazado 211361" d="M7468.072,1592.513a75.723,75.723,0,0,1-24.182-13.8c-8.174-6.9-15.726-14.945-20.4-24.681a61.49,61.49,0,0,1-5.326-32.366c.119-1.2.267-2.4.446-3.6l-6.449-4.653-28.484,39.5,74.936,54.048,10.234-14.188C7468.587,1592.684,7468.329,1592.6,7468.072,1592.513Z" transform="translate(-7382.379 -1513.414)" fill="#c6c6c5" style="mix-blend-mode: multiply;isolation: isolate"/>
          </g>
        </g>
        <g id="Grupo_148900" data-name="Grupo 148900" transform="translate(52.399 89.397)">
          <g id="Grupo_148887" data-name="Grupo 148887" transform="translate(0 35.821)">
            <path id="Trazado_211362" data-name="Trazado 211362" d="M7415.383,1591.967c0,6.7,19.51,12.131,43.576,12.131s43.578-5.431,43.578-12.131v-6.583h-87.2Z" transform="translate(-7415.336 -1573.786)" fill="#89661b"/>
            <path id="Trazado_211363" data-name="Trazado 211363" d="M7500.388,1589.579c0,6.454-18.792,11.686-41.971,11.686s-41.969-5.231-41.969-11.686,18.789-11.685,41.969-11.685S7500.388,1583.125,7500.388,1589.579Z" transform="translate(-7414.795 -1577.433)" fill="#f8b133"/>
            <g id="Grupo_148884" data-name="Grupo 148884">
              <path id="Trazado_211364" data-name="Trazado 211364" d="M7458.959,1601.877c-24.053,0-43.623-5.45-43.623-12.147s19.57-12.146,43.623-12.146,43.624,5.45,43.624,12.146S7483.014,1601.877,7458.959,1601.877Zm0-23.371c-22.231,0-40.317,4.878-40.317,10.875s18.086,10.877,40.317,10.877,40.318-4.879,40.318-10.877S7481.192,1578.506,7458.959,1578.506Z" transform="translate(-7415.336 -1577.584)" fill="#da9d2d"/>
            </g>
            <path id="Trazado_211365" data-name="Trazado 211365" d="M7485.689,1588.57c0,4.751-13.836,8.6-30.9,8.6s-30.9-3.851-30.9-8.6,13.833-8.6,30.9-8.6S7485.689,1583.819,7485.689,1588.57Z" transform="translate(-7411.168 -1576.424)" fill="#dea02e"/>
            <path id="Trazado_211366" data-name="Trazado 211366" d="M7446.827,1580.862c-3.74,1.044-6.116,2.412-6.114,3.981,0,2.323,4.056,4.775,12.333,5.618,6.819.695,13.713.394,18.705-.975a2.732,2.732,0,0,0,1.078-1.982c0-3.683-10.719-6.666-23.939-6.666C7448.2,1580.837,7447.509,1580.847,7446.827,1580.862Z" transform="translate(-7402.976 -1576)" fill="#ffec00" style="mix-blend-mode: soft-light;isolation: isolate"/>
            <path id="Trazado_211367" data-name="Trazado 211367" d="M7456.122,1593.059c-10.788-1.569-16.854-4.947-16.152-8.3.354-1.692,2.31-3.226,5.521-4.522-12.52,1.1-21.6,4.357-21.6,8.206,0,4.751,13.833,8.6,30.9,8.6,10.722,0,20.164-1.521,25.706-3.831A92.5,92.5,0,0,1,7456.122,1593.059Z" transform="translate(-7411.168 -1576.293)" fill="#ececec" style="mix-blend-mode: multiply;isolation: isolate"/>
            <g id="Grupo_148885" data-name="Grupo 148885" transform="translate(34.116 5.102)" style="mix-blend-mode: multiply;isolation: isolate">
              <path id="Trazado_211368" data-name="Trazado 211368" d="M7462.732,1585.325h-10.238v-.471c0-.5-.116-.833-.354-.987a3.18,3.18,0,0,0-1.52-.233,3.738,3.738,0,0,0-1.406.2.649.649,0,0,0-.47.6c0,.446.32.76.964.938q.936.268,5.523,1.044,3.9.656,5.322,1.005a7.767,7.767,0,0,1,2.4.988,1.871,1.871,0,0,1,.975,1.591q0,1.526-2.637,2.393a30.846,30.846,0,0,1-7.906,1.072v1.071h-4.711v-1.106a33.773,33.773,0,0,1-7.174-.877q-3.064-.768-3.065-2.671v-.558h10.239v.7c0,.767.1,1.243.316,1.429a2.626,2.626,0,0,0,1.53.28,4.6,4.6,0,0,0,1.547-.195c.34-.128.508-.321.508-.575a1.716,1.716,0,0,0-.482-1.373,9.627,9.627,0,0,0-3.293-.9q-4.692-.818-6.375-1.2a10.717,10.717,0,0,1-2.912-1.083q-1.232-.7-1.23-1.581,0-1.278,2.6-2a35.437,35.437,0,0,1,7.794-.9v-.909h4.711v.909a29.857,29.857,0,0,1,7.1.888q2.355.716,2.356,1.978A2.174,2.174,0,0,1,7462.732,1585.325Z" transform="translate(-7438.278 -1581.015)" fill="#c6c6c5"/>
            </g>
            <g id="Grupo_148886" data-name="Grupo 148886" transform="translate(30.802 4.838)">
              <path id="Trazado_211369" data-name="Trazado 211369" d="M7460.5,1585.148h-10.239v-.473a1.11,1.11,0,0,0-.355-.987,3.188,3.188,0,0,0-1.52-.234,3.7,3.7,0,0,0-1.405.2.647.647,0,0,0-.47.6c0,.446.321.76.963.937q.938.27,5.525,1.044,3.9.658,5.32,1.007a7.668,7.668,0,0,1,2.4.988,1.866,1.866,0,0,1,.974,1.589q0,1.526-2.635,2.393a30.837,30.837,0,0,1-7.905,1.072v1.072h-4.714v-1.108a33.648,33.648,0,0,1-7.171-.877q-3.067-.765-3.066-2.671v-.558h10.237v.7q0,1.151.315,1.429a2.664,2.664,0,0,0,1.535.278,4.608,4.608,0,0,0,1.546-.193q.507-.194.507-.575a1.724,1.724,0,0,0-.481-1.373,9.607,9.607,0,0,0-3.3-.9q-4.689-.818-6.372-1.2a10.656,10.656,0,0,1-2.913-1.082c-.821-.465-1.229-.994-1.229-1.579q0-1.278,2.6-2a35.336,35.336,0,0,1,7.792-.9v-.91h4.714v.91a29.87,29.87,0,0,1,7.1.886q2.357.714,2.356,1.979A2.27,2.27,0,0,1,7460.5,1585.148Z" transform="translate(-7436.049 -1580.837)" fill="#ffec00"/>
            </g>
          </g>
          <g id="Grupo_148891" data-name="Grupo 148891" transform="translate(0 24.224)">
            <path id="Trazado_211370" data-name="Trazado 211370" d="M7415.383,1584.167c0,6.7,19.51,12.133,43.576,12.133s43.578-5.432,43.578-12.133v-6.583h-87.2Z" transform="translate(-7415.336 -1565.988)" fill="#89661b"/>
            <path id="Trazado_211371" data-name="Trazado 211371" d="M7500.388,1581.781c0,6.453-18.792,11.686-41.971,11.686s-41.969-5.233-41.969-11.686,18.789-11.685,41.969-11.685S7500.388,1575.326,7500.388,1581.781Z" transform="translate(-7414.795 -1569.635)" fill="#f8b133"/>
            <g id="Grupo_148888" data-name="Grupo 148888">
              <path id="Trazado_211372" data-name="Trazado 211372" d="M7458.959,1594.077c-24.053,0-43.623-5.449-43.623-12.145s19.57-12.146,43.623-12.146,43.624,5.448,43.624,12.146S7483.014,1594.077,7458.959,1594.077Zm0-23.371c-22.231,0-40.317,4.879-40.317,10.876s18.086,10.875,40.317,10.875,40.318-4.878,40.318-10.875S7481.192,1570.707,7458.959,1570.707Z" transform="translate(-7415.336 -1569.786)" fill="#da9d2d"/>
            </g>
            <path id="Trazado_211373" data-name="Trazado 211373" d="M7485.689,1580.772c0,4.751-13.836,8.6-30.9,8.6s-30.9-3.85-30.9-8.6,13.833-8.6,30.9-8.6S7485.689,1576.021,7485.689,1580.772Z" transform="translate(-7411.168 -1568.626)" fill="#dea02e"/>
            <path id="Trazado_211374" data-name="Trazado 211374" d="M7446.827,1573.064c-3.74,1.044-6.116,2.411-6.114,3.979,0,2.324,4.056,4.776,12.333,5.618,6.819.695,13.713.4,18.705-.975a2.729,2.729,0,0,0,1.078-1.982c0-3.682-10.719-6.665-23.939-6.665Q7447.848,1573.039,7446.827,1573.064Z" transform="translate(-7402.976 -1568.202)" fill="#ffec00" style="mix-blend-mode: soft-light;isolation: isolate"/>
            <path id="Trazado_211375" data-name="Trazado 211375" d="M7456.122,1585.259c-10.788-1.569-16.854-4.946-16.152-8.3.354-1.692,2.31-3.224,5.521-4.521-12.52,1.1-21.6,4.356-21.6,8.206,0,4.751,13.833,8.6,30.9,8.6,10.722,0,20.164-1.52,25.706-3.829A92.554,92.554,0,0,1,7456.122,1585.259Z" transform="translate(-7411.168 -1568.495)" fill="#ececec" style="mix-blend-mode: multiply;isolation: isolate"/>
            <g id="Grupo_148889" data-name="Grupo 148889" transform="translate(34.116 5.101)" style="mix-blend-mode: multiply;isolation: isolate">
              <path id="Trazado_211376" data-name="Trazado 211376" d="M7462.732,1577.527h-10.238v-.473a1.109,1.109,0,0,0-.354-.987,3.2,3.2,0,0,0-1.52-.234,3.7,3.7,0,0,0-1.406.2.647.647,0,0,0-.47.6q0,.672.964.938.936.268,5.523,1.045,3.9.654,5.322,1.005a7.769,7.769,0,0,1,2.4.986,1.872,1.872,0,0,1,.975,1.593q0,1.523-2.637,2.391a30.772,30.772,0,0,1-7.906,1.072v1.072h-4.711v-1.106a33.891,33.891,0,0,1-7.174-.877q-3.064-.768-3.065-2.672v-.558h10.239v.7c0,.767.1,1.242.316,1.429a2.642,2.642,0,0,0,1.53.278,4.6,4.6,0,0,0,1.547-.193c.34-.129.508-.321.508-.575a1.711,1.711,0,0,0-.482-1.373,9.616,9.616,0,0,0-3.293-.9q-4.692-.817-6.375-1.2a10.661,10.661,0,0,1-2.912-1.083q-1.232-.7-1.23-1.579c0-.854.867-1.52,2.6-2.006a35.447,35.447,0,0,1,7.794-.9v-.91h4.711v.91a29.88,29.88,0,0,1,7.1.886q2.355.716,2.356,1.978A2.159,2.159,0,0,1,7462.732,1577.527Z" transform="translate(-7438.278 -1573.216)" fill="#c6c6c5"/>
            </g>
            <g id="Grupo_148890" data-name="Grupo 148890" transform="translate(30.802 4.837)">
              <path id="Trazado_211377" data-name="Trazado 211377" d="M7460.5,1577.35h-10.239v-.474a1.107,1.107,0,0,0-.355-.986,3.162,3.162,0,0,0-1.52-.235,3.726,3.726,0,0,0-1.405.2.649.649,0,0,0-.47.6q0,.669.963.938.938.268,5.525,1.044,3.9.656,5.32,1.005a7.75,7.75,0,0,1,2.4.987,1.871,1.871,0,0,1,.974,1.591q0,1.523-2.635,2.393a30.763,30.763,0,0,1-7.905,1.071v1.072h-4.714v-1.106a33.7,33.7,0,0,1-7.171-.879q-3.067-.763-3.066-2.671v-.556h10.237v.7c0,.769.105,1.245.315,1.431a2.681,2.681,0,0,0,1.535.276,4.6,4.6,0,0,0,1.546-.193c.338-.13.507-.32.507-.575a1.726,1.726,0,0,0-.481-1.373,9.645,9.645,0,0,0-3.3-.9q-4.689-.816-6.372-1.2a10.648,10.648,0,0,1-2.913-1.081c-.821-.465-1.229-.993-1.229-1.582q0-1.276,2.6-2a35.444,35.444,0,0,1,7.792-.9v-.91h4.714v.91a29.8,29.8,0,0,1,7.1.886q2.357.714,2.356,1.978A2.267,2.267,0,0,1,7460.5,1577.35Z" transform="translate(-7436.049 -1573.039)" fill="#ffec00"/>
            </g>
          </g>
          <g id="Grupo_148895" data-name="Grupo 148895" transform="translate(0 11.598)">
            <path id="Trazado_211378" data-name="Trazado 211378" d="M7415.383,1575.675c0,6.7,19.51,12.133,43.576,12.133s43.578-5.431,43.578-12.133v-6.582h-87.2Z" transform="translate(-7415.336 -1557.497)" fill="#89661b"/>
            <ellipse id="Elipse_4929" data-name="Elipse 4929" cx="41.97" cy="11.686" rx="41.97" ry="11.686" transform="translate(1.653 0.459)" fill="#f8b133"/>
            <g id="Grupo_148892" data-name="Grupo 148892">
              <path id="Trazado_211379" data-name="Trazado 211379" d="M7458.959,1585.586c-24.053,0-43.623-5.449-43.623-12.146s19.57-12.145,43.623-12.145,43.624,5.447,43.624,12.145S7483.014,1585.586,7458.959,1585.586Zm0-23.371c-22.231,0-40.317,4.878-40.317,10.877s18.086,10.875,40.317,10.875,40.318-4.879,40.318-10.875S7481.192,1562.215,7458.959,1562.215Z" transform="translate(-7415.336 -1561.295)" fill="#da9d2d"/>
            </g>
            <path id="Trazado_211380" data-name="Trazado 211380" d="M7485.689,1572.28c0,4.751-13.836,8.6-30.9,8.6s-30.9-3.851-30.9-8.6,13.833-8.6,30.9-8.6S7485.689,1567.528,7485.689,1572.28Z" transform="translate(-7411.168 -1560.135)" fill="#dea02e"/>
            <path id="Trazado_211381" data-name="Trazado 211381" d="M7446.827,1564.574c-3.74,1.042-6.116,2.411-6.114,3.979,0,2.323,4.056,4.775,12.333,5.618,6.819.694,13.713.394,18.705-.977a2.726,2.726,0,0,0,1.078-1.981c0-3.682-10.719-6.667-23.939-6.667C7448.2,1564.547,7447.509,1564.557,7446.827,1564.574Z" transform="translate(-7402.976 -1559.711)" fill="#ffec00" style="mix-blend-mode: soft-light;isolation: isolate"/>
            <path id="Trazado_211382" data-name="Trazado 211382" d="M7456.122,1576.768c-10.788-1.567-16.854-4.946-16.152-8.3.354-1.691,2.31-3.222,5.521-4.519-12.52,1.1-21.6,4.356-21.6,8.2,0,4.751,13.833,8.6,30.9,8.6,10.722,0,20.164-1.521,25.706-3.829A92.5,92.5,0,0,1,7456.122,1576.768Z" transform="translate(-7411.168 -1560.004)" fill="#ececec" style="mix-blend-mode: multiply;isolation: isolate"/>
            <g id="Grupo_148893" data-name="Grupo 148893" transform="translate(34.116 5.101)" style="mix-blend-mode: multiply;isolation: isolate">
              <path id="Trazado_211383" data-name="Trazado 211383" d="M7462.732,1569.036h-10.238v-.474a1.11,1.11,0,0,0-.354-.988,3.206,3.206,0,0,0-1.52-.232,3.743,3.743,0,0,0-1.406.2.647.647,0,0,0-.47.6c0,.446.32.76.964.938q.936.268,5.523,1.044,3.9.656,5.322,1.007a7.728,7.728,0,0,1,2.4.986,1.872,1.872,0,0,1,.975,1.591q0,1.523-2.637,2.391a30.687,30.687,0,0,1-7.906,1.074v1.072h-4.711v-1.108a33.67,33.67,0,0,1-7.174-.877q-3.064-.768-3.065-2.671v-.558h10.239v.7c0,.767.1,1.243.316,1.429a2.641,2.641,0,0,0,1.53.278,4.559,4.559,0,0,0,1.547-.195c.34-.13.508-.321.508-.574a1.71,1.71,0,0,0-.482-1.373,9.58,9.58,0,0,0-3.293-.9q-4.692-.818-6.375-1.2a10.669,10.669,0,0,1-2.912-1.083q-1.232-.7-1.23-1.581,0-1.278,2.6-2a35.441,35.441,0,0,1,7.794-.9v-.91h4.711v.91a29.875,29.875,0,0,1,7.1.885q2.355.716,2.356,1.979A2.17,2.17,0,0,1,7462.732,1569.036Z" transform="translate(-7438.278 -1564.725)" fill="#c6c6c5"/>
            </g>
            <g id="Grupo_148894" data-name="Grupo 148894" transform="translate(30.802 4.836)">
              <path id="Trazado_211384" data-name="Trazado 211384" d="M7460.5,1568.858h-10.239v-.473a1.113,1.113,0,0,0-.355-.988,3.171,3.171,0,0,0-1.52-.233,3.7,3.7,0,0,0-1.405.2.649.649,0,0,0-.47.6c0,.446.321.76.963.937q.938.268,5.525,1.044,3.9.656,5.32,1.007a7.711,7.711,0,0,1,2.4.988,1.867,1.867,0,0,1,.974,1.591q0,1.523-2.635,2.391a30.764,30.764,0,0,1-7.905,1.073v1.072h-4.714v-1.106a33.688,33.688,0,0,1-7.171-.879q-3.067-.765-3.066-2.671v-.558h10.237v.7q0,1.151.315,1.429a2.663,2.663,0,0,0,1.535.278,4.606,4.606,0,0,0,1.546-.193q.507-.194.507-.575a1.725,1.725,0,0,0-.481-1.373,9.65,9.65,0,0,0-3.3-.9q-4.689-.816-6.372-1.2a10.748,10.748,0,0,1-2.913-1.084c-.821-.465-1.229-.992-1.229-1.581q0-1.276,2.6-2a35.338,35.338,0,0,1,7.792-.9v-.91h4.714v.91a29.866,29.866,0,0,1,7.1.886q2.357.716,2.356,1.979A2.274,2.274,0,0,1,7460.5,1568.858Z" transform="translate(-7436.049 -1564.547)" fill="#ffec00"/>
            </g>
          </g>
          <g id="Grupo_148899" data-name="Grupo 148899">
            <path id="Trazado_211385" data-name="Trazado 211385" d="M7415.383,1567.877c0,6.7,19.51,12.133,43.576,12.133s43.578-5.432,43.578-12.133V1561.3h-87.2Z" transform="translate(-7415.336 -1549.697)" fill="#89661b"/>
            <path id="Trazado_211386" data-name="Trazado 211386" d="M7500.388,1565.49c0,6.454-18.792,11.687-41.971,11.687s-41.969-5.233-41.969-11.687,18.789-11.685,41.969-11.685S7500.388,1559.038,7500.388,1565.49Z" transform="translate(-7414.795 -1553.346)" fill="#f8b133"/>
            <g id="Grupo_148896" data-name="Grupo 148896">
              <path id="Trazado_211387" data-name="Trazado 211387" d="M7458.959,1577.787c-24.053,0-43.623-5.449-43.623-12.147s19.57-12.145,43.623-12.145,43.624,5.449,43.624,12.145S7483.014,1577.787,7458.959,1577.787Zm0-23.371c-22.231,0-40.317,4.879-40.317,10.876s18.086,10.875,40.317,10.875,40.318-4.879,40.318-10.875S7481.192,1554.417,7458.959,1554.417Z" transform="translate(-7415.336 -1553.496)" fill="#da9d2d"/>
            </g>
            <ellipse id="Elipse_4930" data-name="Elipse 4930" cx="30.897" cy="8.603" rx="30.897" ry="8.603" transform="translate(12.726 3.543)" fill="#dea02e"/>
            <path id="Trazado_211388" data-name="Trazado 211388" d="M7446.827,1556.774c-3.74,1.044-6.116,2.411-6.114,3.981,0,2.323,4.056,4.775,12.333,5.618,6.819.693,13.713.394,18.705-.977a2.73,2.73,0,0,0,1.078-1.982c0-3.681-10.719-6.665-23.939-6.665Q7447.848,1556.749,7446.827,1556.774Z" transform="translate(-7402.976 -1551.911)" fill="#ffec00" style="mix-blend-mode: soft-light;isolation: isolate"/>
            <path id="Trazado_211389" data-name="Trazado 211389" d="M7456.122,1568.969c-10.788-1.568-16.854-4.946-16.152-8.3.354-1.694,2.31-3.226,5.521-4.522-12.52,1.1-21.6,4.356-21.6,8.2,0,4.753,13.833,8.6,30.9,8.6,10.722,0,20.164-1.521,25.706-3.831A92.512,92.512,0,0,1,7456.122,1568.969Z" transform="translate(-7411.168 -1552.205)" fill="#ececec" style="mix-blend-mode: multiply;isolation: isolate"/>
            <g id="Grupo_148897" data-name="Grupo 148897" transform="translate(34.116 5.102)" style="mix-blend-mode: multiply;isolation: isolate">
              <path id="Trazado_211390" data-name="Trazado 211390" d="M7462.732,1561.237h-10.238v-.473c0-.5-.116-.831-.354-.987a3.2,3.2,0,0,0-1.52-.233,3.738,3.738,0,0,0-1.406.2.647.647,0,0,0-.47.6q0,.671.964.94.936.267,5.523,1.044,3.9.656,5.322,1.005a7.761,7.761,0,0,1,2.4.987,1.87,1.87,0,0,1,.975,1.591q0,1.524-2.637,2.391a30.706,30.706,0,0,1-7.906,1.072v1.072h-4.711v-1.106a33.671,33.671,0,0,1-7.174-.879q-3.064-.765-3.065-2.671v-.556h10.239v.7c0,.767.1,1.243.316,1.429a2.627,2.627,0,0,0,1.53.28,4.6,4.6,0,0,0,1.547-.195c.34-.131.508-.321.508-.576a1.718,1.718,0,0,0-.482-1.374,9.686,9.686,0,0,0-3.293-.9q-4.692-.818-6.375-1.2a10.669,10.669,0,0,1-2.912-1.083q-1.232-.7-1.23-1.581,0-1.276,2.6-2a35.331,35.331,0,0,1,7.794-.9v-.908h4.711v.908a29.873,29.873,0,0,1,7.1.886q2.355.716,2.356,1.978A2.159,2.159,0,0,1,7462.732,1561.237Z" transform="translate(-7438.278 -1556.927)" fill="#c6c6c5"/>
            </g>
            <g id="Grupo_148898" data-name="Grupo 148898" transform="translate(30.802 4.838)">
              <path id="Trazado_211391" data-name="Trazado 211391" d="M7460.5,1561.06h-10.239v-.473a1.111,1.111,0,0,0-.355-.988,3.169,3.169,0,0,0-1.52-.233,3.726,3.726,0,0,0-1.405.2.648.648,0,0,0-.47.6q0,.671.963.938.938.268,5.525,1.044,3.9.656,5.32,1.005a7.738,7.738,0,0,1,2.4.988,1.867,1.867,0,0,1,.974,1.591q0,1.526-2.635,2.393a30.825,30.825,0,0,1-7.905,1.072v1.072h-4.714v-1.108a33.627,33.627,0,0,1-7.171-.879q-3.067-.765-3.066-2.669v-.558h10.237v.7c0,.767.105,1.245.315,1.429a2.647,2.647,0,0,0,1.535.28,4.6,4.6,0,0,0,1.546-.195c.338-.128.507-.321.507-.574a1.722,1.722,0,0,0-.481-1.372,9.628,9.628,0,0,0-3.3-.9q-4.689-.817-6.372-1.2a10.692,10.692,0,0,1-2.913-1.083c-.821-.465-1.229-.993-1.229-1.581q0-1.278,2.6-2a35.339,35.339,0,0,1,7.792-.9v-.91h4.714v.91a29.86,29.86,0,0,1,7.1.885q2.357.716,2.356,1.979A2.267,2.267,0,0,1,7460.5,1561.06Z" transform="translate(-7436.049 -1556.749)" fill="#ffec00"/>
            </g>
          </g>
        </g>
      </g>
    </g>
  </g>
</svg>
