<svg xmlns="http://www.w3.org/2000/svg" width="135" height="135" viewBox="0 0 135 135"><g transform="translate(-285 -19402.455)"><g transform="translate(0 -88.545)"><g transform="translate(285 19491)" fill="#fff" stroke="#f14141" stroke-width="3"><circle cx="67.5" cy="67.5" r="67.5" stroke="none"/><circle cx="67.5" cy="67.5" r="66" fill="none"/></g><g transform="translate(321.155 19528.152)"><path d="M15.081,3.291l1.181-2.046A1.959,1.959,0,0,1,19.655,3.2L18.474,5.25" transform="translate(40.751 0.715)" fill="#e4eff8"/><path d="M16.261,1.247l-1.18,2.045L18.473,5.25l.517-.9L17.147,3.291l1.182-2.045a1.946,1.946,0,0,1,.664-.677c-.02-.012-.035-.028-.055-.04a1.953,1.953,0,0,0-2.676.717Z" transform="translate(40.751 0.714)" fill="#c4dcf0"/><path d="M13.493,20.085a5.877,5.877,0,0,0,11.754,0V13.229H13.493" transform="translate(36.461 35.747)" fill="#549ad4"/><path d="M22.66,13.229v4.9a5.873,5.873,0,0,1-8.934,5.016,5.875,5.875,0,0,0,10.893-3.057V13.229Z" transform="translate(37.09 35.747)" fill="#3588cb"/><path d="M55.11,58.809H6.142A5.864,5.864,0,0,1,.265,52.933V1.073H49.24v52.84c0,1.959,1.959,4.9,5.87,4.9Z" transform="translate(0.715 2.899)" fill="#e4eff8"/><path d="M28.686,1.313l1.7.979A1.954,1.954,0,0,1,31.1,4.968L15.918,31.262l-5.483,3.62.394-6.558L26.01,2.03a1.955,1.955,0,0,1,2.676-.717Z" transform="translate(28.195 2.833)" fill="#ffca28"/><path d="M26.011,2.029,10.828,28.324l-.394,6.557L12.5,33.517l.287-4.79L27.97,2.433a1.948,1.948,0,0,1,1.119-.888l-.4-.231a1.954,1.954,0,0,0-2.676.715Z" transform="translate(28.195 2.834)" fill="#ecb200"/><path d="M.265,1.073V52.932a5.864,5.864,0,0,0,5.877,5.876H55.109a5.967,5.967,0,0,1-4.6-1.959H8.1a5.864,5.864,0,0,1-5.877-5.876V1.073Z" transform="translate(0.715 2.9)" fill="#c4dcf0"/><path d="M4.34,11.642H8.258A1.955,1.955,0,0,1,10.217,13.6v3.918a1.955,1.955,0,0,1-1.959,1.959H4.34a1.955,1.955,0,0,1-1.959-1.959V13.6A1.955,1.955,0,0,1,4.34,11.642Z" transform="translate(6.434 31.458)" fill="#549ad4"/><path d="M4.34,7.938H8.258A1.955,1.955,0,0,1,10.217,9.9v3.918a1.955,1.955,0,0,1-1.959,1.959H4.34a1.955,1.955,0,0,1-1.959-1.959V9.9A1.955,1.955,0,0,1,4.34,7.938Z" transform="translate(6.434 21.45)" fill="#549ad4"/><path d="M4.34,11.642A1.955,1.955,0,0,0,2.381,13.6v3.918A1.955,1.955,0,0,0,4.34,19.477H8.258a1.955,1.955,0,0,0,1.959-1.959H6.3A1.955,1.955,0,0,1,4.34,15.559Z" transform="translate(6.434 31.458)" fill="#3588cb"/><path d="M4.34,7.938A1.955,1.955,0,0,0,2.381,9.9v3.918A1.955,1.955,0,0,0,4.34,15.773H8.258a1.955,1.955,0,0,0,1.959-1.959H6.3A1.955,1.955,0,0,1,4.34,11.856Z" transform="translate(6.434 21.45)" fill="#3588cb"/><path d="M4.34,4.234H8.258a1.955,1.955,0,0,1,1.959,1.959v3.918A1.955,1.955,0,0,1,8.258,12.07H4.34a1.955,1.955,0,0,1-1.959-1.959V6.193A1.955,1.955,0,0,1,4.34,4.234Z" transform="translate(6.434 11.442)" fill="#549ad4"/><path d="M4.34,4.234A1.955,1.955,0,0,0,2.381,6.193v3.918A1.955,1.955,0,0,0,4.34,12.07H8.258a1.955,1.955,0,0,0,1.959-1.959H6.3A1.955,1.955,0,0,1,4.34,8.152Z" transform="translate(6.434 11.442)" fill="#3588cb"/><path d="M7.836.013a.94.94,0,0,0-.98.978V2.944H.976A.98.98,0,0,0,0,3.927V55.836A6.847,6.847,0,0,0,6.855,62.69H55.832a6.848,6.848,0,0,0,6.858-6.854V48.974A.98.98,0,0,0,61.7,48H50.932V24.242l7.742-13.408,1.7.981-4.9,8.48a.98.98,0,0,0,1.7.979l5.385-9.325a.979.979,0,0,0-.362-1.337L59.652,9.142l.492-.851a2.9,2.9,0,0,0,.247-2.385l.867-1.5a2.941,2.941,0,1,0-5.1-2.932L55.3,2.962a2.955,2.955,0,0,0-1.949,1.41l-2.422,4.2V3.927a.98.98,0,0,0-.976-.983H43.1V.991a.981.981,0,0,0-1.963,0V2.944h-4.9V.991a.98.98,0,0,0-1.961,0V2.944h-4.9V.991a.98.98,0,0,0-1.961,0V2.944H22.531V.991a.981.981,0,0,0-1.963,0V2.944h-4.9V.991a.98.98,0,0,0-1.961,0V2.944H8.817V.991A.942.942,0,0,0,7.836.013ZM59.068,4.28,57.37,3.3l.49-.85a.981.981,0,0,1,1.7.983Zm-2.675.714,1.684.972a.972.972,0,0,1,.369,1.349l-.488.847L54.565,6.2l.488-.846a.97.97,0,0,1,1.339-.362ZM1.959,4.9h4.9V6.862a.98.98,0,0,0,1.961,0V4.9h4.894V6.862a.98.98,0,0,0,1.961,0V4.9h4.9V6.862a.981.981,0,0,0,1.963,0V4.9h4.894V6.862a.98.98,0,0,0,1.961,0V4.9h4.9V6.862a.98.98,0,0,0,1.961,0V4.9h4.9V6.862a.981.981,0,0,0,1.963,0V4.9h5.873v7.061l-10.8,18.7a.98.98,0,0,0-.13.434l-.385,6.324-.373.647a.981.981,0,0,0,1.7.981l.375-.648,5.292-3.493a.979.979,0,0,0,.3-.327l4.014-6.952q-.011,14.112,0,28.2a6.848,6.848,0,0,0,2.053,4.893H6.855a4.881,4.881,0,0,1-4.9-4.893Zm51.625,3,3.394,1.957c-2.123,3.677-4.475,7.753-6.855,11.875L46.73,19.772ZM10.771,14.7a2.927,2.927,0,0,0-2.935,2.934v3.92a2.939,2.939,0,0,0,2.935,2.942H14.7a2.936,2.936,0,0,0,2.935-2.942v-3.92A2.935,2.935,0,0,0,14.7,14.7Zm0,1.959H14.7a.973.973,0,0,1,.976.976v3.92a.975.975,0,0,1-.976.983H10.771a.975.975,0,0,1-.976-.983v-3.92a.969.969,0,0,1,.976-.976Zm11.758,0a.98.98,0,1,0,0,1.961h6.857a.98.98,0,0,0,0-1.961Zm0,3.916a.981.981,0,0,0,0,1.963H37.3a.981.981,0,0,0,0-1.963Zm23.221.9,3.4,1.959-5.762,9.982-3.658,2.416.26-4.375ZM10.771,28.412a2.93,2.93,0,0,0-2.935,2.934v3.92A2.932,2.932,0,0,0,10.771,38.2H14.7a2.932,2.932,0,0,0,2.935-2.934v-3.92A2.927,2.927,0,0,0,14.7,28.412Zm0,1.951H14.7a.98.98,0,0,1,.976.983v3.92a.966.966,0,0,1-.976.976H10.771a.971.971,0,0,1-.976-.976v-3.92a.98.98,0,0,1,.976-.983Zm11.758,0a.98.98,0,1,0,0,1.961h6.857a.98.98,0,0,0,0-1.961Zm0,3.916a.981.981,0,0,0,0,1.963h9.8a.981.981,0,0,0,0-1.963ZM10.771,42.12a2.932,2.932,0,0,0-2.935,2.934v3.92a2.936,2.936,0,0,0,2.935,2.942H14.7a2.936,2.936,0,0,0,2.935-2.942v-3.92A2.935,2.935,0,0,0,14.7,42.12Zm11.758,1.957a.98.98,0,1,0,0,1.961h6.857a.98.98,0,0,0,0-1.961Zm-11.758,0H14.7a.971.971,0,0,1,.976.976v3.92a.978.978,0,0,1-.976.983H10.771a.975.975,0,0,1-.976-.983v-3.92a.977.977,0,0,1,.976-.976Zm11.758,3.914a.98.98,0,1,0,0,1.961H39.181a.98.98,0,0,0,0-1.961Zm28.4,1.965h9.8v5.878a4.9,4.9,0,0,1-9.8,0Z" transform="translate(0 0)"/></g></g></g></svg>