<svg xmlns="http://www.w3.org/2000/svg" width="135" height="135" viewBox="0 0 135 135"><g transform="translate(-285 -18993.455)"><g transform="translate(0 -88.545)"><g transform="translate(285 19082)" fill="#fff" stroke="#f14141" stroke-width="3"><circle cx="67.5" cy="67.5" r="67.5" stroke="none"/><circle cx="67.5" cy="67.5" r="66" fill="none"/></g><g transform="translate(306.191 19112)"><path d="M17.351,31.484l34.6-23.476,34.6,23.476V79.673H17.351Z" transform="translate(-7.306 -6.85)" fill="#f07b52"/><path d="M54.419,9.685,51.948,8.008l-34.6,23.476V79.673h4.942V31.484Z" transform="translate(-7.306 -6.85)" fill="#e5563c"/><rect width="44.482" height="42.01" transform="translate(22.401 30.813)" fill="#74757b"/><g transform="translate(22.401 30.813)"><rect width="44.482" height="42.01" fill="#74757b"/></g><rect width="4.942" height="42.01" transform="translate(22.401 30.813)" fill="#606268"/><rect width="49.424" height="4.942" transform="translate(19.929 25.87)" fill="#d7d8d9"/><rect width="14.827" height="14.827" transform="translate(22.401 43.169)" fill="#fddd85"/><rect width="3.707" height="14.827" transform="translate(22.401 43.169)" fill="#fdd042"/><rect width="4.942" height="7.414" transform="translate(27.343 43.169)" fill="#e1a527"/><rect width="14.827" height="14.827" transform="translate(22.401 57.996)" fill="#fddd85"/><rect width="3.707" height="14.827" transform="translate(22.401 57.996)" fill="#fdd042"/><rect width="4.942" height="7.414" transform="translate(27.343 57.996)" fill="#e1a527"/><rect width="14.827" height="14.827" transform="translate(37.228 57.996)" fill="#fddd85"/><rect width="3.707" height="14.827" transform="translate(37.228 57.996)" fill="#fdd042"/><rect width="4.942" height="7.414" transform="translate(42.17 57.996)" fill="#e1a527"/><path d="M79.85,23.676,45.273.2a1.143,1.143,0,0,0-1.291,0L9.351,23.676a1.192,1.192,0,0,0-.542.959V72.823a1.3,1.3,0,0,0,1.236,1.236H79.238a1.164,1.164,0,0,0,1.081-1.236V24.635A1.123,1.123,0,0,0,79.85,23.676ZM21.011,29.732V27.106H68.118v2.626ZM28.424,44.4H31.05v5.1H28.424V44.4Zm-1.081,7.414h4.942a1.164,1.164,0,0,0,1.081-1.236V44.4h2.626v12.51H23.482V44.4h2.626v6.178A1.3,1.3,0,0,0,27.343,51.818Zm1.081,7.414H31.05v5.1H28.424v-5.1Zm-4.942,0h2.626V65.41a1.3,1.3,0,0,0,1.236,1.236h4.942a1.164,1.164,0,0,0,1.081-1.236V59.232h2.626v12.51H23.482V59.232Zm14.827,12.51V59.232h2.626V65.41a1.3,1.3,0,0,0,1.236,1.236h4.942a1.164,1.164,0,0,0,1.081-1.236V59.232h2.626v12.51Zm4.942-12.51h2.626v5.1H43.251ZM78,71.742H67.963V46.876a1.158,1.158,0,0,0-2.317,0V71.742H53.136V58a1.031,1.031,0,0,0-1.081-1.081H38.309V43.169a1.031,1.031,0,0,0-1.081-1.081H23.482V32.049H65.647v9.885a1.158,1.158,0,0,0,2.317,0V32.049h1.39a1.164,1.164,0,0,0,1.081-1.236V25.871a1.031,1.031,0,0,0-1.081-1.081H19.929a1.164,1.164,0,0,0-1.236,1.081v4.942a1.3,1.3,0,0,0,1.236,1.236h1.236V71.742H11.126V25.249L44.564,2.558,78,25.249Z" transform="translate(0 0)"/><path d="M214.357,70.03a1.158,1.158,0,0,0,1.158,1.158H225.4a1.158,1.158,0,1,0,0-2.317h-9.885A1.158,1.158,0,0,0,214.357,70.03Z" transform="translate(-175.816 -58.91)"/><path d="M225.4,103.041h-9.885a1.158,1.158,0,0,0,0,2.317H225.4a1.158,1.158,0,1,0,0-2.317Z" transform="translate(-175.816 -88.136)"/><path d="M225.4,137.21h-9.885a1.158,1.158,0,0,0,0,2.317H225.4a1.158,1.158,0,1,0,0-2.317Z" transform="translate(-175.816 -117.363)"/><path d="M130.093,370.168h4.942a1.158,1.158,0,1,0,0-2.317h-4.942a1.158,1.158,0,1,0,0,2.317Z" transform="translate(-102.75 -314.643)"/><path d="M135.036,470.357h-4.942a1.158,1.158,0,1,0,0,2.317h4.942a1.158,1.158,0,0,0,0-2.317Z" transform="translate(-102.75 -402.322)"/><path d="M237.542,470.357H232.6a1.158,1.158,0,1,0,0,2.317h4.942a1.158,1.158,0,1,0,0-2.317Z" transform="translate(-190.429 -402.322)"/></g></g></g></svg>