<svg xmlns="http://www.w3.org/2000/svg" width="190" height="142.217" viewBox="0 0 190 142.217"><g transform="translate(-180 -19790.238)"><g transform="translate(0 -88.545)"><g transform="translate(179.072 19877.281)"><g transform="translate(33.992 1.502)"><path d="M131.691,33.585v107.3a4.97,4.97,0,0,1-4.97,4.97H44.256a4.97,4.97,0,0,1-4.97-4.97V11.785a4.97,4.97,0,0,1,4.97-4.97H104.92Z" transform="translate(-37.809 -5.333)" fill="#e8f1f8"/><path d="M131.691,71.391v107.3a4.963,4.963,0,0,1-4.97,4.97H44.256a4.963,4.963,0,0,1-4.97-4.97v-7.455A87.467,87.467,0,0,0,119.548,84.08V59.248Z" transform="translate(-37.809 -43.138)" opacity="0.12"/><path d="M301.322,33.585h-21.8a4.97,4.97,0,0,1-4.97-4.97V6.815Z" transform="translate(-207.44 -5.333)" fill="#acbadf"/><path d="M128.7,73.246a22.26,22.26,0,1,1-22.257-22.257A22.257,22.257,0,0,1,128.7,73.246Z" transform="translate(-70.175 -37.183)" fill="#f78721"/><path d="M139.3,90.55a15.566,15.566,0,1,1-15.563-15.563A15.563,15.563,0,0,1,139.3,90.55Z" transform="translate(-87.477 -54.486)" fill="#fdcf17"/><path d="M143.848,95.1a15.561,15.561,0,0,1-29.367,7.189,15.375,15.375,0,0,0,7.179,1.762,15.569,15.569,0,0,0,15.57-15.57,15.375,15.375,0,0,0-1.761-7.179,15.518,15.518,0,0,1,8.38,13.8Z" transform="translate(-92.026 -59.039)" opacity="0.1"/><path d="M341.247,292.73v47.779a6.679,6.679,0,0,1-6.679,6.679H297.061a6.679,6.679,0,0,1-6.679-6.679V292.73a6.679,6.679,0,0,1,6.679-6.679h37.508A6.679,6.679,0,0,1,341.247,292.73Z" transform="translate(-218.855 -206.668)" fill="#475da9"/><path d="M341.592,292.73V340.51a6.681,6.681,0,0,1-6.679,6.679H297.406a6.691,6.691,0,0,1-6.545-5.316c.949.067,1.91.093,2.885.093a41.857,41.857,0,0,0,39.391-55.914h1.777A6.681,6.681,0,0,1,341.592,292.73Z" transform="translate(-219.2 -206.668)" opacity="0.1"/><g transform="translate(77.823 85.31)"><path d="M312.947,320.671V310.231a2.935,2.935,0,0,1,2.935-2.935h32.4a2.935,2.935,0,0,1,2.935,2.935v10.439a2.935,2.935,0,0,1-2.935,2.935h-32.4A2.935,2.935,0,0,1,312.947,320.671Z" transform="translate(-312.947 -307.296)" fill="#e8f1f8"/><path d="M319.668,384.556a3.361,3.361,0,1,1-3.351-3.351A3.355,3.355,0,0,1,319.668,384.556Z" transform="translate(-312.947 -360.586)" fill="#e8f1f8"/><path d="M319.668,423.883a3.361,3.361,0,1,1-3.351-3.351A3.355,3.355,0,0,1,319.668,423.883Z" transform="translate(-312.947 -388.941)" fill="#e8f1f8"/><path d="M319.668,463.21a3.361,3.361,0,1,1-3.351-3.351A3.355,3.355,0,0,1,319.668,463.21Z" transform="translate(-312.947 -417.297)" fill="#e8f1f8"/><path d="M357.369,384.556a3.361,3.361,0,1,1-3.351-3.351A3.355,3.355,0,0,1,357.369,384.556Z" transform="translate(-340.13 -360.586)" fill="#e8f1f8"/><path d="M357.369,423.883a3.361,3.361,0,1,1-3.351-3.351A3.355,3.355,0,0,1,357.369,423.883Z" transform="translate(-340.13 -388.941)" fill="#e8f1f8"/><path d="M357.369,463.21a3.361,3.361,0,1,1-3.351-3.351A3.355,3.355,0,0,1,357.369,463.21Z" transform="translate(-340.13 -417.297)" fill="#e8f1f8"/><path d="M395.07,384.556a3.361,3.361,0,1,1-3.351-3.351A3.355,3.355,0,0,1,395.07,384.556Z" transform="translate(-367.313 -360.586)" fill="#e8f1f8"/><path d="M395.07,423.883a3.361,3.361,0,1,1-3.351-3.351A3.355,3.355,0,0,1,395.07,423.883Z" transform="translate(-367.313 -388.941)" fill="#e8f1f8"/><path d="M395.07,463.21a3.361,3.361,0,1,1-3.351-3.351A3.355,3.355,0,0,1,395.07,463.21Z" transform="translate(-367.313 -417.297)" fill="#e8f1f8"/><path d="M432.771,384.556a3.361,3.361,0,1,1-3.351-3.351A3.355,3.355,0,0,1,432.771,384.556Z" transform="translate(-394.497 -360.586)" fill="#e8f1f8"/></g><path d="M426.05,434.854a3.361,3.361,0,1,0,6.721,0V423.883a3.361,3.361,0,0,0-6.721,0Z" transform="translate(-316.674 -303.631)" fill="#f14f4a"/><path d="M151.018,109.869h-4.875a1.479,1.479,0,0,0,0,2.958h2.425v.961a1.479,1.479,0,1,0,2.958,0v-1.013a4.4,4.4,0,0,0-.508-8.778h-1.94a1.456,1.456,0,0,1,0-2.913h4.877a1.479,1.479,0,0,0,0-2.958h-2.428v-.961a1.479,1.479,0,1,0-2.958,0v1.013a4.4,4.4,0,0,0,.51,8.778h1.94a1.456,1.456,0,1,1,0,2.913Z" transform="translate(-113.789 -69.411)"/><path d="M80.351,263.113h67.358a1.479,1.479,0,1,0,0-2.958H80.351a1.479,1.479,0,1,0,0,2.958Z" transform="translate(-66.351 -187.996)"/><path d="M80.351,321.965h43.041a1.479,1.479,0,1,0,0-2.958H80.351a1.479,1.479,0,1,0,0,2.958Z" transform="translate(-66.351 -230.43)"/><path d="M80.351,380.814h43.041a1.479,1.479,0,1,0,0-2.958H80.351a1.479,1.479,0,1,0,0,2.958Z" transform="translate(-66.351 -272.861)"/><path d="M80.351,439.666h43.041a1.479,1.479,0,1,0,0-2.958H80.351a1.479,1.479,0,1,0,0,2.958Z" transform="translate(-66.351 -315.295)"/><path d="M102.615,93.165A23.74,23.74,0,1,0,78.872,69.423a23.767,23.767,0,0,0,23.743,23.743Zm0-44.521A20.781,20.781,0,1,1,81.83,69.423a20.8,20.8,0,0,1,20.784-20.779Z" transform="translate(-66.351 -33.36)"/><path d="M33.992,7.951v129.1A6.456,6.456,0,0,0,40.44,143.5l109.266,0a8.166,8.166,0,0,0,8.157-8.158V87.564a8.166,8.166,0,0,0-8.157-8.158H129.351V29.754a1.65,1.65,0,0,0-.432-1.045C86.3-13.913,117.534,17.322,102.135,1.928A1.7,1.7,0,0,0,101.1,1.5H40.44a6.456,6.456,0,0,0-6.448,6.449ZM149.706,82.364a5.205,5.205,0,0,1,5.2,5.2v47.78a5.205,5.205,0,0,1-5.2,5.2H149.1l-36.931,0a5.2,5.2,0,0,1-5.17-5.2V87.564a5.205,5.205,0,0,1,5.2-5.2ZM102.582,6.555l21.72,21.72H106.073a3.5,3.5,0,0,1-3.491-3.491ZM36.95,7.951A3.494,3.494,0,0,1,40.44,4.46H99.624V24.784a6.457,6.457,0,0,0,6.449,6.449h20.319V79.406H112.2a8.166,8.166,0,0,0-8.157,8.158v47.78a8.122,8.122,0,0,0,1.874,5.2H40.44a3.494,3.494,0,0,1-3.49-3.491Z" transform="translate(-33.992 -1.502)"/><path d="M119.916,103.773A17.045,17.045,0,1,0,102.87,86.727,17.064,17.064,0,0,0,119.916,103.773Zm0-31.131a14.086,14.086,0,1,1-14.088,14.084A14.1,14.1,0,0,1,119.916,72.642Z" transform="translate(-83.654 -50.663)"/><path d="M425.6,415.229a4.845,4.845,0,0,0-4.849,4.83v10.971a4.84,4.84,0,1,0,9.679,0V420.059A4.835,4.835,0,0,0,425.6,415.229Zm1.872,15.8a1.881,1.881,0,1,1-3.763,0V420.059a1.881,1.881,0,0,1,3.763,0Z" transform="translate(-312.851 -299.808)"/><path d="M307.647,306.407v10.44a4.42,4.42,0,0,0,4.414,4.414h32.4a4.42,4.42,0,0,0,4.414-4.414v-10.44a4.42,4.42,0,0,0-4.414-4.414h-32.4A4.42,4.42,0,0,0,307.647,306.407Zm2.958,0a1.457,1.457,0,0,1,1.456-1.456h32.4a1.457,1.457,0,0,1,1.456,1.456v10.44a1.457,1.457,0,0,1-1.456,1.456h-32.4a1.457,1.457,0,0,1-1.456-1.456Z" transform="translate(-231.303 -218.162)"/><path d="M312.5,375.9a4.84,4.84,0,1,0,4.83,4.83A4.845,4.845,0,0,0,312.5,375.9Zm0,6.722a1.882,1.882,0,1,1,1.872-1.891A1.871,1.871,0,0,1,312.5,382.624Z" transform="translate(-231.304 -271.452)"/><path d="M312.5,415.229a4.84,4.84,0,1,0,4.83,4.83A4.845,4.845,0,0,0,312.5,415.229Zm0,6.722a1.882,1.882,0,1,1,1.872-1.891A1.871,1.871,0,0,1,312.5,421.951Z" transform="translate(-231.304 -299.808)"/><path d="M312.5,454.556a4.84,4.84,0,1,0,4.83,4.83A4.845,4.845,0,0,0,312.5,454.556Zm0,6.722a1.882,1.882,0,1,1,1.872-1.891A1.871,1.871,0,0,1,312.5,461.278Z" transform="translate(-231.304 -328.163)"/><path d="M350.195,375.9a4.84,4.84,0,1,0,4.83,4.83A4.845,4.845,0,0,0,350.195,375.9Zm0,6.722a1.882,1.882,0,1,1,1.872-1.891A1.871,1.871,0,0,1,350.195,382.624Z" transform="translate(-258.485 -271.452)"/><path d="M350.195,415.229a4.84,4.84,0,1,0,4.83,4.83A4.845,4.845,0,0,0,350.195,415.229Zm0,6.722a1.882,1.882,0,1,1,1.872-1.891A1.871,1.871,0,0,1,350.195,421.951Z" transform="translate(-258.485 -299.808)"/><path d="M350.195,454.556a4.84,4.84,0,1,0,4.83,4.83A4.845,4.845,0,0,0,350.195,454.556Zm0,6.722a1.882,1.882,0,1,1,1.872-1.891A1.871,1.871,0,0,1,350.195,461.278Z" transform="translate(-258.485 -328.163)"/><path d="M387.9,375.9a4.84,4.84,0,1,0,4.83,4.83A4.845,4.845,0,0,0,387.9,375.9Zm0,6.722a1.882,1.882,0,1,1,1.872-1.891A1.871,1.871,0,0,1,387.9,382.624Z" transform="translate(-285.67 -271.452)"/><path d="M387.9,415.229a4.84,4.84,0,1,0,4.83,4.83A4.845,4.845,0,0,0,387.9,415.229Zm0,6.722a1.882,1.882,0,1,1,1.872-1.891A1.871,1.871,0,0,1,387.9,421.951Z" transform="translate(-285.67 -299.808)"/><path d="M387.9,454.556a4.84,4.84,0,1,0,4.83,4.83A4.845,4.845,0,0,0,387.9,454.556Zm0,6.722a1.882,1.882,0,1,1,1.872-1.891A1.871,1.871,0,0,1,387.9,461.278Z" transform="translate(-285.67 -328.163)"/><path d="M425.6,375.9a4.84,4.84,0,1,0,4.83,4.83A4.845,4.845,0,0,0,425.6,375.9Zm0,6.722a1.882,1.882,0,1,1,1.872-1.891A1.871,1.871,0,0,1,425.6,382.624Z" transform="translate(-312.851 -271.452)"/></g></g><rect width="190" height="142" transform="translate(180 19879)" fill="none"/></g></g></svg>