<svg xmlns="http://www.w3.org/2000/svg" xmlns:xlink="http://www.w3.org/1999/xlink" width="168" height="156" viewBox="0 0 168 156"><defs><filter id="a" x="0" y="0" width="168" height="156" filterUnits="userSpaceOnUse"><feOffset dy="3" input="SourceAlpha"/><feGaussianBlur stdDeviation="3" result="b"/><feFlood flood-opacity="0.161"/><feComposite operator="in" in2="b"/><feComposite in="SourceGraphic"/></filter></defs><g transform="translate(-1032 -1975)"><g transform="translate(708.695 -2356.382)"><g transform="matrix(1, 0, 0, 1, 323.3, 4331.38)" filter="url(#a)"><rect width="150" height="138" rx="17" transform="translate(9 6)" fill="#fff"/></g><g transform="translate(367.232 4367.233)"><path d="M272.443,8.538,264.529,19.09l7.914,10.552h29.019V8.538Zm1.319,13.19A2.638,2.638,0,1,1,276.4,19.09,2.637,2.637,0,0,1,273.762,21.728Z" transform="translate(-223.639 -7.214)" fill="#4398d1"/><path d="M374.751,39.274,351.218,55.628h23.533Z" transform="translate(-296.927 -33.199)" fill="#3f8fc4"/><rect width="36.933" height="32.976" transform="translate(21.105 32.981)" fill="#f9b44d"/><rect width="7.914" height="7.914" transform="translate(35.614 32.981)" fill="#f77219"/><path d="M412.531,38.1H417.5V35.457h-2.638V34.138h-2.638v1.351a2.939,2.939,0,0,0-1.008,5.556l3.472,1.736a.311.311,0,0,1-.132.591h-4.97v2.638h2.638v1.319h2.638V45.978a2.939,2.939,0,0,0,1.008-5.556l-3.472-1.736a.311.311,0,0,1,.132-.591Z" transform="translate(-346.267 -28.857)" fill="#87ced9"/><path d="M208.257,98.609h-5.936V95.971h5.936a4.617,4.617,0,0,0,0-9.233H179.9a9.233,9.233,0,0,1,0-18.466h11.871v2.638H179.9a6.6,6.6,0,0,0,0,13.19h28.359a7.255,7.255,0,1,1,0,14.509Z" transform="translate(-144.283 -57.714)" fill="#4398d1"/><path d="M136.531,270.9v.66h36.933V243.2Z" transform="translate(-115.426 -205.603)" fill="#f7aa36"/><path d="M145.226,354.219h-2.638A4.617,4.617,0,0,0,147.2,349.6h0a4.617,4.617,0,0,0-4.617-4.617H129.4a18.608,18.608,0,0,0-18.467,0h0V367.41h34.3l23.927-14.356a5.052,5.052,0,0,0,2.453-4.333h0a5.054,5.054,0,0,0-5.053-5.053h-.278a5.056,5.056,0,0,0-2.374.595Z" transform="translate(-93.784 -289.581)" fill="#fec9a3"/><rect width="17.147" height="22.424" transform="translate(0 55.405)" fill="#4398d1"/><path d="M246.224,412.236H231.715a1.319,1.319,0,0,1,0-2.638h14.509a1.319,1.319,0,0,1,0,2.638Z" transform="translate(-194.782 -346.279)" fill="#f5b789"/><rect width="17.147" height="13.19" transform="translate(0 64.638)" fill="#3f8fc4"/><circle cx="2.638" cy="2.638" r="2.638" transform="translate(6.595 67.276)" fill="#18588c"/><path d="M42.046,430.621a3.957,3.957,0,1,0-3.957,3.957,3.957,3.957,0,0,0,3.957-3.957Zm-5.276,0a1.319,1.319,0,1,1,1.319,1.319A1.32,1.32,0,0,1,36.77,430.621Z" transform="translate(-28.856 -360.707)"/><path d="M77.823,0H48.8a1.318,1.318,0,0,0-1.055.528L40.231,10.557H35.614a9.233,9.233,0,1,0,0,18.466H63.974a4.617,4.617,0,0,1,0,9.233H59.357V32.981a1.32,1.32,0,0,0-1.319-1.319H21.1a1.32,1.32,0,0,0-1.319,1.319V52.766a19.659,19.659,0,0,0-2.964,1.319H0v2.638H15.828V76.509H0v2.638H49.981a6.6,6.6,0,0,0,3.394-.94L76.048,64.6A6.372,6.372,0,0,0,72.77,52.767h-.278a6.389,6.389,0,0,0-3,.749L59.357,58.923V40.9h4.617a7.255,7.255,0,1,0,0-14.51H35.614a6.6,6.6,0,1,1,0-13.19h4.617L47.749,23.22a1.318,1.318,0,0,0,1.055.528H77.823a1.32,1.32,0,0,0,1.319-1.319V1.324A1.319,1.319,0,0,0,77.823,0ZM36.933,34.3h5.276v5.276H36.933V34.3Zm-14.509,0H34.3v6.6a1.32,1.32,0,0,0,1.319,1.319h7.914A1.32,1.32,0,0,0,44.847,40.9V34.3H56.719V60.329L54.558,61.48A5.936,5.936,0,0,0,48.8,54.086H35.958a20.016,20.016,0,0,0-13.535-2.047V34.3ZM70.735,55.844a3.743,3.743,0,0,1,1.757-.439h.278a3.734,3.734,0,0,1,1.92,6.937l-22.673,13.6a3.955,3.955,0,0,1-2.037.565H18.467V56.2a17.37,17.37,0,0,1,16.488.36,1.313,1.313,0,0,0,.66.168H48.8a3.3,3.3,0,0,1,0,6.6H36.933a1.319,1.319,0,1,0,0,2.638H51.443a1.325,1.325,0,0,0,.621-.154ZM76.5,21.11H49.464L43.529,13.2h2.881a3.957,3.957,0,1,0,0-2.638H43.529l5.936-7.914H76.5ZM48.8,11.876A1.319,1.319,0,1,1,50.124,13.2,1.32,1.32,0,0,1,48.8,11.876Z"/><path d="M412.219,47.328h2.638V45.978a2.939,2.939,0,0,0,1.008-5.556l-3.472-1.736a.311.311,0,0,1,.132-.591h4.97V35.457h-2.638V34.138h-2.638v1.351a2.939,2.939,0,0,0-1.008,5.556l3.472,1.736a.311.311,0,0,1-.132.591h-4.97v2.638h2.638Z" transform="translate(-346.267 -28.857)"/></g></g></g></svg>