<svg xmlns="http://www.w3.org/2000/svg" xmlns:xlink="http://www.w3.org/1999/xlink" width="168" height="156" viewBox="0 0 168 156"><defs><filter id="a" x="0" y="0" width="168" height="156" filterUnits="userSpaceOnUse"><feOffset dy="3" input="SourceAlpha"/><feGaussianBlur stdDeviation="3" result="b"/><feFlood flood-opacity="0.161"/><feComposite operator="in" in2="b"/><feComposite in="SourceGraphic"/></filter></defs><g transform="translate(-717 -3436)"><g transform="matrix(1, 0, 0, 1, 717, 3436)" filter="url(#a)"><rect width="150" height="138" rx="17" transform="translate(9 6)" fill="#fff"/></g><g transform="translate(760.742 3472.439)"><g transform="translate(6.099 1.13)"><path d="M50.347,7.5H22.413a9.947,9.947,0,0,0-9.947,9.947V72.414a9.947,9.947,0,0,0,9.947,9.947H60.124a9.947,9.947,0,0,0,9.947-9.947V27.223a7.537,7.537,0,0,0-2.207-5.329L55.676,9.708A7.537,7.537,0,0,0,50.347,7.5Z" transform="translate(-12.466 -7.5)" fill="#fef5e6"/><path d="M263,21.894,250.816,9.708A7.537,7.537,0,0,0,245.487,7.5h-1.379l-1.822,14.464a9.239,9.239,0,0,0,7.257,10.192.289.289,0,0,1,.115.511,18.817,18.817,0,0,0,4.021,32.082,2.666,2.666,0,0,1,1.578,2.445v10.43a5.963,5.963,0,0,0,2.067,4.521,9.949,9.949,0,0,0,7.886-9.731V27.223A7.535,7.535,0,0,0,263,21.894Z" transform="translate(-207.605 -7.5)" fill="#f8e0b8"/><path d="M33.184,56.559V31.831A29.183,29.183,0,0,1,46.227,7.5H22.413a9.947,9.947,0,0,0-9.947,9.947V72.414a9.947,9.947,0,0,0,9.947,9.947H48.692a29.206,29.206,0,0,1-15.508-25.8Z" transform="translate(-12.466 -7.5)" fill="#f8e0b8"/><path d="M360.541,377.122a5.235,5.235,0,0,1-5.235-5.235V358.576h10.47v13.311A5.235,5.235,0,0,1,360.541,377.122Z" transform="translate(-303.665 -305.695)" fill="#daa985"/><path d="M355.306,366.342a16.505,16.505,0,0,0,10.47,0v-7.767h-10.47Z" transform="translate(-303.665 -305.694)" fill="#cb8a5a"/><circle cx="16.489" cy="16.489" r="16.489" transform="translate(35.344 30.879) rotate(-22.514)" fill="#808fa4"/><path d="M291.843,176.84a19.339,19.339,0,0,1,6.46-14.448q-.607-.045-1.225-.045A16.489,16.489,0,1,0,302.8,194.3,19.391,19.391,0,0,1,291.843,176.84Z" transform="translate(-240.202 -139.023)" fill="#64768e"/><path d="M286.451,24.39,274.265,12.2a7.536,7.536,0,0,0-2.784-1.765l-1.61,12.786a6.4,6.4,0,0,0,7.149,7.149l11.6-1.461A7.535,7.535,0,0,0,286.451,24.39Z" transform="translate(-231.054 -9.996)" fill="#fef5e6"/><circle cx="11.798" cy="11.798" r="11.798" transform="translate(45.078 28.015)" fill="#8cd6fe"/><path d="M318.3,205.152a19.3,19.3,0,0,1,2.469-9.472,11.8,11.8,0,0,0,2.766,23.266c.173,0,.345-.006.517-.013A19.328,19.328,0,0,1,318.3,205.152Z" transform="translate(-266.659 -167.335)" fill="#5fc5fc"/><g transform="translate(12.397 57.979)"><ellipse cx="4.422" cy="3.521" rx="4.422" ry="3.521" fill="#e89fa9"/><ellipse cx="4.422" cy="3.521" rx="4.422" ry="3.521" transform="translate(23.967)" fill="#e89fa9"/></g></g><g transform="translate(4.97 0)"><path d="M62.83,123.725h.029a1.129,1.129,0,0,0,.823-.388l5.9-6.784a1.13,1.13,0,1,0-1.7-1.483l-5.094,5.854-1.9-1.969a1.13,1.13,0,0,0-1.626,1.569l2.757,2.856A1.129,1.129,0,0,0,62.83,123.725Z" transform="translate(-50.814 -97.408)"/><path d="M59.261,204.42l2.757,2.856a1.13,1.13,0,0,0,.813.345h.029a1.129,1.129,0,0,0,.823-.388l5.9-6.784a1.13,1.13,0,1,0-1.7-1.483l-5.094,5.854-1.9-1.969a1.13,1.13,0,0,0-1.626,1.569Z" transform="translate(-50.814 -168.667)"/><path d="M155.414,139.459h13.032a1.13,1.13,0,1,0,0-2.259H155.414a1.13,1.13,0,1,0,0,2.259Z" transform="translate(-131.793 -116.534)"/><path d="M155.414,223.356h13.032a1.13,1.13,0,1,0,0-2.259H155.414a1.13,1.13,0,1,0,0,2.259Z" transform="translate(-131.793 -187.794)"/><path d="M59.261,288.317l2.757,2.856a1.13,1.13,0,0,0,.813.345h.029a1.129,1.129,0,0,0,.823-.388l5.9-6.784a1.13,1.13,0,1,0-1.7-1.483l-5.094,5.854-1.9-1.969a1.13,1.13,0,1,0-1.626,1.569Z" transform="translate(-50.814 -239.927)"/><path d="M155.414,307.252h13.032a1.13,1.13,0,1,0,0-2.259H155.414a1.13,1.13,0,1,0,0,2.259Z" transform="translate(-131.793 -259.053)"/><path d="M135.992,376.729v-1.807a1.13,1.13,0,1,0-2.259,0v1.807a1.13,1.13,0,1,0,2.259,0Z" transform="translate(-114.338 -317.489)"/><path d="M260.889,376.729v-1.807a1.13,1.13,0,0,0-2.259,0v1.807a1.13,1.13,0,0,0,2.259,0Z" transform="translate(-220.422 -317.489)"/><path d="M184.954,385.822a2.157,2.157,0,0,1-3.257,0,1.13,1.13,0,1,0-1.7,1.484,4.416,4.416,0,0,0,6.663,0,1.13,1.13,0,1,0-1.7-1.484Z" transform="translate(-153.395 -327.378)"/><path d="M367.46,220.33c-.258-.091-.523-.187-.787-.287v-4.209a2.714,2.714,0,0,1,1.092.524.89.89,0,0,0,1.2-1.314,4.6,4.6,0,0,0-2.293-1.022v-.86a.89.89,0,1,0-1.78,0v.928c-.132.029-.266.063-.4.1a3.625,3.625,0,0,0-2.483,2.844,3.192,3.192,0,0,0,1.045,3.145,8.6,8.6,0,0,0,1.841,1.055v5.337a3.658,3.658,0,0,1-1.944-.729.89.89,0,0,0-.975,1.49,5.349,5.349,0,0,0,2.919,1.023v.963a.89.89,0,0,0,1.78,0v-1.033a4.361,4.361,0,0,0,3.422-3.577A3.828,3.828,0,0,0,367.46,220.33Zm-3.309-1.548a1.436,1.436,0,0,1-.394-1.414,1.884,1.884,0,0,1,1.137-1.431v3.32A5.373,5.373,0,0,1,364.151,218.782Zm4.189,5.633a2.617,2.617,0,0,1-1.667,2.023v-4.5l.193.069A2.077,2.077,0,0,1,368.34,224.415Z" transform="translate(-307.859 -180.298)"/><path d="M80.593,40.943a17.686,17.686,0,0,0-.338-3.446,1.13,1.13,0,1,0-2.216.441A15.371,15.371,0,0,1,67.85,55.508a15.215,15.215,0,0,1-4.2.778c-.235.01-.463.016-.679.016a15.359,15.359,0,0,1,0-30.719c.213,0,.442.005.68.016a15.3,15.3,0,0,1,12.637,7.7,1.13,1.13,0,0,0,1.957-1.129,17.552,17.552,0,0,0-13.413-8.744c.108-3.282.007-6.187-2.541-8.7h0C57.558,10.071,52.256,4.469,49.2,1.75v0A8.739,8.739,0,0,0,43.988,0H16.045A11.088,11.088,0,0,0,4.97,11.075V49.532a1.13,1.13,0,0,0,2.259,0V11.075a8.826,8.826,0,0,1,8.816-8.816H43.987a6.321,6.321,0,0,1,1.3.135L43.793,14.217a7.531,7.531,0,0,0,7.453,8.471,7.7,7.7,0,0,0,.958-.06l10.38-1.308c.016.632,0,1.337-.007,2.009A17.617,17.617,0,0,0,56.61,57.37v9.952a6.413,6.413,0,0,0,2.94,5.361,8.773,8.773,0,0,1-5.794,2.178H16.045a8.826,8.826,0,0,1-8.816-8.816V54.8a1.13,1.13,0,1,0-2.259,0V66.045A11.088,11.088,0,0,0,16.045,77.12H53.756a11.034,11.034,0,0,0,8.108-3.532,6.366,6.366,0,0,0,7.475-6.266V57.37A17.607,17.607,0,0,0,80.593,40.943ZM51.922,20.386A5.27,5.27,0,0,1,46.035,14.5L47.448,3.281c1.9,1.434,8.778,8.681,10.629,10.426,2.631,2.811,3.391,2.827,4.233,5.37ZM62.974,71.427a4.057,4.057,0,0,1-1.187-.175,4.128,4.128,0,0,1-2.918-3.929V58.076a17.58,17.58,0,0,0,4.1.486c.249,0,.511-.006.778-.018a17.5,17.5,0,0,0,3.328-.469v9.247a4.11,4.11,0,0,1-4.106,4.1Z" transform="translate(-4.97 0)"/><path d="M317.163,185.994a12.927,12.927,0,1,0,12.927,12.927A12.942,12.942,0,0,0,317.163,185.994Zm0,23.6a10.668,10.668,0,1,1,10.668-10.668A10.68,10.68,0,0,1,317.163,209.59Z" transform="translate(-259.159 -157.979)"/></g></g></g></svg>