<svg xmlns="http://www.w3.org/2000/svg" xmlns:xlink="http://www.w3.org/1999/xlink" width="168" height="156" viewBox="0 0 168 156"><defs><filter id="a" x="0" y="0" width="168" height="156" filterUnits="userSpaceOnUse"><feOffset dy="3" input="SourceAlpha"/><feGaussianBlur stdDeviation="3" result="b"/><feFlood flood-opacity="0.161"/><feComposite operator="in" in2="b"/><feComposite in="SourceGraphic"/></filter></defs><g transform="translate(-1032 -3436)"><g transform="matrix(1, 0, 0, 1, 1032, 3436)" filter="url(#a)"><rect width="150" height="138" rx="17" transform="translate(9 6)" fill="#fff"/></g><g transform="translate(1076.439 3471.439)"><g transform="translate(2.244 17.17)"><g transform="translate(2.488 34.829)"><path d="M4,42h9.951V66.878H4Z" transform="translate(-4 -42)" fill="#ff826e"/></g><g transform="translate(17.414 37.316)"><path d="M16,44h9.951V66.39H16Z" transform="translate(-16 -44)" fill="#ff826e"/></g><g transform="translate(47.267 12.439)"><path d="M56.17,71.267H40V24h9.951V36.439H49.74a3.518,3.518,0,0,0-2.488,6.008l3.943,3.943L46.68,53.617a11.12,11.12,0,0,0-1.7,5.933v.522A11.2,11.2,0,0,0,56.17,71.267Z" transform="translate(-40 -24)" fill="#ff826e"/></g><g transform="translate(32.341 22.39)"><path d="M28,32h9.951V69.316H28Z" transform="translate(-28 -32)" fill="#ff826e"/></g><g transform="translate(53.487 22.39)"><path d="M52.563,34.488A3.268,3.268,0,0,1,55.735,32h3.408a3.27,3.27,0,0,1,3.271,3.271,3.056,3.056,0,0,1-.124.9l-2.363,8.272H49.976L46.032,40.5a3.518,3.518,0,0,1,2.488-6.008h4.043Z" transform="translate(-45 -32)" fill="#a0d468"/></g><g transform="translate(52.243 34.829)"><path d="M50.219,42H60.17l4.515,7.227a11.12,11.12,0,0,1,1.7,5.933v.522a11.195,11.195,0,1,1-22.39,0V55.16a11.12,11.12,0,0,1,1.7-5.933Z" transform="translate(-44 -42)" fill="#b4dd7f"/></g><g transform="translate(48.511)"><path d="M47.369,15.095A3.729,3.729,0,1,1,44.732,14,3.723,3.723,0,0,1,47.369,15.095Z" transform="translate(-41 -14)" fill="#fcd770"/></g><g transform="translate(31.097 9.951)"><path d="M33.978,23.891a3.662,3.662,0,0,1,.485,1.841,3.732,3.732,0,0,1-7.414.61,3.27,3.27,0,0,1-.05-.61,3.732,3.732,0,0,1,6.978-1.841Z" transform="translate(-27 -22)" fill="#fcd770"/></g><g transform="translate(0 4.976)"><path d="M26.7,28.4a12.2,12.2,0,0,1,.174,2.04A12.477,12.477,0,1,1,26.7,28.4Z" transform="translate(-2 -18)" fill="#fcd770"/></g></g><g transform="translate(1 1)"><path d="M11.488,35.746v2.668h2.488V35.746A3.537,3.537,0,0,0,14.5,29.2l-2.426-1.212a1.063,1.063,0,0,1,.475-2.014h.363a1.063,1.063,0,0,1,1.062,1.062v.182h2.488v-.182a3.544,3.544,0,0,0-2.488-3.37V21H11.488v2.668a3.537,3.537,0,0,0-.525,6.545l2.426,1.212a1.063,1.063,0,0,1-.475,2.014H12.55a1.063,1.063,0,0,1-1.062-1.062V30.951H9v1.425A3.544,3.544,0,0,0,11.488,35.746Z" transform="translate(0.951 3.878)"/><path d="M14.683,48.267A13.7,13.7,0,0,0,28.365,34.585c0-.341-.026-.675-.051-1.011l4.219-.7a4.955,4.955,0,0,0,9.32-3.316l9.074-5.186a4.956,4.956,0,0,0,7.829-5.977L71.9,5.247v6.948h2.488V1H63.194V3.488h6.948L57,16.632a4.91,4.91,0,0,0-2.511-.705A4.981,4.981,0,0,0,49.511,20.9a4.931,4.931,0,0,0,.194,1.3l-9.074,5.186a4.948,4.948,0,0,0-8.489,3.026l-4.238.707A13.676,13.676,0,1,0,14.683,48.267Zm39.8-29.853A2.488,2.488,0,1,1,52,20.9,2.49,2.49,0,0,1,54.487,18.414ZM37.073,28.365a2.488,2.488,0,1,1-2.488,2.488A2.49,2.49,0,0,1,37.073,28.365ZM14.683,23.39A11.195,11.195,0,1,1,3.488,34.585,11.209,11.209,0,0,1,14.683,23.39Z" transform="translate(-1 -1)"/><path d="M3,68.365H15.439V41H3ZM5.488,43.488h7.463v22.39H5.488Z" transform="translate(-0.512 8.755)"/><path d="M15,67.878H27.439V43H15Zm2.488-22.39h7.463v19.9H17.488Z" transform="translate(2.414 9.243)"/><path d="M27,70.8H39.439V31H27Zm2.488-37.316h7.463V68.316H29.488Z" transform="translate(5.341 6.316)"/><path d="M54.976,47.668V45H52.488v2.668a3.537,3.537,0,0,0-.525,6.545l2.426,1.213a1.062,1.062,0,0,1-.475,2.013H53.55a1.064,1.064,0,0,1-1.062-1.062V54.951H50v1.425a3.541,3.541,0,0,0,2.488,3.37v2.668h2.488V59.746A3.537,3.537,0,0,0,55.5,53.2l-2.426-1.213a1.062,1.062,0,0,1,.475-2.013h.363a1.064,1.064,0,0,1,1.062,1.062v.182h2.488v-.182A3.544,3.544,0,0,0,54.976,47.668Z" transform="translate(10.95 9.731)"/><path d="M66.962,53.2l-4.224-6.759,2.21-7.736A4.519,4.519,0,0,0,60.6,32.951H57.2a4.5,4.5,0,0,0-4.013,2.488H51.439V23H39V72.755H56.414A12.453,12.453,0,0,0,68.853,60.316V59.8A12.428,12.428,0,0,0,66.962,53.2ZM55.17,37.469a2.032,2.032,0,0,1,2.029-2.03h3.4a2.029,2.029,0,0,1,1.952,2.587l-2.1,7.364h-8.5l-3.581-3.581a2.275,2.275,0,0,1,1.61-3.882h2.7v2.488H55.17Zm-13.683,32.8V25.488h7.463v10.07a4.755,4.755,0,0,0-2.336,8.009l3.245,3.245L45.867,53.2A12.418,12.418,0,0,0,43.976,59.8v.521a12.414,12.414,0,0,0,5.008,9.951Zm24.878-9.951a9.951,9.951,0,0,1-19.9,0V59.8a9.928,9.928,0,0,1,1.513-5.273l4.152-6.645H60.7l4.152,6.645A9.928,9.928,0,0,1,66.365,59.8Z" transform="translate(8.267 4.365)"/></g></g></g></svg>