<svg xmlns="http://www.w3.org/2000/svg" xmlns:xlink="http://www.w3.org/1999/xlink" width="168" height="156" viewBox="0 0 168 156"><defs><filter id="a" x="0" y="0" width="168" height="156" filterUnits="userSpaceOnUse"><feOffset dy="3" input="SourceAlpha"/><feGaussianBlur stdDeviation="3" result="b"/><feFlood flood-opacity="0.161"/><feComposite operator="in" in2="b"/><feComposite in="SourceGraphic"/></filter></defs><g transform="translate(6023 9725)"><g transform="translate(-6346.305 -14056.382)"><g transform="matrix(1, 0, 0, 1, 323.3, 4331.38)" filter="url(#a)"><rect width="150" height="138" rx="17" transform="translate(9 6)" fill="#fff"/></g><g transform="translate(366.614 4366.778)"><path d="M52.727,60.593V46.132A10.132,10.132,0,0,0,42.6,36H29.931A10.132,10.132,0,0,0,19.8,46.132V60.593a2.778,2.778,0,0,1-1.9,2.636A2.778,2.778,0,0,0,16,65.864v.285a2.778,2.778,0,0,0,2.778,2.778h34.97a2.778,2.778,0,0,0,2.778-2.778v-.285a2.778,2.778,0,0,0-1.9-2.636,2.778,2.778,0,0,1-1.9-2.636Z" transform="translate(3.978 9.303)" fill="#778ea6"/><path d="M16,60v.285a2.778,2.778,0,0,0,2.778,2.778h34.97a2.778,2.778,0,0,0,2.778-2.778V60a2.751,2.751,0,0,0-.9-2H16.9a2.751,2.751,0,0,0-.9,2Z" transform="translate(3.978 15.165)" fill="#64788c"/><path d="M48.031,28H22.2a1.9,1.9,0,0,0-1.581,2.953l5.63,7.178h17.73l5.63-7.178A1.9,1.9,0,0,0,48.031,28Z" transform="translate(5.125 7.171)" fill="#5b6d80"/><path d="M39.2,26H27.743a1.266,1.266,0,0,0-1.176,1.737l4.371,10.928H36l4.371-10.928A1.266,1.266,0,0,0,39.2,26Z" transform="translate(6.77 6.638)" fill="#64788c"/><circle cx="10.132" cy="10.132" r="10.132" transform="translate(30.11 49.102)" fill="#ffe9a6"/><rect width="17.73" height="17.73" rx="1" transform="translate(60.504 6.043)" fill="#82ace6"/><circle cx="8.864" cy="8.864" r="8.864" transform="translate(3.516 6.044)" fill="#ccdbf0"/><path d="M42.366,13.61a7.57,7.57,0,0,0,0-2.957l1.9-1.059a10.038,10.038,0,0,0-2.787-4.683l-1.1.614a1.4,1.4,0,0,1-1.45-.034A8.438,8.438,0,0,0,37.68,4.8a1.308,1.308,0,0,1-.756-1.2V2.372a10.6,10.6,0,0,0-5.587,0V3.6a1.308,1.308,0,0,1-.756,1.2,8.434,8.434,0,0,0-1.246.694,1.4,1.4,0,0,1-1.45.034l-1.094-.611A10.038,10.038,0,0,0,24,9.594l1.9,1.059a7.569,7.569,0,0,0,0,2.957L24,14.669a10.038,10.038,0,0,0,2.787,4.683l1.1-.614a1.4,1.4,0,0,1,1.45.034,8.434,8.434,0,0,0,1.246.694,1.308,1.308,0,0,1,.756,1.2v1.226a10.6,10.6,0,0,0,5.587,0V20.665a1.308,1.308,0,0,1,.756-1.2,8.433,8.433,0,0,0,1.246-.694,1.4,1.4,0,0,1,1.45-.034l1.094.611a10.039,10.039,0,0,0,2.792-4.68Zm-8.234,2.321a3.8,3.8,0,1,1,3.8-3.8A3.8,3.8,0,0,1,34.132,15.931Z" transform="translate(6.11 0.244)" fill="#64788c"/><path d="M34.248,38.084a11.4,11.4,0,1,0,11.4,11.4,11.4,11.4,0,0,0-11.4-11.4Zm0,20.263a8.865,8.865,0,1,1,8.865-8.865,8.865,8.865,0,0,1-8.865,8.865Z" transform="translate(5.803 9.858)"/><path d="M32.65,44.884a1.268,1.268,0,0,1,1.266,1.266h2.533a3.793,3.793,0,0,0-2.533-3.566v-1.5H31.383v1.5a3.79,3.79,0,0,0,1.266,7.365,1.266,1.266,0,1,1-1.266,1.266H28.85a3.793,3.793,0,0,0,2.533,3.566v1.364h2.533V54.782a3.79,3.79,0,0,0-1.267-7.365,1.266,1.266,0,1,1,0-2.533Z" transform="translate(7.402 10.658)"/><path d="M55.144,65.043a1.511,1.511,0,0,1-1.034-1.435V49.147a11.416,11.416,0,0,0-6.966-10.5l4.785-6.106a3.166,3.166,0,0,0-2.634-4.922H44.623a2.5,2.5,0,0,0-2.515-2.533H30.652a2.5,2.5,0,0,0-2.515,2.533H23.465a3.164,3.164,0,0,0-2.577,5l4.727,6.027a11.415,11.415,0,0,0-6.966,10.5V63.608a1.511,1.511,0,0,1-1.034,1.435,4.039,4.039,0,0,0-2.765,3.836v.286a4.049,4.049,0,0,0,4.045,4.044H53.864a4.049,4.049,0,0,0,4.045-4.044v-.286a4.039,4.039,0,0,0-2.765-3.836ZM43.823,30.15h5.471a.62.62,0,0,1,.558.334.6.6,0,0,1,.026.571L44.507,37.9a11.374,11.374,0,0,0-1.795-.156H40.783Zm-1.715-2.533L38.055,37.749H34.7L30.652,27.617ZM22.939,31.134a.633.633,0,0,1,.527-.984h5.471l3.04,7.6H30.047a11.376,11.376,0,0,0-1.8.156Zm32.438,38.03a1.513,1.513,0,0,1-1.512,1.511H18.895a1.513,1.513,0,0,1-1.512-1.511v-.286a1.492,1.492,0,0,1,.21-.736H45.245V65.61h-24.6a4.025,4.025,0,0,0,.541-2V49.147a8.875,8.875,0,0,1,8.865-8.865H42.712a8.875,8.875,0,0,1,8.865,8.865V63.608a4.025,4.025,0,0,0,.541,2h-4.34v2.533h7.389a1.491,1.491,0,0,1,.21.736Z" transform="translate(3.672 6.394)"/><path d="M38.308,22.236l.011-1.265a9.816,9.816,0,0,0,1.432-.8.159.159,0,0,1,.124.021l1.094.611a1.266,1.266,0,0,0,1.49-.188A11.309,11.309,0,0,0,45.6,15.346,1.268,1.268,0,0,0,45,13.914l-1.14-.637q.037-.4.037-.8t-.037-.8L45,11.05A1.268,1.268,0,0,0,45.6,9.618a11.32,11.32,0,0,0-3.137-5.275,1.267,1.267,0,0,0-1.491-.188l-1.1.615a.183.183,0,0,1-.127.02,15.894,15.894,0,0,0-1.441-.841V2.723A1.266,1.266,0,0,0,37.369,1.5,12.535,12.535,0,0,0,34.1,1.085a12.1,12.1,0,0,0-2.971.419,1.267,1.267,0,0,0-.939,1.223l-.011,1.265a9.779,9.779,0,0,0-1.432.8.171.171,0,0,1-.125-.021l-1.094-.611a1.268,1.268,0,0,0-1.49.188,11.309,11.309,0,0,0-3.144,5.271A1.268,1.268,0,0,0,23.5,11.05l1.14.637q-.037.4-.037.8t.037.8l-1.139.637a1.267,1.267,0,0,0-.606,1.432,11.305,11.305,0,0,0,3.137,5.275,1.269,1.269,0,0,0,1.491.188l1.1-.615a.148.148,0,0,1,.127-.02,16.011,16.011,0,0,0,1.441.841v1.226a1.266,1.266,0,0,0,.939,1.223,12.032,12.032,0,0,0,3.116.416H34.4a12.1,12.1,0,0,0,2.971-.419,1.267,1.267,0,0,0,.939-1.223Zm-2.533-1.221v.2a9.014,9.014,0,0,1-1.409.129,8.659,8.659,0,0,1-1.644-.125v-.205a2.577,2.577,0,0,0-1.5-2.352,7.209,7.209,0,0,1-1.059-.59,2.679,2.679,0,0,0-2.777-.09l-.241.135a8.751,8.751,0,0,1-1.5-2.5l.988-.552a1.267,1.267,0,0,0,.626-1.343,6.283,6.283,0,0,1,0-2.481A1.267,1.267,0,0,0,26.632,9.9l-.988-.552a8.776,8.776,0,0,1,1.505-2.5l.237.132a2.669,2.669,0,0,0,2.773-.089A7.259,7.259,0,0,1,31.221,6.3a2.577,2.577,0,0,0,1.5-2.352v-.2a9.013,9.013,0,0,1,1.409-.129,7.966,7.966,0,0,1,1.644.125v.205a2.577,2.577,0,0,0,1.5,2.352,7.283,7.283,0,0,1,1.059.589,2.673,2.673,0,0,0,2.777.092l.241-.135a8.779,8.779,0,0,1,1.5,2.5l-.988.552a1.267,1.267,0,0,0-.626,1.343,6.283,6.283,0,0,1,0,2.481,1.267,1.267,0,0,0,.626,1.343l.988.552a8.777,8.777,0,0,1-1.505,2.5l-.237-.132a2.662,2.662,0,0,0-2.773.089,7.261,7.261,0,0,1-1.062.591,2.577,2.577,0,0,0-1.5,2.352Z" transform="translate(5.803 0)"/><path d="M32.916,6.084a5.066,5.066,0,1,0,5.066,5.066,5.066,5.066,0,0,0-5.066-5.066Zm0,7.6a2.533,2.533,0,1,1,2.533-2.533A2.533,2.533,0,0,1,32.916,13.683Z" transform="translate(7.135 1.332)"/><path d="M10.02,9.747a3.77,3.77,0,0,1,2.882.38l1.266-2.194A6.332,6.332,0,0,0,5.521,10.25l2.194,1.266a3.777,3.777,0,0,1,2.306-1.77Z" transform="translate(1.186 1.598)"/><path d="M50.85,13.084h2.533v3.8H50.85Z" transform="translate(13.264 3.197)"/><path d="M56.85,8.084h2.533V18.216H56.85Z" transform="translate(14.862 1.865)"/><path d="M53.85,10.084h2.533v7.6H53.85Z" transform="translate(14.063 2.398)"/><path d="M64.58,4.084h-15.2A2.536,2.536,0,0,0,46.85,6.617v15.2a2.536,2.536,0,0,0,2.533,2.533h15.2a2.536,2.536,0,0,0,2.533-2.533V6.617A2.536,2.536,0,0,0,64.58,4.084Zm-15.2,17.73V6.617h15.2l0,15.2Z" transform="translate(12.198 0.799)"/><path d="M30.85,21.084h2.533v2.533H30.85Z" transform="translate(7.935 5.329)"/><path d="M53.85,22.084h2.533v2.533H53.85Z" transform="translate(14.063 5.595)"/><path d="M53.85,26.084h2.533v2.533H53.85Z" transform="translate(14.063 6.661)"/><path d="M53.85,30.084h2.533v2.533H53.85Z" transform="translate(14.063 7.727)"/><path d="M53.85,34.084h2.533v2.533H53.85Z" transform="translate(14.063 8.792)"/><path d="M49.85,34.084h2.533v2.533H49.85Z" transform="translate(12.997 8.792)"/><path d="M45.85,34.084h2.533v2.533H45.85Z" transform="translate(11.931 8.792)"/><path d="M7.85,22.084h2.533v2.533H7.85Z" transform="translate(1.807 5.595)"/><path d="M7.85,26.084h2.533v2.533H7.85Z" transform="translate(1.807 6.661)"/><path d="M7.85,30.084h2.533v2.533H7.85Z" transform="translate(1.807 7.727)"/><path d="M7.85,34.084h2.533v2.533H7.85Z" transform="translate(1.807 8.792)"/><path d="M11.85,34.084h2.533v2.533H11.85Z" transform="translate(2.872 8.792)"/><path d="M15.85,34.084h2.533v2.533H15.85Z" transform="translate(3.938 8.792)"/><path d="M3.046,27.672l3.866-4.824a10.123,10.123,0,1,0-1.98-1.578L1.07,26.089ZM4.591,14.216a7.6,7.6,0,1,1,7.6,7.6,7.6,7.6,0,0,1-7.6-7.6Z" transform="translate(0 0.798)"/></g></g></g></svg>